<?xml version="1.0" standalone="no"?>
<!DOCTYPE svg PUBLIC "-//W3C//DTD SVG 1.1//EN" "http://www.w3.org/Graphics/SVG/1.1/DTD/svg11.dtd" >
<svg xmlns="http://www.w3.org/2000/svg" xmlns:xlink="http://www.w3.org/1999/xlink" version="1.1">
<metadata>
Created by FontForge 20201107 at Mon Nov 22 05:29:43 2021
 By 
(c) 2021 Zoho Corporation Pvt. Ltd. All rights reserved.
</metadata>
<defs>
<font id="ZohoPuvi-Extralight" horiz-adv-x="1228" >
  <font-face 
    font-family="Zoho Puvi ExtLt"
    font-weight="200"
    font-stretch="normal"
    units-per-em="2048"
    panose-1="2 1 3 3 2 2 1 1 2 4"
    ascent="1638"
    descent="-410"
    x-height="1071"
    cap-height="1464"
    bbox="-453 -444 2350 2218"
    underline-thickness="102"
    underline-position="-205"
    unicode-range="U+000D-FB02"
  />
<missing-glyph horiz-adv-x="1026" 
 />
    <glyph glyph-name=".notdef" horiz-adv-x="1026" 
 />
    <glyph glyph-name="uni0000" horiz-adv-x="0" 
 />
    <glyph glyph-name="uni0000" horiz-adv-x="0" 
 />
    <glyph glyph-name="uni000D" unicode="&#xd;" horiz-adv-x="512" 
 />
    <glyph glyph-name="space" unicode=" " horiz-adv-x="475" 
 />
    <glyph glyph-name="exclam" unicode="!" horiz-adv-x="571" 
d="M250 348l-13 1116h101l-13 -1116h-75zM215 57q0 29 21 49.5t50 20.5t49.5 -20t20.5 -48q0 -29 -21 -49t-49 -20t-49.5 19.5t-21.5 47.5z" />
    <glyph glyph-name="quotedbl" unicode="&#x22;" horiz-adv-x="753" 
d="M461 1071l-13 393h97l-15 -393h-69zM221 1071l-12 393h94l-12 -393h-70z" />
    <glyph glyph-name="numbersign" unicode="#" horiz-adv-x="1022" 
d="M188 0l72 487h-209v84h219l53 353h-223v84h234l67 456h82l-67 -456h231l68 456h81l-65 -456h229v-84h-239l-54 -353h244v-84h-254l-71 -487h-84l71 487h-229l-74 -487h-82zM352 569h234l51 357h-234z" />
    <glyph glyph-name="dollar" unicode="$" horiz-adv-x="1245" 
d="M586 -276v264q-193 8 -323.5 104t-168.5 279l73 32q33 -161 141.5 -245.5t277.5 -96.5v666q-73 12 -130.5 27.5t-118.5 44t-100.5 66t-65.5 96.5t-26 133q0 92 37.5 166t100.5 120t140.5 71t162.5 28v186h69v-188q152 -8 270 -90t150 -224l-74 -33q-29 124 -122.5 194.5
t-223.5 76.5v-600q88 -14 148 -28.5t126 -44.5t105 -71t64.5 -107.5t25.5 -154.5q0 -95 -39 -173t-105 -128.5t-150 -78.5t-175 -29v-262h-69zM586 811v592q-96 -3 -172 -33t-126.5 -97.5t-50.5 -164.5q0 -60 20.5 -108t52.5 -78.5t80.5 -53.5t93 -35t102.5 -22zM655 717
v-656q101 3 184.5 38.5t138 111t54.5 178.5q0 71 -20 125t-52 88t-83.5 57.5t-101.5 35.5t-120 22z" />
    <glyph glyph-name="percent" unicode="%" horiz-adv-x="1577" 
d="M415 827q-134 0 -224.5 93.5t-90.5 228.5t90 230.5t226 95.5q134 0 223.5 -93t89.5 -230t-89.5 -231t-224.5 -94zM266 0l963 1464h77l-960 -1464h-80zM414 895q107 0 171 75.5t64 186.5q0 108 -61.5 179t-167.5 71q-110 0 -175 -74.5t-65 -182.5t64 -181.5t170 -73.5z
M1159 -12q-135 0 -225 91.5t-90 226.5q0 136 91 232.5t227 96.5q134 0 223 -94t89 -230q0 -137 -89.5 -230t-225.5 -93zM1164 56q106 0 168 72t62 182q0 111 -62.5 184t-168.5 73q-109 0 -174.5 -75.5t-65.5 -182.5q0 -108 66.5 -180.5t174.5 -72.5z" />
    <glyph glyph-name="ampersand" unicode="&#x26;" horiz-adv-x="1390" 
d="M980 367l203 366l71 -31l-225 -399l260 -303h-115l-202 233q-182 -247 -445 -247q-184 0 -305 106t-121 289q0 269 365 446q-156 181 -156 336q0 135 93.5 222.5t230.5 87.5q130 0 215.5 -80.5t85.5 -207.5q0 -58 -21 -109.5t-52 -89t-78.5 -73t-89 -58.5t-95.5 -48z
M554 856q46 22 81.5 41t78.5 50t71 63t47 75.5t19 90.5q0 101 -58 163t-158 62q-105 0 -170 -67.5t-65 -170.5q0 -44 12.5 -86.5t37.5 -83t47 -69t57 -68.5zM920 297l-407 475q-315 -155 -315 -383q0 -151 91.5 -238.5t241.5 -87.5q238 0 389 234z" />
    <glyph glyph-name="quotesingle" unicode="'" horiz-adv-x="419" 
d="M175 1071l-12 393h94l-12 -393h-70z" />
    <glyph glyph-name="parenleft" unicode="(" horiz-adv-x="689" 
d="M557 -303h-88q-166 196 -251 438.5t-85 507.5q0 535 336 940h88q-334 -417 -334 -941q0 -527 334 -945z" />
    <glyph glyph-name="parenright" unicode=")" horiz-adv-x="668" 
d="M207 -301h-86q332 415 332 942q0 529 -332 944h86q340 -413 340 -943q0 -540 -340 -943z" />
    <glyph glyph-name="asterisk" unicode="*" horiz-adv-x="849" 
d="M180 924l199 243l-283 88l23 74l274 -108l-8 301h82l-10 -301l274 108l23 -74l-283 -88l197 -243l-64 -47l-180 251l-180 -251z" />
    <glyph glyph-name="plus" unicode="+" horiz-adv-x="1065" 
d="M491 227v435h-405v75h405v439h80v-439h408v-75h-408v-435h-80z" />
    <glyph glyph-name="comma" unicode="," horiz-adv-x="426" 
d="M100 -205l136 342l90 -37l-162 -333z" />
    <glyph glyph-name="hyphen" unicode="-" horiz-adv-x="693" 
d="M130 530v82h434v-82h-434z" />
    <glyph glyph-name="period" unicode="." horiz-adv-x="562" 
d="M211 59q0 30 20 49t50 19t50 -19t20 -49t-20 -49.5t-50 -19.5q-29 0 -49.5 20t-20.5 49z" />
    <glyph glyph-name="slash" unicode="/" horiz-adv-x="834" 
d="M74 -303l600 1900h86l-600 -1900h-86z" />
    <glyph glyph-name="zero" unicode="0" horiz-adv-x="1355" 
d="M680 -14q-119 0 -214 35t-158.5 95.5t-106 146t-61.5 183t-19 210.5v148q0 110 18.5 207.5t60.5 184.5t104.5 149t155.5 98t208 36t210.5 -36t161 -98t110.5 -147.5t66 -182.5t21 -205v-145q0 -113 -18 -211t-60 -185.5t-105.5 -149t-158.5 -97.5t-215 -36zM682 68
q87 0 157.5 22.5t119.5 64.5t84.5 96t56 123t29.5 140t9 151v145q0 92 -15.5 175t-51 159t-88.5 131.5t-133.5 88.5t-179.5 33q-100 0 -179.5 -33.5t-130 -89.5t-83.5 -134.5t-46.5 -162t-13.5 -177.5v-144q0 -95 14 -178.5t48 -160t86.5 -131t133 -86.5t183.5 -32z" />
    <glyph glyph-name="one" unicode="1" horiz-adv-x="747" 
d="M393 0v1358l-334 -228v91l357 243h75v-1464h-98z" />
    <glyph glyph-name="two" unicode="2" horiz-adv-x="1112" 
d="M53 0v29l461 467q67 68 105 108t94 109t86.5 121.5t53.5 121t23 132.5q0 149 -88 231t-241 82q-277 0 -375 -350l-76 34q52 182 164 288t294 106t301.5 -105t119.5 -288q0 -143 -71.5 -265.5t-195.5 -245.5l-497 -493h790v-82h-948z" />
    <glyph glyph-name="three" unicode="3" horiz-adv-x="1146" 
d="M80 371l78 32q26 -159 133.5 -248t269.5 -89q173 0 274 87t101 261q0 82 -25 140.5t-63 91.5t-100 51.5t-119.5 24t-137.5 5.5v78l80 -2q143 -4 231.5 71t88.5 218q0 141 -87 224t-230 83t-236 -84t-125 -228l-76 33q38 165 156 262t286 97q175 0 291.5 -102t116.5 -270
q0 -125 -66.5 -216t-181.5 -119q143 -28 220 -126t77 -244q0 -133 -64.5 -229t-168 -141.5t-232.5 -45.5q-126 0 -229 44t-172.5 132t-89.5 209z" />
    <glyph glyph-name="four" unicode="4" horiz-adv-x="1222" 
d="M67 338v43l723 1083h140v-1046h200v-80h-200v-338h-99v338h-764zM188 418h645v977z" />
    <glyph glyph-name="five" unicode="5" horiz-adv-x="1146" 
d="M82 332l76 33q21 -144 131 -221.5t263 -77.5q183 0 283.5 109.5t100.5 297.5q0 168 -100.5 281.5t-266.5 113.5q-235 0 -364 -166h-45l4 762h796v-80h-716l-3 -573q66 68 157.5 102.5t189.5 34.5q135 0 238 -64t156.5 -173.5t53.5 -245.5q0 -216 -132 -347.5t-348 -131.5
q-116 0 -215 38t-170 118t-89 190z" />
    <glyph glyph-name="six" unicode="6" horiz-adv-x="1237" 
d="M1112 1169l-82 -34q-35 121 -133.5 192.5t-230.5 71.5q-74 0 -136.5 -24.5t-107 -65.5t-79 -98.5t-56 -120t-35.5 -134t-19.5 -136.5t-5.5 -131q56 126 171 189t255 63q215 0 346 -136t131 -346q0 -216 -139.5 -344.5t-361.5 -128.5q-129 0 -226.5 46t-156.5 128t-88 188
t-29 233q0 90 4.5 168.5t19 173t38 170.5t65.5 150t98 124.5t138 81t183 30.5q155 0 271.5 -81.5t165.5 -228.5zM643 63q174 0 281.5 108.5t107.5 285.5q0 187 -104.5 295.5t-291.5 108.5q-164 0 -279.5 -103.5t-115.5 -265.5q0 -185 108.5 -307t293.5 -122z" />
    <glyph glyph-name="seven" unicode="7" horiz-adv-x="1038" 
d="M313 0l565 1382h-815v82h932v-41l-579 -1423h-103z" />
    <glyph glyph-name="eight" unicode="8" horiz-adv-x="1196" 
d="M454 788q-126 34 -205 119.5t-79 211.5q0 110 64 194.5t160 125t204 40.5q109 0 204.5 -41t159.5 -126.5t64 -199.5q0 -123 -74 -207.5t-201 -116.5q152 -31 245 -129t93 -249q0 -104 -39 -186t-107 -133.5t-155 -78t-187 -26.5q-98 0 -186 26t-157 75t-109.5 128.5
t-40.5 178.5q0 157 96 258.5t250 135.5zM268 1116q0 -91 49.5 -159.5t126 -101t166.5 -32.5q137 0 229.5 76.5t92.5 208.5q0 92 -48.5 160.5t-123.5 101.5t-163 33q-136 0 -232.5 -77.5t-96.5 -209.5zM206 401q0 -108 54.5 -185t142.5 -113.5t200 -36.5q172 0 280 88.5
t108 259.5q0 158 -112.5 247t-274.5 89q-105 0 -193.5 -37.5t-146.5 -119t-58 -192.5z" />
    <glyph glyph-name="nine" unicode="9" horiz-adv-x="1233" 
d="M138 293l77 33q78 -260 371 -260q79 0 142 19t106.5 50t75.5 79t50 98t29 116t15 123t4 129l1 123q-31 -83 -98.5 -143t-150.5 -88.5t-173 -28.5q-218 0 -349.5 121t-131.5 333q0 219 137.5 350.5t353.5 131.5q130 0 228 -43t158 -121t90.5 -180t32.5 -227l2 -143v-73
q0 -119 -12.5 -215.5t-48 -190.5t-93 -158t-152 -103t-220.5 -39q-163 0 -282 77.5t-162 229.5zM595 616q106 0 197 43t148 127t57 192q0 185 -108.5 303t-291.5 118q-177 0 -284.5 -109.5t-107.5 -291.5q0 -177 104 -279.5t286 -102.5z" />
    <glyph glyph-name="colon" unicode=":" horiz-adv-x="583" 
d="M222 753q0 29 20.5 48.5t49.5 19.5t49.5 -20t20.5 -49q0 -30 -19.5 -49t-48.5 -19q-30 0 -51 20t-21 49zM222 59q0 30 20 49t50 19t50 -19t20 -49t-20 -49.5t-50 -19.5q-29 0 -49.5 20t-20.5 49z" />
    <glyph glyph-name="semicolon" unicode=";" horiz-adv-x="583" 
d="M345 684q-30 0 -49.5 19.5t-19.5 48.5t19.5 49t49.5 20q29 0 48.5 -19.5t19.5 -49.5t-19.5 -49t-48.5 -19zM171 -205l135 342l90 -37l-161 -333z" />
    <glyph glyph-name="less" unicode="&#x3c;" horiz-adv-x="1028" 
d="M129 649v25l792 440v-88l-661 -364l661 -365v-88z" />
    <glyph glyph-name="equal" unicode="=" horiz-adv-x="1022" 
d="M92 837v74h838v-74h-838zM92 487v74h838v-74h-838z" />
    <glyph glyph-name="greater" unicode="&#x3e;" horiz-adv-x="1028" 
d="M129 209v88l661 365l-661 364v88l792 -440v-25z" />
    <glyph glyph-name="question" unicode="?" horiz-adv-x="978" 
d="M405 348v121q0 56 15.5 105.5t50 98t60.5 77t76 78.5q47 47 71.5 74t56 71t45.5 89.5t14 96.5q0 119 -78.5 180.5t-203.5 61.5q-147 0 -235 -83.5t-115 -230.5l-72 31q34 170 145 265.5t283 95.5q103 0 185.5 -33.5t134 -106.5t51.5 -175q0 -48 -13 -93.5t-29 -78.5
t-48 -73.5t-53 -62.5t-61 -62q-49 -49 -74.5 -77.5t-59 -75t-48 -93.5t-14.5 -101v-16l2 -83h-86zM377 59q0 28 21 48t50 20t49.5 -20t20.5 -48q0 -29 -21 -49t-49 -20t-49.5 20t-21.5 49z" />
    <glyph glyph-name="at" unicode="@" horiz-adv-x="1883" 
d="M1567 -2l61 -27q-78 -96 -192 -159t-233 -89t-250 -26q-244 0 -437.5 106t-302.5 298t-109 437q0 176 69.5 337.5t186.5 278t278.5 186t337.5 69.5q168 0 315 -52.5t255.5 -147.5t171 -236t62.5 -309q0 -71 -10.5 -140t-37 -139t-65.5 -122t-101 -85t-139 -33
q-106 0 -169.5 59t-66.5 164q-42 -101 -128.5 -169t-190.5 -68q-152 0 -238.5 101.5t-86.5 255.5q0 115 46.5 223t138 181t206.5 73q105 0 182 -59t97 -158l24 198h86l-57 -482q0 -4 -1 -8l-1 -2v-1v-4l-3 -55v-17q0 -77 41.5 -123t124.5 -46q65 0 115.5 31t79.5 77.5
t48 109t25.5 118t6.5 112.5q0 212 -95.5 370t-260 239t-374.5 81q-165 0 -313 -64t-254 -172t-168.5 -257t-62.5 -313q0 -228 97.5 -405.5t274 -275t403.5 -97.5q404 0 614 236zM878 201q98 0 173.5 64t111.5 155t36 187q0 121 -62 203.5t-180 82.5q-76 0 -139 -37.5
t-101.5 -97.5t-59 -129.5t-20.5 -138.5q0 -124 63 -206.5t178 -82.5z" />
    <glyph glyph-name="A" unicode="A" horiz-adv-x="1344" 
d="M66 0l534 1464h129l541 -1464h-101l-151 414h-709l-151 -414h-92zM336 492h655l-329 892z" />
    <glyph glyph-name="B" unicode="B" horiz-adv-x="1270" 
d="M190 0v1464h459q73 0 136.5 -13t118 -41t93 -70t60.5 -104t22 -138q0 -269 -267 -330q161 -23 250 -113t89 -247q0 -205 -118 -306.5t-327 -101.5h-516zM287 799h360q154 0 244.5 70t90.5 223t-90.5 225t-250.5 72h-354v-590zM287 76h412q167 0 262.5 81.5t95.5 244.5
q0 322 -402 322h-368v-648z" />
    <glyph glyph-name="C" unicode="C" horiz-adv-x="1489" 
d="M1323 464l76 -34q-64 -213 -226 -328.5t-389 -115.5q-210 0 -366 98.5t-235 264.5t-79 375q0 150 48 286.5t134.5 240.5t218 166t287.5 62q208 0 368 -107t218 -304l-80 -35q-53 182 -185 273t-325 91q-134 0 -245.5 -54.5t-184.5 -145.5t-113 -209.5t-40 -247.5
q0 -140 36 -260.5t106 -213t182.5 -145.5t256.5 -53q202 0 340.5 102.5t196.5 293.5z" />
    <glyph glyph-name="D" unicode="D" horiz-adv-x="1446" 
d="M190 0v1464h429q333 0 528.5 -193t195.5 -526q0 -348 -191 -546.5t-537 -198.5h-425zM290 82h321q298 0 465 173.5t167 473.5q0 310 -163 482.5t-471 172.5h-319v-1302z" />
    <glyph glyph-name="E" unicode="E" horiz-adv-x="1210" 
d="M190 0v1464h887v-80h-788v-589h647v-80h-647v-635h823v-80h-922z" />
    <glyph glyph-name="F" unicode="F" horiz-adv-x="1167" 
d="M190 -1v1465h887v-80h-788v-600h635v-80h-635v-705h-99z" />
    <glyph glyph-name="G" unicode="G" horiz-adv-x="1544" 
d="M893 627v80h545v-422q-107 -160 -264.5 -229.5t-364.5 -69.5q-217 0 -378 95t-244 261.5t-83 382.5q0 154 49.5 291t139 240t224 163t294.5 60q203 0 358.5 -97t216.5 -288l-79 -35q-50 164 -188 252t-316 88q-136 0 -250.5 -53.5t-189.5 -144t-116.5 -210t-41.5 -252.5
q0 -146 37.5 -267.5t111 -212.5t191 -142t269.5 -51q164 0 307 60t225 187v314h-453z" />
    <glyph glyph-name="H" unicode="H" horiz-adv-x="1487" 
d="M190 0v1464h99v-684h908v684h99v-1464h-99v698h-908v-698h-99z" />
    <glyph glyph-name="I" unicode="I" horiz-adv-x="500" 
d="M201 0v1464h98v-1464h-98z" />
    <glyph glyph-name="J" unicode="J" horiz-adv-x="813" 
d="M76 31v84q103 -49 208 -49q267 0 267 301v1097h98v-1099q0 -183 -90 -281t-270 -98q-120 0 -213 45z" />
    <glyph glyph-name="K" unicode="K" horiz-adv-x="1249" 
d="M190 0v1464h99v-702l755 702h111l-766 -710l803 -754h-119l-784 729v-729h-99z" />
    <glyph glyph-name="L" unicode="L" horiz-adv-x="1110" 
d="M190 0v1464h99v-1382h743v-82h-842z" />
    <glyph glyph-name="M" unicode="M" horiz-adv-x="1798" 
d="M190 0v1464h140l559 -1331l567 1331h139v-1464h-98v1343l-573 -1343h-76l-565 1343v-1343h-93z" />
    <glyph glyph-name="N" unicode="N" horiz-adv-x="1483" 
d="M190 0v1464h132l878 -1329v1329h92v-1464h-112l-895 1356v-1356h-95z" />
    <glyph glyph-name="O" unicode="O" horiz-adv-x="1636" 
d="M818 -14q-203 0 -367 99t-255.5 269.5t-91.5 376.5q0 204 88.5 374t252.5 272t370 102q204 0 369 -99t256.5 -268t91.5 -374q0 -150 -52 -287t-144 -240t-227 -164t-291 -61zM818 68q182 0 323.5 92t215.5 243t74 332q0 134 -43 254t-120 211.5t-193.5 145t-255.5 53.5
q-182 0 -323.5 -90.5t-216 -240.5t-74.5 -332q0 -135 43.5 -256.5t121.5 -212.5t194.5 -145t253.5 -54z" />
    <glyph glyph-name="P" unicode="P" horiz-adv-x="1184" 
d="M190 -2v1466h404q107 0 193 -20.5t156 -66t108.5 -126.5t38.5 -192q0 -82 -18 -147t-47.5 -109.5t-75.5 -77t-94 -50.5t-112 -28t-119 -13t-126 -2l-93 1h-118v-635h-97zM287 713h311q395 0 395 341q0 94 -29 159.5t-84 102t-124.5 52.5t-161.5 16h-307v-671z" />
    <glyph glyph-name="Q" unicode="Q" horiz-adv-x="1636" 
d="M1269 145l176 -184l-60 -57l-184 196q-166 -114 -384 -114q-152 0 -285 58t-226.5 158t-147.5 237.5t-54 291.5q0 204 88.5 374t252.5 272t370 102q153 0 287 -58t228 -156.5t148 -233.5t54 -286q0 -379 -263 -600zM925 397l55 54l231 -244q110 94 165 231.5t55 291.5
q0 136 -43 257.5t-120 213t-193.5 145t-254.5 53.5q-182 0 -324 -90.5t-216.5 -240t-74.5 -329.5q0 -134 43.5 -256t121 -214.5t194 -147.5t253.5 -55q190 0 329 98z" />
    <glyph glyph-name="R" unicode="R" horiz-adv-x="1253" 
d="M190 -2v1466h411q83 0 153 -11t135 -38.5t110 -70.5t72 -111t27 -156q0 -177 -101.5 -275.5t-278.5 -117.5l466 -686h-111l-456 674h-328v-674h-99zM289 752h312q87 0 154.5 15t124.5 49.5t88 98.5t31 156q0 73 -20.5 128.5t-55.5 90t-87 56t-108.5 30t-126.5 8.5h-312
v-632z" />
    <glyph glyph-name="S" unicode="S" horiz-adv-x="1214" 
d="M80 369l76 32q104 -335 466 -335q76 0 144.5 20t124 58.5t88.5 101.5t33 143q0 54 -13 98.5t-33 75.5t-54 55.5t-66.5 40t-80 29t-85.5 21t-91 17.5h-1q-63 11 -96 18t-89 22.5t-86.5 31.5t-69.5 44t-59 62.5t-34.5 84t-14.5 110.5q0 94 39 168.5t105 120t147.5 68.5
t172.5 23q169 0 288.5 -80.5t167.5 -239.5l-74 -31q-79 271 -386 271q-74 0 -137 -16t-115 -49.5t-82 -92.5t-30 -138q0 -48 11 -86t31.5 -66t48 -49t62.5 -35.5t73.5 -25.5t81 -19t85.5 -16h2q66 -11 101 -18t93.5 -23.5t91.5 -34.5t75 -49.5t64 -70.5t37.5 -95.5
t15.5 -125.5q0 -97 -41.5 -175.5t-111 -127.5t-155 -74.5t-178.5 -25.5q-208 0 -342.5 93.5t-199.5 289.5z" />
    <glyph glyph-name="T" unicode="T" horiz-adv-x="1155" 
d="M528 0v1384h-465v80h1031v-80h-467v-1384h-99z" />
    <glyph glyph-name="U" unicode="U" horiz-adv-x="1397" 
d="M164 1464h98v-934q0 -223 108.5 -343t334.5 -120q229 0 329.5 124.5t100.5 363.5v909h98v-919q0 -269 -134 -414t-397 -145q-261 0 -399.5 140.5t-138.5 397.5v940z" />
    <glyph glyph-name="V" unicode="V" horiz-adv-x="1321" 
d="M612 0l-553 1464h99l516 -1364l495 1364h93l-533 -1464h-117z" />
    <glyph glyph-name="W" unicode="W" horiz-adv-x="1944" 
d="M463 0l-397 1464h98l358 -1327l410 1327h74l399 -1331l383 1331h90l-422 -1464h-102l-387 1298l-404 -1298h-100z" />
    <glyph glyph-name="X" unicode="X" horiz-adv-x="1327" 
d="M94 0l514 762l-467 702h109l422 -635l420 635h102l-467 -704l508 -760h-109l-464 692l-467 -692h-101z" />
    <glyph glyph-name="Y" unicode="Y" horiz-adv-x="1139" 
d="M535 0v645l-490 819h111l432 -735l405 735h101l-461 -819v-645h-98z" />
    <glyph glyph-name="Z" unicode="Z" horiz-adv-x="1202" 
d="M55 0v41l942 1341h-868v82h997v-40l-936 -1342h924v-82h-1059z" />
    <glyph glyph-name="bracketleft" unicode="[" horiz-adv-x="746" 
d="M162 -303v1900h423v-72h-331v-1756h331v-72h-423z" />
    <glyph glyph-name="backslash" unicode="\" horiz-adv-x="832" 
d="M673 -303l-600 1900h86l600 -1900h-86z" />
    <glyph glyph-name="bracketright" unicode="]" horiz-adv-x="746" 
d="M161 -303v72h334v1756h-334v72h424v-1900h-424z" />
    <glyph glyph-name="asciicircum" unicode="^" horiz-adv-x="938" 
d="M94 879l332 585h86l330 -585h-90l-285 501l-283 -501h-90z" />
    <glyph glyph-name="underscore" unicode="_" horiz-adv-x="787" 
d="M-8 -301v68h803v-68h-803z" />
    <glyph glyph-name="grave" unicode="`" horiz-adv-x="823" 
d="M381 1227l-174 303h102l146 -303h-74z" />
    <glyph glyph-name="a" unicode="a" horiz-adv-x="1079" 
d="M836 1v175q-57 -98 -156.5 -145t-221.5 -47q-75 0 -139 17.5t-115.5 52.5t-81.5 95.5t-30 139.5q0 61 18.5 110t48.5 82.5t75.5 58.5t92.5 38.5t106.5 21.5t110.5 10.5t112 1.5l180 -2q0 79 -5.5 133.5t-24 109.5t-51.5 87.5t-90.5 53t-138.5 20.5q-119 0 -200.5 -61
t-114.5 -175l-72 33q41 136 143 206t248 70q211 0 303.5 -110t92.5 -324v-652h-90zM836 541h-256q-61 0 -110 -4.5t-105.5 -20t-94 -41.5t-63 -73t-25.5 -111t23.5 -110.5t65 -73t92 -38.5t110.5 -12t122.5 18t117 51t89 87t34.5 118v210z" />
    <glyph glyph-name="b" unicode="b" horiz-adv-x="1264" 
d="M164 0v1581h90v-788q52 130 175.5 212t264.5 82q110 0 203 -45t154 -120.5t95 -173.5t34 -205q0 -89 -19.5 -171.5t-59.5 -153t-97 -122.5t-135.5 -82t-170.5 -30q-151 0 -270.5 76t-173.5 212v-272h-90zM679 59q98 0 177 38.5t128 105t75 151t26 179.5q0 74 -15.5 143.5
t-48 130.5t-79 106.5t-112.5 72t-145 26.5q-128 0 -228 -66.5t-151.5 -172.5t-51.5 -230q0 -130 48.5 -239t147 -177t229.5 -68z" />
    <glyph glyph-name="c" unicode="c" horiz-adv-x="1130" 
d="M981 365l72 -35q-48 -163 -169 -254.5t-290 -91.5q-151 0 -268 74t-178.5 198.5t-61.5 278.5q0 112 35 211.5t98.5 175.5t161.5 120.5t216 44.5q161 0 277.5 -81.5t163.5 -233.5l-77 -33q-36 132 -130.5 202.5t-229.5 70.5q-98 0 -179 -38t-134 -103.5t-81.5 -151.5
t-28.5 -183q0 -94 27 -179t78 -152t131.5 -106.5t180.5 -39.5q147 0 249.5 82t136.5 224z" />
    <glyph glyph-name="d" unicode="d" horiz-adv-x="1264" 
d="M1008 0v268q-45 -127 -168.5 -205.5t-262.5 -78.5q-113 0 -206.5 43.5t-155 118t-95.5 172.5t-34 208q0 152 59.5 278.5t176.5 204.5t271 78q145 0 250.5 -70t164.5 -204v768h92v-1581h-92zM582 59q98 0 180 38.5t136 103.5t84 149.5t30 177.5q0 98 -25 183.5
t-73.5 153.5t-127.5 107.5t-179 39.5q-130 0 -229.5 -65t-149.5 -171t-50 -233q0 -97 25.5 -183.5t74 -154t127 -107t177.5 -39.5z" />
    <glyph glyph-name="e" unicode="e" horiz-adv-x="1128" 
d="M963 295l71 -31q-55 -142 -169.5 -211t-267.5 -69q-160 0 -277 71.5t-175.5 192.5t-58.5 276q0 152 55.5 278t170.5 205.5t272 79.5q111 0 199 -40t144 -111t85.5 -165t29.5 -204v-32h-864q1 -102 25 -187t71.5 -151t127 -103t184.5 -37q133 0 235.5 60t141.5 178z
M180 604h770q-4 184 -97 297t-267 113q-179 0 -287.5 -116.5t-118.5 -293.5z" />
    <glyph glyph-name="f" unicode="f" horiz-adv-x="698" 
d="M217 0v999h-166v72h166v92q0 65 3.5 111t13.5 96t31 83.5t53.5 61.5t82.5 41.5t117 13.5q83 0 139 -19l-28 -69q-51 12 -102 12q-113 0 -165.5 -66t-52.5 -181v-176h314v-72h-314v-999h-92z" />
    <glyph glyph-name="g" unicode="g" horiz-adv-x="1262" 
d="M113 -115l73 33q30 -85 98 -142t148 -80.5t171 -23.5q192 0 298.5 107t106.5 297v240q-49 -126 -172.5 -197.5t-271.5 -71.5q-212 0 -346 143.5t-134 364.5q0 147 62 267.5t180.5 192.5t272.5 72q141 0 248.5 -63t160.5 -193v240h90v-999q0 -227 -131 -351t-361 -124
q-80 0 -153.5 15.5t-141.5 48.5t-120 90t-78 134zM581 122q191 0 310 123t119 311q0 127 -45.5 229t-139.5 164.5t-223 62.5q-190 0 -308 -126.5t-118 -317.5q0 -197 107.5 -321.5t297.5 -124.5z" />
    <glyph glyph-name="h" unicode="h" horiz-adv-x="1196" 
d="M164 0v1581h92v-733q46 113 157 176t239 63q193 0 291.5 -113t98.5 -310v-664h-92v662q0 165 -79 256.5t-241 91.5q-159 0 -266.5 -102.5t-107.5 -260.5v-647h-92z" />
    <glyph glyph-name="i" unicode="i" horiz-adv-x="426" 
d="M147 1360q0 26 20 43.5t46 17.5t44.5 -17.5t18.5 -43.5q0 -27 -18 -46.5t-45 -19.5t-46.5 19.5t-19.5 46.5zM168 0v1071h90v-1071h-90z" />
    <glyph glyph-name="j" unicode="j" horiz-adv-x="426" 
d="M147 1360q0 26 20 43.5t46 17.5t44.5 -17.5t18.5 -43.5q0 -27 -18 -46.5t-45 -19.5t-46.5 19.5t-19.5 46.5zM12 -399v75q89 6 122.5 53t33.5 140v1202h90v-1198q0 -135 -57 -203t-189 -69z" />
    <glyph glyph-name="k" unicode="k" horiz-adv-x="987" 
d="M164 0v1581h90v-997l551 487h115l-566 -500l598 -571h-121l-577 549v-549h-90z" />
    <glyph glyph-name="l" unicode="l" horiz-adv-x="428" 
d="M168 0v1559l92 40v-1599h-92z" />
    <glyph glyph-name="m" unicode="m" horiz-adv-x="1882" 
d="M164 0v1071h90v-221q43 108 148 172.5t225 64.5q135 0 223 -63.5t117 -192.5q46 118 156.5 187t241.5 69q186 0 275 -110.5t89 -300.5v-676h-90v670q0 338 -295 338q-149 0 -253 -106t-104 -255v-647h-90v670q0 338 -295 338q-151 0 -249.5 -104t-98.5 -257v-647h-90z
" />
    <glyph glyph-name="n" unicode="n" horiz-adv-x="1196" 
d="M164 0v1071h92v-227q46 114 157 178.5t239 64.5q193 0 291.5 -113t98.5 -310v-664h-92v657q0 167 -78.5 259t-241.5 92q-159 0 -266.5 -103t-107.5 -262v-643h-92z" />
    <glyph glyph-name="o" unicode="o" horiz-adv-x="1204" 
d="M605 -16q-114 0 -211.5 43.5t-164.5 117.5t-105 174.5t-38 212.5q0 149 62.5 272.5t182 199t273.5 75.5q151 0 269 -71.5t181.5 -194.5t63.5 -275q0 -150 -61.5 -275.5t-180 -202t-271.5 -76.5zM600 59q130 0 228.5 66t148 173.5t49.5 239.5q0 127 -46 231t-142.5 169.5
t-228.5 65.5q-131 0 -230 -64t-150 -170t-51 -236q0 -94 28 -178.5t80 -151t133 -106t181 -39.5z" />
    <glyph glyph-name="p" unicode="p" horiz-adv-x="1264" 
d="M164 -399v1470h90v-276q55 130 177.5 211t262.5 81q110 0 203 -45t154 -120.5t95 -173.5t34 -205q0 -112 -31.5 -212t-90.5 -178t-151.5 -123.5t-206.5 -45.5q-150 0 -271.5 75.5t-174.5 208.5v-667h-90zM679 59q98 0 177 38.5t128 105t75 151t26 179.5q0 74 -15.5 143.5
t-48 130.5t-79 106.5t-112.5 72t-145 26.5q-128 0 -228 -66.5t-151.5 -172.5t-51.5 -230q0 -130 48.5 -239t147 -177t229.5 -68z" />
    <glyph glyph-name="q" unicode="q" horiz-adv-x="1264" 
d="M1008 -399v678q-47 -130 -170 -212.5t-264 -82.5q-113 0 -206.5 43.5t-154.5 118t-94 173t-33 209.5q0 152 58 277.5t174 203.5t269 78q149 0 257 -74t164 -212v270h92v-1470h-92zM583 59q130 0 229 66t149.5 171.5t50.5 231.5q0 98 -25 183.5t-73.5 153.5t-127.5 107.5
t-179 39.5q-130 0 -229.5 -65t-149.5 -171t-50 -233q0 -97 25.5 -183.5t74 -154t127.5 -107t178 -39.5z" />
    <glyph glyph-name="r" unicode="r" horiz-adv-x="696" 
d="M164 0v1071h90v-244q48 120 143.5 184.5t225.5 67.5v-82q-182 -12 -275.5 -117t-93.5 -288v-592h-90z" />
    <glyph glyph-name="s" unicode="s" horiz-adv-x="950" 
d="M74 283l73 32q30 -129 118.5 -196.5t219.5 -67.5q79 0 142 22.5t106 77t43 135.5q0 32 -6 59t-21 47.5t-29 36t-40.5 28.5t-45.5 21t-54 16.5t-55.5 12.5t-59.5 11q-48 9 -74.5 14.5t-69.5 17.5t-67.5 24.5t-55 34.5t-46.5 48.5t-27.5 64.5t-11.5 85q0 92 56 157t137 93
t174 28q129 0 222 -61t132 -186l-68 -31q-65 209 -291 209q-53 0 -100.5 -12t-88.5 -36.5t-65 -67.5t-24 -99q0 -33 9.5 -60t22 -45.5t38.5 -34.5t46 -25.5t58 -19t60 -14t66 -12.5q71 -13 108.5 -21.5t95 -30.5t87 -49.5t53 -77t23.5 -114.5q0 -81 -31.5 -143t-85.5 -98.5
t-119.5 -55t-140.5 -18.5q-155 0 -268 77t-145 224z" />
    <glyph glyph-name="t" unicode="t" horiz-adv-x="684" 
d="M604 84v-76q-63 -22 -137 -22q-131 0 -195.5 71.5t-64.5 200.5v741h-160v72h160v242l90 41v-283h293v-72h-293v-735q0 -201 181 -201q62 0 126 21z" />
    <glyph glyph-name="u" unicode="u" horiz-adv-x="1188" 
d="M934 0v217q-46 -111 -155 -172t-236 -61q-196 0 -292.5 105.5t-96.5 303.5v678h90v-672q0 -162 79 -250t240 -88q159 0 265 100.5t106 258.5v651h90v-1071h-90z" />
    <glyph glyph-name="v" unicode="v" horiz-adv-x="1038" 
d="M463 0l-410 1071h99l372 -981l371 981h90l-407 -1071h-115z" />
    <glyph glyph-name="w" unicode="w" horiz-adv-x="1622" 
d="M395 0l-336 1071h97l299 -962l313 962h76l305 -962l324 962h88l-359 -1071h-102l-297 930l-305 -930h-103z" />
    <glyph glyph-name="x" unicode="x" horiz-adv-x="1042" 
d="M61 0l402 555l-377 516h107l327 -453l322 453h102l-371 -512l408 -559h-107l-358 496l-356 -496h-99z" />
    <glyph glyph-name="y" unicode="y" horiz-adv-x="1012" 
d="M260 -399l199 483l-406 987h97l358 -887l358 887h92l-608 -1470h-90z" />
    <glyph glyph-name="z" unicode="z" horiz-adv-x="969" 
d="M53 0v39l729 956h-669v76h796v-40l-725 -955h711v-76h-842z" />
    <glyph glyph-name="braceleft" unicode="{" horiz-adv-x="789" 
d="M675 -225v-72q-62 0 -113.5 7t-102 27t-85 51.5t-55.5 84t-21 122.5l60 418q0 199 -244 199v72q116 2 179 50.5t63 166.5l-58 335q0 112 55.5 196t139.5 124.5t182 40.5v-72q-119 0 -204 -80t-85 -211l60 -352q0 -190 -187 -234q187 -42 187 -234l-58 -425
q0 -66 22.5 -110t65 -65.5t89 -30t110.5 -8.5z" />
    <glyph glyph-name="bar" unicode="|" horiz-adv-x="527" 
d="M226 -303v1900h76v-1900h-76z" />
    <glyph glyph-name="braceright" unicode="}" horiz-adv-x="789" 
d="M114 -297v72q63 0 110 8.5t89.5 30.5t65 66t22.5 109l-58 437q0 183 187 222q-185 45 -185 222l56 364q0 131 -84 211t-203 80v72q155 0 265 -98t110 -269l-58 -347q0 -106 67 -152.5t177 -46.5v-72q-244 0 -244 -197l58 -421q0 -70 -20.5 -122t-54 -84t-83.5 -51.5
t-101.5 -26.5t-115.5 -7z" />
    <glyph glyph-name="asciitilde" unicode="~" horiz-adv-x="903" 
d="M172 569h-74q11 91 59 154t131 63q32 0 67 -12t55.5 -23.5t51.5 -31.5q35 -23 54.5 -34t46 -21t49.5 -10q52 0 84.5 41.5t36.5 95.5h74q-9 -89 -58.5 -153.5t-134.5 -64.5q-67 0 -180 72q-93 60 -139 60q-51 0 -83 -40t-40 -96z" />
    <glyph glyph-name="uni00A0" unicode="&#xa0;" horiz-adv-x="573" 
 />
    <glyph glyph-name="exclamdown" unicode="&#xa1;" horiz-adv-x="625" 
d="M243 1169q0 28 20.5 47t49.5 19t49 -19t20 -47q0 -29 -20.5 -49t-48.5 -20q-27 0 -48.5 20.5t-21.5 48.5zM259 -240l13 1119h75l13 -1119h-101z" />
    <glyph glyph-name="cent" unicode="&#xa2;" horiz-adv-x="1144" 
d="M567 -276v262q-220 14 -346.5 166.5t-126.5 379.5q0 146 52.5 266.5t161.5 199t259 87.5v203h68v-203q147 -8 259.5 -91t153.5 -222l-73 -31q-34 121 -123 190.5t-217 78.5v-953q134 10 228 92.5t128 215.5l70 -31q-44 -153 -156.5 -247t-269.5 -101v-262h-68zM567 59
v951q-124 -10 -211.5 -77t-128.5 -169t-41 -229q0 -91 23 -171.5t68 -146t119.5 -107.5t170.5 -51z" />
    <glyph glyph-name="sterling" unicode="&#xa3;" horiz-adv-x="1230" 
d="M180 0h-84q12 80 60 138t124 75q50 89 50 188q0 128 -48 275h-172v74h148q-53 169 -53 314q0 186 130 300.5t321 114.5q163 0 272.5 -89t160.5 -250l-77 -33q-27 69 -56.5 118.5t-71 90t-98 61t-127.5 20.5q-157 0 -255.5 -93t-98.5 -246q0 -144 53 -308h479v-74h-460
q41 -166 41 -270q0 -93 -43 -187q37 -3 80.5 -16t70.5 -24.5t75 -34.5q91 -43 141.5 -59.5t92.5 -16.5q98 0 162 65t84 160l76 -33q-82 -274 -301 -274q-46 0 -97.5 14t-84.5 28t-88 41q-87 42 -137 58t-94 16q-72 0 -118.5 -37t-56.5 -106z" />
    <glyph glyph-name="yen" unicode="&#xa5;" horiz-adv-x="1103" 
d="M133 373v64h385v212h-385v64h367l-435 751h107l397 -698l373 698h96l-403 -751h358v-64h-377v-212h377v-64h-377v-373h-98v373h-385z" />
    <glyph glyph-name="brokenbar" unicode="&#xa6;" horiz-adv-x="519" 
d="M222 752v837h76v-837h-76zM222 -303v911h76v-911h-76z" />
    <glyph glyph-name="section" unicode="&#xa7;" horiz-adv-x="1115" 
d="M173 -12l78 32q17 -108 105.5 -167.5t205.5 -59.5q114 0 184 58t70 169q0 35 -7 65t-23 54t-32 43t-45 35.5t-50 28t-59.5 24t-61 19.5t-65.5 19q-159 45 -223 81q-141 77 -147 231v15q0 112 81 185.5t198 97.5q-84 49 -118 109.5t-34 158.5q0 89 51 157t128.5 102
t164.5 34q286 0 337 -248l-72 -35q-16 106 -83 157.5t-172 51.5q-115 0 -190.5 -58t-75.5 -166q0 -29 6.5 -54t15.5 -45t27 -39t33 -32t42 -27t45 -22.5t52 -20.5t53 -18t56 -17q51 -15 77.5 -23.5t72 -26.5t70 -33t57 -40.5t48.5 -52.5t28 -65t12 -83q0 -120 -71.5 -189.5
t-191.5 -97.5q81 -44 117.5 -109t36.5 -159q0 -146 -100.5 -227t-253.5 -81q-139 0 -246.5 68t-130.5 201zM679 336q242 45 242 226q0 44 -13.5 80.5t-43.5 65t-61.5 49.5t-84.5 41t-93.5 32.5t-107.5 31.5l-63 17q-107 -18 -183 -76.5t-76 -154.5q0 -40 15.5 -74.5
t37 -59.5t61 -49t69 -38t81.5 -30.5t78 -23.5t77 -20z" />
    <glyph glyph-name="dieresis" unicode="&#xa8;" horiz-adv-x="823" 
d="M188 1360q0 26 18 43.5t44 17.5t43.5 -18t17.5 -44t-17 -43.5t-44 -17.5t-44.5 17.5t-17.5 44.5zM573 1298q-26 0 -43.5 18t-17.5 44t18 43.5t43 17.5q26 0 44 -17.5t18 -43.5q0 -27 -17.5 -44.5t-44.5 -17.5z" />
    <glyph glyph-name="copyright" unicode="&#xa9;" horiz-adv-x="1733" 
d="M113 729q0 208 100.5 380.5t273.5 271t381 98.5q155 0 294 -57.5t239.5 -156.5t159.5 -238t59 -295t-59 -295.5t-159.5 -239.5t-240.5 -158.5t-296 -58.5t-295.5 58.5t-239.5 158t-158.5 238.5t-58.5 294zM865 38q193 0 351.5 92t249 252t90.5 353t-89.5 350t-247 246.5
t-349.5 89.5q-145 0 -273.5 -53.5t-220.5 -145t-145.5 -219.5t-53.5 -272q0 -143 53 -271.5t144 -221t219 -146.5t272 -54zM1163 592l68 -31q-92 -258 -354 -258q-186 0 -296 120t-110 306q0 122 47.5 223t140.5 162.5t215 61.5q131 0 214 -58t133 -180l-70 -31
q-32 94 -105.5 148.5t-175.5 54.5q-146 0 -230.5 -106t-84.5 -259q0 -165 80.5 -268.5t238.5 -103.5q216 0 289 219z" />
    <glyph glyph-name="ordfeminine" unicode="&#xaa;" horiz-adv-x="886" 
d="M659 643v135q-84 -145 -283 -145q-56 0 -104.5 12.5t-89.5 39t-64.5 73.5t-23.5 109q0 256 395 249l61 -1l91 -3h18q0 59 -3.5 98.5t-16.5 81t-36 65.5t-64 39t-99 15q-198 0 -239 -172l-70 33q29 104 112.5 155.5t199.5 51.5q142 0 222 -75t80 -218v-543h-86zM659 1053
h-185q-46 0 -81.5 -3t-77.5 -14t-70 -30t-46.5 -54t-18.5 -82q0 -90 59 -131t151 -41q61 0 121 22t104 70t44 111v152z" />
    <glyph glyph-name="guillemotleft" unicode="&#xab;" horiz-adv-x="1066" 
d="M481 168l-281 367l281 366h84l-276 -366l276 -367h-84zM782 168l-278 367l278 366h84l-276 -366l276 -367h-84z" />
    <glyph glyph-name="registered" unicode="&#xae;" horiz-adv-x="1057" 
d="M76 1029q0 189 131 319.5t322 130.5t323.5 -129.5t132.5 -319.5t-133 -321t-323 -131t-321.5 130.5t-131.5 320.5zM531 625q172 0 285.5 115.5t113.5 289.5q0 173 -113 287.5t-285 114.5q-173 0 -287 -116.5t-114 -287.5q0 -170 114 -286.5t286 -116.5zM377 801v459h152
q173 0 173 -123q0 -52 -30 -83t-81 -40l126 -213h-68l-124 207h-85v-207h-63zM440 1057h91q108 0 108 78q0 77 -108 77h-91v-155z" />
    <glyph glyph-name="macron" unicode="&#xaf;" horiz-adv-x="823" 
d="M170 1325v68h483v-68h-483z" />
    <glyph glyph-name="degree" unicode="&#xb0;" horiz-adv-x="841" 
d="M115 1184q0 125 90 212t216 87t216 -87.5t90 -212.5t-90.5 -211t-214.5 -86q-125 0 -216 86t-91 212zM420 957q95 0 158.5 65t63.5 160t-63.5 162.5t-158.5 67.5t-159 -66.5t-64 -163.5q0 -95 64.5 -160t158.5 -65z" />
    <glyph glyph-name="plusminus" unicode="&#xb1;" horiz-adv-x="1065" 
d="M491 261v421h-405v76h405v424h80v-424h408v-76h-408v-421h-80zM86 0v76h893v-76h-893z" />
    <glyph glyph-name="twosuperior" unicode="&#xb2;" horiz-adv-x="604" 
d="M41 756v30l268 251q43 41 67.5 67.5t48.5 72.5t24 92q0 66 -41.5 103t-106.5 37q-138 0 -186 -163l-58 25q22 91 86.5 145t158.5 54q93 0 157.5 -51t64.5 -143q0 -72 -51.5 -147.5t-183.5 -195.5l-127 -116h368v-61h-489z" />
    <glyph glyph-name="threesuperior" unicode="&#xb3;" horiz-adv-x="639" 
d="M53 929l64 26q20 -70 73.5 -109t130.5 -39q73 0 119.5 36.5t46.5 112.5q0 37 -13 64t-32.5 41.5t-50.5 22.5t-57.5 10t-63.5 2v57q43 0 72 3.5t61.5 14.5t49 37t16.5 66q0 68 -45 103.5t-111 35.5q-67 0 -112 -36.5t-62 -104.5l-61 26q23 83 87 127.5t151 44.5
q93 0 160 -47t67 -134q0 -60 -33.5 -101t-91.5 -61q69 -14 108 -62t39 -120q0 -98 -69 -149t-172 -51q-98 0 -169.5 48t-101.5 136z" />
    <glyph glyph-name="acute" unicode="&#xb4;" horiz-adv-x="823" 
d="M371 1227l143 303h104l-176 -303h-71z" />
    <glyph glyph-name="paragraph" unicode="&#xb6;" horiz-adv-x="1216" 
d="M653 -205v932q-75 0 -140 10.5t-125 37t-102.5 67t-68 103.5t-25.5 144q0 125 59 211t154 125t219 39h400v-1669h-70v1612h-234v-1612h-67z" />
    <glyph glyph-name="periodcentered" unicode="&#xb7;" horiz-adv-x="589" 
d="M225 661q0 29 19.5 48.5t50.5 19.5q30 0 50 -20t20 -50t-20 -49.5t-50 -19.5q-29 0 -49.5 20t-20.5 51z" />
    <glyph glyph-name="cedilla" unicode="&#xb8;" horiz-adv-x="825" 
d="M240 -305l57 24q12 -42 50 -66t84 -24q48 0 80 27t32 76q0 50 -33.5 68t-91.5 18q-13 0 -45 -15l-13 -6l-43 42l95 161h69l-75 -131q24 10 57 10q70 0 112.5 -40.5t42.5 -112.5q0 -78 -49.5 -118t-129.5 -40q-72 0 -128 32.5t-71 94.5z" />
    <glyph glyph-name="onesuperior" unicode="&#xb9;" horiz-adv-x="442" 
d="M227 756v624l-184 -120v69l203 135h61v-708h-80z" />
    <glyph glyph-name="ordmasculine" unicode="&#xba;" horiz-adv-x="979" 
d="M494 630q-179 0 -291.5 120.5t-112.5 301.5q0 179 110 301t291 122q179 0 288.5 -118.5t109.5 -301.5q0 -182 -108.5 -303.5t-286.5 -121.5zM490 700q144 0 227.5 101t83.5 254q0 148 -79.5 249t-223.5 101q-146 0 -233 -102t-87 -251q0 -145 83 -248.5t229 -103.5z" />
    <glyph glyph-name="guillemotright" unicode="&#xbb;" horiz-adv-x="1066" 
d="M500 168l277 367l-277 366h86l281 -366l-281 -367h-86zM199 168l277 367l-277 366h84l281 -366l-281 -367h-84z" />
    <glyph glyph-name="onequarter" unicode="&#xbc;" horiz-adv-x="1356" 
d="M96 0l1075 1464h72l-1075 -1464h-72zM233 756v624l-184 -131v70l203 145h61v-708h-80zM748 158v28l350 523h100v-494h96v-57h-96v-158h-76v158h-374zM836 215h286v440z" />
    <glyph glyph-name="onehalf" unicode="&#xbd;" horiz-adv-x="1374" 
d="M55 0l1074 1464h72l-1074 -1464h-72zM238 756v624l-185 -131v72l203 143h59v-708h-77zM803 0v23l273 264q42 41 65 67.5t45.5 71.5t22.5 90q0 67 -41.5 103t-110.5 36q-77 0 -122 -43.5t-53 -122.5l-62 27q16 96 79 148.5t159 52.5q98 0 163 -53t65 -150
q0 -62 -34.5 -120t-124.5 -143l-198 -189h363v-62h-489z" />
    <glyph glyph-name="threequarters" unicode="&#xbe;" horiz-adv-x="1399" 
d="M59 929l64 26q20 -72 72.5 -110t129.5 -38q74 0 121.5 37t47.5 112q0 45 -18 75t-52 43t-66.5 17.5t-78.5 4.5v57q34 0 57.5 1.5t52 8.5t45.5 20t29 36.5t12 56.5q0 68 -43.5 102.5t-109.5 34.5q-139 0 -177 -141l-61 26q24 83 87.5 127.5t150.5 44.5q93 0 160 -48
t67 -136q0 -59 -33.5 -100t-91.5 -59q69 -14 108 -61.5t39 -119.5q0 -99 -69 -150t-172 -51q-98 0 -169.5 47.5t-101.5 136.5zM182 0l1075 1464h72l-1075 -1464h-72zM778 158v28l347 523h104v-494h96v-57h-96v-158h-77v158h-374zM866 215h286v440z" />
    <glyph glyph-name="questiondown" unicode="&#xbf;" horiz-adv-x="1060" 
d="M501 1170q0 28 20 47.5t50 19.5q29 0 49 -20t20 -48t-21 -48.5t-48 -20.5q-28 0 -49 20.5t-21 49.5zM857 139l74 -30q-28 -169 -142.5 -266t-288.5 -97q-104 0 -185.5 33.5t-133 107t-51.5 177.5q0 48 12 92.5t28 76.5t47 71t52 60.5t60 60.5q116 116 159 192.5t42 164.5
l-2 97h86q1 -7 1 -22q0 -167 -38 -254.5t-162 -203.5q-90 -84 -140 -160t-50 -174q0 -119 77.5 -180t201.5 -61q148 0 239 84.5t114 230.5z" />
    <glyph glyph-name="Agrave" unicode="&#xc0;" horiz-adv-x="1333" 
d="M627 1577l-168 250h104l137 -250h-73zM66 0l534 1464h129l541 -1464h-101l-151 414h-709l-151 -414h-92zM336 492h655l-329 892z" />
    <glyph glyph-name="Aacute" unicode="&#xc1;" horiz-adv-x="1333" 
d="M602 1577l139 250h103l-168 -250h-74zM66 0l534 1464h129l541 -1464h-101l-151 414h-709l-151 -414h-92zM336 492h655l-329 892z" />
    <glyph glyph-name="Acircumflex" unicode="&#xc2;" horiz-adv-x="1333" 
d="M383 1577l229 250h84l226 -250h-74l-195 180l-196 -180h-74zM66 0l534 1464h129l541 -1464h-101l-151 414h-709l-151 -414h-92zM336 492h655l-329 892z" />
    <glyph glyph-name="Atilde" unicode="&#xc3;" horiz-adv-x="1333" 
d="M418 1583h-64q8 80 48.5 135.5t110.5 55.5q31 0 64.5 -14t90.5 -51q81 -54 123 -54q43 0 67 34t31 83h63q-9 -79 -48 -135t-109 -56q-63 0 -158 65q-81 54 -121 54q-42 0 -66.5 -34.5t-31.5 -82.5zM66 0l534 1464h129l541 -1464h-101l-151 414h-709l-151 -414h-92z
M336 492h655l-329 892z" />
    <glyph glyph-name="Adieresis" unicode="&#xc4;" horiz-adv-x="1333" 
d="M824 1610q-25 0 -42.5 18t-17.5 43t17 42.5t43 17.5t44.5 -17.5t18.5 -42.5t-18.5 -43t-44.5 -18zM479 1610q-25 0 -43 18t-18 43t18 42.5t43 17.5q26 0 44 -17.5t18 -42.5t-18 -43t-44 -18zM66 0l534 1464h127l543 -1464h-101l-151 414h-709l-151 -414h-92zM336 492h655
l-330 892z" />
    <glyph glyph-name="Aring" unicode="&#xc5;" horiz-adv-x="1333" 
d="M461 1726q0 76 57.5 132.5t135.5 56.5t135 -55.5t57 -132.5t-57.5 -132t-133.5 -55q-77 0 -135.5 54.5t-58.5 131.5zM655 1589q54 0 92.5 40.5t38.5 97.5q0 56 -37.5 95.5t-94.5 39.5t-95 -40t-38 -94q0 -56 39.5 -97.5t94.5 -41.5zM66 0l535 1464h128l541 -1464h-101
l-151 414h-709l-151 -414h-92zM336 492h655l-328 892z" />
    <glyph glyph-name="AE" unicode="&#xc6;" horiz-adv-x="1985" 
d="M57 0l731 1464h1063v-78h-790v-593h647v-78h-647v-637h827v-78h-921v457h-584l-227 -457h-99zM418 532h549v854h-125z" />
    <glyph glyph-name="Ccedilla" unicode="&#xc7;" horiz-adv-x="1489" 
d="M561 -276h72q5 -45 38 -70t79 -25q48 0 80 26t32 75q0 45 -27.5 66.5t-73.5 21.5q-45 0 -81 -21l-45 40l86 151q-147 12 -265.5 74.5t-194.5 162t-116.5 227.5t-40.5 273q0 150 48 286t135 240.5t218.5 166t288.5 61.5q208 0 367 -106t217 -304l-80 -35
q-53 182 -184.5 273.5t-325.5 91.5q-134 0 -245.5 -54.5t-184.5 -146t-113 -210t-40 -247.5q0 -112 22.5 -211.5t69 -184.5t114.5 -146.5t164.5 -96t212.5 -34.5q202 0 340.5 102.5t194.5 294.5l76 -35q-63 -211 -224.5 -327.5t-383.5 -116.5l-68 -117q29 10 63 10
q69 0 110.5 -41.5t41.5 -109.5q0 -77 -52.5 -118.5t-130.5 -41.5t-132.5 40.5t-61.5 115.5z" />
    <glyph glyph-name="Egrave" unicode="&#xc8;" horiz-adv-x="1212" 
d="M639 1577l-170 250h104l137 -250h-71zM190 0v1464h887v-78h-790v-593h651v-78h-651v-637h827v-78h-924z" />
    <glyph glyph-name="Eacute" unicode="&#xc9;" horiz-adv-x="1212" 
d="M602 1577l139 250h103l-168 -250h-74zM190 0v1464h887v-78h-790v-593h651v-78h-651v-637h827v-78h-924z" />
    <glyph glyph-name="Ecircumflex" unicode="&#xca;" horiz-adv-x="1212" 
d="M383 1577l229 250h84l226 -250h-74l-193 180l-198 -180h-74zM190 0v1464h887v-78h-790v-593h651v-78h-651v-637h827v-78h-924z" />
    <glyph glyph-name="Edieresis" unicode="&#xcb;" horiz-adv-x="1212" 
d="M764 1671q0 26 18 43t44 17t43.5 -17t17.5 -43t-17.5 -43.5t-43.5 -17.5t-44 17.5t-18 43.5zM418 1671q0 25 18 42.5t43 17.5q26 0 44 -17.5t18 -42.5t-18 -43t-44 -18q-25 0 -43 18t-18 43zM190 0v1464h887v-78h-790v-593h651v-78h-651v-637h827v-78h-924z" />
    <glyph glyph-name="Igrave" unicode="&#xcc;" horiz-adv-x="498" 
d="M225 1577l-170 250h105l137 -250h-72zM201 0v1464h96v-1464h-96z" />
    <glyph glyph-name="Iacute" unicode="&#xcd;" horiz-adv-x="498" 
d="M199 1577l139 250h102l-168 -250h-73zM201 0v1464h96v-1464h-96z" />
    <glyph glyph-name="Icircumflex" unicode="&#xce;" horiz-adv-x="498" 
d="M-20 1577l229 250h84l225 -250h-74l-192 180l-199 -180h-73zM201 0v1464h96v-1464h-96z" />
    <glyph glyph-name="Idieresis" unicode="&#xcf;" horiz-adv-x="498" 
d="M340 1671q0 26 17.5 43t43.5 17t44 -17t18 -43t-17.5 -43.5t-43.5 -17.5t-44 17.5t-18 43.5zM34 1671q0 25 18.5 42.5t43.5 17.5t43 -17.5t18 -42.5t-18 -43t-43 -18q-26 0 -44 18t-18 43zM201 0v1464h96v-1464h-96z" />
    <glyph glyph-name="Eth" unicode="&#xd0;" horiz-adv-x="1448" 
d="M190 0v700h-139v74h139v690h407q219 0 387 -85.5t262.5 -249t94.5 -384.5q0 -347 -200.5 -546t-547.5 -199h-403zM288 80h301q302 0 478 175t176 482q0 304 -174 476.5t-482 172.5h-299v-612h428v-74h-428v-620z" />
    <glyph glyph-name="Ntilde" unicode="&#xd1;" horiz-adv-x="1483" 
d="M532 1583h-65q8 80 48.5 135.5t110.5 55.5q32 0 67 -15t95 -55q73 -49 116 -49t66.5 34t30.5 83h64q-9 -78 -49 -134.5t-110 -56.5q-27 0 -57.5 11t-48.5 22t-50 32q-28 18 -42.5 27t-37.5 18t-42 9q-43 0 -66 -33.5t-30 -83.5zM190 0v1464h132l878 -1329v1329h92v-1464
h-112l-895 1356v-1356h-95z" />
    <glyph glyph-name="Ograve" unicode="&#xd2;" horiz-adv-x="1636" 
d="M793 1577l-170 250h104l137 -250h-71zM821 -14q-204 0 -368.5 99t-256.5 269t-92 376q0 151 52.5 288t144.5 239t226 162t289 60q203 0 367.5 -99t256.5 -268.5t92 -375.5q0 -120 -32.5 -232.5t-95 -206t-148 -163.5t-198 -109t-237.5 -39zM820 66q138 0 254.5 53.5
t194 144.5t121 212.5t43.5 257.5q0 181 -72.5 331.5t-214 243t-325.5 92.5q-138 0 -255 -53t-196 -143.5t-123 -211.5t-44 -257q0 -135 43.5 -257t122 -213.5t196 -145.5t255.5 -54z" />
    <glyph glyph-name="Oacute" unicode="&#xd3;" horiz-adv-x="1636" 
d="M766 1577l138 250h103l-167 -250h-74zM821 -14q-204 0 -368.5 99t-256.5 269t-92 376q0 151 52.5 288t144.5 239t226 162t289 60q203 0 367.5 -99t256.5 -268.5t92 -375.5q0 -120 -32.5 -232.5t-95 -206t-148 -163.5t-198 -109t-237.5 -39zM820 66q138 0 254.5 53.5
t194 144.5t121 212.5t43.5 257.5q0 181 -72.5 331.5t-214 243t-325.5 92.5q-138 0 -255 -53t-196 -143.5t-123 -211.5t-44 -257q0 -135 43.5 -257t122 -213.5t196 -145.5t255.5 -54z" />
    <glyph glyph-name="Ocircumflex" unicode="&#xd4;" horiz-adv-x="1636" 
d="M547 1577l229 250h84l224 -250h-73l-192 180l-198 -180h-74zM821 -14q-204 0 -368.5 99t-256.5 269t-92 376q0 151 52.5 288t144.5 239t226 162t289 60q203 0 367.5 -99t256.5 -268.5t92 -375.5q0 -120 -32.5 -232.5t-95 -206t-148 -163.5t-198 -109t-237.5 -39zM820 66
q138 0 254.5 53.5t194 144.5t121 212.5t43.5 257.5q0 181 -72.5 331.5t-214 243t-325.5 92.5q-138 0 -255 -53t-196 -143.5t-123 -211.5t-44 -257q0 -135 43.5 -257t122 -213.5t196 -145.5t255.5 -54z" />
    <glyph glyph-name="Otilde" unicode="&#xd5;" horiz-adv-x="1636" 
d="M584 1583h-66q8 80 48.5 135.5t110.5 55.5q31 0 64.5 -14t90.5 -51q81 -54 123 -54q43 0 67 34.5t30 82.5h63q-9 -79 -48 -135t-109 -56q-62 0 -157 65q-28 18 -42.5 27t-37.5 18t-42 9q-42 0 -66.5 -34.5t-28.5 -82.5zM821 -14q-204 0 -368.5 99t-256.5 269t-92 376
q0 151 52.5 288t144.5 239t226 162t289 60q203 0 367.5 -99t256.5 -268.5t92 -375.5q0 -120 -32.5 -232.5t-95 -206t-148 -163.5t-198 -109t-237.5 -39zM820 66q138 0 254.5 53.5t194 144.5t121 212.5t43.5 257.5q0 181 -72.5 331.5t-214 243t-325.5 92.5q-138 0 -255 -53
t-196 -143.5t-123 -211.5t-44 -257q0 -135 43.5 -257t122 -213.5t196 -145.5t255.5 -54z" />
    <glyph glyph-name="Odieresis" unicode="&#xd6;" horiz-adv-x="1636" 
d="M990 1610q-27 0 -44.5 18t-17.5 43q0 26 17.5 43t44.5 17q26 0 43.5 -16.5t17.5 -43.5q0 -26 -17.5 -43.5t-43.5 -17.5zM643 1610q-25 0 -43 18t-18 43t17.5 42.5t43.5 17.5t44 -17.5t18 -42.5t-18 -43t-44 -18zM821 -14q-204 0 -368.5 99t-256.5 268.5t-92 375.5
q0 151 52.5 288t144.5 239t226 162.5t289 60.5q203 0 368 -99.5t256.5 -269.5t91.5 -375q0 -150 -51.5 -286.5t-143 -239t-226 -163t-290.5 -60.5zM820 66q183 0 324.5 91.5t215 242.5t73.5 333q0 134 -43 255t-120 212.5t-194 145t-256 53.5q-138 0 -254.5 -53t-195.5 -143
t-123 -211t-44 -257q0 -182 74 -333t216.5 -243.5t326.5 -92.5z" />
    <glyph glyph-name="multiply" unicode="&#xd7;" horiz-adv-x="1040" 
d="M117 352l337 334l-337 338l53 55l336 -338l338 336l53 -53l-336 -338l336 -334l-53 -53l-338 336l-336 -336z" />
    <glyph glyph-name="Oslash" unicode="&#xd8;" horiz-adv-x="1636" 
d="M92 8l195 213q-89 104 -136 235t-47 274q0 152 52 289t144 238.5t225.5 161.5t287.5 60q270 0 462 -166l178 198l50 -49l-177 -196q102 -104 154 -239.5t52 -287.5t-51.5 -289.5t-143 -240t-225 -163t-289.5 -60.5q-138 0 -264 47.5t-223 138.5l-193 -215zM348 289
l870 964q-166 148 -403 148q-181 0 -322 -90.5t-215.5 -241t-74.5 -330.5q0 -272 145 -450zM1267 1204l-874 -968q175 -170 430 -170q137 0 252.5 53.5t193 144t121 211t43.5 254.5q0 290 -166 475z" />
    <glyph glyph-name="Ugrave" unicode="&#xd9;" horiz-adv-x="1397" 
d="M674 1577l-170 250h104l137 -250h-71zM164 1464h96v-934q0 -222 109.5 -341t335.5 -119q229 0 329.5 123t100.5 362v909h96v-919q0 -267 -133.5 -411t-395.5 -144q-258 0 -398 138.5t-140 393.5v942z" />
    <glyph glyph-name="Uacute" unicode="&#xda;" horiz-adv-x="1397" 
d="M645 1577l139 250h103l-168 -250h-74zM164 1464h96v-934q0 -222 109.5 -341t335.5 -119q229 0 329.5 123t100.5 362v909h96v-919q0 -267 -133.5 -411t-395.5 -144q-258 0 -398 138.5t-140 393.5v942z" />
    <glyph glyph-name="Ucircumflex" unicode="&#xdb;" horiz-adv-x="1397" 
d="M426 1577l229 250h84l226 -250h-74l-193 180l-198 -180h-74zM164 1464h96v-934q0 -222 109.5 -341t335.5 -119q229 0 329.5 123t100.5 362v909h96v-919q0 -267 -133.5 -411t-395.5 -144q-258 0 -398 138.5t-140 393.5v942z" />
    <glyph glyph-name="Udieresis" unicode="&#xdc;" horiz-adv-x="1397" 
d="M807 1671q0 26 18 43t44 17t43.5 -17t17.5 -43t-17.5 -43.5t-43.5 -17.5t-44 17.5t-18 43.5zM461 1671q0 25 18 42.5t43 17.5q26 0 44 -17.5t18 -42.5t-18 -43t-44 -18q-25 0 -43 18t-18 43zM164 1464h96v-934q0 -222 109.5 -341t335.5 -119q229 0 329.5 123t100.5 362
v909h96v-919q0 -267 -133.5 -411t-395.5 -144q-258 0 -398 138.5t-140 393.5v942z" />
    <glyph glyph-name="Yacute" unicode="&#xdd;" horiz-adv-x="1139" 
d="M530 1577l140 250h102l-168 -250h-74zM535 0v645l-490 819h111l432 -735l405 735h101l-461 -819v-645h-98z" />
    <glyph glyph-name="Thorn" unicode="&#xde;" horiz-adv-x="1161" 
d="M190 0v1464h95v-303l212 3q78 1 142 -4t132 -19.5t119 -44t92.5 -73.5t63 -111.5t21.5 -154.5q0 -77 -18 -138t-47 -103t-75 -72.5t-93.5 -48t-110 -27t-117 -12.5t-123.5 -2l-198 2v-356h-95zM285 432h288q89 0 157.5 16t125 52t86.5 102.5t30 160.5q0 75 -20 131.5
t-54 92t-86 57.5t-109.5 30.5t-129.5 8.5h-288v-651z" />
    <glyph glyph-name="germandbls" unicode="&#xdf;" horiz-adv-x="1155" 
d="M164 0v1174q0 184 112 299.5t295 115.5q160 0 265.5 -89t105.5 -245q0 -129 -73.5 -218.5t-197.5 -121.5q173 -30 287.5 -164.5t114.5 -310.5q0 -211 -109.5 -330.5t-323.5 -119.5q-106 0 -188 30l28 66q72 -25 157 -25q169 0 257.5 97.5t88.5 261.5q0 204 -128.5 328
t-329.5 124v76q141 0 236 80.5t95 224.5q0 127 -76.5 196t-204.5 69q-153 0 -237 -94.5t-84 -245.5v-1178h-90z" />
    <glyph glyph-name="agrave" unicode="&#xe0;" horiz-adv-x="1079" 
d="M524 1227l-174 311h103l145 -311h-74zM836 1v175q-57 -98 -156.5 -145t-221.5 -47q-75 0 -139 17.5t-115.5 52.5t-81.5 95.5t-30 139.5q0 61 18.5 110t48.5 82.5t75.5 58.5t92.5 38.5t106.5 21.5t110.5 10.5t112 1.5l180 -2q0 79 -5.5 133.5t-24 109.5t-51.5 87.5
t-90.5 53t-138.5 20.5q-119 0 -200.5 -61t-114.5 -175l-72 33q41 136 143 206t248 70q211 0 303.5 -110t92.5 -324v-652h-90zM836 543h-256q-61 0 -110.5 -4.5t-105.5 -20.5t-94 -42.5t-63 -74t-25 -111.5q0 -63 23 -109.5t64.5 -73t91.5 -38.5t110 -12q61 0 123.5 18
t117.5 50.5t89.5 86.5t34.5 119v212z" />
    <glyph glyph-name="aacute" unicode="&#xe1;" horiz-adv-x="1079" 
d="M500 1227l143 311h100l-174 -311h-69zM836 1v175q-57 -98 -156.5 -145t-221.5 -47q-75 0 -139 17.5t-115.5 52.5t-81.5 95.5t-30 139.5q0 61 18.5 110t48.5 82.5t75.5 58.5t92.5 38.5t106.5 21.5t110.5 10.5t112 1.5l180 -2q0 79 -5.5 133.5t-24 109.5t-51.5 87.5
t-90.5 53t-138.5 20.5q-119 0 -200.5 -61t-114.5 -175l-72 33q41 136 143 206t248 70q211 0 303.5 -110t92.5 -324v-652h-90zM836 543h-256q-61 0 -110.5 -4.5t-105.5 -20.5t-94 -42.5t-63 -74t-25 -111.5q0 -63 23 -109.5t64.5 -73t91.5 -38.5t110 -12q61 0 123.5 18
t117.5 50.5t89.5 86.5t34.5 119v212z" />
    <glyph glyph-name="acircumflex" unicode="&#xe2;" horiz-adv-x="1079" 
d="M276 1227l230 268h82l223 -268h-74l-192 198l-195 -198h-74zM836 1v175q-57 -98 -156.5 -145t-221.5 -47q-75 0 -139 17.5t-115.5 52.5t-81.5 95.5t-30 139.5q0 61 18.5 110t48.5 82.5t75.5 58.5t92.5 38.5t106.5 21.5t110.5 10.5t112 1.5l180 -2q0 79 -5.5 133.5
t-24 109.5t-51.5 87.5t-90.5 53t-138.5 20.5q-119 0 -200.5 -61t-114.5 -175l-72 33q41 136 143 206t248 70q211 0 303.5 -110t92.5 -324v-652h-90zM836 543h-256q-61 0 -110.5 -4.5t-105.5 -20.5t-94 -42.5t-63 -74t-25 -111.5q0 -63 23 -109.5t64.5 -73t91.5 -38.5
t110 -12q61 0 123.5 18t117.5 50.5t89.5 86.5t34.5 119v212z" />
    <glyph glyph-name="atilde" unicode="&#xe3;" horiz-adv-x="1079" 
d="M317 1253h-65q9 82 48 137.5t109 55.5q28 0 59 -11t49.5 -22t50.5 -33q81 -53 117 -53q43 0 68.5 35.5t32.5 81.5h64q-9 -80 -48.5 -135.5t-109.5 -55.5q-28 0 -59 11t-49.5 22t-50.5 33q-80 53 -116 53q-44 0 -70 -36t-30 -83zM836 0v174q-57 -97 -156.5 -143.5
t-222.5 -46.5q-74 0 -138 17t-116 52t-81.5 95t-29.5 140q0 61 18.5 110.5t48.5 83t75.5 58.5t92.5 38.5t106.5 21.5t110.5 10.5t112 1.5l180 -2q0 79 -5.5 133t-24 109t-51.5 87.5t-90.5 53t-138.5 20.5q-119 0 -200.5 -60.5t-114.5 -174.5l-72 33q41 136 143 206t248 70
q211 0 303.5 -110t92.5 -324v-653h-90zM836 543h-256q-61 0 -110.5 -4.5t-105.5 -20.5t-94 -42.5t-63 -74.5t-25 -112t23 -110.5t64.5 -73t91.5 -38.5t110 -12q61 0 123.5 18t117.5 51t89.5 87t34.5 119v213z" />
    <glyph glyph-name="adieresis" unicode="&#xe4;" horiz-adv-x="1079" 
d="M711 1298q-26 0 -43 18t-17 44t17.5 43.5t42.5 17.5t43 -18t18 -43q0 -26 -18 -44t-43 -18zM391 1298q-26 0 -44.5 19t-18.5 43t19 42.5t44 18.5q24 0 41 -18t17 -43q0 -26 -16.5 -44t-41.5 -18zM836 1v175q-57 -98 -156.5 -145t-221.5 -47q-75 0 -139 17.5t-115.5 52.5
t-81.5 95.5t-30 139.5q0 61 18.5 110t48.5 82.5t75.5 58.5t92.5 38.5t106.5 21.5t110.5 10.5t112 1.5l180 -2q0 79 -5.5 133.5t-24 109.5t-51.5 87.5t-90.5 53t-138.5 20.5q-119 0 -200.5 -61t-114.5 -175l-72 33q41 136 143 206t248 70q211 0 303.5 -110t92.5 -324v-652
h-90zM836 543h-256q-61 0 -110.5 -4.5t-105.5 -20.5t-94 -42.5t-63 -74t-25 -111.5q0 -63 23 -109.5t64.5 -73t91.5 -38.5t110 -12q61 0 123.5 18t117.5 50.5t89.5 86.5t34.5 119v212z" />
    <glyph glyph-name="aring" unicode="&#xe5;" horiz-adv-x="1079" 
d="M358 1419q0 77 57.5 133t136.5 56q78 0 134.5 -56.5t56.5 -133.5q0 -78 -57.5 -132.5t-134.5 -54.5q-76 0 -134.5 55.5t-58.5 132.5zM551 1282q55 0 93.5 40t38.5 98q0 56 -37.5 95t-93.5 39q-57 0 -95.5 -39.5t-38.5 -95.5t39 -96.5t94 -40.5zM836 0v174
q-57 -97 -157 -143.5t-222 -46.5q-74 0 -138 17t-116 52t-81.5 95t-29.5 140q0 61 18.5 110.5t48.5 83t75.5 58.5t92.5 38.5t106.5 21.5t110.5 10.5t112 1.5l180 -2q0 79 -5.5 133.5t-24 109.5t-51.5 87.5t-90.5 53t-138.5 20.5q-119 0 -200.5 -61t-114.5 -175l-72 33
q41 136 143 206t248 70q211 0 303.5 -110t92.5 -324v-653h-90zM836 543h-257q-61 0 -110 -4.5t-105 -20.5t-94 -42.5t-63 -74.5t-25 -112t23 -110.5t64.5 -73t91.5 -38.5t110 -12t123 18t117.5 51t89.5 87t35 119v213z" />
    <glyph glyph-name="ae" unicode="&#xe6;" horiz-adv-x="1866" 
d="M211 778l-74 31q42 138 153.5 208t263.5 70q144 0 237.5 -65.5t115.5 -204.5q55 129 166 199.5t258 70.5q110 0 196.5 -40t141 -111t83 -164.5t28.5 -202.5v-34h-850q0 -102 23 -186.5t70.5 -151t129 -103.5t189.5 -37q271 0 360 240l70 -31q-55 -143 -166 -212.5
t-266 -69.5q-162 0 -278 75.5t-171 221.5q-36 -142 -157 -219.5t-280 -77.5q-72 0 -134 17t-114 51.5t-82 94.5t-30 140q0 61 18.5 110t48 82t74 57t89.5 37.5t101 21t102 9.5t99 1l216 -3q0 45 -0.5 75t-3.5 69t-8.5 65t-15.5 57t-24.5 50.5t-36.5 39.5t-49.5 31t-65 18
t-82.5 7q-276 0 -345 -236zM930 602h762q-4 184 -95.5 299t-266.5 115q-120 0 -210.5 -57.5t-136.5 -149.5t-53 -207zM842 535h-264q-51 0 -91 -3t-89 -11t-84.5 -25t-67 -43.5t-48 -68.5t-16.5 -97q0 -64 23 -110.5t65 -72.5t92 -37.5t111 -11.5q95 0 177.5 35.5t137 108.5
t54.5 170v166z" />
    <glyph glyph-name="ccedilla" unicode="&#xe7;" horiz-adv-x="1124" 
d="M360 -279h66q6 -46 39.5 -71t81.5 -25q50 0 82.5 26.5t32.5 76.5q0 46 -28.5 68t-75.5 22t-83 -21l-41 38l88 153q-202 26 -319 179.5t-117 366.5q0 112 35 212t98.5 176t161.5 120.5t216 44.5q161 0 277.5 -81.5t163.5 -233.5l-77 -33q-36 132 -130 202.5t-229 70.5
q-99 0 -180 -38t-134 -103.5t-81.5 -151.5t-28.5 -183q0 -94 27 -179t78 -152t131.5 -106.5t180.5 -39.5q147 0 249.5 82t136.5 224l72 -35q-48 -162 -173.5 -254t-295.5 -92l-68 -119q30 10 62 10q68 0 109.5 -42t41.5 -109q0 -75 -51.5 -115.5t-127.5 -40.5
q-75 0 -127.5 40t-62.5 113z" />
    <glyph glyph-name="egrave" unicode="&#xe8;" horiz-adv-x="1126" 
d="M549 1227l-176 311h102l146 -311h-72zM965 295l69 -31q-53 -142 -167.5 -211t-268.5 -69q-160 0 -277.5 71.5t-176 192.5t-58.5 276q0 113 32.5 213.5t94 179t157.5 124.5t215 46q147 0 252 -70.5t155 -186.5t50 -263v-32h-864q1 -102 25 -187t72 -151t127.5 -103
t184.5 -37q133 0 236 60t142 178zM178 604h776q-6 185 -99 297.5t-268 112.5q-180 0 -289.5 -116.5t-119.5 -293.5z" />
    <glyph glyph-name="eacute" unicode="&#xe9;" horiz-adv-x="1126" 
d="M522 1227l144 311h100l-174 -311h-70zM965 295l69 -31q-53 -142 -167.5 -211t-268.5 -69q-160 0 -277.5 71.5t-176 192.5t-58.5 276q0 113 32.5 213.5t94 179t157.5 124.5t215 46q147 0 252 -70.5t155 -186.5t50 -263v-32h-864q1 -102 25 -187t72 -151t127.5 -103
t184.5 -37q133 0 236 60t142 178zM178 604h776q-6 185 -99 297.5t-268 112.5q-180 0 -289.5 -116.5t-119.5 -293.5z" />
    <glyph glyph-name="ecircumflex" unicode="&#xea;" horiz-adv-x="1126" 
d="M307 1227l230 268h81l224 -268h-74l-193 198l-194 -198h-74zM965 295l69 -31q-53 -142 -167.5 -211t-268.5 -69q-160 0 -277.5 71.5t-176 192.5t-58.5 276q0 113 32.5 213.5t94 179t157.5 124.5t215 46q147 0 252 -70.5t155 -186.5t50 -263v-32h-864q1 -102 25 -187
t72 -151t127.5 -103t184.5 -37q133 0 236 60t142 178zM178 604h776q-6 185 -99 297.5t-268 112.5q-180 0 -289.5 -116.5t-119.5 -293.5z" />
    <glyph glyph-name="edieresis" unicode="&#xeb;" horiz-adv-x="1126" 
d="M736 1298q-26 0 -43 18.5t-17 43.5t17 43t42 18q26 0 44 -18t18 -43q0 -26 -17.5 -44t-43.5 -18zM352 1360q0 24 19 42.5t43 18.5q25 0 42 -18t17 -43q0 -26 -16.5 -44t-41.5 -18t-44 18.5t-19 43.5zM965 295l69 -31q-53 -142 -167.5 -211t-268.5 -69q-160 0 -277.5 71.5
t-176 192.5t-58.5 276q0 113 32.5 213.5t94 179t157.5 124.5t215 46q147 0 252 -70.5t155 -186.5t50 -263v-32h-864q1 -102 25 -187t72 -151t127.5 -103t184.5 -37q133 0 236 60t142 178zM178 604h776q-6 185 -99 297.5t-268 112.5q-180 0 -289.5 -116.5t-119.5 -293.5z" />
    <glyph glyph-name="igrave" unicode="&#xec;" horiz-adv-x="426" 
d="M178 1227l-174 311h102l144 -311h-72zM168 0v1071h90v-1071h-90z" />
    <glyph glyph-name="iacute" unicode="&#xed;" horiz-adv-x="426" 
d="M172 1227l143 311h101l-174 -311h-70zM168 0v1071h90v-1071h-90z" />
    <glyph glyph-name="icircumflex" unicode="&#xee;" horiz-adv-x="508" 
d="M-14 1227l229 268h82l225 -268h-73l-193 198l-197 -198h-73zM209 0v1071h90v-1071h-90z" />
    <glyph glyph-name="idieresis" unicode="&#xef;" horiz-adv-x="426" 
d="M331 1298q-26 0 -43 18.5t-17 43.5t17 43t42 18q26 0 44 -18t18 -43q0 -26 -17.5 -44t-43.5 -18zM96 1298q-26 0 -43 18t-17 44t17.5 43.5t42.5 17.5t43 -18t18 -43q0 -26 -18 -44t-43 -18zM168 0v1071h90v-1071h-90z" />
    <glyph glyph-name="eth" unicode="&#xf0;" horiz-adv-x="1212" 
d="M299 1202l-31 51l272 156q-115 87 -251 172h119q118 -68 205 -135l222 127l29 -55l-199 -113q206 -172 329.5 -384t123.5 -454v-35q0 -150 -64 -274.5t-183 -199t-268 -74.5t-268 74t-184 199t-65 274q0 106 34 205.5t95.5 177.5t155.5 125.5t205 47.5q254 0 397 -204
q-120 269 -380 483zM601 57q130 0 228.5 66t147.5 172t49 235q0 137 -47 245t-146 173.5t-238 65.5q-127 0 -223.5 -67.5t-145 -175t-48.5 -236.5q0 -94 28 -179.5t80 -152.5t133.5 -106.5t181.5 -39.5z" />
    <glyph glyph-name="ntilde" unicode="&#xf1;" horiz-adv-x="1184" 
d="M356 1255h-65q6 51 23 92t52 70t82 29q27 0 58 -11t49.5 -22t50.5 -33q81 -53 119 -53q43 0 68 35t32 82h64q-9 -78 -49 -133.5t-111 -55.5q-61 0 -152 61q-84 55 -123 55q-41 0 -66 -34.5t-32 -81.5zM164 0v1071h88v-229q45 112 158 178.5t239 66.5q194 0 287.5 -112.5
t93.5 -310.5v-664h-88v662q0 165 -76 257.5t-237 92.5q-159 0 -268 -103t-109 -262v-647h-88z" />
    <glyph glyph-name="ograve" unicode="&#xf2;" horiz-adv-x="1202" 
d="M576 1227l-173 311h102l143 -311h-72zM608 -16q-151 0 -271.5 74.5t-185.5 199.5t-65 276q0 149 62.5 273.5t182.5 201t274 76.5q227 0 370 -157t143 -391q0 -151 -61 -276t-178.5 -201t-270.5 -76zM602 57q98 0 179 38t134 103.5t82 152.5t29 185q0 128 -45.5 234
t-142 174t-229.5 68q-196 0 -313.5 -137.5t-117.5 -338.5q0 -95 28 -180.5t80 -152.5t134 -106.5t182 -39.5z" />
    <glyph glyph-name="oacute" unicode="&#xf3;" horiz-adv-x="1202" 
d="M550 1227l143 311h103l-174 -311h-72zM608 -16q-151 0 -271.5 74.5t-185.5 199.5t-65 276q0 149 62.5 273.5t182.5 201t274 76.5q227 0 370 -157t143 -391q0 -151 -61 -276t-178.5 -201t-270.5 -76zM602 57q98 0 179 38t134 103.5t82 152.5t29 185q0 128 -45.5 234
t-142 174t-229.5 68q-196 0 -313.5 -137.5t-117.5 -338.5q0 -95 28 -180.5t80 -152.5t134 -106.5t182 -39.5z" />
    <glyph glyph-name="ocircumflex" unicode="&#xf4;" horiz-adv-x="1202" 
d="M336 1227l226 268h82l224 -268h-72l-193 198l-195 -198h-72zM608 -16q-151 0 -271.5 74.5t-185.5 199.5t-65 276q0 149 62.5 273.5t182.5 201t274 76.5q227 0 370 -157t143 -391q0 -151 -61 -276t-178.5 -201t-270.5 -76zM602 57q98 0 179 38t134 103.5t82 152.5t29 185
q0 128 -45.5 234t-142 174t-229.5 68q-196 0 -313.5 -137.5t-117.5 -338.5q0 -95 28 -180.5t80 -152.5t134 -106.5t182 -39.5z" />
    <glyph glyph-name="otilde" unicode="&#xf5;" horiz-adv-x="1202" 
d="M369 1255h-64q8 79 48 135t109 56q27 0 58 -11t49.5 -22t50.5 -33q81 -53 117 -53q42 0 67.5 35.5t31.5 81.5h65q-9 -78 -48.5 -133.5t-109.5 -55.5q-28 0 -58.5 11t-50 22.5t-53.5 33.5q-75 50 -114 50q-43 0 -67.5 -35t-30.5 -82zM608 -16q-151 0 -271.5 74.5
t-185.5 199.5t-65 276q0 148 62.5 273t182.5 201.5t274 76.5q113 0 209.5 -42.5t163 -116.5t103.5 -174.5t37 -214.5q0 -150 -61 -275.5t-179 -201.5t-270 -76zM602 58q130 0 228 65.5t147 173t49 239.5q0 95 -27 179.5t-77.5 151t-131.5 105.5t-181 39
q-196 0 -313.5 -137.5t-117.5 -338.5q0 -127 47.5 -234t146 -175t230.5 -68z" />
    <glyph glyph-name="odieresis" unicode="&#xf6;" horiz-adv-x="1202" 
d="M700 1360q0 25 18 43t44 18q25 0 43 -18t18 -43q0 -26 -18 -44t-43 -18q-26 0 -44 18t-18 44zM441 1298q-26 0 -44 19t-18 43t18.5 42.5t43.5 18.5q24 0 42.5 -18t18.5 -43q0 -26 -18 -44t-43 -18zM608 -16q-152 0 -272 74.5t-185 199.5t-65 277q0 148 62 272.5t182 201
t274 76.5q151 0 269 -73t181.5 -197.5t63.5 -277.5q0 -151 -61 -276t-178.5 -201t-270.5 -76zM601 57q195 0 310 138t115 341q0 128 -45.5 234t-142.5 174t-230 68q-131 0 -230.5 -65.5t-149.5 -172.5t-50 -238q0 -95 28 -180.5t80 -152.5t133.5 -106.5t181.5 -39.5z" />
    <glyph glyph-name="divide" unicode="&#xf7;" horiz-adv-x="1065" 
d="M532 985q-28 0 -47.5 20.5t-19.5 48.5q0 27 19.5 47.5t48.5 20.5q28 0 47.5 -19.5t19.5 -48.5q0 -30 -20.5 -49.5t-47.5 -19.5zM86 664v73h893v-73h-893zM532 279q-29 0 -48 20.5t-19 48.5t19.5 48t48.5 20q28 0 47.5 -19t19.5 -49t-20 -49.5t-48 -19.5z" />
    <glyph glyph-name="oslash" unicode="&#xf8;" horiz-adv-x="1202" 
d="M74 2l143 156q-131 150 -131 373q0 150 62 275.5t181 202t271 76.5q196 0 336 -120l129 143l49 -41l-131 -149q135 -145 135 -377q0 -114 -36 -215.5t-101 -177t-162.5 -120t-213.5 -44.5q-203 0 -343 129l-138 -154zM274 221l609 682q-112 109 -284 109
q-189 0 -305 -137t-116 -333t96 -321zM926 856l-611 -684q123 -115 295 -115q126 0 222 65.5t145 171.5t49 233q0 206 -100 329z" />
    <glyph glyph-name="ugrave" unicode="&#xf9;" horiz-adv-x="1176" 
d="M563 1227l-176 311h102l146 -311h-72zM924 0v225q-45 -114 -153 -177.5t-236 -63.5q-381 0 -381 409v678h88v-672q0 -340 311 -340q160 0 265.5 101t105.5 260v651h88v-1071h-88z" />
    <glyph glyph-name="uacute" unicode="&#xfa;" horiz-adv-x="1176" 
d="M537 1227l143 311h100l-174 -311h-69zM924 0v225q-45 -114 -153 -177.5t-236 -63.5q-381 0 -381 409v678h88v-672q0 -340 311 -340q160 0 265.5 101t105.5 260v651h88v-1071h-88z" />
    <glyph glyph-name="ucircumflex" unicode="&#xfb;" horiz-adv-x="1176" 
d="M322 1227l229 268h82l223 -268h-74l-192 198l-195 -198h-73zM924 0v225q-45 -114 -153 -177.5t-236 -63.5q-381 0 -381 409v678h88v-672q0 -340 311 -340q160 0 265.5 101t105.5 260v651h88v-1071h-88z" />
    <glyph glyph-name="udieresis" unicode="&#xfc;" horiz-adv-x="1176" 
d="M750 1298q-26 0 -43 18t-17 44t17.5 43.5t42.5 17.5t43 -18t18 -43q0 -26 -18 -44t-43 -18zM431 1298q-27 0 -45.5 18.5t-18.5 43.5t18.5 43t43.5 18t42 -18t17 -44t-16 -43.5t-41 -17.5zM924 0v225q-45 -114 -152.5 -177.5t-235.5 -63.5q-382 0 -382 409v678h88v-672
q0 -340 312 -340q159 0 264.5 101t105.5 260v651h88v-1071h-88z" />
    <glyph glyph-name="yacute" unicode="&#xfd;" horiz-adv-x="1012" 
d="M465 1227l143 311h101l-174 -311h-70zM260 -399l199 483l-406 987h97l358 -887l358 887h92l-608 -1470h-90z" />
    <glyph glyph-name="thorn" unicode="&#xfe;" horiz-adv-x="1243" 
d="M164 -373v1954h88v-797q54 135 171.5 219t260.5 84q148 0 257.5 -77t162.5 -198t53 -267q0 -113 -29 -212.5t-86 -178t-149.5 -124.5t-210.5 -46q-146 0 -261.5 79t-168.5 216v-652h-88zM666 57q99 0 177 38.5t125.5 105t72 151t24.5 180.5q0 93 -23 177t-68.5 153.5
t-122.5 110.5t-177 41q-96 0 -177 -39t-134 -104t-82 -150t-29 -178q0 -98 26.5 -185t76.5 -154.5t130 -107t181 -39.5z" />
    <glyph glyph-name="ydieresis" unicode="&#xff;" horiz-adv-x="1030" 
d="M684 1298q-26 0 -43 18t-17 44t17 43.5t43 17.5t43.5 -17.5t17.5 -43.5t-17.5 -44t-43.5 -18zM362 1298q-25 0 -43 18t-18 44q0 25 18 43t43 18t42.5 -17.5t17.5 -43.5t-17 -44t-43 -18zM291 -373l188 457l-426 987h94l379 -889l361 889h90l-596 -1444h-90z" />
    <glyph glyph-name="Amacron" unicode="&#x100;" horiz-adv-x="1333" 
d="M406 1624v68h493v-68h-493zM66 0l534 1464h129l541 -1464h-101l-151 414h-709l-151 -414h-92zM336 492h655l-329 892z" />
    <glyph glyph-name="amacron" unicode="&#x101;" horiz-adv-x="1079" 
d="M309 1321v65h482v-65h-482zM838 1v179q-59 -98 -159 -147t-223 -49q-74 0 -137.5 17.5t-114.5 52.5t-80.5 95t-29.5 139q0 59 17 107t45.5 81t70 58t85 39.5t97.5 23t100.5 11.5t99.5 3h36l191 -3q0 42 -0.5 67.5t-2.5 62t-6 59.5t-11.5 52.5t-18.5 48t-26.5 39.5t-37 33
t-48.5 23t-61.5 16t-76.5 5q-123 0 -208.5 -61t-121.5 -177l-76 25q42 143 151 214.5t266 71.5q181 0 273.5 -95.5t92.5 -280.5v-710h-86zM836 543h-256q-61 0 -110.5 -4.5t-105.5 -20.5t-94 -42.5t-63 -74t-25 -111.5q0 -63 23 -109.5t64.5 -73t91.5 -38.5t110 -12
q61 0 123.5 18t117.5 50.5t89.5 86.5t34.5 119v212z" />
    <glyph glyph-name="Abreve" unicode="&#x102;" horiz-adv-x="1333" 
d="M393 1825h72q8 -76 59 -125t126 -49q76 0 129 49.5t61 124.5h69q-6 -105 -80 -174.5t-179 -69.5t-177 69t-80 175zM66 0l534 1464h129l541 -1464h-101l-151 414h-709l-151 -414h-92zM336 492h655l-329 892z" />
    <glyph glyph-name="abreve" unicode="&#x103;" horiz-adv-x="1079" 
d="M303 1493h72q6 -75 53 -122.5t121 -47.5t122 47.5t54 122.5h72q-6 -102 -76.5 -171t-174.5 -69q-102 0 -168.5 67.5t-74.5 172.5zM838 1v179q-59 -98 -159 -147t-223 -49q-74 0 -137.5 17.5t-114.5 53t-80.5 95.5t-29.5 139q0 82 33 142.5t82.5 94.5t122 54.5t136.5 26.5
t141 6h36l191 -3q0 60 -1 95t-7 84t-17 77t-32 60t-51.5 48.5t-76 28t-104.5 11.5q-123 0 -208.5 -60.5t-121.5 -176.5l-76 25q42 142 151 213.5t266 71.5q181 0 273.5 -95t92.5 -279v-712h-86zM836 543h-256q-61 0 -110.5 -4.5t-105.5 -20.5t-94 -42.5t-63 -74t-25 -111.5
q0 -63 23 -109.5t64.5 -73t91.5 -38.5t110 -12q61 0 123.5 18t117.5 50.5t89.5 86.5t34.5 119v212z" />
    <glyph glyph-name="Aogonek" unicode="&#x104;" horiz-adv-x="1331" 
d="M66 0l534 1464h129l537 -1460q-34 -22 -58.5 -41t-52 -46.5t-42.5 -60t-15 -67.5q0 -49 30.5 -72.5t82.5 -23.5q49 0 96 18v-63q-46 -21 -101 -21q-83 0 -138.5 38t-55.5 112q0 120 159 223h-2l-151 414h-709l-151 -414h-92zM336 492h655l-329 892z" />
    <glyph glyph-name="aogonek" unicode="&#x105;" horiz-adv-x="1079" 
d="M838 9v171q-59 -98 -160 -147t-224 -49q-73 0 -136 17.5t-114 53t-80.5 95.5t-29.5 139q0 81 32.5 141.5t82 94t121.5 54t135.5 26.5t140.5 6h36l194 -3q0 46 -0.5 74.5t-3.5 68.5t-8.5 64.5t-15.5 55.5t-24.5 49.5t-36.5 38.5t-50 30.5t-66 17.5t-84 7
q-123 0 -208.5 -61t-121.5 -177l-76 25q42 143 151 214.5t266 71.5q181 0 273.5 -95.5t92.5 -280.5v-706q-164 -102 -164 -213q0 -50 32 -74.5t84 -24.5q47 0 95 18v-62q-45 -22 -111 -22q-74 0 -128 39t-54 110q0 69 49 130.5t119 102.5h-8zM836 545h-256q-61 0 -111 -5
t-105.5 -20.5t-93.5 -42.5t-63 -74.5t-25 -111.5t23 -110.5t64.5 -73t91.5 -38.5t110 -12q61 0 123.5 18t117.5 50.5t89.5 86.5t34.5 119v214z" />
    <glyph glyph-name="Cacute" unicode="&#x106;" horiz-adv-x="1489" 
d="M737 1577l140 250h102l-168 -250h-74zM1323 464l76 -34q-64 -213 -226 -328.5t-389 -115.5q-210 0 -366 98.5t-235 264.5t-79 375q0 150 48 286.5t134.5 240.5t218 166t287.5 62q208 0 368 -107t218 -304l-80 -35q-53 182 -185 273t-325 91q-134 0 -245.5 -54.5
t-184.5 -145.5t-113 -209.5t-40 -247.5q0 -140 36 -260.5t106 -213t182.5 -145.5t256.5 -53q202 0 340.5 102.5t196.5 293.5z" />
    <glyph glyph-name="cacute" unicode="&#x107;" horiz-adv-x="1128" 
d="M535 1227l143 311h102l-176 -311h-69zM979 365l72 -25q-42 -167 -163 -261.5t-293 -94.5q-151 0 -268.5 74t-179 198.5t-61.5 277.5q0 112 35 212t99 176t161 120.5t215 44.5q164 0 281.5 -83.5t160.5 -239.5l-80 -27q-33 134 -126.5 205.5t-227.5 71.5q-131 0 -230 -67
t-148.5 -172.5t-49.5 -231.5q0 -132 45 -240t141 -177t228 -69q148 0 251.5 83t137.5 225z" />
    <glyph glyph-name="Ccircumflex" unicode="&#x108;" horiz-adv-x="1489" 
d="M518 1577l230 250h83l226 -250h-74l-192 180l-199 -180h-74zM1323 464l76 -34q-64 -213 -226 -328.5t-389 -115.5q-210 0 -366 98.5t-235 264.5t-79 375q0 150 48 286.5t134.5 240.5t218 166t287.5 62q208 0 368 -107t218 -304l-80 -35q-53 182 -185 273t-325 91
q-134 0 -245.5 -54.5t-184.5 -145.5t-113 -209.5t-40 -247.5q0 -140 36 -260.5t106 -213t182.5 -145.5t256.5 -53q202 0 340.5 102.5t196.5 293.5z" />
    <glyph glyph-name="ccircumflex" unicode="&#x109;" horiz-adv-x="1128" 
d="M317 1227l230 268h82l225 -268h-74l-192 198l-197 -198h-74zM979 365l72 -25q-42 -167 -163 -261.5t-293 -94.5q-151 0 -268.5 74t-179 198.5t-61.5 277.5q0 112 35 212t99 176t161 120.5t215 44.5q164 0 281.5 -83.5t160.5 -239.5l-80 -27q-33 134 -126.5 205.5
t-227.5 71.5q-131 0 -230 -67t-148.5 -172.5t-49.5 -231.5q0 -132 45 -240t141 -177t228 -69q148 0 251.5 83t137.5 225z" />
    <glyph glyph-name="Cdotaccent" unicode="&#x10a;" horiz-adv-x="1489" 
d="M723 1671q0 26 18.5 44t44.5 18t45 -18.5t19 -44.5t-18.5 -44t-44.5 -18t-45 18.5t-19 44.5zM1323 464l76 -34q-64 -213 -226 -328.5t-389 -115.5q-210 0 -366 98.5t-235 264.5t-79 375q0 150 48 286.5t134.5 240.5t218 166t287.5 62q208 0 368 -107t218 -304l-80 -35
q-53 182 -185 273t-325 91q-134 0 -245.5 -54.5t-184.5 -145.5t-113 -209.5t-40 -247.5q0 -140 36 -260.5t106 -213t182.5 -145.5t256.5 -53q202 0 340.5 102.5t196.5 293.5z" />
    <glyph glyph-name="cdotaccent" unicode="&#x10b;" horiz-adv-x="1128" 
d="M587 1296q-26 0 -44.5 19t-18.5 45t18 43.5t44 17.5t44.5 -17.5t18.5 -43.5t-18 -45t-44 -19zM979 365l72 -25q-42 -167 -163 -261.5t-293 -94.5q-151 0 -268.5 74t-179 198.5t-61.5 277.5q0 112 35 212t99 176t161 120.5t215 44.5q164 0 281.5 -83.5t160.5 -239.5
l-80 -27q-33 134 -126.5 205.5t-227.5 71.5q-131 0 -230 -67t-148.5 -172.5t-49.5 -231.5q0 -132 45 -240t141 -177t228 -69q148 0 251.5 83t137.5 225z" />
    <glyph glyph-name="Ccaron" unicode="&#x10c;" horiz-adv-x="1489" 
d="M743 1577l-227 250h74l198 -180l199 180h72l-232 -250h-84zM1323 464l76 -34q-64 -213 -226 -328.5t-389 -115.5q-210 0 -366 98.5t-235 264.5t-79 375q0 150 48 286.5t134.5 240.5t218 166t287.5 62q208 0 368 -107t218 -304l-80 -35q-53 182 -185 273t-325 91
q-134 0 -245.5 -54.5t-184.5 -145.5t-113 -209.5t-40 -247.5q0 -140 36 -260.5t106 -213t182.5 -145.5t256.5 -53q202 0 340.5 102.5t196.5 293.5z" />
    <glyph glyph-name="ccaron" unicode="&#x10d;" horiz-adv-x="1128" 
d="M543 1251l-226 269h74l195 -199l194 199h74l-229 -269h-82zM979 365l72 -25q-42 -167 -163 -261.5t-293 -94.5q-151 0 -268.5 74t-179 198.5t-61.5 277.5q0 112 35 212t99 176t161 120.5t215 44.5q164 0 281.5 -83.5t160.5 -239.5l-80 -27q-33 134 -126.5 205.5
t-227.5 71.5q-131 0 -230 -67t-148.5 -172.5t-49.5 -231.5q0 -132 45 -240t141 -177t228 -69q148 0 251.5 83t137.5 225z" />
    <glyph glyph-name="Dcaron" unicode="&#x10e;" horiz-adv-x="1446" 
d="M603 1577l-227 250h74l198 -180l198 180h72l-231 -250h-84zM190 0v1464h407q219 0 387 -85.5t262.5 -249t94.5 -384.5q0 -347 -200.5 -546t-547.5 -199h-403zM288 80h301q302 0 478 175t176 482q0 304 -174 476.5t-482 172.5h-299v-1306z" />
    <glyph glyph-name="dcaron" unicode="&#x10f;" horiz-adv-x="1335" 
d="M1008 0v281q-49 -132 -170.5 -214.5t-263.5 -82.5q-150 0 -262.5 74.5t-169 196.5t-56.5 272q0 152 57.5 278t173 204t267.5 78q150 0 260.5 -75t163.5 -211v780h90v-1581h-90zM1219 1264l26 317h88l-51 -317h-63zM582 57q130 0 229 65.5t149 171t50 232.5
q0 98 -24.5 184t-72.5 155t-128 109t-182 40q-195 0 -311 -136t-116 -335q0 -98 25.5 -184.5t74 -154.5t127.5 -107.5t179 -39.5z" />
    <glyph glyph-name="Dcroat" unicode="&#x110;" horiz-adv-x="1448" 
d="M190 0v700h-139v74h139v690h407q219 0 387 -85.5t262.5 -249t94.5 -384.5q0 -347 -200.5 -546t-547.5 -199h-403zM288 80h301q302 0 478 175t176 482q0 304 -174 476.5t-482 172.5h-299v-612h428v-74h-428v-620z" />
    <glyph glyph-name="dcroat" unicode="&#x111;" horiz-adv-x="1264" 
d="M1010 0v281q-49 -132 -171 -214.5t-264 -82.5q-151 0 -263.5 74.5t-169 196.5t-56.5 272q0 113 34 214.5t96.5 178.5t158 122t210.5 45q150 0 261 -75t164 -211v481h-394v66h394v233h88v-233h162v-66h-162v-1282h-88zM583 57q98 0 180 38t136 102.5t83.5 149.5t29.5 179
q0 98 -24.5 184t-72.5 155t-128 109t-183 40q-131 0 -230 -65t-148.5 -171t-49.5 -235q0 -98 25.5 -184.5t74 -154.5t128 -107.5t179.5 -39.5z" />
    <glyph glyph-name="Emacron" unicode="&#x112;" horiz-adv-x="1212" 
d="M406 1624v68h493v-68h-493zM190 0v1464h887v-78h-790v-593h651v-78h-651v-637h827v-78h-924z" />
    <glyph glyph-name="emacron" unicode="&#x113;" horiz-adv-x="1126" 
d="M334 1321v65h481v-65h-481zM961 297l73 -23q-53 -146 -167 -218t-271 -72q-159 0 -276 71.5t-175.5 193.5t-58.5 277q0 113 32.5 213.5t93 178.5t156.5 123.5t215 45.5q111 0 199.5 -40t144 -111t84.5 -164t29 -203v-34h-864q0 -139 42 -244t136.5 -169.5t233.5 -64.5
q134 0 231 60.5t142 179.5zM178 604h776q-6 185 -99 297.5t-268 112.5q-180 0 -289.5 -116.5t-119.5 -293.5z" />
    <glyph glyph-name="Ebreve" unicode="&#x114;" horiz-adv-x="1212" 
d="M397 1825h72q8 -76 59 -125t126 -49q76 0 129 49.5t61 124.5h69q-6 -105 -80 -174.5t-179 -69.5q-104 0 -176.5 69.5t-80.5 174.5zM190 0v1464h887v-78h-790v-593h651v-78h-651v-637h827v-78h-924z" />
    <glyph glyph-name="ebreve" unicode="&#x115;" horiz-adv-x="1126" 
d="M324 1493h71q6 -75 52 -122.5t120 -47.5t122 47.5t56 122.5h70q-6 -104 -75 -172t-173 -68q-103 0 -169 67.5t-74 172.5zM965 295l69 -31q-53 -142 -167.5 -211t-268.5 -69q-160 0 -277.5 71.5t-176 192.5t-58.5 276q0 152 55.5 278t171 205.5t272.5 79.5
q147 0 252 -70.5t155 -186t50 -262.5v-33h-864q1 -102 25 -187t72 -151t127.5 -103t184.5 -37q133 0 236 60t142 178zM178 605h776q-6 184 -99 296.5t-268 112.5q-180 0 -289.5 -116.5t-119.5 -292.5z" />
    <glyph glyph-name="Edotaccent" unicode="&#x116;" horiz-adv-x="1212" 
d="M653 1608q-26 0 -43.5 18.5t-17.5 44.5t17.5 44t43.5 18t45 -18.5t19 -44.5t-19 -44t-45 -18zM190 0v1464h887v-78h-790v-593h651v-78h-651v-637h827v-78h-924z" />
    <glyph glyph-name="edotaccent" unicode="&#x117;" horiz-adv-x="1126" 
d="M575 1296q-26 0 -44.5 19t-18.5 45t18.5 43.5t44.5 17.5q27 0 45.5 -17t18.5 -44q0 -26 -19 -45t-45 -19zM961 297l73 -23q-53 -146 -167 -218t-271 -72q-159 0 -276 71.5t-175.5 193.5t-58.5 277q0 113 32.5 213.5t93 178.5t156.5 123.5t215 45.5q111 0 199.5 -40
t144 -111t84.5 -164t29 -203v-34h-864q0 -139 42 -244t136.5 -169.5t233.5 -64.5q134 0 231 60.5t142 179.5zM178 604h776q-6 185 -99 297.5t-268 112.5q-180 0 -289.5 -116.5t-119.5 -293.5z" />
    <glyph glyph-name="Eogonek" unicode="&#x118;" horiz-adv-x="1212" 
d="M190 0v1464h887v-78h-790v-593h651v-78h-651v-637h827v-78h-129q-160 -103 -160 -208q0 -50 31.5 -74.5t83.5 -24.5q48 0 94 18v-63q-44 -21 -101 -21q-83 0 -138.5 38t-55.5 112q0 123 160 223h-709z" />
    <glyph glyph-name="eogonek" unicode="&#x119;" horiz-adv-x="1126" 
d="M868 -291v-61q-44 -21 -103 -21q-81 0 -135.5 38t-54.5 110q0 126 168 231q-73 -22 -156 -22q-155 0 -270 71.5t-173 193.5t-58 277q0 113 32.5 213.5t93 178.5t156.5 123.5t215 45.5q111 0 199.5 -40t144 -111t84.5 -164t29 -203v-34h-864q1 -104 25.5 -189t73.5 -150.5
t131 -102t190 -36.5q266 0 354 240l76 -23q-47 -130 -145 -214l-52 -42q-39 -30 -61 -48.5t-52 -50t-44.5 -63t-14.5 -65.5q0 -50 32 -75t85 -25q48 0 94 18zM178 604h776q-6 185 -99 297.5t-268 112.5q-180 0 -289.5 -116.5t-119.5 -293.5z" />
    <glyph glyph-name="Ecaron" unicode="&#x11a;" horiz-adv-x="1212" 
d="M610 1577l-227 250h74l198 -180l199 180h72l-232 -250h-84zM190 0v1464h887v-78h-790v-593h651v-78h-651v-637h827v-78h-924z" />
    <glyph glyph-name="ecaron" unicode="&#x11b;" horiz-adv-x="1126" 
d="M532 1251l-225 269h74l194 -199l193 199h74l-230 -269h-80zM961 297l73 -23q-53 -146 -167 -218t-271 -72q-159 0 -276 71.5t-175.5 193.5t-58.5 277q0 113 32.5 213.5t93 178.5t156.5 123.5t215 45.5q111 0 199.5 -40t144 -111t84.5 -164t29 -203v-34h-864
q0 -139 42 -244t136.5 -169.5t233.5 -64.5q134 0 231 60.5t142 179.5zM178 604h776q-6 185 -99 297.5t-268 112.5q-180 0 -289.5 -116.5t-119.5 -293.5z" />
    <glyph glyph-name="Gcircumflex" unicode="&#x11c;" horiz-adv-x="1548" 
d="M535 1579l229 246h70l225 -246h-62l-198 184l-203 -184h-61zM895 627v80h545v-422q-107 -160 -264.5 -229.5t-364.5 -69.5q-217 0 -378 95t-244 261.5t-83 382.5q0 154 49.5 291t138 240t220.5 163t289 60q211 0 367 -96.5t219 -288.5l-80 -35q-50 164 -188 252t-316 88
q-136 0 -250.5 -53.5t-189.5 -144t-116.5 -210t-41.5 -252.5q0 -146 37.5 -267.5t111 -212.5t191 -142t269.5 -51q164 0 307 60t225 187v314h-453z" />
    <glyph glyph-name="gcircumflex" unicode="&#x11d;" horiz-adv-x="1241" 
d="M326 1227l227 268h82l225 -268h-74l-192 198l-197 -198h-71zM113 -84l82 25q32 -129 142 -189.5t258 -60.5q188 0 291 96.5t103 287.5v252q-45 -131 -164 -210.5t-260 -79.5q-151 0 -261 72.5t-164 191t-54 267.5q0 143 61.5 261t175 188t257.5 70t250.5 -71.5
t158.5 -204.5v260h88v-998q0 -225 -129 -340.5t-354 -115.5q-82 0 -157 16t-142.5 49.5t-115.5 93.5t-66 140zM569 111q128 0 225.5 64.5t147 169.5t49.5 231q0 119 -44 216.5t-136 159t-217 61.5t-221 -60.5t-146.5 -161t-50.5 -223.5q0 -127 43 -229t133.5 -165t216.5 -63
z" />
    <glyph glyph-name="Gbreve" unicode="&#x11e;" horiz-adv-x="1548" 
d="M543 1823h61q8 -77 61 -129t129 -52t131.5 52.5t63.5 128.5h60q-6 -101 -80 -170.5t-177 -69.5q-101 0 -171 68.5t-78 171.5zM895 627v80h545v-422q-107 -160 -264.5 -229.5t-364.5 -69.5q-217 0 -378 95t-244 261.5t-83 382.5q0 154 49.5 291t138 240t220.5 163t289 60
q211 0 367 -96.5t219 -288.5l-80 -35q-50 164 -188 252t-316 88q-136 0 -250.5 -53.5t-189.5 -144t-116.5 -210t-41.5 -252.5q0 -146 37.5 -267.5t111 -212.5t191 -142t269.5 -51q164 0 307 60t225 187v314h-453z" />
    <glyph glyph-name="gbreve" unicode="&#x11f;" horiz-adv-x="1241" 
d="M344 1493h72q6 -75 52.5 -122.5t120.5 -47.5t122.5 48t56.5 122h70q-6 -104 -75.5 -172t-172.5 -68q-104 0 -171 67.5t-75 172.5zM106 -84l78 25q24 -88 89 -146t145.5 -81t176.5 -23q189 0 291.5 96t102.5 288v252q-48 -131 -165.5 -210.5t-258.5 -79.5
q-146 0 -256 69.5t-166.5 186t-56.5 262.5q0 148 58 268t171 192t262 72q147 0 253.5 -71.5t158.5 -204.5v260h88v-998q0 -226 -128.5 -341t-354.5 -115q-83 0 -158.5 16t-144 49.5t-117.5 93.5t-68 140zM572 111q191 0 305 127.5t114 317.5q0 128 -41.5 229t-133 164.5
t-221.5 63.5q-191 0 -305 -126.5t-114 -318.5q0 -95 25 -177.5t73 -145t124.5 -98.5t173.5 -36z" />
    <glyph glyph-name="Gdotaccent" unicode="&#x120;" horiz-adv-x="1548" 
d="M797 1612q-23 0 -38.5 16t-15.5 39t15.5 38t38.5 15q22 0 38.5 -15.5t16.5 -37.5q0 -23 -16 -39t-39 -16zM895 627v80h545v-422q-107 -160 -264.5 -229.5t-364.5 -69.5q-217 0 -378 95t-244 261.5t-83 382.5q0 154 49.5 291t138 240t220.5 163t289 60q211 0 367 -96.5
t219 -288.5l-80 -35q-50 164 -188 252t-316 88q-136 0 -250.5 -53.5t-189.5 -144t-116.5 -210t-41.5 -252.5q0 -146 37.5 -267.5t111 -212.5t191 -142t269.5 -51q164 0 307 60t225 187v314h-453z" />
    <glyph glyph-name="gdotaccent" unicode="&#x121;" horiz-adv-x="1241" 
d="M592 1296q-25 0 -43.5 19t-18.5 45q0 25 18 43t44 18t44.5 -17.5t18.5 -43.5t-19 -45t-44 -19zM113 -84l82 25q32 -129 142 -189.5t257 -60.5q188 0 291.5 97t103.5 287v252q-46 -130 -165 -210t-259 -80q-151 0 -261 72.5t-164 191t-54 267.5q0 143 61.5 261t175 188
t257.5 70t250.5 -71.5t158.5 -204.5v260h88v-998q0 -225 -129 -340.5t-354 -115.5q-82 0 -157 16t-142.5 49.5t-115.5 93.5t-66 140zM578 111q192 0 302.5 131.5t110.5 327.5q0 123 -44.5 222t-137.5 160t-221 61q-193 0 -302.5 -129t-109.5 -325q0 -194 107.5 -321
t294.5 -127z" />
    <glyph glyph-name="uni0122" unicode="&#x122;" horiz-adv-x="1548" 
d="M895 627v80h545v-422q-107 -160 -264.5 -229.5t-364.5 -69.5q-217 0 -378 95t-244 261.5t-83 382.5q0 154 49.5 291t138 240t220.5 163t289 60q211 0 367 -96.5t219 -288.5l-80 -35q-50 164 -188 252t-316 88q-136 0 -250.5 -53.5t-189.5 -144t-116.5 -210t-41.5 -252.5
q0 -146 37.5 -267.5t111 -212.5t191 -142t269.5 -51q164 0 307 60t225 187v314h-453zM666 -377l118 287l80 -19l-139 -290z" />
    <glyph glyph-name="uni0123" unicode="&#x123;" horiz-adv-x="1241" 
d="M536 1252l143 297l59 -25l-111 -293zM113 -84l82 25q32 -130 140.5 -190t256.5 -60q189 0 292 96t103 288v252q-48 -131 -165 -210.5t-258 -79.5q-218 0 -348 147.5t-130 370.5q0 148 58 268t171 192t261 72q147 0 253 -71.5t158 -204.5v260h90v-998q0 -226 -129.5 -341
t-356.5 -115q-82 0 -156 15.5t-141 49t-115 93.5t-66 141zM571 111q127 0 224 60.5t146.5 161t49.5 223.5q0 128 -42 229t-133.5 164.5t-221.5 63.5q-191 0 -304.5 -126.5t-113.5 -318.5q0 -96 25 -178t73 -144.5t124 -98.5t173 -36z" />
    <glyph glyph-name="Hcircumflex" unicode="&#x124;" horiz-adv-x="1489" 
d="M475 1577l230 250h83l225 -250h-74l-194 180l-196 -180h-74zM190 0v1464h99v-684h908v684h99v-1464h-99v698h-908v-698h-99z" />
    <glyph glyph-name="hcircumflex" unicode="&#x125;" horiz-adv-x="1198" 
d="M298 1678l229 268h82l223 -268h-71l-193 198l-197 -198h-73zM168 0v1581h88v-739q45 112 162.5 178.5t244.5 66.5q194 0 287.5 -112.5t93.5 -310.5v-664h-88v662q0 166 -75.5 258t-237.5 92q-160 0 -273.5 -103.5t-113.5 -261.5v-647h-88z" />
    <glyph glyph-name="Hbar" unicode="&#x126;" horiz-adv-x="1466" 
d="M180 0v1069h-162v66h162v329h99v-329h908v329h99v-329h162v-66h-162v-1069h-99v698h-908v-698h-99zM279 780h908v289h-908v-289z" />
    <glyph glyph-name="hbar" unicode="&#x127;" horiz-adv-x="1194" 
d="M164 0v1282h-158v66h158v233h88v-233h397v-66h-397v-440q45 112 162.5 178.5t244.5 66.5q194 0 287.5 -112.5t93.5 -310.5v-664h-88v662q0 166 -75.5 258t-237.5 92q-160 0 -273.5 -103.5t-113.5 -261.5v-647h-88z" />
    <glyph glyph-name="Itilde" unicode="&#x128;" horiz-adv-x="498" 
d="M16 1583h-65q6 52 23 93t52 69.5t84 28.5q27 0 57 -10.5t47 -21t48 -31.5q83 -56 126 -56t67 34t30 83h66q-9 -77 -50.5 -134t-112.5 -57q-58 0 -155 65q-79 54 -119 54q-43 0 -67 -34t-31 -83zM201 0v1464h96v-1464h-96z" />
    <glyph glyph-name="itilde" unicode="&#x129;" horiz-adv-x="470" 
d="M1 1253h-64q8 80 47.5 136.5t108.5 56.5q60 0 153 -63q30 -19 45.5 -28.5t38.5 -18.5t41 -9q77 0 99 117h63q-10 -79 -49 -135t-109 -56q-28 0 -58 11t-50 22.5t-50 32.5q-81 53 -118 53q-43 0 -67 -35t-31 -84zM187 -2v1071h90v-1071h-90z" />
    <glyph glyph-name="Imacron" unicode="&#x12a;" horiz-adv-x="498" 
d="M2 1624v68h494v-68h-494zM201 0v1464h96v-1464h-96z" />
    <glyph glyph-name="imacron" unicode="&#x12b;" horiz-adv-x="426" 
d="M43 1321v65h342v-65h-342zM168 0v1071h90v-1071h-90z" />
    <glyph glyph-name="Ibreve" unicode="&#x12c;" horiz-adv-x="498" 
d="M-10 1825h71q10 -77 59.5 -125.5t124.5 -48.5q77 0 130 49.5t61 124.5h70q-6 -104 -80.5 -174t-180.5 -70q-104 0 -175.5 69t-79.5 175zM201 0v1464h96v-1464h-96z" />
    <glyph glyph-name="ibreve" unicode="&#x12d;" horiz-adv-x="426" 
d="M-33 1493h72q6 -74 53.5 -122t120.5 -48t121.5 48t56.5 122h70q-6 -104 -75.5 -172t-172.5 -68q-104 0 -171 67.5t-75 172.5zM168 0v1071h90v-1071h-90z" />
    <glyph glyph-name="Iogonek" unicode="&#x12e;" horiz-adv-x="498" 
d="M369 -289v-63q-46 -21 -102 -21q-83 0 -138 38t-55 114q0 116 141 227h-14v1458h96v-1460q-137 -99 -137 -209q0 -52 31.5 -77t83.5 -25q47 0 94 18z" />
    <glyph glyph-name="iogonek" unicode="&#x12f;" horiz-adv-x="426" 
d="M213 1296q-27 0 -45 18.5t-18 45.5q0 26 18.5 43.5t44.5 17.5t44.5 -17.5t18.5 -43.5q0 -27 -18 -45.5t-45 -18.5zM342 -291v-61q-46 -21 -111 -21q-76 0 -129 39t-53 114q0 105 131 224h-12v1067h90v-1067q-39 -37 -62 -62.5t-44 -66.5t-21 -80q0 -53 32 -78.5t85 -25.5
q48 0 94 18z" />
    <glyph glyph-name="Idotaccent" unicode="&#x130;" horiz-adv-x="498" 
d="M186 1671q0 26 18.5 44t44.5 18t45 -18.5t19 -43.5q0 -26 -18.5 -44.5t-44.5 -18.5t-45 18.5t-19 44.5zM201 0v1464h96v-1464h-96z" />
    <glyph glyph-name="dotlessi" unicode="&#x131;" horiz-adv-x="426" 
d="M168 0v1071h90v-1071h-90z" />
    <glyph glyph-name="IJ" unicode="&#x132;" horiz-adv-x="1239" 
d="M504 31v82q98 -45 204 -45q271 0 271 297v1099h96v-1102q0 -182 -92 -277t-276 -95q-120 0 -203 41zM201 0v1464h96v-1464h-96z" />
    <glyph glyph-name="ij" unicode="&#x133;" horiz-adv-x="850" 
d="M213 1296q-27 0 -45 18.5t-18 45.5q0 26 18.5 43.5t44.5 17.5q27 0 45.5 -17.5t18.5 -43.5t-18.5 -45t-45.5 -19zM569 1360q0 26 19 43.5t46 17.5t44.5 -17t17.5 -42q0 -27 -18.5 -46.5t-45.5 -19.5q-26 0 -44.5 19t-18.5 45zM435 -381v74q87 7 120 53.5t33 138.5v1186
h90v-1182q0 -135 -56 -200.5t-187 -69.5zM168 0v1071h90v-1071h-90z" />
    <glyph glyph-name="Jcircumflex" unicode="&#x134;" horiz-adv-x="813" 
d="M330 1577l229 250h84l225 -250h-73l-195 180l-197 -180h-73zM76 31v82q98 -45 204 -45q271 0 271 297v1099h96v-1102q0 -180 -92.5 -276t-275.5 -96q-118 0 -203 41z" />
    <glyph glyph-name="jcircumflex" unicode="&#x135;" horiz-adv-x="426" 
d="M-53 1227l229 268h82l223 -268h-71l-193 198l-197 -198h-73zM12 -381v74q88 7 122 53.5t34 138.5v1186h88v-1182q0 -135 -56 -200.5t-188 -69.5z" />
    <glyph glyph-name="uni0136" unicode="&#x136;" horiz-adv-x="1255" 
d="M195 0v1464h98v-702l756 702h110l-766 -710l803 -754h-119l-784 729v-729h-98zM500 -377l118 287l85 -19l-139 -290z" />
    <glyph glyph-name="uni0137" unicode="&#x137;" horiz-adv-x="977" 
d="M164 0v1581h88v-997l553 487h104l-569 -500l602 -571h-111l-579 549v-549h-88zM373 -379l116 291l86 -21l-143 -294z" />
    <glyph glyph-name="kgreenlandic" unicode="&#x138;" horiz-adv-x="987" 
d="M164 0v1071h90v-527l551 527h115l-566 -540l598 -531h-121l-577 509v-509h-90z" />
    <glyph glyph-name="Lacute" unicode="&#x139;" horiz-adv-x="1112" 
d="M193 1577l139 250h102l-168 -250h-73zM190 0v1464h97v-1384h745v-80h-842z" />
    <glyph glyph-name="lacute" unicode="&#x13a;" horiz-adv-x="465" 
d="M188 1577l140 250h102l-168 -250h-74zM170 0l-2 1450l92 41v-1491h-90z" />
    <glyph glyph-name="uni013B" unicode="&#x13b;" horiz-adv-x="1112" 
d="M190 0v1464h97v-1384h745v-80h-842zM444 -379l117 291l86 -21l-143 -294z" />
    <glyph glyph-name="uni013C" unicode="&#x13c;" horiz-adv-x="428" 
d="M170 0l-2 1540l92 41v-1581h-90zM70 -379l116 291l86 -21l-143 -294z" />
    <glyph glyph-name="Lcaron" unicode="&#x13d;" horiz-adv-x="1112" 
d="M190 0v1464h97v-1384h745v-80h-842zM641 1141l53 323h90l-75 -323h-68z" />
    <glyph glyph-name="lcaron" unicode="&#x13e;" horiz-adv-x="496" 
d="M170 0l-2 1540l92 41v-1581h-90zM379 1264l27 317h88l-52 -317h-63z" />
    <glyph glyph-name="Ldot" unicode="&#x13f;" horiz-adv-x="1116" 
d="M190 0v1464h97v-1384h745v-80h-842zM892 694q-29 0 -49 20t-20 50q0 29 20 48t48 19q29 0 48 -20t19 -48t-18.5 -48.5t-47.5 -20.5z" />
    <glyph glyph-name="ldot" unicode="&#x140;" horiz-adv-x="543" 
d="M170 0l-2 1540l92 41v-1581h-90zM481 700q-29 0 -48 20.5t-19 49.5t19.5 48.5t47.5 19.5q29 0 48.5 -19.5t19.5 -48.5t-19.5 -49.5t-48.5 -20.5z" />
    <glyph glyph-name="Lslash" unicode="&#x141;" horiz-adv-x="1135" 
d="M217 0v594l-156 -55v69l156 56v800h94v-764l480 177v-70l-480 -176v-551h748v-80h-842z" />
    <glyph glyph-name="lslash" unicode="&#x142;" horiz-adv-x="461" 
d="M186 0v799l-157 -103v76l157 105l-4 663l92 41v-649l166 108v-75l-166 -111v-854h-88z" />
    <glyph glyph-name="Nacute" unicode="&#x143;" horiz-adv-x="1483" 
d="M715 1577l139 250h102l-168 -250h-73zM190 0v1464h132l878 -1329v1329h92v-1464h-112l-895 1356v-1356h-95z" />
    <glyph glyph-name="nacute" unicode="&#x144;" horiz-adv-x="1184" 
d="M539 1227l143 311h100l-174 -311h-69zM164 0v1071h88v-229q45 112 158 178.5t239 66.5q194 0 287.5 -112.5t93.5 -310.5v-664h-88v662q0 165 -76 257.5t-237 92.5q-159 0 -268 -103t-109 -262v-647h-88z" />
    <glyph glyph-name="uni0145" unicode="&#x145;" horiz-adv-x="1483" 
d="M190 0v1464h132l878 -1329v1329h92v-1464h-112l-895 1356v-1356h-95zM584 -379l116 291l86 -21l-143 -294z" />
    <glyph glyph-name="uni0146" unicode="&#x146;" horiz-adv-x="1184" 
d="M164 0v1071h88v-229q45 112 158 178.5t239 66.5q194 0 287.5 -112.5t93.5 -310.5v-664h-88v662q0 165 -76 257.5t-237 92.5q-159 0 -268 -103t-109 -262v-647h-88zM453 -379l116 291l84 -21l-143 -294z" />
    <glyph glyph-name="Ncaron" unicode="&#x147;" horiz-adv-x="1483" 
d="M721 1577l-227 250h73l199 -180l199 180h71l-231 -250h-84zM190 0v1464h132l878 -1329v1329h92v-1464h-112l-895 1356v-1356h-95z" />
    <glyph glyph-name="ncaron" unicode="&#x148;" horiz-adv-x="1184" 
d="M547 1251l-225 269h73l195 -199l194 199h72l-227 -269h-82zM164 0v1071h88v-229q45 112 158 178.5t239 66.5q194 0 287.5 -112.5t93.5 -310.5v-664h-88v662q0 165 -76 257.5t-237 92.5q-159 0 -268 -103t-109 -262v-647h-88z" />
    <glyph glyph-name="napostrophe" unicode="&#x149;" horiz-adv-x="1223" 
d="M-59 1143l137 334l86 -35l-164 -326zM201 0v1071h88v-229q44 113 157 179t240 66q194 0 287.5 -112.5t93.5 -310.5v-664h-88v662q0 164 -74 257t-229 93q-167 0 -277 -102.5t-110 -262.5v-647h-88z" />
    <glyph glyph-name="Eng" unicode="&#x14a;" horiz-adv-x="1481" 
d="M190 0v1464h129l881 -1323v1323h90v-1466q0 -184 -89.5 -284.5t-271.5 -100.5q-118 0 -208 43v78q93 -43 201 -43q271 0 274 295l-913 1376v-1362h-93z" />
    <glyph glyph-name="eng" unicode="&#x14b;" horiz-adv-x="1194" 
d="M164 1v1070h88v-229q45 112 158 178.5t239 66.5q195 0 293 -112.5t98 -310.5v-739q0 -152 -61.5 -225.5t-210.5 -80.5v75q105 7 144.5 62t39.5 165v741q0 165 -80 257.5t-243 92.5q-159 0 -268 -103t-109 -262v-646h-88z" />
    <glyph glyph-name="Omacron" unicode="&#x14c;" horiz-adv-x="1636" 
d="M569 1624v68h493v-68h-493zM821 -14q-204 0 -368.5 99t-256.5 269t-92 376q0 151 52.5 288t144.5 239t226 162t289 60q203 0 367.5 -99t256.5 -268.5t92 -375.5q0 -120 -32.5 -232.5t-95 -206t-148 -163.5t-198 -109t-237.5 -39zM820 66q138 0 254.5 53.5t194 144.5
t121 212.5t43.5 257.5q0 181 -72.5 331.5t-214 243t-325.5 92.5q-138 0 -255 -53t-196 -143.5t-123 -211.5t-44 -257q0 -135 43.5 -257t122 -213.5t196 -145.5t255.5 -54z" />
    <glyph glyph-name="omacron" unicode="&#x14d;" horiz-adv-x="1202" 
d="M362 1321v65h480v-65h-480zM608 -16q-151 0 -271.5 74.5t-185.5 199.5t-65 276q0 149 62.5 273.5t182.5 201t274 76.5q227 0 370 -157t143 -391q0 -151 -61 -276t-178.5 -201t-270.5 -76zM602 57q98 0 179 38t134 103.5t82 152.5t29 185q0 128 -45.5 234t-142 174
t-229.5 68q-196 0 -313.5 -137.5t-117.5 -338.5q0 -95 28 -180.5t80 -152.5t134 -106.5t182 -39.5z" />
    <glyph glyph-name="Obreve" unicode="&#x14e;" horiz-adv-x="1636" 
d="M557 1825h72q8 -76 59 -125t127 -49q75 0 126.5 49t61.5 125h69q-6 -104 -80 -174t-179 -70q-104 0 -176 69t-80 175zM821 -14q-204 0 -368.5 99t-256.5 269t-92 376q0 151 52.5 288t144.5 239t226 162t289 60q203 0 367.5 -99t256.5 -268.5t92 -375.5
q0 -120 -32.5 -232.5t-95 -206t-148 -163.5t-198 -109t-237.5 -39zM820 66q138 0 254.5 53.5t194 144.5t121 212.5t43.5 257.5q0 181 -72.5 331.5t-214 243t-325.5 92.5q-138 0 -255 -53t-196 -143.5t-123 -211.5t-44 -257q0 -135 43.5 -257t122 -213.5t196 -145.5
t255.5 -54z" />
    <glyph glyph-name="obreve" unicode="&#x14f;" horiz-adv-x="1202" 
d="M354 1493h71q6 -74 53.5 -122t120.5 -48t121.5 48t56.5 122h69q-5 -104 -74.5 -172t-172.5 -68q-104 0 -170.5 67.5t-74.5 172.5zM608 -16q-151 0 -271.5 74.5t-185.5 199.5t-65 276q0 149 62.5 273.5t182.5 201t274 76.5q227 0 370 -157t143 -391q0 -151 -61 -276
t-178.5 -201t-270.5 -76zM602 57q98 0 179 38t134 103.5t82 152.5t29 185q0 128 -45.5 234t-142 174t-229.5 68q-196 0 -313.5 -137.5t-117.5 -338.5q0 -95 28 -180.5t80 -152.5t134 -106.5t182 -39.5z" />
    <glyph glyph-name="Ohungarumlaut" unicode="&#x150;" horiz-adv-x="1636" 
d="M651 1577l101 250h94l-125 -250h-70zM902 1577l101 250h94l-127 -250h-68zM821 -14q-204 0 -368.5 99t-256.5 269t-92 376q0 151 52.5 288t144.5 239t226 162t289 60q203 0 367.5 -99t256.5 -268.5t92 -375.5q0 -120 -32.5 -232.5t-95 -206t-148 -163.5t-198 -109
t-237.5 -39zM820 66q138 0 254.5 53.5t194 144.5t121 212.5t43.5 257.5q0 181 -72.5 331.5t-214 243t-325.5 92.5q-138 0 -255 -53t-196 -143.5t-123 -211.5t-44 -257q0 -135 43.5 -257t122 -213.5t196 -145.5t255.5 -54z" />
    <glyph glyph-name="ohungarumlaut" unicode="&#x151;" horiz-adv-x="1202" 
d="M447 1227l111 303h92l-135 -303h-68zM697 1227l111 303h89l-132 -303h-68zM608 -16q-151 0 -271.5 74.5t-185.5 199.5t-65 276q0 149 62.5 273.5t182.5 201t274 76.5q227 0 370 -157t143 -391q0 -151 -61 -276t-178.5 -201t-270.5 -76zM602 57q98 0 179 38t134 103.5
t82 152.5t29 185q0 128 -45.5 234t-142 174t-229.5 68q-196 0 -313.5 -137.5t-117.5 -338.5q0 -95 28 -180.5t80 -152.5t134 -106.5t182 -39.5z" />
    <glyph glyph-name="OE" unicode="&#x152;" horiz-adv-x="2028" 
d="M1114 78h817v-78h-1100q-332 0 -529.5 192.5t-197.5 524.5q0 349 191.5 548t538.5 199h1060v-78h-780v-593h639v-78h-639v-637zM1020 76v1310h-180q-303 0 -470 -175t-167 -485q0 -306 164.5 -478t474.5 -172h178z" />
    <glyph glyph-name="oe" unicode="&#x153;" horiz-adv-x="2068" 
d="M1901 297l73 -23q-53 -146 -166.5 -218t-270.5 -72q-177 0 -298.5 88t-169.5 254q-52 -157 -178.5 -249.5t-292.5 -92.5q-147 0 -265 74t-182.5 200t-64.5 277q0 148 61.5 272.5t180 201t270.5 76.5q169 0 296 -92t177 -249q49 158 166.5 250.5t280.5 92.5
q113 0 202.5 -40t146 -111t86 -164t29.5 -203v-34h-866q1 -104 25 -189t73 -150.5t129.5 -102t186.5 -36.5q134 0 230 59.5t141 180.5zM1118 604h774q-4 184 -97 297t-268 113q-180 0 -289.5 -116.5t-119.5 -293.5zM601 57q195 0 310 138t115 342q0 95 -27 179.5t-77.5 151
t-131.5 105.5t-182 39q-131 0 -231 -65.5t-150.5 -172.5t-50.5 -238q0 -128 47.5 -235t146 -175.5t231.5 -68.5z" />
    <glyph glyph-name="Racute" unicode="&#x154;" horiz-adv-x="1255" 
d="M542 1577l139 250h102l-168 -250h-73zM190 -2v1466h411q83 0 153 -11t135 -38.5t110 -70.5t72 -111t27 -156q0 -177 -101.5 -275.5t-278.5 -117.5l466 -686h-111l-456 674h-328v-674h-99zM289 752h312q87 0 154.5 15t124.5 49.5t88 98.5t31 156q0 73 -20.5 128.5
t-55.5 90t-87 56t-108.5 30t-126.5 8.5h-312v-632z" />
    <glyph glyph-name="racute" unicode="&#x155;" horiz-adv-x="694" 
d="M304 1227l143 311h103l-177 -311h-69zM164 0v1071h88v-244q48 120 144.5 185t226.5 69v-80q-183 -6 -277 -115t-94 -294v-592h-88z" />
    <glyph glyph-name="uni0156" unicode="&#x156;" horiz-adv-x="1255" 
d="M190 -2v1466h411q83 0 153 -11t135 -38.5t110 -70.5t72 -111t27 -156q0 -177 -101.5 -275.5t-278.5 -117.5l466 -686h-111l-456 674h-328v-674h-99zM289 752h312q87 0 154.5 15t124.5 49.5t88 98.5t31 156q0 73 -20.5 128.5t-55.5 90t-87 56t-108.5 30t-126.5 8.5h-312
v-632zM486 -381l117 291l86 -21l-143 -294z" />
    <glyph glyph-name="uni0157" unicode="&#x157;" horiz-adv-x="694" 
d="M164 0v1071h88v-244q48 120 144.5 185t226.5 69v-80q-183 -6 -277 -115t-94 -294v-592h-88zM66 -379l116 291l86 -21l-143 -294z" />
    <glyph glyph-name="Rcaron" unicode="&#x158;" horiz-adv-x="1255" 
d="M548 1577l-227 250h74l196 -180l201 180h70l-230 -250h-84zM190 -2v1466h411q83 0 153 -11t135 -38.5t110 -70.5t72 -111t27 -156q0 -177 -101.5 -275.5t-278.5 -117.5l466 -686h-111l-456 674h-328v-674h-99zM289 752h312q87 0 154.5 15t124.5 49.5t88 98.5t31 156
q0 73 -20.5 128.5t-55.5 90t-87 56t-108.5 30t-126.5 8.5h-312v-632z" />
    <glyph glyph-name="rcaron" unicode="&#x159;" horiz-adv-x="694" 
d="M342 1251l-223 269h71l195 -199l195 199h73l-229 -269h-82zM164 0v1071h88v-244q48 120 144.5 185t226.5 69v-80q-183 -6 -277 -115t-94 -294v-592h-88z" />
    <glyph glyph-name="Sacute" unicode="&#x15a;" horiz-adv-x="1214" 
d="M550 1579l137 250h105l-170 -250h-72zM80 369l76 32q104 -335 466 -335q76 0 144.5 20t124 58.5t88.5 101.5t33 143q0 54 -13 98.5t-33 75.5t-54 56t-66.5 40.5t-80.5 29t-85.5 21t-91.5 17.5h-1q-49 9 -74.5 14t-71 15.5t-70 20t-61.5 26t-58 34.5t-45.5 45t-37 57.5
t-21.5 71t-9 88.5q0 94 39 168.5t105 120t147.5 68.5t172.5 23q169 0 288.5 -80.5t167.5 -239.5l-74 -31q-79 271 -386 271q-74 0 -137 -16t-115 -49.5t-82 -92.5t-30 -138q0 -48 11 -86t31.5 -66t48 -49t62.5 -35.5t73.5 -25.5t81 -19t85.5 -16h2q66 -11 101 -18
t93.5 -23.5t91.5 -34.5t75 -49.5t64 -70.5t37.5 -95.5t15.5 -125.5q0 -97 -41.5 -175.5t-111 -127.5t-155 -74.5t-178.5 -25.5q-208 0 -342.5 93.5t-199.5 289.5z" />
    <glyph glyph-name="sacute" unicode="&#x15b;" horiz-adv-x="950" 
d="M428 1227l143 311h101l-174 -311h-70zM74 283l73 32q30 -129 118.5 -196.5t219.5 -67.5q79 0 142 22.5t106 77t43 135.5q0 32 -6 59t-21 47.5t-29 36t-40.5 28.5t-45.5 21t-54 16.5t-55.5 12.5t-59.5 11q-48 9 -74.5 14.5t-69.5 17.5t-67.5 24.5t-55 34.5t-46.5 48.5
t-27.5 64.5t-11.5 85q0 92 56 157t137 93t174 28q129 0 222 -61t132 -186l-68 -31q-65 209 -291 209q-53 0 -100.5 -12t-88.5 -36.5t-65 -67.5t-24 -99q0 -33 9.5 -60t22 -45.5t38.5 -34.5t46 -25.5t58 -19t60 -14t66 -12.5q71 -13 108.5 -21.5t95 -30.5t87 -49.5t53 -77
t23.5 -114.5q0 -81 -31.5 -143t-85.5 -98.5t-119.5 -55t-140.5 -18.5q-155 0 -268 77t-145 224z" />
    <glyph glyph-name="Scircumflex" unicode="&#x15c;" horiz-adv-x="1214" 
d="M332 1577l228 250h86l224 -250h-74l-193 180l-198 -180h-73zM80 369l76 32q104 -335 466 -335q76 0 144.5 20t124 58.5t88.5 101.5t33 143q0 54 -13 98.5t-33 75.5t-54 56t-66.5 40.5t-80.5 29t-85.5 21t-91.5 17.5h-1q-49 9 -74.5 14t-71 15.5t-70 20t-61.5 26t-58 34.5
t-45.5 45t-37 57.5t-21.5 71t-9 88.5q0 94 39 168.5t105 120t147.5 68.5t172.5 23q169 0 288.5 -80.5t167.5 -239.5l-74 -31q-79 271 -386 271q-74 0 -137 -16t-115 -49.5t-82 -92.5t-30 -138q0 -37 7.5 -69t18.5 -56.5t32 -45.5t39 -35.5t50 -27.5t54.5 -21t62 -17
t63.5 -13t68 -12q66 -11 100.5 -18t94 -23.5t92 -34.5t74.5 -49.5t64 -70t37.5 -95t15.5 -126.5q0 -97 -41.5 -175.5t-111 -127.5t-155 -74.5t-178.5 -25.5q-208 0 -342.5 93.5t-199.5 289.5z" />
    <glyph glyph-name="scircumflex" unicode="&#x15d;" horiz-adv-x="950" 
d="M207 1227l229 268h82l223 -268h-73l-193 198l-194 -198h-74zM74 283l73 32q30 -129 118.5 -196.5t219.5 -67.5q79 0 142 22.5t106 77t43 135.5q0 32 -6 59t-21 47.5t-29 36t-40.5 28.5t-45.5 21t-54 16.5t-55.5 12.5t-59.5 11q-48 9 -74.5 14.5t-69.5 17.5t-67.5 24.5
t-55 34.5t-46.5 48.5t-27.5 64.5t-11.5 85q0 92 56 157t137 93t174 28q129 0 222 -61t132 -186l-68 -31q-65 209 -291 209q-53 0 -100.5 -12t-88.5 -36.5t-65 -67.5t-24 -99q0 -33 9.5 -60t22 -45.5t38.5 -34.5t46 -25.5t58 -19t60 -14t66 -12.5q71 -13 108.5 -21.5
t95 -30.5t87 -49.5t53 -77t23.5 -114.5q0 -81 -31.5 -143t-85.5 -98.5t-119.5 -55t-140.5 -18.5q-155 0 -268 77t-145 224z" />
    <glyph glyph-name="Scedilla" unicode="&#x15e;" horiz-adv-x="1214" 
d="M80 369l76 32q104 -335 466 -335q76 0 144.5 20t124 58.5t88.5 101.5t33 143q0 53 -13 97t-31 74.5t-53 56t-64 40.5t-78.5 29t-82 21t-89.5 17q-183 33 -258 63q-150 61 -189 194q-15 53 -15 118q0 94 39 168.5t105 120t147.5 68.5t172.5 23q169 0 288.5 -80.5
t167.5 -239.5l-74 -31q-79 271 -386 271q-74 0 -137 -16t-115 -49.5t-82 -92.5t-30 -137q0 -41 7.5 -75.5t25 -61t35.5 -46.5t49 -36t55.5 -26.5t64.5 -20.5t66.5 -15t71.5 -13q72 -13 112.5 -21t101.5 -25.5t95 -36t75.5 -50t62.5 -70t36 -94t15 -124.5q0 -93 -38.5 -169.5
t-103 -125t-144.5 -76t-169 -31.5l-67 -120q24 10 57 10q70 0 112.5 -40.5t42.5 -112.5q0 -78 -49.5 -118t-129.5 -40q-72 0 -128 32.5t-71 94.5l57 24q12 -42 50 -66t84 -24q48 0 80 27t32 76q0 50 -33.5 68t-91.5 18q-13 0 -45 -15l-13 -6l-43 42l86 150q-191 8 -316 102
t-187 280z" />
    <glyph glyph-name="scedilla" unicode="&#x15f;" horiz-adv-x="950" 
d="M281 -317l57 24q12 -42 50 -66t84 -24q47 0 79.5 26.5t32.5 76.5t-33.5 67.5t-91.5 17.5q-18 0 -58 -20l-43 41l91 158q-142 9 -244 87t-131 214l73 32q30 -129 119 -196.5t221 -67.5q122 0 205.5 58t83.5 176q0 29 -6 53.5t-14.5 43.5t-25.5 35t-30.5 27.5t-39.5 22
t-43 16.5t-49.5 13.5t-49.5 10.5t-53 10q-49 9 -74.5 14t-69.5 17t-68 24.5t-54.5 34.5t-46.5 48.5t-27.5 64.5t-11.5 85q0 92 56 157t137 93t174 28q130 0 222.5 -61t131.5 -186l-68 -31q-67 209 -290 209q-42 0 -81 -7t-75.5 -23.5t-63.5 -40.5t-43 -61t-16 -82
q0 -26 5.5 -48t14 -39t24.5 -31.5t29.5 -25t38 -20.5t41.5 -15.5t47 -12.5t48 -10.5t52 -9.5q40 -7 60 -11t57 -12.5t57.5 -16.5t51 -21.5t47.5 -28t37.5 -36t31 -46.5t18 -58t7.5 -71q0 -95 -50 -165t-126.5 -104t-169.5 -38l-72 -126q29 10 62 10q67 0 109 -41t42 -112
q0 -77 -50 -117t-129 -40q-72 0 -128 32.5t-71 94.5z" />
    <glyph glyph-name="Scaron" unicode="&#x160;" horiz-adv-x="1214" 
d="M550 1577l-226 250h75l196 -180l201 180h70l-230 -250h-86zM80 369l76 32q104 -335 466 -335q76 0 144.5 20t124 58.5t88.5 101.5t33 143q0 54 -13 98.5t-33 75.5t-54 56t-66.5 40.5t-80.5 29t-85.5 21t-91.5 17.5h-1q-49 9 -74.5 14t-71 15.5t-70 20t-61.5 26t-58 34.5
t-45.5 45t-37 57.5t-21.5 71t-9 88.5q0 94 39 168.5t105 120t147.5 68.5t172.5 23q169 0 288.5 -80.5t167.5 -239.5l-74 -31q-79 271 -386 271q-74 0 -137 -16t-115 -49.5t-82 -92.5t-30 -138q0 -37 7.5 -69t18.5 -56.5t32 -45.5t39 -35.5t50 -27.5t54.5 -21t62 -17
t63.5 -13t68 -12q66 -11 100.5 -18t94 -23.5t92 -34.5t74.5 -49.5t64 -70t37.5 -95t15.5 -126.5q0 -97 -41.5 -175.5t-111 -127.5t-155 -74.5t-178.5 -25.5q-208 0 -342.5 93.5t-199.5 289.5z" />
    <glyph glyph-name="scaron" unicode="&#x161;" horiz-adv-x="950" 
d="M430 1251l-223 269h74l192 -199l195 199h73l-229 -269h-82zM74 283l73 32q30 -129 118.5 -196.5t219.5 -67.5q79 0 142 22.5t106 77t43 135.5q0 32 -6 59t-21 47.5t-29 36t-40.5 28.5t-45.5 21t-54 16.5t-55.5 12.5t-59.5 11q-48 9 -74.5 14.5t-69.5 17.5t-67.5 24.5
t-55 34.5t-46.5 48.5t-27.5 64.5t-11.5 85q0 92 56 157t137 93t174 28q129 0 222 -61t132 -186l-68 -31q-65 209 -291 209q-53 0 -100.5 -12t-88.5 -36.5t-65 -67.5t-24 -99q0 -33 9.5 -60t22 -45.5t38.5 -34.5t46 -25.5t58 -19t60 -14t66 -12.5q71 -13 108.5 -21.5
t95 -30.5t87 -49.5t53 -77t23.5 -114.5q0 -81 -31.5 -143t-85.5 -98.5t-119.5 -55t-140.5 -18.5q-155 0 -268 77t-145 224z" />
    <glyph glyph-name="uni0162" unicode="&#x162;" horiz-adv-x="1155" 
d="M389 -307l57 24q12 -42 49.5 -66t83.5 -24q48 0 80.5 27t32.5 76q0 50 -33.5 68t-91.5 18q-16 0 -58 -21l-43 42l93 163h-31v1384h-465v80h1031v-80h-467v-1382h3l-75 -135q24 10 57 10q70 0 112.5 -40.5t42.5 -112.5q0 -78 -50 -118t-129 -40q-72 0 -128 32.5t-71 94.5z
" />
    <glyph glyph-name="uni0163" unicode="&#x163;" horiz-adv-x="684" 
d="M169 -299l57 24q12 -42 50 -66t84 -24q48 0 80 27t32 76q0 50 -33.5 68t-91.5 18q-13 0 -45 -15l-13 -6l-43 42l94 164q-133 58 -133 249v741h-160v72h160v242l90 41v-283h293v-72h-293v-735q0 -201 181 -201q62 0 126 21v-76q-63 -22 -139 -22q-33 0 -66 5l-64 -116
q24 10 57 10q70 0 112.5 -40.5t42.5 -112.5q0 -78 -49.5 -118t-129.5 -40q-72 0 -128 32.5t-71 94.5z" />
    <glyph glyph-name="Tcaron" unicode="&#x164;" horiz-adv-x="1155" 
d="M530 1577l-227 250h74l198 -180l199 180h72l-232 -250h-84zM530 0v1386h-467v78h1029v-78h-467v-1386h-95z" />
    <glyph glyph-name="tcaron" unicode="&#x165;" horiz-adv-x="684" 
d="M494 1264l26 317h88l-51 -317h-63zM602 84v-76q-62 -22 -135 -22q-129 0 -194.5 72t-65.5 200v741h-160v72h160v242l90 41v-283h293v-72h-293v-735q0 -92 41.5 -147.5t130.5 -55.5q76 0 133 23z" />
    <glyph glyph-name="Tbar" unicode="&#x166;" horiz-adv-x="1155" 
d="M530 0v770h-317v70h317v546h-467v78h1029v-78h-467v-546h317v-70h-317v-770h-95z" />
    <glyph glyph-name="tbar" unicode="&#x167;" horiz-adv-x="684" 
d="M602 84v-76q-62 -22 -135 -22q-129 0 -194.5 72t-65.5 200v377h-160v63h160v301h-160v72h160v242l90 41v-283h293v-72h-293v-301h293v-63h-293v-371q0 -92 41.5 -147.5t130.5 -55.5q76 0 133 23z" />
    <glyph glyph-name="Utilde" unicode="&#x168;" horiz-adv-x="1397" 
d="M463 1583h-66q8 80 48.5 135.5t110.5 55.5q31 0 64 -14t89 -50q84 -55 124 -55q44 0 68 34t31 83h65q-9 -78 -49 -134.5t-110 -56.5q-62 0 -158 66q-80 53 -121 53q-42 0 -65.5 -34t-30.5 -83zM164 1464h96v-934q0 -222 109.5 -341t335.5 -119q229 0 329.5 123t100.5 362
v909h96v-919q0 -267 -133.5 -411t-395.5 -144q-258 0 -398 138.5t-140 393.5v942z" />
    <glyph glyph-name="utilde" unicode="&#x169;" horiz-adv-x="1176" 
d="M356 1255h-65q6 51 23 92t52 70t82 29q28 0 59 -11t49.5 -22t50.5 -33q81 -53 117 -53q43 0 68.5 35.5t32.5 81.5h64q-9 -79 -48.5 -134t-109.5 -55q-28 0 -59 11t-49.5 21.5t-50.5 31.5q-79 52 -118 52q-42 0 -68 -35t-30 -81zM924 0v225q-45 -114 -153 -177.5
t-236 -63.5q-381 0 -381 409v678h88v-672q0 -340 311 -340q160 0 265.5 101t105.5 260v651h88v-1071h-88z" />
    <glyph glyph-name="Umacron" unicode="&#x16a;" horiz-adv-x="1397" 
d="M449 1624v68h493v-68h-493zM164 1464h96v-934q0 -222 109.5 -341t335.5 -119q229 0 329.5 123t100.5 362v909h96v-919q0 -267 -133.5 -411t-395.5 -144q-258 0 -398 138.5t-140 393.5v942z" />
    <glyph glyph-name="umacron" unicode="&#x16b;" horiz-adv-x="1176" 
d="M348 1321v65h481v-65h-481zM924 0v225q-45 -114 -153 -177.5t-236 -63.5q-381 0 -381 409v678h88v-672q0 -340 311 -340q160 0 265.5 101t105.5 260v651h88v-1071h-88z" />
    <glyph glyph-name="Ubreve" unicode="&#x16c;" horiz-adv-x="1397" 
d="M438 1825h72q8 -76 59 -125t126 -49q76 0 129 49.5t61 124.5h69q-6 -105 -80 -174.5t-179 -69.5q-104 0 -176.5 69.5t-80.5 174.5zM164 1464h96v-934q0 -222 109.5 -341t335.5 -119q229 0 329.5 123t100.5 362v909h96v-919q0 -267 -133.5 -411t-395.5 -144
q-258 0 -398 138.5t-140 393.5v942z" />
    <glyph glyph-name="ubreve" unicode="&#x16d;" horiz-adv-x="1176" 
d="M342 1493h72q6 -75 53 -122.5t121 -47.5t122 47.5t54 122.5h72q-6 -103 -77 -171.5t-175 -68.5q-102 0 -168 67.5t-74 172.5zM924 0v225q-45 -114 -153 -177.5t-236 -63.5q-381 0 -381 409v678h88v-672q0 -340 311 -340q160 0 265.5 101t105.5 260v651h88v-1071h-88z" />
    <glyph glyph-name="Uring" unicode="&#x16e;" horiz-adv-x="1397" 
d="M504 1672q0 77 58 132.5t136 55.5t134.5 -55t56.5 -134q0 -78 -56.5 -132t-133.5 -54q-78 0 -136.5 55t-58.5 132zM698 1536q55 0 93 40t38 98q0 56 -37 95t-93 39q-57 0 -96 -40t-39 -95q0 -56 39.5 -96.5t94.5 -40.5zM164 1464h96v-934q0 -222 109.5 -341t335.5 -119
q229 0 329.5 123t100.5 362v909h96v-919q0 -267 -133.5 -411t-395.5 -144q-258 0 -398 138.5t-140 393.5v942z" />
    <glyph glyph-name="uring" unicode="&#x16f;" horiz-adv-x="1176" 
d="M395 1403q0 77 57 132.5t137 55.5q78 0 134.5 -55.5t56.5 -133.5t-57.5 -133t-134.5 -55q-76 0 -134.5 55.5t-58.5 133.5zM588 1266q55 0 93.5 40t38.5 97q0 56 -38 95.5t-94 39.5t-94.5 -40t-38.5 -97q0 -56 38.5 -95.5t94.5 -39.5zM924 0v225q-45 -114 -153 -177.5
t-236 -63.5q-381 0 -381 409v678h88v-672q0 -340 311 -340q159 0 265 101t106 260v651h88v-1071h-88z" />
    <glyph glyph-name="Uhungarumlaut" unicode="&#x170;" horiz-adv-x="1397" 
d="M530 1577l101 250h94l-125 -250h-70zM782 1577l101 250h94l-127 -250h-68zM164 1464h96v-934q0 -222 109.5 -341t335.5 -119q229 0 329.5 123t100.5 362v909h96v-919q0 -267 -133.5 -411t-395.5 -144q-258 0 -398 138.5t-140 393.5v942z" />
    <glyph glyph-name="uhungarumlaut" unicode="&#x171;" horiz-adv-x="1176" 
d="M682 1227l111 303h92l-135 -303h-68zM432 1227l113 303h90l-135 -303h-68zM924 0v225q-45 -114 -153 -177.5t-236 -63.5q-381 0 -381 409v678h88v-672q0 -340 311 -340q160 0 265.5 101t105.5 260v651h88v-1071h-88z" />
    <glyph glyph-name="Uogonek" unicode="&#x172;" horiz-adv-x="1397" 
d="M758 -10h-70q-247 0 -385.5 140.5t-138.5 387.5v946h96v-934q0 -222 109.5 -341t335.5 -119q229 0 329.5 123t100.5 362v909h96v-923q0 -379 -281 -508q-41 -19 -67.5 -32t-67.5 -38.5t-65.5 -49t-43 -57t-18.5 -68.5q0 -48 30.5 -71.5t83.5 -23.5q48 0 95 18v-63
q-46 -21 -111 -21q-76 0 -130 37.5t-54 110.5q0 67 45 123.5t111 91.5z" />
    <glyph glyph-name="uogonek" unicode="&#x173;" horiz-adv-x="1176" 
d="M924 8v217q-44 -113 -153 -177t-236 -64q-381 0 -381 409v678h88v-672q0 -340 311 -340q160 0 265.5 101t105.5 260v651h88v-1067q-162 -104 -162 -214q0 -50 31.5 -74.5t84.5 -24.5q48 0 95 18v-61q-46 -21 -111 -21q-75 0 -128.5 38.5t-53.5 111.5q0 69 49 129t119 102
h-12z" />
    <glyph glyph-name="Wcircumflex" unicode="&#x174;" horiz-adv-x="1944" 
d="M694 1577l230 250h84l225 -250h-74l-194 180l-197 -180h-74zM463 0l-397 1464h98l358 -1327l410 1327h74l399 -1331l383 1331h90l-422 -1464h-102l-387 1298l-404 -1298h-100z" />
    <glyph glyph-name="wcircumflex" unicode="&#x175;" horiz-adv-x="1624" 
d="M539 1227l229 268h80l225 -268h-74l-192 198l-195 -198h-73zM397 0l-336 1071h97l299 -962l313 962h76l305 -962l324 962h88l-359 -1071h-102l-297 930l-305 -930h-103z" />
    <glyph glyph-name="Ycircumflex" unicode="&#x176;" horiz-adv-x="1139" 
d="M311 1577l230 250h84l225 -250h-74l-194 180l-197 -180h-74zM535 0v645l-490 819h111l432 -735l405 735h101l-461 -819v-645h-98z" />
    <glyph glyph-name="ycircumflex" unicode="&#x177;" horiz-adv-x="1012" 
d="M252 1227l227 268h82l225 -268h-73l-193 198l-194 -198h-74zM260 -399l199 483l-406 987h97l358 -887l358 887h92l-608 -1470h-90z" />
    <glyph glyph-name="Ydieresis" unicode="&#x178;" horiz-adv-x="1139" 
d="M753 1610q-25 0 -43 18t-18 43q0 26 17 43t43 17t44.5 -17.5t18.5 -42.5t-18.5 -43t-43.5 -18zM346 1671q0 25 18.5 42.5t43.5 17.5t43 -17.5t18 -42.5t-18 -43t-43 -18q-26 0 -44 18t-18 43zM535 0v645l-490 819h111l432 -735l405 735h101l-461 -819v-645h-98z" />
    <glyph glyph-name="Zacute" unicode="&#x179;" horiz-adv-x="1202" 
d="M565 1579l140 250h102l-168 -250h-74zM55 0v41l942 1341h-868v82h997v-40l-936 -1342h924v-82h-1059z" />
    <glyph glyph-name="zacute" unicode="&#x17a;" horiz-adv-x="969" 
d="M453 1227l143 311h102l-176 -311h-69zM53 0v39l729 956h-669v76h796v-40l-725 -955h711v-76h-842z" />
    <glyph glyph-name="Zdotaccent" unicode="&#x17b;" horiz-adv-x="1202" 
d="M617 1608q-26 0 -45 18.5t-19 44.5t18.5 44t44.5 18t45 -18.5t19 -44.5t-18.5 -44t-44.5 -18zM55 0v41l942 1341h-868v82h997v-40l-936 -1342h924v-82h-1059z" />
    <glyph glyph-name="zdotaccent" unicode="&#x17c;" horiz-adv-x="969" 
d="M505 1296q-26 0 -44.5 19t-18.5 45t18 43.5t44 17.5t44.5 -17.5t18.5 -43.5t-18 -45t-44 -19zM53 0v39l729 956h-669v76h796v-40l-725 -955h711v-76h-842z" />
    <glyph glyph-name="Zcaron" unicode="&#x17d;" horiz-adv-x="1202" 
d="M571 1577l-227 250h74l196 -180l201 180h72l-232 -250h-84zM55 0v39l946 1345h-872v80h997v-40l-942 -1344h928v-80h-1057z" />
    <glyph glyph-name="zcaron" unicode="&#x17e;" horiz-adv-x="969" 
d="M461 1251l-225 269h73l195 -199l194 199h74l-229 -269h-82zM53 0v39l729 956h-669v76h796v-40l-725 -955h711v-76h-842z" />
    <glyph glyph-name="longs" unicode="&#x17f;" horiz-adv-x="665" 
d="M225 0v999h-174v72h174v159q-1 171 73 251.5t229 80.5q82 0 138 -19l-28 -69q-51 12 -102 12q-218 0 -218 -239v-1247h-92z" />
    <glyph glyph-name="florin" unicode="&#x192;" horiz-adv-x="798" 
d="M80 -375l168 1116h-177v74h187l53 342q24 154 101 238t223 84q71 0 147 -23v-74q-63 23 -133 23q-117 0 -174.5 -66t-75.5 -186l-51 -338h307v-74h-319l-168 -1116h-88z" />
    <glyph glyph-name="uni01F4" unicode="&#x1f4;" horiz-adv-x="1544" 
d="M687 1577l139 250h102l-168 -250h-73zM893 627v80h545v-422q-107 -160 -264.5 -229.5t-364.5 -69.5q-217 0 -378 95t-244 261.5t-83 382.5q0 154 49.5 291t139 240t224 163t294.5 60q203 0 358.5 -97t216.5 -288l-79 -35q-50 164 -188 252t-316 88q-136 0 -250.5 -53.5
t-189.5 -144t-116.5 -210t-41.5 -252.5q0 -146 37.5 -267.5t111 -212.5t191 -142t269.5 -51q164 0 307 60t225 187v314h-453z" />
    <glyph glyph-name="uni01F5" unicode="&#x1f5;" horiz-adv-x="1262" 
d="M508 1227l143 303h104l-176 -303h-71zM113 -115l73 33q30 -85 98 -142t148 -80.5t171 -23.5q192 0 298.5 107t106.5 297v240q-49 -126 -172.5 -197.5t-271.5 -71.5q-212 0 -346 143.5t-134 364.5q0 147 62 267.5t180.5 192.5t272.5 72q141 0 248.5 -63t160.5 -193v240h90
v-999q0 -227 -131 -351t-361 -124q-80 0 -153.5 15.5t-141.5 48.5t-120 90t-78 134zM581 122q191 0 310 123t119 311q0 127 -45.5 229t-139.5 164.5t-223 62.5q-190 0 -308 -126.5t-118 -317.5q0 -197 107.5 -321.5t297.5 -124.5z" />
    <glyph glyph-name="Aringacute" unicode="&#x1fa;" horiz-adv-x="1333" 
d="M610 1968l140 250h102l-170 -250h-72zM465 1722q0 77 57 133t136 56q78 0 135 -56t57 -134t-57 -133.5t-134 -55.5t-135.5 56.5t-58.5 133.5zM658 1585q54 0 93.5 40.5t39.5 97.5q0 56 -38 95.5t-95 39.5t-95.5 -40t-38.5 -95q0 -56 39.5 -97t94.5 -41zM66 0l534 1462
h129l541 -1462h-101l-151 414h-709l-151 -414h-92zM336 492h655l-329 890z" />
    <glyph glyph-name="aringacute" unicode="&#x1fb;" horiz-adv-x="1079" 
d="M508 1700l138 250h104l-171 -250h-71zM360 1409q0 77 57.5 131.5t136.5 54.5t135 -54.5t56 -133.5q0 -78 -56.5 -132t-133.5 -54q-78 0 -136.5 55t-58.5 133zM553 1272q56 0 94 39.5t38 96.5t-37.5 96.5t-94.5 39.5t-95 -40.5t-38 -96.5t38.5 -95.5t94.5 -39.5zM838 0
v178q-58 -98 -158.5 -146t-224.5 -48q-73 0 -136.5 17t-114.5 52t-80.5 95t-29.5 139q0 82 33 142.5t82.5 94.5t122 54.5t136 26.5t140.5 6h36l192 -3q0 42 -0.5 67.5t-2.5 62t-6 59.5t-11.5 52.5t-18.5 48t-26.5 39.5t-37 33t-48.5 23t-61.5 16t-76.5 5q-123 0 -208.5 -61
t-121.5 -177l-76 25q42 143 151 214.5t266 71.5q181 0 273.5 -95.5t92.5 -280.5v-711h-86zM836 543h-257q-61 0 -110 -4.5t-105 -20.5t-94 -42.5t-63 -74.5t-25 -112t23 -110.5t64.5 -73t91.5 -38.5t110 -12t123 18t117.5 51t89.5 87t35 119v213z" />
    <glyph glyph-name="AEacute" unicode="&#x1fc;" horiz-adv-x="1985" 
d="M1196 1577l139 250h103l-168 -250h-74zM57 0l731 1464h1063v-78h-790v-593h647v-78h-647v-637h827v-78h-921v457h-584l-227 -457h-99zM418 532h549v854h-125z" />
    <glyph glyph-name="aeacute" unicode="&#x1fd;" horiz-adv-x="1866" 
d="M893 1227l143 311h102l-175 -311h-70zM211 778l-74 31q42 138 153.5 208t263.5 70q144 0 237.5 -65.5t115.5 -204.5q55 129 166 199.5t258 70.5q110 0 196.5 -40t141 -111t83 -164.5t28.5 -202.5v-34h-850q0 -102 23 -186.5t70.5 -151t129 -103.5t189.5 -37
q271 0 360 240l70 -31q-55 -143 -166 -212.5t-266 -69.5q-162 0 -278 75.5t-171 221.5q-36 -142 -157 -219.5t-280 -77.5q-72 0 -134 17t-114 51.5t-82 94.5t-30 140q0 61 18.5 110t48 82t74 57t89.5 37.5t101 21t102 9.5t99 1l216 -3q0 45 -0.5 75t-3.5 69t-8.5 65
t-15.5 57t-24.5 50.5t-36.5 39.5t-49.5 31t-65 18t-82.5 7q-276 0 -345 -236zM930 602h762q-4 184 -95.5 299t-266.5 115q-120 0 -210.5 -57.5t-136.5 -149.5t-53 -207zM842 535h-264q-51 0 -91 -3t-89 -11t-84.5 -25t-67 -43.5t-48 -68.5t-16.5 -97q0 -64 23 -110.5
t65 -72.5t92 -37.5t111 -11.5q95 0 177.5 35.5t137 108.5t54.5 170v166z" />
    <glyph glyph-name="Oslashacute" unicode="&#x1fe;" horiz-adv-x="1636" 
d="M766 1577l138 250h103l-167 -250h-74zM92 8l195 213q-89 104 -136 235t-47 274q0 152 52 289t144 238.5t225.5 161.5t287.5 60q270 0 462 -166l178 198l50 -49l-177 -196q102 -104 154 -239.5t52 -287.5t-51.5 -289.5t-143 -240t-225 -163t-289.5 -60.5q-138 0 -264 47.5
t-223 138.5l-193 -215zM348 289l870 964q-166 148 -403 148q-181 0 -322 -90.5t-215.5 -241t-74.5 -330.5q0 -272 145 -450zM1267 1204l-874 -968q175 -170 430 -170q137 0 252.5 53.5t193 144t121 211t43.5 254.5q0 290 -166 475z" />
    <glyph glyph-name="oslashacute" unicode="&#x1ff;" horiz-adv-x="1202" 
d="M550 1227l143 311h103l-174 -311h-72zM74 2l143 156q-131 150 -131 373q0 150 62 275.5t181 202t271 76.5q196 0 336 -120l129 143l49 -41l-131 -149q135 -145 135 -377q0 -114 -36 -215.5t-101 -177t-162.5 -120t-213.5 -44.5q-203 0 -343 129l-138 -154zM274 221
l609 682q-112 109 -284 109q-189 0 -305 -137t-116 -333t96 -321zM926 856l-611 -684q123 -115 295 -115q126 0 222 65.5t145 171.5t49 233q0 206 -100 329z" />
    <glyph glyph-name="uni0218" unicode="&#x218;" horiz-adv-x="1214" 
d="M80 369l76 32q104 -335 466 -335q76 0 144.5 20t124 58.5t88.5 101.5t33 143q0 54 -13 98.5t-33 75.5t-54 56t-66.5 40.5t-80.5 29t-85.5 21t-91.5 17.5h-1q-49 9 -74.5 14t-71 15.5t-70 20t-61.5 26t-58 34.5t-45.5 45t-37 57.5t-21.5 71t-9 88.5q0 94 39 168.5t105 120
t147.5 68.5t172.5 23q169 0 288.5 -80.5t167.5 -239.5l-74 -31q-79 271 -386 271q-74 0 -137 -16t-115 -49.5t-82 -92.5t-30 -138q0 -48 11 -86t31.5 -66t48 -49t62.5 -35.5t73.5 -25.5t81 -19t85.5 -16h2q66 -11 101 -18t93.5 -23.5t91.5 -34.5t75 -49.5t64 -70.5
t37.5 -95.5t15.5 -125.5q0 -97 -41.5 -175.5t-111 -127.5t-155 -74.5t-178.5 -25.5q-208 0 -342.5 93.5t-199.5 289.5zM456 -379l116 291l86 -21l-143 -294z" />
    <glyph glyph-name="uni0219" unicode="&#x219;" horiz-adv-x="950" 
d="M74 283l73 32q30 -129 118.5 -196.5t219.5 -67.5q79 0 142 22.5t106 77t43 135.5q0 32 -6 59t-21 47.5t-29 36t-40.5 28.5t-45.5 21t-54 16.5t-55.5 12.5t-59.5 11q-48 9 -74.5 14.5t-69.5 17.5t-67.5 24.5t-55 34.5t-46.5 48.5t-27.5 64.5t-11.5 85q0 92 56 157t137 93
t174 28q129 0 222 -61t132 -186l-68 -31q-65 209 -291 209q-53 0 -100.5 -12t-88.5 -36.5t-65 -67.5t-24 -99q0 -33 9.5 -60t22 -45.5t38.5 -34.5t46 -25.5t58 -19t60 -14t66 -12.5q71 -13 108.5 -21.5t95 -30.5t87 -49.5t53 -77t23.5 -114.5q0 -81 -31.5 -143t-85.5 -98.5
t-119.5 -55t-140.5 -18.5q-155 0 -268 77t-145 224zM336 -379l117 291l86 -21l-144 -294z" />
    <glyph glyph-name="uni021A" unicode="&#x21a;" horiz-adv-x="1155" 
d="M530 0v1386h-467v78h1029v-78h-467v-1386h-95zM438 -379l117 291l84 -21l-143 -294z" />
    <glyph glyph-name="uni021B" unicode="&#x21b;" horiz-adv-x="684" 
d="M602 84v-76q-62 -22 -135 -22q-129 0 -194.5 72t-65.5 200v741h-160v72h160v242l90 41v-283h293v-72h-293v-735q0 -92 41.5 -147.5t130.5 -55.5q76 0 133 23zM233 -379l117 291l86 -21l-143 -294z" />
    <glyph glyph-name="uni0237" unicode="&#x237;" horiz-adv-x="426" 
d="M12 -381v74q88 7 122 53.5t34 138.5v1186h88v-1182q0 -135 -56 -200.5t-188 -69.5z" />
    <glyph glyph-name="circumflex" unicode="&#x2c6;" horiz-adv-x="823" 
d="M143 1227l230 268h82l225 -268h-76l-190 198l-197 -198h-74z" />
    <glyph glyph-name="caron" unicode="&#x2c7;" horiz-adv-x="823" 
d="M369 1251l-226 269h76l193 -199l194 199h74l-229 -269h-82z" />
    <glyph glyph-name="breve" unicode="&#x2d8;" horiz-adv-x="823" 
d="M166 1493h72q9 -76 53.5 -122t117.5 -46q75 0 124 47t57 121h69q-6 -106 -74.5 -173t-175.5 -67q-105 0 -170 65.5t-73 174.5z" />
    <glyph glyph-name="dotaccent" unicode="&#x2d9;" horiz-adv-x="823" 
d="M348 1360q0 27 18 44t46 17q27 0 46 -17t19 -44t-19 -45.5t-46 -18.5t-45.5 18.5t-18.5 45.5z" />
    <glyph glyph-name="ring" unicode="&#x2da;" horiz-adv-x="823" 
d="M219 1421q0 77 57 132t136 55t136.5 -55t57.5 -133t-58.5 -133.5t-135.5 -55.5q-76 0 -134.5 56t-58.5 134zM412 1282q56 0 95 39.5t39 97.5q0 57 -38.5 96t-95.5 39q-58 0 -95.5 -39t-37.5 -95q0 -58 38.5 -98t94.5 -40z" />
    <glyph glyph-name="ogonek" unicode="&#x2db;" horiz-adv-x="823" 
d="M549 -291v-61q-46 -21 -104 -21q-83 0 -136 36.5t-53 110.5q0 128 164 226h80q-160 -106 -160 -209q0 -49 32.5 -74.5t84.5 -25.5q45 0 92 18z" />
    <glyph glyph-name="tilde" unicode="&#x2dc;" horiz-adv-x="823" 
d="M184 1255h-65q9 82 48 136.5t111 54.5q28 0 57.5 -10.5t47 -21t47.5 -31.5q82 -56 121 -56q45 0 70 35.5t32 83.5h66q-9 -81 -48 -136t-111 -55q-39 0 -73.5 15t-81.5 45q-87 55 -121 55q-43 0 -68 -34t-32 -81z" />
    <glyph glyph-name="hungarumlaut" unicode="&#x2dd;" horiz-adv-x="823" 
d="M242 1227l112 303h92l-135 -303h-69zM492 1227l112 303h90l-133 -303h-69z" />
    <glyph glyph-name="uni0326" unicode="&#x326;" horiz-adv-x="823" 
d="M295 -379l117 291l88 -18l-144 -297z" />
    <glyph glyph-name="uni0394" unicode="&#x394;" horiz-adv-x="1352" 
d="M80 0v47l549 1417h110l537 -1417v-47h-1196zM180 76h1002l-500 1308z" />
    <glyph glyph-name="Sigma" unicode="&#x3a3;" horiz-adv-x="1206" 
d="M123 0v57l493 683l-487 638v86h920v-80h-814l492 -642l-483 -662h841v-80h-962z" />
    <glyph glyph-name="uni03A9" unicode="&#x3a9;" horiz-adv-x="1657" 
d="M117 0v74h379q-174 94 -278.5 277.5t-104.5 384.5q0 155 52.5 292t145 236.5t226 157t288.5 57.5q153 0 287 -56t228.5 -153.5t149 -232.5t54.5 -289q0 -210 -98.5 -391t-279.5 -283h374v-74h-552v55q219 105 338.5 277.5t119.5 407.5q0 133 -44.5 254t-123 212t-195 145
t-251.5 54q-134 0 -250.5 -52.5t-197.5 -141.5t-127 -208t-46 -250q0 -242 117.5 -412.5t342.5 -285.5v-55h-554z" />
    <glyph glyph-name="lambda" unicode="&#x3bb;" horiz-adv-x="1152" 
d="M55 0l416 1067l-117 324q-38 106 -132 106q-38 0 -114 -22v92q65 22 130 22q59 0 100.5 -23.5t63.5 -57.5t42 -89l447 -1222q18 -48 50 -80.5t79 -32.5q28 0 67 12v-92q-48 -12 -83 -12q-142 0 -201 164l-283 796l-364 -952h-101z" />
    <glyph glyph-name="uni03BC" unicode="&#x3bc;" horiz-adv-x="1113" 
d="M149 -373v1444h91v-690q0 -303 301 -303q148 0 237.5 95.5t89.5 246.5v651h91v-1071h-91v205q-45 -106 -136.5 -161.5t-210.5 -55.5q-210 0 -281 157v-518h-91z" />
    <glyph glyph-name="pi" unicode="&#x3c0;" horiz-adv-x="1210" 
d="M213 0v997h-158v74h1102v-74h-158v-997h-90v997h-606v-997h-90z" />
    <glyph glyph-name="uni0401" unicode="&#x401;" horiz-adv-x="1164" 
d="M369 1684q0 29 21 49t49 20t47.5 -20t19.5 -49q0 -28 -19.5 -48.5t-47.5 -20.5t-49 20.5t-21 48.5zM731 1684q0 29 21.5 49t49.5 20t47.5 -20t19.5 -49q0 -28 -19.5 -48.5t-47.5 -20.5t-49.5 20.5t-21.5 48.5zM195 0v1464h842v-86h-739v-582h599v-87h-599v-623h776v-86
h-879z" />
    <glyph glyph-name="uni0402" unicode="&#x402;" horiz-adv-x="1571" 
d="M523 0v1379h-461v85h1055v-85h-490v-659l26 23q28 26 52.5 44.5t71 45.5t109.5 41.5t137 14.5q211 0 325.5 -122t114.5 -341q0 -200 -95 -319.5t-270 -119.5q-103 0 -182 41v88q91 -44 177 -44q127 0 197 91t70 260q0 186 -88 284.5t-260 98.5q-76 0 -139.5 -18t-108 -50
t-67.5 -54.5t-47 -52.5l-23 -26v-605h-104z" />
    <glyph glyph-name="uni0403" unicode="&#x403;" horiz-adv-x="1079" 
d="M559 1579l135 250h121l-176 -250h-80zM191 0v1464h810v-88h-707v-1376h-103z" />
    <glyph glyph-name="uni0404" unicode="&#x404;" horiz-adv-x="1491" 
d="M217 789h800v-86h-802q2 -183 68 -324.5t197.5 -224.5t311.5 -83q186 0 331.5 108t209.5 288l85 -37q-75 -208 -240 -326.5t-398 -118.5q-157 0 -285 56.5t-212.5 156t-130 234t-45.5 291.5v16q0 150 47.5 284t133.5 235.5t216 161t286 59.5q225 0 377.5 -98.5
t232.5 -312.5l-91 -40q-71 184 -195.5 274t-322.5 90q-129 0 -236 -48t-179 -131t-113 -192t-46 -232z" />
    <glyph glyph-name="uni0405" unicode="&#x405;" horiz-adv-x="1229" 
d="M67 375l96 41q107 -345 470 -345q102 0 187.5 33.5t142.5 108t57 178.5q0 53 -11.5 96.5t-29.5 74t-49 55t-61.5 40t-75.5 28t-82 19.5t-90 14q-240 34 -357.5 121t-117.5 253q0 97 39 172.5t105 121.5t148.5 69.5t175.5 23.5q338 0 480 -324l-89 -39q-115 277 -396 277
q-173 0 -268 -75.5t-95 -215.5q0 -132 93 -197.5t298 -95.5q64 -9 111.5 -18.5t101 -25.5t91 -36t74 -51t58.5 -69.5t35.5 -92.5t13.5 -119q0 -98 -41.5 -178t-110.5 -130t-156 -77t-181 -27q-424 0 -566 390z" />
    <glyph glyph-name="uni0406" unicode="&#x406;" horiz-adv-x="506" 
d="M205 0v1464h103v-1464h-103z" />
    <glyph glyph-name="uni0407" unicode="&#x407;" horiz-adv-x="506" 
d="M370 1684q0 29 21 49t49 20t47.5 -20t19.5 -49q0 -28 -19.5 -48.5t-47.5 -20.5t-49 20.5t-21 48.5zM7 1684q0 29 21 49t49 20q29 0 48.5 -20t19.5 -49q0 -28 -20 -48.5t-48 -20.5t-49 20.5t-21 48.5zM205 0v1464h103v-1464h-103z" />
    <glyph glyph-name="uni0408" unicode="&#x408;" horiz-adv-x="818" 
d="M78 28v88q102 -44 203 -44q268 0 268 296v1096h105v-1099q0 -188 -98 -283t-275 -95q-119 0 -203 41z" />
    <glyph glyph-name="uni0409" unicode="&#x409;" horiz-adv-x="2049" 
d="M48 4v100q43 -15 83 -15q37 0 68 18.5t51.5 46.5t36.5 69t24.5 79t14.5 84t8 76t3 63l32 939h819v-619h283q107 0 194 -22t156.5 -68.5t107.5 -126.5t38 -188q0 -202 -123.5 -320t-320.5 -119l-438 -1v1376h-616l-35 -955q-16 -436 -299 -436q-64 6 -87 19zM1188 84h316
q172 0 265 93t93 262q0 159 -100.5 239.5t-287.5 80.5h-286v-675z" />
    <glyph glyph-name="uni040A" unicode="&#x40a;" horiz-adv-x="2107" 
d="M191 0v1464h103v-686h850v686h103v-619h281q228 0 362.5 -104t134.5 -306v-8q0 -205 -128.5 -316t-338.5 -111h-414v693h-850v-693h-103zM1247 84h316q174 0 266 89t92 254v8q0 156 -100.5 241t-286.5 85h-287v-677z" />
    <glyph glyph-name="uni040B" unicode="&#x40b;" horiz-adv-x="1602" 
d="M523 0v1378h-461v86h1057v-86h-492v-658q61 83 164.5 126t214.5 43q231 0 335 -124.5t104 -392.5v-372h-103v380q0 224 -79 324.5t-265 100.5q-115 0 -215.5 -49.5t-155.5 -144.5v-611h-104z" />
    <glyph glyph-name="uni040C" unicode="&#x40c;" horiz-adv-x="1225" 
d="M567 1579l135 250h121l-176 -250h-80zM195 0v1464h103v-714l718 715h118l-719 -712l756 -753h-127l-746 735v-735h-103z" />
    <glyph glyph-name="uni040D" unicode="&#x40d;" horiz-adv-x="1491" 
d="M728 1579l-177 250h123l133 -250h-79zM191 0v1464h104v-1320l903 1320h102v-1464h-104v1320l-903 -1320h-102z" />
    <glyph glyph-name="uni040E" unicode="&#x40e;" horiz-adv-x="1181" 
d="M363 1828h88q5 -62 33 -105.5t76 -61.5q25 -11 58 -11q74 0 122 49t56 129h87q-9 -107 -82.5 -177.5t-177.5 -70.5q-106 0 -181 72t-79 176zM185 4l1 94q16 -6 42 -10q15 -6 48 -6q91 0 155 55.5t120 176.5l-496 1150h110l439 -1029l442 1029h97l-483 -1123
q-26 -61 -47 -103t-56 -94t-71 -83.5t-88.5 -53.5t-112.5 -22q-63 0 -100 19z" />
    <glyph glyph-name="uni040F" unicode="&#x40f;" horiz-adv-x="1450" 
d="M191 0v1464h104v-1376h860v1376h104v-1464h-486l-4 -266h-86l-4 266h-488z" />
    <glyph glyph-name="uni0410" unicode="&#x410;" horiz-adv-x="1337" 
d="M72 0l533 1464h136l534 -1464h-103l-168 454h-671l-163 -454h-98zM364 538h611l-306 842z" />
    <glyph glyph-name="uni0411" unicode="&#x411;" horiz-adv-x="1235" 
d="M191 0v1464h823v-85h-722v-545h342q232 0 358 -104.5t126 -302.5v-8q0 -198 -120.5 -308.5t-332.5 -110.5h-474zM292 83h370q173 0 263.5 87.5t90.5 248.5v8q0 156 -100 240t-289 84h-335v-668z" />
    <glyph glyph-name="uni0412" unicode="&#x412;" horiz-adv-x="1235" 
d="M195 0v1464h414q211 0 325 -93.5t114 -275.5v-8q0 -250 -255 -319q167 -29 248 -118t81 -240v-9q0 -195 -118 -298t-334 -103h-475zM296 802h315q336 0 336 287v8q0 284 -341 284h-310v-579zM296 83h372q352 0 352 319v8q0 156 -97 232.5t-296 76.5h-331v-636z" />
    <glyph glyph-name="uni0413" unicode="&#x413;" horiz-adv-x="1079" 
d="M191 0v1464h810v-88h-707v-1376h-103z" />
    <glyph glyph-name="uni0414" unicode="&#x414;" horiz-adv-x="1428" 
d="M20 -266v354h103q71 27 108 139.5t60 341.5q42 473 50 895h856v-1376h186v-354h-85l-7 266h-1175l-9 -266h-87zM256 88h840v1288h-662q-18 -494 -48 -820q-34 -378 -130 -468z" />
    <glyph glyph-name="uni0415" unicode="&#x415;" horiz-adv-x="1164" 
d="M195 0v1464h842v-86h-739v-582h599v-87h-599v-623h776v-86h-879z" />
    <glyph glyph-name="uni0416" unicode="&#x416;" horiz-adv-x="1783" 
d="M61 0l674 744l-648 720h121l633 -714v714h101v-714l632 714h117l-642 -716l676 -748h-124l-659 735v-735h-101v735l-660 -735h-120z" />
    <glyph glyph-name="uni0417" unicode="&#x417;" horiz-adv-x="1205" 
d="M63 374l95 39q20 -72 54 -131.5t85 -108t125.5 -76t166.5 -27.5q189 0 292 90t103 253q0 155 -97 230t-297 75h-192v83h192q159 0 244.5 79t85.5 223q0 142 -83 216.5t-239 74.5h-3q-297 -1 -382 -276l-91 39q116 322 468 322q197 0 315 -99t118 -274q0 -134 -71 -223
t-198 -118q165 -25 249.5 -114t84.5 -240q0 -104 -40 -187t-109 -134t-157.5 -78t-188.5 -27q-108 0 -197 30t-152.5 84.5t-108 122.5t-72.5 152z" />
    <glyph glyph-name="uni0418" unicode="&#x418;" horiz-adv-x="1491" 
d="M191 0v1464h104v-1320l903 1320h102v-1464h-104v1320l-903 -1320h-102z" />
    <glyph glyph-name="uni0419" unicode="&#x419;" horiz-adv-x="1491" 
d="M501 1827h89q6 -80 51.5 -128.5t116.5 -48.5q73 0 121 49t56 128h87q-10 -107 -82.5 -177t-177.5 -70q-106 0 -181.5 72t-79.5 175zM191 0v1464h104v-1320l903 1320h102v-1464h-104v1320l-903 -1320h-102z" />
    <glyph glyph-name="uni041A" unicode="&#x41a;" horiz-adv-x="1225" 
d="M195 0v1464h103v-714l718 714h118l-719 -711l756 -753h-127l-746 735v-735h-103z" />
    <glyph glyph-name="uni041B" unicode="&#x41b;" horiz-adv-x="1399" 
d="M48 4v100q27 -15 74 -15q26 0 46 5q78 16 119 119t48 312l34 939h839v-1464h-103v1376h-636l-34 -863q-19 -528 -300 -528q-18 0 -47 5t-40 14z" />
    <glyph glyph-name="uni041C" unicode="&#x41c;" horiz-adv-x="1750" 
d="M195 0v1464h152l528 -1276l531 1276h149v-1464h-105v1335l-561 -1335h-35l-560 1335v-1335h-99z" />
    <glyph glyph-name="uni041D" unicode="&#x41d;" horiz-adv-x="1470" 
d="M195 0v1464h104v-686h880v686h105v-1464h-105v691h-880v-691h-104z" />
    <glyph glyph-name="uni041E" unicode="&#x41e;" horiz-adv-x="1644" 
d="M828 -15q-204 0 -369 98.5t-257 267t-92 372.5v14q0 203 91 372.5t256.5 269.5t371.5 100q153 0 286.5 -58t226.5 -156.5t146 -234.5t53 -288v-14q0 -151 -52.5 -287t-145 -236.5t-226.5 -160t-289 -59.5zM834 72q137 0 251 52.5t190 142t117.5 209t41.5 253.5v14
q0 134 -43 252t-120 206t-192.5 139t-253.5 51t-253 -51t-192 -139.5t-119.5 -207.5t-42.5 -255v-14q0 -178 75 -326t217 -237t324 -89z" />
    <glyph glyph-name="uni041F" unicode="&#x41f;" horiz-adv-x="1450" 
d="M191 0v1464h1068v-1464h-104v1376h-860v-1376h-104z" />
    <glyph glyph-name="uni0420" unicode="&#x420;" horiz-adv-x="1163" 
d="M195 -1v1465h386q231 0 363 -101t132 -307v-8q0 -111 -37 -193t-105 -130t-155 -71t-195 -23h-285v-632h-104zM299 715h289q191 0 288 84t97 249v8q0 323 -387 323h-287v-664z" />
    <glyph glyph-name="uni0421" unicode="&#x421;" horiz-adv-x="1491" 
d="M1333 469l88 -38q-66 -200 -236.5 -323t-391.5 -123q-161 0 -291 56.5t-215.5 156t-131 234t-45.5 291.5v14q0 149 49 284t136 236.5t216.5 161.5t281.5 60q231 0 377.5 -100t230.5 -313l-91 -40q-134 365 -516 365q-167 0 -299.5 -87.5t-204.5 -236t-72 -328.5v-14
q0 -190 69 -337.5t201 -231.5t307 -84q190 0 336.5 112t201.5 285z" />
    <glyph glyph-name="uni0422" unicode="&#x422;" horiz-adv-x="1150" 
d="M527 0v1379h-461v85h1026v-85h-461v-1379h-104z" />
    <glyph glyph-name="uni0423" unicode="&#x423;" horiz-adv-x="1181" 
d="M185 4l1 93q38 -15 86 -15q94 0 158.5 55.5t120.5 176.5l-496 1150h110l439 -1029l442 1029h97l-484 -1123q-25 -58 -46.5 -100t-56.5 -93.5t-71.5 -83.5t-88.5 -54.5t-110 -22.5q-68 0 -101 17z" />
    <glyph glyph-name="uni0424" unicode="&#x424;" horiz-adv-x="1614" 
d="M755 0v183h-3q-140 0 -255.5 31t-207 94.5t-142.5 170.5t-51 250q0 116 35 210t95 158t144.5 107t180 63t204.5 21v176h103v-176q142 -1 258.5 -32.5t208 -96t142.5 -173.5t51 -256q0 -140 -53 -247.5t-145.5 -171.5t-209 -96t-252.5 -32v-183h-103zM858 1207v-942
q125 0 223 26.5t174 82t116.5 149.5t40.5 222q0 123 -43 214t-120.5 144t-174.5 78t-216 26zM755 262v943q-554 -5 -554 -481q0 -122 43 -213t120.5 -144t174.5 -78.5t216 -26.5z" />
    <glyph glyph-name="uni0425" unicode="&#x425;" horiz-adv-x="1323" 
d="M99 0l510 759l-467 705h115l418 -628l416 628h108l-471 -707l504 -757h-116l-454 682l-458 -682h-105z" />
    <glyph glyph-name="uni0426" unicode="&#x426;" horiz-adv-x="1489" 
d="M191 0v1464h104v-1376h860v1376h104v-1376h187v-354h-87l-7 266h-1161z" />
    <glyph glyph-name="uni0427" unicode="&#x427;" horiz-adv-x="1326" 
d="M1033 0v760q-66 -84 -193 -126.5t-256 -42.5q-220 0 -335.5 130t-115.5 382v361h104v-368q0 -423 365 -423q117 0 218 40q86 33 140.5 83.5t72.5 85.5v582h104v-1464h-104z" />
    <glyph glyph-name="uni0428" unicode="&#x428;" horiz-adv-x="2004" 
d="M191 0v1464h103v-1376h656v1376h103v-1376h656v1376h104v-1464h-1622z" />
    <glyph glyph-name="uni0429" unicode="&#x429;" horiz-adv-x="2043" 
d="M191 0v1464h103v-1376h656v1376h103v-1376h656v1376h104v-1376h187v-354h-86l-9 266h-1714z" />
    <glyph glyph-name="uni042A" unicode="&#x42a;" horiz-adv-x="1456" 
d="M472 0v1378h-410v86h514v-619h302q226 0 361 -105t135 -306v-8q0 -136 -61.5 -234t-166 -145t-239.5 -47h-435zM576 84h338q172 0 264.5 89t92.5 253v8q0 156 -100.5 241.5t-286.5 85.5h-308v-677z" />
    <glyph glyph-name="uni042B" unicode="&#x42b;" horiz-adv-x="1593" 
d="M191 0v1464h104v-619h286q227 0 362 -105.5t135 -306.5v-8q0 -202 -130 -313.5t-337 -111.5h-420zM1299 0v1464h103v-1464h-103zM295 85h322q173 0 264.5 88.5t91.5 251.5v8q0 156 -99.5 241.5t-284.5 85.5h-294v-675z" />
    <glyph glyph-name="uni042C" unicode="&#x42c;" horiz-adv-x="1176" 
d="M191 0v1464h103v-619h304q226 0 360.5 -105.5t134.5 -306.5v-8q0 -202 -129.5 -313.5t-336.5 -111.5h-436zM294 85h339q172 0 264.5 88.5t92.5 251.5v8q0 156 -101 241.5t-287 85.5h-308v-675z" />
    <glyph glyph-name="uni042D" unicode="&#x42d;" horiz-adv-x="1483" 
d="M73 400l94 40q58 -176 195 -273t334 -97q162 0 293 85t204 229.5t77 319.5h-793v85h793q-14 274 -155 439t-397 165q-199 0 -343.5 -103t-203.5 -291l-92 40q78 217 244.5 328.5t389.5 111.5q129 0 237 -36.5t186 -102.5t132.5 -157.5t81 -201.5t26.5 -236v-16
q0 -119 -29 -230t-87 -204t-138.5 -162.5t-190 -108.5t-234.5 -39q-235 0 -392.5 106t-231.5 309z" />
    <glyph glyph-name="uni042E" unicode="&#x42e;" horiz-adv-x="2083" 
d="M191 0v1464h104v-686h294q9 196 96.5 355t245 252.5t358.5 93.5q126 0 236.5 -38.5t192.5 -107t140.5 -161t88.5 -203.5t30 -232q0 -153 -49 -290t-137 -239.5t-219 -162.5t-286 -60q-198 0 -356 94t-246.5 254.5t-94.5 357.5h-294v-691h-104zM1293 72q140 0 252 54.5
t182 147t106.5 210t36.5 248.5q0 137 -40 256.5t-113.5 210t-186.5 142.5t-252 52q-113 0 -209 -35t-164 -96t-116 -143.5t-71 -178.5t-23 -201q0 -185 69.5 -335t207 -241t321.5 -91z" />
    <glyph glyph-name="uni042F" unicode="&#x42f;" horiz-adv-x="1255" 
d="M57 -1l468 655q-175 28 -269 131t-94 269v8q0 199 126 300.5t341 101.5h435v-1465h-103v645h-261l-67 1l-456 -646h-120zM961 729v650h-336q-181 0 -270.5 -77.5t-89.5 -239.5v-8q0 -157 100.5 -241t286.5 -84h309z" />
    <glyph glyph-name="uni0430" unicode="&#x430;" horiz-adv-x="1082" 
d="M830 0v168q-123 -185 -373 -185q-168 0 -265 78.5t-97 223.5q0 166 130 247.5t369 81.5h236v97q0 154 -68.5 223.5t-210.5 69.5q-135 0 -216 -58t-126 -170l-86 37q66 147 166 210.5t263 63.5q376 0 376 -376v-711h-98zM830 537h-234q-199 0 -300.5 -58.5t-101.5 -190.5
q0 -109 69.5 -166.5t204.5 -57.5q88 0 169 30.5t137 96t56 151.5v195z" />
    <glyph glyph-name="uni0431" unicode="&#x431;" horiz-adv-x="1230" 
d="M190 766q53 142 178.5 225.5t289.5 83.5q150 0 261.5 -72.5t167 -192.5t55.5 -269v-12q0 -153 -63 -276.5t-182.5 -196.5t-275.5 -73q-161 0 -278.5 78t-176.5 211.5t-59 306.5v129q0 98 6 181.5t22.5 173t44 160.5t73.5 137t106.5 110.5t147 72t192.5 30.5l78 2
q212 6 285 37l6 -85q-98 -35 -288 -40l-74 -2q-91 -3 -164.5 -25t-126 -58t-92 -90t-63.5 -112t-39.5 -133.5t-22 -145t-9.5 -155.5h1zM628 67q192 0 303 130t111 332v9q0 128 -42.5 229t-132 162.5t-214.5 61.5h-2q-188 -1 -314.5 -128.5t-126.5 -324.5v-4
q0 -128 46.5 -232.5t143.5 -169.5t228 -65z" />
    <glyph glyph-name="uni0432" unicode="&#x432;" horiz-adv-x="1053" 
d="M170 0v1071h388q162 0 251.5 -68.5t89.5 -200.5v-7q0 -92 -48.5 -151t-142.5 -80q243 -42 243 -254v-7q0 -151 -91.5 -227t-268.5 -76h-421zM271 595h287q120 0 178 48.5t58 147.5v7q0 99 -59 146.5t-179 47.5h-285v-397zM271 79h312q264 0 264 221v6q0 210 -274 210
h-302v-437z" />
    <glyph glyph-name="uni0433" unicode="&#x433;" horiz-adv-x="907" 
d="M170 0v1071h683v-83h-584v-988h-99z" />
    <glyph glyph-name="uni0434" unicode="&#x434;" horiz-adv-x="1170" 
d="M31 -260v344h71q59 20 89.5 99t46.5 203q35 320 51 685h678v-987h153v-344h-80l-9 260h-911l-11 -260h-78zM231 84h639v903h-494q-20 -371 -31 -468l-11 -93q-31 -270 -103 -342z" />
    <glyph glyph-name="uni0435" unicode="&#x435;" horiz-adv-x="1135" 
d="M968 299l87 -37q-132 -279 -451 -279q-241 0 -377 145.5t-136 396.5v18q0 109 33.5 207t95 173.5t155.5 120t207 44.5q152 0 259.5 -69.5t158.5 -185t51 -264.5v-39h-857q3 -225 106.5 -344t301.5 -119q269 0 366 232zM197 614h751q-8 186 -103 288t-263 102
q-164 0 -270.5 -112.5t-114.5 -277.5z" />
    <glyph glyph-name="uni0436" unicode="&#x436;" horiz-adv-x="1385" 
d="M44 0l501 562l-466 509h108l458 -507v507h95v-507l457 507h111l-466 -509l500 -562h-115l-487 556v-556h-95v556l-487 -556h-114z" />
    <glyph glyph-name="uni0437" unicode="&#x437;" horiz-adv-x="985" 
d="M67 263l89 38q78 -237 330 -237q137 0 214.5 62.5t77.5 168.5v11q0 210 -272 210h-181v81h167q233 0 233 206v5q0 95 -62 146t-175 51q-116 0 -187.5 -55.5t-106.5 -168.5l-85 37q42 133 142 201.5t242 68.5q149 0 242.5 -72.5t93.5 -203.5v-6q0 -94 -51 -159t-141 -82
q115 -16 180 -82t65 -173v-11q0 -102 -57 -176t-142.5 -107.5t-186.5 -33.5q-165 0 -275.5 75t-153.5 206z" />
    <glyph glyph-name="uni0438" unicode="&#x438;" horiz-adv-x="1183" 
d="M170 0v1071h99v-927l654 927h98v-1071h-98v929l-654 -929h-99z" />
    <glyph glyph-name="uni0439" unicode="&#x439;" horiz-adv-x="1183" 
d="M333 1509h88q6 -79 52 -126.5t117 -47.5q72 0 120 48t56 126h87q-9 -107 -82.5 -178t-177.5 -71q-106 0 -181.5 72.5t-78.5 176.5zM170 0v1071h99v-927l654 927h98v-1071h-98v929l-654 -929h-99z" />
    <glyph glyph-name="uni043A" unicode="&#x43a;" horiz-adv-x="990" 
d="M169 0v1071h98v-505l530 505h119l-535 -507l570 -564h-124l-560 556v-556h-98z" />
    <glyph glyph-name="uni043B" unicode="&#x43b;" horiz-adv-x="1134" 
d="M25 7v92q13 -7 24 -8q14 -7 37 -7q41 0 70.5 23t49 69.5t31 100.5t20.5 131l12 111q18 235 30 552h666v-1071h-99v988h-478l-14 -254l-15 -232l-6 -68q-4 -47 -8 -78t-13 -81.5t-20.5 -85.5t-31 -75.5t-43.5 -65t-59.5 -41t-78.5 -16.5q-30 0 -58 8q-4 0 -16 8z" />
    <glyph glyph-name="uni043C" unicode="&#x43c;" horiz-adv-x="1403" 
d="M171 0v1071h141l386 -914l399 914h135v-1071h-97v968l-421 -968h-46l-412 968v-968h-85z" />
    <glyph glyph-name="uni043D" unicode="&#x43d;" horiz-adv-x="1171" 
d="M170 0v1071h99v-474h634v474h98v-1071h-98v514h-634v-514h-99z" />
    <glyph glyph-name="uni043E" unicode="&#x43e;" horiz-adv-x="1211" 
d="M610 -17q-114 0 -211.5 43t-164.5 116.5t-105 173t-38 210.5v16q0 148 65 272t185.5 198.5t273.5 74.5q150 0 268 -73t181 -196.5t63 -273.5v-16q0 -149 -64 -273t-183 -198t-270 -74zM610 67q192 0 303.5 132.5t111.5 327.5v15q0 128 -46.5 231t-141.5 166.5t-223 63.5
q-127 0 -223.5 -62t-146.5 -166t-50 -233v-16q0 -198 113 -328.5t303 -130.5z" />
    <glyph glyph-name="uni043F" unicode="&#x43f;" horiz-adv-x="1151" 
d="M170 0v1071h811v-1071h-98v988h-614v-988h-99z" />
    <glyph glyph-name="uni0440" unicode="&#x440;" horiz-adv-x="1252" 
d="M172 -373v1444h100v-263q49 123 165.5 201.5t250.5 78.5q149 0 260 -76t165.5 -197.5t54.5 -267.5v-17q0 -149 -53 -271t-162 -199t-257 -77q-146 0 -258 73t-166 200v-629h-100zM685 67h2q123 0 210.5 62t128 164t40.5 233v17q0 130 -43.5 233t-132.5 165.5t-212 62.5
q-184 0 -296 -132.5t-112 -328.5v-17q0 -198 114.5 -328t300.5 -131z" />
    <glyph glyph-name="uni0441" unicode="&#x441;" horiz-adv-x="1139" 
d="M995 369l84 -36q-59 -160 -180.5 -255t-295.5 -95q-152 0 -269.5 73t-180 196t-62.5 273v17q0 150 62.5 273.5t182.5 198t275 74.5q157 0 275.5 -79.5t180.5 -235.5l-87 -39q-46 133 -140 201.5t-228 68.5q-132 0 -228.5 -64.5t-143 -167.5t-46.5 -230v-17
q0 -198 118.5 -328t300.5 -130q141 0 238 82t144 220z" />
    <glyph glyph-name="uni0442" unicode="&#x442;" horiz-adv-x="951" 
d="M426 0v988h-375v83h849v-83h-375v-988h-99z" />
    <glyph glyph-name="uni0443" unicode="&#x443;" horiz-adv-x="1038" 
d="M289 -373l193 463l-426 981h106l372 -869l352 869h103l-600 -1444h-100z" />
    <glyph glyph-name="uni0444" unicode="&#x444;" horiz-adv-x="1401" 
d="M651 -373v358q-246 6 -404.5 153.5t-158.5 388.5v16q0 246 156 389t407 154v497h100v-497q250 -11 406.5 -154.5t156.5 -387.5v-16q0 -161 -74 -284t-201 -189t-288 -70v-358h-100zM651 63v947q-209 -9 -335 -131.5t-126 -334.5v-14q0 -209 125.5 -336.5t335.5 -130.5z
M751 1008v-945q209 3 335 130t126 334v15q0 214 -126 337.5t-335 128.5z" />
    <glyph glyph-name="uni0445" unicode="&#x445;" horiz-adv-x="1044" 
d="M64 0l401 554l-376 517h117l319 -444l315 444h109l-369 -511l407 -560h-116l-350 487l-349 -487h-108z" />
    <glyph glyph-name="uni0446" unicode="&#x446;" horiz-adv-x="1184" 
d="M170 0v1071h99v-987h614v987h98v-987h153v-344h-79l-9 260h-876z" />
    <glyph glyph-name="uni0447" unicode="&#x447;" horiz-adv-x="1149" 
d="M854 0v546q-119 -158 -351 -158q-186 0 -272.5 109.5t-86.5 302.5v271h99v-267q0 -330 284 -330q202 0 327 174v423h99v-1071h-99z" />
    <glyph glyph-name="uni0448" unicode="&#x448;" horiz-adv-x="1636" 
d="M170 0v1071h99v-987h500v987h99v-987h501v987h98v-1071h-1297z" />
    <glyph glyph-name="uni0449" unicode="&#x449;" horiz-adv-x="1669" 
d="M170 0v1071h99v-987h500v987h99v-987h501v987h98v-987h151v-344h-78l-9 260h-1361z" />
    <glyph glyph-name="uni044A" unicode="&#x44a;" horiz-adv-x="1184" 
d="M376 0v989h-325v82h425v-395h240q183 0 290.5 -84t107.5 -246v-6q0 -162 -103.5 -251t-271.5 -89h-363zM476 79h267q134 0 202 67.5t68 193.5v6q0 122 -73.5 186.5t-217.5 64.5h-246v-518z" />
    <glyph glyph-name="uni044B" unicode="&#x44b;" horiz-adv-x="1364" 
d="M170 0v1071h99v-395h240q182 0 289.5 -85.5t107.5 -245.5v-6q0 -162 -102.5 -250.5t-270.5 -88.5h-363zM1096 0v1071h98v-1071h-98zM269 80h268q134 0 202.5 67t68.5 192v6q0 123 -74.5 187t-219.5 64h-245v-516z" />
    <glyph glyph-name="uni044C" unicode="&#x44c;" horiz-adv-x="979" 
d="M170 0v1071h99v-395h240q182 0 289.5 -86t107.5 -247v-6q0 -165 -100.5 -251t-272.5 -86h-363zM269 80h268q135 0 203 66.5t68 190.5v6q0 124 -74.5 188.5t-219.5 64.5h-245v-516z" />
    <glyph glyph-name="uni044D" unicode="&#x44d;" horiz-adv-x="1139" 
d="M62 316l93 39q47 -145 141.5 -216.5t254.5 -71.5q94 0 170 36.5t124 99.5t74 142t29 169h-589v82h589q-13 184 -121.5 296t-289.5 112q-283 0 -382 -284l-86 38q57 151 175.5 240.5t296.5 89.5q157 0 274 -71t176.5 -192.5t59.5 -274.5v-17q0 -149 -58.5 -273
t-174 -200.5t-267.5 -76.5q-186 0 -306.5 81.5t-182.5 251.5z" />
    <glyph glyph-name="uni044E" unicode="&#x44e;" horiz-adv-x="1584" 
d="M170 0v1071h99v-476h234q17 215 153 353.5t352 138.5q118 0 212.5 -44t153.5 -120t90 -174.5t31 -210.5q0 -157 -57.5 -282t-171 -199t-265.5 -74q-151 0 -265 73.5t-172 192.5t-62 265h-233v-514h-99zM1003 66q101 0 178 38.5t123 106t68.5 151.5t22.5 182
q0 93 -24 174.5t-71.5 146t-125.5 102t-177 37.5q-101 0 -178.5 -38.5t-124 -106t-69.5 -151.5t-23 -182q0 -93 25 -174.5t73 -146t126 -102t177 -37.5z" />
    <glyph glyph-name="uni044F" unicode="&#x44f;" horiz-adv-x="1043" 
d="M74 0l330 456q-128 23 -197.5 97.5t-69.5 195.5v5q0 157 100.5 237t272.5 80h364v-1071h-100v438h-211q-44 0 -60 3l-313 -441h-116zM774 517v474h-269q-270 0 -270 -237v-5q0 -232 294 -232h245z" />
    <glyph glyph-name="uni0451" unicode="&#x451;" horiz-adv-x="1135" 
d="M679 1375q0 28 21 48.5t50 20.5q28 0 48 -20t20 -49t-20 -50t-48 -21q-29 0 -50 21t-21 50zM416 1304q-28 0 -49.5 21.5t-21.5 49.5t21.5 48.5t49.5 20.5t47.5 -20t19.5 -49t-19.5 -50t-47.5 -21zM968 299l87 -37q-57 -133 -175 -206t-278 -73q-238 0 -374.5 152.5
t-136.5 389.5v18q0 87 21 168t63 149.5t101.5 119t140 79.5t174.5 29q146 0 252 -69.5t157 -185t51 -264.5v-39h-857q3 -225 105 -344t293 -119q138 0 236 61t140 171zM197 614h751q-7 191 -102 290.5t-265 99.5q-164 0 -266.5 -109.5t-117.5 -280.5z" />
    <glyph glyph-name="uni0452" unicode="&#x452;" horiz-adv-x="1193" 
d="M169 0v1280h-161v75h161v226h98v-226h393v-75h-393v-424q43 107 149.5 169.5t235.5 62.5q184 0 284 -107.5t100 -320.5v-770q0 -138 -60.5 -204t-197.5 -70v85q89 7 124 50t35 138v777q0 336 -305 336q-157 0 -261 -99t-104 -254v-649h-98z" />
    <glyph glyph-name="uni0453" unicode="&#x453;" horiz-adv-x="907" 
d="M449 1227l141 311h121l-184 -311h-78zM170 0v1071h683v-83h-584v-988h-99z" />
    <glyph glyph-name="uni0454" unicode="&#x454;" horiz-adv-x="1139" 
d="M192 598h585v-82h-587q6 -193 119 -321t291 -128q143 0 246 84.5t145 217.5l85 -36q-51 -161 -175.5 -255.5t-299.5 -94.5q-225 0 -369 153t-144 389v17q0 151 62.5 274.5t180.5 197.5t270 74q333 0 462 -315l-88 -39q-96 270 -374 270q-164 0 -279 -115t-130 -291z" />
    <glyph glyph-name="uni0455" unicode="&#x455;" horiz-adv-x="952" 
d="M58 280l91 39q28 -109 118 -182t233 -73q127 0 200 59.5t73 162.5q0 34 -9.5 62t-22.5 48t-39 37t-46 27t-57.5 20.5t-59.5 15.5t-65 14q-39 8 -59.5 12.5t-56.5 13.5t-56 16.5t-49.5 21t-46 28t-36.5 35.5t-30 44.5t-17 55t-7 67.5q0 90 55.5 156.5t135 96.5t166.5 30
q142 0 233.5 -63.5t150.5 -186.5l-85 -38q-88 205 -304 205q-116 0 -186.5 -55t-70.5 -150q0 -27 5.5 -50t19.5 -40.5t27 -31t38.5 -25t43 -19t51.5 -15.5t53 -12t58 -12q49 -9 75 -15t71 -18.5t70 -25.5t57 -36t49 -50t29 -66t12 -86q0 -80 -31.5 -142t-85.5 -99
t-121 -55.5t-144 -18.5q-168 0 -280.5 82t-149.5 216z" />
    <glyph glyph-name="uni0456" unicode="&#x456;" horiz-adv-x="443" 
d="M154 1375q0 30 20.5 50t51.5 20q30 0 50.5 -20.5t20.5 -50.5t-20 -51t-50 -21q-31 0 -52 21t-21 52zM176 0v1071h98v-1071h-98z" />
    <glyph glyph-name="uni0457" unicode="&#x457;" horiz-adv-x="443" 
d="M303 1375q0 28 21.5 48.5t50.5 20.5q28 0 47.5 -20t19.5 -49t-19.5 -50t-47.5 -21q-29 0 -50.5 21t-21.5 50zM79 1304q-28 0 -49 21.5t-21 49.5t21 48.5t49 20.5q29 0 49 -20t20 -49t-20 -50t-49 -21zM176 0v1071h98v-1071h-98z" />
    <glyph glyph-name="uni0458" unicode="&#x458;" horiz-adv-x="443" 
d="M226 1302q-31 0 -51.5 21t-20.5 52q0 30 20.5 50t50.5 20t50 -20t20 -51q0 -30 -19.5 -51t-49.5 -21zM17 -384v85q92 7 125.5 52t33.5 136v1182h98v-1128l-1 -65q-2 -130 -62.5 -194t-193.5 -68z" />
    <glyph glyph-name="uni0459" unicode="&#x459;" horiz-adv-x="1633" 
d="M25 7v93q25 -16 69 -16q34 0 61.5 22.5t45 63t30 82.5t20 94.5t10.5 84t5 66.5l33 574h644v-395h221q86 0 156.5 -19.5t125 -58.5t85 -104.5t30.5 -152.5q0 -165 -103 -253t-271 -88h-343v987h-457l-31 -500q-2 -38 -4 -60t-6.5 -66.5t-10.5 -74t-16.5 -71.5t-23 -70.5
t-32.5 -60t-43 -50t-55 -31t-69 -12.5q-41 0 -71 16zM943 79h248q132 0 201.5 66t69.5 191q0 259 -294 259h-225v-516z" />
    <glyph glyph-name="uni045A" unicode="&#x45a;" horiz-adv-x="1671" 
d="M170 0v1071h99v-475h614v475h98v-395h221q182 0 289.5 -84t107.5 -246v-6q0 -162 -102.5 -251t-271.5 -89h-342v514h-614v-514h-99zM981 80h249q131 0 200.5 67.5t69.5 192.5v6q0 122 -75 186t-219 64h-225v-516z" />
    <glyph glyph-name="uni045B" unicode="&#x45b;" horiz-adv-x="1193" 
d="M169 0v1280h-161v75h161v228h98v-228h393v-75h-393v-424q43 107 149.5 169.5t235.5 62.5q184 0 284 -107.5t100 -320.5v-660h-99v666q0 336 -305 336q-157 0 -261 -99t-104 -254v-649h-98z" />
    <glyph glyph-name="uni045C" unicode="&#x45c;" horiz-adv-x="990" 
d="M479 1227l141 311h120l-185 -311h-76zM169 0v1071h98v-505l530 505h119l-535 -507l570 -564h-124l-560 556v-556h-98z" />
    <glyph glyph-name="uni045D" unicode="&#x45d;" horiz-adv-x="1186" 
d="M585 1237l-184 301h120l142 -301h-78zM170 0v1071h99v-927l654 927h98v-1071h-98v929l-654 -929h-99z" />
    <glyph glyph-name="uni045E" unicode="&#x45e;" horiz-adv-x="1038" 
d="M276 1509h88q6 -79 52 -128.5t118 -49.5t120 49.5t56 128.5h86q-9 -107 -82.5 -178t-179.5 -71q-105 0 -178.5 71t-79.5 178zM289 -373l193 463l-426 981h106l372 -869l352 869h103l-600 -1444h-100z" />
    <glyph glyph-name="uni045F" unicode="&#x45f;" horiz-adv-x="1151" 
d="M170 0v1071h99v-987h614v987h98v-1071h-362l-4 -260h-77l-7 260h-361z" />
    <glyph glyph-name="uni0490" unicode="&#x490;" horiz-adv-x="1088" 
d="M191 0v1464h718l7 275h85v-363h-707v-1376h-103z" />
    <glyph glyph-name="uni0491" unicode="&#x491;" horiz-adv-x="886" 
d="M170 0v1071h564l9 275h79v-358h-553v-988h-99z" />
    <glyph glyph-name="Wgrave" unicode="&#x1e80;" horiz-adv-x="1944" 
d="M914 1577l-170 250h105l137 -250h-72zM463 0l-397 1464h98l358 -1327l410 1327h74l399 -1331l383 1331h90l-422 -1464h-102l-387 1298l-404 -1298h-100z" />
    <glyph glyph-name="wgrave" unicode="&#x1e81;" horiz-adv-x="1624" 
d="M786 1227l-176 303h103l145 -303h-72zM397 0l-336 1071h97l299 -962l313 962h76l305 -962l324 962h88l-359 -1071h-102l-297 930l-305 -930h-103z" />
    <glyph glyph-name="Wacute" unicode="&#x1e82;" horiz-adv-x="1944" 
d="M920 1577l139 250h102l-168 -250h-73zM463 0l-397 1464h98l358 -1327l410 1327h74l399 -1331l383 1331h90l-422 -1464h-102l-387 1298l-404 -1298h-100z" />
    <glyph glyph-name="wacute" unicode="&#x1e83;" horiz-adv-x="1581" 
d="M745 1227l144 311h102l-174 -311h-72zM383 0l-336 1071h96l299 -962l314 962h75l306 -962l323 962h88l-358 -1071h-103l-296 930l-306 -930h-102z" />
    <glyph glyph-name="Wdieresis" unicode="&#x1e84;" horiz-adv-x="1944" 
d="M1077 1671q0 26 17.5 43t43.5 17t44 -17t18 -43t-18 -43.5t-44 -17.5t-43.5 18t-17.5 43zM731 1671q0 25 18.5 42.5t43.5 17.5t43 -17.5t18 -42.5t-18 -43t-43 -18q-26 0 -44 18t-18 43zM463 0l-397 1464h98l358 -1327l409 1327h74l400 -1331l383 1331h90l-422 -1464
h-102l-388 1298l-403 -1298h-100z" />
    <glyph glyph-name="wdieresis" unicode="&#x1e85;" horiz-adv-x="1624" 
d="M909 1360q0 25 18 43t44 18q25 0 43 -18t18 -43q0 -26 -18 -44t-43 -18t-43.5 18t-18.5 44zM649 1298q-26 0 -44.5 19t-18.5 43t19 42.5t44 18.5q24 0 42 -18t18 -43q0 -26 -17.5 -44t-42.5 -18zM397 0l-336 1071h97l299 -962l313 962h76l305 -962l324 962h88l-359 -1071
h-102l-297 930l-305 -930h-103z" />
    <glyph glyph-name="Ygrave" unicode="&#x1ef2;" horiz-adv-x="1139" 
d="M561 1577l-168 250h105l137 -250h-74zM535 0v645l-490 819h111l432 -735l405 735h101l-461 -819v-645h-98z" />
    <glyph glyph-name="ygrave" unicode="&#x1ef3;" horiz-adv-x="1030" 
d="M496 1227l-174 311h102l143 -311h-71zM291 -373l188 457l-426 987h94l379 -889l361 889h90l-596 -1444h-90z" />
    <glyph glyph-name="uni2009" unicode="&#x2009;" horiz-adv-x="225" 
 />
    <glyph glyph-name="endash" unicode="&#x2013;" horiz-adv-x="1408" 
d="M290 537v71h828v-71h-828z" />
    <glyph glyph-name="emdash" unicode="&#x2014;" horiz-adv-x="2000" 
d="M212 537v71h1577v-71h-1577z" />
    <glyph glyph-name="quoteleft" unicode="&#x2018;" horiz-adv-x="509" 
d="M143 1151l164 326l59 -27l-137 -334z" />
    <glyph glyph-name="quoteright" unicode="&#x2019;" horiz-adv-x="509" 
d="M143 1141l137 336l86 -35l-163 -326z" />
    <glyph glyph-name="quotesinglbase" unicode="&#x201a;" horiz-adv-x="534" 
d="M156 -121l135 334l88 -35l-163 -325z" />
    <glyph glyph-name="quotedblleft" unicode="&#x201c;" horiz-adv-x="872" 
d="M198 1151l164 326l59 -27l-137 -334zM452 1151l164 326l59 -27l-139 -334z" />
    <glyph glyph-name="quotedblright" unicode="&#x201d;" horiz-adv-x="872" 
d="M198 1141l137 336l86 -35l-163 -326zM450 1141l139 336l86 -35l-163 -326z" />
    <glyph glyph-name="quotedblbase" unicode="&#x201e;" horiz-adv-x="896" 
d="M211 -121l135 334l88 -35l-163 -325zM463 -121l139 334l84 -35l-163 -325z" />
    <glyph glyph-name="dagger" unicode="&#x2020;" horiz-adv-x="777" 
d="M350 -303v1434h-246v74h246v395h80v-395h244v-74h-244v-1434h-80z" />
    <glyph glyph-name="daggerdbl" unicode="&#x2021;" horiz-adv-x="777" 
d="M350 -303v395h-246v74h246v965h-246v74h246v395h80v-395h244v-74h-244v-965h244v-74h-244v-395h-80z" />
    <glyph glyph-name="bullet" unicode="&#x2022;" horiz-adv-x="667" 
d="M336 414q-90 0 -151.5 62.5t-61.5 150.5t60.5 147.5t151.5 59.5q89 0 149 -59t60 -150t-60 -151t-148 -60z" />
    <glyph glyph-name="ellipsis" unicode="&#x2026;" horiz-adv-x="1662" 
d="M308 59q0 30 19.5 49t49.5 19t50 -19t20 -49t-20 -49.5t-50 -19.5t-49.5 19t-19.5 50zM1216 59q0 29 20 48.5t49 19.5q30 0 50 -19t20 -49t-20 -49.5t-50 -19.5q-29 0 -49 20t-20 49zM763 59q0 30 20 49t50 19q29 0 49 -19.5t20 -48.5t-20 -49t-49 -20t-49.5 20t-20.5 49
z" />
    <glyph glyph-name="perthousand" unicode="&#x2030;" horiz-adv-x="2289" 
d="M415 833q-134 0 -224.5 92t-90.5 226q0 135 89.5 229.5t223.5 94.5q133 0 222.5 -93.5t89.5 -229.5q0 -135 -88 -227t-222 -92zM264 0l961 1464h77l-959 -1464h-79zM414 901q105 0 168 73.5t63 183.5q0 107 -61.5 178t-165.5 71q-108 0 -173 -75t-65 -181
q0 -105 64.5 -177.5t169.5 -72.5zM1880 -12q-135 0 -225.5 91.5t-90.5 225.5t90.5 229t225.5 95q134 0 222.5 -93t88.5 -229q0 -135 -88 -227t-223 -92zM1148 -12q-134 0 -223.5 90.5t-89.5 224.5q0 135 89.5 230.5t224.5 95.5q134 0 223.5 -92.5t89.5 -227.5t-89.5 -228
t-224.5 -93zM1149 55q105 0 169 73.5t64 181.5q0 106 -63 178.5t-168 72.5q-107 0 -171.5 -74.5t-64.5 -180.5q0 -107 65 -179t169 -72zM1879 55q105 0 168.5 74t63.5 182q0 106 -62 178t-167 72q-108 0 -173 -74.5t-65 -180.5t65.5 -178.5t169.5 -72.5z" />
    <glyph glyph-name="minute" unicode="&#x2032;" horiz-adv-x="344" 
d="M94 1071l66 393h96l-92 -393h-70z" />
    <glyph glyph-name="second" unicode="&#x2033;" horiz-adv-x="583" 
d="M94 1071l66 393h96l-92 -393h-70zM334 1071l67 393h94l-90 -393h-71z" />
    <glyph glyph-name="guilsinglleft" unicode="&#x2039;" horiz-adv-x="691" 
d="M444 168l-281 367l281 366h84l-276 -366l276 -367h-84z" />
    <glyph glyph-name="guilsinglright" unicode="&#x203a;" horiz-adv-x="691" 
d="M162 168l277 367l-277 366h86l281 -366l-281 -367h-86z" />
    <glyph glyph-name="fraction" unicode="&#x2044;" horiz-adv-x="244" 
d="M-453 0l1076 1464h73l-1075 -1464h-74z" />
    <glyph glyph-name="uni207D" unicode="&#x207d;" horiz-adv-x="326" 
d="M263 632h-70q-68 114 -98.5 222.5t-30.5 239.5q0 254 129 474h70q-66 -131 -97 -237.5t-31 -232.5q0 -127 30.5 -228.5t97.5 -237.5z" />
    <glyph glyph-name="uni207E" unicode="&#x207e;" horiz-adv-x="326" 
d="M133 632h-68q67 137 97.5 238t30.5 228q0 126 -31 231.5t-97 238.5h68q129 -220 129 -473q0 -131 -30.5 -239.5t-98.5 -223.5z" />
    <glyph glyph-name="uni208D" unicode="&#x208d;" horiz-adv-x="326" 
d="M262 -318h-69q-68 115 -98.5 223.5t-30.5 239.5q0 253 129 473h69q-66 -133 -97 -238.5t-31 -231.5q0 -127 30.5 -228.5t97.5 -237.5z" />
    <glyph glyph-name="uni208E" unicode="&#x208e;" horiz-adv-x="326" 
d="M134 -318h-71q67 136 97.5 237.5t30.5 228.5q0 126 -31 231.5t-97 238.5h71q129 -220 129 -473q0 -131 -30.5 -239.5t-98.5 -223.5z" />
    <glyph glyph-name="Euro" unicode="&#x20ac;" horiz-adv-x="1353" 
d="M71 561v64h138v216h-138v64h138q6 120 44 223t104 182t166.5 124t223.5 45q197 0 313 -92.5t165 -285.5l-80 -35q-41 168 -135 249.5t-263 81.5q-106 0 -189.5 -39t-136 -107.5t-81 -155.5t-33.5 -190h518l-12 -64h-508v-216h467l-10 -64h-457q5 -105 33.5 -193
t80.5 -156t135 -106t190 -38q324 0 419 366l84 -37q-58 -199 -178 -305t-318 -106q-126 0 -227.5 44.5t-167.5 123t-103.5 182t-43.5 225.5h-138z" />
    <glyph glyph-name="uni20B8" unicode="&#x20b8;" horiz-adv-x="1168" 
d="M83 1373v91h1002v-91h-1002zM532 0v1028h-449v91h1002v-91h-432v-1028h-121z" />
    <glyph glyph-name="uni20B9" unicode="&#x20b9;" horiz-adv-x="1249" 
d="M139 582v80h125q71 1 134 11t123 34t103 60t69 93t26 130h-580v79h580q-11 80 -55.5 144t-107 101.5t-131 57t-136.5 19.5h-150v73h977v-73h-565q102 -22 175.5 -112t90.5 -210h299v-79h-299q-2 -94 -37.5 -166t-98.5 -117.5t-140.5 -71.5t-173.5 -37q74 -31 161 -129
l412 -469h-123l-369 420q-54 62 -90 92.5t-90 50t-129 19.5z" />
    <glyph glyph-name="uni20BA" unicode="&#x20ba;" horiz-adv-x="1168" 
d="M304 6v849l-196 -45v76l196 45v183l-196 -45v75l196 45v275h98v-259l419 92v-75l-419 -92v-183l419 92v-76l-419 -92v-785q45 -8 94 -8q190 -1 341.5 115.5t218.5 303.5l69 -30q-66 -202 -242 -341t-370 -139q-127 0 -209 19z" />
    <glyph glyph-name="uni20BC" unicode="&#x20bc;" horiz-adv-x="1311" 
d="M131 0v646q0 93 18.5 179t57.5 162t94.5 133t133.5 93t171 42l1 209h98v-209q151 -9 260.5 -92t162.5 -210.5t53 -283.5v-669h-98v663q0 101 -21.5 187t-65.5 156t-118 113t-173 50v-945h-98v945q-101 -8 -176 -54.5t-118 -122t-63.5 -164.5t-20.5 -192v-636h-98z" />
    <glyph glyph-name="uni20BF" unicode="&#x20bf;" horiz-adv-x="1246" 
d="M343 -199v199h-176v1464h176v197h61v-197h189v197h61v-197q171 -9 278 -105.5t107 -270.5q0 -135 -69 -218.5t-199 -111.5q342 -48 342 -350q0 -204 -116 -306t-323 -102h-20v-199h-61v199h-189v-199h-61zM244 783h373q158 0 253 73t95 232q0 158 -95 236.5t-259 78.5
h-367v-620zM244 61h428q172 0 270.5 84.5t98.5 253.5q0 70 -24 126.5t-64 92.5t-94.5 60.5t-112 34.5t-121.5 10h-381v-662z" />
    <glyph glyph-name="uni2105" unicode="&#x2105;" horiz-adv-x="1901" 
d="M480 0l870 1464h79l-864 -1464h-85zM729 926l57 -25q-46 -98 -137.5 -162t-196.5 -64q-110 0 -192.5 54t-123.5 142.5t-41 197.5q0 104 45.5 192.5t131.5 142t195 53.5q206 0 313 -204l-57 -25q-49 90 -109 130.5t-158 40.5q-134 0 -217.5 -98.5t-83.5 -237.5
q0 -138 83.5 -234t221.5 -96q88 0 157 54t112 139zM1440 -14q-163 0 -263 109.5t-100 272.5q0 166 104 275.5t268 109.5t264.5 -109.5t100.5 -271.5q0 -166 -105.5 -276t-268.5 -110zM1444 50q138 0 222.5 94t84.5 234q0 137 -83 224t-222 87q-141 0 -223.5 -90t-82.5 -228
q0 -141 85 -231t219 -90z" />
    <glyph glyph-name="uni2116" unicode="&#x2116;" horiz-adv-x="2342" 
d="M188 0v1464h122l888 -1329v1329h85v-1464h-105l-905 1356v-1356h-85zM1854 261q-156 0 -261.5 108t-105.5 268q0 161 106 270.5t264 109.5q156 0 261.5 -107.5t105.5 -267.5q0 -161 -106 -271t-264 -110zM1859 330q121 0 203 88.5t82 219.5q0 132 -83 222t-206 90
q-122 0 -205 -88t-83 -219q0 -132 84 -222.5t208 -90.5zM1543 0v84h619v-84h-619z" />
    <glyph glyph-name="trademark" unicode="&#x2122;" horiz-adv-x="1348" 
d="M645 825v639h94l215 -520l211 520h95v-639h-68v555l-229 -555h-25l-231 555v-555h-62zM258 825v584h-199v55h463v-55h-196v-584h-68z" />
    <glyph glyph-name="estimated" unicode="&#x212e;" horiz-adv-x="1627" 
d="M328 683v-338q0 -32 37 -76q80 -91 212 -146.5t261 -55.5q133 0 265 59.5t219 159.5l95 -28q-104 -127 -260.5 -198.5t-323.5 -71.5q-146 0 -282.5 57t-238.5 153t-163 231.5t-61 284.5q0 145 58 277.5t155 229t231 153.5t281 57t281 -57.5t231.5 -154t155 -230
t57.5 -280.5v-26h-1210zM328 762h970v330q0 7 -15 28.5t-24 31.5q-81 93 -201.5 146.5t-244.5 53.5q-127 0 -251.5 -56t-206.5 -151q-27 -27 -27 -49v-334z" />
    <glyph glyph-name="onethird" unicode="&#x2153;" horiz-adv-x="1436" 
d="M63 0l1074 1464h71l-1073 -1464h-72zM244 756v624l-185 -131v70l203 145h60v-708h-78zM846 178l63 21q26 -84 81.5 -117t148.5 -33q60 0 99.5 45t39.5 112q0 35 -13 60.5t-32 39.5t-50 22t-57.5 10t-62.5 2v56q34 0 57.5 1.5t52.5 8.5t46.5 19.5t30 36t12.5 56.5
q0 68 -44.5 103.5t-111.5 35.5q-68 0 -112.5 -37t-61.5 -105l-62 21q23 86 85 131.5t151 45.5q94 0 160.5 -48.5t66.5 -135.5q0 -60 -33.5 -100t-91.5 -57q67 -16 107.5 -64.5t40.5 -121.5q0 -97 -69 -147.5t-172 -50.5q-101 0 -173.5 49t-95.5 141z" />
    <glyph glyph-name="twothirds" unicode="&#x2154;" horiz-adv-x="1520" 
d="M45 758v29l268 241q140 127 140 242q0 67 -41.5 104t-106.5 37q-138 0 -186 -164l-58 25q22 91 86 144.5t157 53.5q94 0 159.5 -52.5t65.5 -141.5q0 -46 -21 -95t-47 -86t-75 -85.5t-78 -73.5t-82 -69l-60 -50h370v-59h-491zM193 0l1073 1464h71l-1073 -1464h-71z
M927 180l64 23q20 -73 71.5 -112.5t127.5 -39.5q75 0 123.5 38t48.5 114q0 45 -18 74.5t-52.5 43t-67.5 17.5t-79 4v55q33 0 57 2t52 9t45.5 20t29.5 37t12 57q0 67 -43 102t-110 35q-139 0 -174 -143l-63 21q23 86 86 132t151 46q93 0 159 -48t66 -135q0 -60 -32.5 -101
t-90.5 -58q68 -15 108 -63t40 -120q0 -98 -69.5 -148t-172.5 -50q-101 0 -172.5 48t-96.5 140z" />
    <glyph glyph-name="uni2155" unicode="&#x2155;" horiz-adv-x="1322" 
d="M15 0l1074 1464h73l-1073 -1464h-74zM246 756v624l-184 -120v69l203 135h61v-708h-80zM764 158l60 26q44 -131 179 -131q80 0 125 47.5t45 125.5t-45 130t-122 52q-46 0 -90 -19.5t-74 -56.5h-43l4 377h408v-61h-346v-247q61 64 166 64q102 0 162 -66t60 -168
q0 -110 -68.5 -174.5t-179.5 -64.5q-88 0 -151.5 42t-89.5 124z" />
    <glyph glyph-name="uni2156" unicode="&#x2156;" horiz-adv-x="1465" 
d="M54 756v20l268 261q79 78 109.5 128.5t30.5 103.5q0 67 -40 103.5t-105 36.5q-74 0 -120.5 -45.5t-66.5 -117.5l-58 25q25 91 88.5 145t158.5 54q93 0 155.5 -51.5t62.5 -147.5q0 -77 -40 -136.5t-117 -131.5l-199 -186h362v-61h-489zM158 0l1076 1464h73l-1075 -1464
h-74zM908 158l60 26q44 -131 180 -131q80 0 125 47.5t45 125.5t-45 130t-123 52q-101 0 -164 -76h-43l4 377h408v-61h-346v-247q61 64 167 64q101 0 160.5 -66.5t59.5 -168.5q0 -109 -67.5 -173.5t-178.5 -64.5q-88 0 -152 42t-90 124z" />
    <glyph glyph-name="uni2157" unicode="&#x2157;" horiz-adv-x="1493" 
d="M53 929l64 26q20 -70 73.5 -109t130.5 -39q73 0 119.5 36.5t46.5 111.5q0 46 -18 76t-52.5 43.5t-67.5 17.5t-79 4v57h4q33 0 57 2t52 9t45 19.5t29 36t12 55.5q0 67 -45 102.5t-111 35.5q-68 0 -112.5 -37t-61.5 -104l-61 26q24 83 87.5 127.5t150.5 44.5q93 0 160 -47
t67 -134q0 -60 -33.5 -101.5t-91.5 -60.5q68 -15 107.5 -62.5t39.5 -119.5q0 -98 -69 -148.5t-171 -50.5q-99 0 -170.5 47.5t-101.5 135.5zM186 0l1076 1464h73l-1075 -1464h-74zM936 158l60 26q44 -131 180 -131q80 0 125 47.5t45 125.5t-45 130t-123 52q-101 0 -164 -76
h-43l4 377h408v-61h-346v-247q61 64 167 64q101 0 160.5 -66.5t59.5 -168.5q0 -109 -67.5 -173.5t-178.5 -64.5q-88 0 -152 42t-90 124z" />
    <glyph glyph-name="uni2158" unicode="&#x2158;" horiz-adv-x="1505" 
d="M54 910v32l348 522h100v-493h97v-61h-97v-154h-75v154h-373zM201 0l1076 1464h73l-1075 -1464h-74zM140 971h287v440zM951 158l60 26q44 -131 180 -131q80 0 125 47.5t45 125.5t-45 130t-123 52q-101 0 -164 -76h-43l4 377h408v-61h-346v-247q61 64 167 64
q101 0 160.5 -66.5t59.5 -168.5q0 -109 -67.5 -173.5t-178.5 -64.5q-88 0 -152 42t-90 124z" />
    <glyph glyph-name="uni2159" unicode="&#x2159;" horiz-adv-x="1384" 
d="M23 0l1076 1464h73l-1075 -1464h-74zM254 756v624l-184 -120v69l204 135h62v-708h-82zM1293 575l-61 -24q-19 51 -61 78.5t-100 27.5q-197 0 -197 -321q25 56 82.5 85.5t125.5 29.5q101 0 165.5 -61.5t64.5 -163.5q0 -109 -73.5 -171.5t-186.5 -62.5q-131 0 -192.5 85
t-61.5 224q0 53 4 98.5t14.5 95t31 87.5t50 69.5t75.5 48.5t104 17q73 0 131 -37.5t85 -104.5zM1057 52q78 0 128.5 48t50.5 129q0 77 -47 122.5t-127 45.5q-79 0 -130.5 -45.5t-51.5 -125.5q0 -77 49 -125.5t128 -48.5z" />
    <glyph glyph-name="uni215A" unicode="&#x215a;" horiz-adv-x="1518" 
d="M53 910l60 27q45 -130 177 -130q81 0 127 48.5t46 125.5t-44.5 127.5t-121.5 50.5q-102 0 -166 -75h-43l4 380h407v-62h-345v-251q63 70 169 70q100 0 158 -68t58 -170q0 -109 -67.5 -173.5t-177.5 -64.5q-87 0 -151 42t-90 123zM201 0l1076 1464h73l-1075 -1464h-74z
M1427 575l-61 -24q-19 51 -61 78.5t-100 27.5q-49 0 -85.5 -21t-57 -52.5t-33.5 -76t-17 -84.5t-4 -86q25 56 82.5 85t126.5 29q101 0 165 -61t64 -163q0 -108 -73.5 -171.5t-186.5 -63.5q-131 0 -192.5 85.5t-61.5 224.5q0 53 4 98t14.5 94.5t31 87.5t50 69.5t75.5 48.5
t104 17q73 0 131 -37.5t85 -104.5zM1014 227q0 -77 48.5 -125t127.5 -48q78 0 129 48t51 128q0 76 -47 121.5t-127 45.5q-79 0 -130.5 -45.5t-51.5 -124.5z" />
    <glyph glyph-name="oneeighth" unicode="&#x215b;" horiz-adv-x="1423" 
d="M70 0l1073 1464h71l-1073 -1464h-71zM233 756v624l-184 -131v70l203 145h59v-708h-78zM991 379q-57 18 -95 60.5t-38 100.5q0 82 72 129.5t160 47.5t157.5 -47.5t69.5 -130.5q0 -58 -36 -101t-93 -59q71 -17 115.5 -65t44.5 -124q0 -98 -74.5 -148t-183.5 -50
q-69 0 -125.5 19t-95 64.5t-38.5 112.5q0 75 44.5 124.5t115.5 66.5zM930 535q0 -61 50.5 -96.5t114.5 -35.5q61 0 105.5 34t44.5 93q0 61 -47 94.5t-110 33.5q-62 0 -110 -32t-48 -91zM903 198q0 -73 54.5 -110t132.5 -37t129 36.5t51 110.5q0 75 -51.5 113.5t-126.5 38.5
q-76 0 -132.5 -38.5t-56.5 -113.5z" />
    <glyph glyph-name="threeeighths" unicode="&#x215c;" horiz-adv-x="1499" 
d="M61 938l64 20q20 -73 72 -112t130 -39q75 0 122 37t47 113q0 37 -13 64t-32.5 41.5t-50.5 23t-58 10.5t-63 2v55q33 0 57 2t52 9t45.5 20t29.5 37t12 57q0 67 -43 102t-110 35q-137 0 -175 -143l-63 20q24 86 87 132t153 46q93 0 158 -46.5t65 -134.5q0 -60 -33 -101
t-90 -60q67 -15 107 -63t40 -119q0 -97 -70 -147.5t-173 -50.5q-100 0 -170.5 48.5t-96.5 141.5zM172 0l1075 1464h72l-1075 -1464h-72zM1067 380q-57 18 -95 60t-38 99q0 81 72.5 129.5t161.5 48.5q86 0 155.5 -47t69.5 -129q0 -58 -36 -101t-93 -60q73 -18 116 -65.5
t43 -122.5q0 -68 -38.5 -115t-94.5 -66t-125 -19q-109 0 -185 49.5t-76 146.5q0 75 46 125t117 67zM1006 536q0 -60 50.5 -95.5t113.5 -35.5q62 0 106.5 33.5t44.5 92.5q0 61 -47.5 94t-110.5 33q-62 0 -109.5 -32t-47.5 -90zM979 198q0 -73 54.5 -110t133.5 -37
q78 0 131 36.5t53 110.5t-54 113t-130 39t-132 -39t-56 -113z" />
    <glyph glyph-name="fiveeighths" unicode="&#x215d;" horiz-adv-x="1473" 
d="M47 920l62 20q15 -61 69.5 -97t121.5 -36q78 0 123.5 49t45.5 125q0 78 -46 129.5t-124 51.5q-103 0 -162 -76h-43l4 378h406v-59h-344v-249q29 32 75 48.5t93 16.5q99 0 159 -68t60 -169q0 -108 -68.5 -172t-177.5 -64q-91 0 -165 44.5t-89 127.5zM141 0l1076 1464h71
l-1075 -1464h-72zM1040 379q-57 18 -95 60.5t-38 100.5q0 82 72 129.5t160 47.5t157.5 -46.5t69.5 -129.5q0 -59 -36 -102.5t-93 -59.5q71 -17 115.5 -65t44.5 -124q0 -99 -75 -148.5t-183 -49.5q-69 0 -126 19.5t-95 66t-38 112.5q0 74 44.5 122.5t115.5 66.5zM979 535
q0 -61 51 -96.5t114 -35.5q61 0 105.5 34.5t44.5 93.5q0 61 -47 94t-110 33q-62 0 -110 -32t-48 -91zM952 198q0 -73 54.5 -110t133.5 -37q77 0 128 36.5t51 110.5q0 75 -51.5 113.5t-126.5 38.5q-76 0 -132.5 -38.5t-56.5 -113.5z" />
    <glyph glyph-name="seveneighths" unicode="&#x215e;" horiz-adv-x="1417" 
d="M57 0l1073 1464h72l-1073 -1464h-72zM170 756l283 645h-406v63h492v-26l-291 -682h-78zM987 379q-57 18 -95.5 60.5t-38.5 100.5q0 81 72 129t160 48q87 0 156.5 -47t69.5 -131q0 -58 -35 -100.5t-92 -59.5q71 -18 114 -65t43 -123q0 -101 -73 -150t-182 -49
q-110 0 -186.5 49t-76.5 147q0 75 46 124.5t118 66.5zM926 535q0 -61 49.5 -96.5t113.5 -35.5q62 0 107 33.5t45 92.5q0 62 -48.5 95.5t-111.5 33.5q-62 0 -108.5 -32.5t-46.5 -90.5zM899 198q0 -73 53.5 -110t132.5 -37q78 0 130.5 37t52.5 111t-53 112.5t-128 38.5
q-77 0 -132.5 -39t-55.5 -113z" />
    <glyph glyph-name="arrowleft" unicode="&#x2190;" horiz-adv-x="1580" 
d="M181 696l676 -651l-57 -57l-759 744l759 744l58 -58l-677 -648l1358 2v-77z" />
    <glyph glyph-name="arrowup" unicode="&#x2191;" horiz-adv-x="1624" 
d="M126 681l-58 58l744 759l744 -759l-57 -57l-651 676l1 -1358h-77l2 1358z" />
    <glyph glyph-name="arrowright" unicode="&#x2192;" horiz-adv-x="1580" 
d="M723 45l676 651l-1358 -1v77l1358 -2l-677 648l58 58l759 -744l-759 -744z" />
    <glyph glyph-name="arrowdown" unicode="&#x2193;" horiz-adv-x="1624" 
d="M774 106l-2 1358h77l-1 -1358l651 676l57 -57l-744 -759l-744 759l58 58z" />
    <glyph glyph-name="arrowboth" unicode="&#x2194;" horiz-adv-x="2399" 
d="M183 698l671 -657l-52 -53l-753 745l753 743l52 -51l-670 -656h2031l-670 656l52 51l753 -743l-753 -745l-52 53l671 657h-2033z" />
    <glyph glyph-name="arrowupdn" unicode="&#x2195;" horiz-adv-x="1623" 
d="M66 344l51 51l658 -609v1891l-658 -609l-51 51l745 693l746 -695l-52 -51l-659 612v-1893l659 612l52 -51l-746 -694z" />
    <glyph glyph-name="uni2196" unicode="&#x2196;" horiz-adv-x="1624" 
d="M134 0v1464h1448v-76l-1326 4l1368 -1342l-59 -58l-1358 1350l5 -1342h-78z" />
    <glyph glyph-name="uni2197" unicode="&#x2197;" horiz-adv-x="1624" 
d="M0 50l1366 1341l-1324 -4v77h1447v-1464h-76l4 1340l-1358 -1348z" />
    <glyph glyph-name="uni2198" unicode="&#x2198;" horiz-adv-x="1624" 
d="M42 0v76l1327 -4l-1369 1342l59 58l1358 -1350l-4 1342h77v-1464h-1448z" />
    <glyph glyph-name="uni2199" unicode="&#x2199;" horiz-adv-x="1624" 
d="M134 0v1464h78l-5 -1342l1358 1350l59 -58l-1368 -1342l1326 4v-76h-1448z" />
    <glyph glyph-name="partialdiff" unicode="&#x2202;" horiz-adv-x="1134" 
d="M175 1139l-72 33q41 151 159 229t280 78q125 0 219.5 -39t150.5 -102.5t91 -157.5t47 -189.5t12 -213.5v-216q0 -125 -30 -227.5t-89.5 -181.5t-157.5 -122.5t-227 -43.5q-214 0 -350.5 131t-136.5 349q0 208 127 332t342 124q141 0 261.5 -68.5t166.5 -192.5v114
q0 72 -3 130t-14 125t-29 117.5t-50 100t-75.5 81t-107.5 51t-143 19.5q-293 0 -371 -260zM165 465q0 -181 107.5 -290t282.5 -109q185 0 294.5 118.5t109.5 302.5q0 108 -57.5 192t-149 127t-198.5 43q-181 0 -285 -103.5t-104 -280.5z" />
    <glyph glyph-name="product" unicode="&#x220f;" horiz-adv-x="1284" 
d="M211 0v1390h-158v74h1182v-74h-158v-1390h-90v1390h-686v-1390h-90z" />
    <glyph glyph-name="summation" unicode="&#x2211;" horiz-adv-x="1101" 
d="M64 -180v57l493 855l-487 826v71h920v-80h-814l486 -818l-477 -831h841v-80h-962z" />
    <glyph glyph-name="minus" unicode="&#x2212;" horiz-adv-x="1065" 
d="M86 662v77h893v-77h-893z" />
    <glyph glyph-name="radical" unicode="&#x221a;" horiz-adv-x="1193" 
d="M496 -116l-319 735l-145 -57l-29 74l231 93l326 -761l558 1732h102l-595 -1816h-129z" />
    <glyph glyph-name="uni221B" unicode="&#x221b;" horiz-adv-x="1193" 
d="M497 -116l-319 735l-145 -57l-30 74l232 93l326 -761l558 1732h101l-594 -1816h-129zM191 1060l64 26q20 -71 73.5 -110t130.5 -39q73 0 119.5 36.5t46.5 112.5q0 47 -18 77t-52.5 43.5t-67 17.5t-79.5 4v55q34 0 58 1.5t52.5 8.5t46.5 19.5t30 36t12 56.5
q0 68 -44.5 103t-111.5 35t-112 -36.5t-62 -104.5l-61 26q24 83 87.5 127.5t151.5 44.5q92 0 159 -47t67 -134q0 -60 -33.5 -101t-91.5 -60q69 -15 108 -62t39 -120q0 -99 -69 -150t-171 -51q-99 0 -170.5 48t-101.5 137z" />
    <glyph glyph-name="infinity" unicode="&#x221e;" horiz-adv-x="1859" 
d="M927 672l-48 -54q-42 -45 -67.5 -71.5t-75.5 -71.5t-88.5 -70.5t-88.5 -46t-95 -20.5q-167 0 -274 118t-107 289q0 167 104 275t274 108q186 0 425 -286l39 -47l38 45q51 59 88.5 98t96.5 89.5t120 77t120 26.5q181 0 280.5 -106.5t99.5 -290.5q0 -181 -97 -291
t-278 -110q-44 0 -93.5 21t-88.5 47t-91 73.5t-79.5 76t-74.5 79.5zM978 736l73 -81q206 -233 337 -233q138 0 213 88.5t75 229.5q0 142 -76.5 222.5t-217.5 80.5q-46 0 -96 -23.5t-99 -65t-85 -78.5t-77 -85zM873 734l-37 44q-39 47 -61.5 72.5t-65.5 67.5t-76.5 65t-78 41
t-86.5 18q-133 0 -216 -85t-83 -213q0 -134 88.5 -228t216.5 -94q138 0 349 252z" />
    <glyph glyph-name="integral" unicode="&#x222b;" horiz-adv-x="713" 
d="M27 -202v87h76q87 0 149.5 50t62.5 135v1290q0 127 65 213t188 86h118v-87h-95q-80 0 -129 -54.5t-49 -135.5v-1305q0 -135 -86 -207t-223 -72h-77z" />
    <glyph glyph-name="approxequal" unicode="&#x2248;" horiz-adv-x="1042" 
d="M158 762h-72q10 90 66.5 145.5t150.5 55.5q78 0 220 -59q49 -20 76 -30t70 -20t80 -10q57 0 93 33t43 90h71q-9 -91 -65 -146t-152 -55q-69 0 -215 59q-146 60 -229 60q-57 0 -92.5 -32.5t-44.5 -90.5zM158 395h-72q10 91 66 146t151 55q36 0 77.5 -9.5t68.5 -20
t74 -29.5q49 -20 76 -30t70 -20t80 -10q57 0 93 34t43 91h71q-9 -92 -63.5 -147.5t-149.5 -55.5q-36 0 -77.5 9.5t-68.5 20t-74 29.5q-146 60 -218 60q-128 0 -147 -123z" />
    <glyph glyph-name="notequal" unicode="&#x2260;" horiz-adv-x="1022" 
d="M268 236l111 243h-287v74h319l129 278h-448v74h479l111 242h76l-111 -242h283v-74h-316l-127 -278h443v-74h-476l-112 -243h-74z" />
    <glyph glyph-name="lessequal" unicode="&#x2264;" horiz-adv-x="1028" 
d="M108 696v23l793 422v-88l-655 -344l655 -347v-88zM108 0v74h793v-74h-793z" />
    <glyph glyph-name="greaterequal" unicode="&#x2265;" horiz-adv-x="1028" 
d="M127 270v88l657 347l-657 344v88l792 -420v-25zM127 0v74h792v-74h-792z" />
    <glyph glyph-name="uni2460" unicode="&#x2460;" horiz-adv-x="1746" 
d="M874 -18q-157 0 -297 58.5t-240 158t-158.5 238.5t-58.5 294q0 208 100.5 380.5t274 271t382.5 98.5q207 0 379 -97.5t271.5 -269.5t99.5 -381q0 -156 -58.5 -295.5t-158.5 -239.5t-240 -158t-296 -58zM874 40q142 0 270 55t219.5 148.5t145.5 222.5t54 271
q0 189 -91 346.5t-248 248t-346 90.5q-143 0 -271.5 -54t-221 -146.5t-147 -220t-54.5 -268.5t54.5 -269t146.5 -221t220 -148t269 -55zM828 368v624l-184 -120v69l203 135h61v-708h-80z" />
    <glyph glyph-name="uni2461" unicode="&#x2461;" horiz-adv-x="1746" 
d="M874 -18q-157 0 -297 58.5t-240 158t-158.5 238.5t-58.5 294q0 208 100.5 380.5t274 271t382.5 98.5q207 0 379 -97.5t271.5 -269.5t99.5 -381q0 -156 -58.5 -295.5t-158.5 -239.5t-240 -158t-296 -58zM874 40q142 0 270 55t219.5 148.5t145.5 222.5t54 271
q0 189 -91 346.5t-248 248t-346 90.5q-143 0 -271.5 -54t-221 -146.5t-147 -220t-54.5 -268.5t54.5 -269t146.5 -221t220 -148t269 -55zM618 385v20l268 261q79 78 109.5 129t30.5 103q0 67 -40 103.5t-105 36.5q-74 0 -120.5 -45.5t-66.5 -117.5l-58 25q25 91 88.5 145
t158.5 54q93 0 155.5 -51.5t62.5 -147.5q0 -77 -40 -136.5t-117 -131.5l-199 -186h362v-61h-489z" />
    <glyph glyph-name="uni2462" unicode="&#x2462;" horiz-adv-x="1746" 
d="M874 -18q-157 0 -297 58.5t-240 158t-158.5 238.5t-58.5 294q0 208 100.5 380.5t274 271t382.5 98.5q207 0 379 -97.5t271.5 -269.5t99.5 -381q0 -156 -58.5 -295.5t-158.5 -239.5t-240 -158t-296 -58zM874 40q142 0 270 55t219.5 148.5t145.5 222.5t54 271
q0 189 -91 346.5t-248 248t-346 90.5q-143 0 -271.5 -54t-221 -146.5t-147 -220t-54.5 -268.5t54.5 -269t146.5 -221t220 -148t269 -55zM607 543l64 26q20 -70 73.5 -109t130.5 -39q73 0 119.5 36.5t46.5 111.5q0 46 -18 76t-52.5 43.5t-67.5 17.5t-79 4v57h4q33 0 57 2
t52 9t45 19.5t29 36t12 55.5q0 67 -45 102.5t-111 35.5q-68 0 -112.5 -37t-61.5 -104l-61 26q24 83 87.5 127.5t150.5 44.5q93 0 160 -47t67 -134q0 -60 -33.5 -101.5t-91.5 -60.5q68 -15 107.5 -62.5t39.5 -119.5q0 -98 -69 -149t-171 -51q-99 0 -170.5 48t-101.5 136z" />
    <glyph glyph-name="uni2463" unicode="&#x2463;" horiz-adv-x="1746" 
d="M874 -18q-157 0 -297 58.5t-240 158t-158.5 238.5t-58.5 294q0 208 100.5 380.5t274 271t382.5 98.5q207 0 379 -97.5t271.5 -269.5t99.5 -381q0 -156 -58.5 -295.5t-158.5 -239.5t-240 -158t-296 -58zM874 40q142 0 270 55t219.5 148.5t145.5 222.5t54 271
q0 189 -91 346.5t-248 248t-346 90.5q-143 0 -271.5 -54t-221 -146.5t-147 -220t-54.5 -268.5t54.5 -269t146.5 -221t220 -148t269 -55zM550 529v31l348 522h100v-493h97v-60h-97v-155h-75v155h-373zM636 589h287v440z" />
    <glyph glyph-name="uni2464" unicode="&#x2464;" horiz-adv-x="1746" 
d="M874 -18q-157 0 -297 58.5t-240 158t-158.5 238.5t-58.5 294q0 208 100.5 380.5t274 271t382.5 98.5q207 0 379 -97.5t271.5 -269.5t99.5 -381q0 -156 -58.5 -295.5t-158.5 -239.5t-240 -158t-296 -58zM874 40q142 0 270 55t219.5 148.5t145.5 222.5t54 271
q0 189 -91 346.5t-248 248t-346 90.5q-143 0 -271.5 -54t-221 -146.5t-147 -220t-54.5 -268.5t54.5 -269t146.5 -221t220 -148t269 -55zM633 508l60 27q45 -131 177 -131q81 0 127 49.5t46 126.5q0 78 -45 129t-122 51q-101 0 -165 -76h-43l4 377h408v-62h-346v-247
q62 66 168 66q101 0 160 -67t59 -169q0 -109 -68.5 -174.5t-178.5 -65.5q-87 0 -151 42.5t-90 123.5z" />
    <glyph glyph-name="uni2465" unicode="&#x2465;" horiz-adv-x="1746" 
d="M874 -18q-157 0 -297 58.5t-240 158t-158.5 238.5t-58.5 294q0 208 100.5 380.5t274 271t382.5 98.5q207 0 379 -97.5t271.5 -269.5t99.5 -381q0 -156 -58.5 -295.5t-158.5 -239.5t-240 -158t-296 -58zM874 40q142 0 270 55t219.5 148.5t145.5 222.5t54 271
q0 189 -91 346.5t-248 248t-346 90.5q-143 0 -271.5 -54t-221 -146.5t-147 -220t-54.5 -268.5t54.5 -269t146.5 -221t220 -148t269 -55zM1111 955l-61 -24q-18 51 -60.5 78.5t-99.5 27.5q-198 0 -198 -321q23 53 78 82.5t117 29.5q110 0 176.5 -57t66.5 -163
q0 -111 -73 -175t-187 -64q-132 0 -193 85t-61 225q0 66 5.5 119t23.5 110.5t47 96.5t81 64t122 25q73 0 131.5 -36t84.5 -103zM872 431q80 0 131 48t51 128q0 78 -47.5 124t-126.5 46t-130.5 -46.5t-51.5 -128.5q0 -77 47.5 -124t126.5 -47z" />
    <glyph glyph-name="uni2466" unicode="&#x2466;" horiz-adv-x="1746" 
d="M874 -18q-157 0 -297 58.5t-240 158t-158.5 238.5t-58.5 294q0 208 100.5 380.5t274 271t382.5 98.5q207 0 379 -97.5t271.5 -269.5t99.5 -381q0 -156 -58.5 -295.5t-158.5 -239.5t-240 -158t-296 -58zM874 40q142 0 270 55t219.5 148.5t145.5 222.5t54 271
q0 189 -91 346.5t-248 248t-346 90.5q-143 0 -271.5 -54t-221 -146.5t-147 -220t-54.5 -268.5t54.5 -269t146.5 -221t220 -148t269 -55zM751 326l280 645h-403v63h493v-32l-290 -676h-80z" />
    <glyph glyph-name="uni2467" unicode="&#x2467;" horiz-adv-x="1746" 
d="M874 -18q-157 0 -297 58.5t-240 158t-158.5 238.5t-58.5 294q0 208 100.5 380.5t274 271t382.5 98.5q207 0 379 -97.5t271.5 -269.5t99.5 -381q0 -156 -58.5 -295.5t-158.5 -239.5t-240 -158t-296 -58zM874 40q142 0 270 55t219.5 148.5t145.5 222.5t54 271
q0 189 -91 346.5t-248 248t-346 90.5q-143 0 -271.5 -54t-221 -146.5t-147 -220t-54.5 -268.5t54.5 -269t146.5 -221t220 -148t269 -55zM776 749q-60 19 -97.5 59.5t-37.5 100.5q0 57 37.5 98.5t88.5 59t107 17.5q89 0 158.5 -46.5t69.5 -131.5q0 -58 -34 -98.5t-93 -58.5
q158 -41 158 -186q0 -103 -74 -153.5t-181 -50.5q-109 0 -187 51t-78 152q0 74 44 120.5t119 66.5zM717 902q0 -61 48.5 -95t113.5 -34q63 0 107 32.5t44 92.5q0 62 -47 95.5t-109 33.5t-109.5 -32t-47.5 -93zM689 565q0 -73 54.5 -108.5t134.5 -35.5q78 0 128.5 35
t50.5 109q0 76 -52.5 115.5t-127.5 39.5q-76 0 -132 -40t-56 -115z" />
    <glyph glyph-name="uni2468" unicode="&#x2468;" horiz-adv-x="1746" 
d="M874 -18q-157 0 -297 58.5t-240 158t-158.5 238.5t-58.5 294q0 208 100.5 380.5t274 271t382.5 98.5q207 0 379 -97.5t271.5 -269.5t99.5 -381q0 -156 -58.5 -295.5t-158.5 -239.5t-240 -158t-296 -58zM874 40q142 0 270 55t219.5 148.5t145.5 222.5t54 271
q0 189 -91 346.5t-248 248t-346 90.5q-143 0 -271.5 -54t-221 -146.5t-147 -220t-54.5 -268.5t54.5 -269t146.5 -221t220 -148t269 -55zM625 508l59 27q18 -57 64.5 -86t111.5 -29q34 0 61.5 7.5t47 22.5t34 32.5t23.5 43.5t15 48t8.5 54.5t3 55t0.5 55.5q-25 -58 -81 -85.5
t-124 -27.5q-104 0 -168.5 60.5t-64.5 162.5q0 109 73 173t186 64q130 0 193.5 -85t63.5 -222q0 -50 -1.5 -87t-8 -84t-17.5 -80t-31.5 -67t-49 -55t-71 -34.5t-96.5 -13.5q-79 0 -144.5 39.5t-86.5 110.5zM690 844q0 -76 46 -120t125 -44q81 0 133.5 46t52.5 126
q0 77 -48 124.5t-127 47.5q-80 0 -131 -49.5t-51 -130.5z" />
    <glyph glyph-name="uni24C5" unicode="&#x24c5;" horiz-adv-x="1733" 
d="M867 -20q-157 0 -297 58.5t-240 158t-158.5 238.5t-58.5 294q0 208 100.5 380.5t274 271t382.5 98.5q207 0 379 -97.5t271.5 -269.5t99.5 -381q0 -156 -58.5 -295.5t-158.5 -239.5t-240 -158t-296 -58zM867 38q142 0 270 55t219.5 148.5t145.5 222.5t54 271
q0 189 -91 346.5t-248 248t-346 90.5q-143 0 -271.5 -54t-221 -146.5t-147 -220t-54.5 -268.5t54.5 -269t146.5 -221t220 -148t269 -55zM661 265v846h239q296 0 296 -247q0 -64 -20.5 -109.5t-51.5 -70.5t-80 -39t-92.5 -17.5t-102.5 -2.5l-106 1v-361h-82zM743 687h157
q214 0 214 185q0 97 -55 135t-159 38h-157v-358z" />
    <glyph glyph-name="filledbox" unicode="&#x25a0;" horiz-adv-x="1022" 
d="M138 361v742h746v-742h-746z" />
    <glyph glyph-name="uni25A1" unicode="&#x25a1;" horiz-adv-x="1022" 
d="M137 361v742h748v-742h-748zM229 455h564v554h-564v-554z" />
    <glyph glyph-name="lozenge" unicode="&#x25ca;" horiz-adv-x="826" 
d="M321 202l-234 530l234 541h93l-225 -541l225 -530h-93zM416 202l225 530l-225 541h89l234 -541l-234 -530h-89z" />
    <glyph glyph-name="circle" unicode="&#x25cb;" horiz-adv-x="1022" 
d="M111 732q0 175 112.5 287.5t287.5 112.5q174 0 286.5 -113t112.5 -287t-112.5 -287t-286.5 -113q-175 0 -287.5 112.5t-112.5 287.5zM200 731q0 -135 88 -221.5t223 -86.5t222.5 86.5t87.5 221.5q0 134 -88 222t-222 88q-135 0 -223 -87.5t-88 -222.5z" />
    <glyph glyph-name="uni25CF" unicode="&#x25cf;" horiz-adv-x="1022" 
d="M106 732q0 176 114.5 290t290.5 114t290 -114t114 -290t-114 -290t-290 -114t-290.5 114t-114.5 290z" />
    <glyph glyph-name="f_f" unicode="&#xfb00;" horiz-adv-x="1260" 
d="M217 -2v999h-166v74h166v180q0 148 76.5 234t218.5 86q63 0 138 -21l-28 -65q-43 12 -93 12q-114 0 -168 -64.5t-54 -177.5v-184h475v132q0 71 7 124t27 102t53.5 80t88 49.5t129.5 18.5q54 0 132 -20l-29 -66q-43 12 -93 12q-114 0 -169.5 -63t-55.5 -176v-193h314v-74
h-314v-999h-90v999h-475v-999h-90z" />
    <glyph glyph-name="fi" unicode="&#xfb01;" horiz-adv-x="1083" 
d="M217 -2v999h-166v74h166l-1 121q-1 71 5 126t24.5 107.5t49.5 86.5t82.5 54.5t122.5 20.5q63 0 141 -20l-29 -66q-38 12 -98 12q-107 0 -157 -64.5t-50 -174.5v-203h314v-74h-314v-999h-90zM803 1360q0 26 18.5 43.5t45.5 17.5t45 -17t18 -43t-18.5 -45.5t-44.5 -19.5
t-45 19t-19 45zM821 -2v1073h90v-1073h-90z" />
    <glyph glyph-name="fl" unicode="&#xfb02;" horiz-adv-x="1083" 
d="M821 0v1559l92 40v-1599h-92zM217 -2v999h-166v74h166l-1 121q0 72 6 126.5t24.5 107t49 86.5t82 54.5t122.5 20.5q63 0 141 -20l-29 -66q-38 12 -98 12q-107 0 -157 -64.5t-50 -174.5v-203h314v-74h-314v-999h-90z" />
    <glyph glyph-name="space.tab" horiz-adv-x="614" 
 />
    <glyph glyph-name="dollar.old" horiz-adv-x="1190" 
d="M559 -274v269q-181 8 -301 104.5t-168 274.5l76 33q43 -158 139 -242.5t254 -96.5v663q-69 10 -126.5 25.5t-115 44t-96.5 67.5t-63.5 98t-24.5 133q0 91 35.5 164t96.5 118t135.5 69.5t158.5 27.5v186h68v-188q158 -7 254.5 -82t150.5 -229l-71 -31q-45 130 -124.5 196
t-209.5 71v-598q84 -12 144.5 -26.5t122.5 -44t99.5 -71.5t61.5 -108.5t24 -154.5q0 -95 -37.5 -173.5t-101 -128t-144 -76.5t-169.5 -27v-267h-68zM559 815v588q-68 -3 -127 -21t-108 -52.5t-77 -92.5t-28 -133q0 -61 20 -107.5t49 -75t78 -51t90 -33t103 -22.5zM627 720
v-652q153 6 257.5 90t104.5 236q0 72 -19.5 125.5t-49 86t-80 56t-97 35.5t-116.5 23z" />
    <glyph glyph-name="dollar.oldtab" 
d="M586 -274v268q-186 10 -301.5 104.5t-169.5 278.5l76 33q52 -166 141.5 -247t253.5 -93v660q-89 13 -158.5 35.5t-133.5 63.5t-99 108.5t-35 159.5t35.5 164.5t96 117.5t135.5 69.5t159 27.5v186h67v-188q158 -8 255.5 -84t146.5 -230l-68 -28q-90 255 -334 266v-596
q83 -11 144 -26t122 -44.5t99.5 -71.5t62 -108.5t23.5 -153.5q0 -95 -37.5 -172.5t-100.5 -127t-143.5 -77t-169.5 -29.5v-266h-67zM586 814v586q-69 -3 -127.5 -21t-107.5 -52t-77 -91.5t-28 -132.5q0 -61 20 -107.5t49 -75t78 -51t90 -33t103 -22.5zM653 719v-649
q98 3 178 38t131.5 109.5t51.5 176.5q0 51 -10 93t-26 72.5t-43 55t-54.5 40t-68 28.5t-75.5 20.5t-84 15.5z" />
    <glyph glyph-name="dollar.tab" 
d="M578 -276v264q-173 8 -299 99t-175 254l74 31q42 -144 145 -222t255 -88v664q-72 12 -130 28t-117.5 45t-99.5 67.5t-65 97t-25 132.5q0 91 36.5 164.5t99 119t139.5 71t162 28.5v186h67v-188q159 -8 274 -94.5t148 -237.5l-74 -33q-24 131 -119 207t-229 80v-598
q61 -9 107 -19t97 -26t87.5 -36t71.5 -50.5t56.5 -69t34.5 -90.5t13 -116q0 -126 -67 -220.5t-171.5 -140t-228.5 -47.5v-262h-67zM578 811v592q-151 -7 -249 -79t-98 -214q0 -60 20.5 -108t52 -79t79.5 -54.5t93 -35.5t102 -22zM645 718v-656q102 3 185.5 38.5t137.5 110.5
t54 179q0 52 -10.5 94.5t-27.5 73.5t-45.5 55.5t-57.5 40t-71 28.5t-78.5 20.5t-86.5 15.5z" />
    <glyph glyph-name="percent.tab" horiz-adv-x="1432" 
d="M414 864q-127 0 -210 87.5t-83 215.5t83.5 220t211.5 92q127 0 209 -90t82 -218q0 -129 -83 -218t-210 -89zM191 0l960 1464h78l-960 -1464h-78zM416 930q97 0 155 69.5t58 168.5q0 100 -59.5 172.5t-158.5 72.5q-98 0 -155 -71t-57 -170q0 -101 59.5 -171.5t157.5 -70.5
zM1015 -12q-128 0 -211 89t-83 215q0 127 83.5 218.5t211.5 91.5q126 0 207.5 -89.5t81.5 -218.5t-81.5 -217.5t-208.5 -88.5zM1012 54q97 0 157 71t60 172q0 99 -58.5 169.5t-156.5 70.5q-99 0 -157 -71.5t-58 -170.5t58 -170t155 -71z" />
    <glyph glyph-name="parenleft.tab" horiz-adv-x="614" 
d="M547 -303h-84q-322 411 -322 945q0 517 322 934h84q-316 -419 -316 -936q0 -522 316 -943z" />
    <glyph glyph-name="parenleft.uc" horiz-adv-x="590" 
d="M530 -201h-86q-158 193 -241.5 423t-83.5 479q0 500 325 896h86q-323 -412 -323 -897q0 -484 323 -901z" />
    <glyph glyph-name="parenright.tab" horiz-adv-x="614" 
d="M158 -303h-84q315 421 315 942q0 516 -315 937h84q321 -417 321 -937q0 -536 -321 -942z" />
    <glyph glyph-name="parenright.uc" horiz-adv-x="590" 
d="M143 -201h-84q322 412 322 901q0 490 -322 897h84q328 -391 328 -897q0 -251 -83.5 -480t-244.5 -421z" />
    <glyph glyph-name="plus.sub" horiz-adv-x="661" 
d="M297 -90v227h-217v62h217v227h65v-227h220v-62h-220v-227h-65z" />
    <glyph glyph-name="plus.sup" horiz-adv-x="661" 
d="M297 950v225h-217v62h217v227h65v-227h220v-62h-220v-225h-65z" />
    <glyph glyph-name="plus.tab" 
d="M573 227v435h-403v75h403v437h82v-437h406v-75h-406v-435h-82z" />
    <glyph glyph-name="comma.tab" horiz-adv-x="614" 
d="M162 -205l137 342l88 -37l-162 -333z" />
    <glyph glyph-name="hyphen.uc" horiz-adv-x="737" 
d="M129 647v82h479v-82h-479z" />
    <glyph glyph-name="period.tab" horiz-adv-x="614" 
d="M240 59q0 29 20 48.5t49 19.5q30 0 50 -19t20 -49t-20 -49.5t-49 -19.5t-49.5 20t-20.5 49z" />
    <glyph glyph-name="slash.alt" horiz-adv-x="244" 
d="M-453 0l1076 1464h73l-1075 -1464h-74z" />
    <glyph glyph-name="slash.uc" horiz-adv-x="795" 
d="M72 -201l559 1805h84l-561 -1805h-82z" />
    <glyph glyph-name="zero.den" horiz-adv-x="733" 
d="M373 -8q-76 0 -134 26t-93 72t-52.5 106t-17.5 131q0 83 12 147.5t41.5 122t87.5 89t143 31.5q148 0 222.5 -91.5t74.5 -238.5q0 -84 -11.5 -148.5t-41 -123.5t-88 -91t-143.5 -32zM365 56q61 0 105 22t67.5 62t34 87t10.5 104q0 53 -3.5 93.5t-16 86t-34.5 74.5
t-61.5 48.5t-93.5 19.5q-79 0 -130 -39.5t-70 -97t-19 -132.5q0 -45 2.5 -79t9 -75t21.5 -69.5t37 -53.5t58 -38t83 -13z" />
    <glyph glyph-name="zero.num" horiz-adv-x="737" 
d="M375 745q-148 0 -222.5 93.5t-74.5 242.5q0 66 7 119.5t26 105t50 86.5t82 56.5t119 21.5q148 0 222.5 -91t74.5 -238q0 -66 -6.5 -119.5t-25.5 -106.5t-50 -89t-82.5 -58.5t-119.5 -22.5zM367 811q61 0 105 22.5t67.5 62t34 86t10.5 103.5q0 44 -2.5 78t-9.5 74
t-21.5 68.5t-37 53t-57.5 37.5t-81 13q-79 0 -130 -39.5t-70 -97.5t-19 -133q0 -38 1.5 -67.5t6.5 -65t14 -62t24.5 -53t37.5 -43t54.5 -27t72.5 -10.5z" />
    <glyph glyph-name="zero.old" horiz-adv-x="1272" 
d="M638 -16q-129 0 -233 48.5t-170.5 132t-101.5 192.5t-35 233v86q0 99 22 189t66.5 166.5t108 132t151.5 87t192 31.5q128 0 230.5 -47t169 -129t101.5 -190.5t35 -233.5v-88q0 -101 -21.5 -191.5t-65.5 -167t-107 -132.5t-150.5 -87.5t-191.5 -31.5zM639 59q91 0 165 29
t125 78.5t85.5 118t50.5 146t16 163.5v86q0 107 -27 200.5t-80 167.5t-140 117t-198 43t-198 -43.5t-140 -118t-80 -168t-27 -200.5v-86q0 -108 27 -202t80 -169t141 -118.5t200 -43.5z" />
    <glyph glyph-name="zero.oldtab" 
d="M619 -16q-125 0 -222.5 44t-157.5 122t-91 180t-31 223v159q0 119 30.5 221t89.5 180.5t155.5 123.5t219.5 45t220 -44t158 -121.5t92.5 -179.5t31.5 -221v-157q0 -123 -29.5 -225.5t-88 -181.5t-155 -123.5t-222.5 -44.5zM620 59q109 0 189 39.5t125.5 110t66.5 157.5
t21 193v157q0 100 -24 186.5t-72.5 156t-129 109t-184.5 39.5q-106 0 -185.5 -40t-126 -110.5t-69 -157t-22.5 -187.5v-159q0 -103 22.5 -189.5t69.5 -156t128.5 -109t190.5 -39.5z" />
    <glyph glyph-name="zero.sub" horiz-adv-x="737" 
d="M375 -190q-148 0 -222.5 92.5t-74.5 240.5q0 66 7 119.5t26 106t50 88t82 57.5t119 22q147 0 222 -92.5t75 -238.5q0 -84 -11.5 -148.5t-41 -123.5t-88 -91t-143.5 -32zM365 -127q61 0 105 22.5t68 62.5t35 86.5t11 102.5q0 54 -3.5 94t-16 86.5t-34.5 76t-61.5 49.5
t-94.5 20q-60 0 -103.5 -22t-68 -61t-35.5 -85.5t-11 -101.5q0 -39 1.5 -68.5t6.5 -65.5t13.5 -62.5t24 -53t37.5 -43t54 -27t72 -10.5z" />
    <glyph glyph-name="zero.sup" horiz-adv-x="737" 
d="M376 866q-76 0 -134 26t-93.5 72t-53 105.5t-17.5 130.5q0 66 7 119.5t26 105t50 86.5t82 56.5t119 21.5q148 0 222.5 -91t74.5 -238q0 -66 -6.5 -119.5t-25.5 -106.5t-49.5 -88.5t-81.5 -57.5t-120 -22zM366 930q61 0 105 22t68 62t34.5 86.5t10.5 103.5q0 44 -2.5 78
t-9.5 74t-22 68.5t-37.5 53t-57.5 37.5t-81 13q-60 0 -103.5 -22t-68 -61.5t-35.5 -85.5t-11 -102q0 -55 3 -95t15.5 -86.5t34 -76t61.5 -49.5t96 -20z" />
    <glyph glyph-name="zero.tab" 
d="M616 -14q-115 0 -204 37.5t-144.5 99t-91 149t-49.5 179.5t-14 199v162q0 104 14 196t49 180.5t90 151t142 101t199 38.5t200.5 -38t145.5 -101t94.5 -150t53 -179t15.5 -195v-160q0 -107 -13.5 -199t-48 -181t-89.5 -151.5t-144 -100.5t-205 -38zM617 66
q94 0 166.5 36.5t116.5 94t72 138t38 158t10 163.5v160q0 81 -12.5 159t-43.5 156t-76.5 136.5t-118 95t-162.5 36.5t-161 -37t-114.5 -95.5t-72 -137.5t-39.5 -156.5t-11 -160.5v-162q0 -85 11 -162.5t40 -156t73.5 -136t117.5 -93.5t166 -36z" />
    <glyph glyph-name="one.den" horiz-adv-x="453" 
d="M229 0v625l-184 -121v71l203 134h61v-709h-80z" />
    <glyph glyph-name="one.num" horiz-adv-x="457" 
d="M231 756v624l-184 -120v69l203 135h61v-708h-80z" />
    <glyph glyph-name="one.old" horiz-adv-x="723" 
d="M387 0v1165l-334 -225v84l355 242h69v-1266h-90z" />
    <glyph glyph-name="one.oldtab" 
d="M671 0v1163l-461 -348v86l479 365h70v-1266h-88z" />
    <glyph glyph-name="one.sub" horiz-adv-x="457" 
d="M231 -182v624l-184 -118v69l203 135h61v-710h-80z" />
    <glyph glyph-name="one.sup" horiz-adv-x="457" 
d="M231 874v625l-184 -121v70l203 135h61v-709h-80z" />
    <glyph glyph-name="one.tab" 
d="M672 0v1354l-473 -371v94l489 387h80v-1464h-96z" />
    <glyph glyph-name="two.den" horiz-adv-x="602" 
d="M43 0v23l268 260q34 33 51.5 51t42 50t35.5 64t11 68q0 66 -40.5 103t-105.5 37q-139 0 -186 -165l-58 24q22 93 85.5 147.5t158.5 54.5q94 0 157.5 -52.5t63.5 -148.5q0 -43 -13 -81.5t-41.5 -75.5t-51 -59.5t-63.5 -60.5l-39 -36l-148 -142h362v-61h-489z" />
    <glyph glyph-name="two.num" horiz-adv-x="606" 
d="M45 756v20l268 261q79 78 109.5 128.5t30.5 103.5q0 67 -40 103.5t-105 36.5q-74 0 -120.5 -45.5t-66.5 -117.5l-58 25q25 91 88.5 145t158.5 54q93 0 155.5 -51.5t62.5 -147.5q0 -77 -40 -136.5t-117 -131.5l-199 -186h362v-61h-489z" />
    <glyph glyph-name="two.old" horiz-adv-x="1073" 
d="M51 0v33l516 447q46 40 69 61t64 62t63 72.5t46.5 74t35.5 87.5t11 93q0 134 -85.5 205t-221.5 71q-157 0 -248.5 -93t-118.5 -250l-80 27q31 181 147 286.5t299 105.5q111 0 200.5 -38t144.5 -118.5t55 -191.5q0 -64 -20.5 -126t-47 -107t-76 -99.5t-83 -85t-92.5 -81.5
l-418 -359h764v-76h-924z" />
    <glyph glyph-name="two.oldtab" 
d="M128 0v33l516 447q40 34 60.5 52.5t56.5 53t55.5 58.5t45.5 61t39 69t22.5 72.5t9.5 81.5q0 135 -85.5 206.5t-221.5 71.5q-157 0 -249.5 -93.5t-115.5 -249.5l-80 27q28 180 145 286t301 106q171 0 283.5 -91.5t112.5 -257.5q0 -64 -20 -125.5t-46.5 -107.5t-75 -99
t-83 -84.5t-92.5 -81.5l-420 -359h766v-76h-924z" />
    <glyph glyph-name="two.sub" horiz-adv-x="606" 
d="M45 -182v22l268 262q79 78 109.5 127.5t30.5 101.5q0 69 -41 106.5t-106 37.5q-73 0 -119 -45.5t-66 -118.5l-58 25q24 93 87 146.5t157 53.5t157.5 -52.5t63.5 -149.5q0 -66 -38 -127.5t-136 -154.5l-182 -173h362v-61h-489z" />
    <glyph glyph-name="two.sup" horiz-adv-x="606" 
d="M45 874v21l209 205l37 34q37 35 57.5 56t49 56.5t42 72t13.5 74.5q0 66 -40.5 101.5t-105.5 35.5q-140 0 -188 -164l-58 25q25 92 88.5 145t158.5 53q93 0 156.5 -50t63.5 -145q0 -78 -41 -140.5t-115 -130.5l-200 -187h362v-62h-489z" />
    <glyph glyph-name="two.tab" 
d="M113 0v29l581 592q53 54 91.5 101t75.5 106.5t56 125.5t19 135q0 150 -88 231t-242 81q-282 0 -370 -350l-78 34q46 181 161 287.5t297 106.5t299 -104.5t117 -284.5q0 -143 -73 -268.5t-195 -246.5l-496 -493h791v-82h-946z" />
    <glyph glyph-name="three.den" horiz-adv-x="643" 
d="M55 176l64 27q20 -72 72.5 -112t130.5 -40q75 0 121 37t46 113q0 38 -13.5 65t-32.5 41.5t-50.5 22.5t-57.5 10t-63 2v55q34 0 57.5 1.5t52.5 9t46.5 20t30 36t12.5 56.5q0 67 -44.5 102.5t-111.5 35.5t-112 -36.5t-62 -103.5l-61 26q24 83 87.5 128t151.5 45
q92 0 159 -48.5t67 -135.5q0 -60 -34 -101.5t-91 -58.5q68 -15 107.5 -62.5t39.5 -120.5q0 -98 -69 -148t-172 -50q-100 0 -170.5 47t-100.5 137z" />
    <glyph glyph-name="three.num" horiz-adv-x="647" 
d="M57 929l64 26q20 -70 73.5 -109t130.5 -39q73 0 119.5 36.5t46.5 111.5q0 46 -18 76t-52.5 43.5t-67.5 17.5t-79 4v57h4q33 0 57 2t52 9t45 19.5t29 36t12 55.5q0 67 -45 102.5t-111 35.5q-68 0 -112.5 -37t-61.5 -104l-61 26q24 83 87.5 127.5t150.5 44.5q93 0 160 -47
t67 -134q0 -60 -33.5 -101.5t-91.5 -60.5q68 -15 107.5 -62.5t39.5 -119.5q0 -98 -69 -149t-171 -51q-99 0 -170.5 48t-101.5 136z" />
    <glyph glyph-name="three.old" horiz-adv-x="1137" 
d="M74 174l69 31q47 -168 150 -255t275 -87t276 87t104 257q0 155 -102 242.5t-260 87.5h-109v71h101q140 0 226.5 76.5t86.5 216.5q0 141 -87.5 224t-232.5 83q-146 0 -241 -84.5t-127 -230.5l-72 31q39 166 156 262t286 96q177 0 293.5 -101t116.5 -270q0 -127 -68.5 -216
t-185.5 -117q141 -28 226 -129.5t85 -243.5q0 -102 -37 -183t-102 -131t-148.5 -76t-181.5 -26q-195 0 -325 100t-172 285z" />
    <glyph glyph-name="three.oldtab" 
d="M117 174l69 31q47 -168 150 -255t275 -87t276 87t104 257q0 155 -102 242.5t-260 87.5h-109v71h101q140 0 226.5 76.5t86.5 216.5q0 141 -87.5 224t-232.5 83q-146 0 -241 -84.5t-127 -230.5l-72 31q38 166 156 262t287 96q177 0 293 -101.5t116 -269.5
q0 -127 -68.5 -216t-185.5 -117q141 -28 226 -129t85 -244q0 -102 -37 -183t-102 -131t-148.5 -76t-181.5 -26q-195 0 -325 100t-172 285z" />
    <glyph glyph-name="three.sub" horiz-adv-x="647" 
d="M57 -6l64 26q20 -71 73.5 -110t130.5 -39q73 0 119.5 36t46.5 109q0 78 -51.5 113t-127.5 35q-16 0 -38 -2v55q43 0 72 3.5t61.5 14.5t49 37t16.5 66q0 68 -45 103.5t-111 35.5q-67 0 -112 -36.5t-62 -104.5l-61 26q24 83 87.5 128t150.5 45q93 0 160 -48.5t67 -136.5
q0 -59 -33.5 -99.5t-91.5 -57.5q68 -15 107.5 -63t39.5 -121q0 -99 -69 -149t-173 -50q-100 0 -170 46.5t-100 137.5z" />
    <glyph glyph-name="three.sup" horiz-adv-x="647" 
d="M57 1049l64 26q20 -71 73.5 -110t130.5 -39q73 0 119.5 36.5t46.5 112.5q0 38 -13 65t-32.5 41.5t-50.5 23t-57.5 10.5t-63.5 2v55q34 0 57.5 1.5t52.5 9t46.5 20t30 36t12.5 56.5q0 68 -44 103.5t-111 35.5q-68 0 -113 -37.5t-62 -105.5l-61 26q23 84 87 128t152 44
q93 0 159.5 -46.5t66.5 -133.5q0 -61 -33.5 -102t-91.5 -60q69 -14 108 -61.5t39 -119.5q0 -99 -69 -149.5t-172 -50.5q-99 0 -170.5 47t-100.5 136z" />
    <glyph glyph-name="three.tab" 
d="M126 371l76 32q26 -158 133 -247.5t268 -89.5q173 0 273 87.5t100 261.5q0 68 -15.5 120t-47 85.5t-69 55.5t-91.5 32.5t-103.5 14.5t-115.5 4v78l76 -1q148 -2 234.5 71.5t86.5 214.5q0 142 -86 225.5t-228 83.5t-234.5 -84t-125.5 -228l-76 33q40 166 156 262.5
t283 96.5q175 0 290 -102.5t115 -269.5q0 -125 -66 -216.5t-180 -118.5q143 -27 219 -125.5t76 -245.5q0 -133 -64 -229t-166 -141t-230 -45q-191 0 -326 102.5t-162 282.5z" />
    <glyph glyph-name="four.den" horiz-adv-x="645" 
d="M43 158v28l348 523h100v-494h97v-57h-97v-158h-75v158h-373zM129 215h287v440z" />
    <glyph glyph-name="four.num" horiz-adv-x="649" 
d="M45 911v31l348 522h100v-493h97v-60h-97v-155h-75v155h-373zM131 971h287v440z" />
    <glyph glyph-name="four.old" horiz-adv-x="1206" 
d="M57 141v37l731 1088h130v-1051h204v-74h-204v-340h-91v340h-770zM168 215h659v985z" />
    <glyph glyph-name="four.oldtab" 
d="M82 141v37l711 1088h133v-1051h196v-74h-196v-340h-90v340h-754zM188 215h648v983z" />
    <glyph glyph-name="four.sub" horiz-adv-x="649" 
d="M45 -25v31l348 522h100v-495h97v-58h-97v-157h-75v157h-373zM131 33h287v440z" />
    <glyph glyph-name="four.sup" horiz-adv-x="649" 
d="M45 1030v31l348 522h100v-493h97v-60h-97v-156h-75v156h-373zM131 1090h287v440z" />
    <glyph glyph-name="four.tab" 
d="M90 340v39l717 1085h117v-1046h190v-78h-190v-340h-95v340h-739zM205 418h627v955z" />
    <glyph glyph-name="five.den" horiz-adv-x="614" 
d="M55 158l60 26q44 -131 180 -131q80 0 125 47.5t45 125.5t-45 130t-123 52q-101 0 -164 -76h-43l4 377h408v-61h-346v-247q61 64 167 64q101 0 160.5 -66.5t59.5 -168.5q0 -109 -67.5 -173.5t-178.5 -64.5q-88 0 -152 42t-90 124z" />
    <glyph glyph-name="five.num" horiz-adv-x="618" 
d="M57 911l60 27q45 -131 177 -131q81 0 127 49.5t46 126.5q0 78 -45 129t-122 51q-101 0 -165 -76h-43l4 377h408v-62h-346v-247q62 66 168 66q101 0 160 -67t59 -169q0 -109 -68.5 -174.5t-178.5 -65.5q-87 0 -151 42.5t-90 123.5z" />
    <glyph glyph-name="five.old" horiz-adv-x="1116" 
d="M72 132l73 31q39 -146 136.5 -222t246.5 -76q186 0 290 112.5t104 297.5q0 167 -98 278t-263 111q-237 0 -366 -166h-41l2 768h784v-76h-709l-2 -590q63 67 157 101t193 34q199 0 318 -131.5t119 -335.5q0 -215 -132.5 -347t-351.5 -132q-175 0 -297 88.5t-163 254.5z
" />
    <glyph glyph-name="five.oldtab" 
d="M125 132l76 29q93 -296 388 -296q186 0 289 110t103 296q0 166 -98 279.5t-262 113.5q-228 0 -365 -166h-41l2 768h780v-76h-704l-2 -590q61 66 155 100.5t192 34.5q199 0 317 -132t118 -336q0 -215 -132.5 -346.5t-350.5 -131.5q-173 0 -290 88t-175 255z" />
    <glyph glyph-name="five.sub" horiz-adv-x="618" 
d="M57 -25l60 27q44 -131 177 -131q83 0 128 48t45 127t-44.5 130t-121.5 51q-101 0 -166 -77h-43l4 378h408v-61h-346v-248q60 64 166 64q102 0 161.5 -66.5t59.5 -169.5q0 -109 -68 -173t-179 -64q-88 0 -151.5 41.5t-89.5 123.5z" />
    <glyph glyph-name="five.sup" horiz-adv-x="618" 
d="M57 1030l60 27q45 -131 177 -131q82 0 127.5 49t45.5 126q0 78 -45 129.5t-122 51.5q-101 0 -165 -76h-43l4 377h408v-61h-346v-248q59 65 165 65q103 0 162.5 -66t59.5 -168q0 -110 -69 -175t-180 -65q-86 0 -149.5 41.5t-89.5 123.5z" />
    <glyph glyph-name="five.tab" 
d="M123 361l86 9q19 -145 124 -224.5t258 -79.5q182 0 284 110t102 296q0 167 -101.5 280.5t-267.5 113.5q-231 0 -362 -166h-45l2 764h794v-80h-712v-575q63 69 153.5 103t188.5 34q102 0 186.5 -37t141 -102t87.5 -153.5t31 -189.5q0 -216 -130 -347t-346 -131
q-122 0 -224 42t-170 128.5t-80 204.5z" />
    <glyph glyph-name="six.den" horiz-adv-x="668" 
d="M575 575l-61 -24q-19 51 -61 78.5t-100 27.5q-197 0 -197 -321q25 56 82.5 85.5t125.5 29.5q101 0 165.5 -61.5t64.5 -163.5q0 -109 -73.5 -171.5t-186.5 -62.5q-131 0 -192.5 85t-61.5 224q0 53 4 98.5t14.5 95t31 87.5t50 69.5t75.5 48.5t104 17q73 0 131 -37.5
t85 -104.5zM339 52q78 0 128.5 48t50.5 129q0 77 -47 122.5t-127 45.5q-79 0 -130.5 -45.5t-51.5 -125.5q0 -77 49 -125.5t128 -48.5z" />
    <glyph glyph-name="six.num" horiz-adv-x="672" 
d="M577 1331l-61 -24q-18 51 -60.5 78.5t-99.5 27.5q-198 0 -198 -321q23 53 78 82.5t117 29.5q110 0 176.5 -57t66.5 -163q0 -111 -73 -175t-187 -64q-132 0 -193 85t-61 225q0 66 5.5 119t23.5 110.5t47 96.5t81 64t122 25q73 0 131.5 -36t84.5 -103zM338 807q80 0 131 48
t51 128q0 78 -47.5 124t-126.5 46t-130.5 -46.5t-51.5 -128.5q0 -77 47.5 -124t126.5 -47z" />
    <glyph glyph-name="six.old" horiz-adv-x="1169" 
d="M1028 1198l-70 -31q-76 238 -330 238q-101 0 -179 -40.5t-124.5 -103.5t-76 -151.5t-40 -173.5t-10.5 -180v-127q42 122 157.5 194t250.5 72q215 0 343 -118.5t128 -325.5q0 -215 -135 -341t-352 -126q-124 0 -218.5 44t-151.5 123t-85.5 181t-28.5 225v184
q0 113 14.5 213t52.5 198.5t97 169t154 114t217 43.5q141 0 241 -73.5t146 -207.5zM600 58q172 0 278.5 106t106.5 279q0 183 -103 282.5t-286 99.5q-162 0 -275.5 -101.5t-113.5 -261.5q0 -179 107.5 -291.5t285.5 -112.5z" />
    <glyph glyph-name="six.oldtab" 
d="M1063 1198l-69 -31q-87 238 -331 238q-102 0 -180 -40.5t-124 -103.5t-75.5 -151.5t-39.5 -172.5t-10 -179v-129q39 122 153.5 194t247.5 72q216 0 341.5 -120t125.5 -335q0 -205 -134 -330.5t-347 -125.5q-122 0 -215 44.5t-149.5 123t-85 179.5t-28.5 222v197
q0 112 14.5 211t51.5 196t94 166.5t149 112.5t210 43q307 0 401 -281zM629 57q171 0 276.5 107t105.5 278q0 183 -101 283t-283 100q-161 0 -272 -102t-111 -262q0 -178 104.5 -291t280.5 -113z" />
    <glyph glyph-name="six.sub" horiz-adv-x="672" 
d="M577 395l-61 -24q-18 51 -60.5 78.5t-99.5 27.5q-198 0 -198 -323q24 53 79 83.5t116 30.5q110 0 176.5 -57t66.5 -164q0 -112 -72 -174.5t-186 -62.5q-133 0 -194.5 84.5t-61.5 224.5q0 65 5.5 118.5t23.5 111t47 96.5t81 64.5t122 25.5q73 0 131.5 -36.5t84.5 -103.5z
M340 -129q80 0 130 47t50 128q0 78 -47.5 124.5t-127.5 46.5q-79 0 -130 -46t-51 -128q0 -78 47.5 -125t128.5 -47z" />
    <glyph glyph-name="six.sup" horiz-adv-x="672" 
d="M577 1450l-61 -25q-18 52 -59 79.5t-99 27.5q-200 0 -200 -322q23 54 78 83.5t117 29.5q109 0 176 -57t67 -163q0 -111 -73 -174t-187 -63q-132 0 -193 83.5t-61 224.5q0 65 5.5 118.5t23.5 111t47.5 96t81 64t121.5 25.5q73 0 131.5 -36t84.5 -103zM338 926
q80 0 131 47.5t51 128.5q0 78 -47.5 124t-126.5 46t-130.5 -46.5t-51.5 -128.5q0 -77 47.5 -124t126.5 -47z" />
    <glyph glyph-name="six.tab" 
d="M1081 1190l-75 -35q-35 121 -120 182.5t-212 61.5q-69 0 -127 -16t-100 -41.5t-76 -67t-56.5 -83t-38.5 -99.5t-24.5 -106.5t-13.5 -114t-6 -112.5t-1 -111q48 135 161.5 204.5t264.5 69.5q210 0 339.5 -125.5t129.5 -333.5q0 -215 -137 -346t-350 -131q-104 0 -188 29.5
t-142.5 81.5t-98 125.5t-57.5 160t-18 185.5v228q0 105 19 202.5t61 185.5t104 153t154 103.5t204 38.5q154 0 258 -72.5t146 -216.5zM637 63q177 0 285 109t108 285q0 186 -104.5 287t-290.5 101q-167 0 -281 -102.5t-114 -267.5q0 -184 107.5 -298t289.5 -114z" />
    <glyph glyph-name="seven.den" horiz-adv-x="573" 
d="M160 0l280 645h-403v64h493v-31l-290 -678h-80z" />
    <glyph glyph-name="seven.num" horiz-adv-x="575" 
d="M162 756l280 645h-403v63h493v-32l-290 -676h-80z" />
    <glyph glyph-name="seven.old" horiz-adv-x="1006" 
d="M279 -199l579 1389h-805v76h914v-37l-592 -1428h-96z" />
    <glyph glyph-name="seven.oldtab" 
d="M385 -199l584 1389h-803v76h911v-37l-596 -1428h-96z" />
    <glyph glyph-name="seven.sub" horiz-adv-x="577" 
d="M162 -182l280 645h-403v65h493v-32l-290 -678h-80z" />
    <glyph glyph-name="seven.sup" horiz-adv-x="577" 
d="M162 874l280 646h-403v63h493v-33l-290 -676h-80z" />
    <glyph glyph-name="seven.tab" 
d="M400 0l572 1384h-811v80h928v-41l-586 -1423h-103z" />
    <glyph glyph-name="eight.den" horiz-adv-x="663" 
d="M235 379q-60 18 -97.5 59t-37.5 101q0 58 37 100t88.5 60t107.5 18q89 0 158.5 -47.5t69.5 -133.5q0 -58 -34 -98.5t-93 -58.5q73 -16 115.5 -63t42.5 -124q0 -69 -37.5 -116t-93 -65.5t-124.5 -18.5q-52 0 -97.5 11t-84 34t-61 63t-22.5 92q0 145 163 187zM176 535
q0 -61 50 -96.5t114 -35.5q61 0 105 33.5t44 93.5q0 62 -46.5 94.5t-109.5 32.5q-62 0 -109.5 -31.5t-47.5 -90.5zM148 199q0 -73 54.5 -110t134.5 -37q77 0 128 36.5t51 109.5q0 75 -53 113.5t-128 38.5q-76 0 -131.5 -38.5t-55.5 -112.5z" />
    <glyph glyph-name="eight.num" horiz-adv-x="667" 
d="M237 1135q-60 19 -97.5 59.5t-37.5 100.5q0 57 37.5 98.5t88.5 59t107 17.5q89 0 158.5 -46.5t69.5 -131.5q0 -58 -34 -98.5t-93 -58.5q158 -41 158 -186q0 -103 -74 -153.5t-181 -50.5q-109 0 -187 51t-78 152q0 74 44 120.5t119 66.5zM178 1288q0 -61 48.5 -95
t113.5 -34q63 0 107 32.5t44 92.5q0 62 -47 95.5t-109 33.5t-109.5 -32t-47.5 -93zM150 951q0 -73 54.5 -108.5t134.5 -35.5q78 0 128.5 35t50.5 109q0 76 -52.5 115.5t-127.5 39.5q-76 0 -132 -40t-56 -115z" />
    <glyph glyph-name="eight.old" horiz-adv-x="1157" 
d="M433 781q-124 36 -199.5 121.5t-75.5 209.5q0 83 36 153.5t96 116.5t135 71.5t155 25.5t154.5 -25.5t133.5 -71.5t95 -117.5t36 -156.5q0 -122 -70.5 -207t-194.5 -120q148 -34 239.5 -132t91.5 -244q0 -102 -39 -183.5t-106 -132t-153.5 -77t-184.5 -26.5
q-97 0 -183.5 26t-155.5 75.5t-109 129.5t-40 181q0 147 95.5 248t243.5 135zM250 1113q0 -136 100 -218t241 -82q137 0 228.5 79t91.5 213q0 139 -97 220.5t-234 81.5q-136 0 -233 -80.5t-97 -213.5zM186 396q0 -158 114 -246.5t285 -88.5q170 0 279 89t109 257
q0 106 -56 184t-141.5 114t-188.5 36q-105 0 -194.5 -37.5t-148 -118t-58.5 -189.5z" />
    <glyph glyph-name="eight.oldtab" 
d="M470 781q-124 37 -197.5 121t-73.5 208q0 111 59.5 196.5t153 129t201.5 43.5q80 0 154 -25.5t133 -71.5t94.5 -118t35.5 -158q0 -122 -70 -206.5t-195 -118.5q148 -34 238.5 -131.5t90.5 -244.5q0 -102 -38.5 -183t-104.5 -132t-151 -77.5t-183 -26.5q-97 0 -183 26.5
t-152.5 76t-105.5 127.5t-39 175q0 153 92 254.5t241 135.5zM289 1113q0 -90 47.5 -159.5t124 -105t167.5 -35.5q136 0 224 80.5t88 220.5q0 133 -96 213t-231 80q-136 0 -230 -81t-94 -213zM227 396q0 -159 111 -247t281 -88q109 0 194.5 36.5t138 116t52.5 193.5
q0 105 -55 182.5t-141 114.5t-190 37q-105 0 -192 -38t-143 -118t-56 -189z" />
    <glyph glyph-name="eight.sub" horiz-adv-x="667" 
d="M237 197q-60 19 -97.5 60t-37.5 100q0 58 37.5 100t89 60t106.5 18q89 0 158.5 -47.5t69.5 -132.5q0 -58 -34.5 -98.5t-92.5 -57.5q158 -40 158 -187q0 -71 -38 -118t-92.5 -65.5t-123.5 -18.5q-51 0 -97 11.5t-84.5 34.5t-61.5 63t-23 93q0 73 44 119.5t119 65.5z
M178 352q0 -61 48.5 -95t113.5 -34q63 0 107 33t44 93q0 62 -47 95t-109 33t-109.5 -32t-47.5 -93zM150 15q0 -73 54.5 -108.5t134.5 -35.5q78 0 128.5 35t50.5 109q0 76 -52.5 115.5t-127.5 39.5q-76 0 -132 -40t-56 -115z" />
    <glyph glyph-name="eight.sup" horiz-adv-x="667" 
d="M237 1253q-60 19 -97.5 59.5t-37.5 100.5q0 58 37.5 99.5t88.5 59t107 17.5q89 0 158.5 -46.5t69.5 -131.5q0 -58 -34.5 -98.5t-92.5 -59.5q73 -17 115.5 -63.5t42.5 -122.5q0 -102 -73.5 -151.5t-181.5 -49.5q-70 0 -127.5 19t-97.5 66t-40 116q0 144 163 186zM178 1407
q0 -61 48 -95t114 -34q63 0 107 32.5t44 92.5q0 62 -47 95.5t-109 33.5t-109.5 -32t-47.5 -93zM150 1069q0 -72 54.5 -107.5t134.5 -35.5q78 0 128.5 34.5t50.5 108.5q0 76 -53 116t-128 40t-131 -40.5t-56 -115.5z" />
    <glyph glyph-name="eight.tab" 
d="M473 788q-126 34 -203 119t-77 210q0 110 62 194.5t157.5 126t203.5 41.5q80 0 155 -24.5t135 -70t96 -116.5t36 -156q0 -123 -72 -207t-198 -117q152 -30 244 -128.5t92 -249.5q0 -104 -39 -186t-106 -133.5t-153.5 -78t-185.5 -26.5t-186.5 26.5t-156.5 76t-109.5 129
t-40.5 178.5q0 157 95.5 257.5t250.5 134.5zM285 1118q0 -91 50.5 -159.5t127.5 -102t167 -33.5q135 0 225.5 76.5t90.5 207.5q0 92 -47.5 161t-122 102t-163.5 33q-136 0 -232 -77t-96 -208zM225 400q0 -160 111.5 -247t284.5 -87q172 0 278.5 88.5t106.5 259.5
q0 158 -111.5 247t-272.5 89q-78 0 -148.5 -22.5t-126.5 -65t-89 -110.5t-33 -152z" />
    <glyph glyph-name="nine.den" horiz-adv-x="666" 
d="M82 143l59 25q37 -117 176 -117q39 0 69.5 10.5t50.5 27t34 43.5t21.5 51.5t11.5 61t5 62.5t1 64q-23 -54 -77 -83.5t-116 -29.5q-111 0 -178 57t-67 164q0 112 72 176t186 64q132 0 195 -84.5t63 -222.5q0 -50 -1.5 -87t-8 -83.5t-17.5 -79.5t-32 -67t-49 -55
t-70.5 -34.5t-96.5 -13.5q-81 0 -145.5 39t-85.5 112zM147 479q0 -77 47.5 -122.5t126.5 -45.5t131 46t52 127q0 77 -48 125t-127 48q-80 0 -131 -49t-51 -129z" />
    <glyph glyph-name="nine.num" horiz-adv-x="670" 
d="M84 895l59 27q18 -57 64.5 -86t111.5 -29q34 0 61.5 7.5t47 22.5t34 32.5t23.5 43.5t15 48t8.5 54.5t3 55t0.5 55.5q-25 -58 -81 -85.5t-124 -27.5q-104 0 -168.5 60.5t-64.5 162.5q0 109 73 173t186 64q130 0 193.5 -85t63.5 -222q0 -50 -1.5 -87t-8 -84t-17.5 -80
t-31.5 -67t-49 -55t-71 -34.5t-96.5 -13.5q-79 0 -144.5 39.5t-86.5 110.5zM149 1231q0 -76 46 -120t125 -44q81 0 133.5 46t52.5 126q0 77 -48 124.5t-127 47.5q-80 0 -131 -49.5t-51 -130.5z" />
    <glyph glyph-name="nine.old" horiz-adv-x="1169" 
d="M123 92l74 31q87 -260 358 -260q418 0 418 633v143q-43 -124 -157.5 -196t-250.5 -72q-214 0 -343.5 119t-129.5 325q0 212 134.5 339.5t342.5 127.5q485 0 494 -578l2 -134q1 -84 -2.5 -156t-17 -154t-36 -148t-62 -128.5t-92.5 -104t-130.5 -67t-173.5 -25.5
q-158 0 -269 78t-159 227zM184 816q0 -174 104 -274t283 -100q166 0 278 102t112 266q0 180 -105.5 288t-282.5 108q-176 0 -282.5 -106.5t-106.5 -283.5z" />
    <glyph glyph-name="nine.oldtab" 
d="M153 94l74 31q87 -262 358 -262q65 0 119 15.5t93.5 40t71 65t52 80t35 96.5t22 102.5t11.5 110t5 107t1 104.5v54q-38 -123 -151 -195t-247 -72q-212 0 -340 120.5t-128 325.5q0 211 132.5 338t339.5 127q127 0 222 -44t151.5 -123t83.5 -179.5t27 -223.5v-209
q0 -716 -496 -716q-164 0 -275 77.5t-161 229.5zM219 816q0 -174 103.5 -273.5t282.5 -99.5q163 0 272.5 103.5t109.5 265.5q0 180 -102.5 289t-278.5 109t-281.5 -108t-105.5 -286z" />
    <glyph glyph-name="nine.sub" horiz-adv-x="670" 
d="M84 -39l59 25q18 -57 65 -86t112 -29q38 0 68.5 10.5t50.5 26.5t34 43.5t21.5 51.5t11.5 60.5t5 62.5t1 64q-23 -53 -78 -83.5t-115 -30.5q-109 0 -177 59t-68 165q0 110 72.5 174t186.5 64q130 0 193.5 -84.5t63.5 -222.5v-73q0 -348 -275 -348q-80 0 -145 39t-86 112z
M149 296q0 -76 46 -120.5t125 -44.5q81 0 133.5 46t52.5 127q0 77 -48 125t-127 48q-80 0 -131 -49.5t-51 -131.5z" />
    <glyph glyph-name="nine.sup" horiz-adv-x="670" 
d="M84 1016l59 24q18 -57 64.5 -85.5t111.5 -28.5q34 0 61.5 7.5t47 22.5t34 32.5t23.5 43.5t15 48t8.5 54.5t3 55t0.5 55.5q-24 -57 -81 -85t-124 -28q-103 0 -168 61.5t-65 163.5q0 108 72.5 171t185.5 63q131 0 194.5 -84t63.5 -221q0 -51 -1.5 -88t-8 -83.5t-17.5 -79.5
t-31.5 -67t-49 -55t-71 -34t-96.5 -13q-79 0 -144.5 39t-86.5 111zM149 1352q0 -75 47.5 -120.5t126.5 -45.5t131 45.5t52 126.5q0 77 -48 125t-126 48q-80 0 -131.5 -49.5t-51.5 -129.5z" />
    <glyph glyph-name="nine.tab" 
d="M141 293l72 33q78 -260 371 -260q80 0 144.5 20t108 52t75 82.5t49.5 101.5t28.5 120t13.5 127t3 132v104q-46 -125 -166.5 -193.5t-261.5 -68.5q-215 0 -342 124t-127 332q0 218 136.5 349t350.5 131q129 0 227 -43.5t157.5 -122.5t89.5 -181.5t30 -227.5v-216
q0 -118 -12 -213.5t-47 -189.5t-91 -157.5t-150.5 -102.5t-219.5 -39q-162 0 -280 78t-159 229zM592 616q107 0 198.5 43t149 127t57.5 192q0 184 -109.5 302.5t-294.5 118.5q-175 0 -282.5 -109t-107.5 -290q0 -177 104 -280.5t285 -103.5z" />
    <glyph glyph-name="colon.alt" horiz-adv-x="614" 
d="M237 1079q0 29 20.5 48.5t49.5 19.5t49.5 -20t20.5 -49q0 -30 -19.5 -49t-48.5 -19q-30 0 -51 20t-21 49zM237 249q0 30 20 49t50 19t50 -19t20 -49t-20 -49.5t-50 -19.5q-29 0 -49.5 20t-20.5 49z" />
    <glyph glyph-name="colon.tab" horiz-adv-x="614" 
d="M240 1178q0 28 20 48.5t49 20.5t49.5 -20t20.5 -49q0 -30 -19.5 -49t-48.5 -19t-50 20t-21 48zM240 249q0 29 20 48.5t49 19.5q30 0 50 -19t20 -49t-20 -49.5t-49 -19.5t-49.5 20t-20.5 49z" />
    <glyph glyph-name="semicolon.tab" horiz-adv-x="614" 
d="M315 684q-30 0 -49.5 19.5t-19.5 48.5t20 49t50 20q29 0 48 -19.5t19 -49.5t-19.5 -49t-48.5 -19zM143 -205l138 342l88 -37l-164 -333z" />
    <glyph glyph-name="less.tab" 
d="M209 682v25l795 440v-88l-664 -365l664 -364v-88z" />
    <glyph glyph-name="equal.tab" 
d="M197 819v76h835v-76h-835zM197 469v76h835v-76h-835z" />
    <glyph glyph-name="greater.tab" 
d="M227 240v86l664 364l-664 365v88l795 -441v-24z" />
    <glyph glyph-name="at.uc" horiz-adv-x="1825" 
d="M1500 172l63 -27q-103 -135 -274 -201.5t-360 -66.5q-237 0 -425 99.5t-295 284.5t-107 424q0 171 67 328.5t180 272.5t270 183.5t329 68.5q162 0 304.5 -51t248 -142.5t167 -228.5t61.5 -301q0 -69 -10.5 -136t-36 -134.5t-63.5 -118.5t-99 -83t-137 -32
q-102 0 -161.5 56t-62.5 162q-40 -98 -125 -164t-186 -66q-150 0 -231.5 96.5t-81.5 247.5q0 84 26 166t73 148.5t119.5 107.5t157.5 41q102 0 178.5 -56.5t94.5 -150.5l20 189h86l-58 -537q-4 -80 35.5 -127t121.5 -47q62 0 110 29.5t76.5 74t46.5 105t24.5 114.5t6.5 110
q0 205 -92.5 356t-251 227.5t-361.5 76.5q-213 0 -390.5 -105.5t-278.5 -285.5t-101 -392q0 -220 95.5 -389.5t266.5 -261t390 -91.5q173 0 322.5 54t247.5 173zM855 367q72 0 132 36t98 93t59 125t21 136q0 117 -61 199t-176 82q-73 0 -133.5 -36t-97 -93.5t-56.5 -125
t-20 -134.5q0 -121 61.5 -201.5t172.5 -80.5z" />
    <glyph glyph-name="bracketleft.tab" horiz-adv-x="614" 
d="M162 -303v1892h375v-70h-289v-1752h289v-70h-375z" />
    <glyph glyph-name="bracketleft.uc" horiz-adv-x="692" 
d="M195 -201v1805h411v-80h-321v-1641h321v-84h-411z" />
    <glyph glyph-name="backslash.uc" horiz-adv-x="795" 
d="M641 -201l-561 1805h84l559 -1805h-82z" />
    <glyph glyph-name="bracketright.tab" horiz-adv-x="614" 
d="M82 -303v70h289v1752h-289v70h375v-1892h-375z" />
    <glyph glyph-name="bracketright.uc" horiz-adv-x="692" 
d="M84 -201v84h324v1641h-324v80h412v-1805h-412z" />
    <glyph glyph-name="grave.uc" horiz-adv-x="823" 
d="M381 1577l-168 250h104l138 -250h-74z" />
    <glyph glyph-name="a.alt" horiz-adv-x="1241" 
d="M979 0v281q-49 -131 -162.5 -214t-251.5 -83q-111 0 -202 44.5t-149 120t-89 172.5t-31 205q0 148 54.5 272t166.5 202.5t262 78.5q144 0 246.5 -71t155.5 -203v266h88v-1071h-88zM574 57q127 0 222 68t141 173t46 228q0 95 -22.5 179t-67.5 152.5t-122 108.5t-178 40
q-130 0 -224.5 -66t-139.5 -171.5t-45 -236.5q0 -91 23.5 -174t69.5 -151.5t122.5 -109t174.5 -40.5z" />
    <glyph glyph-name="f_f.short" horiz-adv-x="1239" 
d="M217 -2v999h-166v74h166v180q0 148 76.5 234t218.5 86q63 0 138 -21l-28 -65q-43 12 -93 12q-114 0 -168 -64.5t-54 -177.5v-184h475v128q0 70 6 120.5t24.5 100.5t50 81.5t84.5 50.5t126 19q53 0 131 -20l-28 -66q-43 12 -95 12q-209 0 -209 -223v-203h314v-74h-314
v-999h-90v999h-475v-999h-90z" />
    <glyph glyph-name="f.short" horiz-adv-x="676" 
d="M217 -2v999h-166v74h166l-1 121q0 72 6 126.5t24.5 107t49 86.5t82 54.5t122.5 20.5q63 0 141 -20l-29 -66q-38 12 -98 12q-107 0 -157 -64.5t-50 -174.5v-203h314v-74h-314v-999h-90z" />
    <glyph glyph-name="t.alt" horiz-adv-x="659" 
d="M239 0v999h-184v72h184v242l91 41v-283h268v-72h-268v-999h-91z" />
    </font>
</defs>
</svg>
