<?xml version="1.0" standalone="no"?>
<!DOCTYPE svg PUBLIC "-//W3C//DTD SVG 1.1//EN" "http://www.w3.org/Graphics/SVG/1.1/DTD/svg11.dtd" >
<svg xmlns="http://www.w3.org/2000/svg" xmlns:xlink="http://www.w3.org/1999/xlink" version="1.1">
<metadata>
Created by FontForge 20201107 at Mon Nov 22 05:29:47 2021
 By 
(c) 2021 Zoho Corporation Pvt. Ltd. All rights reserved.
</metadata>
<defs>
<font id="ZohoPuvi-Light" horiz-adv-x="1231" >
  <font-face 
    font-family="Zoho Puvi Light"
    font-weight="300"
    font-stretch="normal"
    units-per-em="2048"
    panose-1="2 1 4 3 2 2 1 1 2 4"
    ascent="1638"
    descent="-410"
    x-height="1071"
    cap-height="1464"
    bbox="-473 -436 2350 2224"
    underline-thickness="102"
    underline-position="-205"
    unicode-range="U+000D-FB02"
  />
<missing-glyph horiz-adv-x="1030" 
 />
    <glyph glyph-name=".notdef" horiz-adv-x="1030" 
 />
    <glyph glyph-name="uni0000" horiz-adv-x="0" 
 />
    <glyph glyph-name="uni0000" horiz-adv-x="0" 
 />
    <glyph glyph-name="uni000D" unicode="&#xd;" horiz-adv-x="512" 
 />
    <glyph glyph-name="space" unicode=" " horiz-adv-x="469" 
 />
    <glyph glyph-name="exclam" unicode="!" horiz-adv-x="657" 
d="M284 358l-15 1106h123l-16 -1106h-92zM329 -12q-33 0 -57.5 23.5t-24.5 56.5q0 32 25 54.5t57 22.5q33 0 57.5 -22.5t24.5 -54.5q0 -33 -24.5 -56.5t-57.5 -23.5z" />
    <glyph glyph-name="quotedbl" unicode="&#x22;" horiz-adv-x="690" 
d="M261 1059h-84l-14 405h112zM431 1059l-16 405h116l-16 -405h-84z" />
    <glyph glyph-name="numbersign" unicode="#" horiz-adv-x="1059" 
d="M196 0l68 479h-205v94h219l49 345h-219v94h232l67 452h95l-66 -452h223l68 452h94l-63 -452h225v-94h-240l-49 -345h240v-94h-254l-68 -479h-96l67 479h-223l-69 -479h-95zM370 569h228l51 351h-229z" />
    <glyph glyph-name="dollar" unicode="$" horiz-adv-x="1266" 
d="M592 -276v262q-193 10 -326.5 105.5t-171.5 276.5l92 39q33 -156 138 -237t268 -91v637q-74 11 -133.5 26.5t-120 44.5t-100.5 68t-65.5 99t-25.5 135t24.5 138.5t66.5 108t99 76.5t121.5 48.5t133.5 18.5v186h75v-188q153 -8 272 -89t156 -223l-92 -39q-27 118 -119 186
t-217 72v-575q87 -12 149.5 -27t128 -45t106 -71.5t66.5 -109t26 -156.5q0 -97 -40 -176t-107 -129.5t-151.5 -78.5t-177.5 -30v-262h-75zM592 819v567q-68 -2 -126.5 -19t-106.5 -50t-75.5 -87.5t-27.5 -125.5q0 -58 20 -103.5t50 -74.5t77 -51t89.5 -34t99.5 -22zM667 706
v-627q98 3 178 36.5t132.5 105.5t52.5 171q0 69 -20 121t-49.5 83t-81.5 54t-97 34t-115 22z" />
    <glyph glyph-name="percent" unicode="%" horiz-adv-x="1598" 
d="M423 819q-137 0 -230 94t-93 231q0 138 94 234.5t232 96.5q135 0 226 -94t91 -232q0 -139 -91.5 -234.5t-228.5 -95.5zM272 0l965 1464h86l-966 -1464h-85zM423 901q103 0 163.5 72t60.5 179q0 105 -58.5 175t-160.5 70q-104 0 -168 -73t-64 -177t62.5 -175t164.5 -71z
M1171 -14q-138 0 -230.5 93.5t-92.5 229.5q0 138 93.5 234t231.5 96q136 0 228 -93.5t92 -230.5q0 -138 -92 -233.5t-230 -95.5zM1175 68q104 0 163 69t59 178q0 108 -59 177t-162 69q-106 0 -169 -72.5t-63 -177.5q0 -104 63 -173.5t168 -69.5z" />
    <glyph glyph-name="ampersand" unicode="&#x26;" horiz-adv-x="1462" 
d="M1031 383l199 352l86 -37l-225 -391l262 -307h-144l-192 225q-181 -241 -441 -241q-189 0 -311.5 107t-122.5 294q0 270 363 442q-152 177 -152 330q0 139 98 228.5t238 89.5q133 0 222 -83.5t89 -215.5q0 -55 -20 -105t-51.5 -87.5t-77.5 -72.5t-89 -59t-95 -47z
M611 860q44 21 79 40t76 49t68 61t45.5 73t18.5 88q0 98 -56.5 156.5t-154.5 58.5q-101 0 -163 -66t-62 -167q0 -25 4 -48.5t14.5 -48t18 -40.5t26 -42.5t26 -37t31 -40t29.5 -36.5zM953 299l-393 461q-301 -147 -301 -367q0 -148 89.5 -231.5t238.5 -83.5q114 0 208 59.5
t158 161.5z" />
    <glyph glyph-name="quotesingle" unicode="'" horiz-adv-x="438" 
d="M177 1059l-14 405h114l-14 -405h-86z" />
    <glyph glyph-name="parenleft" unicode="(" horiz-adv-x="742" 
d="M619 -303h-100q-340 401 -340 942q0 538 340 944h100q-330 -423 -330 -944q0 -514 330 -942z" />
    <glyph glyph-name="parenright" unicode=")" horiz-adv-x="742" 
d="M224 -301h-101q330 420 330 942q0 523 -330 944h101q342 -414 342 -944q0 -536 -342 -942z" />
    <glyph glyph-name="asterisk" unicode="*" horiz-adv-x="958" 
d="M226 922l201 241l-283 84l29 86l272 -112l-14 301h96l-12 -301l270 112l27 -86l-281 -84l199 -241l-78 -56l-174 256l-174 -256z" />
    <glyph glyph-name="plus" unicode="+" horiz-adv-x="1084" 
d="M493 223v432h-403v90h403v435h97v-435h401v-90h-401v-432h-97z" />
    <glyph glyph-name="comma" unicode="," horiz-adv-x="445" 
d="M100 -201l137 357l108 -43l-172 -346z" />
    <glyph glyph-name="hyphen" unicode="-" horiz-adv-x="833" 
d="M193 524v97h447v-97h-447z" />
    <glyph glyph-name="period" unicode="." horiz-adv-x="526" 
d="M265 -12q-33 0 -57.5 23.5t-24.5 56.5q0 35 24 57t58 22q32 0 55 -23.5t23 -55.5q0 -33 -22.5 -56.5t-55.5 -23.5z" />
    <glyph glyph-name="slash" unicode="/" horiz-adv-x="935" 
d="M91 -303l604 1892h100l-604 -1892h-100z" />
    <glyph glyph-name="zero" unicode="0" horiz-adv-x="1379" 
d="M689 -16q-148 0 -259.5 53t-177.5 147t-98.5 213t-32.5 262v141q0 111 19.5 210t62.5 186t107 149.5t158.5 99t210.5 36.5q115 0 211 -35.5t163 -97.5t113 -147t67.5 -183.5t21.5 -207.5v-142q0 -114 -19 -213t-62 -186.5t-107.5 -150t-161 -98.5t-216.5 -36zM691 84
q101 0 179 32.5t126.5 86.5t80 131t43.5 158t12 176v142q0 112 -25 210.5t-76.5 181t-141.5 131t-210 48.5q-98 0 -174 -33t-124.5 -88t-80 -132t-44 -158t-12.5 -173v-138q0 -93 13 -174t45.5 -156t82.5 -128t128 -85t178 -32z" />
    <glyph glyph-name="one" unicode="1" horiz-adv-x="773" 
d="M395 0v1333l-330 -221v109l355 243h98v-1464h-123z" />
    <glyph glyph-name="two" unicode="2" horiz-adv-x="1135" 
d="M55 0v37l463 466q99 99 155 162t106.5 135.5t71.5 138.5t21 140q0 144 -82.5 223.5t-224.5 79.5q-283 0 -373 -340l-94 43q51 184 165.5 290t297.5 106q119 0 216 -44.5t156.5 -134.5t59.5 -212q0 -47 -6 -90.5t-21.5 -85t-29 -74t-42 -72t-47 -64t-56.5 -65t-57.5 -60.5
t-63.5 -63l-420 -417h772v-99h-967z" />
    <glyph glyph-name="three" unicode="3" horiz-adv-x="1172" 
d="M84 368l94 43q25 -155 130.5 -241.5t269.5 -86.5q160 0 257 84.5t97 250.5q0 79 -24.5 135.5t-62 88t-98 49.5t-117 23t-133.5 5v90h97q134 0 214.5 73t80.5 205q0 136 -84 215.5t-223 79.5q-138 0 -226 -79.5t-123 -219.5l-94 39q42 167 160.5 263t288.5 96
q117 0 211.5 -44.5t151 -131t56.5 -200.5q0 -124 -65.5 -215t-179.5 -118q143 -29 219 -126t76 -242q0 -136 -67.5 -233t-173 -142t-235.5 -45q-193 0 -329.5 101t-167.5 283z" />
    <glyph glyph-name="four" unicode="4" horiz-adv-x="1246" 
d="M67 336v49l715 1079h166v-1034h201v-94h-201v-336h-119v336h-762zM209 430h620v946z" />
    <glyph glyph-name="five" unicode="5" horiz-adv-x="1168" 
d="M84 330l94 41q23 -137 128.5 -212t251.5 -75q175 0 273.5 106t98.5 285q0 161 -98 271t-257 110q-229 0 -356 -160h-59l4 768h811v-100h-715v-553q64 69 155.5 104t191.5 35q205 0 326.5 -136t121.5 -345q0 -221 -135.5 -353t-353.5 -132q-180 0 -316.5 91t-165.5 255z
" />
    <glyph glyph-name="six" unicode="6" horiz-adv-x="1260" 
d="M1130 1175l-96 -42q-38 116 -132.5 182.5t-220.5 66.5q-84 0 -152.5 -31t-114 -85.5t-78.5 -121.5t-50.5 -147t-25.5 -153.5t-8 -149.5q29 66 75.5 115t105 77.5t123 42t136.5 13.5q135 0 240.5 -64.5t162 -174t56.5 -243.5q0 -216 -141 -346t-359 -130q-136 0 -238 46
t-162.5 130t-90 191.5t-29.5 239.5q0 129 4 192q6 107 26.5 203.5t62.5 188.5t101.5 158.5t150 107t202.5 40.5q162 0 281 -80t171 -226zM653 78q170 0 273.5 106t103.5 282q0 173 -101.5 277.5t-279.5 104.5q-159 0 -271 -100.5t-112 -256.5q0 -179 104 -296t283 -117z" />
    <glyph glyph-name="seven" unicode="7" horiz-adv-x="1061" 
d="M311 0l557 1364h-801v100h945v-51l-572 -1413h-129z" />
    <glyph glyph-name="eight" unicode="8" horiz-adv-x="1219" 
d="M452 788q-124 33 -202 117.5t-78 209.5q0 85 38 155.5t101 115.5t140.5 70t159.5 25q81 0 158 -24.5t139 -70t100 -117t38 -158.5q0 -122 -72.5 -206.5t-196.5 -116.5q150 -33 240.5 -131t90.5 -247q0 -105 -40 -188t-109 -134t-157 -77.5t-188 -26.5t-189.5 26
t-161 76.5t-113.5 133t-42 186.5q0 148 96.5 248t247.5 134zM293 1110q0 -131 96.5 -207t231.5 -76q132 0 220.5 73.5t88.5 201.5q0 133 -94.5 208.5t-227.5 75.5q-131 0 -223 -74t-92 -202zM229 405q0 -154 110 -239.5t276 -85.5q164 0 268 86.5t104 249.5q0 103 -53 178
t-136 111t-183 36q-101 0 -187 -36.5t-142.5 -114.5t-56.5 -185z" />
    <glyph glyph-name="nine" unicode="9" horiz-adv-x="1256" 
d="M140 289l93 41q80 -248 365 -248q68 0 123.5 14t96 41t71.5 61t51 81t33.5 93t20 105t9 108.5t2.5 111.5v98q-46 -121 -161 -188.5t-251 -67.5q-220 0 -353.5 121.5t-133.5 335.5q0 222 141 353.5t360 131.5q131 0 230.5 -42t160.5 -119.5t92.5 -179.5t33.5 -229l4 -217
q13 -710 -535 -710q-166 0 -287 76t-166 229zM605 627q157 0 272.5 100.5t115.5 251.5q0 179 -104.5 293t-280.5 114q-170 0 -274.5 -107.5t-104.5 -282.5q0 -170 100.5 -269.5t275.5 -99.5z" />
    <glyph glyph-name="colon" unicode=":" horiz-adv-x="541" 
d="M189 977q0 32 24 56t56 24q34 0 58 -22.5t24 -57.5q0 -34 -24 -57t-58 -23q-32 0 -56 24t-24 56zM269 -12q-32 0 -56 24t-24 57q0 32 24 55.5t56 23.5q33 0 57.5 -23t24.5 -56q0 -35 -24 -58t-58 -23z" />
    <glyph glyph-name="semicolon" unicode=";" horiz-adv-x="547" 
d="M280 676q-33 0 -55.5 23.5t-22.5 56.5q0 32 23 56t55 24q35 0 58 -22.5t23 -57.5q0 -34 -23.5 -57t-57.5 -23zM97 -201l137 357l109 -43l-172 -346z" />
    <glyph glyph-name="less" unicode="&#x3c;" horiz-adv-x="1043" 
d="M131 647v29l797 444v-106l-639 -352l639 -355v-104z" />
    <glyph glyph-name="equal" unicode="=" horiz-adv-x="1045" 
d="M96 831v89h850v-89h-850zM96 475v89h850v-89h-850z" />
    <glyph glyph-name="greater" unicode="&#x3e;" horiz-adv-x="1043" 
d="M131 203v106l641 353l-641 354v104l799 -444v-29z" />
    <glyph glyph-name="question" unicode="?" horiz-adv-x="1085" 
d="M437 358v119q0 61 21 117t55 100t75 86.5t82.5 83.5t75.5 83t55 93t21 105q0 120 -76.5 179.5t-199.5 59.5q-139 0 -224 -81t-110 -222l-90 39q34 169 149 264t287 95q79 0 147 -20t120.5 -59t83 -103t30.5 -146q0 -28 -3 -54t-12.5 -51t-16 -43.5t-23.5 -43t-25 -37
t-31.5 -38t-31 -33.5t-35 -36t-33.5 -34q-101 -101 -138 -172q-50 -94 -50 -201q0 -33 2 -50h-105zM409 68q0 32 24 54.5t57 22.5t56.5 -22.5t23.5 -54.5q0 -33 -23.5 -56.5t-56.5 -23.5t-57 23.5t-24 56.5z" />
    <glyph glyph-name="at" unicode="@" horiz-adv-x="1994" 
d="M1618 -2l70 -31q-114 -142 -292.5 -207t-383.5 -65q-182 0 -340 61.5t-271.5 171t-178 266.5t-64.5 341q0 178 70 340t187.5 279t280 186t339.5 69q133 0 254.5 -32.5t222 -97t174.5 -153.5t115 -208.5t41 -255.5q0 -71 -11 -140t-37.5 -139t-66 -123t-103 -86
t-141.5 -33q-107 0 -170 57t-69 162q-41 -100 -127.5 -165.5t-190.5 -65.5q-153 0 -240 102.5t-87 257.5q0 116 47 223.5t140.5 180t211.5 72.5q100 0 175.5 -56.5t94.5 -152.5l23 190h100l-59 -549q0 -186 162 -186q63 0 111.5 31t77 78t46.5 109.5t24.5 118t6.5 111.5
q0 211 -95 366.5t-258 234.5t-372 79q-220 0 -402.5 -107.5t-286.5 -291.5t-104 -403q0 -170 56.5 -314t156.5 -245t243.5 -157.5t313.5 -56.5q396 0 606 234zM947 211q69 0 127.5 36t95.5 93t57.5 124t20.5 132q0 124 -60 204.5t-180 80.5q-71 0 -130 -36.5t-96 -94
t-57 -125t-20 -133.5q0 -122 63 -201.5t179 -79.5z" />
    <glyph glyph-name="A" unicode="A" horiz-adv-x="1370" 
d="M63 0l530 1464h162l534 -1464h-127l-145 401h-694l-146 -401h-114zM353 494h633l-317 872z" />
    <glyph glyph-name="B" unicode="B" horiz-adv-x="1287" 
d="M187 0v1464h477q92 0 169 -21t138 -63.5t95.5 -115t34.5 -168.5q0 -269 -268 -330q159 -23 248.5 -112.5t89.5 -245.5q0 -206 -121.5 -307t-332.5 -101h-530zM308 805h347q149 0 237 68t88 217q0 282 -331 282h-341v-567zM308 92h397q162 0 253.5 78t91.5 234
q0 315 -388 315h-354v-627z" />
    <glyph glyph-name="C" unicode="C" horiz-adv-x="1498" 
d="M1310 469l96 -43q-63 -213 -227 -327.5t-393 -114.5q-211 0 -368 97.5t-237 264.5t-80 379q0 152 48.5 288.5t136 240.5t220 165.5t290.5 61.5q210 0 370 -106t220 -305l-101 -45q-51 175 -179.5 264.5t-313.5 89.5q-131 0 -239 -53t-178 -142.5t-108.5 -204
t-38.5 -240.5q0 -136 35 -252.5t103.5 -207t178 -142t248.5 -51.5q195 0 328.5 99t188.5 284z" />
    <glyph glyph-name="D" unicode="D" horiz-adv-x="1461" 
d="M187 0v1464h441q336 0 532.5 -193t196.5 -529q0 -348 -193 -545t-540 -197h-437zM310 100h308q293 0 452.5 169.5t159.5 468.5q0 296 -158 461t-457 165h-305v-1264z" />
    <glyph glyph-name="E" unicode="E" horiz-adv-x="1224" 
d="M187 0v1464h900v-100h-777v-563h639v-96h-639v-605h813v-100h-936z" />
    <glyph glyph-name="F" unicode="F" horiz-adv-x="1144" 
d="M187 -2v1466h867v-98h-744v-580h594v-98h-594v-690h-123z" />
    <glyph glyph-name="G" unicode="G" horiz-adv-x="1551" 
d="M892 621v92h553v-429q-202 -300 -633 -300q-164 0 -298 55t-224.5 153t-139.5 234.5t-49 298.5q0 154 50 292t140 240.5t223 163t290 60.5q212 0 369.5 -95.5t222.5 -287.5l-103 -45q-46 157 -181.5 242t-307.5 85q-133 0 -243 -52t-182 -140.5t-111.5 -204.5t-39.5 -246
q0 -142 36.5 -259.5t107.5 -206t185 -137.5t262 -49q157 0 294.5 56.5t216.5 176.5v303h-438z" />
    <glyph glyph-name="H" unicode="H" horiz-adv-x="1504" 
d="M187 0v1464h123v-676h879v676h123v-1464h-123v688h-879v-688h-123z" />
    <glyph glyph-name="I" unicode="I" horiz-adv-x="523" 
d="M198 0v1464h123v-1464h-123z" />
    <glyph glyph-name="J" unicode="J" horiz-adv-x="833" 
d="M77 31v100q110 -47 208 -47q259 0 259 293v1087h123v-1089q0 -188 -93.5 -289.5t-277.5 -101.5q-125 0 -219 47z" />
    <glyph glyph-name="K" unicode="K" horiz-adv-x="1275" 
d="M187 0v1464h123v-692l736 692h135l-752 -708l787 -756h-148l-758 719v-719h-123z" />
    <glyph glyph-name="L" unicode="L" horiz-adv-x="1125" 
d="M187 0v1464h123v-1364h734v-100h-857z" />
    <glyph glyph-name="M" unicode="M" horiz-adv-x="1818" 
d="M187 0v1464h172l539 -1294l549 1294h168v-1464h-123v1313l-557 -1313h-84l-551 1313v-1313h-113z" />
    <glyph glyph-name="N" unicode="N" horiz-adv-x="1498" 
d="M187 0v1464h158l848 -1292v1292h115v-1464h-135l-871 1325v-1325h-115z" />
    <glyph glyph-name="O" unicode="O" horiz-adv-x="1644" 
d="M824 -16q-154 0 -289 58t-230 158t-149.5 237.5t-54.5 291.5q0 152 53 289.5t146.5 240t229.5 162.5t292 60q205 0 369.5 -98.5t256 -268t91.5 -376.5q0 -152 -52.5 -289.5t-144.5 -240.5t-227 -163.5t-291 -60.5zM822 86q133 0 245.5 52.5t187 141.5t116 207t41.5 249
q0 130 -41 246.5t-115 204.5t-186 140t-246 52t-247.5 -51.5t-189 -140t-117.5 -205.5t-42 -247q0 -175 71 -322t208.5 -237t314.5 -90z" />
    <glyph glyph-name="P" unicode="P" horiz-adv-x="1201" 
d="M187 0v1464h417q109 0 196.5 -21.5t158 -67.5t109.5 -128.5t39 -195.5q0 -83 -18.5 -148.5t-48 -110t-77 -77t-95.5 -50t-113.5 -27.5t-121 -12.5t-127.5 -1.5l-83 1h-115v-625h-121zM308 717h298q380 0 380 331q0 90 -27.5 153.5t-80.5 99.5t-120 51.5t-156 15.5h-294
v-651z" />
    <glyph glyph-name="Q" unicode="Q" horiz-adv-x="1644" 
d="M1277 146l172 -183l-70 -72l-188 204q-162 -111 -374 -111q-202 0 -366.5 99.5t-257 270.5t-92.5 377q0 152 53 289.5t146.5 239t229 161.5t292.5 60q153 0 287 -57.5t228 -156t148 -234.5t54 -289q0 -181 -64.5 -334.5t-197.5 -263.5zM917 398l63 62l223 -238
q106 91 157.5 224t51.5 282q0 133 -41 252t-115 208.5t-186.5 141.5t-246.5 52q-178 0 -315.5 -89t-208.5 -234t-71 -318q0 -103 26.5 -201t78 -180.5t122 -144.5t164.5 -97t199 -35q176 0 309 90z" />
    <glyph glyph-name="R" unicode="R" horiz-adv-x="1275" 
d="M187 0v1464h424q84 0 155 -11t137.5 -39.5t112.5 -72t73.5 -113t27.5 -158.5q0 -174 -98 -270.5t-274 -119.5l458 -680h-135l-446 664h-314v-664h-121zM308 754h301q387 0 387 311q0 70 -20 123.5t-54.5 87.5t-85 55t-105.5 29t-122 8h-301v-614z" />
    <glyph glyph-name="S" unicode="S" horiz-adv-x="1228" 
d="M79 362l94 44q104 -326 453 -326q73 0 139 19.5t120 57t86 100t32 140.5q0 33 -5.5 62.5t-18 53.5t-25.5 44t-36.5 37.5t-42 30.5t-50.5 26t-53.5 21t-59.5 18.5t-59.5 16t-63.5 15.5q-183 44 -259 81q-161 76 -188 228q-6 34 -6 72q0 99 40 174.5t107.5 118.5t147.5 64
t170 21q175 0 298.5 -79.5t172.5 -239.5l-92 -39q-77 262 -375 262q-71 0 -131.5 -15t-111 -47t-79 -88t-28.5 -131q0 -32 7.5 -60.5t18 -50t31.5 -41.5t38.5 -34t50 -28t54 -22t61.5 -19t62.5 -16.5t67.5 -15.5q50 -11 77.5 -18t74.5 -20t74.5 -24.5t66 -30.5t61.5 -38.5
t49 -48t40 -60.5t23.5 -74t9.5 -90q0 -105 -40.5 -188t-110 -135t-157.5 -79t-188 -27q-420 0 -547 378z" />
    <glyph glyph-name="T" unicode="T" horiz-adv-x="1171" 
d="M521 0v1366h-456v98h1040v-98h-461v-1366h-123z" />
    <glyph glyph-name="U" unicode="U" horiz-adv-x="1416" 
d="M163 1464h123v-927q0 -451 424 -451q224 0 319.5 122t95.5 353v903h123v-915q0 -272 -134.5 -418.5t-401.5 -146.5q-263 0 -406 142t-143 402v936z" />
    <glyph glyph-name="V" unicode="V" horiz-adv-x="1338" 
d="M607 0l-549 1464h125l500 -1337l479 1337h117l-528 -1464h-144z" />
    <glyph glyph-name="W" unicode="W" horiz-adv-x="1963" 
d="M460 0l-397 1464h122l349 -1296l395 1296h96l387 -1302l371 1302h112l-417 -1464h-127l-375 1270l-393 -1270h-123z" />
    <glyph glyph-name="X" unicode="X" horiz-adv-x="1351" 
d="M91 0l510 762l-463 702h138l407 -618l406 618h127l-463 -702l504 -762h-138l-448 678l-453 -678h-127z" />
    <glyph glyph-name="Y" unicode="Y" horiz-adv-x="1160" 
d="M532 0v643l-488 821h137l416 -719l395 719h121l-459 -821v-643h-122z" />
    <glyph glyph-name="Z" unicode="Z" horiz-adv-x="1214" 
d="M54 0v51l920 1317h-846v96h1010v-47l-916 -1317h899v-100h-1067z" />
    <glyph glyph-name="bracketleft" unicode="[" horiz-adv-x="849" 
d="M257 -303v1892h440v-86h-328v-1720h328v-86h-440z" />
    <glyph glyph-name="backslash" unicode="\" horiz-adv-x="935" 
d="M744 -303l-604 1892h100l604 -1892h-100z" />
    <glyph glyph-name="bracketright" unicode="]" horiz-adv-x="849" 
d="M150 -303v86h328v1720h-328v86h440v-1892h-440z" />
    <glyph glyph-name="asciicircum" unicode="^" horiz-adv-x="957" 
d="M96 872l330 592h102l332 -592h-106l-277 492l-276 -492h-105z" />
    <glyph glyph-name="underscore" unicode="_" horiz-adv-x="907" 
d="M48 -303v76h811v-76h-811z" />
    <glyph glyph-name="grave" unicode="`" horiz-adv-x="834" 
d="M379 1223l-178 307h123l143 -307h-88z" />
    <glyph glyph-name="a" unicode="a" horiz-adv-x="1099" 
d="M834 0v164q-58 -94 -155.5 -138t-216.5 -44q-76 0 -140.5 17.5t-116.5 53.5t-81.5 96.5t-29.5 140.5q0 63 19.5 113t50 83.5t78.5 57.5t94 37t109 20.5t110.5 9.5t109.5 2h107l59 1q0 75 -5.5 127.5t-23.5 105t-50 84t-87 51t-133 19.5q-114 0 -193 -58t-112 -167l-88 37
q43 137 147 207t251 70q211 0 308 -111t97 -326v-653h-108zM831 535h-243q-59 0 -106 -4t-101.5 -19t-90.5 -40t-60.5 -71t-24.5 -109q0 -118 76.5 -171t199.5 -53q81 0 159 28.5t134.5 91t56.5 146.5v201z" />
    <glyph glyph-name="b" unicode="b" horiz-adv-x="1283" 
d="M164 0v1577h110v-768q54 127 177.5 204t267.5 77q107 0 197.5 -45.5t150 -122t92.5 -174.5t33 -204q0 -112 -30.5 -212t-88.5 -179t-151 -125t-208 -46q-147 0 -267 72t-173 203v-257h-110zM686 75q125 0 216 64.5t134 166.5t43 227q0 91 -24.5 173t-71.5 148t-123 104.5
t-171 38.5q-125 0 -221 -65t-145 -169.5t-49 -228.5q0 -122 47 -225t142.5 -168.5t222.5 -65.5z" />
    <glyph glyph-name="c" unicode="c" horiz-adv-x="1146" 
d="M977 368l86 -39q-48 -164 -170.5 -255.5t-292.5 -91.5q-153 0 -270.5 74t-179.5 199t-62 279q0 113 35.5 214t100 177t162.5 120.5t216 44.5q162 0 279 -82t168 -234l-93 -41q-33 128 -124 196t-222 68q-128 0 -222.5 -64t-140.5 -167t-46 -229q0 -92 26 -174t74.5 -147
t126 -103t173.5 -38q141 0 240.5 78.5t135.5 214.5z" />
    <glyph glyph-name="d" unicode="d" horiz-adv-x="1283" 
d="M1006 0v253q-49 -124 -168.5 -197.5t-257.5 -73.5q-113 0 -207 44t-155.5 119t-95.5 174t-34 210q0 90 21.5 173t65 153.5t103.5 123t142 82t177 29.5q283 0 409 -256v743h110v-1577h-110zM595 75q125 0 221 63.5t144 166t48 224.5q0 95 -24 178t-71 148.5t-124 103.5
t-176 38q-97 0 -176 -37t-130 -100.5t-78.5 -147.5t-27.5 -179q0 -91 25 -172.5t72.5 -145.5t124 -102t172.5 -38z" />
    <glyph glyph-name="e" unicode="e" horiz-adv-x="1146" 
d="M967 297l82 -35q-56 -141 -174 -210.5t-273 -69.5q-240 0 -378 152.5t-138 389.5q0 114 34 216t97 180t161 124t217 46q112 0 201 -40.5t145.5 -112t86 -167t29.5 -207.5v-35h-856q2 -204 100.5 -330t296.5 -126q128 0 228 56t141 169zM203 608h745q-4 178 -94.5 287
t-260.5 109q-173 0 -276.5 -112t-113.5 -284z" />
    <glyph glyph-name="f" unicode="f" horiz-adv-x="722" 
d="M217 0v985h-164v86h164v63q0 59 2 100t9 89.5t20 80.5t36 65t56 51.5t80.5 30.5t109.5 12q99 0 144 -19l-37 -82q-50 11 -96 11q-211 0 -211 -236v-166h307v-86h-307v-985h-113z" />
    <glyph glyph-name="g" unicode="g" horiz-adv-x="1277" 
d="M113 -115l90 37q29 -81 95.5 -136t143.5 -77t165 -22q186 0 289 103.5t103 287.5v223q-47 -120 -169 -186t-265 -66q-213 0 -347 143t-134 363q0 146 61 267.5t177 194.5t264 73q303 0 413 -242v223h111v-999q0 -229 -133.5 -351t-366.5 -122q-80 0 -154 15t-143 47.5
t-121.5 89.5t-78.5 134zM588 137q185 0 302.5 119.5t117.5 300.5q0 191 -106 315.5t-292 124.5q-185 0 -298 -122.5t-113 -307.5q0 -190 103 -310t286 -120z" />
    <glyph glyph-name="h" unicode="h" horiz-adv-x="1213" 
d="M164 0v1577h111v-719q48 110 158.5 171t236.5 61q191 0 289 -114t98 -308v-668h-111v657q0 160 -76.5 249t-233.5 89q-155 0 -258 -98t-103 -252v-645h-111z" />
    <glyph glyph-name="i" unicode="i" horiz-adv-x="452" 
d="M147 1360q0 30 22.5 51t53.5 21q30 0 52 -21t22 -51q0 -32 -21 -53t-53 -21q-30 0 -53 22t-23 52zM168 0v1071h113v-1071h-113z" />
    <glyph glyph-name="j" unicode="j" horiz-adv-x="452" 
d="M147 1360q0 30 22.5 51t53.5 21q30 0 52 -21t22 -51q0 -32 -21 -53t-53 -21q-30 0 -53 22t-23 52zM14 -395v90q89 6 121.5 50t32.5 136v1190h113v-1188q0 -141 -63.5 -208t-203.5 -70z" />
    <glyph glyph-name="k" unicode="k" horiz-adv-x="1015" 
d="M164 0v1577h110v-987l531 481h137l-551 -500l582 -571h-144l-555 543v-543h-110z" />
    <glyph glyph-name="l" unicode="l" horiz-adv-x="452" 
d="M168 0v1552l113 50v-1602h-113z" />
    <glyph glyph-name="m" unicode="m" horiz-adv-x="1897" 
d="M164 0v1071h111v-217q45 107 148.5 170t223.5 63q130 0 218.5 -62t115.5 -185q53 116 160.5 183t236.5 67q184 0 273.5 -111.5t89.5 -300.5v-678h-111v666q0 151 -68.5 237t-215.5 86q-145 0 -243.5 -101t-98.5 -247v-641h-111v666q0 151 -67.5 237t-214.5 86
q-146 0 -241 -100.5t-95 -247.5v-641h-111z" />
    <glyph glyph-name="n" unicode="n" horiz-adv-x="1213" 
d="M164 0v1071h111v-221q46 113 156.5 176.5t238.5 63.5q191 0 289 -114t98 -308v-668h-111v653q0 160 -76.5 248t-233.5 88q-154 0 -257.5 -99.5t-103.5 -252.5v-637h-111z" />
    <glyph glyph-name="o" unicode="o" horiz-adv-x="1220" 
d="M612 -18q-152 0 -272.5 74t-186 200t-65.5 278q0 151 64 276.5t185 201t276 75.5q152 0 270.5 -73t182.5 -197.5t64 -277.5q0 -152 -62.5 -278t-182 -202.5t-273.5 -76.5zM610 74q126 0 219.5 64t140 168t46.5 231q0 73 -16 140.5t-49 125.5t-80 101.5t-113.5 68
t-144.5 24.5q-126 0 -221 -63t-142.5 -166.5t-47.5 -229.5q0 -124 45 -227.5t140 -170t223 -66.5z" />
    <glyph glyph-name="p" unicode="p" horiz-adv-x="1283" 
d="M164 -399v1470h110v-256q58 124 180 199.5t264 75.5q86 0 162 -29.5t132.5 -81.5t97.5 -121t61.5 -149.5t20.5 -164.5q0 -112 -30.5 -212t-88.5 -179t-150.5 -125t-207.5 -46q-146 0 -266.5 70.5t-174.5 198.5v-650h-110zM685 75q126 0 217 64.5t134 166.5t43 227
q0 91 -24.5 173t-71.5 148t-123 104.5t-171 38.5q-125 0 -221 -65t-145 -169.5t-49 -229.5q0 -122 46.5 -224.5t141.5 -168t223 -65.5z" />
    <glyph glyph-name="q" unicode="q" horiz-adv-x="1283" 
d="M1006 -399v670q-50 -127 -171.5 -208t-259.5 -81q-113 0 -206.5 44t-154 119t-93.5 173.5t-33 209.5q0 151 57.5 277.5t172.5 205.5t268 79q147 0 255.5 -73t164.5 -208v262h110v-1470h-110zM594 75q125 0 221 63.5t144.5 166t48.5 224.5q0 95 -24 178t-71.5 148.5
t-124.5 103.5t-176 38q-128 0 -223 -64t-141.5 -168t-46.5 -232q0 -91 25 -172.5t72.5 -145.5t124 -102t171.5 -38z" />
    <glyph glyph-name="r" unicode="r" horiz-adv-x="720" 
d="M164 0v1071h110v-242q49 120 144 185t225 67v-102q-174 -6 -271.5 -112t-97.5 -281v-586h-110z" />
    <glyph glyph-name="s" unicode="s" horiz-adv-x="972" 
d="M74 276l84 37q61 -247 338 -247q53 0 101 12.5t88.5 38t64.5 70.5t24 104q0 35 -9.5 63t-22.5 48t-39 36.5t-46 26t-58.5 19.5t-60.5 14.5t-67 12.5q-49 9 -76 14.5t-71 17.5t-69 25t-56.5 36t-48 50.5t-28 67.5t-11.5 89q0 67 33.5 121.5t88 87t117 50t125.5 17.5
q288 0 379 -245l-84 -39q-35 105 -107.5 153t-185.5 48q-48 0 -92.5 -11.5t-83.5 -34.5t-62.5 -64.5t-23.5 -95.5q0 -28 5.5 -51t19.5 -41t27 -31.5t38 -24.5t43 -18.5t50.5 -14.5t52.5 -11t57 -10q36 -6 55 -9.5t53 -11t53 -14t48 -17.5t46.5 -23.5t39 -29t34 -37.5
t24.5 -46t17 -56.5t5 -68.5q0 -76 -34.5 -135.5t-91 -95t-123.5 -54t-138 -18.5q-160 0 -268.5 73t-153.5 223z" />
    <glyph glyph-name="t" unicode="t" horiz-adv-x="705" 
d="M618 100v-92q-70 -24 -147 -24q-132 0 -198 74t-66 208l2 719h-158v86h158v241l110 48v-289h287v-86h-287v-711q0 -90 41.5 -143t132.5 -53q59 0 125 22z" />
    <glyph glyph-name="u" unicode="u" horiz-adv-x="1205" 
d="M928 0v207q-46 -109 -153 -167t-233 -58q-193 0 -290.5 107t-97.5 302v680h112v-668q0 -157 76.5 -242t231.5 -85q153 0 253.5 97.5t100.5 250.5v647h112v-1071h-112z" />
    <glyph glyph-name="v" unicode="v" horiz-adv-x="1062" 
d="M463 0l-410 1071h121l363 -958l358 958h111l-406 -1071h-137z" />
    <glyph glyph-name="w" unicode="w" horiz-adv-x="1641" 
d="M395 0l-334 1071h117l289 -938l303 938h92l295 -938l313 938h107l-358 -1071h-121l-285 905l-295 -905h-123z" />
    <glyph glyph-name="x" unicode="x" horiz-adv-x="1068" 
d="M61 0l400 553l-375 518h131l315 -440l312 440h121l-367 -510l406 -561h-132l-346 481l-346 -481h-119z" />
    <glyph glyph-name="y" unicode="y" horiz-adv-x="1037" 
d="M262 -399l201 485l-410 985h121l346 -862l348 862h113l-608 -1470h-111z" />
    <glyph glyph-name="z" unicode="z" horiz-adv-x="986" 
d="M55 0v45l711 934h-651v92h807v-46l-709 -933h692v-92h-850z" />
    <glyph glyph-name="braceleft" unicode="{" horiz-adv-x="874" 
d="M726 -211v-86q-65 0 -118 7t-105 26.5t-87.5 51t-57.5 83.5t-22 121q0 70 28 209t28 209q0 194 -240 194v86q112 2 175 47t63 152q0 70 -27 208.5t-27 207.5q0 68 22 120t58 83t88 50t105 26t117 7v-86q-49 -1 -86.5 -6t-75.5 -18.5t-62.5 -35.5t-40 -60.5t-15.5 -90.5
q0 -54 9 -106q7 -50 13 -79l10 -52q3 -13 7.5 -39t6.5 -39q8 -56 8 -107q0 -181 -188 -225q188 -41 188 -223q0 -71 -27 -211t-27 -213q0 -65 21.5 -108.5t63 -65t87 -29.5t108.5 -8z" />
    <glyph glyph-name="bar" unicode="|" horiz-adv-x="624" 
d="M267 -303v1892h90v-1892h-90z" />
    <glyph glyph-name="braceright" unicode="}" horiz-adv-x="874" 
d="M150 -297v86q61 0 107.5 8.5t88 30.5t63.5 65.5t22 106.5q0 72 -28 213t-28 213q0 184 187 221q-187 46 -187 223q0 72 28 212t28 212q0 64 -22 107.5t-64 64.5t-87 29.5t-108 9.5v86q66 0 119.5 -7t105 -26.5t86.5 -51t56.5 -84t21.5 -122.5t-28 -207t-28 -208
q0 -195 238 -195v-86q-238 0 -238 -194q0 -70 28 -206.5t28 -207.5t-21.5 -124t-56 -84.5t-86.5 -51t-105.5 -26.5t-119.5 -7z" />
    <glyph glyph-name="asciitilde" unicode="~" horiz-adv-x="927" 
d="M184 559h-86q11 96 60.5 164t136.5 68q32 0 68 -12t58.5 -24t59.5 -35q31 -20 48.5 -29.5t43.5 -19t48 -9.5q51 0 82.5 40t35.5 93h86q-9 -95 -59 -163.5t-137 -68.5q-32 0 -67.5 12t-57.5 24t-60 35q-96 58 -139 58q-52 0 -82 -38.5t-39 -94.5z" />
    <glyph glyph-name="uni00A0" unicode="&#xa0;" horiz-adv-x="578" 
 />
    <glyph glyph-name="exclamdown" unicode="&#xa1;" horiz-adv-x="695" 
d="M267 1157q0 33 23.5 56.5t56.5 23.5q34 0 58 -22.5t24 -57.5q0 -33 -24.5 -54.5t-57.5 -21.5q-31 0 -55.5 22t-24.5 54zM408 -240h-125l17 1108h92z" />
    <glyph glyph-name="cent" unicode="&#xa2;" horiz-adv-x="1162" 
d="M571 -276v260q-221 14 -349 167.5t-128 381.5q0 226 126.5 383t350.5 171v201h76v-201q148 -8 259.5 -91t154.5 -222l-86 -39q-34 116 -120.5 184t-207.5 76v-923q128 8 218.5 88.5t123.5 206.5l84 -37q-44 -152 -157 -245.5t-269 -100.5v-260h-76zM571 72v923
q-118 -9 -202 -75.5t-123 -165.5t-39 -219q0 -87 22 -165t65 -143t114 -106t163 -49z" />
    <glyph glyph-name="sterling" unicode="&#xa3;" horiz-adv-x="1260" 
d="M96 0l1 5q11 83 59.5 144t126.5 82q46 85 46 192q0 105 -44 246h-172v92h143q-48 146 -48 303q0 127 64 223.5t168 145t230 48.5q167 0 280 -89.5t165 -251.5l1 -3l-103 -44l-2 4q-48 133 -126 204.5t-209 71.5q-148 0 -243 -87t-95 -232q0 -130 48 -293h473v-92h-451
q38 -154 38 -245q0 -103 -39 -188q73 -8 205 -71q48 -23 76.5 -35.5t71 -24t79.5 -11.5q93 0 156.5 59t82.5 152l1 5l100 -45l-1 -3q-16 -56 -41.5 -103.5t-63 -87t-90.5 -62.5t-115 -23q-44 0 -94 13t-82 26.5t-87 39.5q-52 24 -82 37t-73 24.5t-80 11.5q-68 0 -111 -35
t-52 -100v-3h-111z" />
    <glyph glyph-name="yen" unicode="&#xa5;" horiz-adv-x="1131" 
d="M137 371v72h381v202h-381v72h360l-432 747h133l385 -687l359 687h121l-402 -747h355v-72h-375v-202h375v-72h-375v-371h-123v371h-381z" />
    <glyph glyph-name="brokenbar" unicode="&#xa6;" horiz-adv-x="592" 
d="M249 754v835h90v-835h-90zM249 -303v913h90v-913h-90z" />
    <glyph glyph-name="section" unicode="&#xa7;" horiz-adv-x="1212" 
d="M214 -12l92 39q19 -106 103 -163t196 -57q111 0 179.5 57.5t68.5 166.5q0 59 -24.5 103t-65.5 71.5t-94.5 48t-112.5 36.5t-117.5 33t-112 42t-94.5 58.5t-65.5 87t-24.5 123.5q0 110 80 183.5t195 98.5q-147 88 -147 237q0 152 100 241t254 89q283 0 346 -252l-88 -39
q-39 203 -258 203q-106 0 -177 -56t-71 -159q0 -71 38.5 -121.5t100 -78.5t135.5 -50.5t148 -48t135.5 -59t100 -95t38.5 -146.5q0 -113 -71 -183t-189 -100q150 -82 150 -269q0 -99 -51 -170.5t-131 -105.5t-177 -34q-91 0 -170 27t-140 89.5t-79 152.5zM275 552
q12 -24 36 -45.5t60 -40t68.5 -33t80.5 -29t76 -22.5t74 -20t58 -15q108 20 169.5 71t61.5 152q0 44 -17.5 80t-45 59.5t-65 43t-74 32.5t-76.5 25q-18 5 -27 8q-21 7 -72.5 25t-80.5 26q-104 -19 -175 -74.5t-71 -150.5q0 -55 20 -92z" />
    <glyph glyph-name="dieresis" unicode="&#xa8;" horiz-adv-x="834" 
d="M180 1358q0 30 20 49.5t50 19.5q31 0 50 -19t19 -50q0 -30 -19.5 -49t-49.5 -19t-50 19t-20 49zM512 1358q0 30 20 49.5t50 19.5q29 0 49 -20t20 -49t-20 -48.5t-49 -19.5q-30 0 -50 19t-20 49z" />
    <glyph glyph-name="copyright" unicode="&#xa9;" horiz-adv-x="1744" 
d="M113 730q0 208 101.5 382t276.5 274.5t383 100.5q155 0 294.5 -58.5t240 -159t160 -240t59.5 -295.5q0 -157 -59.5 -297.5t-160.5 -241t-241.5 -159.5t-296.5 -59q-208 0 -382 100t-274.5 273t-100.5 380zM869 39q192 0 350.5 92.5t249 252t90.5 350.5t-90 349.5
t-248 250t-349 91.5q-192 0 -350.5 -92.5t-249 -252t-90.5 -350.5q0 -190 90 -348.5t248 -250.5t349 -92zM1159 593l80 -34q-44 -125 -135 -190.5t-224 -65.5q-186 0 -295.5 119.5t-109.5 304.5q0 91 28.5 173t79.5 143t128 97t168 36q129 0 214 -59t134 -181l-80 -34
q-30 92 -100 143t-168 51q-143 0 -225.5 -102.5t-82.5 -249.5q0 -158 78.5 -259.5t230.5 -101.5q208 0 279 210z" />
    <glyph glyph-name="ordfeminine" unicode="&#xaa;" horiz-adv-x="908" 
d="M661 641v131q-41 -75 -117.5 -108.5t-167.5 -33.5q-123 0 -201.5 59t-78.5 177q0 53 17 95t48 68.5t68 44.5t85.5 26.5t90.5 12t92 3.5l164 -4q0 56 -3.5 94t-16 77.5t-35.5 62.5t-62.5 38t-95.5 15q-191 0 -232 -164l-83 37q31 104 117.5 155.5t203.5 51.5
q143 0 226.5 -75.5t83.5 -219.5v-543h-103zM661 1044h-178q-43 0 -77 -3t-75 -13.5t-68 -28.5t-45.5 -51.5t-18.5 -79.5q0 -85 56.5 -123t144.5 -38q115 0 188 59t73 170v108z" />
    <glyph glyph-name="guillemotleft" unicode="&#xab;" horiz-adv-x="1003" 
d="M168 535l277 368h96l-274 -368l274 -369h-96zM752 166l-276 369l276 368h96l-274 -368l274 -369h-96z" />
    <glyph glyph-name="registered" unicode="&#xae;" horiz-adv-x="1068" 
d="M80 1029q0 190 131.5 322t322.5 132q190 0 322.5 -131t132.5 -322t-132 -321.5t-322 -130.5q-125 0 -229.5 59.5t-165 163.5t-60.5 228zM536 627q170 0 284 115.5t114 287.5t-114 286.5t-284 114.5q-172 0 -286.5 -116t-114.5 -285t115.5 -286t285.5 -117zM381 803v457
h154q174 0 174 -125q0 -51 -29 -82t-80 -39l125 -211h-76l-121 201h-82v-201h-65zM446 1057h89q43 0 74.5 17.5t31.5 60.5q0 73 -106 73h-89v-151z" />
    <glyph glyph-name="macron" unicode="&#xaf;" horiz-adv-x="834" 
d="M170 1325v85h492v-85h-492z" />
    <glyph glyph-name="degree" unicode="&#xb0;" horiz-adv-x="926" 
d="M157 1182q0 127 90 214t217 87q126 0 215.5 -87.5t89.5 -213.5q0 -124 -90.5 -210t-214.5 -86q-125 0 -216 86t-91 210zM464 952q96 0 160.5 66.5t64.5 163.5t-64.5 166t-160.5 69q-98 0 -164 -68t-66 -167q0 -98 66 -164t164 -66z" />
    <glyph glyph-name="plusminus" unicode="&#xb1;" horiz-adv-x="1084" 
d="M493 268v416h-403v90h403v418h97v-418h401v-90h-401v-416h-97zM90 0v86h903v-86h-903z" />
    <glyph glyph-name="twosuperior" unicode="&#xb2;" horiz-adv-x="626" 
d="M43 750v28l270 259q33 32 50.5 50t41.5 49t35 62t11 65q0 64 -40.5 100t-103.5 36q-70 0 -115 -44t-65 -115l-68 30q24 93 89 146.5t161 53.5t164 -52t68 -150q0 -41 -12 -78t-38.5 -72.5t-48.5 -59t-61 -60.5l-186 -177h352v-71h-504z" />
    <glyph glyph-name="threesuperior" unicode="&#xb3;" horiz-adv-x="660" 
d="M57 923l72 30q19 -68 70.5 -105t125.5 -37q72 0 117 35.5t45 108.5q0 37 -13 62.5t-31.5 39t-50 21t-55.5 9t-61 1.5v65q33 0 56 1.5t51.5 8.5t46 19t29.5 35t12 55q0 64 -42.5 98.5t-107.5 34.5t-109 -35t-62 -100l-70 28q25 84 91 128t157 44q94 0 161.5 -46.5
t67.5 -137.5q0 -61 -33 -102.5t-92 -58.5q63 -12 106 -58.5t43 -109.5q0 -107 -70 -161.5t-178 -54.5q-100 0 -173.5 46.5t-102.5 135.5z" />
    <glyph glyph-name="acute" unicode="&#xb4;" horiz-adv-x="834" 
d="M367 1223l141 307h123l-176 -307h-88z" />
    <glyph glyph-name="paragraph" unicode="&#xb6;" horiz-adv-x="1210" 
d="M595 -205v928q-76 0 -141 11t-125 37t-102.5 66.5t-67.5 103.5t-25 144q0 126 59 213t155 126.5t220 39.5h406v-1669h-76v1606h-227v-1606h-76z" />
    <glyph glyph-name="periodcentered" unicode="&#xb7;" horiz-adv-x="526" 
d="M265 582q-35 0 -58.5 22.5t-23.5 57.5q0 34 24 55.5t58 21.5q32 0 55 -22.5t23 -54.5q0 -33 -22.5 -56.5t-55.5 -23.5z" />
    <glyph glyph-name="cedilla" unicode="&#xb8;" horiz-adv-x="834" 
d="M238 -309l63 26q12 -39 50.5 -62.5t86.5 -23.5q103 0 103 115q0 68 -121 68q-13 0 -40 -13l-6 -3h-2q-6 -4 -10 -5l-47 43l95 164h77l-75 -131q23 8 55 8q76 0 118 -42t42 -111q0 -80 -54 -120t-135 -40q-72 0 -127.5 31.5t-72.5 95.5z" />
    <glyph glyph-name="onesuperior" unicode="&#xb9;" horiz-adv-x="464" 
d="M231 750v616l-184 -117v80l205 135h72v-714h-93z" />
    <glyph glyph-name="ordmasculine" unicode="&#xba;" horiz-adv-x="998" 
d="M503 629q-181 0 -295 120.5t-114 303.5q0 180 111 302t293 122q180 0 291.5 -119.5t111.5 -304.5q0 -182 -109 -303t-289 -121zM499 711q139 0 218 98t79 246q0 144 -75.5 242t-215.5 98q-141 0 -223.5 -98.5t-82.5 -243.5q0 -91 32.5 -167t102.5 -125.5t165 -49.5z" />
    <glyph glyph-name="guillemotright" unicode="&#xbb;" horiz-adv-x="1003" 
d="M156 166l275 369l-275 368h95l280 -368l-280 -369h-95zM463 166l275 369l-275 368h95l280 -368l-280 -369h-95z" />
    <glyph glyph-name="onequarter" unicode="&#xbc;" horiz-adv-x="1389" 
d="M102 0l1081 1464h83l-1082 -1464h-82zM238 750v616l-185 -127v80l205 145h72v-714h-92zM759 156v34l345 525h121v-492h96v-67h-96v-156h-92v156h-374zM857 223h276v428z" />
    <glyph glyph-name="onehalf" unicode="&#xbd;" horiz-adv-x="1408" 
d="M63 0l1081 1464h83l-1082 -1464h-82zM242 750v616l-185 -127v80l205 145h72v-714h-92zM818 0v27l272 262q41 39 64.5 65.5t46 71t22.5 88.5q0 65 -41 101t-109 36q-74 0 -116.5 -43t-50.5 -119l-71 31q16 98 80 150.5t161 52.5q99 0 169 -51.5t70 -142.5
q0 -49 -19.5 -97.5t-67.5 -104t-74 -81.5t-92 -87q-13 -12 -19 -18l-75 -69h353v-72h-503z" />
    <glyph glyph-name="threequarters" unicode="&#xbe;" horiz-adv-x="1433" 
d="M63 924l72 30q21 -69 71 -106t123 -37t120 36.5t47 108.5q0 36 -13.5 61.5t-32.5 39.5t-50 21.5t-56.5 9.5t-60.5 2v63q41 0 69.5 3.5t60 14.5t48 36.5t16.5 64.5q0 64 -42 97.5t-106 33.5q-66 0 -111 -35t-62 -99l-68 28q23 86 88.5 129.5t154.5 43.5q97 0 165.5 -48.5
t68.5 -137.5q0 -60 -33.5 -101t-93.5 -57q69 -14 109.5 -62t40.5 -121q0 -100 -72.5 -151t-177.5 -51q-99 0 -172.5 47t-102.5 136zM188 0l1081 1464h83l-1082 -1464h-82zM793 156v34l346 525h116v-492h97v-67h-97v-156h-88v156h-374zM889 223h278v428z" />
    <glyph glyph-name="questiondown" unicode="&#xbf;" horiz-adv-x="1121" 
d="M531 1159q0 32 24.5 55t57.5 23q34 0 58 -22.5t24 -55.5q0 -32 -25 -55t-57 -23q-33 0 -57.5 23t-24.5 55zM889 145l93 -39q-31 -169 -146.5 -264.5t-288.5 -95.5q-169 0 -277 83t-108 247q0 70 23.5 130.5t60 103t82 87t87 81.5t78.5 87.5t54 104.5q15 45 15 91
q0 1 -0.5 14.5t-1 39t-0.5 55.5h106q0 -59 -1.5 -95.5t-11.5 -89t-30 -90.5q-50 -99 -162 -204q-42 -39 -68 -67t-55 -68t-43 -83t-14 -91q0 -122 74.5 -182t198.5 -60q140 0 226.5 82t108.5 223z" />
    <glyph glyph-name="Agrave" unicode="&#xc0;" horiz-adv-x="1361" 
d="M635 1577l-170 252h123l133 -252h-86zM68 0l530 1464h162l534 -1464h-127l-145 401h-694l-146 -401h-114zM358 494h633l-317 872z" />
    <glyph glyph-name="Aacute" unicode="&#xc1;" horiz-adv-x="1361" 
d="M608 1577l137 252h121l-170 -252h-88zM68 0l530 1464h162l534 -1464h-127l-145 401h-694l-146 -401h-114zM358 494h633l-317 872z" />
    <glyph glyph-name="Acircumflex" unicode="&#xc2;" horiz-adv-x="1361" 
d="M389 1577l229 252h101l225 -252h-88l-188 172l-193 -172h-86zM68 0l530 1464h162l534 -1464h-127l-145 401h-694l-146 -401h-114zM358 494h633l-317 872z" />
    <glyph glyph-name="Atilde" unicode="&#xc3;" horiz-adv-x="1361" 
d="M456 1581h-74q7 54 23.5 95.5t52.5 72.5t86 31q28 0 59 -11t50 -22t51 -31q80 -51 117 -51q43 0 67.5 33.5t28.5 79.5h76q-8 -82 -50 -140.5t-115 -58.5q-62 0 -159 64q-78 51 -116 51q-42 0 -66 -33t-31 -80zM68 0l530 1464h162l534 -1464h-127l-145 401h-694l-146 -401
h-114zM358 494h633l-317 872z" />
    <glyph glyph-name="Adieresis" unicode="&#xc4;" horiz-adv-x="1361" 
d="M435 1673q0 29 20 49.5t49 20.5q30 0 49 -20t19 -50q0 -28 -19.5 -47.5t-48.5 -19.5q-27 0 -48 20t-21 47zM789 1675q0 29 20 48.5t49 19.5t48.5 -20.5t19.5 -49.5t-19 -48t-48 -19q-28 0 -49 20t-21 49zM68 0l530 1464h162l534 -1464h-127l-145 401h-694l-146 -401h-114
zM358 494h633l-317 872z" />
    <glyph glyph-name="Aring" unicode="&#xc5;" horiz-adv-x="1361" 
d="M479 1730q0 78 57.5 134.5t137.5 56.5t139 -56.5t59 -135.5t-60 -135t-138 -56q-77 0 -136 56.5t-59 135.5zM674 1595q54 0 93 38.5t39 94.5q0 55 -38 94.5t-94 39.5t-92.5 -39.5t-36.5 -94.5q0 -56 37 -94.5t92 -38.5zM68 0l530 1464h162l534 -1464h-127l-145 401h-694
l-146 -401h-114zM358 494h633l-317 872z" />
    <glyph glyph-name="AE" unicode="&#xc6;" horiz-adv-x="1981" 
d="M59 0l725 1464h1061v-96h-758v-569h617v-92h-617v-611h793v-96h-911v406h-592l-199 -406h-119zM422 494h547v874h-117z" />
    <glyph glyph-name="Ccedilla" unicode="&#xc7;" horiz-adv-x="1506" 
d="M563 -279h80q6 -44 38 -67t78 -23q47 0 77 24.5t30 72.5q0 45 -27 66.5t-71 21.5q-47 0 -82 -23l-45 43l86 150q-148 12 -267 75t-196 162.5t-117.5 228t-40.5 274.5q0 152 48.5 288.5t136.5 240.5t220.5 165t290.5 61q210 0 369.5 -105.5t219.5 -304.5l-101 -45
q-51 175 -179 264.5t-314 89.5q-130 0 -238.5 -53t-178.5 -142.5t-108.5 -204t-38.5 -240.5q0 -136 35 -252.5t103.5 -207t178 -142t248.5 -51.5q195 0 328.5 99t188.5 284l96 -43q-63 -210 -225 -325.5t-385 -117.5l-66 -115q32 8 60 8q71 0 113 -41t42 -111
q0 -78 -53 -119.5t-132 -41.5t-136 41t-66 116z" />
    <glyph glyph-name="Egrave" unicode="&#xc8;" horiz-adv-x="1232" 
d="M591 1577l-170 252h123l135 -252h-88zM193 0v1464h899v-96h-783v-569h643v-92h-643v-611h819v-96h-935z" />
    <glyph glyph-name="Eacute" unicode="&#xc9;" horiz-adv-x="1232" 
d="M566 1577l135 252h123l-172 -252h-86zM193 0v1464h899v-96h-783v-569h643v-92h-643v-611h819v-96h-935z" />
    <glyph glyph-name="Ecircumflex" unicode="&#xca;" horiz-adv-x="1232" 
d="M385 1577l229 252h101l225 -252h-88l-188 172l-193 -172h-86zM193 0v1464h899v-96h-783v-569h643v-92h-643v-611h819v-96h-935z" />
    <glyph glyph-name="Edieresis" unicode="&#xcb;" horiz-adv-x="1232" 
d="M418 1673q0 29 19.5 49.5t48.5 20.5q30 0 49.5 -20t19.5 -50q0 -28 -20 -47.5t-49 -19.5q-28 0 -48 19.5t-20 47.5zM772 1674q0 29 19 49t49 20q29 0 49 -20t20 -48q0 -29 -21 -49t-49 -20t-47.5 19.5t-19.5 48.5zM193 0v1464h899v-96h-783v-569h643v-92h-643v-611h819
v-96h-935z" />
    <glyph glyph-name="Igrave" unicode="&#xcc;" horiz-adv-x="525" 
d="M219 1577l-170 252h123l133 -252h-86zM203 0v1464h116v-1464h-116z" />
    <glyph glyph-name="Iacute" unicode="&#xcd;" horiz-adv-x="525" 
d="M215 1577l135 252h123l-172 -252h-86zM203 0v1464h116v-1464h-116z" />
    <glyph glyph-name="Icircumflex" unicode="&#xce;" horiz-adv-x="525" 
d="M-16 1577l229 252h101l225 -252h-88l-188 172l-193 -172h-86zM203 0v1464h116v-1464h-116z" />
    <glyph glyph-name="Idieresis" unicode="&#xcf;" horiz-adv-x="451" 
d="M6 1675q0 29 20 48.5t50 19.5t49 -20t19 -49t-19.5 -48.5t-48.5 -19.5q-28 0 -49 20t-21 49zM370 1606q-28 0 -47.5 20t-19.5 48t19 48.5t48 20.5q30 0 49 -20t19 -49t-19.5 -48.5t-48.5 -19.5zM165 0v1464h116v-1464h-116z" />
    <glyph glyph-name="Eth" unicode="&#xd0;" horiz-adv-x="1482" 
d="M207 0v694h-150v86h150v684h434q335 0 532 -192.5t197 -526.5q0 -350 -192 -547.5t-541 -197.5h-430zM324 96h309q294 0 455 170.5t161 471.5q0 297 -158.5 463.5t-459.5 166.5h-307v-588h403v-86h-403v-598z" />
    <glyph glyph-name="Ntilde" unicode="&#xd1;" horiz-adv-x="1508" 
d="M536 1581h-74q8 84 48 141.5t113 57.5q28 0 58.5 -10.5t50 -21.5t50.5 -31q79 -52 120 -52q42 0 65 33t30 80h74q-9 -83 -49.5 -141t-113.5 -58q-28 0 -58.5 11t-49 22t-50.5 32q-79 52 -116 52q-43 0 -67 -33.5t-31 -81.5zM193 0v1464h158l847 -1292v1292h115v-1464
h-135l-870 1325v-1325h-115z" />
    <glyph glyph-name="Ograve" unicode="&#xd2;" horiz-adv-x="1650" 
d="M792 1577l-170 252h123l133 -252h-86zM828 -16q-204 0 -370 98.5t-259 268t-93 372.5q0 155 52.5 293.5t145.5 240.5t228 162t292 60q204 0 369 -97.5t257 -265.5t92 -371q0 -155 -52 -294t-143.5 -242.5t-226.5 -164t-292 -60.5zM828 82q134 0 246.5 52t187 141t116 206
t41.5 248q0 107 -25.5 205t-76 180t-121 142.5t-166.5 94t-206 33.5q-134 0 -247 -51.5t-188.5 -139t-117.5 -205t-42 -249.5q0 -179 71 -327t209.5 -239t318.5 -91z" />
    <glyph glyph-name="Oacute" unicode="&#xd3;" horiz-adv-x="1650" 
d="M767 1577l135 252h123l-172 -252h-86zM828 -16q-204 0 -370 98.5t-259 268t-93 372.5q0 155 52.5 293.5t145.5 240.5t228 162t292 60q204 0 369 -97.5t257 -265.5t92 -371q0 -155 -52 -294t-143.5 -242.5t-226.5 -164t-292 -60.5zM828 82q134 0 246.5 52t187 141t116 206
t41.5 248q0 107 -25.5 205t-76 180t-121 142.5t-166.5 94t-206 33.5q-134 0 -247 -51.5t-188.5 -139t-117.5 -205t-42 -249.5q0 -179 71 -327t209.5 -239t318.5 -91z" />
    <glyph glyph-name="Ocircumflex" unicode="&#xd4;" horiz-adv-x="1650" 
d="M547 1577l228 252h100l226 -252h-88l-189 172l-192 -172h-85zM828 -16q-204 0 -370 98.5t-259 268t-93 372.5q0 155 52.5 293.5t145.5 240.5t228 162t292 60q204 0 369 -97.5t257 -265.5t92 -371q0 -155 -52 -294t-143.5 -242.5t-226.5 -164t-292 -60.5zM828 82
q134 0 246.5 52t187 141t116 206t41.5 248q0 107 -25.5 205t-76 180t-121 142.5t-166.5 94t-206 33.5q-134 0 -247 -51.5t-188.5 -139t-117.5 -205t-42 -249.5q0 -179 71 -327t209.5 -239t318.5 -91z" />
    <glyph glyph-name="Otilde" unicode="&#xd5;" horiz-adv-x="1650" 
d="M593 1581h-73q9 82 50 140.5t113 58.5q27 0 58 -11t51 -22.5t55 -34.5q73 -47 112 -47q42 0 66 33t31 80h73q-9 -83 -49.5 -141t-113.5 -58q-28 0 -59 11t-49 22t-50 32q-79 52 -118 52q-41 0 -65.5 -34t-31.5 -81zM828 -16q-204 0 -370 98.5t-259 268t-93 372.5
q0 155 52.5 293.5t145.5 240.5t228 162t292 60q204 0 369 -97.5t257 -265.5t92 -371q0 -155 -52 -294t-143.5 -242.5t-226.5 -164t-292 -60.5zM828 82q134 0 246.5 52t187 141t116 206t41.5 248q0 107 -25.5 205t-76 180t-121 142.5t-166.5 94t-206 33.5q-134 0 -247 -51.5
t-188.5 -139t-117.5 -205t-42 -249.5q0 -179 71 -327t209.5 -239t318.5 -91z" />
    <glyph glyph-name="Odieresis" unicode="&#xd6;" horiz-adv-x="1650" 
d="M575 1673q0 30 20 50t50 20t49 -20t19 -50q0 -28 -19.5 -47.5t-48.5 -19.5q-28 0 -49 19.5t-21 47.5zM932 1674q0 28 19 48.5t48 20.5q30 0 49 -20t19 -49t-19.5 -48.5t-48.5 -19.5q-28 0 -47.5 20t-19.5 48zM828 -16q-204 0 -370 98.5t-259 268t-93 372.5
q0 155 52.5 293.5t145.5 240.5t228 162t292 60q204 0 369 -97.5t257 -265.5t92 -371q0 -155 -52 -294t-143.5 -242.5t-226.5 -164t-292 -60.5zM828 82q134 0 246.5 52t187 141t116 206t41.5 248q0 107 -25.5 205t-76 180t-121 142.5t-166.5 94t-206 33.5q-134 0 -247 -51.5
t-188.5 -139t-117.5 -205t-42 -249.5q0 -179 71 -327t209.5 -239t318.5 -91z" />
    <glyph glyph-name="multiply" unicode="&#xd7;" horiz-adv-x="1063" 
d="M119 354l338 332l-338 338l63 63l336 -335l334 335l65 -63l-336 -338l336 -332l-63 -65l-336 336l-334 -334z" />
    <glyph glyph-name="Oslash" unicode="&#xd8;" horiz-adv-x="1650" 
d="M94 10l195 211q-90 103 -136.5 234t-46.5 274q0 153 52.5 290t145 239t227 161.5t290.5 59.5q129 0 248 -41t213 -121l176 194l55 -53l-174 -192q203 -212 203 -528q0 -153 -51.5 -290.5t-143 -240t-226.5 -163t-292 -60.5q-288 0 -487 184l-191 -213zM367 305l845 936
q-158 143 -390 143q-134 0 -246.5 -51.5t-188.5 -140t-118 -208t-42 -254.5q0 -252 140 -425zM1264 1186l-848 -940q80 -80 188 -122t227 -42q176 0 312 89.5t207 235.5t71 322q0 282 -157 457z" />
    <glyph glyph-name="Ugrave" unicode="&#xd9;" horiz-adv-x="1418" 
d="M676 1577l-170 252h123l133 -252h-86zM166 1464h117v-929q0 -218 104.5 -334.5t319.5 -116.5q227 0 325 121.5t98 353.5v905h117v-915q0 -271 -135.5 -416t-404.5 -145q-258 0 -399.5 141t-141.5 399v936z" />
    <glyph glyph-name="Uacute" unicode="&#xda;" horiz-adv-x="1418" 
d="M649 1577l135 252h123l-172 -252h-86zM166 1464h117v-929q0 -218 104.5 -334.5t319.5 -116.5q227 0 325 121.5t98 353.5v905h117v-915q0 -271 -135.5 -416t-404.5 -145q-258 0 -399.5 141t-141.5 399v936z" />
    <glyph glyph-name="Ucircumflex" unicode="&#xdb;" horiz-adv-x="1418" 
d="M428 1577l229 252h101l225 -252h-88l-188 172l-193 -172h-86zM166 1464h117v-929q0 -218 104.5 -334.5t319.5 -116.5q227 0 325 121.5t98 353.5v905h117v-915q0 -271 -135.5 -416t-404.5 -145q-258 0 -399.5 141t-141.5 399v936z" />
    <glyph glyph-name="Udieresis" unicode="&#xdc;" horiz-adv-x="1418" 
d="M461 1673q0 29 19.5 49.5t48.5 20.5q30 0 49.5 -20t19.5 -50q0 -28 -20 -47.5t-49 -19.5q-28 0 -48 19.5t-20 47.5zM815 1674q0 29 19 49t49 20q29 0 49 -20t20 -48q0 -29 -21 -49t-49 -20t-47.5 19.5t-19.5 48.5zM166 1464h117v-929q0 -218 104.5 -334.5t320.5 -116.5
q226 0 324 121.5t98 353.5v905h117v-915q0 -271 -135.5 -416t-403.5 -145q-258 0 -400 141t-142 399v936z" />
    <glyph glyph-name="Yacute" unicode="&#xdd;" horiz-adv-x="1201" 
d="M551 1577l137 252h121l-170 -252h-88zM555 0v655l-508 809h131l440 -710l416 710h117l-479 -809v-655h-117z" />
    <glyph glyph-name="Thorn" unicode="&#xde;" horiz-adv-x="1185" 
d="M193 0v1464h114v-299l199 2q100 1 176.5 -6.5t155.5 -33t130.5 -69t84 -120.5t32.5 -182q0 -77 -17.5 -139t-46.5 -104.5t-74.5 -73t-92.5 -48t-109.5 -27t-116.5 -12.5t-123 -2l-198 2v-352h-114zM307 442h276q69 0 124.5 9t105.5 31t84 57.5t54 92t20 130.5
q0 73 -19 127.5t-52.5 89t-83.5 56t-106 30t-127 8.5h-276v-631z" />
    <glyph glyph-name="germandbls" unicode="&#xdf;" horiz-adv-x="1177" 
d="M166 0v1169q0 189 112.5 303.5t300.5 114.5q164 0 273 -88t109 -245q0 -128 -74 -217.5t-198 -121.5q173 -33 287 -164.5t114 -306.5q0 -213 -110.5 -334.5t-326.5 -121.5q-109 0 -188 32l33 76q69 -20 145 -20q166 0 252 94t86 254q0 200 -125.5 320t-320.5 120v88
q134 0 227 77.5t93 209.5q0 131 -72.5 198.5t-199.5 67.5q-150 0 -230.5 -90.5t-80.5 -238.5v-1176h-106z" />
    <glyph glyph-name="agrave" unicode="&#xe0;" horiz-adv-x="1097" 
d="M526 1225l-177 305h121l140 -305h-84zM834 0v164q-58 -94 -155.5 -138t-216.5 -44q-76 0 -140.5 17.5t-116.5 53t-81.5 95.5t-29.5 139q0 68 21.5 122t59.5 87.5t88 58t107.5 35t118.5 17.5t120.5 6t113.5 0h49q39 0 59 1q0 75 -5.5 127.5t-23.5 105t-50 84t-87 51
t-133 19.5q-113 0 -192 -58t-112 -167l-89 37q44 137 148 207t250 70q211 0 308 -111t97 -326v-653h-108zM834 535h-246q-49 0 -88.5 -3t-87 -11t-82.5 -25.5t-65.5 -43.5t-46.5 -67.5t-16 -95.5q0 -61 22 -105.5t62 -69.5t88 -36.5t106 -11.5q59 0 120 17.5t114 49.5
t86.5 84.5t33.5 116.5v201z" />
    <glyph glyph-name="aacute" unicode="&#xe1;" horiz-adv-x="1097" 
d="M500 1225l141 305h119l-176 -305h-84zM834 0v164q-58 -94 -155.5 -138t-216.5 -44q-76 0 -140.5 17.5t-116.5 53t-81.5 95.5t-29.5 139q0 68 21.5 122t59.5 87.5t88 58t107.5 35t118.5 17.5t120.5 6t113.5 0h49q39 0 59 1q0 75 -5.5 127.5t-23.5 105t-50 84t-87 51
t-133 19.5q-113 0 -192 -58t-112 -167l-89 37q44 137 148 207t250 70q211 0 308 -111t97 -326v-653h-108zM834 535h-246q-49 0 -88.5 -3t-87 -11t-82.5 -25.5t-65.5 -43.5t-46.5 -67.5t-16 -95.5q0 -61 22 -105.5t62 -69.5t88 -36.5t106 -11.5q59 0 120 17.5t114 49.5
t86.5 84.5t33.5 116.5v201z" />
    <glyph glyph-name="acircumflex" unicode="&#xe2;" horiz-adv-x="1097" 
d="M266 1225l230 272h94l225 -272h-86l-186 194l-193 -194h-84zM834 0v164q-58 -94 -155.5 -138t-216.5 -44q-76 0 -140.5 17.5t-116.5 53t-81.5 95.5t-29.5 139q0 68 21.5 122t59.5 87.5t88 58t107.5 35t118.5 17.5t120.5 6t113.5 0h49q39 0 59 1q0 75 -5.5 127.5
t-23.5 105t-50 84t-87 51t-133 19.5q-113 0 -192 -58t-112 -167l-89 37q44 137 148 207t250 70q211 0 308 -111t97 -326v-653h-108zM834 535h-246q-49 0 -88.5 -3t-87 -11t-82.5 -25.5t-65.5 -43.5t-46.5 -67.5t-16 -95.5q0 -61 22 -105.5t62 -69.5t88 -36.5t106 -11.5
q59 0 120 17.5t114 49.5t86.5 84.5t33.5 116.5v201z" />
    <glyph glyph-name="atilde" unicode="&#xe3;" horiz-adv-x="1097" 
d="M307 1253h-74q9 83 51 140t119 57q45 0 95 -29t95 -57.5t79 -28.5q42 0 65.5 34.5t30.5 80.5h73q-10 -83 -50 -140t-117 -57q-36 0 -75.5 17.5t-68 38t-63.5 38t-62 17.5q-43 0 -67 -32.5t-31 -78.5zM834 0v166q-58 -95 -155.5 -139.5t-215.5 -44.5q-76 0 -141 18
t-117 54t-81.5 97t-29.5 141q0 63 19.5 113t50 83t79 57t94.5 37t108.5 20t110 9t109.5 2h107l59 1q0 75 -5.5 127.5t-23.5 105t-50 84t-87 51t-133 19.5q-113 0 -192 -58t-112 -167l-89 37q44 137 148 207t250 70q211 0 308 -111t97 -326v-653h-108zM834 535h-246
q-60 0 -107 -4t-102 -18.5t-91.5 -39.5t-61 -71t-24.5 -109q0 -119 77.5 -172t200.5 -53q59 0 120 17t114 49t86.5 84.5t33.5 116.5v200z" />
    <glyph glyph-name="adieresis" unicode="&#xe4;" horiz-adv-x="1097" 
d="M377 1292q-27 0 -47 20.5t-20 47.5q0 28 20 47.5t47 19.5q30 0 50 -18.5t20 -48.5t-20 -49t-50 -19zM639 1360q0 28 21 47.5t49 19.5q29 0 48.5 -19t19.5 -48q0 -28 -19.5 -48t-48.5 -20t-49.5 20t-20.5 48zM834 0v164q-58 -94 -155.5 -138t-216.5 -44q-76 0 -140.5 17.5
t-116.5 53t-81.5 95.5t-29.5 139q0 68 21.5 122t59.5 87.5t88 58t107.5 35t118.5 17.5t120.5 6t113.5 0h49q39 0 59 1q0 75 -5.5 127.5t-23.5 105t-50 84t-87 51t-133 19.5q-113 0 -192 -58t-112 -167l-89 37q44 137 148 207t250 70q211 0 308 -111t97 -326v-653h-108z
M834 535h-246q-49 0 -88.5 -3t-87 -11t-82.5 -25.5t-65.5 -43.5t-46.5 -67.5t-16 -95.5q0 -61 22 -105.5t62 -69.5t88 -36.5t106 -11.5q59 0 120 17.5t114 49.5t86.5 84.5t33.5 116.5v201z" />
    <glyph glyph-name="aring" unicode="&#xe5;" horiz-adv-x="1097" 
d="M352 1419q0 79 57 135t137 56t139 -56.5t59 -136.5q0 -79 -59 -133.5t-137 -54.5q-79 0 -137.5 55.5t-58.5 134.5zM548 1284q54 0 92 39.5t38 96.5q0 56 -37 94t-94 38t-93 -39t-36 -94q0 -56 37.5 -95.5t92.5 -39.5zM834 0v164q-58 -94 -155.5 -138t-216.5 -44
q-76 0 -140.5 17.5t-116.5 53t-81.5 95.5t-29.5 139q0 68 21.5 122t59.5 87.5t88 58t107.5 35t118.5 17.5t120.5 6t113.5 0h49q39 0 59 1q0 75 -5.5 127.5t-23.5 105t-50 84t-87 51t-133 19.5q-113 0 -192 -58t-112 -167l-89 37q44 137 148 207t250 70q211 0 308 -111
t97 -326v-653h-108zM834 535h-246q-49 0 -88.5 -3t-87 -11t-82.5 -25.5t-65.5 -43.5t-46.5 -67.5t-16 -95.5q0 -61 22 -105.5t62 -69.5t88 -36.5t106 -11.5q59 0 120 17.5t114 49.5t86.5 84.5t33.5 116.5v201z" />
    <glyph glyph-name="ae" unicode="&#xe6;" horiz-adv-x="1877" 
d="M236 774l-86 39q41 127 155.5 202t251.5 75q143 0 237.5 -64t119.5 -199q59 125 164.5 194t243.5 69q114 0 203.5 -40t145.5 -111t85.5 -165t29.5 -205v-39h-841q1 -99 23.5 -180t67.5 -145.5t121.5 -100.5t178.5 -36q127 0 212 57t138 174l83 -37q-127 -280 -429 -280
q-158 0 -273 74t-171 216q-42 -139 -161.5 -214.5t-275.5 -75.5q-73 0 -136 17t-115.5 52t-83 95.5t-30.5 140.5q0 61 19 110.5t49.5 83t76 57.5t91.5 37.5t103.5 21t104.5 9.5t102 1l198 -3q0 45 -0.5 73t-3 67t-8 63.5t-15.5 54.5t-24 49t-35.5 38.5t-49.5 30t-65 17.5
t-82 7q-115 0 -198.5 -60.5t-120.5 -169.5zM945 604h734q-4 180 -91.5 291t-256.5 111q-117 0 -204 -56t-131 -145.5t-51 -200.5zM838 528h-254q-42 0 -75.5 -1.5t-75 -7t-72.5 -15.5t-62.5 -28t-52 -42.5t-33 -60.5t-12.5 -82q0 -62 22.5 -107t62.5 -70t88 -36.5t107 -11.5
q93 0 172.5 33.5t132 104.5t52.5 165v159z" />
    <glyph glyph-name="ccedilla" unicode="&#xe7;" horiz-adv-x="1136" 
d="M365 -279h65q6 -46 39.5 -71t81.5 -25q50 0 82.5 26.5t32.5 76.5q0 46 -28.5 68t-75.5 22t-83 -21l-41 38l86 151q-135 17 -236 96.5t-151.5 197t-50.5 255.5q0 113 35.5 213.5t100 176.5t162.5 120.5t216 44.5q162 0 279 -82t168 -234l-93 -41q-33 128 -124 196t-222 68
q-128 0 -222.5 -64t-140.5 -167t-46 -230q0 -92 26 -174t74.5 -146.5t126 -102.5t173.5 -38q141 0 240.5 78.5t135.5 214.5l86 -39q-49 -168 -173 -257.5t-300 -89.5l-68 -117q35 10 64 10q67 0 108 -42t41 -109q0 -75 -51.5 -115.5t-127.5 -40.5q-75 0 -128 40.5t-61 112.5
z" />
    <glyph glyph-name="egrave" unicode="&#xe8;" horiz-adv-x="1146" 
d="M544 1225l-178 305h121l141 -305h-84zM967 297l82 -35q-56 -142 -175 -211t-278 -69q-119 0 -215.5 41.5t-161 115t-99 173t-34.5 216.5q0 113 34 214t96 178.5t158 123.5t212 46q153 0 261 -71t159 -188t51 -268v-35h-856q2 -204 100.5 -330t296.5 -126q128 0 228 56
t141 169zM201 608h747q-4 179 -95.5 288.5t-266.5 109.5q-168 0 -272 -113.5t-113 -284.5z" />
    <glyph glyph-name="eacute" unicode="&#xe9;" horiz-adv-x="1146" 
d="M522 1225l142 305h120l-178 -305h-84zM967 297l82 -35q-56 -142 -175 -211t-278 -69q-119 0 -215.5 41.5t-161 115t-99 173t-34.5 216.5q0 113 34 214t96 178.5t158 123.5t212 46q153 0 261 -71t159 -188t51 -268v-35h-856q2 -204 100.5 -330t296.5 -126q128 0 228 56
t141 169zM201 608h747q-4 179 -95.5 288.5t-266.5 109.5q-168 0 -272 -113.5t-113 -284.5z" />
    <glyph glyph-name="ecircumflex" unicode="&#xea;" horiz-adv-x="1146" 
d="M307 1225l230 272h94l225 -272h-86l-186 194l-191 -194h-86zM967 297l82 -35q-56 -142 -175 -211t-278 -69q-119 0 -215.5 41.5t-161 115t-99 173t-34.5 216.5q0 113 34 214t96 178.5t158 123.5t212 46q153 0 261 -71t159 -188t51 -268v-35h-856q2 -204 100.5 -330
t296.5 -126q128 0 228 56t141 169zM201 608h747q-4 179 -95.5 288.5t-266.5 109.5q-168 0 -272 -113.5t-113 -284.5z" />
    <glyph glyph-name="edieresis" unicode="&#xeb;" horiz-adv-x="1146" 
d="M416 1292q-28 0 -48 20t-20 48t20 47.5t48 19.5q29 0 49 -19.5t20 -47.5q0 -29 -20 -48.5t-49 -19.5zM678 1360q0 28 21 47.5t49 19.5t47.5 -19.5t19.5 -47.5q0 -29 -19.5 -48.5t-47.5 -19.5q-29 0 -49.5 20t-20.5 48zM967 297l82 -35q-56 -142 -175 -211t-278 -69
q-119 0 -215.5 41.5t-161 115t-99 173t-34.5 216.5q0 113 34 214t96 178.5t158 123.5t212 46q153 0 261 -71t159 -188t51 -268v-35h-856q2 -204 100.5 -330t296.5 -126q128 0 228 56t141 169zM199 608h749q-4 179 -95.5 288.5t-266.5 109.5q-168 0 -272.5 -113.5
t-114.5 -284.5z" />
    <glyph glyph-name="igrave" unicode="&#xec;" horiz-adv-x="449" 
d="M182 1225l-176 305h119l143 -305h-86zM170 0v1071h106v-1071h-106z" />
    <glyph glyph-name="iacute" unicode="&#xed;" horiz-adv-x="449" 
d="M176 1225l139 305h121l-178 -305h-82zM170 0v1071h106v-1071h-106z" />
    <glyph glyph-name="icircumflex" unicode="&#xee;" horiz-adv-x="449" 
d="M-51 1225l229 272h94l226 -272h-86l-187 194l-192 -194h-84zM170 0v1071h106v-1071h-106z" />
    <glyph glyph-name="idieresis" unicode="&#xef;" horiz-adv-x="449" 
d="M32 1360q0 28 21 47.5t49 19.5t48 -19.5t20 -47.5t-20 -48t-48 -20q-29 0 -49.5 20t-20.5 48zM346 1292q-28 0 -47.5 20t-19.5 48q0 29 19.5 48t47.5 19t48 -19.5t20 -47.5q0 -27 -20 -47.5t-48 -20.5zM170 0v1071h106v-1071h-106z" />
    <glyph glyph-name="eth" unicode="&#xf0;" horiz-adv-x="1228" 
d="M301 1198l-33 57l269 150q-103 79 -250 174h137q100 -58 201 -131l220 123l33 -60l-197 -108q204 -169 325.5 -381t121.5 -451v-36q0 -152 -64 -278t-183 -200.5t-271 -74.5q-151 0 -271.5 74.5t-185.5 199.5t-65 275q0 106 34 205.5t94.5 177.5t154 125.5t204.5 47.5
q250 0 387 -198q-115 259 -368 469zM607 70q127 0 222.5 64t142.5 167.5t47 228.5q0 209 -108 340t-311 131q-124 0 -217 -66t-139.5 -170.5t-46.5 -230.5q0 -92 26.5 -174.5t76.5 -147.5t129.5 -103.5t177.5 -38.5z" />
    <glyph glyph-name="ntilde" unicode="&#xf1;" horiz-adv-x="1201" 
d="M370 1253h-74q9 83 49.5 140t113.5 57q56 0 155 -64q80 -51 117 -51q43 0 67 34.5t31 80.5h72q-9 -84 -48.5 -140.5t-112.5 -56.5q-28 0 -59 10.5t-49 21t-51 30.5q-79 49 -115 49q-42 0 -67 -33t-29 -78zM164 0v1071h111v-221q46 113 156.5 176.5t238.5 63.5
q191 0 289 -114t98 -308v-668h-111v653q0 160 -76.5 248t-233.5 88q-154 0 -257.5 -99.5t-103.5 -252.5v-637h-111z" />
    <glyph glyph-name="ograve" unicode="&#xf2;" horiz-adv-x="1220" 
d="M575 1225l-176 305h119l143 -305h-86zM608 -18q-112 0 -209.5 43.5t-165 117t-106.5 173t-39 210.5q0 155 63 282t183 203t276 76q152 0 271 -72t183 -195t64 -275q0 -116 -36.5 -218.5t-102 -179t-164.5 -121t-217 -44.5zM610 70q126 0 220.5 64t141.5 167t47 227
q0 97 -25.5 181.5t-75 150t-129 103.5t-179.5 38q-126 0 -221.5 -63.5t-143.5 -166.5t-48 -228q0 -96 26.5 -180.5t76.5 -150.5t130 -104t180 -38z" />
    <glyph glyph-name="oacute" unicode="&#xf3;" horiz-adv-x="1220" 
d="M551 1225l138 305h121l-177 -305h-82zM608 -18q-112 0 -209.5 43.5t-165 117t-106.5 173t-39 210.5q0 155 63 282t183 203t276 76q152 0 271 -72t183 -195t64 -275q0 -116 -36.5 -218.5t-102 -179t-164.5 -121t-217 -44.5zM610 70q126 0 220.5 64t141.5 167t47 227
q0 97 -25.5 181.5t-75 150t-129 103.5t-179.5 38q-126 0 -221.5 -63.5t-143.5 -166.5t-48 -228q0 -96 26.5 -180.5t76.5 -150.5t130 -104t180 -38z" />
    <glyph glyph-name="ocircumflex" unicode="&#xf4;" horiz-adv-x="1220" 
d="M332 1225l231 272h93l226 -272h-86l-188 194l-190 -194h-86zM608 -18q-112 0 -209.5 43.5t-165 117t-106.5 173t-39 210.5q0 155 63 282t183 203t276 76q152 0 271 -72t183 -195t64 -275q0 -116 -36.5 -218.5t-102 -179t-164.5 -121t-217 -44.5zM610 70q126 0 220.5 64
t141.5 167t47 227q0 97 -25.5 181.5t-75 150t-129 103.5t-179.5 38q-126 0 -221.5 -63.5t-143.5 -166.5t-48 -228q0 -96 26.5 -180.5t76.5 -150.5t130 -104t180 -38z" />
    <glyph glyph-name="otilde" unicode="&#xf5;" horiz-adv-x="1220" 
d="M379 1253h-74q9 81 49.5 139t112.5 58q27 0 58 -11t49.5 -21.5t50.5 -31.5q78 -51 116 -51q42 0 66.5 34.5t31.5 80.5h71q-6 -53 -22.5 -95t-52 -72t-85.5 -30q-28 0 -59 10.5t-50 21t-51 30.5q-79 49 -115 49q-42 0 -67 -33t-29 -78zM608 -18q-112 0 -209.5 43.5
t-165 117t-106.5 173t-39 210.5q0 155 63 282t183 203t276 76q152 0 271 -72t183 -195t64 -275q0 -116 -36.5 -218.5t-102 -179t-164.5 -121t-217 -44.5zM610 70q126 0 220.5 64t141.5 167t47 227q0 97 -25.5 181.5t-75 150t-129 103.5t-179.5 38q-126 0 -221.5 -63.5
t-143.5 -166.5t-48 -228q0 -96 26.5 -180.5t76.5 -150.5t130 -104t180 -38z" />
    <glyph glyph-name="odieresis" unicode="&#xf6;" horiz-adv-x="1220" 
d="M373 1360q0 27 21 47t50 20q28 0 47 -19t19 -48q0 -28 -19.5 -48t-46.5 -20q-28 0 -49.5 20.5t-21.5 47.5zM772 1292q-29 0 -48 19.5t-19 48.5t18.5 48t47.5 19t50 -19.5t21 -47.5t-21 -48t-49 -20zM608 -18q-112 0 -209.5 43.5t-165 117t-106.5 173t-39 210.5
q0 155 63 282t183 203t276 76q152 0 271 -72t183 -195t64 -275q0 -116 -36.5 -218.5t-102 -179t-164.5 -121t-217 -44.5zM610 70q126 0 220.5 64t141.5 167t47 227q0 97 -25.5 181.5t-75 150t-129 103.5t-179.5 38q-126 0 -221.5 -63.5t-143.5 -166.5t-48 -228
q0 -96 26.5 -180.5t76.5 -150.5t130 -104t180 -38z" />
    <glyph glyph-name="divide" unicode="&#xf7;" horiz-adv-x="1086" 
d="M465 1060q0 31 21.5 53t54.5 22t55 -22t22 -55t-22 -54t-53 -21q-32 0 -55 22.5t-23 54.5zM90 655v88h903v-88h-903zM541 264q-32 0 -54 23t-22 55t22 55t55 23q32 0 54 -22t22 -56q0 -33 -22.5 -55.5t-54.5 -22.5z" />
    <glyph glyph-name="oslash" unicode="&#xf8;" horiz-adv-x="1220" 
d="M76 2l141 156q-129 151 -129 374q0 151 62.5 277t181.5 202t272 76q195 0 339 -118l130 143l53 -47l-132 -145q134 -149 134 -380q0 -114 -36 -215.5t-101 -177.5t-162.5 -120.5t-213.5 -44.5q-205 0 -349 127l-137 -154zM287 236l591 661q-110 104 -272 104
q-124 0 -219 -63.5t-142.5 -167t-47.5 -227.5q0 -185 90 -307zM925 844l-595 -664q119 -110 287 -110q123 0 216 63.5t139.5 166.5t46.5 228q0 195 -94 316z" />
    <glyph glyph-name="ugrave" unicode="&#xf9;" horiz-adv-x="1195" 
d="M564 1225l-178 305h121l140 -305h-83zM922 0v207q-47 -109 -153.5 -167t-232.5 -58q-193 0 -291 107t-98 302v680h112v-668q0 -157 76.5 -242t232.5 -85q153 0 253.5 97.5t100.5 250.5v647h112v-1071h-112z" />
    <glyph glyph-name="uacute" unicode="&#xfa;" horiz-adv-x="1195" 
d="M538 1225l140 305h121l-177 -305h-84zM921 0v207q-46 -109 -153 -167t-233 -58q-193 0 -290.5 107t-97.5 302v680h112v-668q0 -157 76.5 -242t231.5 -85q153 0 253.5 97.5t100.5 250.5v647h112v-1071h-112z" />
    <glyph glyph-name="ucircumflex" unicode="&#xfb;" horiz-adv-x="1195" 
d="M323 1225l229 272h93l225 -272h-86l-185 194l-190 -194h-86zM921 0v207q-46 -109 -153 -167t-233 -58q-193 0 -290.5 107t-97.5 302v680h112v-668q0 -157 76.5 -242t231.5 -85q153 0 253.5 97.5t100.5 250.5v647h112v-1071h-112z" />
    <glyph glyph-name="udieresis" unicode="&#xfc;" horiz-adv-x="1195" 
d="M362 1360q0 28 21 47.5t49 19.5q29 0 48.5 -19t19.5 -48q0 -28 -20 -48t-48 -20q-29 0 -49.5 20t-20.5 48zM691 1360q0 28 21 47.5t49 19.5q29 0 48.5 -19t19.5 -48q0 -28 -19.5 -48t-48.5 -20t-49.5 20t-20.5 48zM922 0v207q-47 -109 -153.5 -167t-232.5 -58
q-193 0 -291 107t-98 302v680h112v-668q0 -157 76.5 -242t232.5 -85q153 0 253.5 97.5t100.5 250.5v647h112v-1071h-112z" />
    <glyph glyph-name="yacute" unicode="&#xfd;" horiz-adv-x="1054" 
d="M469 1225l140 305h121l-177 -305h-84zM262 -399l201 485l-410 985h121l346 -862l348 862h113l-608 -1470h-111z" />
    <glyph glyph-name="thorn" unicode="&#xfe;" horiz-adv-x="1258" 
d="M166 -371v1950h108v-787q55 131 170 214.5t253 83.5q111 0 202 -45t148.5 -121.5t88.5 -173.5t31 -205q0 -90 -17.5 -172t-55.5 -153.5t-92.5 -124t-133 -83t-173.5 -30.5q-143 0 -255 77t-166 211v-641h-108zM674 72q96 0 171.5 37t121 101t69 145.5t23.5 174.5
q0 91 -22 172.5t-66.5 149.5t-119.5 108t-172 40q-124 0 -218 -64.5t-141.5 -167.5t-47.5 -225q0 -96 25.5 -180t74.5 -149.5t127 -103.5t175 -38z" />
    <glyph glyph-name="ydieresis" unicode="&#xff;" horiz-adv-x="1054" 
d="M368 1292q-27 0 -47 20.5t-20 47.5q0 28 20 47.5t47 19.5q30 0 50 -18.5t20 -48.5t-20 -49t-50 -19zM699 1292q-29 0 -48.5 19.5t-19.5 48.5t19.5 48t48.5 19t49 -19t20 -48q0 -30 -20 -49t-49 -19zM262 -399l201 485l-410 985h121l346 -862l348 862h113l-608 -1470h-111
z" />
    <glyph glyph-name="Amacron" unicode="&#x100;" horiz-adv-x="1361" 
d="M414 1620v80h506v-80h-506zM68 0l530 1464h162l534 -1464h-127l-145 401h-694l-146 -401h-114zM358 494h633l-317 872z" />
    <glyph glyph-name="amacron" unicode="&#x101;" horiz-adv-x="1097" 
d="M311 1315v78h492v-78h-492zM834 0v164q-58 -94 -155.5 -138t-216.5 -44q-76 0 -140.5 17.5t-116.5 53t-81.5 95.5t-29.5 139q0 68 21.5 122t59.5 87.5t88 58t107.5 35t118.5 17.5t120.5 6t113.5 0h49q39 0 59 1q0 75 -5.5 127.5t-23.5 105t-50 84t-87 51t-133 19.5
q-113 0 -192 -58t-112 -167l-89 37q44 137 148 207t250 70q211 0 308 -111t97 -326v-653h-108zM834 535h-246q-49 0 -88.5 -3t-87 -11t-82.5 -25.5t-65.5 -43.5t-46.5 -67.5t-16 -95.5q0 -61 22 -105.5t62 -69.5t88 -36.5t106 -11.5q59 0 120 17.5t114 49.5t86.5 84.5
t33.5 116.5v201z" />
    <glyph glyph-name="Abreve" unicode="&#x102;" horiz-adv-x="1361" 
d="M414 1827h84q6 -73 55.5 -121.5t122.5 -48.5q72 0 124 49t60 121h82q-8 -106 -83.5 -178t-182.5 -72q-108 0 -181 71t-81 179zM68 0l530 1464h162l534 -1464h-127l-145 401h-694l-146 -401h-114zM358 494h633l-317 872z" />
    <glyph glyph-name="abreve" unicode="&#x103;" horiz-adv-x="1097" 
d="M303 1495h84q6 -74 50.5 -119t117.5 -45q71 0 118.5 46t55.5 118h80q-6 -107 -76.5 -175.5t-177.5 -68.5t-175.5 68t-76.5 176zM834 0v164q-58 -94 -155.5 -138t-216.5 -44q-76 0 -140.5 17.5t-116.5 53t-81.5 95.5t-29.5 139q0 68 21.5 122t59.5 87.5t88 58t107.5 35
t118.5 17.5t120.5 6t113.5 0h49q39 0 59 1q0 75 -5.5 127.5t-23.5 105t-50 84t-87 51t-133 19.5q-113 0 -192 -58t-112 -167l-89 37q44 137 148 207t250 70q211 0 308 -111t97 -326v-653h-108zM834 535h-246q-49 0 -88.5 -3t-87 -11t-82.5 -25.5t-65.5 -43.5t-46.5 -67.5
t-16 -95.5q0 -61 22 -105.5t62 -69.5t88 -36.5t106 -11.5q59 0 120 17.5t114 49.5t86.5 84.5t33.5 116.5v201z" />
    <glyph glyph-name="Aogonek" unicode="&#x104;" horiz-adv-x="1357" 
d="M68 0l530 1464h162l534 -1464h-16q-68 -45 -112 -94t-44 -111q0 -48 30 -71t82 -23q49 0 91 18v-69q-45 -23 -117 -23q-77 0 -131.5 38t-54.5 111q0 67 46 125t112 99h-13l-145 401h-694l-146 -401h-114zM358 494h633l-317 872z" />
    <glyph glyph-name="aogonek" unicode="&#x105;" horiz-adv-x="1097" 
d="M834 0v164q-58 -94 -155.5 -138t-216.5 -44q-76 0 -140.5 17.5t-116.5 53t-81.5 95.5t-29.5 139q0 68 21.5 122t59.5 87.5t88 58t107.5 35t118.5 17.5t120.5 6t113.5 0h49q39 0 59 1q0 75 -5.5 127.5t-23.5 105t-50 84t-87 51t-133 19.5q-113 0 -192 -58t-112 -167
l-89 37q44 137 148 207t250 70q211 0 308 -111t97 -326v-653h-23q-156 -101 -156 -205q0 -49 33 -71.5t86 -22.5q45 0 86 16v-67q-53 -23 -113 -23q-81 0 -135.5 38t-54.5 112q0 127 166 223h3zM834 535h-246q-49 0 -88.5 -3t-87 -11t-82.5 -25.5t-65.5 -43.5t-46.5 -67.5
t-16 -95.5q0 -61 22 -105.5t62 -69.5t88 -36.5t106 -11.5q59 0 120 17.5t114 49.5t86.5 84.5t33.5 116.5v201z" />
    <glyph glyph-name="Cacute" unicode="&#x106;" horiz-adv-x="1506" 
d="M739 1577l135 252h123l-172 -252h-86zM1315 469l96 -43q-63 -213 -227 -327.5t-393 -114.5q-211 0 -368 97.5t-237 264.5t-80 379q0 152 48.5 288.5t136 240.5t220 165.5t290.5 61.5q210 0 370 -106t220 -305l-101 -45q-51 175 -179.5 264.5t-313.5 89.5q-131 0 -239 -53
t-178 -142.5t-108.5 -204t-38.5 -240.5q0 -136 35 -252.5t103.5 -207t178 -142t248.5 -51.5q195 0 328.5 99t188.5 284z" />
    <glyph glyph-name="cacute" unicode="&#x107;" horiz-adv-x="1146" 
d="M535 1225l141 305h119l-176 -305h-84zM977 368l86 -39q-48 -164 -170.5 -255.5t-292.5 -91.5q-153 0 -270.5 74t-179.5 199t-62 279q0 113 35.5 214t100 177t162.5 120.5t216 44.5q162 0 279 -82t168 -234l-93 -41q-33 128 -124 196t-222 68q-128 0 -222.5 -64
t-140.5 -167t-46 -229q0 -92 26 -174t74.5 -147t126 -103t173.5 -38q141 0 240.5 78.5t135.5 214.5z" />
    <glyph glyph-name="Ccircumflex" unicode="&#x108;" horiz-adv-x="1506" 
d="M518 1577l229 252h101l225 -252h-88l-188 172l-193 -172h-86zM1315 469l96 -43q-63 -213 -227 -327.5t-393 -114.5q-211 0 -368 97.5t-237 264.5t-80 379q0 152 48.5 288.5t136 240.5t220 165.5t290.5 61.5q210 0 370 -106t220 -305l-101 -45q-51 175 -179.5 264.5
t-313.5 89.5q-131 0 -239 -53t-178 -142.5t-108.5 -204t-38.5 -240.5q0 -136 35 -252.5t103.5 -207t178 -142t248.5 -51.5q195 0 328.5 99t188.5 284z" />
    <glyph glyph-name="ccircumflex" unicode="&#x109;" horiz-adv-x="1146" 
d="M317 1225l229 272h94l226 -272h-86l-187 194l-192 -194h-84zM977 368l86 -39q-48 -164 -170.5 -255.5t-292.5 -91.5q-153 0 -270.5 74t-179.5 199t-62 279q0 113 35.5 214t100 177t162.5 120.5t216 44.5q162 0 279 -82t168 -234l-93 -41q-33 128 -124 196t-222 68
q-128 0 -222.5 -64t-140.5 -167t-46 -229q0 -92 26 -174t74.5 -147t126 -103t173.5 -38q141 0 240.5 78.5t135.5 214.5z" />
    <glyph glyph-name="Cdotaccent" unicode="&#x10a;" horiz-adv-x="1506" 
d="M792 1610q-39 0 -65 27.5t-26 66.5t26 65t65 26t68 -26.5t29 -64.5q0 -39 -29 -66.5t-68 -27.5zM1315 469l96 -43q-63 -213 -227 -327.5t-393 -114.5q-211 0 -368 97.5t-237 264.5t-80 379q0 152 48.5 288.5t136 240.5t220 165.5t290.5 61.5q210 0 370 -106t220 -305
l-101 -45q-51 175 -179.5 264.5t-313.5 89.5q-131 0 -239 -53t-178 -142.5t-108.5 -204t-38.5 -240.5q0 -136 35 -252.5t103.5 -207t178 -142t248.5 -51.5q195 0 328.5 99t188.5 284z" />
    <glyph glyph-name="cdotaccent" unicode="&#x10b;" horiz-adv-x="1146" 
d="M591 1247q-39 0 -65 27.5t-26 66.5t26 65t65 26t68 -26.5t29 -64.5q0 -39 -29 -66.5t-68 -27.5zM977 368l86 -39q-48 -164 -170.5 -255.5t-292.5 -91.5q-153 0 -270.5 74t-179.5 199t-62 279q0 113 35.5 214t100 177t162.5 120.5t216 44.5q162 0 279 -82t168 -234
l-93 -41q-33 128 -124 196t-222 68q-128 0 -222.5 -64t-140.5 -167t-46 -229q0 -92 26 -174t74.5 -147t126 -103t173.5 -38q141 0 240.5 78.5t135.5 214.5z" />
    <glyph glyph-name="Ccaron" unicode="&#x10c;" horiz-adv-x="1506" 
d="M743 1577l-227 252h88l193 -176l192 176h86l-231 -252h-101zM1315 469l96 -43q-63 -213 -227 -327.5t-393 -114.5q-211 0 -368 97.5t-237 264.5t-80 379q0 152 48.5 288.5t136 240.5t220 165.5t290.5 61.5q210 0 370 -106t220 -305l-101 -45q-51 175 -179.5 264.5
t-313.5 89.5q-131 0 -239 -53t-178 -142.5t-108.5 -204t-38.5 -240.5q0 -136 35 -252.5t103.5 -207t178 -142t248.5 -51.5q195 0 328.5 99t188.5 284z" />
    <glyph glyph-name="ccaron" unicode="&#x10d;" horiz-adv-x="1146" 
d="M543 1249l-226 273h84l191 -195l190 195h84l-229 -273h-94zM977 368l86 -39q-48 -164 -170.5 -255.5t-292.5 -91.5q-153 0 -270.5 74t-179.5 199t-62 279q0 113 35.5 214t100 177t162.5 120.5t216 44.5q162 0 279 -82t168 -234l-93 -41q-33 128 -124 196t-222 68
q-128 0 -222.5 -64t-140.5 -167t-46 -229q0 -92 26 -174t74.5 -147t126 -103t173.5 -38q141 0 240.5 78.5t135.5 214.5z" />
    <glyph glyph-name="Dcaron" unicode="&#x10e;" horiz-adv-x="1465" 
d="M602 1577l-227 252h86l192 -176l195 176h84l-232 -252h-98zM193 0v1464h436q334 0 530.5 -193.5t196.5 -526.5q0 -349 -191.5 -546.5t-539.5 -197.5h-432zM309 96h309q295 0 456 169.5t161 471.5q0 297 -159 464t-460 167h-307v-1272z" />
    <glyph glyph-name="dcaron" unicode="&#x10f;" horiz-adv-x="1336" 
d="M981 0v242q-48 -124 -157 -192t-260 -68q-113 0 -205 43.5t-150.5 119t-89.5 173.5t-31 209q0 113 32 213.5t91.5 179t152.5 124.5t208 46q143 0 253 -68t156 -184v741h111v-1579h-111zM1208 1257l25 322h100l-53 -322h-72zM582 72q95 0 172.5 37t127.5 99.5t76.5 144
t26.5 173.5q0 75 -13.5 143.5t-43.5 129.5t-74 105t-110 70t-146 26q-129 0 -221 -64.5t-135 -168.5t-43 -234q0 -73 14 -139t44 -125.5t74 -102.5t108.5 -68.5t142.5 -25.5z" />
    <glyph glyph-name="Dcroat" unicode="&#x110;" horiz-adv-x="1482" 
d="M207 0v694h-150v86h150v684h434q335 0 532 -192.5t197 -526.5q0 -350 -192 -547.5t-541 -197.5h-430zM324 96h309q294 0 455 170.5t161 471.5q0 297 -158.5 463.5t-459.5 166.5h-307v-588h403v-86h-403v-598z" />
    <glyph glyph-name="dcroat" unicode="&#x111;" horiz-adv-x="1258" 
d="M983 0v272q-50 -131 -164 -210.5t-254 -79.5q-151 0 -261 76t-163 197.5t-53 271.5q0 113 32 213.5t91.5 179t153 124.5t208.5 46q148 0 252.5 -74t157.5 -208v470h-389v72h389v229h109v-229h157v-72h-157v-1278h-109zM583 72q126 0 219.5 63.5t139 165.5t45.5 225
q0 75 -13.5 143.5t-43.5 129.5t-74 105t-110 70t-146 26q-129 0 -221.5 -64.5t-136 -168.5t-43.5 -234q0 -92 23 -172.5t68 -146.5t120.5 -104t172.5 -38z" />
    <glyph glyph-name="Emacron" unicode="&#x112;" horiz-adv-x="1232" 
d="M410 1620v80h505v-80h-505zM193 0v1464h899v-96h-783v-569h643v-92h-643v-611h819v-96h-935z" />
    <glyph glyph-name="emacron" unicode="&#x113;" horiz-adv-x="1146" 
d="M336 1317v76h491v-76h-491zM967 297l82 -35q-56 -142 -175 -211t-278 -69q-119 0 -215.5 41.5t-161 115t-99 173t-34.5 216.5q0 113 34 214t96 178.5t158 123.5t212 46q153 0 261 -71t159 -188t51 -268v-35h-856q2 -204 100.5 -330t296.5 -126q128 0 228 56t141 169z
M199 608h749q-4 179 -95.5 288.5t-266.5 109.5q-168 0 -272.5 -113.5t-114.5 -284.5z" />
    <glyph glyph-name="Ebreve" unicode="&#x114;" horiz-adv-x="1232" 
d="M401 1827h84q6 -73 55.5 -121.5t122.5 -48.5q72 0 124 49t60 121h82q-8 -106 -83.5 -178t-182.5 -72q-108 0 -181 71t-81 179zM193 0v1464h899v-96h-783v-569h643v-92h-643v-611h819v-96h-935z" />
    <glyph glyph-name="ebreve" unicode="&#x115;" horiz-adv-x="1146" 
d="M324 1495h82q8 -73 52.5 -118.5t116.5 -45.5q73 0 119 45.5t54 118.5h81q-6 -106 -77 -175t-178 -69t-174.5 68t-75.5 176zM967 297l82 -35q-56 -142 -175 -211t-278 -69q-119 0 -215.5 41.5t-161 115t-99 173t-34.5 216.5q0 113 34 214t96 178.5t158 123.5t212 46
q153 0 261 -71t159 -188t51 -268v-35h-856q2 -204 100.5 -330t296.5 -126q128 0 228 56t141 169zM199 608h749q-4 179 -95.5 288.5t-266.5 109.5q-168 0 -272.5 -113.5t-114.5 -284.5z" />
    <glyph glyph-name="Edotaccent" unicode="&#x116;" horiz-adv-x="1232" 
d="M658 1590q-39 0 -65 27.5t-26 66.5t26 65t65 26t68 -26.5t29 -64.5q0 -39 -29 -66.5t-68 -27.5zM193 0v1464h899v-96h-783v-569h643v-92h-643v-611h819v-96h-935z" />
    <glyph glyph-name="edotaccent" unicode="&#x117;" horiz-adv-x="1146" 
d="M580 1247q-39 0 -65 27.5t-26 66.5t26 65t65 26t68 -26.5t29 -64.5q0 -39 -29 -66.5t-68 -27.5zM967 297l82 -35q-56 -142 -175 -211t-278 -69q-119 0 -215.5 41.5t-161 115t-99 173t-34.5 216.5q0 113 34 214t96 178.5t158 123.5t212 46q153 0 261 -71t159 -188t51 -268
v-35h-856q2 -204 100.5 -330t296.5 -126q128 0 228 56t141 169zM199 608h749q-4 179 -95.5 288.5t-266.5 109.5q-168 0 -272.5 -113.5t-114.5 -284.5z" />
    <glyph glyph-name="Eogonek" unicode="&#x118;" horiz-adv-x="1232" 
d="M193 0v1464h899v-96h-783v-569h645v-92h-645v-611h819v-96h-122q-154 -101 -154 -205q0 -94 108 -94q48 0 91 18v-69q-40 -23 -115 -23q-76 0 -130 38.5t-54 112.5q0 120 157 222h-716z" />
    <glyph glyph-name="eogonek" unicode="&#x119;" horiz-adv-x="1146" 
d="M880 -285v-65q-44 -23 -115 -23q-76 0 -130.5 37.5t-54.5 109.5q0 69 49.5 129t118.5 103q-72 -24 -158 -24q-232 0 -367 152t-135 391q0 114 33 215.5t94.5 179.5t158.5 124t216 46q148 0 255 -70.5t158.5 -186.5t51.5 -264v-39h-858q1 -100 25 -182t72 -145.5
t127.5 -99t184.5 -35.5q127 0 211.5 55.5t130.5 175.5l86 -37q-32 -79 -110 -157l-58 -54q-190 -153 -190 -261q0 -46 31 -68.5t81 -22.5q42 0 92 16zM199 608h747q-4 178 -93.5 287t-258.5 109q-173 0 -279 -112.5t-116 -283.5z" />
    <glyph glyph-name="Ecaron" unicode="&#x11a;" horiz-adv-x="1232" 
d="M612 1577l-227 252h88l193 -176l192 176h86l-231 -252h-101zM193 0v1464h899v-96h-783v-569h643v-92h-643v-611h819v-96h-935z" />
    <glyph glyph-name="ecaron" unicode="&#x11b;" horiz-adv-x="1146" 
d="M532 1249l-225 273h86l189 -195l190 195h84l-229 -273h-95zM967 297l82 -35q-56 -142 -175 -211t-278 -69q-119 0 -215.5 41.5t-161 115t-99 173t-34.5 216.5q0 113 34 214t96 178.5t158 123.5t212 46q153 0 261 -71t159 -188t51 -268v-35h-856q2 -204 100.5 -330
t296.5 -126q128 0 228 56t141 169zM201 608h747q-4 179 -95.5 288.5t-266.5 109.5q-168 0 -272 -113.5t-113 -284.5z" />
    <glyph glyph-name="Gcircumflex" unicode="&#x11c;" horiz-adv-x="1570" 
d="M537 1577l229 252h101l225 -252h-88l-188 172l-193 -172h-86zM902 621v92h553v-429q-202 -300 -633 -300q-164 0 -298 55t-224.5 153t-139.5 234.5t-49 298.5q0 154 50 292t140 240.5t223 163t290 60.5q212 0 369.5 -95.5t222.5 -287.5l-103 -45q-46 157 -181.5 242
t-307.5 85q-133 0 -243 -52t-182 -140.5t-111.5 -204.5t-39.5 -246q0 -142 36.5 -259.5t107.5 -206t185 -137.5t262 -49q157 0 294.5 56.5t216.5 176.5v303h-438z" />
    <glyph glyph-name="gcircumflex" unicode="&#x11d;" horiz-adv-x="1258" 
d="M324 1225l229 272h93l225 -272h-86l-185 194l-190 -194h-86zM113 -115l90 37q29 -81 95.5 -136t143.5 -77t165 -22q186 0 289 103.5t103 287.5v223q-47 -120 -169 -186t-265 -66q-213 0 -347 143t-134 363q0 146 61 267.5t177 194.5t264 73q303 0 413 -242v223h111v-999
q0 -229 -133.5 -351t-366.5 -122q-80 0 -154 15t-143 47.5t-121.5 89.5t-78.5 134zM588 137q185 0 302.5 119.5t117.5 300.5q0 191 -106 315.5t-292 124.5q-185 0 -298 -122.5t-113 -307.5q0 -190 103 -310t286 -120z" />
    <glyph glyph-name="Gbreve" unicode="&#x11e;" horiz-adv-x="1570" 
d="M549 1827h84q6 -73 55.5 -121.5t122.5 -48.5q72 0 124 49t60 121h82q-8 -106 -83.5 -178t-182.5 -72t-180.5 71t-81.5 179zM902 621v92h553v-429q-202 -300 -633 -300q-164 0 -298 55t-224.5 153t-139.5 234.5t-49 298.5q0 154 50 292t140 240.5t223 163t290 60.5
q212 0 369.5 -95.5t222.5 -287.5l-103 -45q-46 157 -181.5 242t-307.5 85q-133 0 -243 -52t-182 -140.5t-111.5 -204.5t-39.5 -246q0 -142 36.5 -259.5t107.5 -206t185 -137.5t262 -49q157 0 294.5 56.5t216.5 176.5v303h-438z" />
    <glyph glyph-name="gbreve" unicode="&#x11f;" horiz-adv-x="1258" 
d="M346 1495h82q6 -72 51 -118t117 -46q71 0 118.5 46t55.5 118h80q-6 -107 -76.5 -175.5t-177.5 -68.5t-174.5 68t-75.5 176zM113 -115l90 37q29 -81 95.5 -136t143.5 -77t165 -22q186 0 289 103.5t103 287.5v223q-47 -120 -169 -186t-265 -66q-213 0 -347 143t-134 363
q0 146 61 267.5t177 194.5t264 73q303 0 413 -242v223h111v-999q0 -229 -133.5 -351t-366.5 -122q-80 0 -154 15t-143 47.5t-121.5 89.5t-78.5 134zM588 137q185 0 302.5 119.5t117.5 300.5q0 191 -106 315.5t-292 124.5q-185 0 -298 -122.5t-113 -307.5q0 -190 103 -310
t286 -120z" />
    <glyph glyph-name="Gdotaccent" unicode="&#x120;" horiz-adv-x="1570" 
d="M805 1583q-39 0 -65 27.5t-26 66.5t26 65t65 26t68 -26.5t29 -64.5q0 -39 -29 -66.5t-68 -27.5zM902 621v92h553v-429q-202 -300 -633 -300q-164 0 -298 55t-224.5 153t-139.5 234.5t-49 298.5q0 154 50 292t140 240.5t223 163t290 60.5q212 0 369.5 -95.5t222.5 -287.5
l-103 -45q-46 157 -181.5 242t-307.5 85q-133 0 -243 -52t-182 -140.5t-111.5 -204.5t-39.5 -246q0 -142 36.5 -259.5t107.5 -206t185 -137.5t262 -49q157 0 294.5 56.5t216.5 176.5v303h-438z" />
    <glyph glyph-name="gdotaccent" unicode="&#x121;" horiz-adv-x="1258" 
d="M597 1247q-39 0 -65 27.5t-26 66.5t26 65t65 26t68 -26.5t29 -64.5q0 -39 -29 -66.5t-68 -27.5zM113 -115l90 37q29 -81 95.5 -136t143.5 -77t165 -22q186 0 289 103.5t103 287.5v223q-47 -120 -169 -186t-265 -66q-213 0 -347 143t-134 363q0 146 61 267.5t177 194.5
t264 73q303 0 413 -242v223h111v-999q0 -229 -133.5 -351t-366.5 -122q-80 0 -154 15t-143 47.5t-121.5 89.5t-78.5 134zM588 137q185 0 302.5 119.5t117.5 300.5q0 191 -106 315.5t-292 124.5q-185 0 -298 -122.5t-113 -307.5q0 -190 103 -310t286 -120z" />
    <glyph glyph-name="uni0122" unicode="&#x122;" horiz-adv-x="1570" 
d="M902 621v92h553v-429q-202 -300 -633 -300q-164 0 -298 55t-224.5 153t-139.5 234.5t-49 298.5q0 154 50 292t140 240.5t223 163t290 60.5q212 0 369.5 -95.5t222.5 -287.5l-103 -45q-46 157 -181.5 242t-307.5 85q-133 0 -243 -52t-182 -140.5t-111.5 -204.5t-39.5 -246
q0 -142 36.5 -259.5t107.5 -206t185 -137.5t262 -49q157 0 294.5 56.5t216.5 176.5v303h-438zM674 -377l119 287l89 -19l-139 -290z" />
    <glyph glyph-name="uni0123" unicode="&#x123;" horiz-adv-x="1258" 
d="M537 1230l147 321l68 -27l-115 -315zM113 -115l90 37q29 -81 95.5 -136t143.5 -77t165 -22q186 0 289 103.5t103 287.5v223q-47 -120 -169 -186t-265 -66q-213 0 -347 143t-134 363q0 146 61 267.5t177 194.5t264 73q303 0 413 -242v223h111v-999q0 -229 -133.5 -351
t-366.5 -122q-80 0 -154 15t-143 47.5t-121.5 89.5t-78.5 134zM588 137q185 0 302.5 119.5t117.5 300.5q0 191 -106 315.5t-292 124.5q-185 0 -298 -122.5t-113 -307.5q0 -190 103 -310t286 -120z" />
    <glyph glyph-name="Hcircumflex" unicode="&#x124;" horiz-adv-x="1506" 
d="M473 1577l232 252h98l225 -252h-86l-190 172l-191 -172h-88zM193 0v1464h116v-678h885v678h119v-1464h-119v690h-885v-690h-116z" />
    <glyph glyph-name="hcircumflex" unicode="&#x125;" horiz-adv-x="1182" 
d="M282 1660l230 272h94l225 -272h-86l-186 194l-191 -194h-86zM153 0v1579h111v-721q48 110 158.5 171t236.5 61q191 0 289 -114t98 -308v-668h-111v657q0 159 -75.5 248.5t-225.5 89.5q-161 0 -265.5 -98t-104.5 -252v-645h-111z" />
    <glyph glyph-name="Hbar" unicode="&#x126;" horiz-adv-x="1506" 
d="M193 0v1069h-170v74h170v321h116v-321h885v321h119v-321h168v-74h-168v-1069h-119v690h-885v-690h-116zM309 786h885v283h-885v-283z" />
    <glyph glyph-name="hbar" unicode="&#x127;" horiz-adv-x="1201" 
d="M162 0v1268h-154v82h154v227h111v-227h391v-82h-391v-410q48 110 158.5 171t236.5 61q191 0 289 -114t98 -308v-668h-111v657q0 159 -75.5 248.5t-225.5 89.5q-161 0 -265.5 -98t-104.5 -252v-645h-111z" />
    <glyph glyph-name="Itilde" unicode="&#x128;" horiz-adv-x="525" 
d="M31 1581h-74q9 82 51 140.5t119 58.5q35 0 74.5 -18t68.5 -39.5t63.5 -39.5t61.5 -18q77 0 99 113h73q-9 -84 -50.5 -141.5t-119.5 -57.5q-36 0 -75 18t-67.5 39.5t-62.5 39.5t-61 18q-44 0 -68.5 -33t-31.5 -80zM203 0v1464h116v-1464h-116z" />
    <glyph glyph-name="itilde" unicode="&#x129;" horiz-adv-x="499" 
d="M18 1253h-74q9 83 51 140t119 57q45 0 95 -29t95 -57.5t79 -28.5q42 0 65.5 34.5t30.5 80.5h73q-10 -83 -50 -140t-117 -57q-36 0 -75.5 17.5t-68 38t-63.5 38t-62 17.5q-43 0 -67 -32.5t-31 -78.5zM192 0v1071h106v-1071h-106z" />
    <glyph glyph-name="Imacron" unicode="&#x12a;" horiz-adv-x="525" 
d="M8 1620v80h506v-80h-506zM203 0v1464h116v-1464h-116z" />
    <glyph glyph-name="imacron" unicode="&#x12b;" horiz-adv-x="449" 
d="M49 1317v76h350v-76h-350zM170 0v1071h106v-1071h-106z" />
    <glyph glyph-name="Ibreve" unicode="&#x12c;" horiz-adv-x="525" 
d="M-4 1827h84q8 -74 57.5 -122t122.5 -48q71 0 122.5 49t59.5 121h82q-8 -106 -83 -178t-181 -72q-108 0 -182 71t-82 179zM203 0v1464h116v-1464h-116z" />
    <glyph glyph-name="ibreve" unicode="&#x12d;" horiz-adv-x="475" 
d="M-17 1495h82q8 -74 52.5 -119t117.5 -45q72 0 119 45.5t55 118.5h80q-6 -107 -76.5 -175.5t-177.5 -68.5q-108 0 -176 68t-76 176zM182 0v1071h106v-1071h-106z" />
    <glyph glyph-name="Iogonek" unicode="&#x12e;" horiz-adv-x="525" 
d="M387 -281v-69q-45 -23 -117 -23q-77 0 -131.5 38.5t-54.5 114.5q0 115 143 226h-24v1458h116v-1460q-135 -102 -135 -207q0 -49 30 -72.5t81 -23.5q47 0 92 18z" />
    <glyph glyph-name="iogonek" unicode="&#x12f;" horiz-adv-x="449" 
d="M219 1247q-39 0 -65 27.5t-26 66.5t26 65t65 26t68 -26.5t29 -64.5q0 -39 -29 -66.5t-68 -27.5zM356 -285v-65q-41 -23 -114 -23q-76 0 -131.5 39.5t-55.5 114.5q0 110 135 223h-20v1067h106v-1067q-56 -52 -90 -101.5t-34 -104.5q0 -99 114 -99q46 0 90 16z" />
    <glyph glyph-name="Idotaccent" unicode="&#x130;" horiz-adv-x="525" 
d="M262 1560q-39 0 -65 27.5t-26 66.5t26 65t65 26t68 -26.5t29 -64.5q0 -39 -29 -66.5t-68 -27.5zM203 0v1464h116v-1464h-116z" />
    <glyph glyph-name="dotlessi" unicode="&#x131;" horiz-adv-x="449" 
d="M170 0v1071h106v-1071h-106z" />
    <glyph glyph-name="IJ" unicode="&#x132;" horiz-adv-x="1279" 
d="M203 0v1464h117v-1464h-117zM523 31v96q102 -43 200 -43q268 0 268 291v1089h117v-1091q0 -185 -93.5 -285t-277.5 -100q-131 0 -214 43z" />
    <glyph glyph-name="ij" unicode="&#x133;" horiz-adv-x="886" 
d="M150 1360q0 29 22 50.5t52 21.5t50.5 -21t20.5 -51t-20.5 -51t-50.5 -21t-52 21.5t-22 50.5zM584 1360q0 29 22 50.5t51 21.5q30 0 51 -21t21 -51t-21 -51t-51 -21q-29 0 -51 21.5t-22 50.5zM170 0v1071h107v-1071h-107zM449 -381v88q87 6 121 51t34 136v1177h107v-1173
q0 -142 -61 -208.5t-201 -70.5z" />
    <glyph glyph-name="Jcircumflex" unicode="&#x134;" horiz-adv-x="834" 
d="M330 1577l229 252h101l225 -252h-88l-188 172l-193 -172h-86zM80 31v96q102 -43 200 -43q268 0 268 291v1089h117v-1091q0 -185 -93.5 -285t-277.5 -100q-131 0 -214 43z" />
    <glyph glyph-name="jcircumflex" unicode="&#x135;" horiz-adv-x="449" 
d="M-51 1225l231 272h94l226 -272h-86l-189 194l-190 -194h-86zM16 -381v88q88 6 121 51t33 136v1177h106v-1173q0 -141 -60 -208t-200 -71z" />
    <glyph glyph-name="uni0136" unicode="&#x136;" horiz-adv-x="1293" 
d="M199 0v1464h123v-692l736 692h135l-752 -708l787 -756h-148l-758 719v-719h-123zM492 -383l114 297l101 -20l-146 -304z" />
    <glyph glyph-name="uni0137" unicode="&#x137;" horiz-adv-x="1002" 
d="M164 0v1577h110v-987l531 481h137l-551 -500l582 -571h-144l-555 543v-543h-110zM379 -383l115 297l100 -20l-148 -304z" />
    <glyph glyph-name="kgreenlandic" unicode="&#x138;" horiz-adv-x="1015" 
d="M164 0v1071h110v-521l531 521h137l-551 -540l582 -531h-144l-555 503v-503h-110z" />
    <glyph glyph-name="Lacute" unicode="&#x139;" horiz-adv-x="1109" 
d="M199 1577l135 252h123l-172 -252h-86zM193 0v1464h116v-1368h715v-96h-831z" />
    <glyph glyph-name="lacute" unicode="&#x13a;" horiz-adv-x="476" 
d="M179 1577l135 252h123l-172 -252h-86zM170 0l-4 1438l113 49v-1487h-109z" />
    <glyph glyph-name="uni013B" unicode="&#x13b;" horiz-adv-x="1109" 
d="M193 0v1464h116v-1368h715v-96h-831zM444 -383l115 297l103 -20l-148 -304z" />
    <glyph glyph-name="uni013C" unicode="&#x13c;" horiz-adv-x="452" 
d="M170 0l-4 1530l113 49v-1579h-109zM74 -383l114 297l101 -20l-146 -304z" />
    <glyph glyph-name="Lcaron" unicode="&#x13d;" horiz-adv-x="1109" 
d="M193 0v1464h116v-1368h715v-96h-831zM649 1139l51 325h107l-80 -325h-78z" />
    <glyph glyph-name="lcaron" unicode="&#x13e;" horiz-adv-x="522" 
d="M170 0l-4 1530l113 49v-1579h-109zM393 1257l25 322h100l-53 -322h-72z" />
    <glyph glyph-name="Ldot" unicode="&#x13f;" horiz-adv-x="1115" 
d="M193 0v1464h116v-1368h715v-96h-831zM901 690q-33 0 -55.5 23t-22.5 55q0 33 22.5 55.5t55.5 22.5t55.5 -22.5t22.5 -55.5t-23 -55.5t-55 -22.5z" />
    <glyph glyph-name="ldot" unicode="&#x140;" horiz-adv-x="558" 
d="M170 0l-4 1530l113 49v-1579h-109zM383 768q0 33 23 55.5t56 22.5t55 -22.5t22 -55.5t-21.5 -55.5t-54.5 -22.5t-56.5 22.5t-23.5 55.5z" />
    <glyph glyph-name="Lslash" unicode="&#x141;" horiz-adv-x="1133" 
d="M219 0v590l-153 -55v77l153 58v794h117v-751l471 174v-80l-471 -174v-537h715v-96h-832z" />
    <glyph glyph-name="lslash" unicode="&#x142;" horiz-adv-x="488" 
d="M188 0v786l-153 -100v86l153 100l-6 658l113 49v-643l164 106v-86l-164 -106v-850h-107z" />
    <glyph glyph-name="Nacute" unicode="&#x143;" horiz-adv-x="1508" 
d="M698 1577l137 252h121l-170 -252h-88zM193 0v1464h158l847 -1292v1292h115v-1464h-135l-870 1325v-1325h-115z" />
    <glyph glyph-name="nacute" unicode="&#x144;" horiz-adv-x="1201" 
d="M542 1225l139 305h121l-178 -305h-82zM164 0v1071h111v-221q46 113 156.5 176.5t238.5 63.5q191 0 289 -114t98 -308v-668h-111v653q0 160 -76.5 248t-233.5 88q-154 0 -257.5 -99.5t-103.5 -252.5v-637h-111z" />
    <glyph glyph-name="uni0145" unicode="&#x145;" horiz-adv-x="1508" 
d="M193 0v1464h158l847 -1292v1292h115v-1464h-135l-870 1325v-1325h-115zM579 -383l115 297l100 -20l-148 -304z" />
    <glyph glyph-name="uni0146" unicode="&#x146;" horiz-adv-x="1201" 
d="M164 0v1071h111v-221q46 113 156.5 176.5t238.5 63.5q191 0 289 -114t98 -308v-668h-111v653q0 160 -76.5 248t-233.5 88q-154 0 -257.5 -99.5t-103.5 -252.5v-637h-111zM454 -383l114 297l102 -20l-147 -304z" />
    <glyph glyph-name="Ncaron" unicode="&#x147;" horiz-adv-x="1508" 
d="M714 1577l-228 252h86l193 -176l193 176h84l-231 -252h-97zM193 0v1464h158l847 -1292v1292h115v-1464h-135l-870 1325v-1325h-115z" />
    <glyph glyph-name="ncaron" unicode="&#x148;" horiz-adv-x="1201" 
d="M549 1249l-226 273h84l191 -195l190 195h84l-229 -273h-94zM164 0v1071h111v-221q46 113 156.5 176.5t238.5 63.5q191 0 289 -114t98 -308v-668h-111v653q0 160 -76.5 248t-233.5 88q-154 0 -257.5 -99.5t-103.5 -252.5v-637h-111z" />
    <glyph glyph-name="napostrophe" unicode="&#x149;" horiz-adv-x="1254" 
d="M-55 1130l139 347l100 -39l-170 -338zM215 0v1071h107v-225q45 113 156 178.5t237 65.5q193 0 286 -113.5t93 -310.5v-666h-107v659q0 338 -303 338q-155 0 -258.5 -99.5t-103.5 -254.5v-643h-107z" />
    <glyph glyph-name="Eng" unicode="&#x14a;" horiz-adv-x="1500" 
d="M193 0v1464h158l843 -1292v1292h111v-1464q0 -186 -94 -286.5t-279 -100.5q-121 0 -208 43v92q91 -41 196 -41q137 0 201.5 72t68.5 211l-886 1345v-1335h-111z" />
    <glyph glyph-name="eng" unicode="&#x14b;" horiz-adv-x="1201" 
d="M166 0v1071h107v-225q45 113 156 178.5t237 65.5q193 0 290 -113.5t97 -310.5v-738q0 -156 -67 -229.5t-222 -79.5v88q103 7 142.5 59.5t39.5 159.5v733q0 161 -76.5 249.5t-233.5 88.5q-155 0 -259 -100t-104 -254v-643h-107z" />
    <glyph glyph-name="Omacron" unicode="&#x14c;" horiz-adv-x="1650" 
d="M572 1620v80h506v-80h-506zM828 -16q-204 0 -370 98.5t-259 268t-93 372.5q0 155 52.5 293.5t145.5 240.5t228 162t292 60q204 0 369 -97.5t257 -265.5t92 -371q0 -155 -52 -294t-143.5 -242.5t-226.5 -164t-292 -60.5zM828 82q134 0 246.5 52t187 141t116 206t41.5 248
q0 107 -25.5 205t-76 180t-121 142.5t-166.5 94t-206 33.5q-134 0 -247 -51.5t-188.5 -139t-117.5 -205t-42 -249.5q0 -179 71 -327t209.5 -239t318.5 -91z" />
    <glyph glyph-name="omacron" unicode="&#x14d;" horiz-adv-x="1220" 
d="M362 1317v76h489v-76h-489zM608 -18q-112 0 -209.5 43.5t-165 117t-106.5 173t-39 210.5q0 155 63 282t183 203t276 76q152 0 271 -72t183 -195t64 -275q0 -116 -36.5 -218.5t-102 -179t-164.5 -121t-217 -44.5zM610 70q126 0 220.5 64t141.5 167t47 227
q0 97 -25.5 181.5t-75 150t-129 103.5t-179.5 38q-126 0 -221.5 -63.5t-143.5 -166.5t-48 -228q0 -96 26.5 -180.5t76.5 -150.5t130 -104t180 -38z" />
    <glyph glyph-name="Obreve" unicode="&#x14e;" horiz-adv-x="1650" 
d="M558 1827h84q8 -74 57.5 -122t122.5 -48q71 0 122.5 49t59.5 121h82q-8 -106 -83 -178t-181 -72q-108 0 -182 71t-82 179zM828 -16q-204 0 -370 98.5t-259 268t-93 372.5q0 155 52.5 293.5t145.5 240.5t228 162t292 60q204 0 369 -97.5t257 -265.5t92 -371
q0 -155 -52 -294t-143.5 -242.5t-226.5 -164t-292 -60.5zM828 82q134 0 246.5 52t187 141t116 206t41.5 248q0 107 -25.5 205t-76 180t-121 142.5t-166.5 94t-206 33.5q-134 0 -247 -51.5t-188.5 -139t-117.5 -205t-42 -249.5q0 -179 71 -327t209.5 -239t318.5 -91z" />
    <glyph glyph-name="obreve" unicode="&#x14f;" horiz-adv-x="1220" 
d="M354 1495h82q8 -73 52 -118.5t116 -45.5t119.5 46t53.5 118h80q-6 -106 -76.5 -175t-177.5 -69q-106 0 -173.5 68t-75.5 176zM608 -18q-112 0 -209.5 43.5t-165 117t-106.5 173t-39 210.5q0 155 63 282t183 203t276 76q152 0 271 -72t183 -195t64 -275
q0 -116 -36.5 -218.5t-102 -179t-164.5 -121t-217 -44.5zM610 70q126 0 220.5 64t141.5 167t47 227q0 97 -25.5 181.5t-75 150t-129 103.5t-179.5 38q-126 0 -221.5 -63.5t-143.5 -166.5t-48 -228q0 -96 26.5 -180.5t76.5 -150.5t130 -104t180 -38z" />
    <glyph glyph-name="Ohungarumlaut" unicode="&#x150;" horiz-adv-x="1650" 
d="M646 1577l100 252h109l-129 -252h-80zM906 1577l101 252h108l-127 -252h-82zM828 -16q-204 0 -370 98.5t-259 268t-93 372.5q0 155 52.5 293.5t145.5 240.5t228 162t292 60q204 0 369 -97.5t257 -265.5t92 -371q0 -155 -52 -294t-143.5 -242.5t-226.5 -164t-292 -60.5z
M828 82q134 0 246.5 52t187 141t116 206t41.5 248q0 107 -25.5 205t-76 180t-121 142.5t-166.5 94t-206 33.5q-134 0 -247 -51.5t-188.5 -139t-117.5 -205t-42 -249.5q0 -179 71 -327t209.5 -239t318.5 -91z" />
    <glyph glyph-name="ohungarumlaut" unicode="&#x151;" horiz-adv-x="1220" 
d="M442 1225l111 305h101l-134 -305h-78zM699 1225l109 305h104l-137 -305h-76zM608 -18q-112 0 -209.5 43.5t-165 117t-106.5 173t-39 210.5q0 155 63 282t183 203t276 76q152 0 271 -72t183 -195t64 -275q0 -116 -36.5 -218.5t-102 -179t-164.5 -121t-217 -44.5zM610 70
q126 0 220.5 64t141.5 167t47 227q0 97 -25.5 181.5t-75 150t-129 103.5t-179.5 38q-126 0 -221.5 -63.5t-143.5 -166.5t-48 -228q0 -96 26.5 -180.5t76.5 -150.5t130 -104t180 -38z" />
    <glyph glyph-name="OE" unicode="&#x152;" horiz-adv-x="2002" 
d="M1135 96h766v-96h-1065q-335 0 -532.5 191.5t-197.5 525.5q0 350 192.5 548.5t541.5 198.5h1024v-96h-729v-569h587v-92h-587v-611zM1018 94v1274h-172q-296 0 -457.5 -169.5t-161.5 -471.5q0 -298 160 -465.5t461 -167.5h170z" />
    <glyph glyph-name="oe" unicode="&#x153;" horiz-adv-x="2076" 
d="M1884 299l88 -37q-55 -142 -169.5 -211t-267.5 -69q-173 0 -293.5 85t-172.5 244q-54 -150 -179.5 -239.5t-287.5 -89.5q-147 0 -265 74t-183.5 200.5t-65.5 279.5q0 149 62.5 274t181 201t269.5 76q165 0 292.5 -88t179.5 -239q50 153 166.5 241.5t275.5 88.5
q150 0 258 -70t160 -186t52 -265v-39h-857q0 -99 24 -181.5t71.5 -146t125 -99t178.5 -35.5q128 0 221 57.5t136 173.5zM1130 608h746q-4 179 -94.5 288.5t-261.5 109.5q-173 0 -274 -111.5t-116 -286.5zM605 70q97 0 176 37t130.5 100t79.5 145.5t28 175.5q0 131 -43.5 236
t-137 171t-223.5 66q-129 0 -225.5 -64t-144.5 -169t-48 -234q0 -93 26.5 -176t76 -147.5t128.5 -102.5t177 -38z" />
    <glyph glyph-name="Racute" unicode="&#x154;" horiz-adv-x="1283" 
d="M548 1577l137 252h120l-171 -252h-86zM193 0v1464h424q84 0 155 -11t137.5 -39.5t112.5 -72t73.5 -113t27.5 -158.5q0 -174 -98 -270.5t-274 -119.5l458 -680h-135l-446 664h-314v-664h-121zM314 754h301q387 0 387 311q0 70 -20 123.5t-54.5 87.5t-85 55t-105.5 29
t-122 8h-301v-614z" />
    <glyph glyph-name="racute" unicode="&#x155;" horiz-adv-x="718" 
d="M313 1225l142 305h120l-178 -305h-84zM166 0v1071h106v-242q49 121 143 185.5t224 66.5v-98q-181 -6 -274 -109t-93 -286v-588h-106z" />
    <glyph glyph-name="uni0156" unicode="&#x156;" horiz-adv-x="1283" 
d="M193 0v1464h424q84 0 155 -11t137 -39.5t112 -72t73.5 -113t27.5 -158.5q0 -174 -98 -270.5t-274 -119.5l458 -680h-135l-445 664h-314v-664h-121zM314 754h301q386 0 386 311q0 70 -20 123.5t-54 87.5t-84.5 55t-105.5 29t-122 8h-301v-614zM495 -383l114 297l100 -20
l-145 -304z" />
    <glyph glyph-name="uni0157" unicode="&#x157;" horiz-adv-x="718" 
d="M166 0v1071h106v-242q49 121 143 185.5t224 66.5v-98q-181 -6 -274 -109t-93 -286v-588h-106zM70 -383l114 297l101 -20l-146 -304z" />
    <glyph glyph-name="Rcaron" unicode="&#x158;" horiz-adv-x="1283" 
d="M552 1577l-227 252h88l192 -176l194 176h84l-231 -252h-100zM193 0v1464h424q84 0 155 -11t137.5 -39.5t112.5 -72t73.5 -113t27.5 -158.5q0 -174 -98 -270.5t-274 -119.5l458 -680h-135l-446 664h-314v-664h-121zM314 754h301q387 0 387 311q0 70 -20 123.5t-54.5 87.5
t-85 55t-105.5 29t-122 8h-301v-614z" />
    <glyph glyph-name="rcaron" unicode="&#x159;" horiz-adv-x="718" 
d="M346 1249l-225 273h86l189 -195l190 195h84l-229 -273h-95zM166 0v1071h106v-242q49 121 143 185.5t224 66.5v-98q-181 -6 -274 -109t-93 -286v-588h-106z" />
    <glyph glyph-name="Sacute" unicode="&#x15a;" horiz-adv-x="1232" 
d="M549 1577l135 252h123l-172 -252h-86zM80 366l104 45q30 -172 146.5 -252.5t296.5 -80.5q74 0 141 19.5t121.5 56.5t86.5 98.5t32 138.5q0 74 -23 128.5t-52 84.5t-90 53t-101.5 31.5t-121.5 21.5q-4 1 -6 1q-60 10 -101 18.5t-95 24t-90.5 33.5t-75 47.5t-61.5 65
t-37.5 85.5t-14.5 111q0 96 39.5 171t106.5 120.5t150.5 68.5t177.5 23q174 0 299.5 -78.5t161.5 -237.5l-99 -43q-30 134 -128.5 201.5t-245.5 67.5q-70 0 -130.5 -15.5t-111.5 -48t-80 -89.5t-29 -134q0 -36 7 -66.5t18 -54t30.5 -44t38 -34.5t48.5 -27t53 -20.5t60.5 -16
t62.5 -13t66 -11.5q67 -11 102 -18t95.5 -23.5t94 -34.5t76.5 -49.5t65.5 -70t38.5 -95t16 -125.5q0 -101 -41.5 -181.5t-111.5 -130.5t-158 -76.5t-184 -26.5q-103 0 -192 22.5t-162.5 67.5t-123.5 119.5t-69 172.5z" />
    <glyph glyph-name="sacute" unicode="&#x15b;" horiz-adv-x="964" 
d="M426 1225l139 305h121l-178 -305h-82zM74 276l84 37q61 -247 338 -247q53 0 101 12.5t88.5 38t64.5 70.5t24 104q0 35 -9.5 63t-22.5 48t-39 36.5t-46 26t-58.5 19.5t-60.5 14.5t-67 12.5q-49 9 -76 14.5t-71 17.5t-69 25t-56.5 36t-48 50.5t-28 67.5t-11.5 89
q0 67 33.5 121.5t88 87t117 50t125.5 17.5q288 0 379 -245l-84 -39q-35 105 -107.5 153t-185.5 48q-48 0 -92.5 -11.5t-83.5 -34.5t-62.5 -64.5t-23.5 -95.5q0 -28 5.5 -51t19.5 -41t27 -31.5t38 -24.5t43 -18.5t50.5 -14.5t52.5 -11t57 -10q36 -6 55 -9.5t53 -11t53 -14
t48 -17.5t46.5 -23.5t39 -29t34 -37.5t24.5 -46t17 -56.5t5 -68.5q0 -76 -34.5 -135.5t-91 -95t-123.5 -54t-138 -18.5q-160 0 -268.5 73t-153.5 223z" />
    <glyph glyph-name="Scircumflex" unicode="&#x15c;" horiz-adv-x="1232" 
d="M332 1577l229 252h98l226 -252h-86l-189 172l-192 -172h-86zM80 366l104 45q30 -172 146.5 -252.5t296.5 -80.5q74 0 141 19.5t121.5 56.5t86.5 98.5t32 138.5q0 74 -23 128.5t-52 84.5t-90 53t-101.5 31.5t-121.5 21.5q-4 1 -6 1q-60 10 -101 18.5t-95 24t-90.5 33.5
t-75 47.5t-61.5 65t-37.5 85.5t-14.5 111q0 96 39.5 171t106.5 120.5t150.5 68.5t177.5 23q174 0 299.5 -78.5t161.5 -237.5l-99 -43q-30 134 -128.5 201.5t-245.5 67.5q-70 0 -130.5 -15.5t-111.5 -48t-80 -89.5t-29 -134q0 -36 7 -66.5t18 -54t30.5 -44t38 -34.5t48.5 -27
t53 -20.5t60.5 -16t62.5 -13t66 -11.5q67 -11 102 -18t95.5 -23.5t94 -34.5t76.5 -49.5t65.5 -70t38.5 -95t16 -125.5q0 -101 -41.5 -181.5t-111.5 -130.5t-158 -76.5t-184 -26.5q-103 0 -192 22.5t-162.5 67.5t-123.5 119.5t-69 172.5z" />
    <glyph glyph-name="scircumflex" unicode="&#x15d;" horiz-adv-x="964" 
d="M207 1225l230 272h94l225 -272h-86l-186 194l-191 -194h-86zM74 276l84 37q61 -247 338 -247q53 0 101 12.5t88.5 38t64.5 70.5t24 104q0 35 -9.5 63t-22.5 48t-39 36.5t-46 26t-58.5 19.5t-60.5 14.5t-67 12.5q-49 9 -76 14.5t-71 17.5t-69 25t-56.5 36t-48 50.5
t-28 67.5t-11.5 89q0 67 33.5 121.5t88 87t117 50t125.5 17.5q288 0 379 -245l-84 -39q-35 105 -107.5 153t-185.5 48q-48 0 -92.5 -11.5t-83.5 -34.5t-62.5 -64.5t-23.5 -95.5q0 -28 5.5 -51t19.5 -41t27 -31.5t38 -24.5t43 -18.5t50.5 -14.5t52.5 -11t57 -10
q36 -6 55 -9.5t53 -11t53 -14t48 -17.5t46.5 -23.5t39 -29t34 -37.5t24.5 -46t17 -56.5t5 -68.5q0 -76 -34.5 -135.5t-91 -95t-123.5 -54t-138 -18.5q-160 0 -268.5 73t-153.5 223z" />
    <glyph glyph-name="Scedilla" unicode="&#x15e;" horiz-adv-x="1232" 
d="M370 -279h80q7 -44 38 -67t76 -23q46 0 77 24.5t31 70.5q0 44 -28 67t-72 23t-79 -23l-46 43l89 152q-176 18 -294 115t-164 263l106 46q36 -171 151 -252.5t292 -81.5q74 0 141 19.5t121.5 56.5t86.5 98.5t32 138.5q0 42 -7.5 77t-18 62t-31.5 50t-39 38.5t-49.5 29.5
t-54 22t-62 16.5t-64 13t-68.5 11.5q-57 9 -103.5 19.5t-105.5 28.5t-102.5 43.5t-82.5 60.5t-60 84.5t-21 109.5v51q0 74 27 136.5t72.5 105t106 72.5t126.5 43.5t135 13.5q179 0 305.5 -78t162.5 -238l-99 -43q-30 137 -126 203t-243 66q-72 0 -133 -15.5t-112 -48
t-80 -89t-29 -132.5q0 -45 11.5 -82t28.5 -63.5t48.5 -48.5t59 -35.5t72.5 -26t77 -19t85 -16.5q188 -34 265 -63q159 -61 203 -195q19 -59 19 -134q0 -112 -42 -198t-114.5 -137t-163 -76.5t-195.5 -25.5l-64 -115q30 8 60 8q69 0 111.5 -41.5t42.5 -111.5l-2 -5
q-1 -75 -55 -115t-130 -40q-77 0 -133 41.5t-66 115.5z" />
    <glyph glyph-name="scedilla" unicode="&#x15f;" horiz-adv-x="964" 
d="M250 -279h80q6 -43 38 -66.5t78 -23.5q47 0 77 24t30 71t-30.5 68.5t-78.5 21.5q-29 0 -71 -23l-45 43l86 148q-264 35 -340 292l84 37q63 -247 338 -247q53 0 101 12.5t88.5 38t64.5 70.5t24 104q0 35 -9.5 63t-22.5 48t-39 36.5t-46 26t-58.5 19.5t-60.5 14.5t-67 12.5
q-49 9 -76 14.5t-71 17.5t-69 25t-56.5 36t-48 50.5t-28 67.5t-11.5 89q0 67 33.5 121.5t88 87t117 50t125.5 17.5q289 0 379 -245l-84 -39q-36 104 -108.5 152.5t-184.5 48.5q-48 0 -92.5 -11.5t-83.5 -34.5t-62.5 -64.5t-23.5 -95.5q0 -28 5.5 -51t19.5 -41t27 -31.5
t38 -24.5t43 -18.5t50.5 -14.5t52.5 -11t57 -10q36 -6 55 -9.5t53 -11t53 -14t48 -17.5t46.5 -23.5t39 -29t34 -37.5t24.5 -46t17 -56.5t5 -68.5q0 -76 -36 -136t-95 -95.5t-127.5 -53.5t-139.5 -18l-63 -111q42 8 64 8q67 0 109 -42.5t42 -110.5l-2 -5q-2 -74 -56 -114.5
t-130 -40.5q-77 0 -133.5 41.5t-65.5 115.5z" />
    <glyph glyph-name="Scaron" unicode="&#x160;" horiz-adv-x="1232" 
d="M551 1577l-227 252h86l192 -176l195 176h84l-232 -252h-98zM80 366l104 45q30 -172 146.5 -252.5t296.5 -80.5q74 0 141 19.5t121.5 56.5t86.5 98.5t32 138.5q0 74 -23 128.5t-52 84.5t-90 53t-101.5 31.5t-121.5 21.5q-4 1 -6 1q-60 10 -101 18.5t-95 24t-90.5 33.5
t-75 47.5t-61.5 65t-37.5 85.5t-14.5 111q0 96 39.5 171t106.5 120.5t150.5 68.5t177.5 23q174 0 299.5 -78.5t161.5 -237.5l-99 -43q-30 134 -128.5 201.5t-245.5 67.5q-70 0 -130.5 -15.5t-111.5 -48t-80 -89.5t-29 -134q0 -36 7 -66.5t18 -54t30.5 -44t38 -34.5t48.5 -27
t53 -20.5t60.5 -16t62.5 -13t66 -11.5q67 -11 102 -18t95.5 -23.5t94 -34.5t76.5 -49.5t65.5 -70t38.5 -95t16 -125.5q0 -101 -41.5 -181.5t-111.5 -130.5t-158 -76.5t-184 -26.5q-103 0 -192 22.5t-162.5 67.5t-123.5 119.5t-69 172.5z" />
    <glyph glyph-name="scaron" unicode="&#x161;" horiz-adv-x="964" 
d="M432 1249l-225 273h84l190 -195l189 195h86l-232 -273h-92zM74 276l84 37q61 -247 338 -247q53 0 101 12.5t88.5 38t64.5 70.5t24 104q0 35 -9.5 63t-22.5 48t-39 36.5t-46 26t-58.5 19.5t-60.5 14.5t-67 12.5q-49 9 -76 14.5t-71 17.5t-69 25t-56.5 36t-48 50.5
t-28 67.5t-11.5 89q0 67 33.5 121.5t88 87t117 50t125.5 17.5q288 0 379 -245l-84 -39q-35 105 -107.5 153t-185.5 48q-48 0 -92.5 -11.5t-83.5 -34.5t-62.5 -64.5t-23.5 -95.5q0 -28 5.5 -51t19.5 -41t27 -31.5t38 -24.5t43 -18.5t50.5 -14.5t52.5 -11t57 -10
q36 -6 55 -9.5t53 -11t53 -14t48 -17.5t46.5 -23.5t39 -29t34 -37.5t24.5 -46t17 -56.5t5 -68.5q0 -76 -34.5 -135.5t-91 -95t-123.5 -54t-138 -18.5q-160 0 -268.5 73t-153.5 223z" />
    <glyph glyph-name="uni0162" unicode="&#x162;" horiz-adv-x="1177" 
d="M393 -309l63 26q12 -40 50 -63t87 -23q103 0 103 115q0 68 -121 68q-13 0 -40 -13l-6 -3h-2q-6 -4 -10 -5l-47 43l95 164h-41v1366h-456v98h1040v-98h-461v-1366h-5l-75 -131q23 8 54 8q76 0 118.5 -42t42.5 -111q0 -80 -54.5 -120t-135.5 -40q-71 0 -127 32t-72 95z" />
    <glyph glyph-name="uni0163" unicode="&#x163;" horiz-adv-x="705" 
d="M169 -297l63 26q12 -40 50 -63t87 -23q103 0 103 115q0 68 -121 68q-13 0 -40 -13l-6 -3h-2q-6 -4 -10 -5l-47 43l93 162q-132 60 -132 256l2 719h-158v86h158v241l110 48v-289h287v-86h-287v-711q0 -90 41.5 -143t132.5 -53q59 0 125 22v-92q-70 -24 -147 -24
q-36 0 -66 6l-62 -109q23 8 54 8q76 0 118.5 -42t42.5 -111q0 -80 -54.5 -120t-135.5 -40q-71 0 -127 32t-72 95z" />
    <glyph glyph-name="Tcaron" unicode="&#x164;" horiz-adv-x="1174" 
d="M530 1577l-227 252h88l193 -176l192 176h86l-231 -252h-101zM526 0v1370h-458v94h1038v-94h-463v-1370h-117z" />
    <glyph glyph-name="tcaron" unicode="&#x165;" horiz-adv-x="703" 
d="M506 1257l26 322h101l-55 -322h-72zM616 96v-88q-70 -24 -147 -24q-129 0 -194.5 74.5t-65.5 205.5v723h-158v84h158v242l106 47v-289h289v-84h-289v-715q0 -89 41.5 -143.5t128.5 -54.5q73 0 131 22z" />
    <glyph glyph-name="Tbar" unicode="&#x166;" horiz-adv-x="1174" 
d="M526 0v756h-311v84h311v530h-458v94h1038v-94h-463v-530h315v-84h-315v-756h-117z" />
    <glyph glyph-name="tbar" unicode="&#x167;" horiz-adv-x="703" 
d="M616 96v-88q-70 -24 -145 -24q-130 0 -196 74.5t-66 205.5v361h-158v73h158v289h-158v84h158v243l106 46v-289h289v-84h-289v-289h289v-73h-289v-353q0 -89 41.5 -143.5t128.5 -54.5q73 0 131 22z" />
    <glyph glyph-name="Utilde" unicode="&#x168;" horiz-adv-x="1418" 
d="M475 1581h-74q9 82 51 140.5t119 58.5q35 0 74.5 -18t68.5 -39.5t63.5 -39.5t61.5 -18q77 0 99 113h73q-9 -84 -50.5 -141.5t-119.5 -57.5q-36 0 -75 18t-67.5 39.5t-62.5 39.5t-61 18q-44 0 -68.5 -33t-31.5 -80zM166 1464h117v-929q0 -218 104.5 -334.5t319.5 -116.5
q227 0 325 121.5t98 353.5v905h117v-915q0 -271 -135.5 -416t-404.5 -145q-258 0 -399.5 141t-141.5 399v936z" />
    <glyph glyph-name="utilde" unicode="&#x169;" horiz-adv-x="1195" 
d="M368 1253h-74q9 83 49 140t112 57q28 0 59 -11t50 -22t51 -31q78 -51 113 -51q43 0 67.5 34.5t31.5 80.5h74q-9 -82 -49.5 -139.5t-113.5 -57.5q-28 0 -58.5 10.5t-49.5 21t-50 30.5q-78 49 -115 49q-42 0 -66 -32.5t-31 -78.5zM921 0v207q-46 -109 -153 -167t-233 -58
q-193 0 -290.5 107t-97.5 302v680h112v-668q0 -157 76.5 -242t231.5 -85q153 0 253.5 97.5t100.5 250.5v647h112v-1071h-112z" />
    <glyph glyph-name="Umacron" unicode="&#x16a;" horiz-adv-x="1418" 
d="M453 1620v80h505v-80h-505zM166 1464h117v-929q0 -218 104.5 -334.5t319.5 -116.5q227 0 325 121.5t98 353.5v905h117v-915q0 -271 -135.5 -416t-404.5 -145q-258 0 -399.5 141t-141.5 399v936z" />
    <glyph glyph-name="umacron" unicode="&#x16b;" horiz-adv-x="1195" 
d="M351 1317v76h491v-76h-491zM921 0v207q-46 -109 -153 -167t-233 -58q-193 0 -290.5 107t-97.5 302v680h112v-668q0 -157 76.5 -242t231.5 -85q153 0 253.5 97.5t100.5 250.5v647h112v-1071h-112z" />
    <glyph glyph-name="Ubreve" unicode="&#x16c;" horiz-adv-x="1418" 
d="M442 1827h84q6 -73 55.5 -121.5t122.5 -48.5q72 0 124 49t60 121h82q-8 -106 -83.5 -178t-182.5 -72t-180.5 71t-81.5 179zM166 1464h117v-929q0 -218 104.5 -334.5t320.5 -116.5q226 0 324 121.5t98 353.5v905h117v-915q0 -271 -135.5 -416t-403.5 -145q-258 0 -400 141
t-142 399v936z" />
    <glyph glyph-name="ubreve" unicode="&#x16d;" horiz-adv-x="1195" 
d="M343 1495h84q6 -74 50 -119t115 -45q73 0 120.5 46t55.5 118h80q-6 -107 -76.5 -175.5t-177.5 -68.5q-106 0 -174.5 68t-76.5 176zM921 0v207q-46 -109 -153 -167t-233 -58q-193 0 -290.5 107t-97.5 302v680h112v-668q0 -157 76.5 -242t231.5 -85q153 0 253.5 97.5
t100.5 250.5v647h112v-1071h-112z" />
    <glyph glyph-name="Uring" unicode="&#x16e;" horiz-adv-x="1418" 
d="M510 1675q0 78 58.5 134.5t138.5 56.5q79 0 137.5 -56.5t58.5 -134.5q0 -79 -58.5 -134.5t-137.5 -55.5t-138 55.5t-59 134.5zM707 1540q54 0 92.5 39.5t38.5 95.5q0 55 -37.5 94t-93.5 39t-94 -39t-38 -93q0 -55 39.5 -95.5t92.5 -40.5zM166 1464h117v-929
q0 -218 104.5 -334.5t319.5 -116.5q227 0 325 121.5t98 353.5v905h117v-915q0 -271 -135.5 -416t-404.5 -145q-258 0 -399.5 141t-141.5 399v936z" />
    <glyph glyph-name="uring" unicode="&#x16f;" horiz-adv-x="1195" 
d="M399 1401q0 79 57 134.5t137 55.5t139 -56t59 -135t-59 -134.5t-137 -55.5q-79 0 -137.5 56t-58.5 135zM594 1266q55 0 93 38.5t38 94.5q0 57 -37.5 96t-92.5 39q-56 0 -93 -39t-37 -95q0 -55 37 -94.5t92 -39.5zM921 0v207q-46 -109 -153 -167t-233 -58
q-193 0 -290.5 107t-97.5 302v680h112v-668q0 -157 76.5 -242t231.5 -85q153 0 253.5 97.5t100.5 250.5v647h112v-1071h-112z" />
    <glyph glyph-name="Uhungarumlaut" unicode="&#x170;" horiz-adv-x="1418" 
d="M528 1577l100 252h109l-129 -252h-80zM788 1577l101 252h110l-129 -252h-82zM166 1464h117v-929q0 -218 104.5 -334.5t319.5 -116.5q227 0 325 121.5t98 353.5v905h117v-915q0 -271 -135.5 -416t-404.5 -145q-258 0 -399.5 141t-141.5 399v936z" />
    <glyph glyph-name="uhungarumlaut" unicode="&#x171;" horiz-adv-x="1195" 
d="M431 1225l111 305h101l-134 -305h-78zM686 1225l111 305h104l-137 -305h-78zM921 0v207q-46 -109 -153 -167t-233 -58q-193 0 -290.5 107t-97.5 302v680h112v-668q0 -157 76.5 -242t231.5 -85q153 0 253.5 97.5t100.5 250.5v647h112v-1071h-112z" />
    <glyph glyph-name="Uogonek" unicode="&#x172;" horiz-adv-x="1418" 
d="M911 -281v-69q-41 -23 -116 -23q-77 0 -132 38t-55 112q0 65 43.5 120.5t108.5 92.5l-71 -3q-241 -10 -382 138t-141 393v946h117v-929q0 -451 429 -451q223 0 320.5 121.5t97.5 353.5v905h117v-925q0 -77 -12 -143t-28 -112.5t-47 -88.5t-55 -66.5t-66 -52t-66 -40
t-68 -33.5q-42 -20 -62.5 -31t-51 -31.5t-44.5 -39.5t-25.5 -48.5t-11.5 -64.5q0 -44 31.5 -65.5t79.5 -21.5q45 0 90 18z" />
    <glyph glyph-name="uogonek" unicode="&#x173;" horiz-adv-x="1195" 
d="M919 0v203q-47 -109 -154.5 -165t-240.5 -56q-186 0 -281.5 108t-95.5 301v680h115v-670q0 -325 305 -325q154 0 253 96t99 250v649h115v-1061q-166 -113 -166 -218q0 -47 31 -70t82 -23q47 0 92 16v-65q-43 -23 -118 -23q-76 0 -130.5 38t-54.5 112q0 67 45 124t112 99
h-8z" />
    <glyph glyph-name="Wcircumflex" unicode="&#x174;" horiz-adv-x="1971" 
d="M702 1577l229 252h101l225 -252h-88l-188 172l-193 -172h-86zM465 0l-397 1464h122l349 -1296l395 1296h96l387 -1302l371 1302h112l-417 -1464h-127l-375 1270l-393 -1270h-123z" />
    <glyph glyph-name="wcircumflex" unicode="&#x175;" horiz-adv-x="1641" 
d="M541 1225l230 272h94l225 -272h-86l-186 194l-193 -194h-84zM395 0l-334 1071h117l289 -938l303 938h92l295 -938l313 938h107l-358 -1071h-121l-285 905l-295 -905h-123z" />
    <glyph glyph-name="Ycircumflex" unicode="&#x176;" horiz-adv-x="1201" 
d="M332 1577l229 252h101l225 -252h-88l-188 172l-193 -172h-86zM555 0v655l-508 809h131l440 -710l416 710h117l-479 -809v-655h-117z" />
    <glyph glyph-name="ycircumflex" unicode="&#x177;" horiz-adv-x="1054" 
d="M254 1225l231 272h94l226 -272h-86l-189 194l-190 -194h-86zM262 -399l201 485l-410 985h121l346 -862l348 862h113l-608 -1470h-111z" />
    <glyph glyph-name="Ydieresis" unicode="&#x178;" horiz-adv-x="1201" 
d="M367 1675q0 29 20 48.5t50 19.5t49 -20t19 -49t-19.5 -48.5t-48.5 -19.5q-28 0 -49 20t-21 49zM721 1675q0 29 20 48.5t50 19.5t49 -20t19 -49t-19.5 -48.5t-48.5 -19.5q-28 0 -49 20t-21 49zM555 0v655l-508 809h131l440 -710l416 710h117l-479 -809v-655h-117z" />
    <glyph glyph-name="Zacute" unicode="&#x179;" horiz-adv-x="1220" 
d="M550 1577l135 252h123l-172 -252h-86zM57 0v23l914 1345h-838v96h1006v-20l-910 -1348h895v-96h-1067z" />
    <glyph glyph-name="zacute" unicode="&#x17a;" horiz-adv-x="984" 
d="M453 1225l141 305h119l-176 -305h-84zM55 0v45l711 934h-651v92h807v-46l-709 -933h692v-92h-850z" />
    <glyph glyph-name="Zdotaccent" unicode="&#x17b;" horiz-adv-x="1220" 
d="M551 1675q0 30 21 50t51 20t51.5 -20t21.5 -50q0 -29 -22 -50t-51 -21t-50.5 21t-21.5 50zM57 0v23l914 1345h-838v96h1006v-20l-910 -1348h895v-96h-1067z" />
    <glyph glyph-name="zdotaccent" unicode="&#x17c;" horiz-adv-x="984" 
d="M438 1362q0 29 21.5 49.5t50.5 20.5q30 0 52 -20.5t22 -49.5q0 -30 -22 -51t-52 -21q-29 0 -50.5 21t-21.5 51zM55 0v45l711 934h-651v92h807v-46l-709 -933h692v-92h-850z" />
    <glyph glyph-name="Zcaron" unicode="&#x17d;" horiz-adv-x="1220" 
d="M569 1577l-225 252h86l193 -176l194 176h84l-231 -252h-101zM57 0v47l928 1321h-852v96h1006v-48l-924 -1320h909v-96h-1067z" />
    <glyph glyph-name="zcaron" unicode="&#x17e;" horiz-adv-x="984" 
d="M461 1249l-225 273h84l190 -195l189 195h86l-232 -273h-92zM55 0v45l711 934h-651v92h807v-46l-709 -933h692v-92h-850z" />
    <glyph glyph-name="longs" unicode="&#x17f;" horiz-adv-x="668" 
d="M217 0v985h-164v86h164v159q0 176 78.5 254.5t239.5 78.5q72 0 139 -19l-37 -82q-50 11 -96 11q-211 0 -211 -236v-1237h-113z" />
    <glyph glyph-name="florin" unicode="&#x192;" horiz-adv-x="820" 
d="M82 -373l166 1108h-174v82h188l51 338q50 328 335 328q75 0 144 -23v-88q-72 25 -135 25q-108 0 -163.5 -66.5t-73.5 -181.5l-52 -332h304v-82h-316l-168 -1108h-106z" />
    <glyph glyph-name="uni01F4" unicode="&#x1f4;" horiz-adv-x="1555" 
d="M692 1577l137 252h121l-170 -252h-88zM894 621v92h553v-429q-202 -300 -633 -300q-164 0 -298 55t-224.5 153t-139.5 234.5t-49 298.5q0 154 50 292t140 240.5t223 163t290 60.5q212 0 369.5 -95.5t222.5 -287.5l-103 -45q-46 157 -181.5 242t-307.5 85q-133 0 -243 -52
t-182 -140.5t-111.5 -204.5t-39.5 -246q0 -142 36.5 -259.5t107.5 -206t185 -137.5t262 -49q157 0 294.5 56.5t216.5 176.5v303h-438z" />
    <glyph glyph-name="uni01F5" unicode="&#x1f5;" horiz-adv-x="1277" 
d="M505 1223l141 307h123l-176 -307h-88zM113 -115l90 37q29 -81 95.5 -136t143.5 -77t165 -22q186 0 289 103.5t103 287.5v223q-47 -120 -169 -186t-265 -66q-213 0 -347 143t-134 363q0 146 61 267.5t177 194.5t264 73q303 0 413 -242v223h111v-999q0 -229 -133.5 -351
t-366.5 -122q-80 0 -154 15t-143 47.5t-121.5 89.5t-78.5 134zM588 137q185 0 302.5 119.5t117.5 300.5q0 191 -106 315.5t-292 124.5q-185 0 -298 -122.5t-113 -307.5q0 -190 103 -310t286 -120z" />
    <glyph glyph-name="Aringacute" unicode="&#x1fa;" horiz-adv-x="1361" 
d="M616 1972l137 252h121l-170 -252h-88zM475 1725q0 78 57.5 134t137.5 56q81 0 139.5 -55.5t58.5 -134.5q0 -80 -60 -135.5t-138 -55.5t-136.5 56t-58.5 135zM670 1589q54 0 93 39.5t39 96.5q0 55 -38 94t-94 39t-92.5 -39t-36.5 -94q0 -56 37.5 -96t91.5 -40zM68 0
l530 1464h162l534 -1464h-127l-145 401h-694l-146 -401h-114zM358 494h633l-317 872z" />
    <glyph glyph-name="aringacute" unicode="&#x1fb;" horiz-adv-x="1097" 
d="M510 1700l134 252h124l-173 -252h-85zM365 1410q0 79 57 134t137 55q81 0 139 -55.5t58 -135.5t-58 -134.5t-137 -54.5q-80 0 -138 55.5t-58 135.5zM561 1274q55 0 92.5 38.5t37.5 96.5q0 57 -37 95t-94 38t-93.5 -39t-36.5 -94q0 -56 37.5 -95.5t93.5 -39.5zM834 0v164
q-58 -94 -155.5 -138t-216.5 -44q-76 0 -140.5 17.5t-116.5 53t-81.5 95.5t-29.5 139q0 68 21.5 122t59.5 87.5t88 58t107.5 35t118.5 17.5t120.5 6t113.5 0h49q39 0 59 1q0 75 -5.5 127.5t-23.5 105t-50 84t-87 51t-133 19.5q-113 0 -192 -58t-112 -167l-89 37
q44 137 148 207t250 70q211 0 308 -111t97 -326v-653h-108zM834 535h-246q-49 0 -88.5 -3t-87 -11t-82.5 -25.5t-65.5 -43.5t-46.5 -67.5t-16 -95.5q0 -61 22 -105.5t62 -69.5t88 -36.5t106 -11.5q59 0 120 17.5t114 49.5t86.5 84.5t33.5 116.5v201z" />
    <glyph glyph-name="AEacute" unicode="&#x1fc;" horiz-adv-x="1981" 
d="M1194 1577l135 252h123l-172 -252h-86zM59 0l725 1464h1061v-96h-758v-569h617v-92h-617v-611h793v-96h-911v406h-592l-199 -406h-119zM422 494h547v874h-117z" />
    <glyph glyph-name="aeacute" unicode="&#x1fd;" horiz-adv-x="1877" 
d="M894 1225l139 305h121l-178 -305h-82zM236 774l-86 39q41 127 155.5 202t251.5 75q143 0 237.5 -64t119.5 -199q59 125 164.5 194t243.5 69q114 0 203.5 -40t145.5 -111t85.5 -165t29.5 -205v-39h-841q1 -99 23.5 -180t67.5 -145.5t121.5 -100.5t178.5 -36q127 0 212 57
t138 174l83 -37q-127 -280 -429 -280q-158 0 -273 74t-171 216q-42 -139 -161.5 -214.5t-275.5 -75.5q-73 0 -136 17t-115.5 52t-83 95.5t-30.5 140.5q0 61 19 110.5t49.5 83t76 57.5t91.5 37.5t103.5 21t104.5 9.5t102 1l198 -3q0 45 -0.5 73t-3 67t-8 63.5t-15.5 54.5
t-24 49t-35.5 38.5t-49.5 30t-65 17.5t-82 7q-115 0 -198.5 -60.5t-120.5 -169.5zM945 604h734q-4 180 -91.5 291t-256.5 111q-117 0 -204 -56t-131 -145.5t-51 -200.5zM838 528h-254q-42 0 -75.5 -1.5t-75 -7t-72.5 -15.5t-62.5 -28t-52 -42.5t-33 -60.5t-12.5 -82
q0 -62 22.5 -107t62.5 -70t88 -36.5t107 -11.5q93 0 172.5 33.5t132 104.5t52.5 165v159z" />
    <glyph glyph-name="Oslashacute" unicode="&#x1fe;" horiz-adv-x="1650" 
d="M767 1577l135 252h123l-172 -252h-86zM94 10l195 211q-90 103 -136.5 234t-46.5 274q0 153 52.5 290t145 239t227 161.5t290.5 59.5q129 0 248 -41t213 -121l176 194l55 -53l-174 -192q203 -212 203 -528q0 -153 -51.5 -290.5t-143 -240t-226.5 -163t-292 -60.5
q-288 0 -487 184l-191 -213zM367 305l845 936q-158 143 -390 143q-134 0 -246.5 -51.5t-188.5 -140t-118 -208t-42 -254.5q0 -252 140 -425zM1264 1186l-848 -940q80 -80 188 -122t227 -42q176 0 312 89.5t207 235.5t71 322q0 282 -157 457z" />
    <glyph glyph-name="oslashacute" unicode="&#x1ff;" horiz-adv-x="1220" 
d="M551 1225l138 305h121l-177 -305h-82zM76 2l141 156q-129 151 -129 374q0 151 62.5 277t181.5 202t272 76q195 0 339 -118l130 143l53 -47l-132 -145q134 -149 134 -380q0 -114 -36 -215.5t-101 -177.5t-162.5 -120.5t-213.5 -44.5q-205 0 -349 127l-137 -154zM287 236
l591 661q-110 104 -272 104q-124 0 -219 -63.5t-142.5 -167t-47.5 -227.5q0 -185 90 -307zM925 844l-595 -664q119 -110 287 -110q123 0 216 63.5t139.5 166.5t46.5 228q0 195 -94 316z" />
    <glyph glyph-name="uni0218" unicode="&#x218;" horiz-adv-x="1232" 
d="M82 412h113q23 -172 137.5 -253t294.5 -81q74 0 141 19.5t121.5 56.5t86.5 98.5t32 138.5q0 62 -15.5 110t-46 80.5t-66 55t-87 37.5t-96 24.5t-105.5 20.5h-2q-89 16 -135 26t-117.5 37.5t-107 63.5t-63.5 100t-28 150q0 96 39.5 171t106.5 120.5t150.5 68.5t177.5 23
q120 0 215 -36t162 -118.5t83 -204.5h-108q-50 269 -359 269q-72 0 -133.5 -15.5t-113 -48t-80.5 -89.5t-29 -134q0 -65 23.5 -113t53.5 -75t92 -49t102.5 -30t120.5 -22q66 -11 101 -18t94.5 -23t92 -33.5t75 -49t64 -70t37.5 -95t16 -125.5q0 -101 -41.5 -181.5
t-111.5 -130.5t-158 -76.5t-184 -26.5q-109 0 -200.5 25t-165 75.5t-120.5 134t-59 193.5zM457 -383l114 297l101 -20l-146 -304z" />
    <glyph glyph-name="uni0219" unicode="&#x219;" horiz-adv-x="964" 
d="M74 276l84 37q61 -247 338 -247q53 0 101 12.5t88.5 38t64.5 70.5t24 104q0 35 -9.5 63t-22.5 48t-39 36.5t-46 26t-58.5 19.5t-60.5 14.5t-67 12.5q-49 9 -76 14.5t-71 17.5t-69 25t-56.5 36t-48 50.5t-28 67.5t-11.5 89q0 67 33.5 121.5t88 87t117 50t125.5 17.5
q288 0 379 -245l-84 -39q-35 105 -107.5 153t-185.5 48q-48 0 -92.5 -11.5t-83.5 -34.5t-62.5 -64.5t-23.5 -95.5q0 -28 5.5 -51t19.5 -41t27 -31.5t38 -24.5t43 -18.5t50.5 -14.5t52.5 -11t57 -10q36 -6 55 -9.5t53 -11t53 -14t48 -17.5t46.5 -23.5t39 -29t34 -37.5
t24.5 -46t17 -56.5t5 -68.5q0 -76 -34.5 -135.5t-91 -95t-123.5 -54t-138 -18.5q-160 0 -268.5 73t-153.5 223zM338 -383l114 297l101 -20l-146 -304z" />
    <glyph glyph-name="uni021A" unicode="&#x21a;" horiz-adv-x="1174" 
d="M526 0v1370h-458v94h1038v-94h-463v-1370h-117zM438 -383l115 297l102 -20l-147 -304z" />
    <glyph glyph-name="uni021B" unicode="&#x21b;" horiz-adv-x="703" 
d="M616 96v-88q-70 -24 -147 -24q-129 0 -194.5 74.5t-65.5 205.5v723h-158v84h158v242l106 47v-289h289v-84h-289v-715q0 -89 41.5 -143.5t128.5 -54.5q73 0 131 22zM236 -383l115 297l100 -20l-148 -304z" />
    <glyph glyph-name="uni0237" unicode="&#x237;" horiz-adv-x="449" 
d="M16 -381v88q88 6 121 51t33 136v1177h106v-1173q0 -141 -60 -208t-200 -71z" />
    <glyph glyph-name="circumflex" unicode="&#x2c6;" horiz-adv-x="834" 
d="M139 1225l232 272h96l225 -272h-88l-186 192l-191 -192h-88z" />
    <glyph glyph-name="caron" unicode="&#x2c7;" horiz-adv-x="834" 
d="M365 1247l-226 275h88l189 -193l188 193h88l-231 -275h-96z" />
    <glyph glyph-name="breve" unicode="&#x2d8;" horiz-adv-x="834" 
d="M164 1495h84q6 -74 50 -119t117 -45t119 45.5t54 118.5h82q-6 -109 -76 -177.5t-180 -68.5q-108 0 -175 67.5t-75 178.5z" />
    <glyph glyph-name="dotaccent" unicode="&#x2d9;" horiz-adv-x="834" 
d="M342 1361q0 31 21 51t53 20q31 0 53.5 -20.5t22.5 -51.5q0 -30 -22.5 -51t-53.5 -21q-30 0 -52 21t-22 52z" />
    <glyph glyph-name="ring" unicode="&#x2da;" horiz-adv-x="834" 
d="M221 1421q0 78 57 133.5t138 55.5t138.5 -55t57.5 -135t-58 -136.5t-136 -56.5q-79 0 -138 57.5t-59 136.5zM417 1284q55 0 92 39t37 97q0 56 -36 93t-93 37t-93.5 -38t-36.5 -93q0 -56 37.5 -95.5t92.5 -39.5z" />
    <glyph glyph-name="ogonek" unicode="&#x2db;" horiz-adv-x="834" 
d="M557 -283v-67q-53 -23 -113 -23q-81 0 -135.5 38t-54.5 112q0 127 166 223h88q-156 -101 -156 -205q0 -49 33 -71.5t86 -22.5q45 0 86 16z" />
    <glyph glyph-name="tilde" unicode="&#x2dc;" horiz-adv-x="834" 
d="M193 1251h-76q9 84 49 141.5t113 57.5q59 0 149 -57q53 -33 77.5 -44.5t45.5 -11.5q45 0 70.5 34.5t29.5 78.5h76q-10 -84 -49 -141.5t-113 -57.5q-28 0 -59 10.5t-50.5 21.5t-51.5 31q-79 50 -116 50q-41 0 -64.5 -33.5t-30.5 -79.5z" />
    <glyph glyph-name="hungarumlaut" unicode="&#x2dd;" horiz-adv-x="834" 
d="M238 1223l108 307h107l-138 -307h-77zM496 1223l108 307h107l-138 -307h-77z" />
    <glyph glyph-name="uni0326" unicode="&#x326;" horiz-adv-x="834" 
d="M293 -383l115 297l104 -20l-147 -304z" />
    <glyph glyph-name="uni0394" unicode="&#x394;" horiz-adv-x="1407" 
d="M99 0v48l528 1416h164l520 -1416v-48h-1212zM231 95h947l-473 1268z" />
    <glyph glyph-name="Sigma" unicode="&#x3a3;" horiz-adv-x="1246" 
d="M137 0v71l479 670l-473 625v98h926v-91h-793l474 -622l-471 -655h827v-96h-969z" />
    <glyph glyph-name="uni03A9" unicode="&#x3a9;" horiz-adv-x="1676" 
d="M113 0v88h340q-158 91 -251 274.5t-93 375.5q0 156 53 293.5t146.5 236.5t228 156.5t290.5 57.5q206 0 371.5 -95.5t258 -262.5t92.5 -374q0 -201 -88 -382.5t-254 -279.5h338v-88h-574v49q214 104 337.5 281.5t123.5 403.5q0 132 -44 251t-121 207.5t-190.5 141
t-245.5 52.5q-172 0 -311.5 -85.5t-216.5 -229.5t-77 -315q0 -457 461 -707v-49h-574z" />
    <glyph glyph-name="lambda" unicode="&#x3bb;" horiz-adv-x="1188" 
d="M70 0l418 1075l-118 316q-19 50 -49 76t-82 26q-48 0 -115 -23v97q70 22 139 22q93 0 141.5 -46.5t80.5 -138.5l422 -1202q16 -45 49.5 -78t79.5 -33q27 0 68 12l6 -99q-45 -12 -87 -12q-83 0 -139 48.5t-83 128.5l-260 767l-358 -936h-113z" />
    <glyph glyph-name="uni03BC" unicode="&#x3bc;" horiz-adv-x="1153" 
d="M167 -373v1444h112v-687q0 -281 275 -281q141 0 231 88.5t90 229.5v650h112v-1071h-112v187q-42 -96 -136.5 -147.5t-206.5 -51.5q-183 0 -253 135v-496h-112z" />
    <glyph glyph-name="pi" unicode="&#x3c0;" horiz-adv-x="1254" 
d="M228 0v983h-156v88h1107v-88h-155v-983h-110v983h-576v-983h-110z" />
    <glyph glyph-name="uni0401" unicode="&#x401;" horiz-adv-x="1179" 
d="M365 1693q0 32 23.5 54.5t55.5 22.5t54 -22.5t22 -54.5t-22.5 -54.5t-53.5 -22.5q-32 0 -55.5 23t-23.5 54zM744 1693q0 32 23.5 54.5t55.5 22.5t54 -22.5t22 -54.5t-22.5 -54.5t-53.5 -22.5q-32 0 -55.5 23t-23.5 54zM198 0v1464h853v-98h-735v-565h595v-99h-595v-604
h773v-98h-891z" />
    <glyph glyph-name="uni0402" unicode="&#x402;" horiz-adv-x="1595" 
d="M522 0v1367h-460v97h1066v-97h-486v-638h2q94 84 181.5 122t205.5 38q218 0 336 -121.5t118 -341.5q0 -198 -95 -319t-275 -121q-103 0 -180 40v100q85 -42 171 -42q124 0 192 87t68 252q0 182 -85 276.5t-255 94.5q-70 0 -130 -15.5t-104 -44t-68 -50t-52 -51.5
q-10 -9 -30 -33v-600h-120z" />
    <glyph glyph-name="uni0403" unicode="&#x403;" horiz-adv-x="1099" 
d="M549 1579l134 252h138l-183 -252h-89zM192 0v1464h825v-101h-706v-1363h-119z" />
    <glyph glyph-name="uni0404" unicode="&#x404;" horiz-adv-x="1513" 
d="M236 796h791v-98h-793q2 -274 153.5 -444.5t415.5 -170.5q187 0 332 105.5t206 281.5l98 -42q-77 -207 -245 -325.5t-403 -118.5q-212 0 -368 97.5t-234.5 263.5t-78.5 378v16q0 151 47 285t133.5 236.5t218.5 162.5t293 60q227 0 381.5 -100t238.5 -313l-104 -45
q-71 180 -195 269.5t-320 89.5q-127 0 -233 -47t-177 -128t-111.5 -187t-45.5 -226z" />
    <glyph glyph-name="uni0405" unicode="&#x405;" horiz-adv-x="1258" 
d="M71 376l109 45q23 -74 60 -133t93 -106.5t136 -73.5t180 -26q74 0 141 19.5t121.5 56.5t87 98t32.5 137q0 52 -11.5 94t-29.5 71.5t-49.5 53.5t-61 38.5t-75 26.5t-81 18.5t-88.5 14.5q-117 17 -202 43.5t-150.5 70.5t-98.5 110t-33 154q0 97 39.5 174t107 124t152 71
t179.5 24q343 0 492 -328l-100 -44q-117 274 -401 274q-169 0 -262.5 -74t-93.5 -208q0 -132 94.5 -194t294.5 -91q64 -9 112.5 -18.5t102.5 -26t92.5 -37t75.5 -51.5t60 -70t36.5 -93t13.5 -119q0 -80 -27.5 -148t-75.5 -117t-111 -83.5t-135 -51.5t-148 -17
q-433 0 -578 392z" />
    <glyph glyph-name="uni0406" unicode="&#x406;" horiz-adv-x="527" 
d="M208 0v1464h118v-1464h-118z" />
    <glyph glyph-name="uni0407" unicode="&#x407;" horiz-adv-x="527" 
d="M2 1693q0 32 23.5 54.5t55.5 22.5t54 -22.5t22 -54.5t-22.5 -54.5t-53.5 -22.5q-32 0 -55.5 23t-23.5 54zM380 1693q0 32 23.5 54.5t56.5 22.5q31 0 53 -22.5t22 -54.5t-22 -54.5t-53 -22.5q-32 0 -56 23t-24 54zM208 0v1464h118v-1464h-118z" />
    <glyph glyph-name="uni0408" unicode="&#x408;" horiz-adv-x="839" 
d="M81 26v100q100 -42 203 -42q267 0 267 292v1088h119v-1092q0 -192 -101.5 -289t-283.5 -97q-121 0 -204 40z" />
    <glyph glyph-name="uni0409" unicode="&#x409;" horiz-adv-x="2070" 
d="M50 3v116q47 -15 83 -15t66 18.5t50 44t36 68t24.5 75.5t15.5 82.5t9 72.5t5 62q25 368 29 937h838v-614h278q86 0 158.5 -13t136.5 -44t108.5 -78t70.5 -119t26 -164q0 -193 -125 -311t-321 -119l-451 -2v1364h-605q-4 -595 -33 -925q-4 -49 -9 -87t-15.5 -88
t-24.5 -86.5t-38 -75t-54.5 -63t-75 -40t-98.5 -15.5l-16 3h-5q-1 1 -3 1q-45 8 -60 15zM1206 96h303q171 0 263.5 87.5t92.5 246.5q0 163 -98.5 242.5t-281.5 79.5h-279v-656z" />
    <glyph glyph-name="uni040A" unicode="&#x40a;" horiz-adv-x="2133" 
d="M192 0v1464h119v-681h842v681h118v-614h272q231 0 368.5 -104t137.5 -309v-8q0 -207 -134 -318t-348 -111h-414v684h-842v-684h-119zM1271 96h302q174 0 265.5 85.5t91.5 247.5v8q0 153 -98 234.5t-282 81.5h-279v-657z" />
    <glyph glyph-name="uni040B" unicode="&#x40b;" horiz-adv-x="1624" 
d="M522 0v1366h-460v98h1068v-98h-488v-637h2q62 79 163.5 119.5t211.5 40.5q233 0 340 -125t107 -393v-371h-119v381q0 218 -77 315.5t-262 97.5q-113 0 -212.5 -47.5t-153.5 -137.5v-609h-120z" />
    <glyph glyph-name="uni040C" unicode="&#x40c;" horiz-adv-x="1251" 
d="M580 1579l132 252h139l-183 -252h-88zM198 0v1464h118v-712h2l711 714h134l-715 -712l752 -754h-146l-736 731h-2v-731h-118z" />
    <glyph glyph-name="uni040D" unicode="&#x40d;" horiz-adv-x="1518" 
d="M732 1579l-184 252h141l131 -252h-88zM192 0v1464h120v-1299h2l891 1299h117v-1464h-119v1299h-2l-891 -1299h-118z" />
    <glyph glyph-name="uni040E" unicode="&#x40e;" horiz-adv-x="1202" 
d="M368 1830h100q5 -62 32.5 -104t75.5 -58q22 -9 51 -9q73 0 119.5 46.5t54.5 124.5h98q-9 -108 -84 -180t-182 -72q-108 0 -184.5 73.5t-80.5 178.5zM188 3l1 107q17 -6 50 -10q13 -5 42 -5q90 0 154 54t118 172l-499 1143h124l435 -1005h2l438 1005h112l-490 -1122
q-26 -60 -49 -104t-59 -95t-74 -83.5t-92 -54t-116 -21.5q-58 0 -97 19z" />
    <glyph glyph-name="uni040F" unicode="&#x40f;" horiz-adv-x="1476" 
d="M192 0v1464h120v-1363h849v1363h119v-1464h-490l-4 -266h-98l-5 266h-491z" />
    <glyph glyph-name="uni0410" unicode="&#x410;" horiz-adv-x="1365" 
d="M76 0l534 1464h157l531 -1464h-116l-165 447h-668l-161 -447h-112zM383 543h600l-299 824h-2z" />
    <glyph glyph-name="uni0411" unicode="&#x411;" horiz-adv-x="1261" 
d="M192 0v1464h841v-97h-725v-531h344q237 0 363 -104.5t126 -303.5v-8q0 -199 -123 -309.5t-341 -110.5h-485zM308 95h366q172 0 261.5 83.5t89.5 241.5v8q0 152 -97.5 233t-284.5 81h-335v-647z" />
    <glyph glyph-name="uni0412" unicode="&#x412;" horiz-adv-x="1261" 
d="M198 0v1464h424q218 0 334.5 -94t116.5 -277v-8q0 -246 -250 -317q166 -31 245 -118t79 -238v-9q0 -196 -121 -299.5t-342 -103.5h-486zM314 807h309q334 0 334 281v8q0 273 -339 273h-304v-562zM314 95h367q350 0 350 309v8q0 153 -94.5 226.5t-292.5 73.5h-330v-617z
" />
    <glyph glyph-name="uni0413" unicode="&#x413;" horiz-adv-x="1099" 
d="M192 0v1464h825v-101h-706v-1363h-119z" />
    <glyph glyph-name="uni0414" unicode="&#x414;" horiz-adv-x="1448" 
d="M20 -266v367h101q73 26 110.5 133t59.5 326q42 480 50 904h876v-1363h183v-367h-97l-9 266h-1166l-8 -266h-100zM275 101h825v1263h-654q-17 -487 -47 -817q-33 -357 -124 -446z" />
    <glyph glyph-name="uni0415" unicode="&#x415;" horiz-adv-x="1179" 
d="M198 0v1464h853v-98h-735v-565h595v-99h-595v-604h773v-98h-891z" />
    <glyph glyph-name="uni0416" unicode="&#x416;" horiz-adv-x="1812" 
d="M57 0l667 744l-643 720h138l625 -713h2v713h115v-713h2l625 713h132l-636 -715l669 -749h-140l-650 732h-2v-732h-115v732h-2l-651 -732h-136z" />
    <glyph glyph-name="uni0417" unicode="&#x417;" horiz-adv-x="1225" 
d="M62 375l106 44q20 -70 54 -128t85 -106.5t125 -75.5t165 -27q187 0 288.5 88t101.5 249q0 150 -94.5 221t-295.5 71h-193v94h193q157 0 241 76.5t84 217.5q0 138 -80.5 211t-231.5 73h-6q-294 -1 -381 -272l-104 44q125 326 480 326q199 0 319.5 -100t120.5 -276
q0 -132 -69.5 -221t-195.5 -120q163 -24 247 -112.5t84 -237.5q0 -104 -41 -187.5t-111.5 -135.5t-160.5 -79.5t-193 -27.5q-109 0 -199.5 30.5t-155 85t-109.5 123t-73 152.5z" />
    <glyph glyph-name="uni0418" unicode="&#x418;" horiz-adv-x="1518" 
d="M192 0v1464h120v-1299h2l891 1299h117v-1464h-119v1299h-2l-891 -1299h-118z" />
    <glyph glyph-name="uni0419" unicode="&#x419;" horiz-adv-x="1518" 
d="M505 1830h100q6 -78 49.5 -124.5t113.5 -46.5q71 0 117 46.5t54 124.5h98q-10 -108 -84.5 -180t-180.5 -72q-109 0 -186 74t-81 178zM192 0v1464h120v-1299h2l891 1299h117v-1464h-119v1299h-2l-891 -1299h-118z" />
    <glyph glyph-name="uni041A" unicode="&#x41a;" horiz-adv-x="1251" 
d="M198 0v1464h118v-712h2l711 714h134l-715 -712l752 -754h-146l-736 731h-2v-731h-118z" />
    <glyph glyph-name="uni041B" unicode="&#x41b;" horiz-adv-x="1421" 
d="M50 3v115q26 -12 63 -12h22q18 0 30 2q76 13 114 109.5t56 308.5q30 401 33 938h858v-1464h-119v1364h-625q-4 -476 -35 -850q-3 -52 -7 -91.5t-14 -98t-23.5 -101.5t-37.5 -91t-54.5 -78t-75.5 -50t-100 -20q-20 0 -48 5t-37 14z" />
    <glyph glyph-name="uni041C" unicode="&#x41c;" horiz-adv-x="1775" 
d="M198 0v1464h172l519 -1248h2l518 1248h170v-1464h-120v1314h-2l-552 -1314h-39l-554 1314h-2v-1314h-112z" />
    <glyph glyph-name="uni041D" unicode="&#x41d;" horiz-adv-x="1497" 
d="M198 0v1464h119v-681h872v681h118v-1464h-118v683h-872v-683h-119z" />
    <glyph glyph-name="uni041E" unicode="&#x41e;" horiz-adv-x="1671" 
d="M843 -16q-155 0 -291 57.5t-231.5 156.5t-150.5 235t-55 289v15q0 204 92 374t259.5 270t376.5 100q208 0 373.5 -99t256 -267.5t90.5 -372.5v-15q0 -151 -53 -287t-146 -237t-228.5 -160t-292.5 -59zM849 84q136 0 249 51.5t187.5 139.5t115 204.5t40.5 248.5v15
q0 176 -71.5 320t-210.5 230.5t-322 86.5t-320.5 -86.5t-208 -231t-70.5 -323.5v-15q0 -130 43.5 -246.5t121.5 -204t194 -138.5t252 -51z" />
    <glyph glyph-name="uni041F" unicode="&#x41f;" horiz-adv-x="1476" 
d="M192 0v1464h1088v-1464h-119v1364h-849v-1364h-120z" />
    <glyph glyph-name="uni0420" unicode="&#x420;" horiz-adv-x="1186" 
d="M198 -2v1466h396q233 0 368.5 -101.5t135.5 -310.5v-8q0 -111 -38 -194t-107.5 -131.5t-158 -72t-197.5 -23.5h-280v-625h-119zM317 720h286q187 0 282 82t95 242v8q0 315 -379 315h-284v-647z" />
    <glyph glyph-name="uni0421" unicode="&#x421;" horiz-adv-x="1513" 
d="M1342 472l102 -43q-69 -198 -243 -321.5t-395 -123.5q-163 0 -295 56.5t-218 156t-132 234t-46 291.5v15q0 150 49.5 285.5t137.5 237.5t219 162.5t286 60.5q229 0 377.5 -101t239.5 -315l-105 -44q-135 360 -511 360q-169 0 -300.5 -88t-200.5 -233.5t-69 -322.5v-15
q0 -185 66 -328.5t197 -227.5t308 -84q188 0 333 109t200 279z" />
    <glyph glyph-name="uni0422" unicode="&#x422;" horiz-adv-x="1166" 
d="M529 0v1367h-461v97h1038v-97h-459v-1367h-118z" />
    <glyph glyph-name="uni0423" unicode="&#x423;" horiz-adv-x="1202" 
d="M188 3l1 105q33 -13 82 -13q97 0 162 54t120 172l-499 1143h124l435 -1005h2l438 1005h112l-491 -1122q-26 -59 -49 -103t-59 -95.5t-73.5 -84t-90.5 -53.5t-113 -19l-32 1q-41 2 -69 15z" />
    <glyph glyph-name="uni0424" unicode="&#x424;" horiz-adv-x="1650" 
d="M766 0v184h-1q-142 0 -259.5 30.5t-210 93t-144.5 169.5t-52 250q0 116 35.5 210t96 157.5t146 106.5t182 63t206.5 22h1v178h116v-178h1q114 -2 211.5 -21t183 -61t145 -105t93.5 -157t34 -212q0 -112 -35.5 -204t-96.5 -154.5t-146.5 -105.5t-182.5 -62.5t-206 -19.5
h-1v-184h-116zM882 1194v-917h1q545 3 545 469q0 97 -28 173t-76.5 126.5t-118 84t-149 48.5t-173.5 16h-1zM766 274v917h-1q-126 -2 -222.5 -27t-170.5 -78.5t-113 -145t-39 -217.5q0 -119 42 -207.5t118 -140t171.5 -76t213.5 -25.5h1z" />
    <glyph glyph-name="uni0425" unicode="&#x425;" horiz-adv-x="1346" 
d="M102 0l510 758l-470 706h133l411 -617h2l411 617h123l-474 -708l506 -756h-133l-448 668h-2l-449 -668h-120z" />
    <glyph glyph-name="uni0426" unicode="&#x426;" horiz-adv-x="1511" 
d="M192 0v1464h120v-1363h849v1363h119v-1363h185v-367h-98l-9 266h-1166z" />
    <glyph glyph-name="uni0427" unicode="&#x427;" horiz-adv-x="1356" 
d="M1043 0v749h-2q-68 -79 -194.5 -120t-253.5 -41q-220 0 -339.5 131.5t-119.5 382.5v362h119v-371q0 -411 358 -411q130 0 253 51.5t179 149.5v581h118v-1464h-118z" />
    <glyph glyph-name="uni0428" unicode="&#x428;" horiz-adv-x="2029" 
d="M192 0v1464h119v-1363h643v1363h118v-1363h643v1363h119v-1464h-1642z" />
    <glyph glyph-name="uni0429" unicode="&#x429;" horiz-adv-x="2064" 
d="M192 0v1464h119v-1363h643v1363h118v-1363h643v1363h119v-1363h184v-367h-97l-9 266h-1720z" />
    <glyph glyph-name="uni042A" unicode="&#x42a;" horiz-adv-x="1479" 
d="M476 0v1365h-414v99h533v-614h294q149 0 260.5 -43.5t178 -138t66.5 -232.5v-8q0 -206 -134.5 -317t-347.5 -111h-436zM595 96h324q174 0 265 85.5t91 246.5v8q0 153 -97.5 235t-281.5 82h-301v-657z" />
    <glyph glyph-name="uni042B" unicode="&#x42b;" horiz-adv-x="1627" 
d="M192 0v1464h120v-614h277q230 0 368 -105t138 -310v-8q0 -104 -37 -186t-102.5 -134t-152.5 -79.5t-190 -27.5h-421zM1314 0v1464h119v-1464h-119zM312 97h309q173 0 264 85t91 245v8q0 153 -97 235.5t-280 82.5h-287v-656z" />
    <glyph glyph-name="uni042C" unicode="&#x42c;" horiz-adv-x="1196" 
d="M192 0v1464h119v-614h294q149 0 260.5 -44t177.5 -138.5t66 -232.5v-8q0 -205 -134 -316t-347 -111h-436zM311 97h325q172 0 263.5 85.5t91.5 244.5v8q0 153 -98.5 235.5t-282.5 82.5h-299v-656z" />
    <glyph glyph-name="uni042D" unicode="&#x42d;" horiz-adv-x="1507" 
d="M71 398l108 46q57 -170 194.5 -266t330.5 -96q163 0 292 83t199.5 223t75.5 311h-786v97h786q-9 176 -71 306.5t-183 206.5t-289 76q-199 0 -342.5 -102.5t-201.5 -285.5l-105 44q81 218 249 330t395 112q162 0 291 -56.5t211 -156.5t125 -233.5t43 -291.5v-16
q0 -150 -47 -284.5t-132.5 -237.5t-217.5 -163t-291 -60q-234 0 -396.5 107t-237.5 307z" />
    <glyph glyph-name="uni042E" unicode="&#x42e;" horiz-adv-x="2117" 
d="M192 0v1464h120v-681h287q10 196 99 354t248.5 251t362.5 93q160 0 292.5 -59t219.5 -161t135 -236.5t48 -286.5q0 -155 -49 -292t-138 -239.5t-221.5 -162.5t-289.5 -60q-150 0 -279.5 54t-221 148t-146 222.5t-60.5 274.5h-287v-683h-120zM1313 84q113 0 207 35t160 96
t112.5 143.5t68 176.5t21.5 197q0 135 -38.5 252.5t-111 206.5t-185 140.5t-251.5 51.5q-113 0 -208 -34t-162 -94t-113.5 -141.5t-69 -175.5t-22.5 -197q0 -136 40 -255t113.5 -208.5t187 -141.5t251.5 -52z" />
    <glyph glyph-name="uni042F" unicode="&#x42f;" horiz-adv-x="1279" 
d="M55 -2l476 655h-1q-176 29 -270 131t-94 269v8q0 137 63.5 229t169.5 133t249 41h435v-1466h-118v644h-233l-77 1h-1l-463 -645h-136zM965 739v628h-323q-181 0 -269 -74t-88 -232v-8q0 -152 97.5 -233t281.5 -81h301z" />
    <glyph glyph-name="uni0430" unicode="&#x430;" horiz-adv-x="1102" 
d="M832 0v161h-2q-126 -179 -370 -179q-167 0 -264.5 78.5t-97.5 223.5q0 170 135.5 251.5t375.5 81.5h223v93q0 149 -69 216t-216 67q-127 0 -204.5 -56.5t-122.5 -162.5l-98 41q70 146 171.5 210t257.5 64q394 0 394 -379v-710h-113zM832 532h-220q-200 0 -301.5 -58
t-101.5 -186q0 -103 66 -158t189 -55q95 0 177.5 30.5t136.5 94.5t54 149v183z" />
    <glyph glyph-name="uni0431" unicode="&#x431;" horiz-adv-x="1252" 
d="M203 774q55 136 180 216t287 80q151 0 263.5 -71.5t169 -191t56.5 -268.5v-11q0 -236 -145.5 -391t-384.5 -155q-243 0 -381 165t-138 439v115q0 100 6 183.5t22.5 174t44 162t73.5 138.5t108 111.5t149.5 72.5t195.5 31l72 2q214 6 291 37l9 -95q-92 -34 -297 -44
l-66 -2q-90 -3 -163 -24.5t-124.5 -56t-91 -87t-63.5 -108.5t-40.5 -129t-23.5 -141t-10 -152h1zM637 79q189 0 297.5 124.5t108.5 323.5v9q0 194 -100 315.5t-285 121.5h-2q-185 0 -307 -123t-122 -317v-4q0 -193 108.5 -321.5t301.5 -128.5z" />
    <glyph glyph-name="uni0432" unicode="&#x432;" horiz-adv-x="1073" 
d="M173 0v1071h389q170 0 261 -68.5t91 -201.5v-7q0 -89 -48 -148.5t-140 -81.5q240 -44 240 -252v-7q0 -151 -94 -228t-274 -77h-425zM288 600h274q120 0 176.5 46.5t56.5 143.5v7q0 95 -57 139t-178 44h-272v-380zM288 91h300q132 0 196 51.5t64 158.5v6q0 103 -66 152.5
t-202 49.5h-292v-418z" />
    <glyph glyph-name="uni0433" unicode="&#x433;" horiz-adv-x="921" 
d="M173 0v1071h689v-95h-576v-976h-113z" />
    <glyph glyph-name="uni0434" unicode="&#x434;" horiz-adv-x="1190" 
d="M32 -260v356h72q59 19 89 94t45 195l14 137q26 236 38 549h691v-975h156v-356h-90l-11 260h-904l-11 -260h-89zM249 96h620v879h-481q-17 -336 -31 -462l-10 -90q-29 -252 -98 -327z" />
    <glyph glyph-name="uni0435" unicode="&#x435;" horiz-adv-x="1157" 
d="M977 301l98 -42q-135 -277 -459 -277q-243 0 -382 147.5t-139 395.5v18q0 147 58 270t173.5 199.5t266.5 76.5q155 0 264.5 -69.5t161.5 -185.5t52 -267v-42h-858q5 -216 106.5 -331t295.5 -115q265 0 362 222zM217 620h736q-9 176 -102.5 274t-257.5 98
q-159 0 -263.5 -107.5t-112.5 -264.5z" />
    <glyph glyph-name="uni0436" unicode="&#x436;" horiz-adv-x="1419" 
d="M44 0l494 563l-458 508h122l450 -506h2v506h109v-506h2l447 506h125l-456 -508l493 -563h-130l-479 555h-2v-555h-109v555h-2l-479 -555h-129z" />
    <glyph glyph-name="uni0437" unicode="&#x437;" horiz-adv-x="1006" 
d="M66 264l100 42q79 -230 329 -230q134 0 209.5 59t75.5 162v10q0 103 -66 152.5t-200 49.5h-179v93h161q118 0 174 48.5t56 148.5v5q0 92 -60.5 140.5t-172.5 48.5q-111 0 -180 -51.5t-108 -160.5l-95 42q44 132 145.5 199t243.5 67q152 0 249 -73t97 -206v-6
q0 -93 -50.5 -158t-139.5 -82q114 -16 178.5 -81t64.5 -171v-9q0 -105 -58.5 -179.5t-147.5 -108t-198 -33.5q-161 0 -272.5 76t-155.5 206z" />
    <glyph glyph-name="uni0438" unicode="&#x438;" horiz-adv-x="1206" 
d="M173 0v1071h113v-906h2l640 906h113v-1071h-113v908h-2l-640 -908h-113z" />
    <glyph glyph-name="uni0439" unicode="&#x439;" horiz-adv-x="1206" 
d="M340 1515h99q6 -78 49.5 -123.5t114.5 -45.5t116.5 45.5t53.5 123.5h97q-9 -108 -84 -180.5t-182 -72.5q-108 0 -184.5 74t-79.5 179zM173 0v1071h113v-906h2l640 906h113v-1071h-113v908h-2l-640 -908h-113z" />
    <glyph glyph-name="uni043A" unicode="&#x43a;" horiz-adv-x="1019" 
d="M172 0v1071h113v-504h2l518 504h136l-527 -506l563 -565h-141l-549 554h-2v-554h-113z" />
    <glyph glyph-name="uni043B" unicode="&#x43b;" horiz-adv-x="1150" 
d="M30 6v104q14 -6 23 -7q14 -6 34 -6q41 0 71 24.5t48 73t28 97t19 120.5l11 102q17 208 30 557h680v-1071h-113v976h-466l-28 -477l-6 -63q-4 -48 -8 -80t-13 -83t-20.5 -86t-31 -75t-44 -64.5t-60 -41t-79.5 -16.5q-31 0 -59 8q-4 0 -16 8z" />
    <glyph glyph-name="uni043C" unicode="&#x43c;" horiz-adv-x="1431" 
d="M174 0v1071h162l374 -891h2l386 891h156v-1071h-112v954h-2l-412 -954h-51l-405 954h-3v-954h-95z" />
    <glyph glyph-name="uni043D" unicode="&#x43d;" horiz-adv-x="1196" 
d="M173 0v1071h113v-469h622v469h113v-1071h-113v506h-622v-506h-113z" />
    <glyph glyph-name="uni043E" unicode="&#x43e;" horiz-adv-x="1235" 
d="M622 -18q-153 0 -274.5 73.5t-187 197.5t-65.5 273v17q0 149 65.5 273t187.5 198t277 74q154 0 274 -73t183.5 -196t63.5 -274v-17q0 -112 -38 -212t-105.5 -174t-166.5 -117t-214 -43zM621 79q128 0 222.5 62t140.5 162t46 224v15q0 125 -45 225.5t-138.5 162.5
t-220.5 62q-125 0 -220 -59.5t-144 -161t-49 -228.5v-17q0 -196 110.5 -321.5t297.5 -125.5z" />
    <glyph glyph-name="uni043F" unicode="&#x43f;" horiz-adv-x="1176" 
d="M173 0v1071h828v-1071h-113v976h-602v-976h-113z" />
    <glyph glyph-name="uni0440" unicode="&#x440;" horiz-adv-x="1277" 
d="M176 -373v1444h116v-245h2q49 116 164 189.5t245 73.5q114 0 208 -43.5t154 -118.5t92.5 -172t32.5 -207v-17q0 -111 -31.5 -209.5t-90.5 -174.5t-151.5 -120.5t-206.5 -44.5q-143 0 -252.5 68t-163.5 189h-2v-612h-116zM696 79h2q181 0 277.5 123t96.5 324v17
q0 198 -102 323.5t-280 125.5q-181 0 -291 -126.5t-110 -322.5v-17q0 -197 111 -321.5t296 -125.5z" />
    <glyph glyph-name="uni0441" unicode="&#x441;" horiz-adv-x="1161" 
d="M1006 373l93 -41q-58 -159 -184.5 -254.5t-302.5 -95.5q-152 0 -271 73t-182.5 196t-63.5 274v17q0 150 64 274t185.5 198.5t278.5 74.5q160 0 280.5 -79.5t184.5 -235.5l-98 -44q-94 262 -365 262q-131 0 -226 -63t-140.5 -163.5t-45.5 -223.5v-17q0 -197 114 -321.5
t294 -124.5q142 0 240.5 80t144.5 214z" />
    <glyph glyph-name="uni0442" unicode="&#x442;" horiz-adv-x="972" 
d="M428 0v976h-374v95h860v-95h-372v-976h-114z" />
    <glyph glyph-name="uni0443" unicode="&#x443;" horiz-adv-x="1063" 
d="M292 -373l197 468l-431 976h122l368 -848h2l345 848h117l-606 -1444h-114z" />
    <glyph glyph-name="uni0444" unicode="&#x444;" horiz-adv-x="1432" 
d="M658 -373v357h-1q-162 5 -289.5 71t-202 188.5t-74.5 283.5v16q0 246 156 389t410 155h1v496h114v-496h1q251 -12 408 -155.5t157 -386.5v-17q0 -161 -74 -284t-201 -189t-290 -71h-1v-357h-114zM658 74v925h-1q-205 -8 -328 -128t-123 -326v-15q0 -203 121.5 -328
t329.5 -128h1zM772 997v-924h1q204 3 326.5 128t122.5 326v15q0 210 -122.5 330t-326.5 125h-1z" />
    <glyph glyph-name="uni0445" unicode="&#x445;" horiz-adv-x="1068" 
d="M66 0l403 553l-377 518h133l312 -432h2l306 432h125l-370 -510l409 -561h-134l-342 476h-2l-342 -476h-123z" />
    <glyph glyph-name="uni0446" unicode="&#x446;" horiz-adv-x="1209" 
d="M173 0v1071h113v-975h602v975h113v-975h156v-356h-90l-11 260h-883z" />
    <glyph glyph-name="uni0447" unicode="&#x447;" horiz-adv-x="1163" 
d="M853 0v537h-2q-117 -150 -343 -150q-96 0 -167.5 30t-114 86t-63 129.5t-20.5 166.5v272h113v-268q0 -318 281 -318q198 0 316 163v423h114v-1071h-114z" />
    <glyph glyph-name="uni0448" unicode="&#x448;" horiz-adv-x="1665" 
d="M173 0v1071h113v-975h488v975h114v-975h489v975h112v-1071h-1316z" />
    <glyph glyph-name="uni0449" unicode="&#x449;" horiz-adv-x="1698" 
d="M173 0v1071h113v-975h488v975h114v-975h489v975h112v-975h156v-356h-90l-10 260h-1372z" />
    <glyph glyph-name="uni044A" unicode="&#x44a;" horiz-adv-x="1205" 
d="M379 0v977h-325v94h439v-391h234q185 0 294.5 -83.5t109.5 -248.5v-6q0 -164 -107 -253t-279 -89h-366zM493 91h257q134 0 200.5 64t66.5 187v6q0 241 -283 241h-241v-498z" />
    <glyph glyph-name="uni044B" unicode="&#x44b;" horiz-adv-x="1398" 
d="M173 0v1071h113v-391h234q185 0 294.5 -84.5t109.5 -248.5v-6q0 -164 -106 -252.5t-278 -88.5h-367zM1110 0v1071h112v-1071h-112zM286 92h259q265 0 265 249v6q0 242 -283 242h-241v-497z" />
    <glyph glyph-name="uni044C" unicode="&#x44c;" horiz-adv-x="1001" 
d="M173 0v1071h113v-391h234q183 0 293.5 -86t110.5 -250v-6q0 -167 -104 -252.5t-280 -85.5h-367zM286 92h259q265 0 265 246v6q0 245 -283 245h-241v-497z" />
    <glyph glyph-name="uni044D" unicode="&#x44d;" horiz-adv-x="1161" 
d="M63 311l105 45q91 -277 393 -277q120 0 209 61.5t132.5 156.5t47.5 210h-588v93h588q-15 180 -120 286t-281 106q-146 0 -242 -74t-142 -205l-97 43q57 154 181.5 243.5t303.5 89.5q236 0 375.5 -150.5t139.5 -387.5v-16q0 -111 -35.5 -211t-99.5 -176t-160.5 -121
t-211.5 -45q-185 0 -308.5 80t-189.5 249z" />
    <glyph glyph-name="uni044E" unicode="&#x44e;" horiz-adv-x="1611" 
d="M173 0v1071h113v-471h224q20 215 156.5 351.5t355.5 136.5q120 0 215.5 -44t155.5 -120t91.5 -174.5t31.5 -211.5q0 -158 -58 -283t-172.5 -199t-268.5 -74q-152 0 -267 71.5t-175 189t-66 263.5h-223v-506h-113zM1017 78q99 0 175 37.5t120.5 102.5t66.5 144.5t22 171.5
q0 75 -14 142t-45 125.5t-76 100.5t-110 66t-144 24q-100 0 -176.5 -37.5t-121.5 -103.5t-67.5 -148t-22.5 -177q0 -91 24 -170.5t70.5 -142t123.5 -99t175 -36.5z" />
    <glyph glyph-name="uni044F" unicode="&#x44f;" horiz-adv-x="1065" 
d="M70 0l334 455h-1q-129 23 -197.5 97t-68.5 195v5q0 159 105 239t281 80h366v-1071h-114v434h-189q-49 0 -68 2h-1l-315 -436h-132zM775 524v456h-259q-266 0 -266 -228v-5q0 -223 286 -223h239z" />
    <glyph glyph-name="uni0451" unicode="&#x451;" horiz-adv-x="1157" 
d="M341 1382q0 32 23 54.5t56 22.5q32 0 54 -22.5t22 -54.5q0 -33 -22 -56t-54 -23q-33 0 -56 23.5t-23 55.5zM690 1382q0 32 23 54.5t56 22.5q32 0 54 -22.5t22 -54.5q0 -33 -22 -56t-54 -23q-33 0 -56 23.5t-23 55.5zM977 301l98 -42q-59 -133 -179 -205t-281 -72
t-280.5 72t-179.5 194t-60 277v18q0 110 34.5 208.5t96.5 174t157 119.5t209 44q230 0 354.5 -145.5t124.5 -376.5v-42h-858q4 -218 104.5 -332t289.5 -114q137 0 232.5 58.5t137.5 163.5zM217 620h736q-7 183 -100 277.5t-261 94.5q-159 0 -259 -103t-116 -269z" />
    <glyph glyph-name="uni0452" unicode="&#x452;" horiz-adv-x="1217" 
d="M172 0v1276h-162v85h162v222h113v-222h391v-85h-391v-411h2q44 104 149 164t241 60q178 0 277 -108t99 -322v-764q0 -141 -64 -208.5t-209 -71.5v97q89 7 125 49t36 133v773q0 323 -300 323q-154 0 -255 -95.5t-101 -245.5v-649h-113z" />
    <glyph glyph-name="uni0453" unicode="&#x453;" horiz-adv-x="921" 
d="M454 1241l140 301h140l-192 -301h-88zM173 0v1071h689v-95h-576v-976h-113z" />
    <glyph glyph-name="uni0454" unicode="&#x454;" horiz-adv-x="1161" 
d="M209 602h584v-93h-586q8 -188 117.5 -309t284.5 -121q142 0 245.5 82t145.5 212l95 -42q-53 -160 -180.5 -254.5t-303.5 -94.5q-230 0 -375 153.5t-145 389.5v17q0 151 63 275t182.5 198t273.5 74q335 0 472 -315l-100 -44q-94 262 -372 262q-160 0 -272 -109.5
t-129 -280.5z" />
    <glyph glyph-name="uni0455" unicode="&#x455;" horiz-adv-x="972" 
d="M61 277l103 44q28 -103 117 -174t222 -71q129 0 202 56t73 154q0 45 -17.5 79.5t-42 55.5t-69 37.5t-79 25t-91.5 19.5h-1q-152 31 -214 61q-140 67 -145 224v13q0 68 32.5 124.5t85 91t116 53t129.5 18.5q143 0 237.5 -63t154.5 -187l-96 -43q-86 197 -301 197
q-114 0 -182 -52t-68 -142q0 -30 9 -54.5t21.5 -42t37 -32.5t44.5 -24t56 -18.5t59 -14.5t65 -13q39 -8 59.5 -12t57 -13t57.5 -17t51.5 -22t48 -28.5t38 -36.5t31.5 -46.5t18.5 -56.5t7.5 -70q0 -81 -31.5 -143t-86 -99t-122 -55t-145.5 -18q-171 0 -287.5 82t-154.5 213z
" />
    <glyph glyph-name="uni0456" unicode="&#x456;" horiz-adv-x="467" 
d="M238 1300q-34 0 -57.5 23.5t-23.5 58.5q0 34 23 56t57 22t57 -22.5t23 -56.5t-22.5 -57.5t-56.5 -23.5zM180 0v1071h114v-1071h-114z" />
    <glyph glyph-name="uni0457" unicode="&#x457;" horiz-adv-x="467" 
d="M81 1303q-31 0 -54.5 23.5t-23.5 55.5t23.5 54.5t54.5 22.5q32 0 54.5 -22.5t22.5 -54.5t-22.5 -55.5t-54.5 -23.5zM387 1303q-33 0 -56.5 23.5t-23.5 55.5t23.5 54.5t56.5 22.5q31 0 53 -22.5t22 -54.5t-22 -55.5t-53 -23.5zM180 0v1071h114v-1071h-114z" />
    <glyph glyph-name="uni0458" unicode="&#x458;" horiz-adv-x="467" 
d="M237 1300q-34 0 -57 23.5t-23 58.5q0 34 23 56t57 22t56 -22.5t22 -56.5t-21.5 -57.5t-56.5 -23.5zM20 -385v97q91 6 125.5 49.5t34.5 132.5v1177h114v-1130l-1 -65q-2 -130 -68.5 -193t-204.5 -68z" />
    <glyph glyph-name="uni0459" unicode="&#x459;" horiz-adv-x="1645" 
d="M30 6v105q25 -14 67 -14q143 0 163 385l34 589h658v-391h214q182 0 293 -82.5t111 -252.5q0 -168 -106.5 -256.5t-277.5 -88.5h-347v975h-445l-30 -494q-3 -48 -5.5 -82t-11 -89.5t-19.5 -95t-31 -84.5t-46 -73.5t-64.5 -47.5t-86.5 -19q-40 0 -70 16zM952 91h238
q267 0 267 246q0 251 -286 251h-219v-497z" />
    <glyph glyph-name="uni045A" unicode="&#x45a;" horiz-adv-x="1694" 
d="M173 0v1071h113v-470h602v470h113v-391h213q184 0 294 -83.5t110 -248.5v-6q0 -165 -106.5 -253.5t-279.5 -88.5h-344v506h-602v-506h-113zM1001 92h238q131 0 198 64t67 186v6q0 241 -285 241h-218v-497z" />
    <glyph glyph-name="uni045B" unicode="&#x45b;" horiz-adv-x="1217" 
d="M172 0v1276h-162v85h162v222h113v-222h391v-85h-391v-411h2q44 104 149 164t241 60q178 0 277 -108t99 -322v-659h-112v667q0 323 -300 323q-154 0 -255 -95.5t-101 -245.5v-649h-113z" />
    <glyph glyph-name="uni045C" unicode="&#x45c;" horiz-adv-x="1019" 
d="M491 1241l140 301h140l-193 -301h-87zM172 0v1071h113v-504h2l518 504h136l-527 -506l563 -565h-141l-549 554h-2v-554h-113z" />
    <glyph glyph-name="uni045D" unicode="&#x45d;" horiz-adv-x="1208" 
d="M587 1241l-192 301h140l139 -301h-87zM173 0v1071h113v-906h2l640 906h113v-1071h-113v908h-2l-640 -908h-113z" />
    <glyph glyph-name="uni045E" unicode="&#x45e;" horiz-adv-x="1063" 
d="M284 1515h98q6 -78 49.5 -125t113.5 -47q71 0 117.5 47t54.5 125h97q-9 -109 -84.5 -181t-184.5 -72q-107 0 -182 72.5t-79 180.5zM292 -373l197 468l-431 976h122l368 -848h2l345 848h117l-606 -1444h-114z" />
    <glyph glyph-name="uni045F" unicode="&#x45f;" horiz-adv-x="1176" 
d="M173 0v1071h113v-975h602v975h113v-1071h-365l-5 -260h-88l-6 260h-364z" />
    <glyph glyph-name="uni0490" unicode="&#x490;" horiz-adv-x="1106" 
d="M192 0v1464h719l8 275h98v-375h-706v-1364h-119z" />
    <glyph glyph-name="uni0491" unicode="&#x491;" horiz-adv-x="898" 
d="M173 0v1071h555l10 275h91v-370h-543v-976h-113z" />
    <glyph glyph-name="Wgrave" unicode="&#x1e80;" horiz-adv-x="1971" 
d="M920 1577l-170 252h123l133 -252h-86zM465 0l-397 1464h122l349 -1296l395 1296h96l387 -1302l371 1302h112l-417 -1464h-127l-375 1270l-393 -1270h-123z" />
    <glyph glyph-name="wgrave" unicode="&#x1e81;" horiz-adv-x="1641" 
d="M751 1225l-179 305h119l143 -305h-83zM395 0l-334 1071h117l289 -938l303 938h92l295 -938l313 938h107l-358 -1071h-121l-285 905l-295 -905h-123z" />
    <glyph glyph-name="Wacute" unicode="&#x1e82;" horiz-adv-x="1971" 
d="M945 1577l135 252h123l-172 -252h-86zM465 0l-397 1464h122l349 -1296l395 1296h96l387 -1302l371 1302h112l-417 -1464h-127l-375 1270l-393 -1270h-123z" />
    <glyph glyph-name="wacute" unicode="&#x1e83;" horiz-adv-x="1641" 
d="M783 1225l139 305h121l-178 -305h-82zM395 0l-334 1071h117l289 -938l303 938h92l295 -938l313 938h107l-358 -1071h-121l-285 905l-295 -905h-123z" />
    <glyph glyph-name="Wdieresis" unicode="&#x1e84;" horiz-adv-x="1971" 
d="M735 1673q0 29 20 49.5t49 20.5q30 0 49 -20t19 -50q0 -28 -19.5 -47.5t-48.5 -19.5q-27 0 -48 20t-21 47zM1090 1674q0 29 19 49t49 20t49.5 -20t19.5 -50q0 -28 -20 -47.5t-49 -19.5t-48.5 19.5t-19.5 48.5zM465 0l-397 1464h122l349 -1296l394 1296h96l388 -1302
l371 1302h113l-418 -1464h-127l-376 1270l-392 -1270h-123z" />
    <glyph glyph-name="wdieresis" unicode="&#x1e85;" horiz-adv-x="1641" 
d="M652 1292q-28 0 -48 20t-20 48t20 47.5t48 19.5q29 0 49 -19.5t20 -47.5q0 -29 -20 -48.5t-49 -19.5zM913 1360q0 30 20 48.5t50 18.5q29 0 48.5 -19t19.5 -48t-19.5 -48.5t-48.5 -19.5t-49.5 19.5t-20.5 48.5zM395 0l-334 1071h117l289 -938l304 938h91l295 -938
l313 938h107l-358 -1071h-121l-284 905l-296 -905h-123z" />
    <glyph glyph-name="Ygrave" unicode="&#x1ef2;" horiz-adv-x="1201" 
d="M569 1577l-170 252h123l133 -252h-86zM555 0v655l-508 809h131l440 -710l416 710h117l-479 -809v-655h-117z" />
    <glyph glyph-name="ygrave" unicode="&#x1ef3;" horiz-adv-x="1054" 
d="M487 1225l-178 305h118l144 -305h-84zM262 -399l201 485l-410 985h121l346 -862l348 862h113l-608 -1470h-111z" />
    <glyph glyph-name="uni2009" unicode="&#x2009;" horiz-adv-x="230" 
 />
    <glyph glyph-name="endash" unicode="&#x2013;" horiz-adv-x="1187" 
d="M168 532v82h850v-82h-850z" />
    <glyph glyph-name="emdash" unicode="&#x2014;" horiz-adv-x="1924" 
d="M168 532v82h1588v-82h-1588z" />
    <glyph glyph-name="quoteleft" unicode="&#x2018;" horiz-adv-x="520" 
d="M136 1139l172 338l72 -31l-139 -348z" />
    <glyph glyph-name="quoteright" unicode="&#x2019;" horiz-adv-x="520" 
d="M142 1128l138 349l104 -39l-172 -340z" />
    <glyph glyph-name="quotesinglbase" unicode="&#x201a;" horiz-adv-x="518" 
d="M140 -123l140 350l104 -39l-172 -340z" />
    <glyph glyph-name="quotedblleft" unicode="&#x201c;" horiz-adv-x="788" 
d="M136 1139l172 338l72 -31l-139 -348zM404 1139l172 338l72 -31l-141 -348z" />
    <glyph glyph-name="quotedblright" unicode="&#x201d;" horiz-adv-x="788" 
d="M142 1128l138 349l104 -39l-172 -340zM411 1128l139 349l102 -39l-172 -340z" />
    <glyph glyph-name="quotedblbase" unicode="&#x201e;" horiz-adv-x="788" 
d="M140 -123l140 350l104 -39l-172 -340zM409 -123l139 350l104 -39l-172 -340z" />
    <glyph glyph-name="dagger" unicode="&#x2020;" horiz-adv-x="805" 
d="M353 -303v1528h-243v86h243v278h99v-278h241v-86h-241v-1528h-99z" />
    <glyph glyph-name="daggerdbl" unicode="&#x2021;" horiz-adv-x="805" 
d="M353 -303v278h-243v86h243v1164h-243v86h243v278h99v-278h241v-86h-241v-1164h241v-86h-241v-278h-99z" />
    <glyph glyph-name="bullet" unicode="&#x2022;" horiz-adv-x="747" 
d="M374 406q-91 0 -154 64t-63 155t63 153t154 62q92 0 154.5 -61.5t62.5 -153.5q0 -93 -62 -156t-155 -63z" />
    <glyph glyph-name="ellipsis" unicode="&#x2026;" horiz-adv-x="1458" 
d="M1193 -12q-32 0 -56 24t-24 57q0 32 24 55.5t56 23.5q33 0 57.5 -23t24.5 -56q0 -35 -24 -58t-58 -23zM266 -12q-36 0 -59.5 22.5t-23.5 57.5t23.5 57t59.5 22q33 0 56 -23.5t23 -55.5q0 -33 -23 -56.5t-56 -23.5zM648 68q0 32 24 55.5t56 23.5q33 0 57.5 -23t24.5 -56
q0 -35 -24 -57.5t-58 -22.5q-33 0 -56.5 23.5t-23.5 56.5z" />
    <glyph glyph-name="perthousand" unicode="&#x2030;" horiz-adv-x="2319" 
d="M419 827q-136 0 -227.5 93t-91.5 229q0 137 92 231.5t228 94.5t226.5 -93t90.5 -229q0 -137 -91 -231.5t-227 -94.5zM266 0l965 1464h86l-966 -1464h-85zM420 907q102 0 162.5 71t60.5 175t-59.5 174t-161.5 70q-103 0 -165.5 -72t-62.5 -176q0 -103 62 -172.5t164 -69.5
zM1159 -14q-136 0 -226.5 92t-90.5 229q0 138 91 233t228 95q136 0 226.5 -93.5t90.5 -230.5q0 -136 -91 -230.5t-228 -94.5zM1896 -14q-137 0 -227 92t-90 229q0 138 90.5 233t228.5 95q136 0 227 -93.5t91 -231.5t-90.5 -231t-229.5 -93zM1161 66q103 0 163 70t60 175
t-59.5 174.5t-161.5 69.5q-104 0 -165.5 -71.5t-61.5 -175.5q0 -103 61.5 -172.5t163.5 -69.5zM1896 66q102 0 164 71t62 176q0 104 -60.5 173t-162.5 69q-104 0 -166 -72t-62 -176q0 -102 62 -171.5t163 -69.5z" />
    <glyph glyph-name="minute" unicode="&#x2032;" horiz-adv-x="367" 
d="M98 1059l62 405h114l-92 -405h-84z" />
    <glyph glyph-name="second" unicode="&#x2033;" horiz-adv-x="621" 
d="M98 1059l62 405h114l-92 -405h-84zM352 1059l64 405h112l-90 -405h-86z" />
    <glyph glyph-name="guilsinglleft" unicode="&#x2039;" horiz-adv-x="697" 
d="M445 166l-277 369l277 368h98l-274 -368l274 -369h-98z" />
    <glyph glyph-name="guilsinglright" unicode="&#x203a;" horiz-adv-x="697" 
d="M156 166l275 369l-275 368h96l281 -368l-281 -369h-96z" />
    <glyph glyph-name="fraction" unicode="&#x2044;" horiz-adv-x="263" 
d="M-473 0l1082 1464h80l-1082 -1464h-80z" />
    <glyph glyph-name="uni207D" unicode="&#x207d;" horiz-adv-x="347" 
d="M293 632h-112q-68 114 -98.5 222.5t-30.5 239.5q0 254 129 474h112q-66 -131 -97 -237.5t-31 -232.5q0 -127 30.5 -228.5t97.5 -237.5z" />
    <glyph glyph-name="uni207E" unicode="&#x207e;" horiz-adv-x="347" 
d="M163 632h-110q67 137 97.5 238t30.5 228q0 126 -31 231.5t-97 238.5h110q129 -220 129 -473q0 -131 -30.5 -239.5t-98.5 -223.5z" />
    <glyph glyph-name="uni208D" unicode="&#x208d;" horiz-adv-x="347" 
d="M292 -318h-111q-68 115 -98.5 223.5t-30.5 239.5q0 253 129 473h111q-66 -133 -97 -238.5t-31 -231.5q0 -127 30.5 -228.5t97.5 -237.5z" />
    <glyph glyph-name="uni208E" unicode="&#x208e;" horiz-adv-x="347" 
d="M164 -318h-113q67 136 97.5 237.5t30.5 228.5q0 126 -31 231.5t-97 238.5h113q129 -220 129 -473q0 -131 -30.5 -239.5t-98.5 -223.5z" />
    <glyph glyph-name="Euro" unicode="&#x20ac;" horiz-adv-x="1375" 
d="M76 559v70h133v209h-133v67h135q6 97 31.5 183t71.5 158t109.5 124.5t149 81.5t185.5 29q197 0 315 -93.5t168 -285.5l-98 -43q-40 163 -130.5 242.5t-254.5 79.5q-103 0 -184 -37.5t-131.5 -104t-78 -150.5t-32.5 -184h503l-12 -67h-493v-209h452l-10 -70h-440
q4 -82 21.5 -152t51.5 -130t82 -102.5t116 -66.5t151 -24q170 0 267 93.5t142 262.5l100 -43q-120 -413 -505 -413q-168 0 -290 76.5t-184.5 204t-72.5 294.5h-135z" />
    <glyph glyph-name="uni20B8" unicode="&#x20b8;" horiz-adv-x="1181" 
d="M77 1359v105h1024v-105h-1024zM521 0v1010h-444v106h1024v-106h-427v-1010h-153z" />
    <glyph glyph-name="uni20B9" unicode="&#x20b9;" horiz-adv-x="1243" 
d="M145 573v95h123q86 0 161.5 18t139.5 55t102 102.5t39 151.5h-565v86h563q-12 74 -54.5 130t-98.5 87.5t-131 51.5t-140.5 26t-138.5 6v82h977v-82h-545q95 -20 166 -109t86 -192h293v-86h-289q-6 -169 -128.5 -272.5t-311.5 -126.5q73 -33 154 -127l409 -469h-149
l-359 414q-77 89 -137.5 124t-165.5 35z" />
    <glyph glyph-name="uni20BA" unicode="&#x20ba;" horiz-adv-x="1159" 
d="M347 18v829l-250 -54v93l250 54v169l-250 -54v95l250 54v260h123v-237l369 83v-95l-369 -83v-169l369 83v-93l-369 -83v-747q13 -2 40 -2q150 0 290 117.5t185 279.5l106 -46q-52 -196 -226 -334t-379 -138q-62 0 -139 18z" />
    <glyph glyph-name="uni20BC" unicode="&#x20bc;" horiz-adv-x="1315" 
d="M118 0v646q0 114 32 217.5t91.5 185t150 135.5t200.5 67l-1 213h123v-213q145 -16 255 -99t167.5 -209.5t57.5 -277.5v-665h-123v669q0 173 -97.5 300.5t-259.5 151.5l3 -897h-123l-2 897q-108 -17 -189.5 -88t-121.5 -171.5t-40 -215.5v-647z" />
    <glyph glyph-name="uni20BF" unicode="&#x20bf;" horiz-adv-x="1152" 
d="M253 -198v198h-148v1464h148v203h81v-203h188v203h80v-203q88 -4 160 -27.5t127.5 -68t86 -116t30.5 -163.5q0 -269 -265 -327q160 -24 247 -104t87 -235q0 -210 -122.5 -316.5t-335.5 -106.5h-15v-198h-80v198h-188v-198h-81zM220 806h333q315 0 315 271
q0 145 -84.5 212t-235.5 67h-328v-550zM220 109h380q157 0 245.5 81.5t88.5 237.5q0 63 -21.5 112t-57 78.5t-85.5 48.5t-101 26t-110 7h-339v-591z" />
    <glyph glyph-name="uni2105" unicode="&#x2105;" horiz-adv-x="1941" 
d="M499 0l870 1464h99l-864 -1464h-105zM728 937l82 -36q-49 -104 -136 -165t-198 -61q-105 0 -188 55.5t-126 145t-43 192.5q0 161 102 275t258 114q105 0 190 -54.5t134 -148.5l-81 -36q-35 68 -100.5 109.5t-142.5 41.5q-78 0 -138.5 -44.5t-90 -112.5t-29.5 -145
q0 -122 72.5 -213t190.5 -91q148 0 244 174zM1465 -14q-158 0 -263 110.5t-105 271.5t104.5 275t265.5 114q158 0 262.5 -110t104.5 -271t-104 -275.5t-265 -114.5zM1467 77q115 0 187.5 86.5t72.5 205.5t-72 208.5t-190 89.5q-115 0 -188 -86t-73 -206q0 -119 72.5 -208.5
t190.5 -89.5z" />
    <glyph glyph-name="uni2116" unicode="&#x2116;" horiz-adv-x="2271" 
d="M143 0v1464h158l847 -1292v1292h115v-1464h-135l-870 1325v-1325h-115zM1787 300q-162 0 -267.5 111t-105.5 275q0 162 103 273.5t268 111.5q162 0 264 -108t102 -274q0 -165 -100.5 -277t-263.5 -112zM1784 391q115 0 187.5 86.5t72.5 205.5t-72 208.5t-190 89.5
q-115 0 -188 -86t-73 -206q0 -119 72.5 -208.5t190.5 -89.5zM1473 0v91h619v-91h-619z" />
    <glyph glyph-name="trademark" unicode="&#x2122;" horiz-adv-x="1375" 
d="M260 825v574h-197v65h472v-65h-195v-574h-80zM653 825v639h107l207 -506l207 506h106v-639h-80v539l-223 -539h-27l-225 539v-539h-72z" />
    <glyph glyph-name="estimated" unicode="&#x212e;" horiz-adv-x="1575" 
d="M312 677v-332q0 -32 36 -72q79 -91 209 -146t257 -55q132 0 263.5 60t219.5 160l98 -32q-104 -128 -261.5 -200t-325.5 -72q-146 0 -282.5 56.5t-238 153t-162.5 232t-61 284.5q0 194 97.5 359t264 261.5t362.5 96.5t363 -96.5t265 -263.5t98 -363v-31h-1202zM312 764
h954v324q0 16 -39 60q-81 93 -197 144.5t-240 51.5q-127 0 -248 -54t-203 -148q-27 -29 -27 -49v-329z" />
    <glyph glyph-name="onethird" unicode="&#x2153;" horiz-adv-x="1461" 
d="M101 0l1082 1464h80l-1082 -1464h-80zM246 752v616l-185 -127v80l205 143h70v-712h-90zM856 184l76 19q22 -81 76.5 -113.5t142.5 -32.5q60 0 98.5 43t38.5 107q0 35 -13.5 60t-32.5 38.5t-50 21t-56.5 9.5t-60.5 2v61q34 0 56.5 1.5t51.5 8t46 18.5t29 35t12 56
q0 65 -42 99t-107 34q-130 0 -169 -137l-73 18q21 90 86 137.5t158 47.5q95 0 163 -47.5t68 -137.5q0 -61 -33 -101.5t-92 -57.5q68 -15 108.5 -63t40.5 -120q0 -99 -73.5 -150.5t-178.5 -51.5q-103 0 -175 49.5t-95 146.5z" />
    <glyph glyph-name="twothirds" unicode="&#x2154;" horiz-adv-x="1547" 
d="M47 752v27l270 259q33 32 50.5 50t41.5 49t35 62t11 65q0 65 -40.5 101t-103.5 36q-70 0 -115 -44.5t-65 -115.5l-68 31q24 93 89 145.5t161 52.5t164 -51.5t68 -149.5q0 -41 -12 -77.5t-39 -72.5t-48 -58.5t-61 -61.5l-186 -178h352v-69h-504zM201 0l1079 1464h78
l-1077 -1464h-80zM938 186l76 21q19 -71 68.5 -109.5t123.5 -38.5q73 0 118.5 36t45.5 108q0 37 -13.5 63t-32.5 40t-50 22t-56.5 10t-60.5 2v61q27 0 46.5 1.5t44 5t41.5 12t32.5 21.5t23 33.5t7.5 47.5q0 64 -41.5 98.5t-106.5 34.5t-108 -36.5t-60 -102.5l-75 21
q21 88 87 135t158 47q95 0 162.5 -47t67.5 -137q0 -62 -33.5 -103t-91.5 -57q69 -15 109 -62.5t40 -118.5q0 -100 -73 -152t-180 -52q-101 0 -173.5 49.5t-95.5 146.5z" />
    <glyph glyph-name="uni2155" unicode="&#x2155;" horiz-adv-x="1379" 
d="M36 0l1081 1464h83l-1082 -1464h-82zM249 750v616l-184 -117v80l205 135h72v-714h-93zM802 156l71 30q42 -125 172 -125q78 0 122 47t44 123t-43.5 124t-120.5 48q-100 0 -156 -73h-55l4 385h423v-72h-351v-242q61 68 170 68q103 0 162.5 -66t59.5 -170
q0 -114 -70 -177.5t-185 -63.5q-188 0 -247 164z" />
    <glyph glyph-name="uni2156" unicode="&#x2156;" horiz-adv-x="1523" 
d="M58 749v28l211 202q59 58 85 85.5t57.5 67.5t43 71t11.5 66q0 62 -39 97t-101 35q-72 0 -117 -44.5t-65 -115.5l-68 31q26 92 90.5 145t160.5 53t163.5 -51.5t67.5 -148.5q0 -41 -12 -78t-40 -73.5t-48 -58t-62 -61.5l-186 -178h354v-72h-506zM203 0l1081 1464h83
l-1082 -1464h-82zM947 156l72 30q40 -125 171 -125q78 0 122 47t44 123t-43.5 124t-120.5 48q-99 0 -155 -73h-55l4 385h421v-72h-349v-242q60 68 169 68q103 0 162 -66t59 -170q0 -114 -69.5 -177.5t-184.5 -63.5q-89 0 -153.5 41t-93.5 123z" />
    <glyph glyph-name="uni2157" unicode="&#x2157;" horiz-adv-x="1555" 
d="M63 924l72 30q19 -69 70.5 -106t125.5 -37q72 0 117 36t45 109q0 37 -13 63t-31.5 39.5t-50 21t-55.5 9t-61 1.5v63q42 0 70.5 3.5t60 14t48 36t16.5 64.5q0 64 -42.5 98.5t-107.5 34.5t-109 -35t-62 -99l-70 27q25 84 91 128.5t157 44.5q94 0 161.5 -47t67.5 -137
q0 -61 -33 -102.5t-92 -57.5q64 -12 106.5 -58.5t42.5 -109.5q0 -108 -70.5 -163.5t-178.5 -55.5q-99 0 -172.5 47.5t-102.5 137.5zM193 0l1082 1464h80l-1082 -1464h-80zM977 156l72 30q40 -125 171 -125q78 0 122 47t44 123t-43.5 124t-120.5 48q-99 0 -155 -73h-55l4 385
h422v-72h-350v-242q60 68 169 68q103 0 163 -66t60 -170q0 -114 -70.5 -177.5t-185.5 -63.5q-89 0 -153.5 41t-93.5 123z" />
    <glyph glyph-name="uni2158" unicode="&#x2158;" horiz-adv-x="1568" 
d="M225 0l1081 1464h83l-1082 -1464h-82zM55 904v38l346 522h119v-491h96v-69h-96v-154h-90v154h-375zM153 973h279v428zM991 156l72 30q42 -125 171 -125q79 0 123 47t44 123t-43.5 124t-120.5 48q-100 0 -156 -73h-55l4 385h422v-72h-350v-242q61 68 170 68q103 0 162 -66
t59 -170q0 -114 -69.5 -177.5t-184.5 -63.5q-90 0 -154.5 41t-93.5 123z" />
    <glyph glyph-name="uni2159" unicode="&#x2159;" horiz-adv-x="1441" 
d="M45 0l1081 1464h83l-1082 -1464h-82zM258 750v616l-184 -117v80l205 135h72v-714h-93zM1346 582l-68 -29q-18 49 -59 74.5t-97 25.5q-59 0 -100 -28.5t-60.5 -77.5t-27.5 -98t-8 -107q47 111 236 111q88 0 146 -68.5t58 -163.5q0 -106 -75 -167.5t-191 -61.5
q-136 0 -200 85.5t-64 227.5q0 416 287 416q74 0 136 -36.5t87 -102.5zM1104 60q77 0 124.5 46.5t47.5 124.5q0 75 -45 118.5t-121 43.5q-77 0 -126.5 -44.5t-49.5 -121.5q0 -74 46.5 -120.5t123.5 -46.5z" />
    <glyph glyph-name="uni215A" unicode="&#x215a;" horiz-adv-x="1514" 
d="M187 0l1081 1464h83l-1082 -1464h-82zM64 905l72 33q43 -125 168 -125q79 0 124.5 47t45.5 122q0 74 -43.5 122t-118.5 48q-100 0 -158 -74h-55l4 386h421v-69h-349v-245q63 69 170 69q102 0 160.5 -66t58.5 -169q0 -113 -69 -178t-183 -65q-89 0 -154 41.5t-94 122.5z
M1409 577l-68 -29q-18 49 -59 74.5t-97 25.5q-59 0 -100 -28.5t-60.5 -77.5t-27.5 -98t-8 -107q47 111 236 111q88 0 146 -69t58 -164q0 -106 -75 -167t-191 -61q-136 0 -200 85t-64 228q0 416 287 416q74 0 136 -36.5t87 -102.5zM1167 54q77 0 124.5 46.5t47.5 124.5
q0 75 -45 119t-122 44t-126 -44.5t-49 -121.5q0 -75 46.5 -121.5t123.5 -46.5z" />
    <glyph glyph-name="oneeighth" unicode="&#x215b;" horiz-adv-x="1449" 
d="M123 0l1082 1464h80l-1082 -1464h-80zM238 752v616l-185 -127v80l205 143h70v-712h-90zM999 381q-57 17 -95 59.5t-38 100.5q0 57 38 99.5t91.5 61.5t110.5 19q90 0 160.5 -47.5t70.5 -132.5q0 -58 -35.5 -101t-91.5 -59q158 -42 158 -186q0 -70 -39 -117.5t-96.5 -66.5
t-128.5 -19q-52 0 -98 11t-85 33t-62 61.5t-23 91.5q0 75 45.5 124.5t117.5 67.5zM952 536q0 -59 48 -93.5t111 -34.5q60 0 102 32.5t42 90.5q0 61 -45.5 93.5t-106.5 32.5t-106 -32t-45 -89zM926 200q0 -70 52 -105.5t126 -35.5q75 0 126.5 36t51.5 107q0 72 -51.5 109
t-124.5 37t-126.5 -38t-53.5 -110z" />
    <glyph glyph-name="threeeighths" unicode="&#x215c;" horiz-adv-x="1527" 
d="M63 938l76 20q20 -70 70 -108.5t124 -38.5q72 0 117.5 36t45.5 110q0 36 -13 62t-31.5 40t-49 21.5t-55.5 9.5t-62 2v61q32 0 55.5 2t51 9t45.5 20t30 36t12 55q0 64 -42 97.5t-105 33.5q-67 0 -110.5 -36t-59.5 -102l-74 20q23 89 87 135.5t156 46.5q96 0 164 -47.5
t68 -138.5q0 -60 -33 -100.5t-92 -57.5q68 -14 108 -62t40 -121q0 -99 -72 -149.5t-177 -50.5q-103 0 -175.5 50t-98.5 145zM178 0l1079 1464h78l-1077 -1464h-80zM1075 382q-57 17 -94 59.5t-37 99.5t38 99.5t91.5 61.5t110.5 19q90 0 160.5 -47.5t70.5 -132.5
q0 -58 -35 -100.5t-92 -58.5q72 -18 114 -65.5t42 -121.5q0 -70 -39.5 -117.5t-97 -66.5t-128.5 -19q-70 0 -126.5 18.5t-96 64.5t-39.5 114q0 75 44 125.5t114 67.5zM1028 536q0 -59 48 -93t110 -34q60 0 102.5 32t42.5 90q0 60 -45 93t-106 33t-106.5 -32t-45.5 -89z
M1001 200q0 -71 52.5 -106t127.5 -35q76 0 127.5 36t51.5 107q0 72 -52.5 109t-125.5 37t-127 -38t-54 -110z" />
    <glyph glyph-name="fiveeighths" unicode="&#x215d;" horiz-adv-x="1500" 
d="M147 0l1079 1464h78l-1077 -1464h-80zM51 922l74 18q16 -60 68 -93.5t117 -33.5q77 0 119 46t42 120q0 77 -43.5 126.5t-120.5 49.5q-100 0 -157 -74h-52l4 383h418v-67h-348v-244q56 66 168 66q102 0 161.5 -66.5t59.5 -168.5q0 -111 -69.5 -176t-180.5 -65
q-95 0 -170 46.5t-90 132.5zM1049 381q-57 16 -94 58.5t-37 101.5q0 84 73 132t163 48q56 0 107.5 -18.5t88 -61t36.5 -100.5t-34.5 -100.5t-91.5 -59.5q73 -18 115 -65t42 -121q0 -70 -39.5 -117.5t-97 -66.5t-128.5 -19q-51 0 -97 11t-85 33.5t-62 62t-23 91.5
q0 75 46 124.5t118 66.5zM1001 536q0 -59 48 -93.5t110 -34.5q59 0 101.5 32.5t42.5 90.5q0 61 -45.5 93.5t-106.5 32.5t-105.5 -32t-44.5 -89zM975 201q0 -70 52.5 -106t128.5 -36q74 0 124.5 35t50.5 106q0 73 -52.5 110.5t-124.5 37.5t-125.5 -38t-53.5 -109z" />
    <glyph glyph-name="seveneighths" unicode="&#x215e;" horiz-adv-x="1445" 
d="M59 0l1081 1464h83l-1082 -1464h-82zM170 752l277 639h-398v73h502v-26l-289 -686h-92zM993 381q-57 18 -94 60.5t-37 101.5q0 57 37.5 99t90 60.5t109.5 18.5q91 0 162.5 -47.5t71.5 -132.5q0 -59 -35.5 -101.5t-93.5 -58.5q160 -42 160 -186q0 -70 -39.5 -117.5
t-97 -66.5t-128.5 -19q-51 0 -97 11t-85 33t-62 61.5t-23 91.5q0 75 45 125t116 67zM946 536q0 -60 48.5 -94t110.5 -34q60 0 102 32.5t42 90.5q0 60 -45 93t-106 33q-60 0 -106 -32t-46 -89zM920 200q0 -71 51.5 -106t126.5 -35q76 0 127 36t51 107t-51.5 108.5
t-123.5 37.5q-73 0 -127 -38t-54 -110z" />
    <glyph glyph-name="arrowleft" unicode="&#x2190;" horiz-adv-x="1583" 
d="M272 673l616 -597l-88 -88l-759 744l759 744l90 -90l-618 -593l1267 3v-126z" />
    <glyph glyph-name="arrowup" unicode="&#x2191;" horiz-adv-x="1627" 
d="M158 649l-90 90l744 759l744 -759l-88 -88l-597 616l3 -1267h-126l3 1267z" />
    <glyph glyph-name="arrowright" unicode="&#x2192;" horiz-adv-x="1583" 
d="M692 76l616 597l-1267 -3v126l1267 -3l-618 593l90 90l759 -744l-759 -744z" />
    <glyph glyph-name="arrowdown" unicode="&#x2193;" horiz-adv-x="1627" 
d="M753 197l-3 1267h126l-3 -1267l593 618l90 -90l-744 -759l-744 759l88 88z" />
    <glyph glyph-name="arrowboth" unicode="&#x2194;" horiz-adv-x="2403" 
d="M249 679l628 -613l-77 -78l-750 744l750 744l79 -79l-630 -611h1902l-629 611l79 79l749 -744l-749 -744l-78 78l629 613h-1903z" />
    <glyph glyph-name="arrowupdn" unicode="&#x2195;" horiz-adv-x="1627" 
d="M61 341l79 79l618 -573v1769l-618 -573l-79 79l751 690l751 -692l-78 -77l-620 573v-1769l620 573l78 -77l-751 -691z" />
    <glyph glyph-name="uni2196" unicode="&#x2196;" horiz-adv-x="1626" 
d="M112 0v1464h1450v-108h-1262l1323 -1282l-85 -85l-1316 1295v-1284h-110z" />
    <glyph glyph-name="uni2197" unicode="&#x2197;" horiz-adv-x="1626" 
d="M0 74l1323 1282h-1262v108h1450v-1464h-110v1284l-1316 -1295z" />
    <glyph glyph-name="uni2198" unicode="&#x2198;" horiz-adv-x="1626" 
d="M61 0v108h1262l-1323 1282l85 85l1316 -1295v1284h110v-1464h-1450z" />
    <glyph glyph-name="uni2199" unicode="&#x2199;" horiz-adv-x="1626" 
d="M112 0v1464h110v-1284l1316 1295l85 -85l-1324 -1282h1263v-108h-1450z" />
    <glyph glyph-name="partialdiff" unicode="&#x2202;" horiz-adv-x="1222" 
d="M225 1135l-93 41q45 153 166 229t287 76q548 0 535 -710l-4 -217q-2 -127 -33.5 -229t-92.5 -179.5t-160.5 -119.5t-230.5 -42q-219 0 -360 131.5t-141 353.5q0 214 133.5 335.5t353.5 121.5q136 0 251 -67.5t161 -188.5l-1 130q0 68 -4 123t-15 117t-29 109.5t-49 93
t-72.5 75t-101.5 47.5t-135 18q-285 0 -365 -248zM600 79q176 0 280.5 114t104.5 293q0 157 -114.5 254.5t-273.5 97.5q-175 0 -275.5 -99.5t-100.5 -269.5q0 -175 104.5 -282.5t274.5 -107.5z" />
    <glyph glyph-name="product" unicode="&#x220f;" horiz-adv-x="1307" 
d="M215 0v1376h-156v88h1187v-88h-155v-1376h-110v1376h-656v-1376h-110z" />
    <glyph glyph-name="summation" unicode="&#x2211;" horiz-adv-x="1119" 
d="M74 -180v71l489 866l-483 803v69h926v-91h-793l474 -781l-471 -841h827v-96h-969z" />
    <glyph glyph-name="minus" unicode="&#x2212;" horiz-adv-x="1086" 
d="M90 653v92h903v-92h-903z" />
    <glyph glyph-name="radical" unicode="&#x221a;" horiz-adv-x="1223" 
d="M496 -116l-313 717l-145 -58l-35 93l247 105l320 -748l557 1707h114l-595 -1816h-150z" />
    <glyph glyph-name="uni221B" unicode="&#x221b;" horiz-adv-x="1223" 
d="M496 -116l-313 717l-145 -58l-35 93l247 105l320 -748l557 1707h114l-595 -1816h-150zM219 1054l72 30q19 -69 70.5 -106t125.5 -37q72 0 117 36t45 109q0 37 -13 63t-31.5 39.5t-50 21t-55.5 9t-61 1.5v63q33 0 56 1.5t51.5 8.5t46 19t29.5 35t12 55q0 64 -42.5 98.5
t-107.5 34.5t-109 -35t-62 -100l-70 28q25 84 91 128t157 44q94 0 161.5 -46.5t67.5 -137.5q0 -61 -33 -102.5t-92 -57.5q64 -12 106.5 -58.5t42.5 -109.5q0 -107 -70.5 -162t-179.5 -55q-99 0 -172 46.5t-102 136.5z" />
    <glyph glyph-name="infinity" unicode="&#x221e;" horiz-adv-x="1863" 
d="M932 656q-276 -327 -466 -327q-170 0 -276.5 120t-106.5 295q0 172 105 283t279 111q64 0 131.5 -31t131 -86.5t107.5 -102t94 -107.5q257 330 461 330q183 0 284.5 -110t101.5 -297q0 -184 -98.5 -297t-282.5 -113q-55 0 -111 23t-112 69t-89.5 79t-84.5 88zM868 733
l-69 84q-182 211 -319 211q-126 0 -204.5 -81.5t-78.5 -203.5q0 -127 83.5 -217t205.5 -90q154 0 382 297zM994 735q37 -46 77 -89.5t95.5 -95t113 -82.5t104.5 -31q130 0 201 84.5t71 218.5q0 133 -72 210t-205 77q-153 0 -385 -292z" />
    <glyph glyph-name="integral" unicode="&#x222b;" horiz-adv-x="726" 
d="M20 -217v108h78q85 0 144.5 49t59.5 132v1282q0 137 69 226t202 89h120v-108h-100q-78 0 -125.5 -54t-47.5 -133v-1303q0 -141 -89.5 -214.5t-232.5 -73.5h-78z" />
    <glyph glyph-name="approxequal" unicode="&#x2248;" horiz-adv-x="1068" 
d="M172 758h-82q10 96 68 155.5t157 59.5q74 0 218 -59q145 -60 225 -60q55 0 92 34t43 89h82q-10 -95 -67.5 -155t-157.5 -60q-74 0 -215 58q-48 20 -76 30.5t-72 20.5t-82 10q-56 0 -90 -33t-43 -90zM172 385h-82q10 95 68.5 154t157.5 59q73 0 214 -57q48 -20 76 -30
t71 -20t81 -10q55 0 92 33t43 88h82q-10 -94 -67 -153.5t-155 -59.5q-35 0 -76 9.5t-67.5 19t-73.5 28.5q-49 20 -77 30t-72 20t-82 10q-56 0 -90 -32t-43 -89z" />
    <glyph glyph-name="notequal" unicode="&#x2260;" horiz-adv-x="1045" 
d="M272 227l109 240h-285v88h322l125 270h-447v88h483l109 240h86l-109 -240h281v-88h-320l-124 -270h444v-88h-479l-111 -240h-84z" />
    <glyph glyph-name="lessequal" unicode="&#x2264;" horiz-adv-x="1043" 
d="M112 702v27l797 424v-104l-633 -334l633 -332v-107zM112 0v86h797v-86h-797z" />
    <glyph glyph-name="greaterequal" unicode="&#x2265;" horiz-adv-x="1043" 
d="M131 274v105l633 334l-633 331v105l797 -424v-27zM131 0v86h797v-86h-797z" />
    <glyph glyph-name="uni2460" unicode="&#x2460;" horiz-adv-x="1766" 
d="M124 731q0 155 60 295.5t161.5 241.5t242 160t296.5 59q207 0 380.5 -99.5t274 -273t100.5 -382.5q0 -156 -59 -296t-160 -240.5t-241 -159.5t-296 -59q-209 0 -383.5 100t-275 273.5t-100.5 380.5zM881 40q141 0 269 55t220 148t146 221t54 268q0 141 -55 269.5
t-147 221t-219.5 147t-267.5 54.5q-187 0 -345.5 -93t-250.5 -252.5t-92 -347.5q0 -140 54 -267.5t146 -220.5t219.5 -148t268.5 -55zM835 355v616l-184 -117v80l205 135h72v-714h-93z" />
    <glyph glyph-name="uni2461" unicode="&#x2461;" horiz-adv-x="1766" 
d="M124 731q0 155 60 295.5t161.5 241.5t242 160t296.5 59q207 0 380.5 -99.5t274 -273t100.5 -382.5q0 -156 -59 -296t-160 -240.5t-241 -159.5t-296 -59q-209 0 -383.5 100t-275 273.5t-100.5 380.5zM881 40q141 0 269 55t220 148t146 221t54 268q0 141 -55 269.5
t-147 221t-219.5 147t-267.5 54.5q-187 0 -345.5 -93t-250.5 -252.5t-92 -347.5q0 -140 54 -267.5t146 -220.5t219.5 -148t268.5 -55zM609 392v28l255 245q38 36 57.5 56.5t45.5 54t38 66t12 67.5q0 62 -39 97t-101 35q-71 0 -116.5 -44.5t-65.5 -114.5l-68 30
q26 93 90.5 146.5t160.5 53.5q95 0 162 -51.5t67 -149.5q0 -42 -12 -79t-38.5 -72.5t-48.5 -59t-61 -60.5l-186 -177h352v-71h-504z" />
    <glyph glyph-name="uni2462" unicode="&#x2462;" horiz-adv-x="1766" 
d="M124 731q0 155 60 295.5t161.5 241.5t242 160t296.5 59q207 0 380.5 -99.5t274 -273t100.5 -382.5q0 -156 -59 -296t-160 -240.5t-241 -159.5t-296 -59q-209 0 -383.5 100t-275 273.5t-100.5 380.5zM881 40q141 0 269 55t220 148t146 221t54 268q0 141 -55 269.5
t-147 221t-219.5 147t-267.5 54.5q-187 0 -345.5 -93t-250.5 -252.5t-92 -347.5q0 -140 54 -267.5t146 -220.5t219.5 -148t268.5 -55zM609 539l72 30q19 -68 70.5 -105t125.5 -37q72 0 117 35.5t45 108.5q0 37 -13 62.5t-31.5 39t-50 21t-55.5 9t-61 1.5v65q33 0 56 1.5
t51.5 8.5t46 19t29.5 35t12 55q0 64 -42.5 98.5t-107.5 34.5t-109 -35t-62 -100l-70 28q25 84 91 128t157 44q94 0 161.5 -46.5t67.5 -137.5q0 -61 -33 -102.5t-92 -58.5q63 -12 106 -58.5t43 -109.5q0 -107 -70 -161.5t-178 -54.5q-100 0 -173.5 46.5t-102.5 135.5z" />
    <glyph glyph-name="uni2463" unicode="&#x2463;" horiz-adv-x="1766" 
d="M124 731q0 155 60 295.5t161.5 241.5t242 160t296.5 59q207 0 380.5 -99.5t274 -273t100.5 -382.5q0 -156 -59 -296t-160 -240.5t-241 -159.5t-296 -59q-209 0 -383.5 100t-275 273.5t-100.5 380.5zM881 40q141 0 269 55t220 148t146 221t54 268q0 141 -55 269.5
t-147 221t-219.5 147t-267.5 54.5q-187 0 -345.5 -93t-250.5 -252.5t-92 -347.5q0 -140 54 -267.5t146 -220.5t219.5 -148t268.5 -55zM542 517v37l346 522h119v-491h96v-68h-96v-155h-90v155h-375zM640 585h279v428z" />
    <glyph glyph-name="uni2464" unicode="&#x2464;" horiz-adv-x="1766" 
d="M124 731q0 155 60 295.5t161.5 241.5t242 160t296.5 59q207 0 380.5 -99.5t274 -273t100.5 -382.5q0 -156 -59 -296t-160 -240.5t-241 -159.5t-296 -59q-209 0 -383.5 100t-275 273.5t-100.5 380.5zM881 40q141 0 269 55t220 148t146 221t54 268q0 141 -55 269.5
t-147 221t-219.5 147t-267.5 54.5q-187 0 -345.5 -93t-250.5 -252.5t-92 -347.5q0 -140 54 -267.5t146 -220.5t219.5 -148t268.5 -55zM633 515l72 33q43 -125 168 -125q79 0 124.5 47.5t45.5 122.5q0 74 -43.5 122t-117.5 48q-100 0 -159 -74h-55l4 385h422v-69h-350v-244
q64 68 170 68q102 0 161.5 -65.5t59.5 -168.5q0 -113 -70 -178.5t-184 -65.5q-89 0 -154 41.5t-94 122.5z" />
    <glyph glyph-name="uni2465" unicode="&#x2465;" horiz-adv-x="1766" 
d="M124 731q0 155 60 295.5t161.5 241.5t242 160t296.5 59q207 0 380.5 -99.5t274 -273t100.5 -382.5q0 -156 -59 -296t-160 -240.5t-241 -159.5t-296 -59q-209 0 -383.5 100t-275 273.5t-100.5 380.5zM881 40q141 0 269 55t220 148t146 221t54 268q0 141 -55 269.5
t-147 221t-219.5 147t-267.5 54.5q-187 0 -345.5 -93t-250.5 -252.5t-92 -347.5q0 -140 54 -267.5t146 -220.5t219.5 -148t268.5 -55zM1126 957l-68 -28q-18 49 -59 74.5t-97 25.5q-47 0 -83.5 -20t-57 -50.5t-33.5 -73.5t-17.5 -82.5t-4.5 -84.5q26 58 83.5 85t124.5 27
q105 0 168.5 -62t63.5 -164q0 -111 -75 -174t-192 -63q-136 0 -199.5 86t-63.5 230q0 413 281 413q81 0 142 -35t87 -104zM883 437q77 0 125 46t48 124q0 75 -44.5 119.5t-120.5 44.5q-77 0 -127 -45.5t-50 -123.5q0 -75 46 -120t123 -45z" />
    <glyph glyph-name="uni2466" unicode="&#x2466;" horiz-adv-x="1766" 
d="M124 731q0 155 60 295.5t161.5 241.5t242 160t296.5 59q207 0 380.5 -99.5t274 -273t100.5 -382.5q0 -156 -59 -296t-160 -240.5t-241 -159.5t-296 -59q-209 0 -383.5 100t-275 273.5t-100.5 380.5zM881 40q141 0 269 55t220 148t146 221t54 268q0 141 -55 269.5
t-147 221t-219.5 147t-267.5 54.5q-187 0 -345.5 -93t-250.5 -252.5t-92 -347.5q0 -140 54 -267.5t146 -220.5t219.5 -148t268.5 -55zM752 324l276 639h-397v76h506v-39l-291 -676h-94z" />
    <glyph glyph-name="uni2467" unicode="&#x2467;" horiz-adv-x="1766" 
d="M124 731q0 155 60 295.5t161.5 241.5t242 160t296.5 59q207 0 380.5 -99.5t274 -273t100.5 -382.5q0 -156 -59 -296t-160 -240.5t-241 -159.5t-296 -59q-209 0 -383.5 100t-275 273.5t-100.5 380.5zM881 40q141 0 269 55t220 148t146 221t54 268q0 141 -55 269.5
t-147 221t-219.5 147t-267.5 54.5q-187 0 -345.5 -93t-250.5 -252.5t-92 -347.5q0 -140 54 -267.5t146 -220.5t219.5 -148t268.5 -55zM777 756q-135 47 -135 160q0 58 38.5 100.5t91.5 61t111 18.5t109 -18t88 -60t37 -102q0 -59 -34 -99.5t-92 -60.5q73 -16 115 -63
t42 -123q0 -71 -39 -118t-95.5 -66t-126.5 -19q-52 0 -99 11.5t-87 34.5t-63.5 63.5t-23.5 94.5q0 74 43.5 120.5t119.5 64.5zM732 912q0 -59 47 -93t109 -34q60 0 101.5 32.5t41.5 91.5q0 60 -43.5 91t-104.5 31t-106 -31t-45 -88zM704 576q0 -70 52.5 -104.5t129.5 -34.5
q75 0 123.5 34.5t48.5 105.5q0 73 -50.5 111t-121.5 38q-73 0 -127.5 -39t-54.5 -111z" />
    <glyph glyph-name="uni2468" unicode="&#x2468;" horiz-adv-x="1766" 
d="M124 731q0 155 60 295.5t161.5 241.5t242 160t296.5 59q207 0 380.5 -99.5t274 -273t100.5 -382.5q0 -156 -59 -296t-160 -240.5t-241 -159.5t-296 -59q-209 0 -383.5 100t-275 273.5t-100.5 380.5zM881 40q141 0 269 55t220 148t146 221t54 268q0 141 -55 269.5
t-147 221t-219.5 147t-267.5 54.5q-187 0 -345.5 -93t-250.5 -252.5t-92 -347.5q0 -140 54 -267.5t146 -220.5t219.5 -148t268.5 -55zM625 516l72 31q16 -56 60.5 -83.5t106.5 -27.5q52 0 88.5 19.5t56 47.5t30.5 73t13.5 81t2.5 88q-29 -65 -88.5 -87.5t-143.5 -22.5
q-89 0 -148.5 67.5t-59.5 162.5q0 106 76 169.5t190 63.5q132 0 199 -86.5t67 -224.5q0 -50 -2 -88.5t-8.5 -84.5t-18.5 -79.5t-33 -67t-50 -54.5t-72 -34t-97 -13q-81 0 -149.5 38.5t-91.5 111.5zM707 855q0 -74 45 -116.5t120 -42.5q77 0 126 44t49 120q0 74 -46.5 121
t-122.5 47t-123.5 -48t-47.5 -125z" />
    <glyph glyph-name="uni24C5" unicode="&#x24c5;" horiz-adv-x="1744" 
d="M113 731q0 155 60 295.5t161.5 241.5t242 160t296.5 59q207 0 380.5 -99.5t274 -273t100.5 -382.5q0 -156 -59 -296t-160 -240.5t-241 -159.5t-296 -59q-209 0 -383.5 100t-275 273.5t-100.5 380.5zM870 40q141 0 269 55t220 148t146 221t54 268q0 141 -55 269.5
t-147 221t-219.5 147t-267.5 54.5q-187 0 -345.5 -93t-250.5 -252.5t-92 -347.5q0 -140 54 -267.5t146 -220.5t219.5 -148t268.5 -55zM671 245v846h243q302 0 302 -250q0 -54 -13 -94.5t-39.5 -66.5t-56.5 -42.5t-73 -24.5t-80 -10.5t-86 -1.5l-103 1v-357h-94zM765 671h151
q206 0 206 174q0 94 -54 133t-152 39h-151v-346z" />
    <glyph glyph-name="filledbox" unicode="&#x25a0;" horiz-adv-x="1075" 
d="M147 345v774h778v-774h-778z" />
    <glyph glyph-name="uni25A1" unicode="&#x25a1;" horiz-adv-x="1075" 
d="M146 345v774h780v-774h-780zM255 455h563v554h-563v-554z" />
    <glyph glyph-name="lozenge" unicode="&#x25ca;" horiz-adv-x="871" 
d="M312 197l-234 530l234 541h123l-225 -541l225 -530h-123zM437 197l225 530l-225 541h119l234 -541l-234 -530h-119z" />
    <glyph glyph-name="circle" unicode="&#x25cb;" horiz-adv-x="1075" 
d="M121 732q0 181 117 298t298 117t298 -117t117 -298t-117 -298t-298 -117t-298 117t-117 298zM225 731q0 -134 88.5 -221t222.5 -87q135 0 223 87t88 221t-88.5 222t-222.5 88q-135 0 -223 -87.5t-88 -222.5z" />
    <glyph glyph-name="uni25CF" unicode="&#x25cf;" horiz-adv-x="1075" 
d="M536 313q-182 0 -300.5 118t-118.5 301t118.5 301t300.5 118q183 0 301 -118.5t118 -300.5t-118 -300.5t-301 -118.5z" />
    <glyph glyph-name="f_f" unicode="&#xfb00;" horiz-adv-x="1267" 
d="M219 0v987h-164v84h167l-1 128q0 69 7 123t26 105.5t51 85t85 54t124 20.5q69 0 140 -22l-33 -78q-41 12 -88 12q-205 0 -205 -233v-195h465v189q0 153 79 240t229 87q67 0 138 -22l-33 -78q-40 12 -89 12q-110 0 -164 -62t-54 -171v-195h307v-84h-307v-987h-106v987
h-465v-987h-109z" />
    <glyph glyph-name="fi" unicode="&#xfb01;" horiz-adv-x="1115" 
d="M219 0v987h-164v84h164v91q0 64 3 110t12.5 98.5t29.5 88.5t51.5 67t81 46t115.5 15q70 0 141 -22l-32 -78q-41 12 -89 12q-204 0 -204 -233v-195h305v-84h-305v-987h-109zM813 1360q0 29 22 50.5t52 21.5t50.5 -21t20.5 -51t-20.5 -51t-50.5 -21t-52 21.5t-22 50.5z
M834 0v1071h106v-1071h-106z" />
    <glyph glyph-name="fl" unicode="&#xfb02;" horiz-adv-x="1115" 
d="M833 0v1552l113 50v-1602h-113zM219 0v987h-164v84h164v91q0 64 3 110t12.5 98.5t29.5 88.5t51.5 67t81 46t114.5 15q70 0 141 -22l-32 -78q-40 12 -88 12q-204 0 -204 -233v-195h304v-84h-304v-987h-109z" />
    <glyph glyph-name="space.tab" horiz-adv-x="617" 
 />
    <glyph glyph-name="dollar.old" horiz-adv-x="1209" 
d="M565 -274v266q-171 9 -300.5 111t-172.5 268l90 40q40 -144 140 -231t243 -97v635q-73 12 -129.5 28t-115.5 44.5t-97.5 67t-63 97.5t-24.5 134q0 93 36 167.5t97.5 120.5t136.5 71t160 28v188h74v-188q295 -19 422 -312l-88 -37q-91 240 -334 259v-576q84 -13 144.5 -28
t123 -45.5t100.5 -72t62.5 -108.5t24.5 -155q0 -126 -65.5 -220t-166.5 -140t-223 -51v-264h-74zM565 823v565q-66 -3 -122.5 -21t-103.5 -51t-74 -88.5t-27 -126.5q0 -58 19 -103t48 -73t75 -49.5t87.5 -32t97.5 -20.5zM639 705v-622q94 3 170.5 37t126 105.5t49.5 169.5
q0 50 -9.5 90.5t-25 69.5t-41.5 52t-52 37.5t-65 27t-72.5 19t-80.5 14.5z" />
    <glyph glyph-name="dollar.oldtab" 
d="M590 -274v267q-178 10 -297 107t-174 272l90 40q48 -151 140 -234t241 -95v635q-73 13 -129.5 28.5t-115 44.5t-96.5 67t-62.5 96.5t-24.5 133.5q0 93 36 167.5t97 120.5t136 71.5t159 28.5v188h74v-188q314 -19 411 -309l-86 -40q-88 242 -325 259v-576q85 -13 145 -28
t122 -45t99.5 -72t61.5 -108.5t24 -154.5q0 -95 -37.5 -173.5t-101 -128.5t-143.5 -78t-170 -31v-265h-74zM590 824v564q-66 -3 -122.5 -20.5t-103.5 -51t-73.5 -88t-26.5 -125.5q0 -58 19 -103.5t48 -74t74.5 -49.5t87.5 -32t97 -20zM664 706v-623q145 4 245.5 86.5
t100.5 226.5q0 68 -18.5 119t-46.5 82t-77.5 53.5t-93 33.5t-110.5 22z" />
    <glyph glyph-name="dollar.tab" 
d="M582 -276v262q-175 8 -301.5 99t-174.5 254l91 39q39 -139 139 -215t246 -84v637q-72 11 -131.5 27t-118.5 45.5t-99 69t-65 99.5t-25 135q0 92 36.5 166t98.5 120t139.5 71.5t164.5 29.5v185h73v-187q158 -8 272.5 -94t151.5 -236l-90 -39q-24 124 -115 197t-219 79
v-575q85 -12 148 -27.5t126 -45.5t103 -72.5t65 -109.5t25 -154q0 -97 -38 -176t-103.5 -129.5t-148.5 -78.5t-177 -30v-262h-73zM582 821v565q-69 -2 -127 -18.5t-105 -49t-73.5 -86.5t-26.5 -125q0 -72 27 -125t78 -84.5t103.5 -48.5t123.5 -28zM655 706v-627
q151 4 254 84.5t103 226.5q0 69 -19 120.5t-48.5 83.5t-79 55t-96 34.5t-114.5 22.5z" />
    <glyph glyph-name="percent.tab" horiz-adv-x="1435" 
d="M423 860q-128 0 -210.5 88t-82.5 217t84 221.5t214 92.5q128 0 209 -90t81 -219q0 -131 -83 -220.5t-212 -89.5zM198 0l965 1464h86l-966 -1464h-85zM425 934q93 0 148 67.5t55 163.5t-55.5 168t-150.5 72q-94 0 -149 -70.5t-55 -166.5q0 -98 56.5 -166t150.5 -68z
M1025 -14q-128 0 -210.5 89t-82.5 217q0 130 84 222t213 92q127 0 209 -89t82 -220t-83 -221t-212 -90zM1025 60q92 0 148.5 71t56.5 169q0 96 -55 164t-149 68t-149 -69.5t-55 -165.5q0 -97 55.5 -167t147.5 -70z" />
    <glyph glyph-name="parenleft.tab" horiz-adv-x="617" 
d="M557 -303h-96q-320 412 -320 944q0 525 320 943h96q-309 -417 -309 -942q0 -522 309 -945z" />
    <glyph glyph-name="parenleft.uc" horiz-adv-x="609" 
d="M547 -201h-98q-161 192 -244.5 421.5t-83.5 479.5q0 505 328 897h98q-320 -406 -320 -894q0 -492 320 -904z" />
    <glyph glyph-name="parenright.tab" horiz-adv-x="617" 
d="M168 -303h-96q309 418 309 943t-309 944h96q319 -418 319 -948q0 -533 -319 -939z" />
    <glyph glyph-name="parenright.uc" horiz-adv-x="609" 
d="M160 -201h-99q320 417 320 902t-320 896h99q327 -399 327 -896q0 -249 -84 -478.5t-243 -423.5z" />
    <glyph glyph-name="plus.sub" horiz-adv-x="671" 
d="M295 -94v225h-215v70h215v227h76v-227h217v-70h-217v-225h-76z" />
    <glyph glyph-name="plus.sup" horiz-adv-x="671" 
d="M295 944v223h-215v70h215v227h76v-227h217v-70h-217v-223h-76z" />
    <glyph glyph-name="plus.tab" 
d="M573 225v430h-399v90h399v433h99v-433h401v-90h-401v-430h-99z" />
    <glyph glyph-name="comma.tab" horiz-adv-x="617" 
d="M156 -201l137 357l109 -43l-172 -346z" />
    <glyph glyph-name="hyphen.uc" horiz-adv-x="755" 
d="M133 639v96h488v-96h-488z" />
    <glyph glyph-name="period.tab" horiz-adv-x="617" 
d="M314 -12q-34 0 -57.5 23.5t-23.5 56.5t23.5 56t56.5 23t56.5 -23t23.5 -56q0 -34 -22.5 -57t-56.5 -23z" />
    <glyph glyph-name="slash.alt" horiz-adv-x="263" 
d="M-463 0l1082 1464h80l-1082 -1464h-80z" />
    <glyph glyph-name="slash.uc" horiz-adv-x="812" 
d="M72 -172l561 1776h98l-563 -1776h-96z" />
    <glyph glyph-name="zero.den" horiz-adv-x="763" 
d="M385 -8q-151 0 -227.5 93t-76.5 244q0 392 291 392q149 0 228 -93.5t79 -241.5q0 -66 -7.5 -121t-27.5 -107t-52.5 -87.5t-85 -57t-121.5 -21.5zM378 66q207 0 207 267q0 51 -3.5 90t-15.5 83.5t-33.5 73.5t-59.5 48t-90 19q-58 0 -100 -22t-64.5 -60.5t-33 -83
t-10.5 -97.5t3 -91t14.5 -84t32 -74.5t60 -48.5t93.5 -20z" />
    <glyph glyph-name="zero.num" horiz-adv-x="763" 
d="M385 741q-151 0 -227.5 93.5t-76.5 244.5q0 391 293 391q148 0 226.5 -92t78.5 -241q0 -66 -7.5 -121t-27.5 -107.5t-52.5 -88t-85 -57.5t-121.5 -22zM376 815q59 0 101 22t65 61t33 84.5t10 100.5q0 51 -3.5 90.5t-16 84t-33.5 73.5t-59 48.5t-91 19.5q-58 0 -99.5 -22
t-64.5 -60.5t-33 -83t-10 -98.5q0 -53 3 -91.5t14.5 -84.5t32 -75t59 -49t92.5 -20z" />
    <glyph glyph-name="zero.old" horiz-adv-x="1289" 
d="M644 -18q-130 0 -234.5 48t-171.5 131t-102.5 192.5t-35.5 235.5v86q0 125 36 235t103 193.5t172 132t235 48.5q171 0 295.5 -82.5t185.5 -217.5t61 -305v-84q0 -127 -35.5 -237.5t-102 -194.5t-171 -132.5t-235.5 -48.5zM648 74q110 0 194 42t134 115t74.5 164t24.5 198
v86q0 103 -26.5 193.5t-78 163t-136 114.5t-192.5 42t-192.5 -42.5t-135 -115.5t-76 -164t-25.5 -195v-82q0 -105 25.5 -196.5t76.5 -164.5t136.5 -115.5t196.5 -42.5z" />
    <glyph glyph-name="zero.oldtab" 
d="M627 -18q-126 0 -223.5 44t-158 122.5t-91.5 181t-31 223.5v162q0 95 19 179t59 156t98 123.5t140.5 81t182.5 29.5q122 0 219 -43.5t158 -120.5t93 -179t32 -222v-160q0 -123 -29.5 -225.5t-88.5 -182.5t-156 -124.5t-223 -44.5zM628 76q85 0 151.5 25.5t110 69.5
t72 106.5t40.5 131.5t12 150v158q0 77 -14 146t-44.5 130t-75.5 105.5t-111.5 70t-148.5 25.5t-148 -26t-110 -70.5t-73.5 -106.5t-42.5 -130.5t-13 -145.5v-162q0 -99 21.5 -182.5t67 -151t123.5 -105.5t183 -38z" />
    <glyph glyph-name="zero.sub" horiz-adv-x="753" 
d="M380 -195q-151 0 -227.5 93.5t-76.5 244.5q0 391 293 391q148 0 226.5 -92t78.5 -241q0 -66 -7.5 -121t-27.5 -107.5t-52.5 -88t-85 -57.5t-121.5 -22zM371 -121q59 0 101 22t65 61t33 84.5t10 100.5q0 51 -3.5 90.5t-16 84t-33.5 73.5t-59 48.5t-91 19.5
q-58 0 -99.5 -22t-64.5 -60.5t-33 -83t-10 -98.5q0 -53 3 -91.5t14.5 -84.5t32 -75t59 -49t92.5 -20z" />
    <glyph glyph-name="zero.sup" horiz-adv-x="753" 
d="M379 860q-151 0 -227 93t-76 245q0 393 292 393q149 0 227.5 -92.5t78.5 -242.5q0 -396 -295 -396zM371 934q59 0 101 22t65 61t33 84.5t10 100.5q0 51 -3.5 90.5t-16 83.5t-33.5 73t-59.5 48.5t-90.5 19.5q-58 0 -99.5 -22t-64.5 -60.5t-33 -83.5t-10 -98t3 -91
t14.5 -84.5t32 -75t59 -48.5t92.5 -20z" />
    <glyph glyph-name="zero.tab" 
d="M624 -16q-115 0 -204.5 37t-145.5 98.5t-92 148.5t-50.5 179.5t-14.5 199.5v170q0 105 14.5 197t50 179t91 149t143 99.5t199.5 37.5t200.5 -37t146 -98.5t96 -147.5t54.5 -178t16 -195v-172q0 -108 -14 -200.5t-49.5 -180.5t-91 -149.5t-144.5 -99t-205 -37.5zM629 84
q75 0 136 24t101.5 67t70 96.5t45.5 119.5t23 129t7 131v172q0 78 -12 153t-41.5 149.5t-73.5 130.5t-113.5 91t-155.5 35q-87 0 -155 -35.5t-110 -92t-69.5 -132.5t-38 -151t-10.5 -154v-170q0 -80 11 -155t39.5 -151t72 -131.5t114 -90.5t159.5 -35z" />
    <glyph glyph-name="one.den" horiz-adv-x="482" 
d="M236 0v616l-184 -118v82l205 135h72v-715h-93z" />
    <glyph glyph-name="one.num" horiz-adv-x="482" 
d="M236 750v616l-184 -117v80l205 135h72v-714h-93z" />
    <glyph glyph-name="one.old" horiz-adv-x="744" 
d="M387 0v1147l-328 -223v100l351 242h88v-1266h-111z" />
    <glyph glyph-name="one.oldtab" 
d="M670 0v1145l-453 -342v102l475 361h88v-1266h-110z" />
    <glyph glyph-name="one.sub" horiz-adv-x="472" 
d="M231 -186v616l-184 -118v82l205 135h72v-715h-93z" />
    <glyph glyph-name="one.sup" horiz-adv-x="472" 
d="M231 868v616l-184 -118v82l205 135h72v-715h-93z" />
    <glyph glyph-name="one.tab" 
d="M670 0v1331l-467 -360v112l485 381h102v-1464h-120z" />
    <glyph glyph-name="two.den" horiz-adv-x="629" 
d="M48 0v27l275 265q32 30 49 47.5t40 47t33.5 60.5t10.5 64q0 65 -40 101.5t-103 36.5q-131 0 -181 -158l-68 29q26 93 91.5 147t160.5 54q94 0 162 -51t68 -141q0 -76 -30 -129.5t-123 -142.5l-193 -185h352v-72h-504z" />
    <glyph glyph-name="two.num" horiz-adv-x="629" 
d="M48 750v28l255 245q38 36 57.5 56.5t45.5 54t38 66t12 67.5q0 62 -39 97t-101 35q-71 0 -116.5 -44.5t-65.5 -114.5l-68 30q26 93 90.5 146.5t160.5 53.5q95 0 162 -51.5t67 -149.5q0 -42 -12 -79t-38.5 -72.5t-48.5 -59t-61 -60.5l-186 -177h352v-71h-504z" />
    <glyph glyph-name="two.old" horiz-adv-x="1095" 
d="M53 0v35l512 446q44 38 68 60.5t64 62t62.5 71.5t46.5 74t35 86.5t11 91.5q0 129 -82.5 198t-212.5 69q-151 0 -238.5 -90.5t-117.5 -243.5l-95 41q39 179 154 281t297 102q112 0 203 -37.5t148 -118.5t57 -193q0 -64 -20.5 -126t-47 -107t-76 -99.5t-83 -85.5t-91.5 -81
l-401 -346h745v-90h-938z" />
    <glyph glyph-name="two.oldtab" 
d="M129 0v35l512 446q44 38 68 60.5t64 62t62.5 71.5t46.5 74t35 86.5t11 91.5q0 129 -82.5 198t-212.5 69q-151 0 -238.5 -90.5t-117.5 -243.5l-95 41q39 179 154 281t297 102q112 0 203 -37.5t148 -118.5t57 -193q0 -64 -20.5 -126t-47 -107t-76 -99.5t-83 -85.5
t-91.5 -81l-401 -346h745v-90h-938z" />
    <glyph glyph-name="two.sub" horiz-adv-x="619" 
d="M43 -186v26l237 227q37 35 59.5 58t52.5 59.5t44.5 73.5t14.5 74q0 61 -40.5 97t-102.5 36q-70 0 -114.5 -44.5t-66.5 -115.5l-68 31q26 92 91.5 146t160.5 54q96 0 163 -53t67 -153q0 -41 -11.5 -77.5t-38 -71.5t-48.5 -58.5t-62 -61.5l-186 -176h352v-71h-504z" />
    <glyph glyph-name="two.sup" horiz-adv-x="619" 
d="M43 868v29l243 231q36 34 50 48t42 45.5t40 52.5t22.5 51t10.5 60q0 64 -39 98t-104 34q-134 0 -181 -156l-68 29q25 93 90 147t162 54q95 0 162.5 -51t67.5 -146q0 -76 -42 -140t-118 -136l-186 -178h352v-72h-504z" />
    <glyph glyph-name="two.tab" 
d="M115 0v39l573 579q112 113 176 223.5t64 240.5q0 145 -83 223.5t-231 78.5q-75 0 -136.5 -26.5t-103.5 -75t-70.5 -107.5t-45.5 -131l-96 41q46 183 161.5 288.5t300.5 105.5q186 0 305.5 -104.5t119.5 -285.5q0 -144 -73.5 -270t-195.5 -248l-473 -473h766v-98h-958z
" />
    <glyph glyph-name="three.den" horiz-adv-x="670" 
d="M62 174l72 31q19 -69 70.5 -106.5t124.5 -37.5q72 0 117.5 36t45.5 109q0 36 -13 62t-32 39.5t-49.5 21t-55.5 9.5t-61 2v63q41 0 70 3.5t60.5 14.5t48 36t16.5 64q0 64 -43 99t-108 35t-109 -35.5t-61 -101.5l-70 31q25 83 91 127.5t155 44.5q95 0 163 -47.5t68 -138.5
q0 -60 -33 -101t-92 -59q64 -12 106.5 -58t42.5 -109q0 -109 -69.5 -162.5t-178.5 -53.5q-101 0 -174 46t-102 136z" />
    <glyph glyph-name="three.num" horiz-adv-x="670" 
d="M62 923l72 30q19 -68 70.5 -105t125.5 -37q72 0 117 35.5t45 108.5q0 37 -13 62.5t-31.5 39t-50 21t-55.5 9t-61 1.5v65q33 0 56 1.5t51.5 8.5t46 19t29.5 35t12 55q0 64 -42.5 98.5t-107.5 34.5t-109 -35t-62 -100l-70 28q25 84 91 128t157 44q94 0 161.5 -46.5
t67.5 -137.5q0 -61 -33 -102.5t-92 -58.5q63 -12 106 -58.5t43 -109.5q0 -107 -70 -161.5t-178 -54.5q-100 0 -173.5 46.5t-102.5 135.5z" />
    <glyph glyph-name="three.old" horiz-adv-x="1156" 
d="M79 174l86 37q41 -157 147.5 -245.5t271.5 -88.5q160 0 260 83t100 242q0 157 -97.5 241.5t-253.5 84.5h-111v88h103q137 0 221 73.5t84 209.5t-84.5 216.5t-224.5 80.5q-265 0 -361 -306l-86 41q49 165 164.5 259t284.5 94q179 0 298.5 -101.5t119.5 -271.5
q0 -125 -68 -213t-186 -119q139 -29 223.5 -130t84.5 -242q0 -103 -37.5 -184t-103.5 -131.5t-151.5 -76.5t-185.5 -26q-185 0 -321.5 103t-176.5 282z" />
    <glyph glyph-name="three.oldtab" 
d="M122 174l86 37q41 -157 147.5 -245.5t271.5 -88.5q160 0 260 83t100 242q0 157 -97.5 241.5t-253.5 84.5h-111v88h103q137 0 221 73.5t84 209.5t-84.5 216.5t-224.5 80.5q-265 0 -361 -306l-86 41q49 165 164.5 259t284.5 94q179 0 298.5 -101.5t119.5 -271.5
q0 -125 -68 -213t-186 -119q139 -29 223.5 -130t84.5 -242q0 -103 -37.5 -184t-103.5 -131.5t-151.5 -76.5t-185.5 -26q-185 0 -321.5 103t-176.5 282z" />
    <glyph glyph-name="three.sub" horiz-adv-x="660" 
d="M57 -13l72 31q19 -69 70.5 -106.5t124.5 -37.5q72 0 117.5 36t45.5 109q0 36 -13 62t-32 39.5t-49.5 21t-55.5 9.5t-61 2v63q41 0 70 3.5t60.5 14.5t48 36t16.5 64q0 64 -43 99t-108 35t-109 -35.5t-61 -101.5l-70 31q25 83 91 127.5t155 44.5q95 0 163 -47.5t68 -138.5
q0 -60 -33 -101t-92 -59q64 -12 106.5 -58t42.5 -109q0 -109 -69.5 -162.5t-178.5 -53.5q-101 0 -174 46t-102 136z" />
    <glyph glyph-name="three.sup" horiz-adv-x="660" 
d="M57 1044l72 31q19 -70 70 -107.5t126 -37.5q72 0 117 36t45 109q0 31 -8 54.5t-25 37.5t-34.5 23t-45 12.5t-47.5 4.5t-51 1v64q42 0 70 3.5t60 14.5t48.5 36.5t16.5 65.5q0 65 -42 98.5t-107 33.5q-66 0 -110 -35t-62 -100l-70 28q26 84 91.5 129t154.5 45
q95 0 163 -48.5t68 -139.5q0 -119 -125 -158q63 -12 106 -58.5t43 -109.5q0 -108 -70 -162.5t-179 -54.5q-100 0 -173 47t-102 137z" />
    <glyph glyph-name="three.tab" 
d="M129 367l96 43q26 -156 128.5 -242t264.5 -86q160 0 256.5 84.5t96.5 250.5q0 78 -24 134.5t-61.5 88.5t-97 50.5t-116.5 23.5t-133 5v90h94q135 0 215 72t80 206q0 135 -82.5 214.5t-221.5 79.5q-138 0 -225.5 -79.5t-120.5 -220.5l-94 41q42 167 159 262t286 95
q179 0 296 -102.5t117 -271.5q0 -124 -65 -215t-178 -118q139 -30 216 -129t77 -244q0 -100 -38 -180t-103.5 -130.5t-150.5 -77.5t-181 -27q-191 0 -326 100.5t-164 282.5z" />
    <glyph glyph-name="four.den" horiz-adv-x="677" 
d="M48 156v34l346 525h119v-492h96v-67h-96v-156h-90v156h-375zM146 223h279v428z" />
    <glyph glyph-name="four.num" horiz-adv-x="677" 
d="M48 905v37l346 522h119v-491h96v-68h-96v-155h-90v155h-375zM146 973h279v428z" />
    <glyph glyph-name="four.old" horiz-adv-x="1228" 
d="M59 137v45l723 1084h154v-1043h205v-86h-205v-334h-111v334h-766zM190 223h637v961z" />
    <glyph glyph-name="four.oldtab" 
d="M86 137v41l700 1088h154v-1043h195v-86h-195v-334h-109v334h-745zM211 223h622v959z" />
    <glyph glyph-name="four.sub" horiz-adv-x="667" 
d="M43 -31v37l346 522h119v-491h96v-68h-96v-155h-90v155h-375zM141 37h279v428z" />
    <glyph glyph-name="four.sup" horiz-adv-x="667" 
d="M43 1026v35l346 522h119v-491h96v-66h-96v-158h-90v158h-375zM141 1092h279v428z" />
    <glyph glyph-name="four.tab" 
d="M96 336v49l711 1079h131v-1034h186v-94h-186v-336h-113v336h-729zM235 430h590v914z" />
    <glyph glyph-name="five.den" horiz-adv-x="642" 
d="M60 156l72 30q42 -125 171 -125q79 0 123 47t44 123t-43.5 124t-120.5 48q-100 0 -156 -73h-55l4 385h422v-72h-350v-242q61 68 170 68q103 0 162 -66t59 -170q0 -114 -69.5 -177.5t-184.5 -63.5q-90 0 -154.5 41t-93.5 123z" />
    <glyph glyph-name="five.num" horiz-adv-x="642" 
d="M60 905l72 33q43 -125 168 -125q79 0 124.5 47.5t45.5 122.5q0 74 -43.5 122t-117.5 48q-100 0 -159 -74h-55l4 385h422v-69h-350v-244q64 68 170 68q102 0 161.5 -65.5t59.5 -168.5q0 -113 -70 -178.5t-184 -65.5q-89 0 -154 41.5t-94 122.5z" />
    <glyph glyph-name="five.old" horiz-adv-x="1136" 
d="M68 131l86 37q44 -136 146 -213.5t245 -77.5q173 0 273 109t100 281q0 168 -95 277t-256 109q-225 0 -358 -161h-55l4 774h796v-92h-706l-2 -572q62 68 155 101.5t192 33.5q202 0 320.5 -130.5t118.5 -336.5q0 -218 -133.5 -349.5t-355.5 -131.5q-169 0 -300.5 91
t-174.5 251z" />
    <glyph glyph-name="five.oldtab" 
d="M121 131l86 37q44 -136 146 -213.5t245 -77.5q173 0 273 109t100 281q0 168 -95 277t-256 109q-225 0 -358 -161h-55l4 774h796v-92h-706l-2 -572q62 68 155 101.5t192 33.5q202 0 320.5 -130.5t118.5 -336.5q0 -218 -133.5 -349.5t-355.5 -131.5q-169 0 -300.5 91
t-174.5 251z" />
    <glyph glyph-name="five.sub" horiz-adv-x="632" 
d="M55 -30l72 31q41 -125 170 -125q79 0 123.5 47t44.5 122t-43.5 123.5t-118.5 48.5q-100 0 -158 -74h-55l4 385h422v-71h-350v-242q64 68 170 68q103 0 162 -66t59 -169q0 -113 -70 -178t-184 -65q-89 0 -155 41.5t-93 123.5z" />
    <glyph glyph-name="five.sup" horiz-adv-x="632" 
d="M55 1026l72 31q43 -125 169 -125q79 0 124 47t45 122q0 74 -43.5 122.5t-117.5 48.5q-100 0 -159 -74h-55l4 385h422v-72h-350v-239q60 65 166 65q105 0 165 -65t60 -169q0 -113 -69 -178t-183 -65q-90 0 -156.5 42t-93.5 124z" />
    <glyph glyph-name="five.tab" 
d="M127 357l102 19q21 -140 120.5 -216t247.5 -76q176 0 274 106t98 286q0 160 -99 269t-258 109q-219 0 -352 -162h-57l4 772h803v-96h-707l-2 -559q65 70 155.5 105.5t189.5 35.5q201 0 320 -136.5t119 -344.5q0 -218 -132 -351.5t-350 -133.5q-187 0 -321.5 98.5
t-154.5 274.5z" />
    <glyph glyph-name="six.den" horiz-adv-x="695" 
d="M595 582l-68 -29q-18 49 -59 74.5t-97 25.5q-59 0 -100 -28.5t-60.5 -77.5t-27.5 -98t-8 -107q47 111 236 111q88 0 146 -68.5t58 -163.5q0 -106 -75 -167.5t-191 -61.5q-136 0 -200 85.5t-64 227.5q0 416 287 416q74 0 136 -36.5t87 -102.5zM353 60q77 0 124.5 46.5
t47.5 124.5q0 75 -45 118.5t-121 43.5q-77 0 -126.5 -44.5t-49.5 -121.5q0 -74 46.5 -120.5t123.5 -46.5z" />
    <glyph glyph-name="six.num" horiz-adv-x="695" 
d="M595 1331l-68 -28q-18 49 -59 74.5t-97 25.5q-47 0 -83.5 -20t-57 -50.5t-33.5 -73.5t-17.5 -82.5t-4.5 -84.5q26 58 83.5 85t124.5 27q105 0 168.5 -62t63.5 -164q0 -111 -75 -174t-192 -63q-136 0 -199.5 86t-63.5 230q0 413 281 413q81 0 142 -35t87 -104zM352 811
q77 0 125 46t48 124q0 75 -44.5 119.5t-120.5 44.5q-77 0 -127 -45.5t-50 -123.5q0 -75 46 -120t123 -45z" />
    <glyph glyph-name="six.old" horiz-adv-x="1191" 
d="M1044 1198l-83 -37q-76 230 -322 230q-97 0 -173 -39t-121.5 -100.5t-74.5 -146.5t-40 -167.5t-11 -173.5v-127q43 120 155.5 190t243.5 70q220 0 349 -120t129 -339q0 -206 -139 -331t-347 -125q-127 0 -224 43.5t-157 121.5t-90 180.5t-30 225.5v188q0 114 15 215
t53.5 199t98 168t155.5 113t220 43q140 0 247 -75t146 -206zM609 70q166 0 270 104t104 270q0 177 -99.5 275t-277.5 98q-159 0 -268 -99.5t-109 -256.5q0 -173 104.5 -282t275.5 -109z" />
    <glyph glyph-name="six.oldtab" 
d="M1082 1198l-83 -37q-76 230 -322 230q-97 0 -173 -39t-121.5 -100.5t-74.5 -146.5t-40 -167.5t-11 -173.5v-127q43 120 155.5 190t243.5 70q220 0 349 -120t129 -339q0 -206 -139 -331t-347 -125q-127 0 -224 43.5t-157 121.5t-90 180.5t-30 225.5v188q0 114 15 215
t53.5 199t98 168t155.5 113t220 43q140 0 247 -75t146 -206zM647 70q166 0 270 104t104 270q0 177 -99.5 275t-277.5 98q-159 0 -268 -99.5t-109 -256.5q0 -173 104.5 -282t275.5 -109z" />
    <glyph glyph-name="six.sub" horiz-adv-x="685" 
d="M590 395l-68 -28q-18 49 -59 74.5t-97 25.5q-59 0 -100 -28.5t-60.5 -78t-27.5 -98.5t-8 -106q47 110 236 110q88 0 146 -67t58 -156q0 -113 -73.5 -175.5t-190.5 -62.5q-137 0 -201.5 85.5t-64.5 228.5q0 416 280 416q82 0 143 -35t87 -105zM347 -127q77 0 125 46.5
t48 124.5q0 75 -45 119t-120 44q-77 0 -127 -45t-50 -123q0 -74 46 -120t123 -46z" />
    <glyph glyph-name="six.sup" horiz-adv-x="685" 
d="M590 1449l-68 -28q-18 48 -59 74t-97 26q-59 0 -100 -28.5t-60.5 -78t-27.5 -98.5t-8 -106q26 59 83 86t124 27q106 0 169.5 -62t63.5 -165q0 -111 -74.5 -173.5t-191.5 -62.5q-137 0 -200.5 86t-63.5 230q0 415 277 415q83 0 145 -36t88 -106zM347 930q77 0 125 46
t48 124q0 75 -44.5 119.5t-120.5 44.5q-77 0 -127 -45.5t-50 -123.5q0 -75 46 -120t123 -45z" />
    <glyph glyph-name="six.tab" 
d="M1092 1189l-93 -40q-34 115 -116.5 174.5t-204.5 59.5q-67 0 -122.5 -15.5t-96.5 -40t-74 -64.5t-54.5 -80.5t-37 -96.5t-23.5 -103t-13 -110.5t-6 -109t-1 -106.5q47 134 159.5 200.5t258.5 66.5q211 0 339 -128t128 -333q0 -216 -139 -347.5t-353 -131.5
q-104 0 -188.5 29.5t-143.5 81.5t-99 125.5t-58.5 160t-18.5 186.5v230q0 105 19 202t61.5 185.5t104.5 153t154.5 103t205.5 38.5q155 0 261.5 -72.5t150.5 -217.5zM640 80q170 0 275 105t105 274q0 179 -101 277t-280 98q-161 0 -270 -99.5t-109 -259.5q0 -177 103 -286
t277 -109z" />
    <glyph glyph-name="seven.den" horiz-adv-x="603" 
d="M165 0l276 639h-397v76h506v-39l-291 -676h-94z" />
    <glyph glyph-name="seven.num" horiz-adv-x="601" 
d="M165 750l276 639h-397v76h506v-39l-291 -676h-94z" />
    <glyph glyph-name="seven.old" horiz-adv-x="1027" 
d="M279 -197l565 1371h-787v92h926v-43l-588 -1420h-116z" />
    <glyph glyph-name="seven.oldtab" 
d="M383 -197l575 1371h-790v92h921v-47l-589 -1416h-117z" />
    <glyph glyph-name="seven.sub" horiz-adv-x="593" 
d="M160 -186l276 639h-397v76h506v-39l-291 -676h-94z" />
    <glyph glyph-name="seven.sup" horiz-adv-x="593" 
d="M160 868l276 639h-397v76h506v-39l-291 -676h-94z" />
    <glyph glyph-name="seven.tab" 
d="M395 0l563 1364h-796v100h940v-49l-582 -1415h-125z" />
    <glyph glyph-name="eight.den" horiz-adv-x="691" 
d="M240 381q-61 18 -98 58.5t-37 99.5q0 44 22.5 80t58.5 57.5t77 33t83 11.5q57 0 108.5 -18.5t88.5 -61.5t37 -103q0 -58 -33.5 -98.5t-92.5 -58.5q72 -16 114.5 -63.5t42.5 -124.5q0 -104 -75 -152.5t-187 -48.5q-53 0 -99.5 11t-86 33.5t-63 62.5t-23.5 94q0 75 44 122
t119 66zM195 534q0 -58 47.5 -91t109.5 -33q60 0 101 31t41 89q0 60 -44 92t-104 32t-105.5 -32t-45.5 -88zM167 200q0 -70 53 -105.5t129 -35.5q74 0 123 35.5t49 106.5q0 72 -50 109.5t-122 37.5q-73 0 -127.5 -38.5t-54.5 -109.5z" />
    <glyph glyph-name="eight.num" horiz-adv-x="691" 
d="M240 1130q-135 47 -135 160q0 58 38.5 100.5t91.5 61t111 18.5t109 -18t88 -60t37 -102q0 -59 -34 -99.5t-92 -60.5q73 -16 115 -63t42 -123q0 -71 -39 -118t-95.5 -66t-126.5 -19q-52 0 -99 11.5t-87 34.5t-63.5 63.5t-23.5 94.5q0 74 43.5 120.5t119.5 64.5zM195 1286
q0 -59 47 -93t109 -34q60 0 101.5 32.5t41.5 91.5q0 60 -43.5 91t-104.5 31t-106 -31t-45 -88zM167 950q0 -70 52.5 -104.5t129.5 -34.5q75 0 123.5 34.5t48.5 105.5q0 73 -50.5 111t-121.5 38q-73 0 -127.5 -39t-54.5 -111z" />
    <glyph glyph-name="eight.old" horiz-adv-x="1179" 
d="M430 780q-124 38 -197 122t-73 208q0 113 62.5 199t158 128t205.5 42t207 -42t161 -128.5t64 -200.5q0 -121 -71.5 -206.5t-193.5 -121.5q148 -34 238 -131t90 -243q0 -83 -26.5 -153t-72.5 -119t-108.5 -83t-134.5 -50.5t-151 -16.5q-98 0 -185.5 26t-156.5 76
t-109.5 131.5t-40.5 183.5q0 146 93 246t241 133zM266 1111q0 -133 98.5 -213.5t236.5 -80.5q133 0 220 78.5t87 214.5q0 128 -95.5 205.5t-227.5 77.5t-225.5 -77t-93.5 -205zM209 400q0 -104 52.5 -179t137.5 -111t193 -36q165 0 272 87t107 251q0 103 -55 178t-139 110
t-185 35q-75 0 -143 -21.5t-122 -62t-86 -105.5t-32 -146z" />
    <glyph glyph-name="eight.oldtab" 
d="M469 780q-124 37 -195 120t-71 206q0 85 35.5 157t94 118.5t134 72t156.5 25.5t156 -25.5t134.5 -72.5t95 -118.5t35.5 -157.5q0 -121 -69 -206t-191 -119q148 -33 236 -131.5t88 -251.5q0 -99 -39 -179t-106 -130.5t-153.5 -77t-184.5 -26.5q-132 0 -240.5 44.5
t-177 138.5t-68.5 224q0 154 91 255t239 134zM307 1109q0 -132 95.5 -212t231.5 -80q133 0 219.5 77.5t86.5 206.5q0 134 -93.5 213t-225.5 79t-223 -77.5t-91 -206.5zM248 399q0 -154 107 -239.5t272 -85.5q164 0 268 87t104 251q0 102 -52.5 177t-135.5 110.5t-183 35.5
q-75 0 -142.5 -21.5t-121 -62.5t-85 -106t-31.5 -146z" />
    <glyph glyph-name="eight.sub" horiz-adv-x="681" 
d="M235 195q-61 18 -98 59t-37 100t38.5 101.5t92 61t110.5 18.5t108.5 -18.5t88.5 -61t37 -102.5q0 -59 -33.5 -99.5t-92.5 -58.5q73 -16 115 -63.5t42 -123.5q0 -71 -39 -118t-95.5 -66t-127.5 -19q-52 0 -98.5 11t-86.5 34.5t-63.5 64.5t-23.5 95q0 139 163 185zM190 348
q0 -58 47 -91.5t109 -33.5q60 0 101.5 32t41.5 90q0 60 -43.5 92t-103.5 32q-61 0 -106.5 -32t-45.5 -89zM162 12q0 -70 52.5 -104.5t128.5 -34.5t124.5 34.5t48.5 106.5q0 73 -50 110.5t-121 37.5q-74 0 -128.5 -39t-54.5 -111z" />
    <glyph glyph-name="eight.sup" horiz-adv-x="681" 
d="M235 1249q-60 19 -97.5 60.5t-37.5 101.5q0 86 74 133t167 47q58 0 109.5 -18.5t88 -61t36.5 -102.5q0 -59 -34 -99.5t-92 -60.5q73 -16 115 -63t42 -123q0 -71 -39 -118t-95.5 -66t-126.5 -19q-52 0 -99 11.5t-87 34.5t-63.5 63.5t-23.5 94.5q0 74 43.5 120.5
t119.5 64.5zM190 1403q0 -59 46.5 -92t109.5 -33q61 0 102 32t41 91q0 61 -43.5 92t-104.5 31t-106 -31.5t-45 -89.5zM162 1068q0 -69 52.5 -103.5t129.5 -34.5q75 0 123.5 34t48.5 105q0 73 -50.5 111.5t-121.5 38.5q-72 0 -127 -39.5t-55 -111.5z" />
    <glyph glyph-name="eight.tab" 
d="M470 788q-125 34 -200 117t-75 207q0 113 63.5 198.5t159.5 127t206 41.5q81 0 157.5 -24.5t137.5 -70t97.5 -116.5t36.5 -158q0 -122 -70.5 -204.5t-194.5 -117.5q149 -33 238.5 -131t89.5 -247q0 -84 -25.5 -154.5t-71 -120t-107 -84t-134 -51t-152.5 -16.5
q-100 0 -188 26.5t-157 77t-109.5 133t-40.5 185.5q0 148 94.5 248.5t244.5 133.5zM306 1111q0 -88 47.5 -154t122 -98t161.5 -32q131 0 218 73.5t87 201.5q0 133 -93 208.5t-225 75.5t-225 -73.5t-93 -201.5zM248 414q0 -161 107 -246.5t274 -85.5q165 0 267.5 85
t102.5 249q0 152 -106.5 238.5t-262.5 86.5q-74 0 -142.5 -21.5t-122 -61.5t-85.5 -103.5t-32 -140.5z" />
    <glyph glyph-name="nine.den" horiz-adv-x="693" 
d="M87 142l72 30q16 -55 60.5 -82.5t107.5 -27.5q51 0 88 19.5t56 47.5t30 73.5t13.5 81.5t2.5 87q-55 -112 -202 -112q-105 0 -171.5 60.5t-66.5 165.5q0 111 75 174.5t189 63.5q133 0 200.5 -85.5t67.5 -223.5q0 -51 -2 -89t-8.5 -84.5t-18 -80t-32.5 -67t-50.5 -54.5
t-72.5 -34t-97 -13q-82 0 -150 38t-91 112zM169 484q0 -75 45.5 -120t120.5 -45t124.5 45t49.5 123q0 74 -46 120t-123 46t-124 -46t-47 -123z" />
    <glyph glyph-name="nine.num" horiz-adv-x="693" 
d="M87 891l72 31q16 -56 60.5 -83.5t106.5 -27.5q52 0 88.5 19.5t56 47.5t30.5 73t13.5 81t2.5 88q-29 -65 -88.5 -87.5t-143.5 -22.5q-89 0 -148.5 67.5t-59.5 162.5q0 106 76 169.5t190 63.5q132 0 199 -86.5t67 -224.5q0 -50 -2 -88.5t-8.5 -84.5t-18.5 -79.5t-33 -67
t-50 -54.5t-72 -34t-97 -13q-81 0 -149.5 38.5t-91.5 111.5zM169 1230q0 -74 45 -116.5t120 -42.5q77 0 126 44t49 120q0 74 -46.5 121t-122.5 47t-123.5 -47.5t-47.5 -125.5z" />
    <glyph glyph-name="nine.old" horiz-adv-x="1191" 
d="M117 90l89 39q36 -110 138.5 -181t219.5 -71q405 0 405 612v142q-41 -122 -152.5 -192t-244.5 -70q-218 0 -348 121t-130 337q0 137 65 242t174.5 160t245.5 55q103 0 186.5 -28.5t142 -80t97.5 -123.5t57.5 -158t18.5 -185v-197q0 -114 -13 -212t-48.5 -195.5t-92 -165
t-150.5 -110t-217 -42.5q-145 0 -272 84.5t-171 218.5zM206 814q0 -170 101 -266.5t276 -96.5q159 0 267 100.5t108 259.5q0 174 -102.5 279.5t-273.5 105.5q-170 0 -273 -104.5t-103 -277.5z" />
    <glyph glyph-name="nine.oldtab" 
d="M154 90l86 39q36 -109 136.5 -180.5t215.5 -71.5q62 0 114 15t90 38.5t68.5 63t50 77.5t33.5 92.5t21.5 99t11.5 106t5 103t1 101.5v58q-37 -121 -147.5 -191.5t-241.5 -70.5q-217 0 -341 120.5t-124 336.5q0 205 132.5 331.5t338.5 126.5q128 0 224.5 -44.5t154.5 -124
t86.5 -182t28.5 -225.5v-196q0 -112 -12.5 -208.5t-47 -194.5t-89.5 -167t-147.5 -112t-213.5 -43q-142 0 -267 85t-167 218zM238 813q0 -168 99 -264t273 -96q159 0 265 99.5t106 257.5q0 172 -100 278t-270 106q-169 0 -271 -104.5t-102 -276.5z" />
    <glyph glyph-name="nine.sub" horiz-adv-x="683" 
d="M82 -45l72 29q16 -55 60.5 -82t106.5 -27q52 0 88.5 19.5t56 47.5t30.5 73.5t13.5 81.5t2.5 87q-56 -111 -202 -111q-105 0 -171.5 60t-66.5 164q0 112 75.5 176t189.5 64q133 0 200 -86t67 -224q0 -51 -2 -89t-8.5 -84.5t-18.5 -80t-33 -67t-50 -54.5t-72 -34t-97 -13
q-81 0 -149.5 38.5t-91.5 111.5zM164 296q0 -75 45 -119t120 -44q76 0 125.5 45t49.5 123q0 74 -45.5 120t-122.5 46t-124.5 -46.5t-47.5 -124.5z" />
    <glyph glyph-name="nine.sup" horiz-adv-x="683" 
d="M82 1012l72 28q16 -55 61 -82.5t107 -27.5q51 0 88 19.5t56 47.5t30 73.5t13.5 81.5t2.5 87q-23 -51 -76 -81t-111 -30q-112 0 -182.5 57.5t-70.5 166.5q0 113 74.5 176t188.5 63q134 0 201.5 -85t67.5 -222q0 -51 -2 -89t-8.5 -85t-18 -80.5t-32.5 -67.5t-50 -55
t-72.5 -34t-97.5 -13q-82 0 -150 39t-91 113zM164 1351q0 -75 44.5 -118t120.5 -43q77 0 126 44t49 121q0 75 -46.5 122t-122.5 47q-75 0 -123 -47.5t-48 -125.5z" />
    <glyph glyph-name="nine.tab" 
d="M143 292l90 39q76 -250 363 -250q60 0 110.5 11.5t88.5 31.5t68.5 50.5t51.5 64.5t36.5 78t24.5 86t14.5 94t7 96.5t1.5 98.5v103q-46 -122 -163.5 -188t-255.5 -66q-218 0 -342.5 126.5t-124.5 344.5q0 210 139.5 339.5t351.5 129.5q128 0 227 -44t160 -122.5t92 -182
t31 -227.5v-217q0 -83 -6 -154.5t-22.5 -144.5t-42 -131.5t-66.5 -111t-95 -87.5t-128.5 -55t-165.5 -20q-164 0 -283.5 78t-161.5 230zM590 629q108 0 198.5 41.5t146.5 122.5t56 186q0 179 -105 292t-282 113q-170 0 -274.5 -105.5t-104.5 -279.5q0 -169 99 -269.5
t266 -100.5z" />
    <glyph glyph-name="colon.alt" horiz-adv-x="617" 
d="M226 1069q0 32 24.5 56t58.5 24q32 0 55.5 -23t23.5 -57q0 -33 -23.5 -56.5t-56.5 -23.5q-34 0 -58 24t-24 56zM308 180q-34 0 -58 24t-24 56t24.5 56t57.5 24q32 0 56 -23t24 -57t-23.5 -57t-56.5 -23z" />
    <glyph glyph-name="colon.tab" horiz-adv-x="617" 
d="M233 1168q0 33 23.5 56.5t56.5 23.5q34 0 57 -23t23 -57t-23 -57t-57 -23q-33 0 -56.5 23.5t-23.5 56.5zM314 179q-34 0 -57.5 23.5t-23.5 57.5q0 33 23.5 56t56.5 23t56.5 -23t23.5 -57t-22.5 -57t-56.5 -23z" />
    <glyph glyph-name="semicolon.tab" horiz-adv-x="617" 
d="M320 676q-35 0 -57.5 23.5t-22.5 56.5t23 56.5t58 23.5q33 0 54.5 -22t21.5 -58q0 -35 -22 -57.5t-55 -22.5zM135 -201l139 357l109 -43l-172 -346z" />
    <glyph glyph-name="less.tab" 
d="M211 678v29l805 444v-107l-647 -352l647 -354v-105z" />
    <glyph glyph-name="equal.tab" 
d="M197 815v88h847v-88h-847zM197 459v88h847v-88h-847z" />
    <glyph glyph-name="greater.tab" 
d="M227 229v107l647 352l-647 354v105l805 -445v-26z" />
    <glyph glyph-name="at.uc" horiz-adv-x="1840" 
d="M1502 170l67 -29q-100 -134 -275 -201t-364 -67q-176 0 -329 59t-262.5 164t-172 257t-62.5 331q0 172 67.5 330t181 273t271 183t330.5 68q162 0 305 -50.5t249.5 -142.5t168.5 -230t62 -304q0 -70 -10 -136.5t-36 -134t-64.5 -118t-100.5 -82t-140 -31.5
q-103 0 -164 54t-67 159q-40 -97 -123.5 -162t-183.5 -65q-150 0 -231.5 97.5t-81.5 249.5q0 114 43.5 218.5t131.5 175t201 70.5q102 0 177 -54.5t94 -148.5l18 184h101l-56 -471q-4 -40 -4 -62q0 -81 37.5 -128t117.5 -47q51 0 93 20t69.5 55.5t47 77.5t30 92.5t15 94.5
t4.5 88q0 154 -53.5 279.5t-148 207.5t-223 126t-278.5 44q-213 0 -390 -104.5t-277.5 -283.5t-100.5 -392q0 -219 95.5 -387t267.5 -259t394 -91q164 0 311.5 54t247.5 169zM863 375q92 0 162.5 60t104 145t33.5 174q0 114 -59 193t-169 79q-71 0 -129.5 -35.5t-94 -92
t-55 -122t-19.5 -130.5q0 -115 58.5 -193t167.5 -78z" />
    <glyph glyph-name="bracketleft.tab" horiz-adv-x="617" 
d="M147 -303v1892l385 2v-86h-279v-1720h279v-88h-385z" />
    <glyph glyph-name="bracketleft.uc" horiz-adv-x="714" 
d="M195 -174v1778h426v-91h-318v-1603h318v-84h-426z" />
    <glyph glyph-name="backslash.uc" horiz-adv-x="812" 
d="M643 -172l-563 1776h96l561 -1776h-94z" />
    <glyph glyph-name="bracketright.tab" horiz-adv-x="617" 
d="M84 -303v88h276v1720h-276v86h383v-1894h-383z" />
    <glyph glyph-name="bracketright.uc" horiz-adv-x="714" 
d="M88 -174v84h318v1603h-318v91h426v-1778h-426z" />
    <glyph glyph-name="grave.uc" horiz-adv-x="834" 
d="M379 1577l-170 252h123l135 -252h-88z" />
    </font>
</defs>
</svg>
