<?xml version="1.0" standalone="no"?>
<!DOCTYPE svg PUBLIC "-//W3C//DTD SVG 1.1//EN" "http://www.w3.org/Graphics/SVG/1.1/DTD/svg11.dtd" >
<svg xmlns="http://www.w3.org/2000/svg" xmlns:xlink="http://www.w3.org/1999/xlink" version="1.1">
<metadata>
Created by FontForge 20201107 at Mon Nov 22 05:29:52 2021
 By 
(c) 2021 Zoho Corporation Pvt. Ltd. All rights reserved.
</metadata>
<defs>
<font id="ZohoPuvi-Regular" horiz-adv-x="1231" >
  <font-face 
    font-family="Zoho Puvi"
    font-weight="400"
    font-stretch="normal"
    units-per-em="2048"
    panose-1="2 1 5 3 2 2 1 1 2 4"
    ascent="1638"
    descent="-410"
    x-height="1071"
    cap-height="1464"
    bbox="-476 -453 2350 2279"
    underline-thickness="164"
    underline-position="-205"
    unicode-range="U+000D-FB02"
  />
<missing-glyph horiz-adv-x="956" 
 />
    <glyph glyph-name=".notdef" horiz-adv-x="956" 
 />
    <glyph glyph-name="uni0000" horiz-adv-x="0" 
 />
    <glyph glyph-name="uni0000" horiz-adv-x="0" 
 />
    <glyph glyph-name="uni000D" unicode="&#xd;" horiz-adv-x="512" 
 />
    <glyph glyph-name="space" unicode=" " horiz-adv-x="415" 
 />
    <glyph glyph-name="exclam" unicode="!" horiz-adv-x="685" 
d="M278 414l-28 1050h188l-29 -1050h-131zM211 121q0 55 37.5 93t91.5 38q55 0 94 -39t39 -94q0 -54 -38.5 -91.5t-94.5 -37.5q-55 0 -92 37.5t-37 93.5z" />
    <glyph glyph-name="quotedbl" unicode="&#x22;" horiz-adv-x="867" 
d="M538 963l-30 501h184l-31 -501h-123zM205 963l-31 501h184l-30 -501h-123z" />
    <glyph glyph-name="numbersign" unicode="#" horiz-adv-x="1105" 
d="M180 0l62 455h-175v144h195l37 269h-174v144h192l62 452h139l-61 -452h260l61 452h139l-61 -452h180v-144h-199l-36 -269h178v-144h-199l-61 -455h-140l62 455h-260l-62 -455h-139zM401 599h260l37 269h-260z" />
    <glyph glyph-name="dollar" unicode="$" horiz-adv-x="1287" 
d="M579 -276v260q-164 12 -297.5 123.5t-183.5 270.5l141 61q24 -81 69 -149t117 -115.5t154 -50.5v569q-73 13 -131.5 31t-116.5 49.5t-97 72.5t-63 102t-24 137q0 114 63.5 203.5t160 137t208.5 55.5v184h121v-186q158 -14 269.5 -100.5t158.5 -235.5l-131 -56
q-28 106 -107.5 173.5t-189.5 78.5v-512q79 -11 142.5 -28.5t124 -49.5t101 -76t65 -110t24.5 -148q0 -93 -37.5 -172.5t-101.5 -133.5t-146 -86.5t-172 -38.5v-260h-121zM579 848v493q-112 -8 -191 -70t-79 -169q0 -51 14.5 -90.5t37.5 -65t60 -45.5t72.5 -31t85.5 -22z
M700 673v-549q118 13 202.5 88t84.5 190q0 55 -15 97t-39 69.5t-63.5 48.5t-77 32.5t-92.5 23.5z" />
    <glyph glyph-name="percent" unicode="%" horiz-adv-x="1619" 
d="M412 784q-137 0 -236.5 103t-99.5 243q0 138 98 242.5t238 104.5q139 0 237.5 -104t98.5 -243t-99 -242.5t-237 -103.5zM283 0l894 1464h156l-895 -1464h-155zM412 918q92 0 136 58t44 152q0 96 -44.5 155.5t-135.5 59.5t-135.5 -60.5t-44.5 -154.5q0 -95 44 -152.5
t136 -57.5zM1206 -16q-138 0 -237 102.5t-99 241.5t98.5 244t237.5 105t237.5 -103.5t98.5 -242.5q0 -140 -98.5 -243.5t-237.5 -103.5zM1206 118q93 0 136.5 57.5t43.5 151.5q0 96 -44.5 156t-135.5 60t-135.5 -60.5t-44.5 -156.5q0 -93 44 -150.5t136 -57.5z" />
    <glyph glyph-name="ampersand" unicode="&#x26;" horiz-adv-x="1504" 
d="M1032 420l205 336l131 -58l-240 -397l246 -301h-207l-145 176q-165 -190 -406 -190q-123 0 -226.5 45t-170 139t-66.5 221q0 276 336 436q-129 162 -129 316q0 147 103 238.5t256 91.5q133 0 226 -86t93 -222q0 -237 -313 -372zM651 887q111 50 169 115t58 174
q0 73 -46 118t-119 45q-94 0 -141.5 -54t-47.5 -150q0 -42 19 -87t38 -71.5t55 -71.5zM934 285l-365 444q-117 -59 -180.5 -135t-63.5 -195q0 -133 80 -203.5t217 -70.5q179 0 312 160z" />
    <glyph glyph-name="quotesingle" unicode="'" horiz-adv-x="533" 
d="M205 963l-31 501h184l-30 -501h-123z" />
    <glyph glyph-name="parenleft" unicode="(" horiz-adv-x="631" 
d="M614 -303h-170q-360 429 -360 942q0 520 360 944h170q-352 -428 -352 -942q0 -521 352 -944z" />
    <glyph glyph-name="parenright" unicode=")" horiz-adv-x="610" 
d="M186 -297h-170q332 411 332 947q0 535 -332 939h170q340 -414 340 -944q0 -526 -340 -942z" />
    <glyph glyph-name="asterisk" unicode="*" horiz-adv-x="963" 
d="M217 922l170 227l-252 59l45 138l242 -99l-15 275h150l-14 -275l239 99l45 -138l-254 -59l170 -227l-114 -84l-152 245l-143 -245z" />
    <glyph glyph-name="plus" unicode="+" horiz-adv-x="1076" 
d="M463 215v414h-383v143h383v414h149v-414h383v-143h-383v-414h-149z" />
    <glyph glyph-name="comma" unicode="," horiz-adv-x="562" 
d="M100 -195l196 449l166 -78l-252 -428z" />
    <glyph glyph-name="hyphen" unicode="-" horiz-adv-x="635" 
d="M98 483v160h438v-160h-438z" />
    <glyph glyph-name="period" unicode="." horiz-adv-x="676" 
d="M207 121q0 55 37.5 93t91.5 38q55 0 94 -39t39 -94q0 -53 -38 -91t-93 -38q-56 0 -93.5 38t-37.5 93z" />
    <glyph glyph-name="slash" unicode="/" horiz-adv-x="754" 
d="M-26 -303l598 1900h156l-596 -1900h-158z" />
    <glyph glyph-name="zero" unicode="0" horiz-adv-x="1408" 
d="M709 -18q-134 0 -238 47t-167 122t-103.5 181t-56 212.5t-15.5 227.5q0 111 20.5 213t66 193.5t111.5 159.5t163 107.5t214 39.5q122 0 219.5 -39.5t161 -105.5t106 -158.5t62 -191.5t22.5 -212q4 -118 -9.5 -226.5t-53 -214.5t-103 -183t-166 -124.5t-234.5 -47.5z
M714 129q75 0 134.5 22.5t99 57.5t68 90.5t43.5 107.5t24 123.5t11 124.5t2 123q0 79 -11.5 154.5t-40.5 151t-72 131.5t-111.5 91t-154.5 35q-95 0 -167 -36t-114 -92t-68.5 -136t-35.5 -156.5t-9 -164.5q0 -67 3.5 -123.5t14.5 -122.5t29 -118.5t48.5 -103t72 -84.5
t101 -54.5t133.5 -20.5z" />
    <glyph glyph-name="one" unicode="1" horiz-adv-x="830" 
d="M401 0v1309l-327 -213v166l340 223h165v-1485h-178z" />
    <glyph glyph-name="two" unicode="2" horiz-adv-x="1148" 
d="M45 0v74l582 579q210 206 210 423q0 264 -262 264q-247 0 -338 -319l-137 59q52 181 174 293t301 112q196 0 319.5 -108.5t123.5 -297.5q0 -81 -24 -158.5t-68.5 -145.5t-92 -122.5t-110.5 -113.5l-422 -394h725v-145h-981z" />
    <glyph glyph-name="three" unicode="3" horiz-adv-x="1227" 
d="M88 354l141 62q40 -129 129 -210t217 -81q149 0 244.5 69.5t95.5 213.5q0 56 -11.5 99.5t-30 73t-49.5 50.5t-61.5 32.5t-75.5 18.5t-82 8.5t-90 1.5h-20v150h20q56 0 93.5 2.5t84 10t76 24t56.5 43.5t40 70t13 100q0 120 -70.5 183.5t-191.5 63.5q-135 0 -218 -64.5
t-126 -195.5l-131 58q49 165 175.5 256.5t299.5 91.5q113 0 212 -46.5t162 -137t63 -205.5t-63.5 -195.5t-174.5 -124.5q139 -33 211 -127t72 -234q0 -108 -43.5 -193t-117 -136t-164.5 -77.5t-192 -26.5q-173 0 -313.5 103.5t-179.5 268.5z" />
    <glyph glyph-name="four" unicode="4" horiz-adv-x="1277" 
d="M86 328v73l670 1063h237v-991h203v-145h-203v-328h-174v328h-733zM305 473h514v856z" />
    <glyph glyph-name="five" unicode="5" horiz-adv-x="1215" 
d="M104 329l144 59q60 -262 331 -262q153 0 237.5 97.5t84.5 249.5q0 150 -81.5 249t-225.5 99q-219 0 -336 -141h-76v784h823v-153h-675v-447q116 101 295 101q207 0 332.5 -138.5t125.5 -343.5q0 -219 -142.5 -360t-359.5 -141q-119 0 -216 35.5t-168 115.5t-93 196z" />
    <glyph glyph-name="six" unicode="6" horiz-adv-x="1281" 
d="M1136 1204l-151 -65q-33 96 -115 148t-185 52q-72 0 -131.5 -26.5t-100 -73t-70.5 -104.5t-46.5 -125.5t-24 -131t-7.5 -126.5q56 98 157 148t220 50q208 0 343.5 -137t135.5 -349q0 -215 -142.5 -348.5t-363.5 -133.5q-105 0 -188.5 26.5t-140 76.5t-96 113.5t-61 145.5
t-31 163t-9.5 175q0 97 12 188t37.5 183.5t70.5 169t106 136t149.5 93t195.5 33.5q319 0 436 -281zM650 121q151 0 240 97t89 250q0 151 -86 247t-234 96q-146 0 -244 -91.5t-98 -232.5q0 -161 88.5 -263.5t244.5 -102.5z" />
    <glyph glyph-name="seven" unicode="7" horiz-adv-x="1088" 
d="M305 0l528 1321h-761v143h964v-73l-549 -1391h-182z" />
    <glyph glyph-name="eight" unicode="8" horiz-adv-x="1256" 
d="M401 795q-107 40 -165 116.5t-58 183.5q0 117 68 208.5t169.5 136.5t211.5 45q82 0 161.5 -27t144 -75t104.5 -122t40 -160q0 -206 -227 -304q134 -48 208 -143t74 -232q0 -102 -42 -186.5t-112.5 -139t-160.5 -84.5t-188 -30q-97 0 -187 29t-161.5 82.5t-114.5 138
t-43 186.5q0 136 73.5 233t204.5 144zM360 1100q0 -111 82 -176.5t201 -65.5q114 0 183 63.5t69 181.5q0 107 -79 174t-189 67t-188.5 -67t-78.5 -177zM305 427q0 -135 95.5 -218t233.5 -83q135 0 225.5 81t90.5 217t-91 214.5t-229 78.5t-231.5 -78t-93.5 -212z" />
    <glyph glyph-name="nine" unicode="9" horiz-adv-x="1283" 
d="M129 295l149 65q40 -111 130 -172t205 -61q89 0 156.5 38.5t106 96.5t63 139t32.5 153.5t8 151.5v5q-59 -96 -160.5 -145.5t-221.5 -49.5q-207 0 -342.5 136.5t-135.5 350.5q0 217 141 349.5t364 132.5q96 0 174 -23t132 -61t94.5 -96t64 -120t38 -141t19.5 -150.5
t5 -156.5q0 -117 -14 -219t-51.5 -203t-96.5 -172.5t-155 -116t-220 -44.5q-110 0 -204.5 32.5t-169.5 104.5t-111 176zM629 655q142 0 237.5 88t95.5 230q0 163 -88 268t-245 105q-150 0 -239 -96.5t-89 -245.5q0 -150 89 -249.5t239 -99.5z" />
    <glyph glyph-name="colon" unicode=":" horiz-adv-x="697" 
d="M346 649q-54 0 -91.5 38t-37.5 93q0 56 37.5 93.5t93.5 37.5q55 0 93 -38t38 -92t-39.5 -93t-93.5 -39zM217 121q0 55 37.5 93t93.5 38q55 0 93 -38t38 -93t-38.5 -93t-94.5 -38q-55 0 -92 37.5t-37 93.5z" />
    <glyph glyph-name="semicolon" unicode=";" horiz-adv-x="697" 
d="M364 649q-53 0 -91 38t-38 93t37.5 93t91.5 38q55 0 94.5 -38t39.5 -91q0 -54 -40 -93.5t-94 -39.5zM92 -195l197 449l166 -78l-252 -428z" />
    <glyph glyph-name="less" unicode="&#x3c;" horiz-adv-x="1045" 
d="M115 639v41l786 455v-164l-539 -312l539 -311v-164z" />
    <glyph glyph-name="equal" unicode="=" horiz-adv-x="1004" 
d="M88 791v147h827v-147h-827zM88 381v147h827v-147h-827z" />
    <glyph glyph-name="greater" unicode="&#x3e;" horiz-adv-x="1045" 
d="M143 184v164l539 311l-539 312v164l787 -455v-41z" />
    <glyph glyph-name="question" unicode="?" horiz-adv-x="1092" 
d="M407 414v102q0 55 15 104t48 95t60.5 77t75.5 78l68 71q94 101 94 200q0 87 -56 143.5t-145 56.5q-60 0 -108.5 -20.5t-83 -59.5t-57.5 -83.5t-42 -102.5l-151 66q58 166 162 254t268 88q168 0 276.5 -87.5t108.5 -243.5q0 -55 -13.5 -101.5t-45 -90t-56.5 -70.5t-75 -74
q-64 -61 -95 -96t-56 -81.5t-32.5 -96.5t-7.5 -128h-152zM348 121q0 55 38 93t93 38q56 0 93.5 -37.5t37.5 -93.5t-37.5 -93.5t-93.5 -37.5t-93.5 37.5t-37.5 93.5z" />
    <glyph glyph-name="at" unicode="@" horiz-adv-x="1881" 
d="M1461 0l127 -57q-201 -244 -645 -244q-244 0 -437.5 106.5t-302 297t-108.5 429.5q0 179 69 341.5t186.5 279.5t279.5 186.5t340 69.5q174 0 325.5 -56.5t259 -156t169 -239t61.5 -300.5q0 -224 -109.5 -372t-275.5 -148q-109 0 -170 45t-66 131q-49 -88 -131 -139
t-174 -51q-152 0 -241 97.5t-89 263.5q0 96 31.5 183t86 150t131.5 100t163 37q87 0 150 -36.5t90 -102.5l14 123h170l-62 -516l-2 -39v-13q0 -110 101 -110q106 0 170.5 107t64.5 281q0 289 -180 457.5t-487 168.5q-205 0 -369 -95t-256 -263.5t-92 -379.5q0 -153 51 -284
t141 -222.5t218.5 -143.5t279.5 -52q331 0 518 166zM894 254q111 0 187.5 97.5t76.5 238.5q0 111 -50.5 170t-140.5 59q-117 0 -190.5 -93t-73.5 -230q0 -113 52 -177.5t139 -64.5z" />
    <glyph glyph-name="A" unicode="A" horiz-adv-x="1403" 
d="M73 0l503 1464h219l511 -1464h-177l-135 401h-618l-135 -401h-168zM423 543h524l-262 759z" />
    <glyph glyph-name="B" unicode="B" horiz-adv-x="1312" 
d="M183 0v1464h482q84 0 152 -11t128.5 -38.5t102 -71t65 -111t23.5 -155.5q0 -115 -56 -194t-166 -115q151 -31 222 -115.5t71 -233.5q0 -110 -37 -192.5t-103.5 -131t-151.5 -72t-189 -23.5h-543zM357 825h308q151 0 224 60t73 207q0 69 -23 116.5t-67 72t-94 34.5
t-117 10h-304v-500zM357 139h365q311 0 311 273q0 65 -17.5 113.5t-47 79t-73.5 49t-91.5 25.5t-106.5 7h-340v-547z" />
    <glyph glyph-name="C" unicode="C" horiz-adv-x="1502" 
d="M1283 477l135 -59q-75 -190 -241 -313t-365 -123q-166 0 -299.5 57.5t-220.5 159t-133.5 239.5t-46.5 301q0 120 31 231.5t91 204.5t142 162.5t191.5 108.5t232.5 39q199 0 366.5 -111.5t237.5 -294.5l-145 -63q-57 149 -178.5 238.5t-278.5 89.5q-103 0 -188 -34
t-143 -92.5t-98 -137t-58.5 -166t-18.5 -181.5q0 -125 33 -233.5t96 -192t164 -132t227 -48.5q153 0 281 100.5t186 249.5z" />
    <glyph glyph-name="D" unicode="D" horiz-adv-x="1463" 
d="M183 0v1464h428q350 0 546 -192t196 -536q0 -349 -200 -542.5t-546 -193.5h-424zM361 145h242q281 0 423 158t142 444q0 572 -567 572h-240v-1174z" />
    <glyph glyph-name="E" unicode="E" horiz-adv-x="1197" 
d="M183 0v1464h895v-145h-717v-498h586v-145h-586v-531h754v-145h-932z" />
    <glyph glyph-name="F" unicode="F" horiz-adv-x="1156" 
d="M183 0v1464h897v-146h-719v-517h570v-146h-570v-655h-178z" />
    <glyph glyph-name="G" unicode="G" horiz-adv-x="1568" 
d="M853 571v148h602v-479q-257 -258 -621 -258q-224 0 -389 98t-249 268t-84 391q0 210 88.5 379.5t252.5 268t374 98.5q203 0 357.5 -93.5t237.5 -272.5l-163 -71q-60 136 -175.5 215t-265.5 79q-120 0 -220.5 -53t-165 -140.5t-100.5 -197t-36 -226.5q0 -127 34.5 -235.5
t100 -190t168.5 -128t233 -46.5q129 0 247.5 45.5t201.5 132.5v268h-428z" />
    <glyph glyph-name="H" unicode="H" horiz-adv-x="1512" 
d="M183 0v1464h178v-663h791v663h178v-1464h-178v651h-791v-651h-178z" />
    <glyph glyph-name="I" unicode="I" horiz-adv-x="564" 
d="M194 0v1464h178v-1464h-178z" />
    <glyph glyph-name="J" unicode="J" horiz-adv-x="857" 
d="M77 20v148q108 -41 193 -41q124 0 181.5 75.5t57.5 203.5v1058h178v-1067q0 -200 -104 -307.5t-306 -107.5q-116 0 -200 38z" />
    <glyph glyph-name="K" unicode="K" horiz-adv-x="1259" 
d="M183 0v1464h178v-704l637 706h199l-651 -712l684 -754h-215l-654 715v-715h-178z" />
    <glyph glyph-name="L" unicode="L" horiz-adv-x="1113" 
d="M183 0v1464h178v-1319h691v-145h-869z" />
    <glyph glyph-name="M" unicode="M" horiz-adv-x="1791" 
d="M183 0v1464h248l469 -1161l463 1161h246v-1464h-178v1233l-496 -1233h-76l-512 1233v-1233h-164z" />
    <glyph glyph-name="N" unicode="N" horiz-adv-x="1500" 
d="M183 0v1464h232l733 -1210v1210h170v-1464h-205l-760 1255v-1255h-170z" />
    <glyph glyph-name="O" unicode="O" horiz-adv-x="1658" 
d="M832 -18q-157 0 -292.5 59t-228.5 160t-146 239.5t-53 293.5q0 210 91 381t257.5 270.5t375.5 99.5q158 0 292.5 -59t225.5 -161t142 -239t51 -292q0 -209 -88.5 -380t-253 -271.5t-373.5 -100.5zM837 129q131 0 233.5 49.5t165 136t95 195.5t32.5 235q0 162 -60 295.5
t-182.5 217t-287.5 83.5q-134 0 -238.5 -48t-168.5 -133t-97 -195t-33 -240q0 -160 64.5 -294.5t189.5 -218t287 -83.5z" />
    <glyph glyph-name="P" unicode="P" horiz-adv-x="1228" 
d="M183 0v1464h457q87 0 162 -15.5t140 -49.5t111.5 -85t72.5 -126t26 -168q0 -64 -12.5 -117t-33.5 -93.5t-54.5 -73t-69.5 -54.5t-84 -38.5t-93.5 -25.5t-102.5 -15t-105.5 -7.5t-108.5 -1.5l-127 2v-596h-178zM361 737h291q322 0 322 296q0 154 -83 221t-239 67h-291
v-584z" />
    <glyph glyph-name="Q" unicode="Q" horiz-adv-x="1658" 
d="M1273 127l184 -205l-108 -104l-205 229q-139 -65 -307 -65q-212 0 -378.5 101t-256.5 272t-90 379q0 157 53.5 295.5t148 238.5t230.5 158.5t294 58.5q211 0 374 -101.5t249 -272.5t86 -381q0 -183 -69 -339.5t-205 -263.5zM896 322l109 104l163 -182q195 167 195 501
q0 120 -36 227t-102 189.5t-167.5 131t-224.5 48.5q-134 0 -238.5 -48t-168.5 -133t-97 -195t-33 -240q0 -160 64.5 -294.5t191 -218t290.5 -83.5q107 0 195 37z" />
    <glyph glyph-name="R" unicode="R" horiz-adv-x="1324" 
d="M183 -2v1466h483q84 0 157.5 -13.5t139 -44.5t112.5 -77.5t74.5 -116t27.5 -156.5q0 -169 -97.5 -271t-265.5 -138l449 -649h-199l-435 637h-267v-637h-179zM362 778h316q149 0 234.5 66.5t85.5 211.5q0 75 -24 128t-69 82t-100 42t-127 13h-316v-543z" />
    <glyph glyph-name="S" unicode="S" horiz-adv-x="1271" 
d="M97 378l160 69q47 -152 150.5 -236.5t242.5 -84.5q140 0 235 79t95 197q0 42 -11.5 76.5t-27 58.5t-46.5 45t-55.5 33.5t-69.5 26t-72.5 20t-80.5 17.5q-174 38 -249 71q-168 75 -202 237q-10 45 -10 98q0 169 134.5 284.5t326.5 115.5q172 0 289.5 -84t194.5 -256
l-147 -66q-50 124 -136.5 193t-200.5 69q-135 0 -215 -65.5t-80 -182.5q0 -29 5 -55t16.5 -47t23 -38t33.5 -32t37.5 -26t46 -21.5t47.5 -17t53 -15t52.5 -12t55.5 -11.5q177 -36 254 -70q161 -73 196 -231q10 -46 10 -102q0 -179 -148 -306t-358 -127q-213 0 -347.5 97
t-201.5 299z" />
    <glyph glyph-name="T" unicode="T" horiz-adv-x="1146" 
d="M484 0v1319h-426v145h1031v-145h-426v-1319h-179z" />
    <glyph glyph-name="U" unicode="U" horiz-adv-x="1422" 
d="M171 1464h178v-909q0 -101 16 -174t54.5 -132.5t110.5 -89.5t178 -30q88 0 152.5 21.5t105 59.5t65 96.5t34 124t9.5 151.5v882h178v-907q0 -276 -140.5 -425.5t-414.5 -149.5q-255 0 -390.5 147.5t-135.5 405.5v929z" />
    <glyph glyph-name="V" unicode="V" horiz-adv-x="1324" 
d="M552 0l-492 1464h177l430 -1292l430 1292h168l-500 -1464h-213z" />
    <glyph glyph-name="W" unicode="W" horiz-adv-x="1949" 
d="M470 0l-401 1464h182l315 -1192l353 1192h135l348 -1196l313 1196h166l-391 -1464h-164l-342 1157l-352 -1157h-162z" />
    <glyph glyph-name="X" unicode="X" horiz-adv-x="1342" 
d="M91 0l483 752l-450 712h197l364 -575l363 575h182l-455 -712l477 -752h-200l-391 616l-392 -616h-178z" />
    <glyph glyph-name="Y" unicode="Y" horiz-adv-x="1201" 
d="M525 0v629l-479 835h201l373 -690l358 690h178l-452 -837v-627h-179z" />
    <glyph glyph-name="Z" unicode="Z" horiz-adv-x="1216" 
d="M56 0v74l854 1245h-780v145h1002v-73l-832 -1239h819v-152h-1063z" />
    <glyph glyph-name="bracketleft" unicode="[" horiz-adv-x="688" 
d="M155 -303v1900h469v-129h-299v-1636h299v-135h-469z" />
    <glyph glyph-name="backslash" unicode="\" horiz-adv-x="752" 
d="M621 -303l-596 1900h156l596 -1900h-156z" />
    <glyph glyph-name="bracketright" unicode="]" horiz-adv-x="688" 
d="M65 -303v135h299v1636h-299v129h469v-1900h-469z" />
    <glyph glyph-name="asciicircum" unicode="^" horiz-adv-x="1006" 
d="M86 836l332 628h174l332 -628h-172l-250 483l-248 -483h-168z" />
    <glyph glyph-name="underscore" unicode="_" horiz-adv-x="901" 
d="M45 -324v136h813v-136h-813z" />
    <glyph glyph-name="grave" unicode="`" horiz-adv-x="799" 
d="M354 1255l-212 301h212l127 -301h-127z" />
    <glyph glyph-name="a" unicode="a" horiz-adv-x="1099" 
d="M770 0v135q-56 -75 -146.5 -114t-191.5 -39q-150 0 -251 82.5t-101 230.5q0 53 15 97.5t39 77t62.5 58t75.5 42t90 28t93.5 17.5t98 9.5t92 4t86.5 0.5h38v7q0 75 -10 127.5t-36.5 96.5t-77.5 66t-128 22q-90 0 -165 -51t-103 -135l-145 63q56 130 168 197.5t256 67.5
q183 0 297 -104.5t114 -283.5v-702h-170zM770 508h-147q-50 0 -93.5 -3.5t-97.5 -17t-92 -35t-64 -61.5t-26 -94q0 -180 196 -180q81 0 153.5 28.5t121.5 89t49 140.5v133z" />
    <glyph glyph-name="b" unicode="b" horiz-adv-x="1298" 
d="M168 0v1556h170v-665q57 89 163.5 144t215.5 55q117 0 212 -44t155 -119.5t92 -173.5t32 -210q0 -152 -56 -278t-169 -204.5t-264 -78.5q-119 0 -220.5 49.5t-160.5 145.5v-177h-170zM698 124q93 0 160 33.5t104 94t53.5 132t16.5 159.5q0 79 -20.5 150.5t-60 129
t-105 91.5t-148.5 34q-121 0 -205.5 -58t-122.5 -150t-38 -208q0 -182 95.5 -295t270.5 -113z" />
    <glyph glyph-name="c" unicode="c" horiz-adv-x="1169" 
d="M940 376l148 -64q-62 -159 -188.5 -244.5t-297.5 -85.5q-160 0 -278 75t-177 200.5t-59 283.5q0 152 65 276.5t186 198.5t273 74q328 0 469 -297l-155 -68q-35 99 -126 161t-202 62q-82 0 -147 -36t-105 -96.5t-61 -135t-21 -155.5q0 -112 37.5 -201t118.5 -144.5
t194 -55.5q116 0 203.5 69.5t122.5 182.5z" />
    <glyph glyph-name="d" unicode="d" horiz-adv-x="1298" 
d="M959 0v185q-58 -91 -167.5 -147t-220.5 -56q-118 0 -211.5 43t-152 118.5t-89 174t-30.5 213.5q0 112 34 213t96 178t157.5 122.5t209.5 45.5q118 0 217 -48.5t157 -142.5v657h170v-1556h-170zM596 124q181 0 275 118t94 304q0 117 -36.5 205.5t-117 142.5t-198.5 54
q-94 0 -163.5 -34t-109 -94t-58 -134t-18.5 -163q0 -78 20.5 -148.5t60 -127t104.5 -90t147 -33.5z" />
    <glyph glyph-name="e" unicode="e" horiz-adv-x="1154" 
d="M895 312l158 -67q-73 -130 -186.5 -196.5t-260.5 -66.5q-158 0 -277.5 75t-180 199.5t-60.5 276.5t60 278t175.5 202.5t265.5 76.5q131 0 226.5 -46t150 -129t80 -185.5t25.5 -227.5h-807q-2 -166 88.5 -272t254.5 -106q91 0 168.5 52.5t119.5 135.5zM270 639h625
q-5 144 -84 226.5t-222 82.5q-131 0 -217 -87.5t-102 -221.5z" />
    <glyph glyph-name="f" unicode="f" horiz-adv-x="722" 
d="M205 0v928h-154v143h154v47q0 62 1.5 103t8.5 93.5t20 86.5t36.5 70t57.5 56.5t84 34t115 13.5q80 0 144 -20l-55 -131q-48 8 -83 8q-159 0 -159 -183v-178h262v-143h-262v-928h-170z" />
    <glyph glyph-name="g" unicode="g" horiz-adv-x="1298" 
d="M111 -131l135 59q43 -91 138.5 -133.5t207.5 -42.5q164 0 265.5 85.5t101.5 245.5v157q-60 -94 -164.5 -149.5t-218.5 -55.5q-145 0 -257.5 71t-171.5 188t-59 258q0 145 62.5 267.5t178 196.5t258.5 74q115 0 214.5 -49.5t157.5 -142.5v173h170v-998
q0 -114 -42.5 -203.5t-117 -146t-171.5 -85.5t-210 -29q-76 0 -144.5 14t-131.5 43.5t-115 81t-86 121.5zM604 178q168 0 264.5 111.5t96.5 281.5q0 165 -92.5 270.5t-252.5 105.5q-113 0 -195.5 -55.5t-121.5 -144t-39 -197.5q0 -150 96.5 -261t243.5 -111z" />
    <glyph glyph-name="h" unicode="h" horiz-adv-x="1238" 
d="M168 0v1556h170v-655q49 95 138 142t203 47q192 0 296 -123t104 -320v-647h-170v659q0 138 -68.5 210.5t-200.5 72.5q-141 0 -221.5 -78.5t-80.5 -214.5v-649h-170z" />
    <glyph glyph-name="i" unicode="i" horiz-adv-x="515" 
d="M141 1379q0 47 33 80t80 33t80 -33t33 -80t-33 -80t-80 -33t-80 33t-33 80zM172 0v1069h170v-1069h-170z" />
    <glyph glyph-name="j" unicode="j" horiz-adv-x="515" 
d="M141 1377q0 47 33 80t80 33t80 -33t33 -80t-33 -80t-80 -33t-80 33t-33 80zM12 -391v143q160 7 160 166v1151h170v-1137q0 -166 -80.5 -241.5t-249.5 -81.5z" />
    <glyph glyph-name="k" unicode="k" horiz-adv-x="1070" 
d="M168 0v1556h170v-978l465 493h199l-480 -498l518 -573h-206l-496 555v-555h-170z" />
    <glyph glyph-name="l" unicode="l" horiz-adv-x="517" 
d="M173 0v1549l172 76v-1625h-172z" />
    <glyph glyph-name="m" unicode="m" horiz-adv-x="1877" 
d="M168 0v1071h170v-164q41 91 118.5 137t179.5 46q112 0 209 -52.5t136 -148.5q51 98 142.5 149.5t208.5 51.5q182 0 284 -119t102 -307v-664h-170v676q0 266 -258 266q-120 0 -191 -82.5t-71 -204.5v-655h-170v676q0 266 -258 266q-120 0 -191 -82.5t-71 -204.5v-655h-170
z" />
    <glyph glyph-name="n" unicode="n" horiz-adv-x="1238" 
d="M168 0v1071h170v-170q48 95 140.5 142t207.5 47q193 0 293 -122t100 -321v-647h-170v659q0 137 -66 210t-197 73q-140 0 -224 -79.5t-84 -213.5v-649h-170z" />
    <glyph glyph-name="o" unicode="o" horiz-adv-x="1242" 
d="M614 -18q-157 0 -278 74t-184.5 199t-63.5 278q0 240 150.5 398.5t385.5 158.5q157 0 278.5 -74.5t186 -199.5t64.5 -278q0 -157 -68 -283.5t-191.5 -199.5t-279.5 -73zM617 124q118 0 201.5 59t121 150t37.5 203q0 85 -23 158.5t-67 130.5t-114 90t-158 33
q-89 0 -157.5 -33t-110 -91t-62.5 -131t-21 -158q0 -181 91.5 -296t261.5 -115z" />
    <glyph glyph-name="p" unicode="p" horiz-adv-x="1298" 
d="M168 -373v1444h170v-180q55 90 164 144.5t219 54.5q118 0 212.5 -43.5t153.5 -119.5t90 -174t31 -210q0 -114 -32 -215t-91 -178.5t-151.5 -122.5t-206.5 -45q-122 0 -227.5 50t-161.5 145v-550h-170zM694 124q75 0 133.5 22t96.5 60t62.5 92.5t35 114.5t10.5 130
q0 80 -21.5 151.5t-62 129t-107 91t-149.5 33.5q-91 0 -161.5 -33t-113 -91t-64 -131.5t-21.5 -159.5q0 -183 93 -296t269 -113z" />
    <glyph glyph-name="q" unicode="q" horiz-adv-x="1298" 
d="M959 -373v558q-56 -91 -166.5 -147t-221.5 -56q-118 0 -211.5 43t-152 118.5t-89 174t-30.5 213.5q0 112 34 213t96 178t157.5 122.5t209.5 45.5q118 0 217 -48.5t157 -142.5v172h170v-1444h-170zM600 124q122 0 206 58t121.5 151t37.5 214q0 180 -87.5 290.5
t-263.5 110.5q-94 0 -163 -33.5t-109 -93.5t-59 -134t-19 -164q0 -105 36 -193.5t114.5 -147t185.5 -58.5z" />
    <glyph glyph-name="r" unicode="r" horiz-adv-x="763" 
d="M168 0v1071h170v-192q57 106 143.5 156.5t208.5 54.5v-160q-181 -6 -266.5 -84.5t-85.5 -257.5v-588h-170z" />
    <glyph glyph-name="s" unicode="s" horiz-adv-x="968" 
d="M80 261l131 57q30 -92 102.5 -143t169.5 -51q101 0 170.5 40t69.5 128q0 37 -15.5 66.5t-35.5 47t-61 34t-68 24t-81 20.5q-66 16 -100.5 25.5t-88.5 34t-81.5 53t-49.5 78t-22 113.5q0 91 52.5 161.5t133 105.5t171.5 35q121 0 220.5 -65t158.5 -179l-131 -58
q-35 76 -103.5 118t-150.5 42q-80 0 -136.5 -39t-56.5 -116q0 -30 8.5 -54t29 -41.5t39.5 -29.5t55 -23t59.5 -17t67.5 -15q48 -10 72 -16t68 -19t67.5 -26t54.5 -36t47 -50t27.5 -65.5t11.5 -85.5q0 -110 -57.5 -187.5t-144.5 -111.5t-192 -34q-149 0 -257 72t-154 207z
" />
    <glyph glyph-name="t" unicode="t" horiz-adv-x="720" 
d="M639 152v-144q-70 -22 -147 -22q-287 0 -287 282v660h-154v143h154v201l170 74v-275h250v-143h-250v-643q0 -156 140 -156q58 0 124 23z" />
    <glyph glyph-name="u" unicode="u" horiz-adv-x="1230" 
d="M891 0v170q-46 -95 -132.5 -141.5t-197.5 -46.5q-194 0 -298.5 108t-104.5 303v678h170v-670q0 -136 71 -204t207 -68q132 0 208.5 80t76.5 213v649h170v-1071h-170z" />
    <glyph glyph-name="v" unicode="v" horiz-adv-x="1070" 
d="M428 0l-381 1071h185l309 -899l305 899h176l-377 -1071h-217z" />
    <glyph glyph-name="w" unicode="w" horiz-adv-x="1660" 
d="M399 0l-346 1071h185l266 -862l260 862h147l256 -862l265 862h174l-346 -1071h-189l-235 803l-250 -803h-187z" />
    <glyph glyph-name="x" unicode="x" horiz-adv-x="1074" 
d="M53 0l383 551l-358 520h199l262 -389l260 389h184l-354 -508l391 -563h-201l-288 432l-295 -432h-183z" />
    <glyph glyph-name="y" unicode="y" horiz-adv-x="1070" 
d="M258 -373l203 484l-414 960h182l322 -768l297 768h174l-592 -1444h-172z" />
    <glyph glyph-name="z" unicode="z" horiz-adv-x="982" 
d="M39 0v74l659 854h-598v143h834v-74l-647 -847h639v-150h-887z" />
    <glyph glyph-name="braceleft" unicode="{" horiz-adv-x="731" 
d="M665 -172v-129q-212 0 -308.5 87.5t-96.5 296.5v38l8 253q4 111 -46.5 160t-164.5 48v129h4q119 0 165.5 51t42.5 156l-9 235l-1 52q0 210 89.5 301t316.5 91v-129h-5q-38 0 -69 -5t-54.5 -12.5t-41.5 -22.5t-30 -29t-20.5 -38t-13 -43.5t-7 -51t-3 -55.5t-0.5 -62
l5 -107l4 -115v-24q0 -101 -36.5 -166.5t-133.5 -90.5q51 -13 85.5 -36.5t52.5 -57.5t25 -70.5t7 -84.5v-25l-4 -115l-5 -108l-2 -76q-2 -63 7.5 -105t35 -76t76 -49.5t127.5 -14.5z" />
    <glyph glyph-name="bar" unicode="|" horiz-adv-x="391" 
d="M126 -303v1900h138v-1900h-138z" />
    <glyph glyph-name="braceright" unicode="}" horiz-adv-x="731" 
d="M65 -301v129h4q63 0 106.5 12t70 33t40.5 59t18.5 78.5t4.5 103.5l-8 219q0 46 1 71.5t5.5 64t15.5 61.5t29 48.5t48 42t71 25.5q-101 26 -137 91.5t-34 169.5l1 55l8 207l1 54q1 64 -8.5 107t-36 75.5t-75.5 47.5t-125 15v129q225 0 319 -96t87 -319l-9 -262
q-4 -113 46 -161t165 -48v-129h-4q-65 0 -107 -14.5t-63.5 -45t-29.5 -67.5t-8 -92l1 -54l9 -206q10 -217 -84.5 -310.5t-321.5 -93.5z" />
    <glyph glyph-name="asciitilde" unicode="~" horiz-adv-x="904" 
d="M221 467h-135q4 49 18.5 93.5t39.5 83.5t65.5 62t90.5 23q69 0 160 -52l22 -12q74 -40 110 -40q41 0 63 31.5t27 76.5h135q-3 -62 -26.5 -120t-72 -100t-112.5 -42q-59 0 -161 52q-95 52 -131 52q-42 0 -65 -31.5t-28 -76.5z" />
    <glyph glyph-name="uni00A0" unicode="&#xa0;" horiz-adv-x="423" 
 />
    <glyph glyph-name="exclamdown" unicode="&#xa1;" horiz-adv-x="567" 
d="M152 1106q0 56 38 93.5t93 37.5t93 -38t38 -93t-38 -93t-93 -38t-93 37.5t-38 93.5zM187 -238l29 1051h131l28 -1051h-188z" />
    <glyph glyph-name="cent" unicode="&#xa2;" horiz-adv-x="1182" 
d="M554 -276v262q-146 16 -250.5 94t-154.5 196.5t-50 264.5q0 136 54.5 254t159.5 196t241 94v203h121v-203q152 -11 253.5 -86t168.5 -217l-146 -63q-79 200 -276 225v-817q109 15 185.5 80.5t109.5 171.5l131 -57q-61 -146 -168 -234.5t-258 -101.5v-262h-121zM554 127
v815q-74 -14 -130 -54t-87.5 -98t-46.5 -122.5t-15 -135.5q0 -100 27 -183t92 -145.5t160 -76.5z" />
    <glyph glyph-name="sterling" unicode="&#xa3;" horiz-adv-x="1248" 
d="M234 0h-149q11 93 67 163t144 87q24 66 24 135q0 88 -47 260h-168v127h133q-36 165 -36 289q0 186 131 304t319 118q165 0 272 -79.5t177 -236.5l-162 -71q-38 103 -112.5 172t-174.5 69q-125 0 -197.5 -76.5t-72.5 -201.5q0 -142 35 -287h436v-127h-408q31 -131 31 -270
q0 -65 -27 -133q46 -13 126 -48q147 -63 214 -63q78 0 135 49.5t84 126.5l142 -61q-43 -117 -130.5 -190.5t-203.5 -73.5q-40 0 -83 10.5t-71.5 22t-74.5 32.5q-145 64 -211 64q-61 0 -99.5 -28.5t-42.5 -82.5z" />
    <glyph glyph-name="yen" unicode="&#xa5;" horiz-adv-x="1182" 
d="M173 289v115h344v155h-344v115h319l-428 790h193l352 -688l336 688h172l-403 -790h321v-115h-344v-155h344v-115h-344v-289h-174v289h-344z" />
    <glyph glyph-name="brokenbar" unicode="&#xa6;" horiz-adv-x="633" 
d="M240 752v837h138v-837h-138zM240 -303v911h138v-911h-138z" />
    <glyph glyph-name="section" unicode="&#xa7;" horiz-adv-x="1229" 
d="M222 -20l139 61q23 -88 89 -132q61 -46 157 -46q93 0 149 45t56 139q0 57 -17.5 88t-66.5 63q-32 21 -77 38.5t-78 26.5t-89 23q-46 12 -73 19.5t-67.5 22.5t-64.5 30t-52 39.5t-43 53.5t-25.5 70t-10.5 91q0 107 62 176t170 101q-125 80 -125 260q0 141 110.5 237.5
t253.5 96.5q141 0 227.5 -59t139.5 -191l-135 -59q-29 78 -89 121.5t-148 43.5q-89 0 -142 -45t-53 -132q0 -61 26.5 -99.5t76.5 -65.5q48 -25 181 -63l43 -12q63 -18 106.5 -35t90 -44.5t74 -60.5t45.5 -83t18 -113q0 -98 -63 -169.5t-162 -105.5q121 -88 121 -260
q0 -95 -54 -172t-138 -118.5t-177 -41.5q-91 0 -169 25.5t-138 86t-78 149.5zM730 379q182 43 182 189q0 96 -85 148q-45 27 -171 62l-162 43q-79 -18 -128.5 -67t-49.5 -127q0 -35 18 -66t42 -51.5t62 -40t65 -29.5t64 -21z" />
    <glyph glyph-name="dieresis" unicode="&#xa8;" horiz-adv-x="831" 
d="M575 1278q-44 0 -75.5 31.5t-31.5 77.5t31.5 77.5t75.5 31.5q45 0 77.5 -32.5t32.5 -76.5t-32.5 -76.5t-77.5 -32.5zM251 1278q-44 0 -75 32t-31 78t30 77t74 31q46 0 79.5 -32t33.5 -76q0 -43 -33 -76.5t-78 -33.5z" />
    <glyph glyph-name="copyright" unicode="&#xa9;" horiz-adv-x="1723" 
d="M110 732q0 206 100 378.5t273 272.5t380 100q155 0 294 -58.5t239 -158.5t158.5 -239t58.5 -293q0 -155 -59 -294.5t-159.5 -239.5t-239.5 -159t-292 -59q-205 0 -378 99t-274 272t-101 379zM859 68q182 0 333 89.5t237 242.5t86 334t-85.5 333t-235.5 241t-331 89
q-182 0 -333 -89.5t-236.5 -242.5t-85.5 -335q0 -135 50.5 -257.5t136.5 -211t207 -141t257 -52.5zM1101 607l123 -52q-41 -115 -134 -176.5t-216 -61.5q-195 0 -294.5 112t-99.5 309q0 176 111 292.5t290 116.5q241 0 343 -221l-123 -53q-61 149 -218 149q-82 0 -138 -43
t-79.5 -107t-23.5 -142q0 -125 61.5 -206.5t177.5 -81.5q83 0 138.5 43.5t81.5 121.5z" />
    <glyph glyph-name="ordfeminine" unicode="&#xaa;" horiz-adv-x="898" 
d="M634 610v107q-96 -123 -258 -123q-131 0 -213 65.5t-82 186.5q0 55 19.5 98t48 71t75.5 48t87 30t99 15.5t96 6.5t91 1h37v12q0 113 -42 169.5t-151 56.5q-70 0 -120.5 -34t-71.5 -99l-131 57q79 205 339 205q155 0 245.5 -77t90.5 -235v-561h-159zM634 1006h-115
q-276 0 -276 -154q0 -74 36.5 -103.5t107.5 -29.5q104 0 175.5 49t71.5 143v95z" />
    <glyph glyph-name="guillemotleft" unicode="&#xab;" horiz-adv-x="1040" 
d="M764 170l-266 365l266 364h168l-256 -364l256 -365h-168zM389 170l-266 365l266 364h168l-256 -364l256 -365h-168z" />
    <glyph glyph-name="registered" unicode="&#xae;" horiz-adv-x="1072" 
d="M82 1028q0 190 132.5 322.5t321.5 132.5t321.5 -132t132.5 -321q0 -124 -60.5 -228.5t-165 -164.5t-229.5 -60q-189 0 -321 131t-132 320zM534 651q161 0 267.5 110t106.5 272q0 160 -105 268t-267 108q-163 0 -267.5 -108t-104.5 -270q0 -163 105.5 -271.5t264.5 -108.5
zM380 811v449h158q75 0 123.5 -32t48.5 -103q0 -95 -93 -124l119 -190h-103l-108 174h-47v-174h-98zM478 1053h58q76 0 76 67q0 64 -76 64h-58v-131z" />
    <glyph glyph-name="macron" unicode="&#xaf;" horiz-adv-x="831" 
d="M146 1310v131h536v-131h-536z" />
    <glyph glyph-name="degree" unicode="&#xb0;" horiz-adv-x="955" 
d="M166 1184q0 125 90 212t216 87t216 -87.5t90 -212.5t-90.5 -211t-214.5 -86q-125 0 -216 86t-91 212zM471 989q82 0 136.5 56t54.5 137q0 82 -54.5 140t-136.5 58q-81 0 -136.5 -57.5t-55.5 -140.5q0 -82 55.5 -137.5t136.5 -55.5z" />
    <glyph glyph-name="plusminus" unicode="&#xb1;" horiz-adv-x="1102" 
d="M93 680v143h383v373h149v-373h383v-143h-383v-373h-149v373h-383zM93 0v143h915v-143h-915z" />
    <glyph glyph-name="twosuperior" unicode="&#xb2;" horiz-adv-x="605" 
d="M24 764v22l264 279q51 52 80.5 99t29.5 103q0 99 -98 99q-59 0 -97 -35t-56 -92l-99 43q25 92 91.5 141.5t166.5 49.5q102 0 165 -52t63 -155q0 -45 -20.5 -93t-59.5 -96t-68.5 -78.5t-74.5 -72.5l-62 -58h291v-104h-516z" />
    <glyph glyph-name="threesuperior" unicode="&#xb3;" horiz-adv-x="650" 
d="M52 934l111 47q10 -52 52.5 -88.5t94.5 -36.5q59 0 94 27.5t35 86.5q0 69 -56 94q-33 13 -120 13v97h17q33 0 55.5 2.5t46 11.5t35.5 29.5t12 52.5q0 50 -28.5 75t-75.5 25q-53 0 -92.5 -31.5t-55.5 -81.5l-102 46q28 81 95 125.5t155 44.5q95 0 165 -48.5t70 -138.5
q0 -116 -117 -153q138 -33 138 -171q0 -72 -39 -121t-95 -68.5t-124 -19.5q-101 0 -171.5 46t-99.5 135z" />
    <glyph glyph-name="acute" unicode="&#xb4;" horiz-adv-x="831" 
d="M335 1255l127 301h213l-213 -301h-127z" />
    <glyph glyph-name="paragraph" unicode="&#xb6;" horiz-adv-x="1330" 
d="M626 -205v914h-5q-76 0 -142.5 11.5t-127.5 39t-104.5 69.5t-69 106t-25.5 145q0 96 35 171t96.5 120.5t141 69t172.5 23.5h477v-1669h-141v1553h-166v-1553h-141z" />
    <glyph glyph-name="periodcentered" unicode="&#xb7;" horiz-adv-x="703" 
d="M220 670q0 55 37.5 93t91.5 38q55 0 94 -39t39 -94q0 -54 -38.5 -91.5t-94.5 -37.5q-55 0 -92 37.5t-37 93.5z" />
    <glyph glyph-name="cedilla" unicode="&#xb8;" horiz-adv-x="831" 
d="M230 -309l91 37q12 -30 40 -49t62 -19t57 19.5t23 53.5q0 32 -21 51t-53 19q-27 0 -57 -16l-66 57l86 156h109l-60 -109q17 3 33 3q72 0 116 -45.5t44 -115.5q0 -83 -62 -127t-146 -44q-70 0 -123.5 32.5t-72.5 96.5z" />
    <glyph glyph-name="onesuperior" unicode="&#xb9;" horiz-adv-x="493" 
d="M224 764v565l-166 -100v121l183 114h123v-700h-140z" />
    <glyph glyph-name="ordmasculine" unicode="&#xba;" horiz-adv-x="1049" 
d="M526 594q-190 0 -310.5 125t-120.5 319q0 191 117 318t308 127q190 0 311.5 -126t121.5 -319q0 -190 -117.5 -317t-309.5 -127zM521 725q130 0 197 89.5t67 226.5q0 62 -14.5 116t-44 98.5t-81 70.5t-119.5 26q-130 0 -196.5 -88.5t-66.5 -225.5q0 -134 64 -223.5
t194 -89.5z" />
    <glyph glyph-name="guillemotright" unicode="&#xbb;" horiz-adv-x="1040" 
d="M107 170l256 365l-256 364h168l266 -364l-266 -365h-168zM482 170l256 365l-256 364h167l267 -364l-267 -365h-167z" />
    <glyph glyph-name="onequarter" unicode="&#xbc;" horiz-adv-x="1383" 
d="M97 0l1039 1464h135l-1038 -1464h-136zM218 764v565l-166 -90v121l183 104h122v-700h-139zM763 141v49l313 510h170v-458h92v-101h-92v-141h-131v141h-352zM910 242h207v354z" />
    <glyph glyph-name="onehalf" unicode="&#xbd;" horiz-adv-x="1381" 
d="M71 0l1038 1464h135l-1038 -1464h-135zM218 764v565l-166 -90v121l183 104h122v-700h-139zM806 0v51l262 250q111 105 111 202q0 99 -100 99q-59 0 -96.5 -34.5t-53.5 -92.5l-101 43q54 191 254 191q105 0 168.5 -52t63.5 -155q0 -51 -20 -99.5t-62 -96.5t-73 -77.5
t-86 -76.5l-56 -48h303v-104h-514z" />
    <glyph glyph-name="threequarters" unicode="&#xbe;" horiz-adv-x="1383" 
d="M46 932l101 41q11 -58 51.5 -87.5t101.5 -29.5q59 0 96 28t37 90q0 29 -9.5 49t-22.5 30.5t-36.5 16t-41 6.5t-47.5 1h-19v97h17q33 0 55.5 2.5t46 11.5t35.5 29.5t12 51.5q0 52 -32 76.5t-83 24.5q-108 0 -139 -106l-100 45q26 84 90.5 124t151.5 40q100 0 171.5 -48.5
t71.5 -138.5q0 -116 -117 -153q65 -16 101.5 -60.5t36.5 -113.5q0 -104 -77 -155t-190 -51q-100 0 -170.5 43.5t-91.5 135.5zM165 0l1038 1464h135l-1038 -1464h-135zM757 141v50l313 508h170v-455h92v-103h-92v-141h-131v141h-352zM904 244h207v352z" />
    <glyph glyph-name="questiondown" unicode="&#xbf;" horiz-adv-x="1002" 
d="M420 1104q0 55 38 93t92 38t93.5 -38.5t39.5 -92.5t-39 -92.5t-93 -38.5q-55 0 -93 38t-38 93zM805 141l132 -57q-60 -159 -177.5 -250.5t-284.5 -91.5q-79 0 -147.5 21.5t-122 62.5t-84 107t-30.5 149q0 49 14.5 94t43.5 86t56.5 71t68.5 69l100 100q98 110 98 221v88
h151v-109q0 -52 -15 -98.5t-49 -93t-58 -73.5t-73 -76l-73 -77q-92 -106 -92 -196q0 -205 219 -205q108 0 196.5 75.5t126.5 182.5z" />
    <glyph glyph-name="Agrave" unicode="&#xc0;" horiz-adv-x="1375" 
d="M650 1579l-200 260h213l114 -260h-127zM71 0l510 1464h218l505 -1464h-177l-129 381h-630l-129 -381h-168zM415 522h536l-268 780z" />
    <glyph glyph-name="Aacute" unicode="&#xc1;" horiz-adv-x="1375" 
d="M620 1579l114 260h213l-200 -260h-127zM71 0l510 1464h218l505 -1464h-177l-129 381h-630l-129 -381h-168zM415 522h536l-268 783z" />
    <glyph glyph-name="Acircumflex" unicode="&#xc2;" horiz-adv-x="1375" 
d="M390 1579l221 260h154l219 -260h-125l-174 119l-174 -119h-121zM71 0l510 1464h218l505 -1464h-177l-129 381h-630l-129 -381h-168zM415 522h536l-268 780z" />
    <glyph glyph-name="Atilde" unicode="&#xc3;" horiz-adv-x="1375" 
d="M495 1581h-123q9 93 62.5 165.5t135.5 72.5q54 0 128 -46q67 -42 98 -42q37 0 58 31q19 24 26 61h123q-12 -93 -63.5 -165.5t-132.5 -72.5q-53 0 -132 48q-67 40 -98 40q-35 0 -56 -27.5t-26 -64.5zM71 0l510 1464h218l505 -1464h-177l-129 381h-630l-129 -381h-168z
M415 522h536l-268 780z" />
    <glyph glyph-name="Adieresis" unicode="&#xc4;" horiz-adv-x="1375" 
d="M370 1706q0 45 30 76t75 31q46 0 79.5 -32.5t33.5 -76.5t-33 -76t-77 -32q-45 0 -76.5 32t-31.5 78zM785 1704q0 46 31.5 77.5t75.5 31.5q45 0 78 -32.5t33 -76.5q0 -43 -33.5 -75.5t-78.5 -32.5q-44 0 -75 31.5t-31 76.5zM71 0l511 1464h217l505 -1464h-177l-129 381
h-630l-129 -381h-168zM415 522h536l-267 780z" />
    <glyph glyph-name="Aring" unicode="&#xc5;" horiz-adv-x="1375" 
d="M468 1767q0 88 65 150.5t154 62.5q88 0 153.5 -62t65.5 -149q0 -88 -66 -151.5t-154 -63.5q-87 0 -152.5 62.5t-65.5 150.5zM687 1649q47 0 77.5 35t30.5 83t-31 83t-77 35q-47 0 -77.5 -34.5t-30.5 -83.5t29.5 -83.5t78.5 -34.5zM71 0l510 1464h217l506 -1464h-177
l-129 381h-630l-129 -381h-168zM415 522h536l-268 780z" />
    <glyph glyph-name="AE" unicode="&#xc6;" horiz-adv-x="1941" 
d="M56 0l758 1464h1008v-145h-676v-498h545v-145h-545v-531h713v-145h-891v342h-557l-174 -342h-181zM480 481h488v838h-64z" />
    <glyph glyph-name="Ccedilla" unicode="&#xc7;" horiz-adv-x="1490" 
d="M572 -266h111q5 -33 30 -53.5t59 -20.5t57.5 19.5t23.5 52.5q0 32 -22 51.5t-55 19.5q-29 0 -54 -16l-66 57l76 140q-152 10 -272 71.5t-195.5 161.5t-115 228.5t-39.5 277.5q0 155 47 293t132.5 242.5t217 165.5t291.5 61q203 0 368.5 -109.5t235.5 -296.5l-145 -63
q-62 154 -180 241t-283 87q-99 0 -181.5 -33t-140.5 -90t-99 -133.5t-60 -164t-19 -182.5q0 -288 134.5 -450t416.5 -162q154 0 282.5 100.5t184.5 249.5l135 -59q-75 -194 -238.5 -315t-367.5 -121l-49 -93q15 3 30 3q71 0 116.5 -47t45.5 -119q0 -83 -60 -124.5
t-143 -41.5q-87 0 -146 45t-63 127z" />
    <glyph glyph-name="Egrave" unicode="&#xc8;" horiz-adv-x="1195" 
d="M594 1579l-201 260h213l115 -260h-127zM181 0v1464h895v-145h-717v-498h586v-145h-586v-531h754v-145h-932z" />
    <glyph glyph-name="Eacute" unicode="&#xc9;" horiz-adv-x="1154" 
d="M548 1579l115 260h213l-201 -260h-127zM181 0v1464h854v-145h-676v-498h545v-145h-545v-531h713v-145h-891z" />
    <glyph glyph-name="Ecircumflex" unicode="&#xca;" horiz-adv-x="1195" 
d="M300 1579l221 260h154l219 -260h-125l-174 119l-174 -119h-121zM181 0v1464h895v-145h-717v-498h586v-145h-586v-531h754v-145h-932z" />
    <glyph glyph-name="Edieresis" unicode="&#xcb;" horiz-adv-x="1195" 
d="M282 1704q0 44 32 76.5t76 32.5t77 -32.5t33 -75.5t-33.5 -76t-76.5 -33t-75.5 32.5t-32.5 75.5zM697 1704q0 44 32.5 76.5t76.5 32.5q43 0 76 -33t33 -76q0 -42 -33.5 -75t-76.5 -33t-75.5 32.5t-32.5 75.5zM181 0v1464h895v-145h-717v-498h586v-145h-586v-531h754v-145
h-932z" />
    <glyph glyph-name="Igrave" unicode="&#xcc;" horiz-adv-x="562" 
d="M228 1579l-202 260h215l114 -260h-127zM192 0v1464h178v-1464h-178z" />
    <glyph glyph-name="Iacute" unicode="&#xcd;" horiz-adv-x="562" 
d="M204 1579l115 260h213l-201 -260h-127zM192 0v1464h178v-1464h-178z" />
    <glyph glyph-name="Icircumflex" unicode="&#xce;" horiz-adv-x="562" 
d="M-19 1579l223 260h153l220 -260h-125l-174 119l-175 -119h-122zM192 0v1464h178v-1464h-178z" />
    <glyph glyph-name="Idieresis" unicode="&#xcf;" horiz-adv-x="562" 
d="M336 1704q0 46 31.5 77.5t76.5 31.5t78 -32t33 -77q0 -44 -33 -76t-79 -32q-45 0 -76 31t-31 77zM0 1704q0 45 32.5 77t77.5 32t77 -32.5t32 -76.5t-32 -76t-76 -32q-45 0 -78 31.5t-33 76.5zM192 0v1464h178v-1464h-178z" />
    <glyph glyph-name="Eth" unicode="&#xd0;" horiz-adv-x="1502" 
d="M222 0v666h-155v137h155v661h428q342 0 542 -190t200 -529q0 -354 -196 -549.5t-550 -195.5h-424zM400 145h242q273 0 419 154.5t146 429.5q0 286 -141.5 438t-425.5 152h-240v-516h424v-137h-424v-521z" />
    <glyph glyph-name="Ntilde" unicode="&#xd1;" horiz-adv-x="1498" 
d="M566 1581h-123q12 95 64 166.5t137 71.5q55 0 122 -44l2 -1q1 -2 2 -2h1l7 -4q59 -37 90 -37q36 0 57 31q19 24 26 61h123q-9 -91 -63 -164.5t-136 -73.5q-47 0 -124 44q-69 44 -103 44t-56 -28t-26 -64zM181 0v1464h232l733 -1210v1210h170v-1464h-205l-760 1255v-1255
h-170z" />
    <glyph glyph-name="Ograve" unicode="&#xd2;" horiz-adv-x="1656" 
d="M775 1579l-200 260h213l114 -260h-127zM836 -18q-156 0 -292 57.5t-230.5 156t-149 235.5t-54.5 292q0 214 87 386t250.5 273t375.5 101q158 0 293.5 -58t229 -157t146.5 -235t53 -290q0 -157 -50 -296t-140.5 -242t-224.5 -163t-294 -60zM841 129q100 0 185 31.5
t146.5 87t104 131.5t63.5 165t21 188q0 124 -33.5 232t-98 192.5t-167.5 133.5t-233 49q-127 0 -230 -47t-169 -128t-101 -187.5t-35 -228.5q0 -124 36.5 -235.5t104.5 -197t173 -136t233 -50.5z" />
    <glyph glyph-name="Oacute" unicode="&#xd3;" horiz-adv-x="1656" 
d="M751 1579l114 260h213l-200 -260h-127zM836 -18q-156 0 -292 57.5t-230.5 156t-149 235.5t-54.5 292q0 214 87 386t250.5 273t375.5 101q158 0 293.5 -58t229 -157t146.5 -235t53 -290q0 -157 -50 -296t-140.5 -242t-224.5 -163t-294 -60zM841 129q100 0 185 31.5
t146.5 87t104 131.5t63.5 165t21 188q0 124 -33.5 232t-98 192.5t-167.5 133.5t-233 49q-127 0 -230 -47t-169 -128t-101 -187.5t-35 -228.5q0 -124 36.5 -235.5t104.5 -197t173 -136t233 -50.5z" />
    <glyph glyph-name="Ocircumflex" unicode="&#xd4;" horiz-adv-x="1656" 
d="M529 1579l222 260h153l219 -260h-125l-174 119l-174 -119h-121zM836 -18q-156 0 -292 57.5t-230.5 156t-149 235.5t-54.5 292q0 214 87 386t250.5 273t375.5 101q158 0 293.5 -58t229 -157t146.5 -235t53 -290q0 -157 -50 -296t-140.5 -242t-224.5 -163t-294 -60z
M841 129q100 0 185 31.5t146.5 87t104 131.5t63.5 165t21 188q0 124 -33.5 232t-98 192.5t-167.5 133.5t-233 49q-127 0 -230 -47t-169 -128t-101 -187.5t-35 -228.5q0 -124 36.5 -235.5t104.5 -197t173 -136t233 -50.5z" />
    <glyph glyph-name="Otilde" unicode="&#xd5;" horiz-adv-x="1656" 
d="M634 1581h-123q9 93 63 165.5t139 72.5q47 0 115 -45q66 -43 105 -43t60 31q19 24 26 61h123q-9 -91 -62.5 -164.5t-134.5 -73.5q-53 0 -141 53q-56 35 -87 35q-35 0 -58 -30q-19 -22 -25 -62zM835 -18q-156 0 -291.5 57t-230 156t-149 235.5t-54.5 291.5q0 214 87 386.5
t250.5 273.5t375.5 101q158 0 293.5 -58t229 -158t146.5 -236t53 -290q0 -211 -85.5 -382.5t-249 -274t-375.5 -102.5zM841 128q125 0 225.5 48t164 131.5t97 191.5t33.5 231q0 99 -21 188t-64.5 166t-105.5 133t-150 88t-192 32q-127 0 -229.5 -46.5t-168.5 -127.5
t-101 -187.5t-35 -227.5q0 -125 37 -236.5t105 -197.5t172.5 -136t232.5 -50z" />
    <glyph glyph-name="Odieresis" unicode="&#xd6;" horiz-adv-x="1656" 
d="M1031 1596q-44 0 -75 31.5t-31 77.5t30 77t75 31q46 0 79 -32.5t33 -76.5t-33 -76t-78 -32zM509 1704q0 46 31.5 77.5t75.5 31.5q45 0 77.5 -32.5t32.5 -76.5t-32 -76t-78 -32q-44 0 -75.5 31t-31.5 77zM836 -18q-156 0 -292 57.5t-230.5 156t-149 235.5t-54.5 292
q0 214 87 386t250.5 273t375.5 101q158 0 293.5 -58t229 -157t146.5 -235t53 -290q0 -157 -50 -296t-140.5 -242t-224.5 -163t-294 -60zM841 129q100 0 185 31.5t146.5 87t104 131.5t63.5 165t21 188q0 124 -33.5 232t-98 192.5t-167.5 133.5t-233 49q-127 0 -230 -47
t-169 -128t-101 -187.5t-35 -228.5q0 -124 36.5 -235.5t104.5 -197t173 -136t233 -50.5z" />
    <glyph glyph-name="multiply" unicode="&#xd7;" horiz-adv-x="975" 
d="M171 268l-96 99l315 315l-315 315l96 99l315 -318l316 318l98 -99l-315 -315l315 -315l-98 -99l-316 318z" />
    <glyph glyph-name="Oslash" unicode="&#xd8;" horiz-adv-x="1656" 
d="M161 -68l-92 93l200 219q-159 207 -159 479q0 214 87 386t250.5 273t374.5 101q258 0 447 -144l166 181l92 -93l-162 -178q180 -210 180 -514q0 -154 -50.5 -291t-141 -239.5t-225.5 -162.5t-295 -60q-283 0 -474 168zM384 371l782 856q-135 112 -340 112
q-126 0 -228 -47t-168 -129.5t-101 -192t-35 -235.5q0 -209 90 -364zM1254 1130l-786 -862q140 -139 368 -139q101 0 187 31.5t147.5 87.5t105 132.5t64.5 167t21 190.5q0 231 -107 392z" />
    <glyph glyph-name="Ugrave" unicode="&#xd9;" horiz-adv-x="1420" 
d="M659 1579l-201 260h213l114 -260h-126zM169 1464h178v-909q0 -101 16 -174t54.5 -132.5t110.5 -89.5t178 -30q88 0 152.5 21.5t105 59.5t65 96.5t34 124t9.5 151.5v882h178v-907q0 -276 -140.5 -425.5t-414.5 -149.5q-255 0 -390.5 147.5t-135.5 405.5v929z" />
    <glyph glyph-name="Uacute" unicode="&#xda;" horiz-adv-x="1420" 
d="M634 1579l115 260h213l-201 -260h-127zM169 1464h178v-909q0 -101 16 -174t54.5 -132.5t110.5 -89.5t178 -30q88 0 152.5 21.5t105 59.5t65 96.5t34 124t9.5 151.5v882h178v-907q0 -276 -140.5 -425.5t-414.5 -149.5q-255 0 -390.5 147.5t-135.5 405.5v929z" />
    <glyph glyph-name="Ucircumflex" unicode="&#xdb;" horiz-adv-x="1420" 
d="M413 1579l221 260h154l219 -260h-125l-174 119l-174 -119h-121zM169 1464h178v-909q0 -101 16 -174t54.5 -132.5t110.5 -89.5t178 -30q88 0 152.5 21.5t105 59.5t65 96.5t34 124t9.5 151.5v882h178v-907q0 -276 -140.5 -425.5t-414.5 -149.5q-255 0 -390.5 147.5
t-135.5 405.5v929z" />
    <glyph glyph-name="Udieresis" unicode="&#xdc;" horiz-adv-x="1420" 
d="M808 1704q0 46 31.5 77.5t75.5 31.5q45 0 77.5 -32.5t32.5 -76.5t-32 -76t-78 -32q-45 0 -76 31t-31 77zM392 1704q0 46 31.5 77.5t75.5 31.5q45 0 77.5 -32.5t32.5 -76.5t-32 -76t-78 -32q-45 0 -76 31t-31 77zM169 1464h178v-909q0 -101 16 -174t54.5 -132.5
t110.5 -89.5t178 -30q88 0 152.5 21.5t105 59.5t65 96.5t34 124t9.5 151.5v882h178v-907q0 -276 -140.5 -425.5t-414.5 -149.5q-255 0 -390.5 147.5t-135.5 405.5v929z" />
    <glyph glyph-name="Yacute" unicode="&#xdd;" horiz-adv-x="1199" 
d="M544 1579l114 260h213l-200 -260h-127zM523 0v629l-479 835h201l373 -690l358 690h178l-452 -837v-627h-179z" />
    <glyph glyph-name="Thorn" unicode="&#xde;" horiz-adv-x="1185" 
d="M181 0v1464h178v-274h238q83 0 157 -14t139.5 -46.5t113 -80t75 -119t27.5 -159.5q0 -116 -39 -201.5t-110 -135t-161 -73t-202 -23.5h-238v-338h-178zM359 481h250q149 0 235.5 68.5t86.5 213.5q0 153 -82.5 218.5t-239.5 65.5h-250v-566z" />
    <glyph glyph-name="germandbls" unicode="&#xdf;" horiz-adv-x="1203" 
d="M169 0v1158q0 184 124 307.5t313 123.5q108 0 198 -41.5t146.5 -126.5t56.5 -199q0 -115 -67.5 -208t-176.5 -129q154 -39 254 -160.5t100 -278.5q0 -220 -108 -342t-324 -122q-107 0 -190 32l55 125q58 -16 121 -16q140 0 205 81.5t65 220.5q0 187 -107 281.5t-294 94.5
v145q5 -1 16 -1q127 0 208 72.5t81 202.5q0 113 -65.5 170.5t-184.5 57.5q-120 0 -188 -79.5t-68 -202.5v-1166h-170z" />
    <glyph glyph-name="agrave" unicode="&#xe0;" horiz-adv-x="1101" 
d="M501 1255l-213 301h213l127 -301h-127zM771 0v135q-123 -153 -330 -153q-159 0 -259.5 80t-100.5 230q0 79 29.5 139.5t87.5 95.5t115.5 57.5t144.5 31t140.5 11t134.5 2.5h38v18q0 63 -3.5 103t-17 81.5t-38.5 64.5t-69 37.5t-107 14.5q-95 0 -167 -48.5t-102 -137.5
l-145 63q65 139 168.5 202t257.5 63q393 0 393 -383v-707h-170zM771 508h-147q-373 0 -373 -211q0 -180 203 -180q84 0 153.5 26t116.5 86.5t47 145.5v133z" />
    <glyph glyph-name="aacute" unicode="&#xe1;" horiz-adv-x="1101" 
d="M476 1255l127 301h213l-213 -301h-127zM771 0v135q-123 -153 -330 -153q-159 0 -259.5 80t-100.5 230q0 79 29.5 139.5t87.5 95.5t115.5 57.5t144.5 31t140.5 11t134.5 2.5h38v18q0 63 -3.5 103t-17 81.5t-38.5 64.5t-69 37.5t-107 14.5q-95 0 -167 -48.5t-102 -137.5
l-145 63q65 139 168.5 202t257.5 63q393 0 393 -383v-707h-170zM771 508h-147q-373 0 -373 -211q0 -180 203 -180q84 0 153.5 26t116.5 86.5t47 145.5v133z" />
    <glyph glyph-name="acircumflex" unicode="&#xe2;" horiz-adv-x="1101" 
d="M253 1255l221 295h154l219 -295h-125l-174 154l-174 -154h-121zM771 0v135q-56 -75 -146.5 -114t-191.5 -39q-150 0 -251 82.5t-101 230.5q0 53 15 97.5t39 77t62.5 58t75.5 42t90 28t93.5 17.5t98 9.5t92 4t86.5 0.5h38v7q0 75 -10 127.5t-36.5 96.5t-77.5 66t-128 22
q-90 0 -165 -51t-103 -135l-145 63q56 130 168 197.5t256 67.5q183 0 297 -104.5t114 -283.5v-702h-170zM771 508h-147q-50 0 -93.5 -3.5t-97.5 -17t-92 -35t-64 -61.5t-26 -94q0 -180 196 -180q81 0 153.5 28.5t121.5 89t49 140.5v133z" />
    <glyph glyph-name="atilde" unicode="&#xe3;" horiz-adv-x="1101" 
d="M357 1264h-122q9 92 62.5 164.5t136.5 72.5q59 0 124 -45l19 -11q51 -32 80 -32q34 0 56 28t29 64h123q-8 -91 -62 -164t-136 -73q-47 0 -122 44q-67 44 -103 44t-58.5 -28t-26.5 -64zM771 0v135q-56 -75 -146.5 -114t-191.5 -39q-150 0 -251 82.5t-101 230.5
q0 53 15 97.5t39 77t62.5 58t75.5 42t90 28t93.5 17.5t98 9.5t92 4t86.5 0.5h38v7q0 75 -10 127.5t-36.5 96.5t-77.5 66t-128 22q-90 0 -165 -51t-103 -135l-145 63q56 130 168 197.5t256 67.5q183 0 297 -104.5t114 -283.5v-702h-170zM771 508h-147q-50 0 -93.5 -3.5
t-97.5 -17t-92 -35t-64 -61.5t-26 -94q0 -180 196 -180q81 0 153.5 28.5t121.5 89t49 140.5v133z" />
    <glyph glyph-name="adieresis" unicode="&#xe4;" horiz-adv-x="1101" 
d="M710 1278q-44 0 -75.5 31.5t-31.5 77.5t31.5 77.5t75.5 31.5q45 0 77.5 -32.5t32.5 -76.5t-32.5 -76.5t-77.5 -32.5zM386 1278q-44 0 -75 32t-31 78t30 77t74 31q46 0 79.5 -32t33.5 -76q0 -43 -33 -76.5t-78 -33.5zM771 0v135q-56 -75 -146.5 -114t-191.5 -39
q-150 0 -251 82.5t-101 230.5q0 53 15 97.5t39 77t62.5 58t75.5 42t90 28t93.5 17.5t98 9.5t92 4t86.5 0.5h38v7q0 75 -10 127.5t-36.5 96.5t-77.5 66t-128 22q-90 0 -165 -51t-103 -135l-145 63q56 130 168 197.5t256 67.5q183 0 297 -104.5t114 -283.5v-702h-170zM771 508
h-147q-50 0 -93.5 -3.5t-97.5 -17t-92 -35t-64 -61.5t-26 -94q0 -180 196 -180q81 0 153.5 28.5t121.5 89t49 140.5v133z" />
    <glyph glyph-name="aring" unicode="&#xe5;" horiz-adv-x="1101" 
d="M331 1438q0 87 66 150t153 63t153 -63t66 -150t-65.5 -150.5t-153.5 -63.5t-153.5 63.5t-65.5 150.5zM471 1355q30 -36 79 -36q48 0 78.5 35t30.5 84q0 48 -31 83t-78 35q-48 0 -78.5 -35t-30.5 -84q0 -51 30 -82zM771 0v135q-56 -75 -146.5 -114t-191.5 -39
q-150 0 -251 82.5t-101 230.5q0 53 15 97.5t39 77t62.5 58t75.5 42t90 28t93.5 17.5t98 9.5t92 4t86.5 0.5h38v7q0 75 -10 127.5t-36.5 96.5t-77.5 66t-128 22q-90 0 -165 -51t-103 -135l-145 63q56 130 168 197.5t256 67.5q183 0 297 -104.5t114 -283.5v-702h-170zM771 508
h-147q-50 0 -93.5 -3.5t-97.5 -17t-92 -35t-64 -61.5t-26 -94q0 -180 196 -180q81 0 153.5 28.5t121.5 89t49 140.5v133z" />
    <glyph glyph-name="ae" unicode="&#xe6;" horiz-adv-x="1797" 
d="M267 762l-145 63q65 139 169 202t259 63q114 0 203 -44t133 -139q63 89 156.5 136t203.5 47q116 0 206.5 -41.5t146 -115t84 -168.5t28.5 -208v-51h-776q2 -81 21 -148t56 -120.5t99.5 -83.5t145.5 -30q105 0 196 45.5t131 130.5l131 -55q-39 -86 -112 -146.5
t-159.5 -88.5t-181.5 -28q-131 0 -238 56.5t-169 165.5q-73 -117 -174.5 -169.5t-243.5 -52.5q-157 0 -256.5 80.5t-99.5 231.5q0 55 15.5 101t38.5 79t63 59.5t75.5 43t90.5 28t94 17.5t100 9t93.5 3.5t88.5 0.5h31v7q0 62 -4 102.5t-17.5 82.5t-38.5 66t-68.5 39.5
t-106.5 15.5q-95 0 -167 -48.5t-102 -137.5zM941 635h596q-6 145 -78 229t-213 84q-130 0 -209 -89.5t-96 -223.5zM771 506h-153q-367 0 -367 -208q0 -96 52.5 -138.5t150.5 -42.5q83 0 153 26t117 86.5t47 145.5v131z" />
    <glyph glyph-name="ccedilla" unicode="&#xe7;" horiz-adv-x="1162" 
d="M378 -266h111q5 -33 30 -53.5t58 -20.5q34 0 58 21t24 54q0 31 -21.5 48.5t-53.5 17.5q-29 0 -57 -14l-65 57l78 142q-139 16 -242 92t-156 192.5t-53 258.5q0 155 62 281.5t183 203t279 76.5q163 0 271 -73t184 -224l-156 -68q-30 96 -116.5 159.5t-186.5 63.5
q-83 0 -150 -34t-108.5 -91.5t-63.5 -129.5t-22 -152q0 -88 20 -161.5t60.5 -132t109.5 -91.5t160 -33q117 0 204.5 69.5t131.5 184.5l131 -58q-43 -139 -166.5 -233t-269.5 -102l-49 -93q17 3 31 3q71 0 116.5 -47t45.5 -119q0 -83 -60.5 -124.5t-144.5 -41.5
q-87 0 -145 44.5t-62 127.5z" />
    <glyph glyph-name="egrave" unicode="&#xe8;" horiz-adv-x="1158" 
d="M539 1255l-212 301h212l127 -301h-127zM896 312l158 -67q-75 -137 -183.5 -200t-264.5 -63q-235 0 -376 154t-141 396q0 113 33 213t95 177.5t160 122.5t219 45q115 0 206 -41t149.5 -113t89.5 -168.5t31 -210.5v-55h-807q2 -170 89 -274t254 -104q97 0 170.5 49
t117.5 139zM271 639h625q-8 145 -84 227t-213 82q-141 0 -222.5 -84.5t-105.5 -224.5z" />
    <glyph glyph-name="eacute" unicode="&#xe9;" horiz-adv-x="1158" 
d="M514 1255l127 301h212l-212 -301h-127zM896 312l158 -67q-75 -137 -183.5 -200t-264.5 -63q-235 0 -376 154t-141 396q0 113 33 213t95 177.5t160 122.5t219 45q115 0 206 -41t149.5 -113t89.5 -168.5t31 -210.5v-55h-807q2 -170 89 -274t254 -104q97 0 170.5 49
t117.5 139zM271 639h625q-8 145 -84 227t-213 82q-141 0 -222.5 -84.5t-105.5 -224.5z" />
    <glyph glyph-name="ecircumflex" unicode="&#xea;" horiz-adv-x="1158" 
d="M294 1255l220 295h154l218 -295h-125l-173 154l-173 -154h-121zM896 312l158 -67q-75 -137 -183.5 -200t-264.5 -63q-235 0 -376 154t-141 396q0 113 33 213t95 177.5t160 122.5t219 45q115 0 206 -41t149.5 -113t89.5 -168.5t31 -210.5v-55h-807q2 -170 89 -274
t254 -104q97 0 170.5 49t117.5 139zM271 639h625q-8 145 -84 227t-213 82q-141 0 -222.5 -84.5t-105.5 -224.5z" />
    <glyph glyph-name="edieresis" unicode="&#xeb;" horiz-adv-x="1156" 
d="M738 1278q-44 0 -75 32t-31 78t30 77t74 31q46 0 79.5 -32.5t33.5 -76.5t-33 -76.5t-78 -32.5zM415 1278q-44 0 -75.5 31.5t-31.5 77.5t31.5 77.5t75.5 31.5q45 0 77.5 -32.5t32.5 -76.5t-32.5 -76.5t-77.5 -32.5zM896 312l158 -67q-147 -263 -445 -263q-120 0 -219 43.5
t-164 118.5t-101 175t-36 214q0 153 60 279t176 202t266 76q105 0 187.5 -30.5t137 -84t90 -129t51 -160.5t15.5 -184h-807q-2 -166 89 -272t255 -106q91 0 168.5 52.5t118.5 135.5zM271 639h625q-5 145 -83 227t-222 82q-132 0 -218 -87.5t-102 -221.5z" />
    <glyph glyph-name="igrave" unicode="&#xec;" horiz-adv-x="517" 
d="M206 1255l-215 301h215l127 -301h-127zM173 0v1071h170v-1071h-170z" />
    <glyph glyph-name="iacute" unicode="&#xed;" horiz-adv-x="517" 
d="M181 1255l127 301h213l-213 -301h-127zM173 0v1071h170v-1071h-170z" />
    <glyph glyph-name="icircumflex" unicode="&#xee;" horiz-adv-x="517" 
d="M-42 1255l223 295h154l219 -295h-125l-174 154l-174 -154h-123zM173 0v1071h170v-1071h-170z" />
    <glyph glyph-name="idieresis" unicode="&#xef;" horiz-adv-x="520" 
d="M304 1387q0 45 32 77t76 32q45 0 78 -32.5t33 -76.5t-33 -76.5t-78 -32.5q-44 0 -76 32t-32 77zM-5 1387q0 45 33 77t78 32q44 0 76 -32.5t32 -76.5t-32 -76.5t-76 -32.5q-45 0 -78 32t-33 77zM176 0v1071h170v-1071h-170z" />
    <glyph glyph-name="eth" unicode="&#xf0;" horiz-adv-x="1232" 
d="M376 1174l-60 98l199 117q-98 86 -254 194h219q83 -44 172 -113l170 101l60 -101l-137 -79q179 -167 288 -376.5t109 -432.5v-45q0 -154 -65 -280t-186.5 -200.5t-275.5 -74.5q-115 0 -213.5 43t-167 116.5t-107 174.5t-38.5 215q0 106 33.5 206t93.5 179t152 126.5
t201 47.5q197 0 317 -148q-98 194 -281 367zM611 124q115 0 197 56.5t120 147.5t38 207q0 82 -20.5 154.5t-61 131t-109 93t-157.5 34.5q-169 0 -261 -115.5t-92 -289.5q0 -87 20 -161t60.5 -132.5t108.5 -92t157 -33.5z" />
    <glyph glyph-name="ntilde" unicode="&#xf1;" horiz-adv-x="1220" 
d="M415 1264h-123q9 92 62.5 164.5t135.5 72.5q25 0 51 -8.5t41.5 -17t42.5 -25.5q58 -37 90 -37t59 31q20 28 26 61h123q-8 -91 -62.5 -164t-136.5 -73q-53 0 -134 50q-61 38 -91 38q-36 0 -59 -30q-19 -22 -25 -62zM169 0v1071h170v-170q44 92 139.5 140.5t204.5 48.5
q195 0 296 -117.5t101 -315.5v-657h-170v670q0 272 -272 272q-132 0 -215.5 -80.5t-83.5 -212.5v-649h-170z" />
    <glyph glyph-name="ograve" unicode="&#xf2;" horiz-adv-x="1232" 
d="M564 1255l-213 301h213l127 -301h-127zM607 -18q-156 0 -277 74.5t-185 200t-64 278.5q0 157 67.5 283.5t190 199t278.5 72.5q157 0 278.5 -74t186 -199t64.5 -278q0 -157 -68.5 -284.5t-192 -200t-278.5 -72.5zM611 124q89 0 159 33.5t113 91.5t65 131t22 156
q0 177 -94.5 294.5t-267.5 117.5q-89 0 -158 -33.5t-110 -91.5t-62 -131t-21 -157q0 -181 91.5 -296t262.5 -115z" />
    <glyph glyph-name="oacute" unicode="&#xf3;" horiz-adv-x="1232" 
d="M540 1255l127 301h213l-213 -301h-127zM607 -18q-156 0 -277 74.5t-185 200t-64 278.5q0 157 67.5 283.5t190 199t278.5 72.5q157 0 278.5 -74t186 -199t64.5 -278q0 -157 -68.5 -284.5t-192 -200t-278.5 -72.5zM611 124q89 0 159 33.5t113 91.5t65 131t22 156
q0 177 -94.5 294.5t-267.5 117.5q-89 0 -158 -33.5t-110 -91.5t-62 -131t-21 -157q0 -181 91.5 -296t262.5 -115z" />
    <glyph glyph-name="ocircumflex" unicode="&#xf4;" horiz-adv-x="1232" 
d="M319 1255l221 295h153l219 -295h-124l-175 154l-174 -154h-120zM608 -18q-155 0 -276.5 75t-186 200.5t-64.5 277.5q0 116 40 218.5t110.5 176.5t171 117t216.5 43q155 0 276.5 -75t186 -202.5t64.5 -283.5q0 -151 -68.5 -276t-192.5 -198t-277 -73zM613 124
q89 0 158.5 33.5t112 91.5t64.5 131t22 156q0 177 -94 294.5t-265 117.5q-88 0 -157.5 -34t-111.5 -92t-63.5 -131.5t-21.5 -156.5q0 -178 93 -294t263 -116z" />
    <glyph glyph-name="otilde" unicode="&#xf5;" horiz-adv-x="1232" 
d="M423 1264h-123q6 58 29.5 110.5t69.5 89.5t103 37q52 0 121 -44q1 0 2 -1q1 -2 2 -2h1l7 -4q59 -37 90 -37q36 0 57 31q19 24 26 61h123q-8 -91 -62.5 -164t-136.5 -73q-49 0 -124 44q-69 44 -102 44q-35 0 -58 -30q-19 -22 -25 -62zM607 -18q-156 0 -277 74.5t-185 200
t-64 278.5q0 157 67.5 283.5t190 199t278.5 72.5q157 0 278.5 -74t186 -199t64.5 -278q0 -157 -68.5 -284.5t-192 -200t-278.5 -72.5zM611 124q89 0 159 33.5t113 91.5t65 131t22 156q0 177 -94.5 294.5t-267.5 117.5q-89 0 -158 -33.5t-110 -91.5t-62 -131t-21 -157
q0 -181 91.5 -296t262.5 -115z" />
    <glyph glyph-name="odieresis" unicode="&#xf6;" horiz-adv-x="1232" 
d="M806 1278q-44 0 -75.5 31.5t-31.5 77.5t31.5 77.5t75.5 31.5q45 0 78 -32.5t33 -76.5t-33 -76.5t-78 -32.5zM421 1278q-44 0 -75.5 31.5t-31.5 77.5t31.5 77.5t75.5 31.5q45 0 78 -32.5t33 -76.5t-33 -76.5t-78 -32.5zM608 -18q-155 0 -276.5 75t-186 200.5t-64.5 277.5
q0 116 40 218.5t110.5 176.5t171 117t216.5 43q155 0 276.5 -75t186 -202.5t64.5 -283.5q0 -151 -68.5 -276t-192.5 -198t-277 -73zM613 124q89 0 158.5 33.5t112 91.5t64.5 131t22 156q0 177 -94 294.5t-265 117.5q-88 0 -157.5 -34t-111.5 -92t-63.5 -131.5t-21.5 -156.5
q0 -178 93 -294t263 -116z" />
    <glyph glyph-name="divide" unicode="&#xf7;" horiz-adv-x="1078" 
d="M406 1087q0 54 38.5 93t92.5 39t93 -39t39 -92q0 -54 -40 -93t-94 -39q-53 0 -91 38t-38 93zM81 629v143h915v-143h-915zM406 313q0 55 37.5 93t91.5 38q55 0 94.5 -38.5t39.5 -91.5q0 -54 -40 -93t-94 -39q-53 0 -91 38t-38 93z" />
    <glyph glyph-name="oslash" unicode="&#xf8;" horiz-adv-x="1232" 
d="M44 2l158 175q-123 160 -123 350q0 158 65 285.5t187.5 202.5t279.5 75q187 0 324 -103l139 152l90 -78l-143 -158q129 -168 129 -358q0 -159 -65 -286.5t-187 -202t-279 -74.5q-197 0 -333 111l-152 -169zM314 300l519 572q-95 76 -225 76q-110 0 -191.5 -56
t-121.5 -146.5t-40 -200.5q0 -129 59 -245zM910 780l-524 -574q94 -82 232 -82q164 0 260 116t96 284q0 133 -64 256z" />
    <glyph glyph-name="ugrave" unicode="&#xf9;" horiz-adv-x="1232" 
d="M575 1255l-213 301h213l127 -301h-127zM892 0v170q-47 -92 -139 -140t-201 -48q-189 0 -291 110.5t-102 300.5v678h170v-670q0 -272 268 -272q128 0 211.5 82.5t83.5 210.5v649h170v-1071h-170z" />
    <glyph glyph-name="uacute" unicode="&#xfa;" horiz-adv-x="1230" 
d="M548 1255l127 301h213l-213 -301h-127zM890 0v170q-47 -92 -139 -140t-201 -48q-189 0 -291 110.5t-102 300.5v678h170v-670q0 -272 268 -272q128 0 211.5 82.5t83.5 210.5v649h170v-1071h-170z" />
    <glyph glyph-name="ucircumflex" unicode="&#xfb;" horiz-adv-x="1232" 
d="M329 1255l221 295h154l219 -295h-125l-174 154l-174 -154h-121zM892 0v170q-47 -92 -139 -140t-201 -48q-189 0 -291 110.5t-102 300.5v678h170v-670q0 -272 268 -272q128 0 211.5 82.5t83.5 210.5v649h170v-1071h-170z" />
    <glyph glyph-name="udieresis" unicode="&#xfc;" horiz-adv-x="1232" 
d="M816 1278q-44 0 -75 32t-31 78t30 77t74 31q46 0 79.5 -32t33.5 -76q0 -43 -33 -76.5t-78 -33.5zM431 1278q-44 0 -75 32t-31 78t30 77t74 31q46 0 79.5 -32t33.5 -76q0 -43 -33 -76.5t-78 -33.5zM892 0v170q-47 -92 -139 -140t-201 -48q-189 0 -291 110.5t-102 300.5
v678h170v-670q0 -272 268 -272q128 0 211.5 82.5t83.5 210.5v649h170v-1071h-170z" />
    <glyph glyph-name="yacute" unicode="&#xfd;" horiz-adv-x="1078" 
d="M478 1255l127 301h213l-213 -301h-127zM265 -373l203 484l-420 960h182l328 -768l297 768h174l-592 -1444h-172z" />
    <glyph glyph-name="thorn" unicode="&#xfe;" horiz-adv-x="1279" 
d="M169 -373v1956h170v-692q56 91 155.5 145t207.5 54q152 0 264 -74t167.5 -197t55.5 -278q0 -111 -30.5 -210.5t-89 -178t-153.5 -124.5t-214 -46q-114 0 -211.5 50t-151.5 145v-550h-170zM679 124q73 0 130.5 21.5t95 58t62.5 88.5t35.5 109t10.5 123q0 67 -11 127
t-36 115t-63 95t-96.5 63.5t-131.5 23.5q-114 0 -192.5 -56t-114 -147.5t-35.5 -211.5q0 -86 19.5 -158t59.5 -129t108.5 -89.5t158.5 -32.5z" />
    <glyph glyph-name="ydieresis" unicode="&#xff;" horiz-adv-x="1078" 
d="M745 1278q-44 0 -75.5 31.5t-31.5 77.5t31.5 77.5t75.5 31.5q45 0 77.5 -32.5t32.5 -76.5t-32.5 -76.5t-77.5 -32.5zM360 1278q-44 0 -75.5 31.5t-31.5 77.5t31.5 77.5t75.5 31.5q45 0 77.5 -32.5t32.5 -76.5t-32.5 -76.5t-77.5 -32.5zM265 -373l203 484l-420 960h182
l328 -768l297 768h174l-592 -1444h-172z" />
    <glyph glyph-name="Amacron" unicode="&#x100;" horiz-adv-x="1375" 
d="M415 1610v131h545v-131h-545zM71 0l510 1464h218l505 -1464h-177l-129 381h-630l-129 -381h-168zM415 522h536l-268 780z" />
    <glyph glyph-name="amacron" unicode="&#x101;" horiz-adv-x="1101" 
d="M282 1327v131h536v-131h-536zM771 0v135q-56 -75 -146.5 -114t-191.5 -39q-150 0 -251 82.5t-101 230.5q0 53 15 97.5t39 77t62.5 58t75.5 42t90 28t93.5 17.5t98 9.5t92 4t86.5 0.5h38v7q0 75 -10 127.5t-36.5 96.5t-77.5 66t-128 22q-90 0 -165 -51t-103 -135l-145 63
q56 130 168 197.5t256 67.5q183 0 297 -104.5t114 -283.5v-702h-170zM771 508h-147q-50 0 -93.5 -3.5t-97.5 -17t-92 -35t-64 -61.5t-26 -94q0 -180 196 -180q81 0 153.5 28.5t121.5 89t49 140.5v133z" />
    <glyph glyph-name="Abreve" unicode="&#x102;" horiz-adv-x="1375" 
d="M413 1841h135q7 -59 42.5 -95t94.5 -36t97.5 35.5t48.5 95.5h131q-5 -110 -88 -191t-194 -81q-109 0 -184 79.5t-83 192.5zM71 0l510 1462h218l505 -1462h-177l-129 381h-630l-129 -381h-168zM415 522h536l-268 780z" />
    <glyph glyph-name="abreve" unicode="&#x103;" horiz-adv-x="1101" 
d="M278 1538h135q7 -59 41.5 -95t93.5 -36q60 0 99 36t48 95h131q-4 -111 -86.5 -190.5t-194.5 -79.5q-110 0 -184.5 78.5t-82.5 191.5zM771 0v135q-56 -75 -146.5 -114t-191.5 -39q-150 0 -251 82.5t-101 230.5q0 53 15 97.5t39 77t62.5 58t75.5 42t90 28t93.5 17.5t98 9.5
t92 4t86.5 0.5h38v7q0 75 -10 127.5t-36.5 96.5t-77.5 66t-128 22q-90 0 -165 -51t-103 -135l-145 63q56 130 168 197.5t256 67.5q183 0 297 -104.5t114 -283.5v-702h-170zM771 508h-147q-50 0 -93.5 -3.5t-97.5 -17t-92 -35t-64 -61.5t-26 -94q0 -180 196 -180
q81 0 153.5 28.5t121.5 89t49 140.5v133z" />
    <glyph glyph-name="Aogonek" unicode="&#x104;" horiz-adv-x="1375" 
d="M71 0l509 1464h219l505 -1464h-45q-140 -77 -140 -173q0 -37 23 -57t64 -20q51 0 98 23v-121q-62 -25 -129 -25q-88 0 -152.5 41t-64.5 121q0 68 46 122.5t113 88.5h10l-129 381h-630l-129 -381h-168zM415 522h536l-268 780z" />
    <glyph glyph-name="aogonek" unicode="&#x105;" horiz-adv-x="1152" 
d="M771 0v135q-56 -75 -146 -114t-190 -39q-72 0 -135.5 21t-112.5 59.5t-77.5 100t-28.5 136.5q0 48 11 88.5t34 71t50 55.5t66.5 42.5t74.5 30.5t84 21t85.5 13t87.5 7t82 2.5t77 0.5h38v6q0 74 -10.5 126.5t-37 96.5t-77.5 66t-127 22q-90 0 -165 -50.5t-103 -134.5
l-145 63q59 130 169.5 197t253.5 67q184 0 298 -104.5t114 -281.5v-696l-25 -18q-68 -49 -96 -85t-28 -75q0 -38 23 -59t64 -21q50 0 97 23v-121q-62 -25 -128 -25q-56 0 -103.5 16.5t-81 54.5t-33.5 92q0 67 46.5 122t113.5 88h-19zM771 508h-147q-50 0 -93.5 -3.5
t-97.5 -17t-92 -35t-64 -61.5t-26 -94q0 -180 196 -180q81 0 153.5 28.5t121.5 89t49 140.5v133z" />
    <glyph glyph-name="Cacute" unicode="&#x106;" horiz-adv-x="1500" 
d="M687 1579l115 260h213l-201 -260h-127zM1281 477l135 -59q-75 -190 -241 -313t-365 -123q-166 0 -299.5 57.5t-220.5 159t-133.5 239.5t-46.5 301q0 151 49 286.5t136.5 238t218 163t284.5 60.5q198 0 366 -112t238 -296l-145 -63q-57 150 -178.5 240t-278.5 90
q-103 0 -188 -34.5t-143 -93t-98 -137.5t-58.5 -166.5t-18.5 -181.5q0 -125 33 -233.5t96 -192t164 -132t227 -48.5q153 0 281 100.5t186 249.5z" />
    <glyph glyph-name="cacute" unicode="&#x107;" horiz-adv-x="1171" 
d="M415 1255l127 301h213l-213 -301h-127zM941 376l148 -64q-62 -159 -188.5 -244.5t-297.5 -85.5q-160 0 -278 75t-177 200.5t-59 283.5q0 152 65 276.5t186 198.5t273 74q328 0 469 -297l-155 -68q-35 99 -126 161t-202 62q-82 0 -147 -36t-105 -96.5t-61 -135t-21 -155.5
q0 -112 37.5 -201t118.5 -144.5t194 -55.5q116 0 203.5 69.5t122.5 182.5z" />
    <glyph glyph-name="Ccircumflex" unicode="&#x108;" horiz-adv-x="1500" 
d="M454 1579l221 260h153l220 -260h-125l-174 119l-174 -119h-121zM1281 477l135 -59q-75 -190 -241 -313t-365 -123q-166 0 -299.5 57.5t-220.5 159t-133.5 239.5t-46.5 301q0 151 49 286.5t136.5 238t218 163t284.5 60.5q198 0 366 -112t238 -296l-145 -63
q-57 150 -178.5 240t-278.5 90q-103 0 -188 -34.5t-143 -93t-98 -137.5t-58.5 -166.5t-18.5 -181.5q0 -125 33 -233.5t96 -192t164 -132t227 -48.5q153 0 281 100.5t186 249.5z" />
    <glyph glyph-name="ccircumflex" unicode="&#x109;" horiz-adv-x="1171" 
d="M288 1255l221 295h154l219 -295h-125l-174 154l-174 -154h-121zM941 376l148 -64q-62 -159 -188.5 -244.5t-297.5 -85.5q-160 0 -278 75t-177 200.5t-59 283.5q0 152 65 276.5t186 198.5t273 74q328 0 469 -297l-155 -68q-35 99 -126 161t-202 62q-82 0 -147 -36
t-105 -96.5t-61 -135t-21 -155.5q0 -112 37.5 -201t118.5 -144.5t194 -55.5q116 0 203.5 69.5t122.5 182.5z" />
    <glyph glyph-name="Cdotaccent" unicode="&#x10a;" horiz-adv-x="1500" 
d="M638 1726q0 45 33 78t78 33q46 0 80 -34t34 -79q0 -44 -34 -78t-78 -34q-45 0 -79 34t-34 80zM1281 477l135 -59q-75 -190 -241 -313t-365 -123q-166 0 -299.5 57.5t-220.5 159t-133.5 239.5t-46.5 301q0 151 49 286.5t136.5 238t218 163t284.5 60.5q198 0 366 -112
t238 -296l-145 -63q-57 150 -178.5 240t-278.5 90q-103 0 -188 -34.5t-143 -93t-98 -137.5t-58.5 -166.5t-18.5 -181.5q0 -125 33 -233.5t96 -192t164 -132t227 -48.5q153 0 281 100.5t186 249.5z" />
    <glyph glyph-name="cdotaccent" unicode="&#x10b;" horiz-adv-x="1171" 
d="M583 1294q-46 0 -78.5 33t-32.5 80t32.5 80t78.5 33q47 0 80.5 -33.5t33.5 -79.5t-33.5 -79.5t-80.5 -33.5zM941 376l148 -64q-62 -159 -188.5 -244.5t-297.5 -85.5q-160 0 -278 75t-177 200.5t-59 283.5q0 152 65 276.5t186 198.5t273 74q328 0 469 -297l-155 -68
q-36 100 -122 161.5t-196 61.5q-108 0 -188.5 -63t-118 -158.5t-37.5 -206.5q0 -110 37.5 -197.5t118.5 -143t194 -55.5q116 0 203.5 69.5t122.5 182.5z" />
    <glyph glyph-name="Ccaron" unicode="&#x10c;" horiz-adv-x="1500" 
d="M673 1579l-219 260h125l174 -119l174 119h121l-222 -260h-153zM1281 477l135 -59q-75 -190 -241 -313t-365 -123q-166 0 -299.5 57.5t-220.5 159t-133.5 239.5t-46.5 301q0 151 49 286.5t136.5 238t218 163t284.5 60.5q198 0 366 -112t238 -296l-145 -63
q-57 150 -178.5 240t-278.5 90q-103 0 -188 -34.5t-143 -93t-98 -137.5t-58.5 -166.5t-18.5 -181.5q0 -125 33 -233.5t96 -192t164 -132t227 -48.5q153 0 281 100.5t186 249.5z" />
    <glyph glyph-name="ccaron" unicode="&#x10d;" horiz-adv-x="1171" 
d="M507 1255l-219 295h125l174 -153l174 153h121l-221 -295h-154zM941 376l148 -64q-62 -159 -188.5 -244.5t-297.5 -85.5q-160 0 -278 75t-177 200.5t-59 283.5q0 152 65 276.5t186 198.5t273 74q328 0 469 -297l-155 -68q-35 99 -126 161t-202 62q-82 0 -147 -36
t-105 -96.5t-61 -135t-21 -155.5q0 -112 37.5 -201t118.5 -144.5t194 -55.5q116 0 203.5 69.5t122.5 182.5z" />
    <glyph glyph-name="Dcaron" unicode="&#x10e;" horiz-adv-x="1461" 
d="M566 1579l-219 260h125l174 -119l174 119h121l-221 -260h-154zM181 0v1464h428q350 0 546 -192t196 -536q0 -349 -200 -542.5t-546 -193.5h-424zM359 145h242q281 0 423 158t142 444q0 572 -567 572h-240v-1174z" />
    <glyph glyph-name="dcaron" unicode="&#x10f;" horiz-adv-x="1424" 
d="M939 0v185q-56 -92 -157 -147.5t-210 -55.5q-151 0 -262 73t-166 194t-55 272q0 113 32.5 215t93 181t155.5 126t211 47q118 0 210 -48.5t148 -142.5v657h170v-1556h-170zM1207 1198l25 358h192l-98 -358h-119zM599 124q114 0 193.5 56.5t116 147.5t36.5 206
q0 71 -10.5 130.5t-35 113t-62.5 90.5t-95.5 58.5t-130.5 21.5q-91 0 -159.5 -32.5t-108 -90t-59 -129t-19.5 -157.5q0 -82 18 -153.5t55.5 -131.5t104.5 -95t156 -35z" />
    <glyph glyph-name="Dcroat" unicode="&#x110;" horiz-adv-x="1502" 
d="M222 0v666h-155v137h155v661h428q342 0 542 -190t200 -529q0 -354 -196 -549.5t-550 -195.5h-424zM400 145h242q273 0 419 154.5t146 429.5q0 286 -141.5 438t-425.5 152h-240v-516h424v-137h-424v-521z" />
    <glyph glyph-name="dcroat" unicode="&#x111;" horiz-adv-x="1279" 
d="M939 0v185q-56 -92 -157 -147.5t-210 -55.5q-151 0 -262 73t-166 194t-55 272q0 113 32.5 215t93 181t155.5 126t211 47q118 0 210 -48.5t148 -142.5v361h-364v124h364v199h170v-199h154v-124h-154v-1260h-170zM599 124q114 0 193.5 56.5t116 147.5t36.5 206
q0 71 -10.5 130.5t-35 113t-62.5 90.5t-95.5 58.5t-130.5 21.5q-91 0 -159.5 -32.5t-108 -90t-59 -129t-19.5 -157.5q0 -82 18 -153.5t55.5 -131.5t104.5 -95t156 -35z" />
    <glyph glyph-name="Emacron" unicode="&#x112;" horiz-adv-x="1154" 
d="M351 1610v131h545v-131h-545zM181 0v1464h854v-145h-676v-498h545v-145h-545v-531h713v-145h-891z" />
    <glyph glyph-name="emacron" unicode="&#x113;" horiz-adv-x="1156" 
d="M310 1327v131h535v-131h-535zM896 312l158 -67q-73 -130 -186.5 -196.5t-260.5 -66.5q-158 0 -277.5 75t-180 199.5t-60.5 276.5t60 278t175.5 202.5t265.5 76.5q131 0 226.5 -46t150 -129t80 -185.5t25.5 -227.5h-807q0 -167 90 -272.5t253 -105.5q91 0 168.5 52.5
t119.5 135.5zM271 639h625q0 143 -81 226t-225 83q-131 0 -217 -87.5t-102 -221.5z" />
    <glyph glyph-name="Ebreve" unicode="&#x114;" horiz-adv-x="1154" 
d="M364 1841h135q7 -59 41.5 -95t93.5 -36q60 0 99 36t48 95h131q-4 -111 -86.5 -190.5t-193.5 -79.5q-110 0 -185 79t-83 191zM181 0v1464h854v-145h-676v-498h545v-145h-545v-531h713v-145h-891z" />
    <glyph glyph-name="ebreve" unicode="&#x115;" horiz-adv-x="1156" 
d="M304 1538h134q10 -58 46 -94.5t96 -36.5q57 0 94 35t47 96h130q-8 -110 -88 -190t-190 -80t-187.5 79.5t-81.5 190.5zM896 312l158 -67q-147 -263 -448 -263q-158 0 -277.5 75.5t-179.5 199.5t-60 277q0 152 59.5 278t175 202t266.5 76q131 0 226.5 -46t150 -128.5
t80 -185t25.5 -228.5h-807q0 -167 90 -272.5t253 -105.5q91 0 168.5 52.5t119.5 135.5zM271 641h625q0 143 -81 225t-225 82q-131 0 -216.5 -87t-102.5 -220z" />
    <glyph glyph-name="Edotaccent" unicode="&#x116;" horiz-adv-x="1154" 
d="M622 1612q-46 0 -78.5 32t-32.5 80q0 47 33 80t80 33q46 0 79 -33t33 -80q0 -46 -33.5 -79t-80.5 -33zM181 0v1464h854v-145h-676v-498h545v-145h-545v-531h713v-145h-891z" />
    <glyph glyph-name="edotaccent" unicode="&#x117;" horiz-adv-x="1156" 
d="M577 1294q-46 0 -78.5 33t-32.5 80t32.5 80t78.5 33q47 0 80.5 -33.5t33.5 -79.5t-33.5 -79.5t-80.5 -33.5zM896 312l158 -67q-147 -263 -447 -263q-119 0 -217.5 43.5t-164 118.5t-101 175t-35.5 214q0 153 60 279t176 202t266 76q105 0 187.5 -30.5t137 -84t90 -129
t51 -160.5t15.5 -184h-807q0 -167 90.5 -272.5t253.5 -105.5q90 0 167.5 52.5t119.5 135.5zM271 639h625q0 143 -80.5 226t-224.5 83q-132 0 -218 -87.5t-102 -221.5z" />
    <glyph glyph-name="Eogonek" unicode="&#x118;" horiz-adv-x="1195" 
d="M145 0v1464h927v-145h-747v-500h613v-137h-613v-537h782v-145h-106q-139 -94 -139 -186q0 -84 98 -84q45 0 85 17v-95q-49 -25 -132 -25q-81 0 -140 39t-59 116q0 123 161 218h-730z" />
    <glyph glyph-name="eogonek" unicode="&#x119;" horiz-adv-x="1158" 
d="M923 -227v-121q-60 -25 -130 -25q-87 0 -150.5 41t-63.5 122q0 63 40 115t101 85q-61 -8 -113 -8q-235 0 -376.5 154t-141.5 397q0 113 33 212.5t95 177t160 122.5t219 45q153 0 262 -71t161.5 -190t52.5 -272v-55h-807q0 -172 87 -275t257 -103q96 0 180.5 49t127.5 133
l147 -63q-23 -54 -111 -144l-138 -138q-75 -83 -75 -140q0 -34 22.5 -52.5t62.5 -18.5q47 0 98 23zM271 639h625q-8 146 -84.5 227.5t-220.5 81.5q-135 0 -215.5 -85t-104.5 -224z" />
    <glyph glyph-name="Ecaron" unicode="&#x11a;" horiz-adv-x="1154" 
d="M554 1579l-219 260h125l174 -119l174 119h121l-221 -260h-154zM181 0v1464h854v-145h-676v-498h545v-145h-545v-531h713v-145h-891z" />
    <glyph glyph-name="ecaron" unicode="&#x11b;" horiz-adv-x="1156" 
d="M500 1255l-218 295h125l173 -153l173 153h121l-221 -295h-153zM896 312l158 -67q-73 -130 -186.5 -196.5t-260.5 -66.5q-158 0 -277.5 75t-180 199.5t-60.5 276.5t60 278t175.5 202.5t265.5 76.5q131 0 226.5 -46t150 -129t80 -185.5t25.5 -227.5h-807q0 -167 90 -272.5
t253 -105.5q91 0 168.5 52.5t119.5 135.5zM271 639h625q0 143 -81 226t-225 83q-131 0 -217 -87.5t-102 -221.5z" />
    <glyph glyph-name="Gcircumflex" unicode="&#x11c;" horiz-adv-x="1566" 
d="M486 1579l222 260h153l219 -260h-125l-174 119l-174 -119h-121zM851 571v148h602v-479q-257 -258 -621 -258q-224 0 -389 98t-249 268t-84 391q0 210 88.5 380t252.5 269t374 99q203 0 357.5 -94t237.5 -274l-163 -71q-60 136 -176 216t-265 80q-96 0 -180.5 -34.5
t-146 -94.5t-106.5 -139t-67 -168.5t-22 -182.5q0 -127 34.5 -235.5t100 -190t168.5 -128t233 -46.5q129 0 247.5 45.5t201.5 132.5v268h-428z" />
    <glyph glyph-name="gcircumflex" unicode="&#x11d;" horiz-adv-x="1300" 
d="M353 1255l222 295h153l219 -295h-125l-174 154l-174 -154h-121zM112 -131l135 59q43 -91 138.5 -133.5t207.5 -42.5q164 0 265.5 85.5t101.5 245.5v157q-60 -94 -164.5 -149.5t-218.5 -55.5q-145 0 -257.5 71t-171.5 188t-59 258q0 145 62.5 267.5t178 196.5t258.5 74
q115 0 214.5 -49.5t157.5 -142.5v173h170v-998q0 -114 -42.5 -203.5t-117 -146t-171.5 -85.5t-210 -29q-76 0 -144.5 14t-131.5 43.5t-115 81t-86 121.5zM605 178q168 0 264.5 111.5t96.5 281.5q0 165 -92.5 270.5t-252.5 105.5q-113 0 -195.5 -55.5t-121.5 -144t-39 -197.5
q0 -150 96.5 -261t243.5 -111z" />
    <glyph glyph-name="Gbreve" unicode="&#x11e;" horiz-adv-x="1566" 
d="M509 1841h135q7 -59 42.5 -95t94.5 -36q58 0 96 36t50 95h131q-4 -110 -86 -190t-193 -80t-188.5 79t-81.5 191zM851 571v148h602v-479q-257 -258 -621 -258q-224 0 -389 98t-249 268t-84 391q0 210 88.5 380t252.5 269t374 99q203 0 357.5 -94t237.5 -274l-163 -71
q-60 136 -176 216t-265 80q-96 0 -180.5 -34.5t-146 -94.5t-106.5 -139t-67 -168.5t-22 -182.5q0 -127 34.5 -235.5t100 -190t168.5 -128t233 -46.5q129 0 247.5 45.5t201.5 132.5v268h-428z" />
    <glyph glyph-name="gbreve" unicode="&#x11f;" horiz-adv-x="1300" 
d="M376 1538h135q7 -59 43 -95t96 -36q59 0 96.5 35t47.5 96h131q-8 -111 -88.5 -190.5t-190.5 -79.5q-111 0 -188.5 79t-81.5 191zM112 -131l135 59q43 -91 138.5 -133.5t207.5 -42.5q164 0 265.5 85.5t101.5 245.5v157q-60 -94 -164.5 -149.5t-218.5 -55.5
q-145 0 -257.5 71t-171.5 188t-59 258q0 145 62.5 267.5t178 196.5t258.5 74q115 0 214.5 -49.5t157.5 -142.5v173h170v-998q0 -114 -42.5 -203.5t-117 -146t-171.5 -85.5t-210 -29q-76 0 -144.5 14t-131.5 43.5t-115 81t-86 121.5zM605 178q168 0 264.5 111.5t96.5 281.5
q0 165 -92.5 270.5t-252.5 105.5q-113 0 -195.5 -55.5t-121.5 -144t-39 -197.5q0 -150 96.5 -261t243.5 -111z" />
    <glyph glyph-name="Gdotaccent" unicode="&#x120;" horiz-adv-x="1566" 
d="M783 1612q-44 0 -78 34t-34 80q0 44 33.5 77.5t78.5 33.5q46 0 79.5 -33.5t33.5 -79.5q0 -45 -34 -78.5t-79 -33.5zM851 571v148h602v-479q-257 -258 -621 -258q-224 0 -389 98t-249 268t-84 391q0 210 88.5 380t252.5 269t374 99q203 0 357.5 -94t237.5 -274l-163 -71
q-60 136 -176 216t-265 80q-96 0 -180.5 -34.5t-146 -94.5t-106.5 -139t-67 -168.5t-22 -182.5q0 -127 34.5 -235.5t100 -190t168.5 -128t233 -46.5q129 0 247.5 45.5t201.5 132.5v268h-428z" />
    <glyph glyph-name="gdotaccent" unicode="&#x121;" horiz-adv-x="1300" 
d="M646 1294q-45 0 -76.5 33t-31.5 80t31.5 80t76.5 33q47 0 82 -34t35 -79t-35 -79t-82 -34zM112 -131l135 59q43 -91 138.5 -133.5t207.5 -42.5q164 0 265.5 85.5t101.5 245.5v157q-60 -94 -164.5 -149.5t-218.5 -55.5q-145 0 -257.5 71t-171.5 188t-59 258
q0 145 62.5 267.5t178 196.5t258.5 74q115 0 214.5 -49.5t157.5 -142.5v173h170v-998q0 -114 -42.5 -203.5t-117 -146t-171.5 -85.5t-210 -29q-76 0 -144.5 14t-131.5 43.5t-115 81t-86 121.5zM605 178q168 0 264.5 111.5t96.5 281.5q0 165 -92.5 270.5t-252.5 105.5
q-113 0 -195.5 -55.5t-121.5 -144t-39 -197.5q0 -150 96.5 -261t243.5 -111z" />
    <glyph glyph-name="uni0122" unicode="&#x122;" horiz-adv-x="1566" 
d="M851 571v148h602v-479q-257 -258 -621 -258q-224 0 -389 98t-249 268t-84 391q0 210 88.5 379.5t252.5 268t374 98.5q203 0 357.5 -93.5t237.5 -272.5l-163 -71q-60 136 -175.5 215t-265.5 79q-120 0 -220.5 -53t-165 -140.5t-100.5 -197t-36 -226.5q0 -127 34.5 -235.5
t100 -190t168.5 -128t233 -46.5q129 0 247.5 45.5t201.5 132.5v268h-428zM634 -397l119 321l154 -49l-179 -326z" />
    <glyph glyph-name="uni0123" unicode="&#x123;" horiz-adv-x="1300" 
d="M513 1284l202 307l104 -53l-144 -327zM112 -131l135 59q43 -91 138.5 -133.5t207.5 -42.5q164 0 265.5 85.5t101.5 245.5v157q-60 -94 -164.5 -149.5t-218.5 -55.5q-145 0 -257.5 71t-171.5 188t-59 258q0 145 62.5 267.5t178 196.5t258.5 74q115 0 214.5 -49.5
t157.5 -142.5v173h170v-998q0 -114 -42.5 -203.5t-117 -146t-171.5 -85.5t-210 -29q-76 0 -144.5 14t-131.5 43.5t-115 81t-86 121.5zM605 178q168 0 264.5 111.5t96.5 281.5q0 165 -92.5 270.5t-252.5 105.5q-113 0 -195.5 -55.5t-121.5 -144t-39 -197.5q0 -150 96.5 -261
t243.5 -111z" />
    <glyph glyph-name="Hcircumflex" unicode="&#x124;" horiz-adv-x="1510" 
d="M458 1579l221 260h154l219 -260h-125l-174 119l-174 -119h-121zM181 0v1464h178v-663h791v663h178v-1464h-178v651h-791v-651h-178z" />
    <glyph glyph-name="hcircumflex" unicode="&#x125;" horiz-adv-x="1220" 
d="M341 1659l221 287h154l219 -287h-125l-174 145l-174 -145h-121zM169 0v1556h170v-655q44 92 139.5 140.5t204.5 48.5q195 0 297 -117.5t102 -315.5v-657h-170v670q0 272 -274 272q-132 0 -215.5 -80.5t-83.5 -212.5v-649h-170z" />
    <glyph glyph-name="Hbar" unicode="&#x126;" horiz-adv-x="1510" 
d="M181 0v1010h-143v137h143v317h178v-317h791v317h178v-317h144v-137h-144v-1010h-178v651h-791v-651h-178zM359 801h791v209h-791v-209z" />
    <glyph glyph-name="hbar" unicode="&#x127;" horiz-adv-x="1220" 
d="M169 0v1260h-156v124h156v172h170v-172h365v-124h-365v-359q44 92 139.5 140.5t204.5 48.5q195 0 296 -117.5t101 -315.5v-657h-170v670q0 272 -272 272q-132 0 -215.5 -80.5t-83.5 -212.5v-649h-170z" />
    <glyph glyph-name="Itilde" unicode="&#x128;" horiz-adv-x="562" 
d="M91 1581h-125q9 93 63 165.5t137 72.5q54 0 137 -51q61 -37 90 -37q36 0 57 31q19 24 26 61h123q-9 -91 -62.5 -164.5t-135.5 -73.5q-53 0 -132 48q-67 40 -96 40q-34 0 -56 -28t-26 -64zM192 0v1464h178v-1464h-178z" />
    <glyph glyph-name="itilde" unicode="&#x129;" horiz-adv-x="517" 
d="M67 1264h-125q8 93 62 165t135 72q54 0 133 -48q65 -40 94 -40q33 0 60 31q20 28 26 61h123q-7 -59 -30 -110.5t-67.5 -89t-100.5 -37.5q-55 0 -125 44q-72 44 -100 44q-37 0 -60 -30q-19 -22 -25 -62zM173 0v1071h170v-1071h-170z" />
    <glyph glyph-name="Imacron" unicode="&#x12a;" horiz-adv-x="562" 
d="M5 1610v131h547v-131h-547zM192 0v1464h178v-1464h-178z" />
    <glyph glyph-name="imacron" unicode="&#x12b;" horiz-adv-x="504" 
d="M50 1327v131h398v-131h-398zM165 0v1071h170v-1071h-170z" />
    <glyph glyph-name="Ibreve" unicode="&#x12c;" horiz-adv-x="562" 
d="M7 1841h137q9 -60 43.5 -95.5t92.5 -35.5q60 0 99 36t48 95h131q-4 -111 -86.5 -190.5t-193.5 -79.5t-188.5 79t-82.5 191zM192 0v1464h178v-1464h-178z" />
    <glyph glyph-name="ibreve" unicode="&#x12d;" horiz-adv-x="517" 
d="M-17 1538h137q7 -59 42 -95t93 -36q60 0 99 36t49 95h131q-4 -110 -87.5 -190t-195.5 -80q-110 0 -186.5 78.5t-81.5 191.5zM173 0v1071h170v-1071h-170z" />
    <glyph glyph-name="Iogonek" unicode="&#x12e;" horiz-adv-x="588" 
d="M396 -227v-121q-62 -25 -129 -25q-88 0 -152.5 41t-64.5 121q0 68 46 122.5t113 88.5h8v1464h179v-1431q-22 -16 -64 -42q-41 -24 -63 -41.5t-40 -50t-18 -75.5q0 -35 23 -54.5t64 -19.5q51 0 98 23z" />
    <glyph glyph-name="iogonek" unicode="&#x12f;" horiz-adv-x="586" 
d="M305 1296q-48 0 -80 32.5t-32 80.5t32.5 80.5t80.5 32.5t80 -32t32 -79q0 -49 -33 -82t-80 -33zM439 -227v-121q-62 -25 -129 -25q-87 0 -152.5 41.5t-65.5 121.5q0 67 46.5 122t113.5 88h-28v1071h170v-1071q-140 -77 -140 -173q0 -37 23 -57t64 -20q51 0 98 23z" />
    <glyph glyph-name="Idotaccent" unicode="&#x130;" horiz-adv-x="562" 
d="M167 1724q0 49 32 81t79 32q48 0 81 -33t33 -80q0 -46 -33.5 -79t-80.5 -33t-79 32t-32 80zM192 0v1464h178v-1464h-178z" />
    <glyph glyph-name="dotlessi" unicode="&#x131;" horiz-adv-x="517" 
d="M173 0v1071h170v-1071h-170z" />
    <glyph glyph-name="IJ" unicode="&#x132;" horiz-adv-x="1340" 
d="M561 20v148q97 -43 190 -43q126 0 183.5 76.5t57.5 204.5v1058h179v-1067q0 -194 -108 -305.5t-307 -111.5q-116 0 -195 40zM192 0v1464h179v-1464h-179z" />
    <glyph glyph-name="ij" unicode="&#x133;" horiz-adv-x="1039" 
d="M775 1294q-46 0 -78.5 33t-32.5 80t33 80t80 33t80 -33t33 -80q0 -46 -34 -79.5t-81 -33.5zM253 1294q-46 0 -78.5 33t-32.5 80t33 80t80 33t80 -33t33 -80q0 -46 -34 -79.5t-81 -33.5zM537 -391v143q158 8 158 166v1153h170v-1139q0 -164 -82 -243.5t-246 -79.5zM173 0
v1071h170v-1071h-170z" />
    <glyph glyph-name="Jcircumflex" unicode="&#x134;" horiz-adv-x="855" 
d="M294 1579l221 260h154l219 -260h-125l-174 119l-174 -119h-121zM75 20v148q97 -43 190 -43q126 0 184 76.5t58 204.5v1058h178v-1067q0 -193 -106.5 -305t-298.5 -112q-125 0 -205 40z" />
    <glyph glyph-name="jcircumflex" unicode="&#x135;" horiz-adv-x="517" 
d="M-44 1255l223 295h154l219 -295h-125l-174 154l-174 -154h-123zM13 -391v143q160 8 160 166v1153h170v-1139q0 -165 -82 -242.5t-248 -80.5z" />
    <glyph glyph-name="uni0136" unicode="&#x136;" horiz-adv-x="1257" 
d="M181 0v1464h178v-704l637 706h199l-651 -712l684 -754h-215l-654 715v-715h-178zM484 -397l119 321l154 -49l-178 -326z" />
    <glyph glyph-name="uni0137" unicode="&#x137;" horiz-adv-x="1052" 
d="M169 0v1583h170v-1005l444 493h199l-459 -498l498 -573h-207l-475 555v-555h-170zM378 -397l119 321l154 -49l-179 -326z" />
    <glyph glyph-name="kgreenlandic" unicode="&#x138;" horiz-adv-x="1022" 
d="M119 0v1070h170v-532l465 533h199l-480 -538l518 -533h-206l-496 515v-515h-170z" />
    <glyph glyph-name="Lacute" unicode="&#x139;" horiz-adv-x="1132" 
d="M198 1579l114 260h213l-200 -260h-127zM181 0v1464h178v-1319h711v-145h-889z" />
    <glyph glyph-name="lacute" unicode="&#x13a;" horiz-adv-x="519" 
d="M185 1579l115 260h213l-201 -260h-127zM173 0v1419l172 76v-1495h-172z" />
    <glyph glyph-name="uni013B" unicode="&#x13b;" horiz-adv-x="1132" 
d="M181 0v1464h178v-1319h711v-145h-889zM435 -397l119 321l154 -49l-178 -326z" />
    <glyph glyph-name="uni013C" unicode="&#x13c;" horiz-adv-x="519" 
d="M173 0v1499l172 76v-1575h-172zM87 -397l119 321l154 -49l-178 -326z" />
    <glyph glyph-name="Lcaron" unicode="&#x13d;" horiz-adv-x="1132" 
d="M181 0v1464h178v-1319h711v-145h-889zM597 1143l45 321h193l-119 -321h-119z" />
    <glyph glyph-name="lcaron" unicode="&#x13e;" horiz-adv-x="659" 
d="M173 0v1499l172 76v-1575h-172zM443 1225l25 350h193l-99 -350h-119z" />
    <glyph glyph-name="Ldot" unicode="&#x13f;" horiz-adv-x="1132" 
d="M181 0v1464h178v-1319h711v-145h-889zM685 786q0 53 39 92.5t92 39.5q54 0 92.5 -39t38.5 -92t-39 -92.5t-92 -39.5q-52 0 -91.5 39.5t-39.5 91.5z" />
    <glyph glyph-name="ldot" unicode="&#x140;" horiz-adv-x="667" 
d="M173 0v1499l172 76v-1575h-172zM460 750q0 55 39 94t92 39t92 -39t39 -94q0 -53 -38 -91t-93 -38t-93 38t-38 91z" />
    <glyph glyph-name="Lslash" unicode="&#x141;" horiz-adv-x="1173" 
d="M222 0v565l-139 -51v139l139 52v759h178v-694l408 150v-140l-408 -149v-486h711v-145h-889z" />
    <glyph glyph-name="lslash" unicode="&#x142;" horiz-adv-x="560" 
d="M194 0v725l-156 -88v143l156 88v639l172 76v-616l163 94v-143l-163 -95v-823h-172z" />
    <glyph glyph-name="Nacute" unicode="&#x143;" horiz-adv-x="1498" 
d="M683 1579l115 260h213l-201 -260h-127zM181 0v1464h232l733 -1210v1210h170v-1464h-205l-760 1255v-1255h-170z" />
    <glyph glyph-name="nacute" unicode="&#x144;" horiz-adv-x="1220" 
d="M532 1255l127 301h212l-212 -301h-127zM169 0v1071h170v-170q44 92 139.5 140.5t204.5 48.5q195 0 296 -117.5t101 -315.5v-657h-170v670q0 272 -272 272q-132 0 -215.5 -80.5t-83.5 -212.5v-649h-170z" />
    <glyph glyph-name="uni0145" unicode="&#x145;" horiz-adv-x="1498" 
d="M181 0v1464h232l733 -1210v1210h170v-1464h-205l-760 1255v-1255h-170zM542 -397l119 321l153 -49l-178 -326z" />
    <glyph glyph-name="uni0146" unicode="&#x146;" horiz-adv-x="1220" 
d="M169 0v1071h170v-170q44 92 139.5 140.5t204.5 48.5q195 0 296 -117.5t101 -315.5v-657h-170v670q0 272 -272 272q-132 0 -215.5 -80.5t-83.5 -212.5v-649h-170zM435 -397l119 321l154 -49l-178 -326z" />
    <glyph glyph-name="Ncaron" unicode="&#x147;" horiz-adv-x="1498" 
d="M681 1579l-219 260h125l174 -119l174 119h121l-221 -260h-154zM181 0v1464h232l733 -1210v1210h170v-1464h-205l-760 1255v-1255h-170z" />
    <glyph glyph-name="ncaron" unicode="&#x148;" horiz-adv-x="1220" 
d="M529 1255l-219 295h125l174 -153l174 153h121l-221 -295h-154zM169 0v1071h170v-170q44 92 139.5 140.5t204.5 48.5q195 0 296 -117.5t101 -315.5v-657h-170v670q0 272 -272 272q-132 0 -215.5 -80.5t-83.5 -212.5v-649h-170z" />
    <glyph glyph-name="napostrophe" unicode="&#x149;" horiz-adv-x="1220" 
d="M-95 1053l184 432l162 -74l-242 -412zM169 0v1071h170v-170q44 92 139.5 140.5t204.5 48.5q195 0 296 -117.5t101 -315.5v-657h-170v670q0 272 -272 272q-132 0 -215.5 -80.5t-83.5 -212.5v-649h-170z" />
    <glyph glyph-name="Eng" unicode="&#x14a;" horiz-adv-x="1478" 
d="M181 0v1464h232l712 -1163v1163h170v-1444q0 -194 -106 -304.5t-299 -110.5q-129 0 -205 39v147q93 -41 188 -41q120 0 184 66.5t64 181.5l-770 1257v-1255h-170z" />
    <glyph glyph-name="eng" unicode="&#x14b;" horiz-adv-x="1220" 
d="M169 0v1071h170v-170q44 92 139.5 140.5t204.5 48.5q100 0 173.5 -32t117.5 -91t65 -136t21 -174v-725q0 -164 -82 -243.5t-246 -79.5v143q76 0 117 44.5t41 121.5v752q0 272 -242 272q-139 0 -224 -80.5t-85 -212.5v-649h-170z" />
    <glyph glyph-name="Omacron" unicode="&#x14c;" horiz-adv-x="1656" 
d="M554 1610v131h545v-131h-545zM836 -18q-156 0 -292 57.5t-230.5 156t-149 235.5t-54.5 292q0 214 87 386t250.5 273t375.5 101q158 0 293.5 -58t229 -157t146.5 -235t53 -290q0 -157 -50 -296t-140.5 -242t-224.5 -163t-294 -60zM841 129q100 0 185 31.5t146.5 87
t104 131.5t63.5 165t21 188q0 124 -33.5 232t-98 192.5t-167.5 133.5t-233 49q-127 0 -230 -47t-169 -128t-101 -187.5t-35 -228.5q0 -124 36.5 -235.5t104.5 -197t173 -136t233 -50.5z" />
    <glyph glyph-name="omacron" unicode="&#x14d;" horiz-adv-x="1232" 
d="M347 1327v131h537v-131h-537zM607 -18q-156 0 -277 74.5t-185 200t-64 278.5q0 157 67.5 283.5t190 199t278.5 72.5q157 0 278.5 -74t186 -199t64.5 -278q0 -157 -68.5 -284.5t-192 -200t-278.5 -72.5zM611 124q89 0 159 33.5t113 91.5t65 131t22 156q0 177 -94.5 294.5
t-267.5 117.5q-89 0 -158 -33.5t-110 -91.5t-62 -131t-21 -157q0 -181 91.5 -296t262.5 -115z" />
    <glyph glyph-name="Obreve" unicode="&#x14e;" horiz-adv-x="1656" 
d="M552 1841h135q7 -59 42.5 -95t94.5 -36t98 35.5t48 95.5h131q-4 -111 -86.5 -190.5t-194.5 -79.5q-110 0 -185 79t-83 191zM836 -18q-156 0 -292 57.5t-230.5 156t-149 235.5t-54.5 292q0 214 87 386t250.5 273t375.5 101q158 0 293.5 -58t229 -157t146.5 -235t53 -290
q0 -157 -50 -296t-140.5 -242t-224.5 -163t-294 -60zM841 129q100 0 185 31.5t146.5 87t104 131.5t63.5 165t21 188q0 124 -33.5 232t-98 192.5t-167.5 133.5t-233 49q-127 0 -230 -47t-169 -128t-101 -187.5t-35 -228.5q0 -124 36.5 -235.5t104.5 -197t173 -136t233 -50.5z
" />
    <glyph glyph-name="obreve" unicode="&#x14f;" horiz-adv-x="1232" 
d="M341 1538h135q7 -59 42.5 -95t94.5 -36t98 35.5t48 95.5h131q-4 -111 -86.5 -190.5t-194.5 -79.5q-110 0 -185 79t-83 191zM608 -18q-155 0 -276.5 75t-186 200.5t-64.5 277.5q0 116 40 218.5t110.5 176.5t171 117t216.5 43q155 0 276.5 -75t186 -202.5t64.5 -283.5
q0 -151 -68.5 -276t-192.5 -198t-277 -73zM613 124q89 0 158.5 33.5t112 91.5t64.5 131t22 156q0 177 -94 294.5t-265 117.5q-88 0 -157.5 -34t-111.5 -92t-63.5 -131.5t-21.5 -156.5q0 -178 93 -294t263 -116z" />
    <glyph glyph-name="Ohungarumlaut" unicode="&#x150;" horiz-adv-x="1656" 
d="M912 1579l76 260h195l-148 -260h-123zM597 1579l76 260h194l-147 -260h-123zM836 -18q-156 0 -292 57.5t-230.5 156t-149 235.5t-54.5 292q0 214 87 386t250.5 273t375.5 101q158 0 293.5 -58t229 -157t146.5 -235t53 -290q0 -157 -50 -296t-140.5 -242t-224.5 -163
t-294 -60zM841 129q100 0 185 31.5t146.5 87t104 131.5t63.5 165t21 188q0 124 -33.5 232t-98 192.5t-167.5 133.5t-233 49q-127 0 -230 -47t-169 -128t-101 -187.5t-35 -228.5q0 -124 36.5 -235.5t104.5 -197t173 -136t233 -50.5z" />
    <glyph glyph-name="ohungarumlaut" unicode="&#x151;" horiz-adv-x="1232" 
d="M386 1255l82 301h195l-154 -301h-123zM702 1255l81 301h195l-154 -301h-122zM607 -18q-156 0 -277 74.5t-185 200t-64 278.5q0 157 67.5 283.5t190 199t278.5 72.5q157 0 278.5 -74t186 -199t64.5 -278q0 -157 -68.5 -284.5t-192 -200t-278.5 -72.5zM611 124
q89 0 159 33.5t113 91.5t65 131t22 156q0 177 -94.5 294.5t-267.5 117.5q-89 0 -158 -33.5t-110 -91.5t-62 -131t-21 -157q0 -181 91.5 -296t262.5 -115z" />
    <glyph glyph-name="OE" unicode="&#x152;" horiz-adv-x="1992" 
d="M1189 145h721v-145h-1059q-225 0 -391.5 83.5t-258 246.5t-91.5 389q0 355 195 550t550 195h1018v-145h-684v-498h553v-145h-553v-531zM1011 145v1174h-152q-278 0 -421.5 -154t-143.5 -438q0 -281 141.5 -431.5t425.5 -150.5h150z" />
    <glyph glyph-name="oe" unicode="&#x153;" horiz-adv-x="2033" 
d="M1807 300l132 -55q-59 -128 -184 -195.5t-273 -67.5q-145 0 -260 65t-172 192q-62 -126 -177.5 -191.5t-258.5 -65.5q-153 0 -273.5 72.5t-186 196.5t-65.5 275q0 157 62 284.5t181.5 203.5t275.5 76q146 0 264.5 -67t177.5 -192q58 124 167.5 191.5t247.5 67.5
q155 0 265.5 -71t163.5 -190t53 -272v-55h-807q0 -170 88 -274t253 -104q106 0 196 44.5t130 131.5zM610 124q115 0 197.5 56.5t120.5 148t38 206.5q0 82 -21 154.5t-62 131.5t-110.5 93t-158.5 34q-86 0 -154 -32.5t-110.5 -89.5t-64.5 -131t-22 -161q0 -84 20.5 -156
t61 -129.5t108.5 -91t157 -33.5zM1146 639h627q-10 147 -86 228t-222 81q-134 0 -216 -85.5t-103 -223.5z" />
    <glyph glyph-name="Racute" unicode="&#x154;" horiz-adv-x="1322" 
d="M557 1579l115 260h212l-201 -260h-126zM181 -2v1466h483q103 0 191.5 -22.5t161.5 -69t115.5 -128t42.5 -190.5q0 -167 -96.5 -271t-266.5 -136l449 -649h-199l-435 637h-267v-637h-179zM360 778h316q145 0 232.5 65t87.5 206q0 77 -22.5 131t-66.5 84.5t-100 43.5
t-131 13h-316v-543z" />
    <glyph glyph-name="racute" unicode="&#x155;" horiz-adv-x="765" 
d="M281 1255l127 301h213l-213 -301h-127zM169 0v1071h170v-192q114 211 352 211v-160q-181 -6 -266.5 -84.5t-85.5 -257.5v-588h-170z" />
    <glyph glyph-name="uni0156" unicode="&#x156;" horiz-adv-x="1322" 
d="M181 -2v1466h483q103 0 191.5 -22.5t161.5 -69t115.5 -128t42.5 -190.5q0 -167 -96.5 -271t-266.5 -136l449 -649h-199l-435 637h-267v-637h-179zM360 778h316q145 0 232.5 65t87.5 206q0 77 -22.5 131t-66.5 84.5t-100 43.5t-131 13h-316v-543zM461 -399l119 321
l152 -49l-177 -326z" />
    <glyph glyph-name="uni0157" unicode="&#x157;" horiz-adv-x="765" 
d="M169 0v1071h170v-192q114 211 352 211v-160q-181 -6 -266.5 -84.5t-85.5 -257.5v-588h-170zM77 -397l119 321l153 -49l-178 -326z" />
    <glyph glyph-name="Rcaron" unicode="&#x158;" horiz-adv-x="1322" 
d="M555 1579l-219 260h125l174 -119l173 119h121l-221 -260h-153zM181 -2v1466h483q103 0 191.5 -22.5t161.5 -69t115.5 -128t42.5 -190.5q0 -167 -96.5 -271t-266.5 -136l449 -649h-199l-435 637h-267v-637h-179zM360 778h316q145 0 232.5 65t87.5 206q0 77 -22.5 131
t-66.5 84.5t-100 43.5t-131 13h-316v-543z" />
    <glyph glyph-name="rcaron" unicode="&#x159;" horiz-adv-x="765" 
d="M339 1255l-219 295h125l174 -153l174 153h121l-221 -295h-154zM169 0v1071h170v-192q114 211 352 211v-160q-181 -6 -266.5 -84.5t-85.5 -257.5v-588h-170z" />
    <glyph glyph-name="Sacute" unicode="&#x15a;" horiz-adv-x="1269" 
d="M540 1579l115 260h213l-201 -260h-127zM95 378l160 69q47 -152 150.5 -236.5t242.5 -84.5q140 0 235 79t95 197q0 33 -7 61.5t-17 50.5t-30 41.5t-36.5 33t-47 27t-51 21.5t-58.5 18t-59 15t-64 14q-175 38 -250 73q-162 74 -195 232q-9 44 -9 96q0 169 129.5 283.5
t321.5 114.5q173 0 290.5 -83.5t193.5 -254.5l-147 -66q-51 124 -136.5 192t-200.5 68q-134 0 -209.5 -64t-75.5 -179q0 -57 22.5 -101t49 -69t86 -48t94 -31.5t113.5 -24.5q3 -1 4 -1q63 -13 96.5 -21t90.5 -25.5t89 -35t72.5 -48.5t61.5 -68t36 -90t15 -118
q0 -179 -148 -306t-358 -127q-213 0 -347.5 97t-201.5 299z" />
    <glyph glyph-name="sacute" unicode="&#x15b;" horiz-adv-x="970" 
d="M394 1255l127 301h213l-213 -301h-127zM81 261l131 57q30 -92 102.5 -143t169.5 -51q101 0 170.5 40.5t69.5 130.5q0 28 -8.5 51.5t-20 40t-35 31.5t-41.5 24t-52.5 19t-55 14.5t-60.5 13.5q-48 10 -73.5 16.5t-68.5 20t-67 27t-55 36.5t-47 49.5t-27.5 65t-11.5 84.5
q0 90 58 161t143 106t176 35q121 0 220.5 -65t158.5 -179l-131 -58q-35 76 -103.5 118t-150.5 42q-52 0 -98.5 -15t-80.5 -52.5t-34 -91.5q0 -34 15.5 -60.5t35.5 -42t61 -30t68 -21.5t82 -18q38 -8 58.5 -12.5t56.5 -14t56.5 -18t50.5 -22.5t48 -29t38.5 -36.5t31 -46
t18 -57t7.5 -69.5q0 -109 -57.5 -185.5t-144.5 -110.5t-192 -34q-149 0 -257 72t-154 207z" />
    <glyph glyph-name="Scircumflex" unicode="&#x15c;" horiz-adv-x="1269" 
d="M327 1579l221 260h154l219 -260h-125l-174 119l-174 -119h-121zM95 378l160 69q47 -152 150.5 -236.5t242.5 -84.5q140 0 235 79t95 197q0 42 -10.5 76.5t-28.5 59.5t-46 45.5t-58 34.5t-69 26t-75.5 20.5t-80.5 17.5h-1q-175 38 -251 72q-163 75 -195 238q-9 43 -9 93
q0 169 129.5 283.5t321.5 114.5q172 0 290 -84t194 -254l-147 -66q-51 124 -136.5 192t-200.5 68q-134 0 -209.5 -63.5t-75.5 -177.5q0 -32 7 -60t17 -49.5t30 -40.5t36.5 -32.5t47.5 -27t51 -21.5t58.5 -18t59.5 -15t64 -15q177 -40 254 -76q165 -76 197 -238q8 -42 8 -90
q0 -179 -148.5 -306t-357.5 -127q-212 0 -347 97t-202 299z" />
    <glyph glyph-name="scircumflex" unicode="&#x15d;" horiz-adv-x="970" 
d="M187 1255l222 295h153l219 -295h-125l-174 154l-174 -154h-121zM81 261l131 57q30 -92 102.5 -143t169.5 -51q47 0 87.5 8.5t76 27.5t56 53t20.5 81q0 24 -5 44.5t-17.5 37t-24.5 29t-34.5 23.5t-38.5 18.5t-46.5 15.5t-48 12.5t-52.5 12.5q-48 11 -74 17.5t-69.5 20.5
t-68.5 27.5t-56 36.5t-47.5 50t-28.5 65t-12 84q0 90 58 161t143 106t176 35q121 0 220.5 -65t158.5 -179l-131 -58q-35 76 -103.5 118t-150.5 42q-83 0 -148 -41t-65 -123q0 -66 56.5 -102.5t206.5 -67.5q154 -31 218 -63q146 -71 146 -238q0 -83 -33 -147.5t-89 -104
t-125 -59.5t-147 -20q-149 0 -257 72t-154 207z" />
    <glyph glyph-name="Scedilla" unicode="&#x15e;" horiz-adv-x="1269" 
d="M433 -309l90 37q12 -31 40 -49.5t62 -18.5q36 0 58.5 20t22.5 50q0 31 -22 52t-53 21q-27 0 -56 -16l-66 57l76 140q-185 11 -303 106t-187 287l160 69q47 -152 150 -236.5t242 -84.5q140 0 235.5 79.5t95.5 196.5q0 33 -7 61t-17 50t-30 41.5t-36 32.5t-47 26.5
t-50.5 21t-58 17.5t-59.5 15t-63 14q-175 37 -251 72q-164 75 -196 238q-9 44 -9 95q0 170 129 284t322 114q172 0 290 -84t194 -254l-147 -66q-51 125 -136.5 192.5t-200.5 67.5q-134 0 -209.5 -64t-75.5 -180q0 -29 4.5 -54.5t16 -46.5t23 -38.5t32 -32t37 -25.5t45 -21.5
l47.5 -17.5t53 -15t54 -12t57 -12q177 -37 254 -71q164 -74 198 -237q9 -45 9 -98q0 -168 -130 -290t-327 -140l-49 -93q15 3 32 3q72 0 116.5 -46t44.5 -122q0 -71 -58 -117.5t-147 -46.5q-76 0 -129.5 35t-69.5 94z" />
    <glyph glyph-name="scedilla" unicode="&#x15f;" horiz-adv-x="970" 
d="M284 -309l90 37q11 -32 38.5 -50t61.5 -18q35 0 58.5 19t23.5 53q0 33 -21 52t-53 19q-27 0 -57 -16l-66 57l76 140q-130 12 -221.5 82.5t-132.5 193.5l131 57q30 -92 102.5 -143t169.5 -51q101 0 170.5 40t69.5 128q0 32 -9 57t-30 44t-40.5 32t-56.5 25t-61 18.5
t-69 17.5q-37 9 -56 13.5t-54 15t-54 18.5t-48 22.5t-45.5 29t-36 36t-29.5 45.5t-17 55.5t-7 67.5q0 90 55 161t138 106t174 35q121 0 220.5 -65t158.5 -179l-131 -58q-35 76 -103 118t-150 42t-143 -41t-61 -125q0 -67 54.5 -101t209.5 -69q47 -11 69.5 -16.5t67 -19.5
t68.5 -27t56.5 -36.5t49.5 -50t29.5 -65t12.5 -84.5q0 -141 -98 -228.5t-244 -100.5l-49 -93q17 3 32 3q72 0 116 -45.5t44 -115.5q0 -84 -62 -127.5t-145 -43.5q-70 0 -125 32.5t-71 96.5z" />
    <glyph glyph-name="Scaron" unicode="&#x160;" horiz-adv-x="1279" 
d="M538 1579l-219 260h124l175 -119l174 119h120l-221 -260h-153zM95 378l148 63q28 -152 134.5 -233.5t276.5 -81.5q144 0 239 78.5t95 197.5q0 52 -13.5 93t-41.5 69.5t-58.5 48.5t-79 35.5t-86.5 24.5t-96 21h-1q-62 12 -94.5 19.5t-88 25t-86.5 34.5t-70 47.5t-59.5 67
t-35 89t-14.5 116.5q0 174 127 282t331 108q169 0 283.5 -82.5t193.5 -255.5l-147 -66q-106 260 -346 260q-127 0 -201.5 -64.5t-74.5 -179.5q0 -41 11.5 -75t27 -57.5t46.5 -44t56 -32t70.5 -24t73.5 -18t81 -15.5q175 -33 251 -66q164 -71 201 -234q12 -52 12 -114
q0 -121 -66.5 -220t-182.5 -156t-257 -57q-228 0 -373.5 103t-185.5 293z" />
    <glyph glyph-name="scaron" unicode="&#x161;" horiz-adv-x="970" 
d="M407 1255l-220 295h125l174 -153l175 153h120l-221 -295h-153zM81 261l131 57q30 -92 102.5 -143t169.5 -51q101 0 170.5 40t69.5 128q0 24 -5 44t-17.5 36.5t-24.5 29t-34.5 23.5t-39 18.5t-47 16t-48 13t-52.5 12.5q-47 11 -71.5 17.5t-67.5 21t-66.5 28t-54 36.5
t-46.5 50t-27.5 65.5t-11.5 84.5q0 90 55 161t138 106t174 35q121 0 220.5 -65t158.5 -179l-131 -58q-35 76 -103.5 118t-150.5 42t-142.5 -41t-60.5 -125q0 -69 57 -105t214 -66q47 -9 82 -18t78 -24.5t73.5 -37.5t57.5 -52t41 -73.5t14 -96.5q0 -81 -33 -145t-88.5 -103
t-125 -59t-147.5 -20q-149 0 -257 72t-154 207z" />
    <glyph glyph-name="uni0162" unicode="&#x162;" horiz-adv-x="1144" 
d="M369 -309l91 37q12 -30 40 -49t62 -19t57 19.5t23 53.5q0 32 -21 51t-53 19q-27 0 -57 -16l-66 57l86 156h-49v1319h-426v145h1031v-145h-426v-1319h-21l-60 -109q16 3 33 3q72 0 116 -45.5t44 -115.5q0 -84 -62 -127.5t-145 -43.5q-70 0 -124 32.5t-73 96.5z" />
    <glyph glyph-name="uni0163" unicode="&#x163;" horiz-adv-x="722" 
d="M182 -291l91 37q12 -30 40 -49t62 -19t57 19.5t23 53.5q0 32 -21 51t-53 19q-27 0 -57 -16l-66 57l84 152q-136 61 -136 254v660h-154v143h154v201l170 74v-275h250v-143h-250v-643q0 -156 140 -156q58 0 124 23v-144q-74 -23 -128 -23l-75 4l-44 -80q16 3 33 3
q72 0 116 -45.5t44 -115.5q0 -83 -62 -127t-146 -44q-70 0 -123.5 32.5t-72.5 96.5z" />
    <glyph glyph-name="Tcaron" unicode="&#x164;" horiz-adv-x="1144" 
d="M493 1579l-220 260h125l174 -119l175 119h120l-221 -260h-153zM482 0v1319h-426v145h1031v-145h-426v-1319h-179z" />
    <glyph glyph-name="tcaron" unicode="&#x165;" horiz-adv-x="722" 
d="M523 1225l25 358h192l-98 -358h-119zM640 152v-144q-65 -22 -142 -22q-139 0 -215.5 72.5t-76.5 209.5v660h-154v143h154v201l170 74v-275h250v-143h-250v-643q0 -71 32 -113.5t101 -42.5q72 0 131 23z" />
    <glyph glyph-name="Tbar" unicode="&#x166;" horiz-adv-x="1144" 
d="M482 0v692h-297v135h297v492h-426v145h1031v-145h-426v-492h297v-135h-297v-692h-179z" />
    <glyph glyph-name="tbar" unicode="&#x167;" horiz-adv-x="722" 
d="M52 573v121h154v234h-154v143h154v201l170 74v-275h250v-143h-250v-234h250v-121h-250v-288q0 -71 32 -113.5t101 -42.5q72 0 131 23v-144q-65 -22 -142 -22q-139 0 -215.5 72.5t-76.5 209.5v305h-154z" />
    <glyph glyph-name="Utilde" unicode="&#x168;" horiz-adv-x="1420" 
d="M517 1581h-123q9 93 62.5 165.5t136.5 72.5q24 0 50 -8.5t41.5 -17t44.5 -25.5q61 -37 89 -37q34 0 55.5 27.5t28.5 64.5h123q-9 -91 -63 -164.5t-136 -73.5q-54 0 -131 47q-68 41 -95 41q-34 0 -56.5 -28t-26.5 -64zM169 1464h178v-910q0 -101 16 -174t54.5 -132.5
t110.5 -89.5t178 -30q88 0 152.5 21.5t105 59.5t65 96.5t34 124t9.5 151.5v883h178v-908q0 -276 -140 -425t-415 -149q-255 0 -390.5 147.5t-135.5 404.5v930z" />
    <glyph glyph-name="utilde" unicode="&#x169;" horiz-adv-x="1232" 
d="M433 1264h-123q9 92 62.5 164.5t135.5 72.5q50 0 116 -38q83 -50 111 -50q36 0 57 31q19 24 26 61h123q-8 -91 -62.5 -164t-135.5 -73q-53 0 -132 48q-67 40 -96 40q-34 0 -56 -28t-26 -64zM892 0v168q-48 -91 -139.5 -138.5t-200.5 -47.5q-188 0 -290.5 109.5
t-102.5 299.5v680h170v-672q0 -272 268 -272q128 0 211.5 83t83.5 211v650h170v-1071h-170z" />
    <glyph glyph-name="Umacron" unicode="&#x16a;" horiz-adv-x="1420" 
d="M437 1610v131h545v-131h-545zM169 1464h178v-909q0 -101 16 -174t54.5 -132.5t110.5 -89.5t178 -30q88 0 152.5 21.5t105 59.5t65 96.5t34 124t9.5 151.5v882h178v-907q0 -276 -140.5 -425.5t-414.5 -149.5q-255 0 -390.5 147.5t-135.5 405.5v929z" />
    <glyph glyph-name="umacron" unicode="&#x16b;" horiz-adv-x="1232" 
d="M357 1327v131h537v-131h-537zM892 0v170q-47 -92 -139 -140t-201 -48q-189 0 -291 110.5t-102 300.5v678h170v-670q0 -272 268 -272q128 0 211.5 82.5t83.5 210.5v649h170v-1071h-170z" />
    <glyph glyph-name="Ubreve" unicode="&#x16c;" horiz-adv-x="1420" 
d="M435 1841h135q9 -60 43.5 -95.5t92.5 -35.5q60 0 99 36t48 95h131q-4 -111 -86.5 -190.5t-194.5 -79.5q-110 0 -185 78.5t-83 191.5zM169 1464h178v-909q0 -101 16 -174t54.5 -132.5t110.5 -89.5t178 -30q88 0 152.5 21.5t105 59.5t65 96.5t34 124t9.5 151.5v882h178
v-907q0 -276 -140.5 -425.5t-414.5 -149.5q-255 0 -390.5 147.5t-135.5 405.5v929z" />
    <glyph glyph-name="ubreve" unicode="&#x16d;" horiz-adv-x="1232" 
d="M351 1538h135q9 -60 43.5 -95.5t92.5 -35.5q60 0 99 36t48 95h131q-4 -111 -86.5 -190.5t-194.5 -79.5q-110 0 -185 78.5t-83 191.5zM892 0v170q-47 -92 -139 -140t-201 -48q-189 0 -291 110.5t-102 300.5v678h170v-670q0 -272 268 -272q128 0 211.5 82.5t83.5 210.5v649
h170v-1071h-170z" />
    <glyph glyph-name="Uring" unicode="&#x16e;" horiz-adv-x="1420" 
d="M491 1726q0 88 65 150.5t153 62.5t154 -63t66 -150q0 -86 -66 -149.5t-154 -63.5q-87 0 -152.5 62t-65.5 151zM710 1608q48 0 78 34.5t30 83.5t-30 83.5t-78 34.5q-47 0 -77.5 -35t-30.5 -83t30.5 -83t77.5 -35zM169 1464h178v-909q0 -101 16 -174t54.5 -132.5
t110.5 -89.5t178 -30q88 0 152.5 21.5t105 59.5t65 96.5t34 124t9.5 151.5v882h178v-907q0 -276 -140 -425.5t-414 -149.5q-256 0 -391.5 147.5t-135.5 405.5v929z" />
    <glyph glyph-name="uring" unicode="&#x16f;" horiz-adv-x="1232" 
d="M400 1376q0 89 65.5 151t153.5 62q89 0 154.5 -62.5t65.5 -150.5q0 -87 -66 -150t-154 -63q-87 0 -153 62.5t-66 150.5zM620 1257q48 0 78 35.5t30 83.5t-30.5 83.5t-77.5 35.5t-78 -35t-31 -83t30.5 -84t78.5 -36zM892 0v170q-47 -92 -139 -140t-201 -48
q-189 0 -291 110.5t-102 300.5v678h170v-670q0 -272 268 -272q128 0 211.5 82.5t83.5 210.5v649h170v-1071h-170z" />
    <glyph glyph-name="Uhungarumlaut" unicode="&#x170;" horiz-adv-x="1420" 
d="M796 1579l75 260h195l-147 -260h-123zM480 1579l76 260h195l-148 -260h-123zM169 1464h178v-909q0 -101 16 -174t54.5 -132.5t110.5 -89.5t178 -30q88 0 152.5 21.5t105 59.5t65 96.5t34 124t9.5 151.5v882h178v-907q0 -276 -140.5 -425.5t-414.5 -149.5
q-255 0 -390.5 147.5t-135.5 405.5v929z" />
    <glyph glyph-name="uhungarumlaut" unicode="&#x171;" horiz-adv-x="1232" 
d="M396 1255l82 301h195l-154 -301h-123zM712 1255l82 301h194l-153 -301h-123zM892 0v170q-47 -92 -139 -140t-201 -48q-189 0 -291 110.5t-102 300.5v678h170v-670q0 -272 268 -272q128 0 211.5 82.5t83.5 210.5v649h170v-1071h-170z" />
    <glyph glyph-name="Uogonek" unicode="&#x172;" horiz-adv-x="1420" 
d="M917 -227v-121q-63 -25 -129 -25q-88 0 -153 41.5t-65 120.5q0 58 36.5 109t90.5 84q-257 0 -392.5 146.5t-135.5 406.5v929h178v-909q0 -80 9 -141.5t33.5 -116.5t64 -91t102.5 -56.5t148 -20.5q109 0 183 32t113.5 95t55.5 140.5t16 185.5v882h178v-907
q0 -211 -81 -343q-20 -34 -47 -63.5t-50.5 -49t-58 -41.5t-54.5 -32.5t-57 -28.5l-92 -50q-78 -52 -78 -120q0 -79 86 -79q48 0 99 23z" />
    <glyph glyph-name="uogonek" unicode="&#x173;" horiz-adv-x="1232" 
d="M892 0v170q-46 -94 -133 -141t-197 -47q-194 0 -298.5 108t-104.5 303v678h170v-670q0 -136 71 -204t207 -68q132 0 208.5 80t76.5 213v649h170v-1059q-33 -20 -55.5 -35t-57.5 -42.5t-54 -57t-19 -57.5q0 -32 24 -51t65 -19q50 0 97 23v-121q-62 -25 -128 -25
q-88 0 -153 41.5t-65 120.5q0 40 18 74.5t51.5 60.5t63 42.5t70.5 33.5h-27z" />
    <glyph glyph-name="Wcircumflex" unicode="&#x174;" horiz-adv-x="1947" 
d="M691 1579l221 260h154l219 -260h-125l-174 119l-174 -119h-121zM468 0l-401 1464h182l315 -1192l353 1192h135l348 -1196l313 1196h166l-391 -1464h-164l-342 1157l-352 -1157h-162z" />
    <glyph glyph-name="wcircumflex" unicode="&#x175;" horiz-adv-x="1662" 
d="M556 1255l221 295h154l219 -295h-125l-174 154l-174 -154h-121zM400 0l-346 1071h185l266 -862l260 862h147l256 -862l265 862h174l-346 -1071h-189l-235 803l-250 -803h-187z" />
    <glyph glyph-name="Ycircumflex" unicode="&#x176;" horiz-adv-x="1199" 
d="M312 1579l222 260h153l219 -260h-125l-174 119l-174 -119h-121zM523 0v629l-479 835h201l373 -690l358 690h178l-452 -837v-627h-179z" />
    <glyph glyph-name="ycircumflex" unicode="&#x177;" horiz-adv-x="1078" 
d="M241 1255l221 295h153l220 -295h-125l-174 154l-174 -154h-121zM265 -373l203 484l-420 960h182l328 -768l297 768h174l-592 -1444h-172z" />
    <glyph glyph-name="Ydieresis" unicode="&#x178;" horiz-adv-x="1199" 
d="M398 1616q-44 0 -75 31.5t-31 77.5t30 77t76 31t78.5 -32t32.5 -76q0 -45 -33 -77t-78 -32zM814 1616q-44 0 -75 31.5t-31 77.5t30 77t75 31q46 0 79 -32.5t33 -76.5t-33 -76t-78 -32zM523 0v629l-479 835h201l373 -690l358 690h178l-452 -837v-627h-179z" />
    <glyph glyph-name="Zacute" unicode="&#x179;" horiz-adv-x="1214" 
d="M525 1579l115 260h213l-201 -260h-127zM54 0v76l854 1243h-780v145h1002v-71l-830 -1241h817v-152h-1063z" />
    <glyph glyph-name="zacute" unicode="&#x17a;" horiz-adv-x="984" 
d="M423 1255l127 301h213l-213 -301h-127zM40 0v74l659 854h-598v143h834v-74l-647 -847h639v-150h-887z" />
    <glyph glyph-name="Zdotaccent" unicode="&#x17b;" horiz-adv-x="1214" 
d="M599 1612q-47 0 -78.5 32t-31.5 80q0 49 31.5 81t78.5 32q48 0 81.5 -32.5t33.5 -78.5q0 -47 -34 -80.5t-81 -33.5zM54 0v76l854 1243h-780v145h1002v-71l-830 -1241h817v-152h-1063z" />
    <glyph glyph-name="zdotaccent" unicode="&#x17c;" horiz-adv-x="984" 
d="M490 1294q-45 0 -77.5 33t-32.5 80t32.5 80t77.5 33q46 0 80.5 -34t34.5 -79t-34.5 -79t-80.5 -34zM40 0v74l659 854h-598v143h834v-74l-647 -847h639v-150h-887z" />
    <glyph glyph-name="Zcaron" unicode="&#x17d;" horiz-adv-x="1214" 
d="M523 1579l-219 260h125l174 -119l174 119h121l-221 -260h-154zM54 0v76l854 1243h-780v145h1002v-71l-830 -1241h817v-152h-1063z" />
    <glyph glyph-name="zcaron" unicode="&#x17e;" horiz-adv-x="984" 
d="M427 1255l-219 295h125l174 -153l174 153h121l-221 -295h-154zM40 0v74l659 854h-598v143h834v-74l-647 -847h639v-150h-887z" />
    <glyph glyph-name="longs" unicode="&#x17f;" horiz-adv-x="668" 
d="M211 0v928h-159v143h159v165q0 172 75.5 255.5t246.5 83.5q81 0 145 -20l-55 -131q-48 8 -83 8q-159 0 -159 -183v-1249h-170z" />
    <glyph glyph-name="florin" unicode="&#x192;" horiz-adv-x="828" 
d="M79 -373l164 1080h-177v139h199l15 120l22 151q16 85 41 148t66 114t103.5 77.5t145.5 26.5q75 0 140 -23v-143q-68 24 -130 24q-47 0 -80.5 -14.5t-54.5 -43.5t-32.5 -61t-21.5 -79l-22 -132l-24 -165h270v-139h-290l-164 -1080h-170z" />
    <glyph glyph-name="uni01F4" unicode="&#x1f4;" horiz-adv-x="1570" 
d="M675 1579l114 260h213l-200 -260h-127zM853 571v148h602v-479q-257 -258 -621 -258q-224 0 -389 98t-249 268t-84 391q0 210 88.5 379.5t252.5 268t374 98.5q203 0 357.5 -93.5t237.5 -272.5l-163 -71q-60 136 -175.5 215t-265.5 79q-120 0 -220.5 -53t-165 -140.5
t-100.5 -197t-36 -226.5q0 -127 34.5 -235.5t100 -190t168.5 -128t233 -46.5q129 0 247.5 45.5t201.5 132.5v268h-428z" />
    <glyph glyph-name="uni01F5" unicode="&#x1f5;" horiz-adv-x="1298" 
d="M478 1255l127 301h213l-213 -301h-127zM111 -131l135 59q43 -91 138.5 -133.5t207.5 -42.5q164 0 265.5 85.5t101.5 245.5v157q-60 -94 -164.5 -149.5t-218.5 -55.5q-145 0 -257.5 71t-171.5 188t-59 258q0 145 62.5 267.5t178 196.5t258.5 74q115 0 214.5 -49.5
t157.5 -142.5v173h170v-998q0 -114 -42.5 -203.5t-117 -146t-171.5 -85.5t-210 -29q-76 0 -144.5 14t-131.5 43.5t-115 81t-86 121.5zM604 178q168 0 264.5 111.5t96.5 281.5q0 165 -92.5 270.5t-252.5 105.5q-113 0 -195.5 -55.5t-121.5 -144t-39 -197.5q0 -150 96.5 -261
t243.5 -111z" />
    <glyph glyph-name="Aringacute" unicode="&#x1fa;" horiz-adv-x="1375" 
d="M634 2019l115 260h213l-201 -260h-127zM482 1747q0 89 65.5 151t153.5 62t154 -63t66 -150t-66 -150t-154 -63t-153.5 62t-65.5 151zM702 1628q47 0 77.5 35.5t30.5 83.5t-30 83.5t-78 35.5t-78.5 -36t-30.5 -84t31 -83t78 -35zM71 0l510 1464h221l502 -1464h-177
l-129 381h-630l-129 -381h-168zM415 522h536l-268 780z" />
    <glyph glyph-name="aringacute" unicode="&#x1fb;" horiz-adv-x="1101" 
d="M503 1698l114 260h214l-202 -260h-126zM337 1397q0 88 65.5 150.5t153.5 62.5q87 0 153 -63t66 -150t-65.5 -150t-154.5 -63q-88 0 -153 62t-65 151zM555 1278q47 0 78 35t31 83t-31 84t-78 36t-77 -35.5t-30 -84.5t30 -83.5t77 -34.5zM771 0v135q-57 -75 -147.5 -114
t-191.5 -39q-150 0 -250.5 83t-100.5 234q0 330 515 330h175v7q0 75 -10 127.5t-36.5 96.5t-77.5 66t-128 22q-90 0 -165 -51t-103 -135l-145 63q56 130 168 197.5t256 67.5q183 0 297 -104.5t114 -283.5v-702h-170zM771 508h-148q-49 0 -92.5 -3.5t-97.5 -17t-92 -35
t-64 -61.5t-26 -94q0 -180 196 -180q81 0 153.5 28.5t121.5 89t49 140.5v133z" />
    <glyph glyph-name="AEacute" unicode="&#x1fc;" horiz-adv-x="1941" 
d="M1171 1579l114 260h213l-201 -260h-126zM56 0l758 1464h1008v-145h-676v-498h545v-145h-545v-531h713v-145h-891v342h-557l-174 -342h-181zM480 481h488v838h-64z" />
    <glyph glyph-name="aeacute" unicode="&#x1fd;" horiz-adv-x="1797" 
d="M831 1255l127 301h213l-213 -301h-127zM267 762l-145 63q65 139 169 202t259 63q114 0 203 -44t133 -139q63 89 156.5 136t203.5 47q116 0 206.5 -41.5t146 -115t84 -168.5t28.5 -208v-51h-776q0 -81 19 -148.5t57 -120.5t103 -83t150 -30q48 0 91 9.5t81.5 30.5
t64.5 58.5t32 87.5l154 -65q-47 -130 -163 -196.5t-260 -66.5q-132 0 -239 56.5t-170 165.5q-73 -117 -174.5 -169.5t-243.5 -52.5q-157 0 -256.5 81t-99.5 234q0 62 18.5 112.5t48.5 85t74.5 60.5t90.5 41t103.5 24t106 12t103.5 3h145v6q0 43 -1.5 74t-7.5 65.5t-16 57.5
t-27.5 45.5t-42 35.5t-60 21t-80.5 8q-95 0 -167 -48.5t-102 -137.5zM941 635h596q-6 145 -78 229t-213 84q-130 0 -209 -89.5t-96 -223.5zM771 506h-153q-367 0 -367 -208q0 -96 52.5 -138.5t150.5 -42.5q83 0 153 26t117 86.5t47 145.5v131z" />
    <glyph glyph-name="Oslashacute" unicode="&#x1fe;" horiz-adv-x="1656" 
d="M753 1579l114 260h213l-200 -260h-127zM161 -68l-92 93l200 219q-159 207 -159 479q0 214 87 386t250.5 273t374.5 101q258 0 447 -144l166 181l92 -93l-162 -178q180 -210 180 -514q0 -154 -50.5 -291t-141 -239.5t-225.5 -162.5t-295 -60q-283 0 -474 168zM384 371
l782 856q-135 112 -340 112q-126 0 -228 -47t-168 -129.5t-101 -192t-35 -235.5q0 -209 90 -364zM1254 1130l-786 -862q140 -139 368 -139q101 0 187 31.5t147.5 87.5t105 132.5t64.5 167t21 190.5q0 231 -107 392z" />
    <glyph glyph-name="oslashacute" unicode="&#x1ff;" horiz-adv-x="1232" 
d="M538 1255l127 301h213l-213 -301h-127zM44 2l158 175q-123 152 -123 350q0 158 65 286t187 202.5t279 74.5q188 0 325 -103l139 152l90 -78l-143 -158q129 -168 129 -358q0 -159 -65 -286.5t-187 -202t-279 -74.5q-197 0 -333 111l-152 -169zM314 300l519 572
q-95 76 -227 76q-110 0 -191 -55.5t-120.5 -145.5t-39.5 -201q0 -130 59 -246zM910 780l-524 -574q94 -82 234 -82q165 0 259.5 115t94.5 284q0 134 -64 257z" />
    <glyph glyph-name="uni0218" unicode="&#x218;" horiz-adv-x="1269" 
d="M95 378l160 69q44 -144 144 -232.5t242 -88.5q86 0 161 31t125.5 97.5t50.5 157.5q0 41 -11 74t-29 57.5t-46.5 44t-59 33t-70 25t-76.5 20t-82 17.5h-1q-181 38 -259 72q-168 75 -201 235q-9 44 -9 95q0 90 41.5 167t109 126.5t151 77t169.5 27.5q353 0 504 -338
l-147 -66q-47 117 -141.5 188.5t-215.5 71.5q-59 0 -111 -13.5t-97 -41t-71 -76t-26 -112.5q0 -31 7 -58.5t17 -48.5t30.5 -39.5t36.5 -31.5t47.5 -26t51.5 -20.5t59.5 -17.5t60 -14.5t64.5 -13.5q66 -14 100 -22t93 -26t91.5 -36t74.5 -49.5t64 -68.5t37.5 -90.5
t15.5 -118.5q0 -97 -44.5 -180t-116.5 -137.5t-162 -85t-183 -30.5q-212 0 -347 97t-202 299zM460 -397l119 321l163 -49l-178 -326z" />
    <glyph glyph-name="uni0219" unicode="&#x219;" horiz-adv-x="978" 
d="M81 261l131 57q30 -92 102.5 -143t169.5 -51q47 0 87.5 8.5t76 27.5t56 53t20.5 81q0 33 -9.5 59t-31.5 45.5t-42 32.5t-59 25t-63 18t-71 17q-47 10 -72.5 16.5t-68.5 20t-67 27t-54 36t-46 49t-27.5 64.5t-11.5 84q0 90 58 161t143 106t176 35q121 0 220.5 -65
t158.5 -179l-131 -58q-35 76 -103.5 118t-150.5 42q-52 0 -98.5 -15t-80.5 -52.5t-34 -91.5q0 -34 15.5 -60.5t35.5 -42t61 -30t68 -21.5t82 -18q38 -8 58.5 -12.5t56.5 -14t56.5 -18t50.5 -22.5t48 -29t38.5 -36.5t31 -46t18 -57t7.5 -69.5q0 -109 -57.5 -185.5
t-144.5 -110.5t-192 -34q-149 0 -257 72t-154 207zM312 -397l119 321l164 -49l-178 -326z" />
    <glyph glyph-name="uni021A" unicode="&#x21a;" horiz-adv-x="1144" 
d="M482 0v1319h-426v145h1031v-145h-426v-1319h-179zM398 -397l119 321l164 -49l-178 -326z" />
    <glyph glyph-name="uni021B" unicode="&#x21b;" horiz-adv-x="722" 
d="M640 152v-144q-65 -22 -142 -22q-139 0 -215.5 72.5t-76.5 209.5v660h-154v143h154v201l170 74v-275h250v-143h-250v-643q0 -71 32 -113.5t101 -42.5q72 0 131 23zM216 -397l119 321l164 -49l-178 -326z" />
    <glyph glyph-name="uni0237" unicode="&#x237;" horiz-adv-x="517" 
d="M13 -391v143q160 8 160 166v1153h170v-1139q0 -166 -82.5 -244.5t-247.5 -78.5z" />
    <glyph glyph-name="circumflex" unicode="&#x2c6;" horiz-adv-x="831" 
d="M118 1255l221 295h154l219 -295h-125l-174 154l-174 -154h-121z" />
    <glyph glyph-name="caron" unicode="&#x2c7;" horiz-adv-x="831" 
d="M337 1255l-219 295h125l174 -153l174 153h121l-221 -295h-154z" />
    <glyph glyph-name="breve" unicode="&#x2d8;" horiz-adv-x="831" 
d="M140 1538h136q7 -58 43.5 -94.5t96.5 -36.5q58 0 95.5 35t46.5 96h131q-8 -110 -88.5 -190t-190.5 -80t-187 79t-83 191z" />
    <glyph glyph-name="dotaccent" unicode="&#x2d9;" horiz-adv-x="831" 
d="M412 1279q-45 0 -77.5 33t-32.5 80t32.5 80t78.5 33q47 0 81 -33t34 -78q0 -46 -35 -80.5t-81 -34.5z" />
    <glyph glyph-name="ring" unicode="&#x2da;" horiz-adv-x="831" 
d="M196 1436q0 87 66 151t153 64t153 -63t66 -150q0 -88 -65.5 -150.5t-153.5 -62.5t-153.5 62.5t-65.5 148.5zM415 1317q48 0 78 36t30 85t-30 83.5t-78 34.5q-49 0 -78.5 -34.5t-29.5 -83.5t30 -85t78 -36z" />
    <glyph glyph-name="ogonek" unicode="&#x2db;" horiz-adv-x="839" 
d="M599 -227v-121q-60 -25 -128 -25q-56 0 -103.5 16.5t-81 54.5t-33.5 92q0 67 46.5 122t113.5 88h141q-139 -81 -139 -171q0 -38 23 -58.5t64 -20.5q50 0 97 23z" />
    <glyph glyph-name="tilde" unicode="&#x2dc;" horiz-adv-x="831" 
d="M222 1284h-123q11 93 63.5 165t133.5 72q53 0 131 -49q62 -39 95 -39q38 0 59 31q19 24 26 61h123q-8 -90 -62 -163.5t-134 -73.5q-52 0 -123 44q-72 44 -104 44q-38 0 -59 -31q-19 -24 -26 -61z" />
    <glyph glyph-name="hungarumlaut" unicode="&#x2dd;" horiz-adv-x="831" 
d="M517 1255l82 301h195l-154 -301h-123zM202 1255l82 301h194l-153 -301h-123z" />
    <glyph glyph-name="uni0326" unicode="&#x326;" horiz-adv-x="839" 
d="M271 -397l119 321l154 -49l-178 -326z" />
    <glyph glyph-name="uni0394" unicode="&#x394;" horiz-adv-x="1436" 
d="M103 0v49l491 1415h254l484 -1415v-49h-1229zM312 152h803l-402 1189z" />
    <glyph glyph-name="Sigma" unicode="&#x3a3;" horiz-adv-x="1210" 
d="M135 0v125l465 616l-459 570v153h932v-145h-751l456 -561l-454 -604h786v-154h-975z" />
    <glyph glyph-name="uni03A9" unicode="&#x3a9;" horiz-adv-x="1710" 
d="M135 0v137h304q-147 93 -227.5 257.5t-80.5 346.5q0 209 92 378.5t258.5 266.5t376.5 97q206 0 371 -94t257.5 -261.5t92.5 -377.5q0 -188 -76.5 -354.5t-229.5 -258.5h301v-137h-593v74q413 210 413 669q0 167 -60.5 300t-184.5 214.5t-295 81.5q-166 0 -289 -76
t-186 -206.5t-63 -296.5q0 -233 103.5 -399t310.5 -287v-74h-595z" />
    <glyph glyph-name="lambda" unicode="&#x3bb;" horiz-adv-x="1169" 
d="M69 0l404 1064l-103 284q-34 98 -132 98q-53 0 -116 -23v144q76 22 160 22q96 0 150.5 -52t89.5 -150l409 -1143q41 -110 109 -110q21 0 76 13v-143q-36 -12 -101 -12q-85 0 -144 52.5t-87 137.5l-227 683l-314 -865h-174z" />
    <glyph glyph-name="uni03BC" unicode="&#x3bc;" horiz-adv-x="1264" 
d="M190 -373v1444h170v-684q0 -129 59.5 -193.5t188.5 -64.5t212 82t83 211v649h170v-1071h-170v170q-45 -89 -130.5 -135.5t-186.5 -46.5q-159 0 -226 112v-473h-170z" />
    <glyph glyph-name="pi" unicode="&#x3c0;" horiz-adv-x="1260" 
d="M227 0v928h-154v143h1112v-143h-153v-928h-170v928h-465v-928h-170z" />
    <glyph glyph-name="uni0401" unicode="&#x401;" horiz-adv-x="1183" 
d="M448 1616q-46 0 -78.5 32.5t-32.5 77.5q0 46 32 76.5t79 30.5q46 0 77 -30.5t31 -76.5q0 -45 -31.5 -77.5t-76.5 -32.5zM871 1616q-45 0 -77.5 32.5t-32.5 77.5t32.5 76t77.5 31q46 0 77.5 -30.5t31.5 -76.5q0 -45 -32 -77.5t-77 -32.5zM201 0v1464h869v-145h-691v-498
h557v-145h-557v-531h728v-145h-906z" />
    <glyph glyph-name="uni0402" unicode="&#x402;" horiz-adv-x="1613" 
d="M496 0v1319h-436v145h1068v-145h-455v-557h4q139 127 365 127q224 0 345.5 -118.5t121.5 -341.5q0 -71 -12.5 -134.5t-40 -121.5t-69.5 -99.5t-104.5 -66.5t-139.5 -25q-117 0 -173 37v147q70 -39 146 -39q102 0 159 73.5t57 222.5q0 166 -77.5 246.5t-241.5 80.5
q-190 0 -339 -166h-1v-584h-177z" />
    <glyph glyph-name="uni0403" unicode="&#x403;" horiz-adv-x="1121" 
d="M559 1579l118 260h212l-204 -260h-126zM188 0v1464h850v-151h-672v-1313h-178z" />
    <glyph glyph-name="uni0404" unicode="&#x404;" horiz-adv-x="1527" 
d="M304 821h724v-145h-724q0 -251 138.5 -400t368.5 -149q186 0 319.5 97t186.5 258l146 -62q-76 -201 -246.5 -319.5t-404.5 -118.5q-167 0 -300 55.5t-219 154.5t-131.5 234.5t-45.5 296.5v16q0 155 44 288.5t128.5 236.5t220.5 162t308 59q233 0 385.5 -98.5
t247.5 -309.5l-155 -66q-69 162 -181.5 245.5t-294.5 83.5q-116 0 -212.5 -41.5t-160.5 -113t-100.5 -165t-41.5 -199.5z" />
    <glyph glyph-name="uni0405" unicode="&#x405;" horiz-adv-x="1311" 
d="M84 378l159 68q40 -152 152.5 -236t273.5 -84q162 0 259.5 81t97.5 216q0 112 -81.5 170.5t-278.5 89.5q-259 40 -375.5 133.5t-116.5 259.5q0 185 126.5 296t337.5 111q355 0 524 -340l-145 -63q-57 123 -153.5 191t-223.5 68q-134 0 -217.5 -71t-83.5 -186
q0 -104 81.5 -159.5t274.5 -83.5q263 -37 383 -132t120 -265q0 -206 -151.5 -333t-397.5 -127q-417 0 -565 396z" />
    <glyph glyph-name="uni0406" unicode="&#x406;" horiz-adv-x="579" 
d="M212 0v1464h177v-1464h-177z" />
    <glyph glyph-name="uni0407" unicode="&#x407;" horiz-adv-x="579" 
d="M515 1616q-45 0 -77 32.5t-32 77.5t32 76t77 31q46 0 77 -30.5t31 -76.5q0 -45 -31.5 -77.5t-76.5 -32.5zM92 1616q-45 0 -77.5 32.5t-32.5 77.5t32.5 76t77.5 31q46 0 76.5 -30.5t30.5 -76.5q0 -45 -31 -77.5t-76 -32.5zM212 0v1464h177v-1464h-177z" />
    <glyph glyph-name="uni0408" unicode="&#x408;" horiz-adv-x="878" 
d="M92 19v148q103 -40 195 -40q246 0 246 279v1058h178v-1067q0 -203 -111 -309t-301 -106q-140 0 -207 37z" />
    <glyph glyph-name="uni0409" unicode="&#x409;" horiz-adv-x="2056" 
d="M52 0v172l33 -2h16q36 0 65.5 10t51 24t38.5 40t28 48t19 59t12 61.5t6.5 67.5t3 64l1.5 63l1 63l27 794h874v-596h224q113 0 205.5 -23.5t164.5 -72.5t111.5 -132t39.5 -195q0 -114 -41 -201.5t-113.5 -139.5t-165 -78t-201.5 -26h-401v1315h-532l-25 -837
q-2 -59 -12 -118t-35.5 -127t-64 -119t-102.5 -85t-145 -34h-24q-33 0 -59 5zM1228 143h237q331 0 331 292v8q0 282 -331 282h-237v-582z" />
    <glyph glyph-name="uni040A" unicode="&#x40a;" horiz-adv-x="2140" 
d="M188 0v1464h178v-663h768v663h178v-596h224q111 0 202.5 -23t164.5 -71.5t113.5 -132.5t40.5 -197v-8q0 -111 -41 -196t-113.5 -136.5t-165 -77.5t-201.5 -26h-402v651h-768v-651h-178zM1312 143h237q330 0 330 293v8q0 281 -330 281h-237v-582z" />
    <glyph glyph-name="uni040B" unicode="&#x40b;" horiz-adv-x="1633" 
d="M496 0v1319h-436v145h1070v-145h-457v-555h4q127 125 357 125q227 0 341.5 -132t114.5 -392v-365h-178v383q0 178 -81.5 272.5t-235.5 94.5q-103 0 -189 -40.5t-133 -111.5v-598h-177z" />
    <glyph glyph-name="uni040C" unicode="&#x40c;" horiz-adv-x="1289" 
d="M601 1579l116 260h214l-204 -260h-126zM201 0v1464h178v-704h3l651 706h200l-665 -712l699 -754h-217l-668 715h-3v-715h-178z" />
    <glyph glyph-name="uni040D" unicode="&#x40d;" horiz-adv-x="1548" 
d="M717 1579l-204 260h214l116 -260h-126zM188 0v1464h178v-1218h4l808 1218h178v-1464h-178v1219h-4l-808 -1219h-178z" />
    <glyph glyph-name="uni040E" unicode="&#x40e;" horiz-adv-x="1229" 
d="M370 1841h147q11 -131 101 -149q16 -2 29 -2q123 0 138 151h142q-9 -115 -87 -192.5t-192 -77.5q-116 0 -195 78.5t-83 191.5zM192 0v154q40 -9 77 -9q91 0 155.5 48.5t115.5 152.5l-498 1118h186l399 -913h5l406 913h168l-497 -1118q-29 -65 -55.5 -113t-65.5 -97.5
t-82.5 -81t-103 -51t-130.5 -19.5q-41 0 -80 16z" />
    <glyph glyph-name="uni040F" unicode="&#x40f;" horiz-adv-x="1506" 
d="M188 0v1464h178v-1314h770v1314h178v-1464h-487v-266h-150v266h-489z" />
    <glyph glyph-name="uni0410" unicode="&#x410;" horiz-adv-x="1409" 
d="M88 0l515 1464h234l507 -1464h-176l-147 422h-621l-144 -422h-168zM450 563h523l-260 754h-4z" />
    <glyph glyph-name="uni0411" unicode="&#x411;" horiz-adv-x="1301" 
d="M188 0v1464h880v-145h-706v-473h335q492 0 492 -416v-8q0 -203 -129 -312.5t-361 -109.5h-511zM362 139h333q320 0 320 283v8q0 277 -336 277h-317v-568z" />
    <glyph glyph-name="uni0412" unicode="&#x412;" horiz-adv-x="1301" 
d="M201 0v1464h448q479 0 479 -379v-8q0 -233 -225 -309h1q159 -36 228.5 -119.5t69.5 -230.5v-8q0 -201 -128.5 -305.5t-362.5 -104.5h-510zM375 825h274q164 0 234.5 60.5t70.5 197.5v9q0 122 -74.5 177.5t-234.5 55.5h-270v-500zM375 139h332q321 0 321 273v8
q0 137 -82.5 201.5t-262.5 64.5h-308v-547z" />
    <glyph glyph-name="uni0413" unicode="&#x413;" horiz-adv-x="1121" 
d="M188 0v1464h850v-151h-672v-1313h-178z" />
    <glyph glyph-name="uni0414" unicode="&#x414;" horiz-adv-x="1457" 
d="M20 -266v416h94q75 22 111.5 109t52.5 267q46 496 46 938h922v-1314h166v-416h-146l-10 266h-1078l-10 -266h-148zM339 150h733v1164h-589l-20 -400q-14 -268 -26 -402q-20 -255 -98 -362z" />
    <glyph glyph-name="uni0415" unicode="&#x415;" horiz-adv-x="1183" 
d="M201 0v1464h869v-145h-691v-498h557v-145h-557v-531h728v-145h-906z" />
    <glyph glyph-name="uni0416" unicode="&#x416;" horiz-adv-x="1839" 
d="M39 0l609 743l-593 721h201l567 -708h4v708h173v-708h5l567 708h196l-585 -710l614 -754h-210l-583 719h-4v-719h-173v719h-3l-584 -719h-201z" />
    <glyph glyph-name="uni0417" unicode="&#x417;" horiz-adv-x="1245" 
d="M52 378l155 65q17 -62 48 -116t79 -100.5t119 -73.5t156 -27q167 0 257 81t90 228q0 133 -82.5 192t-274.5 59h-189v135h189q290 0 290 264q0 254 -280 254q-128 0 -220 -68.5t-132 -190.5l-153 65q141 338 517 338q127 0 226 -43.5t159 -134t60 -215.5q0 -117 -65 -205
t-183 -123h1q155 -23 234 -109t79 -227q0 -104 -43 -189.5t-116.5 -140.5t-169.5 -84.5t-204 -29.5q-111 0 -203 31t-157.5 87t-111 125t-75.5 153z" />
    <glyph glyph-name="uni0418" unicode="&#x418;" horiz-adv-x="1548" 
d="M188 0v1464h178v-1218h4l808 1218h178v-1464h-178v1219h-4l-808 -1219h-178z" />
    <glyph glyph-name="uni0419" unicode="&#x419;" horiz-adv-x="1548" 
d="M498 1841h147q12 -151 131 -151q120 0 137 151h142q-10 -115 -88 -192.5t-192 -77.5q-116 0 -194.5 78.5t-82.5 191.5zM188 0v1464h178v-1218h4l808 1218h178v-1464h-178v1219h-4l-808 -1219h-178z" />
    <glyph glyph-name="uni041A" unicode="&#x41a;" horiz-adv-x="1289" 
d="M201 0v1464h178v-704h3l651 706h200l-665 -712l699 -754h-217l-668 715h-3v-715h-178z" />
    <glyph glyph-name="uni041B" unicode="&#x41b;" horiz-adv-x="1441" 
d="M52 -1v172q35 -7 77 -7q87 0 134.5 87t54.5 277l36 936h896v-1464h-178v1315h-553l-28 -801q-10 -267 -101.5 -398.5t-257.5 -131.5q-55 0 -80 15z" />
    <glyph glyph-name="uni041C" unicode="&#x41c;" horiz-adv-x="1790" 
d="M201 0v1464h249l463 -1140h4l447 1140h248v-1464h-178v1233h-4l-496 -1233h-53l-513 1233h-4v-1233h-163z" />
    <glyph glyph-name="uni041D" unicode="&#x41d;" horiz-adv-x="1527" 
d="M201 0v1464h178v-663h791v663h178v-1464h-178v651h-791v-651h-178z" />
    <glyph glyph-name="uni041E" unicode="&#x41e;" horiz-adv-x="1696" 
d="M866 -18q-212 0 -381.5 97t-263 265.5t-93.5 376.5v17q0 208 92 377.5t261 268.5t383 99q160 0 296.5 -57t230.5 -156.5t147 -236t53 -291.5v-17q0 -155 -52.5 -291.5t-146 -236t-230 -157.5t-296.5 -58zM877 129q127 0 229.5 47.5t167 129.5t99 189.5t34.5 231.5v17
q0 163 -62 296t-187 214.5t-294 81.5q-177 0 -303.5 -80t-187.5 -213t-61 -303v-17q0 -160 66.5 -294t197 -217t301.5 -83z" />
    <glyph glyph-name="uni041F" unicode="&#x41f;" horiz-adv-x="1506" 
d="M188 0v1464h1126v-1464h-178v1315h-770v-1315h-178z" />
    <glyph glyph-name="uni0420" unicode="&#x420;" horiz-adv-x="1215" 
d="M201 -2v1466h422q111 0 203 -24.5t165 -74t113.5 -133.5t40.5 -196v-8q0 -113 -40.5 -198t-113 -135.5t-165 -75.5t-203.5 -25h-244v-596h-178zM379 737h258q161 0 245.5 75t84.5 216v8q0 285 -330 285h-258v-584z" />
    <glyph glyph-name="uni0421" unicode="&#x421;" horiz-adv-x="1527" 
d="M1321 484l153 -64q-70 -190 -249 -314t-400 -124q-167 0 -300.5 55.5t-219.5 154.5t-131.5 233.5t-45.5 295.5v17q0 151 49.5 287t138.5 238t222 162t291 60q217 0 366.5 -99.5t258.5 -311.5l-155 -66q-65 160 -187.5 246t-280.5 86q-104 0 -190 -32.5t-146.5 -88.5
t-102 -132.5t-61 -163.5t-19.5 -183v-17q0 -98 19 -185.5t59.5 -163t100 -130.5t146 -86t192.5 -31q170 0 305 99t187 258z" />
    <glyph glyph-name="uni0422" unicode="&#x422;" horiz-adv-x="1173" 
d="M509 0v1319h-435v145h1048v-145h-435v-1319h-178z" />
    <glyph glyph-name="uni0423" unicode="&#x423;" horiz-adv-x="1229" 
d="M192 -1v153q42 -9 75 -9q92 0 157 49t116 154l-498 1118h186l399 -913h5l406 913h168l-499 -1118q-29 -65 -55.5 -113t-65.5 -97.5t-81.5 -80.5t-101.5 -51t-129 -20q-48 0 -82 15z" />
    <glyph glyph-name="uni0424" unicode="&#x424;" horiz-adv-x="1717" 
d="M771 0v198h-2q-141 0 -256.5 27t-210 85.5t-147.5 162.5t-53 246v10q0 115 34 207t93.5 155t144 105t183 61t212.5 19h2v188h173v-188h2q111 0 206.5 -16.5t181.5 -55.5t146.5 -99t96 -152t35.5 -209v-15q0 -114 -34.5 -205t-94.5 -151t-145.5 -100t-182 -57.5
t-209.5 -17.5h-2v-198h-173zM944 1145v-811h2q112 0 197 19.5t151 63.5t100.5 123t34.5 191v16q0 202 -121.5 295.5t-361.5 102.5h-2zM771 329v811h-2q-93 -4 -163.5 -17.5t-133 -42.5t-102 -74.5t-62.5 -115.5t-23 -163v-10q0 -388 484 -388h2z" />
    <glyph glyph-name="uni0425" unicode="&#x425;" horiz-adv-x="1375" 
d="M106 0l495 752l-461 712h197l372 -575h4l371 575h182l-465 -712l489 -752h-202l-399 616h-4l-400 -616h-179z" />
    <glyph glyph-name="uni0426" unicode="&#x426;" horiz-adv-x="1527" 
d="M188 0v1464h178v-1314h770v1314h178v-1314h168v-416h-146l-12 266h-1136z" />
    <glyph glyph-name="uni0427" unicode="&#x427;" horiz-adv-x="1405" 
d="M1036 0v709h-3q-75 -64 -190 -99t-228 -35q-223 0 -352 137.5t-129 387.5v364h178v-383q0 -180 83.5 -273t245.5 -93q73 0 146 16.5t144 57.5t105 100v575h178v-1464h-178z" />
    <glyph glyph-name="uni0428" unicode="&#x428;" horiz-adv-x="2036" 
d="M188 0v1464h178v-1314h561v1314h178v-1314h561v1314h178v-1464h-1656z" />
    <glyph glyph-name="uni0429" unicode="&#x429;" horiz-adv-x="2056" 
d="M188 0v1464h178v-1314h561v1314h178v-1314h561v1314h178v-1314h167v-416h-146l-10 266h-1667z" />
    <glyph glyph-name="uni042A" unicode="&#x42a;" horiz-adv-x="1497" 
d="M471 0v1315h-411v149h589v-596h245q88 0 164 -14.5t142.5 -46.5t113.5 -80.5t74 -121t27 -163.5v-8q0 -110 -41.5 -195t-114 -136t-165 -77t-200.5 -26h-423zM649 143h257q332 0 332 291v8q0 283 -332 283h-257v-582z" />
    <glyph glyph-name="uni042B" unicode="&#x42b;" horiz-adv-x="1684" 
d="M188 0v1464h178v-596h235q88 0 164 -14.5t142.5 -46.5t113.5 -80.5t74 -121t27 -163.5v-8q0 -110 -41.5 -195t-114 -136t-165 -77t-200.5 -26h-413zM1314 0v1464h178v-1464h-178zM366 143h247q331 0 331 291v8q0 283 -331 283h-247v-582z" />
    <glyph glyph-name="uni042C" unicode="&#x42c;" horiz-adv-x="1215" 
d="M188 0v1464h178v-596h245q88 0 164 -14.5t142.5 -46.5t113.5 -80.5t74 -121t27 -163.5v-8q0 -110 -41.5 -195t-114 -136t-165 -77t-200.5 -26h-423zM366 143h257q331 0 331 291v8q0 283 -331 283h-257v-582z" />
    <glyph glyph-name="uni042D" unicode="&#x42d;" horiz-adv-x="1527" 
d="M58 391l165 71q50 -147 183 -241t299 -94q120 0 217.5 44t160.5 120t98.5 174.5t40.5 210.5h-726v145h726q-19 250 -144 385t-344 135q-188 0 -319.5 -96t-182.5 -261l-154 67q171 435 644 435q168 0 299.5 -55.5t215.5 -155.5t127.5 -234.5t43.5 -295.5v-16
q0 -153 -46 -287.5t-132 -237.5t-221 -162.5t-302 -59.5q-218 0 -393.5 110.5t-255.5 298.5z" />
    <glyph glyph-name="uni042E" unicode="&#x42e;" horiz-adv-x="2150" 
d="M188 0v1464h178v-663h247q8 147 63.5 273t148.5 216.5t224 141.5t283 51q160 0 293 -57t221.5 -156t137.5 -234.5t49 -292.5v-16q0 -154 -49 -289.5t-137.5 -237t-222 -160t-293.5 -58.5q-148 0 -276 50.5t-220.5 139t-150.5 212t-71 267.5h-247v-651h-178zM1338 132
q103 0 188 31.5t144 86.5t100 130.5t60 163t19 185.5v16q0 122 -32.5 228t-96 188.5t-166.5 130t-234 47.5q-130 0 -232 -47t-164.5 -129.5t-94.5 -189.5t-32 -232v-16q0 -119 35.5 -225.5t102 -189t171 -130.5t232.5 -48z" />
    <glyph glyph-name="uni042F" unicode="&#x42f;" horiz-adv-x="1309" 
d="M42 -2l489 649h-2q-355 64 -355 402v8q0 112 41.5 193.5t115.5 126.5t164 66t200 21h423v-1466h-178v637h-224l-473 -637h-201zM940 778v543h-257q-170 0 -250.5 -60.5t-80.5 -203.5v-8q0 -271 331 -271h257z" />
    <glyph glyph-name="uni0430" unicode="&#x430;" horiz-adv-x="1129" 
d="M803 0v135h-3q-124 -153 -343 -153q-164 0 -261.5 80.5t-97.5 234.5q0 89 45 155t123.5 103.5t173 55.5t205.5 18h158v78q0 126 -64 183.5t-192 57.5q-201 0 -290 -183l-143 60q84 145 191.5 205t269.5 60q398 0 398 -383v-707h-170zM803 508h-152q-383 0 -383 -221
q0 -170 215 -170q142 0 231 69.5t89 188.5v133z" />
    <glyph glyph-name="uni0431" unicode="&#x431;" horiz-adv-x="1280" 
d="M243 803h13q58 114 170.5 180t263.5 66q226 0 359 -144.5t133 -374.5v-8q0 -240 -147.5 -390t-396.5 -150q-247 0 -387 159t-140 469v66q0 103 5.5 188.5t22 178.5t44.5 166t74.5 141.5t109 115t152.5 76.5t201 35l42 2q225 10 310 44l22 -142q-105 -41 -330 -56l-31 -2
q-114 -7 -198.5 -42.5t-136.5 -88.5t-85.5 -134t-48 -163t-21.5 -192zM650 124q168 0 262.5 103.5t94.5 292.5v4q0 181 -89.5 282t-256.5 101q-172 0 -273 -106.5t-101 -289.5v-4q0 -170 95 -276.5t268 -106.5z" />
    <glyph glyph-name="uni0432" unicode="&#x432;" horiz-adv-x="1096" 
d="M176 0v1071h381q383 0 383 -272v-6q0 -82 -45 -145t-129 -85q226 -49 226 -241v-7q0 -153 -102.5 -234t-286.5 -81h-427zM345 618h212q108 0 156 39.5t48 126.5v7q0 80 -48.5 112.5t-157.5 32.5h-210v-318zM345 135h241q117 0 172 40t55 130v6q0 90 -55 131t-172 41h-241
v-348z" />
    <glyph glyph-name="uni0433" unicode="&#x433;" horiz-adv-x="932" 
d="M176 0v1071h691v-143h-522v-928h-169z" />
    <glyph glyph-name="uni0434" unicode="&#x434;" horiz-adv-x="1209" 
d="M32 -260v403h74q39 9 69.5 70.5t48 158.5t29.5 196t17 211.5t6.5 175.5t1.5 116h718v-928h168v-403h-136l-13 260h-835l-12 -260h-136zM314 143h517v785h-406q-21 -631 -111 -785z" />
    <glyph glyph-name="uni0435" unicode="&#x435;" horiz-adv-x="1188" 
d="M968 309l147 -62q-68 -129 -191 -197t-291 -68q-158 0 -279 71.5t-184.5 194t-63.5 276.5v19q0 151 59.5 274t177 198t272.5 75q239 0 365.5 -146t126.5 -385v-57h-824q8 -179 98 -278.5t260 -99.5q230 0 327 185zM289 644h642q-14 138 -94.5 221t-221.5 83
q-132 0 -229 -89t-97 -215z" />
    <glyph glyph-name="uni0436" unicode="&#x436;" horiz-adv-x="1483" 
d="M39 0l445 569l-405 502h184l391 -504h3v504h166v-504h3l391 504h186l-406 -502l446 -569h-194l-423 551h-3v-551h-166v551h-3l-423 -551h-192z" />
    <glyph glyph-name="uni0437" unicode="&#x437;" horiz-adv-x="1033" 
d="M60 265l146 62q70 -203 302 -203q115 0 179 46t64 135v6q0 90 -55.5 131t-172.5 41h-163v135h134q109 0 157 39.5t48 126.5v7q0 77 -54 117t-152 40q-88 0 -142.5 -37.5t-102.5 -129.5l-142 61q55 131 158.5 189.5t254.5 58.5q97 0 175.5 -29.5t130.5 -97t52 -164.5v-6
q0 -83 -47.5 -148t-130.5 -82q108 -18 169 -80.5t61 -160.5v-7q0 -84 -34.5 -149.5t-93.5 -104.5t-132.5 -59t-156.5 -20q-170 0 -288.5 77.5t-163.5 205.5z" />
    <glyph glyph-name="uni0438" unicode="&#x438;" horiz-adv-x="1236" 
d="M176 0v1071h169v-825h5l559 825h169v-1071h-169v825h-5l-559 -825h-169z" />
    <glyph glyph-name="uni0439" unicode="&#x439;" horiz-adv-x="1236" 
d="M350 1538h146q14 -152 131 -152q120 0 137 152h142q-9 -116 -87 -193t-193 -77q-116 0 -196 79t-80 191zM176 0v1071h169v-825h5l559 825h169v-1071h-169v825h-5l-559 -825h-169z" />
    <glyph glyph-name="uni043A" unicode="&#x43a;" horiz-adv-x="1079" 
d="M176 0v1071h169v-500h4l453 500h202l-470 -504l509 -567h-209l-485 547h-4v-547h-169z" />
    <glyph glyph-name="uni043B" unicode="&#x43b;" horiz-adv-x="1154" 
d="M42 -1v154q25 -6 48 -6q42 0 71.5 30.5t43.5 81.5t19.5 87.5t7.5 76.5l6 115l20 533h717v-1071h-170v928h-397l-8 -175l-9 -339q-1 -58 -8 -110.5t-26.5 -112t-49 -102t-81 -71t-118.5 -28.5q-48 0 -66 9z" />
    <glyph glyph-name="uni043C" unicode="&#x43c;" horiz-adv-x="1471" 
d="M178 0v1071h241l312 -805h4l320 805h235v-1071h-168v903h-4l-363 -903h-74l-359 903h-4v-903h-140z" />
    <glyph glyph-name="uni043D" unicode="&#x43d;" horiz-adv-x="1236" 
d="M176 0v1071h169v-450h542v450h170v-1071h-170v477h-542v-477h-169z" />
    <glyph glyph-name="uni043E" unicode="&#x43e;" horiz-adv-x="1263" 
d="M644 -18q-158 0 -281.5 72.5t-190 196.5t-66.5 276v16q0 236 149 391.5t390 155.5q239 0 386 -153.5t147 -391.5v-16q0 -236 -148.5 -391.5t-385.5 -155.5zM642 124q118 0 201 56t121.5 145t38.5 202v14q0 176 -92 291.5t-265 115.5q-168 0 -266 -110t-98 -295v-16
q0 -186 96 -294.5t264 -108.5z" />
    <glyph glyph-name="uni043F" unicode="&#x43f;" horiz-adv-x="1215" 
d="M176 0v1071h860v-1071h-169v928h-522v-928h-169z" />
    <glyph glyph-name="uni0440" unicode="&#x440;" horiz-adv-x="1311" 
d="M188 -373v1444h170v-180h4q52 91 156 145t213 54q118 0 213 -42t156 -115.5t93.5 -171t32.5 -210.5v-15q0 -114 -32 -213t-92.5 -175.5t-156.5 -121t-215 -44.5q-248 0 -368 195h-4v-550h-170zM711 124q166 0 253 103.5t87 299.5v16q0 191 -96 298t-253 107
q-156 0 -253 -106t-97 -299v-16q0 -195 96 -299t263 -104z" />
    <glyph glyph-name="uni0441" unicode="&#x441;" horiz-adv-x="1192" 
d="M1002 385l136 -58q-57 -155 -193 -250t-304 -95q-241 0 -388 152.5t-147 390.5v16q0 151 65.5 276t188 199t277.5 74q341 0 492 -312l-142 -60q-96 230 -350 230q-86 0 -154.5 -34t-111.5 -91.5t-65.5 -129.5t-22.5 -152v-16q0 -190 97 -295.5t263 -105.5
q123 0 220.5 72.5t138.5 188.5z" />
    <glyph glyph-name="uni0442" unicode="&#x442;" horiz-adv-x="1006" 
d="M417 0v928h-355v143h878v-143h-353v-928h-170z" />
    <glyph glyph-name="uni0443" unicode="&#x443;" horiz-adv-x="1106" 
d="M287 -373l207 484l-430 960h183l335 -768h4l303 768h174l-604 -1444h-172z" />
    <glyph glyph-name="uni0444" unicode="&#x444;" horiz-adv-x="1481" 
d="M655 -373v357h-2q-164 8 -289 73t-197.5 186t-72.5 283v17q0 245 153 388.5t406 155.5h2v496h168v-496h2q251 -12 405 -155t154 -387v-17q0 -245 -153 -388.5t-406 -155.5h-2v-357h-168zM823 956v-841h2q181 0 283 116t102 295v15q0 192 -104.5 299.5t-280.5 115.5h-2z
M655 115v841h-2q-174 -6 -279.5 -115t-105.5 -296v-15q0 -118 43.5 -211t132 -148.5t209.5 -55.5h2z" />
    <glyph glyph-name="uni0445" unicode="&#x445;" horiz-adv-x="1104" 
d="M71 0l391 551l-367 520h200l268 -389h4l266 389h185l-362 -508l400 -563h-202l-295 432h-4l-302 -432h-182z" />
    <glyph glyph-name="uni0446" unicode="&#x446;" horiz-adv-x="1249" 
d="M176 0v1071h169v-928h522v928h169v-928h168v-403h-137l-12 260h-879z" />
    <glyph glyph-name="uni0447" unicode="&#x447;" horiz-adv-x="1163" 
d="M814 0v500h-3q-111 -119 -303 -119q-189 0 -281.5 113t-92.5 299v278h170v-270q0 -138 61.5 -205.5t187.5 -67.5q169 0 260 119h1v424h170v-1071h-170z" />
    <glyph glyph-name="uni0448" unicode="&#x448;" horiz-adv-x="1697" 
d="M176 0v1071h169v-928h416v928h170v-928h417v928h170v-1071h-1342z" />
    <glyph glyph-name="uni0449" unicode="&#x449;" horiz-adv-x="1730" 
d="M176 0v1071h169v-928h416v928h170v-928h417v928h170v-928h167v-403h-136l-13 260h-1360z" />
    <glyph glyph-name="uni044A" unicode="&#x44a;" horiz-adv-x="1232" 
d="M375 0v928h-313v143h483v-375h196q89 0 162.5 -19t131.5 -58t90.5 -106.5t32.5 -158.5v-6q0 -89 -33 -157t-91 -109t-132 -61.5t-161 -20.5h-366zM545 135h206q124 0 180.5 51.5t56.5 161.5v6q0 105 -56 156t-181 51h-206v-426z" />
    <glyph glyph-name="uni044B" unicode="&#x44b;" horiz-adv-x="1467" 
d="M176 0v1071h169v-375h176q90 0 166 -19t138.5 -58t98 -107t35.5 -158v-6q0 -88 -36 -156.5t-98 -109.5t-139 -61.5t-165 -20.5h-345zM1118 0v1071h170v-1071h-170zM345 135h187q257 0 257 213v6q0 207 -257 207h-187v-426z" />
    <glyph glyph-name="uni044C" unicode="&#x44c;" horiz-adv-x="1033" 
d="M176 0v1071h169v-375h176q88 0 165 -20.5t139 -61.5t98 -109.5t36 -156.5v-6q0 -90 -35.5 -158t-98 -107t-138.5 -58t-166 -19h-345zM345 135h187q257 0 257 207v6q0 213 -257 213h-187v-426z" />
    <glyph glyph-name="uni044D" unicode="&#x44d;" horiz-adv-x="1192" 
d="M61 290l158 65q28 -94 122.5 -162.5t235.5 -68.5q75 0 138.5 31t105 82.5t66 114t30.5 129.5h-555v133h555q-18 164 -111 249t-247 85q-123 0 -217.5 -68.5t-139.5 -192.5l-146 63q62 162 198 251t307 89q247 0 390 -145t143 -388v-16q0 -109 -37.5 -210t-103 -178.5
t-164 -124t-212.5 -46.5q-178 0 -306.5 73t-209.5 235z" />
    <glyph glyph-name="uni044E" unicode="&#x44e;" horiz-adv-x="1640" 
d="M176 0v1071h169v-452h172q26 213 161 342t350 129q158 0 276 -72.5t178 -195t60 -277.5v-17q0 -155 -59.5 -278t-177 -195.5t-274.5 -72.5q-223 0 -361.5 138.5t-154.5 356.5h-170v-477h-169zM1025 124q163 0 252 107.5t89 294.5v15q0 191 -88.5 299t-250.5 108
q-161 0 -248.5 -107t-87.5 -298v-17q0 -190 86.5 -296t247.5 -106z" />
    <glyph glyph-name="uni044F" unicode="&#x44f;" horiz-adv-x="1094" 
d="M51 0l333 449h-1q-251 51 -251 286v6q0 88 33.5 154t93 103t131.5 55t159 18h366v-1071h-170v420h-191l-306 -420h-197zM745 549v387h-207q-236 0 -236 -195v-6q0 -94 56 -140t180 -46h207z" />
    <glyph glyph-name="uni0451" unicode="&#x451;" horiz-adv-x="1188" 
d="M812 1278q-45 0 -77 32.5t-32 76.5q0 46 32 77.5t77 31.5q46 0 77.5 -31.5t31.5 -77.5q0 -45 -31.5 -77t-77.5 -32zM421 1278q-45 0 -77 32.5t-32 76.5q0 46 32 77.5t77 31.5q46 0 77 -31.5t31 -77.5q0 -45 -31.5 -77t-76.5 -32zM968 309l147 -62q-65 -131 -188 -198
t-294 -67q-239 0 -383 152.5t-144 389.5v19q0 152 59.5 275t177 197.5t272.5 74.5q122 0 216.5 -39.5t154.5 -111t90.5 -167.5t30.5 -213v-57h-825q12 -378 356 -378q124 0 207.5 48.5t122.5 136.5zM288 644h643q-21 304 -316 304q-131 0 -217 -80t-110 -224z" />
    <glyph glyph-name="uni0452" unicode="&#x452;" horiz-adv-x="1251" 
d="M176 0v1260h-158v124h158v199h169v-199h373v-124h-373v-359h5q44 86 135 137.5t220 51.5q180 0 278.5 -107.5t98.5 -325.5v-742q0 -148 -79 -224t-252 -82v143q88 7 125 46.5t37 119.5v752q0 140 -63.5 206t-196.5 66q-135 0 -221.5 -81t-86.5 -212v-649h-169z" />
    <glyph glyph-name="uni0453" unicode="&#x453;" horiz-adv-x="932" 
d="M454 1255l130 301h214l-218 -301h-126zM176 0v1071h691v-143h-522v-928h-169z" />
    <glyph glyph-name="uni0454" unicode="&#x454;" horiz-adv-x="1192" 
d="M274 616h551v-133h-553q11 -171 106 -265t252 -94q123 0 220 72t137 188l141 -60q-57 -160 -189.5 -251t-313.5 -91q-158 0 -279.5 70.5t-186.5 193.5t-65 278v17q0 151 65.5 276t187.5 199t276 74q174 0 293 -74.5t201 -237.5l-147 -62q-40 108 -128 170t-219 62
q-134 0 -229.5 -89.5t-119.5 -242.5z" />
    <glyph glyph-name="uni0455" unicode="&#x455;" horiz-adv-x="1004" 
d="M70 265l149 65q25 -81 111 -143.5t193 -62.5q113 0 177 43t64 129q0 76 -58 114.5t-199 63.5q-71 13 -117.5 24.5t-101 35t-86 54.5t-53 82t-21.5 118q0 93 55.5 163.5t138 104.5t174.5 34q290 0 414 -248l-143 -61q-35 74 -104 120.5t-169 46.5q-95 0 -152 -42t-57 -113
q0 -31 11 -56t34 -42t43.5 -28.5t56.5 -20t55.5 -12t56.5 -9.5q51 -11 86 -19.5t79 -23t73 -30.5t59 -40.5t48 -53.5t29 -69.5t11 -88.5q0 -85 -32 -147.5t-88.5 -99t-126.5 -54t-155 -17.5q-166 0 -291 82.5t-164 200.5z" />
    <glyph glyph-name="uni0456" unicode="&#x456;" horiz-adv-x="533" 
d="M274 1294q-48 0 -80 32.5t-32 80.5t32 80.5t80 32.5t80.5 -32.5t32.5 -80.5t-32.5 -80.5t-80.5 -32.5zM192 0v1071h170v-1071h-170z" />
    <glyph glyph-name="uni0457" unicode="&#x457;" horiz-adv-x="533" 
d="M317 1387q0 46 32 77.5t77 31.5q46 0 77 -31.5t31 -77.5q0 -45 -31.5 -77t-76.5 -32t-77 32.5t-32 76.5zM107 1278q-45 0 -77.5 32.5t-32.5 76.5q0 45 32.5 77t77.5 32q46 0 76.5 -31.5t30.5 -77.5q0 -45 -31 -77t-76 -32zM180 0v1071h170v-1071h-170z" />
    <glyph glyph-name="uni0458" unicode="&#x458;" horiz-adv-x="533" 
d="M274 1294q-47 0 -79.5 32.5t-32.5 80.5q0 47 32.5 80t79.5 33q48 0 80.5 -33t32.5 -80q0 -48 -32.5 -80.5t-80.5 -32.5zM32 -391v143q87 7 123.5 46.5t36.5 119.5v1153h170v-1139q0 -164 -80.5 -240.5t-249.5 -82.5z" />
    <glyph glyph-name="uni0459" unicode="&#x459;" horiz-adv-x="1619" 
d="M42 0v155q14 -8 63 -8q106 0 121 277l32 647h694v-375h176q89 0 162 -18.5t131.5 -57.5t91 -106t32.5 -158v-6q0 -90 -32.5 -158t-90.5 -109.5t-132 -62t-162 -20.5h-345v926h-375l-27 -512q-12 -223 -76.5 -323.5t-198.5 -100.5q-38 0 -64 10zM952 135h186q124 0 181 52
t57 163v6q0 105 -56.5 156t-181.5 51h-186v-428z" />
    <glyph glyph-name="uni045A" unicode="&#x45a;" horiz-adv-x="1703" 
d="M176 0v1071h169v-450h522v450h169v-375h176q89 0 162 -18.5t131.5 -57.5t90.5 -106t32 -158v-6q0 -90 -32.5 -158t-90 -109.5t-131.5 -62t-162 -20.5h-345v477h-522v-477h-169zM1036 135h186q124 0 180 52t56 163v6q0 105 -55.5 155t-180.5 50h-186v-426z" />
    <glyph glyph-name="uni045B" unicode="&#x45b;" horiz-adv-x="1251" 
d="M176 0v1260h-158v124h158v199h169v-199h373v-124h-373v-359h5q44 86 135 137.5t220 51.5q180 0 278.5 -107.5t98.5 -325.5v-657h-169v670q0 140 -63.5 206t-196.5 66q-135 0 -221.5 -81t-86.5 -212v-649h-169z" />
    <glyph glyph-name="uni045C" unicode="&#x45c;" horiz-adv-x="1079" 
d="M517 1255l130 301h215l-218 -301h-127zM176 0v1071h169v-500h4l453 500h202l-470 -504l509 -567h-209l-485 547h-4v-547h-169z" />
    <glyph glyph-name="uni045D" unicode="&#x45d;" horiz-adv-x="1236" 
d="M570 1255l-217 301h214l130 -301h-127zM176 0v1071h169v-825h5l559 825h169v-1071h-169v825h-5l-559 -825h-169z" />
    <glyph glyph-name="uni045E" unicode="&#x45e;" horiz-adv-x="1106" 
d="M297 1538h147q12 -152 130 -152q122 0 137 152h143q-10 -116 -87.5 -193t-192.5 -77q-116 0 -194.5 78.5t-82.5 191.5zM287 -373l207 484l-430 960h183l335 -768h4l303 768h174l-604 -1444h-172z" />
    <glyph glyph-name="uni045F" unicode="&#x45f;" horiz-adv-x="1215" 
d="M176 0v1071h169v-928h522v928h169v-1071h-357l-5 -260h-134l-7 260h-357z" />
    <glyph glyph-name="uni0490" unicode="&#x490;" horiz-adv-x="1121" 
d="M188 0v1464h693l10 275h147v-424h-672v-1315h-178z" />
    <glyph glyph-name="uni0491" unicode="&#x491;" horiz-adv-x="898" 
d="M176 0v1071h501l12 275h136v-418h-480v-928h-169z" />
    <glyph glyph-name="Wgrave" unicode="&#x1e80;" horiz-adv-x="1947" 
d="M902 1579l-200 260h213l114 -260h-127zM468 0l-401 1464h182l315 -1192l353 1192h135l348 -1196l313 1196h166l-391 -1464h-164l-342 1157l-352 -1157h-162z" />
    <glyph glyph-name="wgrave" unicode="&#x1e81;" horiz-adv-x="1662" 
d="M771 1255l-213 301h213l127 -301h-127zM400 0l-346 1071h185l266 -862l260 862h147l256 -862l265 862h174l-346 -1071h-189l-235 803l-250 -803h-187z" />
    <glyph glyph-name="Wacute" unicode="&#x1e82;" horiz-adv-x="1947" 
d="M939 1579l115 260h213l-201 -260h-127zM468 0l-401 1464h182l315 -1192l353 1192h135l348 -1196l313 1196h166l-391 -1464h-164l-342 1157l-352 -1157h-162z" />
    <glyph glyph-name="wacute" unicode="&#x1e83;" horiz-adv-x="1662" 
d="M777 1255l127 301h213l-213 -301h-127zM400 0l-346 1071h185l266 -862l260 862h147l256 -862l265 862h174l-346 -1071h-189l-235 803l-250 -803h-187z" />
    <glyph glyph-name="Wdieresis" unicode="&#x1e84;" horiz-adv-x="1947" 
d="M677 1725q0 46 30 77t76 31t78.5 -32t32.5 -76q0 -45 -33 -77t-78 -32q-44 0 -75 31.5t-31 77.5zM1093 1725q0 46 30 77t75 31q46 0 79 -32.5t33 -76.5t-33 -76t-78 -32q-44 0 -75 31.5t-31 77.5zM468 0l-401 1464h182l315 -1192l353 1192h135l348 -1196l313 1196h166
l-391 -1464h-164l-342 1157l-352 -1157h-162z" />
    <glyph glyph-name="wdieresis" unicode="&#x1e85;" horiz-adv-x="1662" 
d="M1020 1298q-44 0 -75 32t-31 78t30 77t75 31q46 0 79.5 -32.5t33.5 -76.5t-33 -76.5t-79 -32.5zM636 1298q-44 0 -75.5 31.5t-31.5 77.5t31.5 77.5t75.5 31.5q45 0 78 -32.5t33 -76.5t-33 -76.5t-78 -32.5zM400 0l-346 1071h185l266 -862l260 862h146l257 -862l265 862
h174l-346 -1071h-189l-236 803l-249 -803h-187z" />
    <glyph glyph-name="Ygrave" unicode="&#x1ef2;" horiz-adv-x="1199" 
d="M559 1579l-201 260h213l115 -260h-127zM523 0v629l-479 835h201l373 -690l358 690h178l-452 -837v-627h-179z" />
    <glyph glyph-name="ygrave" unicode="&#x1ef3;" horiz-adv-x="1078" 
d="M495 1255l-213 301h213l127 -301h-127zM265 -373l203 484l-420 960h182l328 -768l297 768h174l-592 -1444h-172z" />
    <glyph glyph-name="uni2009" unicode="&#x2009;" horiz-adv-x="223" 
 />
    <glyph glyph-name="endash" unicode="&#x2013;" horiz-adv-x="1350" 
d="M99 481v111h1149v-111h-1149z" />
    <glyph glyph-name="emdash" unicode="&#x2014;" horiz-adv-x="1942" 
d="M99 486v111h1741v-111h-1741z" />
    <glyph glyph-name="quoteleft" unicode="&#x2018;" horiz-adv-x="623" 
d="M132 1073l240 412l104 -53l-182 -433z" />
    <glyph glyph-name="quoteright" unicode="&#x2019;" horiz-adv-x="623" 
d="M146 1053l183 432l161 -74l-239 -412z" />
    <glyph glyph-name="quotesinglbase" unicode="&#x201a;" horiz-adv-x="648" 
d="M159 -180l182 434l162 -74l-240 -413z" />
    <glyph glyph-name="quotedblleft" unicode="&#x201c;" horiz-adv-x="986" 
d="M132 1073l240 412l104 -53l-182 -433zM494 1073l240 412l104 -53l-182 -433z" />
    <glyph glyph-name="quotedblright" unicode="&#x201d;" horiz-adv-x="986" 
d="M146 1053l183 432l161 -74l-239 -412zM509 1053l182 432l162 -74l-240 -412z" />
    <glyph glyph-name="quotedblbase" unicode="&#x201e;" horiz-adv-x="1010" 
d="M159 -180l182 434l162 -74l-240 -413zM521 -180l182 434l162 -74l-240 -413z" />
    <glyph glyph-name="dagger" unicode="&#x2020;" horiz-adv-x="891" 
d="M369 -303v1370h-237v137h237v393h154v-393h236v-138l-236 1v-1370h-154z" />
    <glyph glyph-name="daggerdbl" unicode="&#x2021;" horiz-adv-x="891" 
d="M369 -303v393h-237v138h237v838h-237v138h237v393h154v-393h236v-138h-236v-838h236v-138h-236v-393h-154z" />
    <glyph glyph-name="bullet" unicode="&#x2022;" horiz-adv-x="781" 
d="M152 627q0 99 69.5 168t168.5 69t168.5 -69t69.5 -168q0 -100 -68.5 -169t-167.5 -69q-100 0 -170 70t-70 168z" />
    <glyph glyph-name="ellipsis" unicode="&#x2026;" horiz-adv-x="1776" 
d="M220 121q0 55 38 93t93 38t93 -38t38 -93t-38.5 -93t-94.5 -38q-55 0 -92 37.5t-37 93.5zM1293 121q0 55 38 93t93 38t93 -38t38 -93t-38 -93t-93 -38q-56 0 -93.5 38t-37.5 93zM757 121q0 55 37.5 93t90.5 38q55 0 94.5 -39t39.5 -92t-39 -92t-94 -39q-54 0 -91.5 38
t-37.5 93z" />
    <glyph glyph-name="perthousand" unicode="&#x2030;" horiz-adv-x="2346" 
d="M415 809q-133 0 -229.5 99.5t-96.5 234.5q0 134 95 234t229 100q135 0 231.5 -100.5t96.5 -235.5q0 -133 -96 -232.5t-230 -99.5zM277 0l896 1464h155l-895 -1464h-156zM412 940q87 0 131 57.5t44 143.5q0 88 -45 146.5t-132 58.5q-85 0 -126 -56.5t-41 -146.5
q0 -91 41.5 -147t127.5 -56zM1930 -16q-132 0 -229 99.5t-97 234.5q0 134 95 233.5t231 99.5q135 0 230.5 -99t95.5 -233q0 -135 -96.5 -235t-229.5 -100zM1178 -16q-133 0 -230 99.5t-97 234.5q0 133 95 233t230 100t230.5 -99.5t95.5 -234.5q0 -134 -95.5 -233.5
t-228.5 -99.5zM1927 115q87 0 131 57t44 145t-44 145.5t-131 57.5q-86 0 -127.5 -56.5t-41.5 -146.5q0 -91 41.5 -146.5t127.5 -55.5zM1173 115q87 0 131 57t44 145q0 87 -44 145t-130 58q-85 0 -127 -57.5t-42 -147.5t41.5 -145t126.5 -55z" />
    <glyph glyph-name="minute" unicode="&#x2032;" horiz-adv-x="474" 
d="M113 963l52 501h184l-113 -501h-123z" />
    <glyph glyph-name="second" unicode="&#x2033;" horiz-adv-x="808" 
d="M447 963l52 501h184l-113 -501h-123zM113 963l52 501h184l-113 -501h-123z" />
    <glyph glyph-name="guilsinglleft" unicode="&#x2039;" horiz-adv-x="665" 
d="M389 170l-266 365l266 364h168l-256 -364l256 -365h-168z" />
    <glyph glyph-name="guilsinglright" unicode="&#x203a;" horiz-adv-x="665" 
d="M107 170l256 365l-256 364h168l266 -364l-266 -365h-168z" />
    <glyph glyph-name="fraction" unicode="&#x2044;" horiz-adv-x="226" 
d="M-476 0l1040 1464h135l-1040 -1464h-135z" />
    <glyph glyph-name="uni207D" unicode="&#x207d;" horiz-adv-x="431" 
d="M374 632h-118q-129 217 -129 463q0 255 129 473h118q-64 -129 -96 -237.5t-32 -229.5q0 -123 32.5 -234.5t95.5 -234.5z" />
    <glyph glyph-name="uni207E" unicode="&#x207e;" horiz-adv-x="426" 
d="M178 632h-118q63 123 95.5 234.5t32.5 234.5q0 121 -32 229.5t-96 237.5h118q129 -218 129 -473q0 -246 -129 -463z" />
    <glyph glyph-name="uni208D" unicode="&#x208d;" horiz-adv-x="443" 
d="M389 -318h-118q-129 217 -129 463q0 255 129 473h118q-64 -129 -96 -237.5t-32 -229.5q0 -123 32.5 -234.5t95.5 -234.5z" />
    <glyph glyph-name="uni208E" unicode="&#x208e;" horiz-adv-x="465" 
d="M217 -318h-118q63 123 95.5 234.5t32.5 234.5q0 121 -32 229.5t-96 237.5h118q129 -218 129 -473q0 -246 -129 -463z" />
    <glyph glyph-name="Euro" unicode="&#x20ac;" horiz-adv-x="1410" 
d="M73 528v119h145v160h-145v119h151q12 116 54.5 216t110.5 176.5t167.5 120.5t218.5 44q192 0 310.5 -94.5t195.5 -282.5l-148 -64q-91 301 -353 301q-89 0 -160.5 -34t-117 -93t-72 -132.5t-32.5 -157.5h490l-23 -119h-471v-160h440l-22 -119h-412q17 -177 116 -289
t267 -112q77 0 140.5 25t109 71t77.5 103.5t54 128.5l137 -60q-51 -186 -188 -299.5t-329 -113.5q-152 0 -275 73.5t-196 196.5t-89 276h-151z" />
    <glyph glyph-name="uni20B8" unicode="&#x20b8;" horiz-adv-x="1195" 
d="M73 1335v129h1046v-129h-1046zM503 0v982h-430v131h1046v-131h-414v-982h-202z" />
    <glyph glyph-name="uni20B9" unicode="&#x20b9;" horiz-adv-x="1115" 
d="M646 2l-346 549h-187v141h164q111 0 207 70t119 178h-490v141h490q-42 247 -395 243l-95 -1v141h889v-141h-385q139 -97 154 -242h231v-141h-231q-22 -124 -114 -221.5t-214 -129.5l410 -587h-207z" />
    <glyph glyph-name="uni20BA" unicode="&#x20ba;" horiz-adv-x="1155" 
d="M280 0v802l-214 -56v123l214 56v134l-214 -56v123l214 56v282h178v-241l309 83v-123l-309 -83v-134l309 83v-123l-309 -83v-713q162 0 303 99.5t187 251.5l141 -61q-70 -179 -251.5 -308.5t-369.5 -129.5q-105 0 -188 18z" />
    <glyph glyph-name="uni20BC" unicode="&#x20bc;" horiz-adv-x="1289" 
d="M88 0v616q0 104 15.5 190t51.5 166t104 139.5t165 90.5q85 25 130 27v235h178v-235q45 -2 130 -27q97 -31 165 -90.5t104 -139.5t51.5 -166t15.5 -190v-616h-178v614q0 71 -6 129.5t-25 121t-49.5 106t-83.5 72.5t-124 31v-850h-178v850q-71 -2 -124 -31t-83.5 -72.5
t-49.5 -106t-25 -121t-6 -129.5v-614h-178z" />
    <glyph glyph-name="uni20BF" unicode="&#x20bf;" horiz-adv-x="1218" 
d="M121 0v1464h200v196h125v-196h126v196h125v-196q377 -34 377 -387q0 -115 -56 -194t-166 -115q150 -31 221.5 -116.5t71.5 -234.5q0 -105 -34 -185t-96 -129t-141.5 -74.5t-176.5 -28.5v-198h-125v198h-126v-198h-125v198h-200zM295 825h308q151 0 224 60t73 207
q0 69 -23 116.5t-67 72t-94 34.5t-117 10h-304v-500zM295 140h365q311 0 311 274q0 80 -25.5 135t-73.5 84t-104.5 41t-132.5 12h-340v-546z" />
    <glyph glyph-name="uni2105" unicode="&#x2105;" horiz-adv-x="1904" 
d="M466 0l869 1464h120l-863 -1464h-126zM678 950l108 -49q-43 -106 -131.5 -166t-203.5 -60q-162 0 -259 112.5t-97 271.5q0 166 104 282t267 116q105 0 186 -53t128 -152l-114 -52q-24 68 -82 111.5t-132 43.5q-57 0 -100.5 -26.5t-68.5 -71t-37.5 -95.5t-12.5 -106
t13 -104.5t38.5 -89.5t69 -63.5t99.5 -23.5q83 0 142 49t83 126zM1439 -14q-162 0 -262 109.5t-100 271.5q0 166 104 276t267 110t264.5 -110t101.5 -271q0 -165 -106 -275.5t-269 -110.5zM1444 88q112 0 172 84.5t60 200.5q0 115 -60.5 196.5t-174.5 81.5q-59 0 -104 -23.5
t-71 -65t-38.5 -91.5t-12.5 -108q0 -114 60 -194.5t169 -80.5z" />
    <glyph glyph-name="uni2116" unicode="&#x2116;" horiz-adv-x="2349" 
d="M191 0v1466h232l733 -1212v1212h170v-1466h-205l-760 1255v-1255h-170zM1850 304q-162 0 -263 110t-101 272q0 166 104.5 275.5t267.5 109.5t264 -110t101 -271q0 -165 -105.5 -275.5t-267.5 -110.5zM1853 406q58 0 101.5 25t67.5 67t35.5 90.5t11.5 102.5
q0 55 -11.5 102.5t-36 88t-68.5 64t-103 23.5q-210 0 -210 -288q0 -73 20 -132.5t69.5 -101t123.5 -41.5zM1545 0v108h619v-108h-619z" />
    <glyph glyph-name="trademark" unicode="&#x2122;" horiz-adv-x="1486" 
d="M710 805v659h157l185 -463l180 463h160v-659h-115v514l-211 -514h-39l-213 514v-514h-104zM280 805v569h-201v90h514v-90h-198v-569h-115z" />
    <glyph glyph-name="estimated" unicode="&#x212e;" horiz-adv-x="1645" 
d="M335 707v-354q0 -29 22 -54q92 -102 220.5 -158.5t265.5 -56.5q142 0 278 60t227 165l101 -43q-107 -135 -269 -210t-337 -75q-204 0 -382 99.5t-285 273.5t-107 379q0 150 60 287.5t161.5 236.5t240 158t288.5 59q202 0 374.5 -99.5t274.5 -271.5t102 -376v-20h-1235z
M335 803h973v314q0 18 -22 44q-75 100 -206.5 158.5t-254.5 58.5q-127 0 -265 -60.5t-206 -157.5q-19 -25 -19 -47v-310z" />
    <glyph glyph-name="onethird" unicode="&#x2153;" horiz-adv-x="1476" 
d="M89 0l1038 1464h136l-1039 -1464h-135zM218 764v565l-166 -110v120l183 125h124v-700h-141zM883 167l106 46q10 -58 50.5 -89t102.5 -31q57 0 92 28t35 88q0 36 -13 58.5t-39.5 32t-49.5 12t-60 2.5h-14v96h17q33 0 55.5 2.5t46 11.5t35.5 29t12 51q0 50 -30.5 76
t-77.5 26q-52 0 -90 -28.5t-47 -78.5l-105 46q23 82 89 123t153 41q97 0 168 -48t71 -137q0 -114 -117 -155q64 -14 100.5 -59t36.5 -114q0 -70 -39.5 -118t-97 -68t-127.5 -20q-99 0 -171.5 43t-91.5 134z" />
    <glyph glyph-name="twothirds" unicode="&#x2154;" horiz-adv-x="1551" 
d="M15 766v51l265 250q110 106 110 201q0 100 -99 100q-60 0 -98 -34.5t-53 -92.5l-100 43q53 191 254 191q104 0 167.5 -50.5t63.5 -149.5q0 -80 -51.5 -157.5t-180.5 -190.5l-65 -57h304v-104h-517zM194 0l1038 1464h135l-1038 -1464h-135zM960 169l100 41
q12 -57 52.5 -86.5t100.5 -29.5q58 0 96 28t38 90q0 28 -9.5 48t-22.5 30t-37 15.5t-41.5 6.5t-47.5 1h-18v97h17q26 0 44 1t39.5 6.5t34 15t21.5 27.5t9 43q0 52 -32 77t-85 25q-103 0 -137 -105l-100 44q27 84 91.5 124.5t151.5 40.5q100 0 171 -48.5t71 -138.5
q0 -114 -116 -153q64 -16 100.5 -60.5t36.5 -113.5q0 -53 -22 -93.5t-60 -64.5t-83.5 -35.5t-96.5 -11.5q-101 0 -174.5 44.5t-91.5 134.5z" />
    <glyph glyph-name="uni2155" unicode="&#x2155;" horiz-adv-x="1353" 
d="M14 0l1040 1464h135l-1040 -1464h-135zM224 764v565l-166 -100v121l183 114h124v-700h-141zM765 152l107 45q36 -101 139 -101q63 0 95 38t32 99t-32.5 97.5t-96.5 36.5q-88 0 -135 -60h-74l8 393h430v-106h-325l-2 -188q55 61 158 61q102 0 156 -63t54 -165
q0 -121 -74 -185t-197 -64q-201 0 -243 162z" />
    <glyph glyph-name="uni2156" unicode="&#x2156;" horiz-adv-x="1465" 
d="M24 762v22l264 281q33 35 53.5 59.5t38.5 64.5t18 79q0 99 -97 99q-59 0 -97.5 -35.5t-56.5 -91.5l-99 43q25 92 91.5 141t166.5 49q102 0 165 -51.5t63 -154.5q0 -45 -18 -90t-53 -89.5t-62.5 -73t-70.5 -69.5l-81 -77h291v-106h-516zM126 0l1040 1464h135l-1040 -1464
h-135zM877 152l107 45q35 -101 138 -101q63 0 95.5 38t32.5 99t-32.5 97.5t-97.5 36.5q-90 0 -134 -60h-74l8 393h430v-106h-325l-2 -188q55 61 158 61q102 0 156 -63t54 -165q0 -121 -74 -185t-196 -64q-91 0 -157.5 38t-86.5 124z" />
    <glyph glyph-name="uni2157" unicode="&#x2157;" horiz-adv-x="1514" 
d="M52 930l103 45q16 -54 60.5 -86.5t105.5 -32.5q54 0 88 28t34 88q0 29 -9.5 49.5t-23 31t-37 16.5t-42 7t-47.5 1h-17v97h17q33 0 55.5 2.5t46 11.5t35.5 29.5t12 52.5q0 50 -29.5 75t-79.5 25q-55 0 -93.5 -29.5t-55.5 -83.5l-102 46q29 87 94 128.5t154 41.5
q100 0 171.5 -48.5t71.5 -138.5q0 -114 -116 -153q65 -16 101 -60t36 -113q0 -53 -22.5 -94t-60.5 -65t-84 -36t-99 -12q-100 0 -173 42.5t-94 134.5zM175 0l1039 1464h135l-1039 -1464h-135zM926 152l106 45q36 -101 139 -101q63 0 95 38t32 99t-31.5 97.5t-96.5 36.5
q-89 0 -136 -60h-74l8 393h431v-106h-326l-2 -188q55 61 158 61t157 -62.5t54 -164.5q0 -122 -74.5 -186t-197.5 -64q-202 0 -242 162z" />
    <glyph glyph-name="uni2158" unicode="&#x2158;" horiz-adv-x="1529" 
d="M44 905v51l313 508h170v-458h93v-101h-93v-141h-131v141h-352zM190 0l1040 1464h135l-1040 -1464h-135zM192 1006h206v354zM941 152l107 45q35 -101 138 -101q63 0 95.5 38t32.5 99t-32.5 97.5t-97.5 36.5q-90 0 -134 -60h-74l8 393h430v-106h-325l-2 -188q55 62 157 62
q103 0 157 -63.5t54 -165.5q0 -121 -74 -185t-196 -64q-91 0 -157.5 38t-86.5 124z" />
    <glyph glyph-name="uni2159" unicode="&#x2159;" horiz-adv-x="1390" 
d="M14 0l1040 1464h135l-1040 -1464h-135zM224 764v565l-166 -100v121l183 114h123v-700h-140zM1314 575l-106 -45q-48 74 -132 74q-42 0 -74 -23t-48.5 -60t-24.5 -75.5t-8 -78.5q55 90 178 90q102 0 163.5 -62t61.5 -168q0 -115 -72.5 -176t-191.5 -61q-276 0 -276 336
q0 60 8.5 113t30 103.5t54.5 86.5t84.5 58t116.5 22q170 0 236 -134zM1056 90q62 0 96.5 38t34.5 99q0 60 -33.5 97.5t-94.5 37.5q-60 0 -96 -36t-36 -99q0 -61 34 -99t95 -38z" />
    <glyph glyph-name="uni215A" unicode="&#x215a;" horiz-adv-x="1535" 
d="M52 913l103 45q42 -98 151 -98q55 0 87 41t32 99q0 57 -33 93.5t-96 36.5q-87 0 -135 -59h-74l8 393h431v-106h-326l-2 -187q53 60 156 60q105 0 159.5 -62.5t54.5 -165.5q0 -121 -72.5 -185t-192.5 -64q-90 0 -156.5 38.5t-94.5 120.5zM159 0l1040 1464h135l-1040 -1464
h-135zM1459 574l-106 -44q-22 34 -57 53.5t-75 19.5q-42 0 -74 -22.5t-48.5 -59.5t-24.5 -75.5t-8 -78.5q55 90 178 90q102 0 163.5 -61.5t61.5 -167.5q0 -115 -73 -176.5t-191 -61.5q-145 0 -210.5 90.5t-65.5 245.5q0 76 15 141t47.5 121t91.5 88.5t140 32.5
q170 0 236 -135zM1202 91q61 0 95.5 37.5t34.5 98.5q0 60 -33.5 97.5t-94.5 37.5q-60 0 -96 -35.5t-36 -98.5q0 -61 34 -99t96 -38z" />
    <glyph glyph-name="oneeighth" unicode="&#x215b;" horiz-adv-x="1457" 
d="M89 0l1038 1464h136l-1039 -1464h-135zM218 764v565l-166 -110v120l183 125h123v-700h-140zM994 375q-48 19 -75 56.5t-27 88.5q0 89 73.5 139t166.5 50q92 0 164.5 -49t72.5 -135q0 -52 -28 -90t-76 -58q60 -23 95.5 -68.5t35.5 -111.5q0 -68 -40.5 -116.5t-99 -69.5
t-127.5 -21q-67 0 -125 20.5t-98.5 69t-40.5 116.5q0 64 34.5 111.5t94.5 67.5zM1056 441q33 -25 78 -25t74.5 25.5t29.5 69.5q0 45 -31.5 72t-78.5 27q-45 0 -75 -25.5t-30 -70.5t33 -73zM1005 210q0 -54 36 -86t92 -32q55 0 90.5 31t35.5 85q0 55 -36.5 87.5t-91.5 32.5
q-54 0 -90 -32t-36 -86z" />
    <glyph glyph-name="threeeighths" unicode="&#x215c;" horiz-adv-x="1519" 
d="M46 931l101 41q11 -58 51.5 -87t101.5 -29q59 0 96 27.5t37 89.5q0 29 -9.5 48.5t-22.5 30t-36.5 16t-41.5 6.5t-47 1h-19v99h17q34 0 55.5 2.5t45.5 11t36 29t12 51.5q0 52 -32 77.5t-83 25.5q-107 0 -139 -107l-100 46q27 83 91 123t152 40q100 0 171 -48t71 -140
q0 -114 -117 -153q65 -16 101.5 -60t36.5 -113q0 -103 -77.5 -154t-189.5 -51q-100 0 -170.5 43t-91.5 134zM175 0l1039 1464h134l-1038 -1464h-135zM1056 375q-48 19 -75.5 57t-27.5 89q0 88 73.5 138t166.5 50q92 0 165 -49t73 -135q0 -52 -29 -90t-78 -58
q62 -23 97.5 -68t35.5 -110q0 -68 -40.5 -117t-99 -70.5t-126.5 -21.5q-106 0 -185 53t-79 154q0 64 34 111t95 67zM1118 442q31 -26 77 -26q45 0 75 25.5t30 68.5q0 46 -32.5 73t-78.5 27q-44 0 -74.5 -25.5t-30.5 -69.5q0 -47 34 -73zM1066 209q0 -53 36.5 -85t92.5 -32
q54 0 88.5 31t34.5 85q0 55 -36 87.5t-89 32.5q-54 0 -90.5 -33t-36.5 -86z" />
    <glyph glyph-name="fiveeighths" unicode="&#x215d;" horiz-adv-x="1506" 
d="M54 913l121 54q6 -57 36.5 -82t88.5 -25q57 0 88 39.5t31 98.5q0 58 -33 94.5t-96 36.5q-88 0 -135 -59h-74l8 394h430v-106h-325l-2 -190q52 63 154 63q100 0 157 -66t57 -166q0 -115 -74 -180t-191 -65q-87 0 -152 38.5t-89 120.5zM161 0l1038 1464h135l-1038 -1464
h-135zM1044 375q-48 19 -75.5 57t-27.5 89q0 88 73.5 138t166.5 50q92 0 164.5 -49t72.5 -135q0 -52 -28 -90t-76 -58q60 -23 95.5 -69t35.5 -111q0 -100 -79.5 -153.5t-187.5 -53.5q-107 0 -186 52.5t-79 152.5q0 65 35 112.5t96 67.5zM1106 442q31 -26 77 -26
q45 0 74.5 25.5t29.5 69.5q0 45 -31.5 72t-77.5 27q-45 0 -75.5 -25.5t-30.5 -69.5q0 -47 34 -73zM1054 210q0 -54 36 -86t92 -32q55 0 90.5 31t35.5 85q0 55 -36.5 87.5t-91.5 32.5q-54 0 -90 -32t-36 -86z" />
    <glyph glyph-name="seveneighths" unicode="&#x215e;" horiz-adv-x="1449" 
d="M65 0l1038 1464h135l-1038 -1464h-135zM138 764l234 588h-334v112h494v-55l-254 -645h-140zM986 375q-48 19 -75 56.5t-27 88.5q0 89 73 139t166 50q58 0 111 -19.5t90 -62.5t37 -102q0 -106 -105 -148q61 -22 96.5 -68.5t35.5 -111.5q0 -100 -80 -153.5t-187 -53.5
q-67 0 -125 20.5t-98.5 69t-40.5 116.5q0 64 34.5 111.5t94.5 67.5zM1015 515q0 -45 32.5 -72t78.5 -27q44 0 74 25.5t30 69.5q0 45 -32 72t-78 27q-44 0 -74.5 -25.5t-30.5 -69.5zM996 209q0 -53 36.5 -85t92.5 -32q55 0 89.5 31t34.5 85q0 55 -36 87.5t-90 32.5t-90.5 -33
t-36.5 -86z" />
    <glyph glyph-name="arrowleft" unicode="&#x2190;" horiz-adv-x="1582" 
d="M318 658l582 -583l-101 -101l-758 758l758 758l101 -101l-582 -583l1220 3v-154z" />
    <glyph glyph-name="arrowup" unicode="&#x2191;" horiz-adv-x="1627" 
d="M155 638l-101 101l758 759l758 -759l-101 -101l-583 583l3 -1221h-154l3 1221z" />
    <glyph glyph-name="arrowright" unicode="&#x2192;" horiz-adv-x="1582" 
d="M679 75l582 583l-1220 -3v154l1220 -3l-582 583l101 101l758 -758l-758 -758z" />
    <glyph glyph-name="arrowdown" unicode="&#x2193;" horiz-adv-x="1627" 
d="M738 243l-3 1221h154l-3 -1221l583 582l101 -100l-758 -759l-758 759l101 100z" />
    <glyph glyph-name="arrowboth" unicode="&#x2194;" horiz-adv-x="2403" 
d="M331 657l575 -557l-110 -112l-746 744l746 744l112 -113l-577 -554h1738l-577 554l112 113l746 -744l-746 -744l-110 112l575 557h-1738z" />
    <glyph glyph-name="arrowupdn" unicode="&#x2195;" horiz-adv-x="1626" 
d="M54 339l114 112l567 -527v1616l-567 -526l-114 112l758 686l757 -687l-111 -110l-571 525v-1615l571 525l111 -110l-757 -688z" />
    <glyph glyph-name="uni2196" unicode="&#x2196;" horiz-adv-x="1627" 
d="M136 0v1464h1448v-143l-1220 4l1260 -1241l-107 -107l-1238 1246l4 -1223h-147z" />
    <glyph glyph-name="uni2197" unicode="&#x2197;" horiz-adv-x="1627" 
d="M0 84l1260 1241l-1219 -4v143h1447v-1464h-147l4 1223l-1238 -1246z" />
    <glyph glyph-name="uni2198" unicode="&#x2198;" horiz-adv-x="1627" 
d="M41 0v143l1219 -4l-1260 1241l107 107l1238 -1246l-4 1223h147v-1464h-1447z" />
    <glyph glyph-name="uni2199" unicode="&#x2199;" horiz-adv-x="1627" 
d="M136 0v1464h147l-4 -1223l1238 1246l107 -107l-1260 -1241l1219 4v-143h-1447z" />
    <glyph glyph-name="partialdiff" unicode="&#x2202;" horiz-adv-x="1183" 
d="M229 1109l-149 65q36 104 111 175.5t169 103.5t204 32q126 0 223 -45.5t155.5 -117.5t95.5 -173.5t50.5 -202t13.5 -214.5q0 -85 -5 -156.5t-19.5 -150.5t-38 -141t-64 -120t-94.5 -96t-132 -61t-174 -23q-223 0 -364 132.5t-141 349.5q0 214 135.5 350.5t342.5 136.5
q120 0 221.5 -49.5t160.5 -145.5v5q0 80 -8 152.5t-32.5 152.5t-63.5 138t-106.5 96t-156.5 38q-115 0 -204.5 -60t-129.5 -171zM580 123q157 0 245 105t88 268q0 142 -95.5 230t-237.5 88q-150 0 -239 -99t-89 -250q0 -149 89 -245.5t239 -96.5z" />
    <glyph glyph-name="product" unicode="&#x220f;" horiz-adv-x="1376" 
d="M206 0v1321h-154v143h1237v-143h-153v-1321h-170v1321h-590v-1321h-170z" />
    <glyph glyph-name="summation" unicode="&#x2211;" horiz-adv-x="1168" 
d="M114 -180v125l465 796l-459 735v153h932v-145h-751l456 -726l-454 -784h786v-154h-975z" />
    <glyph glyph-name="minus" unicode="&#x2212;" horiz-adv-x="1078" 
d="M81 629v143h915v-143h-915z" />
    <glyph glyph-name="radical" unicode="&#x221a;" horiz-adv-x="1248" 
d="M496 -116l-313 717l-145 -58l-35 93l277 105l320 -748l547 1707h144l-595 -1816h-200z" />
    <glyph glyph-name="uni221B" unicode="&#x221b;" horiz-adv-x="1248" 
d="M496 -116l-313 717l-145 -58l-35 93l277 105l320 -748l547 1707h144l-595 -1816h-200zM226 1051l102 45q17 -54 62 -87t105 -33q54 0 87.5 28.5t33.5 89.5q0 30 -9.5 50.5t-22 31t-36 16.5t-41.5 7t-48 1h-18v98h16q28 0 45.5 1t40 6.5t34.5 15t21 28t9 45.5
q0 51 -29 76.5t-80 25.5q-113 0 -149 -113l-102 45q28 87 93.5 129.5t154.5 42.5q100 0 171.5 -48.5t71.5 -140.5q0 -114 -115 -156q64 -16 100 -60.5t36 -113.5q0 -54 -22 -95.5t-60.5 -65t-84.5 -35.5t-98 -12q-100 0 -174 43t-94 135z" />
    <glyph glyph-name="infinity" unicode="&#x221e;" horiz-adv-x="1833" 
d="M912 610q-50 -52 -78.5 -79.5t-79.5 -69.5t-91.5 -63.5t-96 -38.5t-112.5 -17q-163 0 -263 112.5t-100 277.5q0 167 100 279.5t265 112.5q214 0 456 -283q51 62 94 105.5t101 88.5t124 68.5t138 23.5q162 0 262.5 -115t100.5 -282q0 -169 -102.5 -281t-271.5 -112
q-212 0 -446 273zM1017 726q192 -230 343 -230q91 0 152 70.5t61 161.5t-59 165.5t-147 74.5q-148 0 -350 -242zM803 725q-206 239 -348 239q-87 0 -150 -74.5t-63 -162.5q0 -91 66.5 -159t157.5 -68q160 0 337 225z" />
    <glyph glyph-name="integral" unicode="&#x222b;" horiz-adv-x="736" 
d="M35 -217v143h115q60 0 98.5 51t38.5 113v1302q0 113 72.5 195t183.5 82h165v-143h-135q-63 0 -100 -49t-37 -113v-1306q0 -112 -73 -193.5t-183 -81.5h-145z" />
    <glyph glyph-name="approxequal" unicode="&#x2248;" horiz-adv-x="1059" 
d="M238 712h-129q8 103 68 173.5t163 70.5q68 0 191 -45q125 -45 197 -45q40 0 64.5 27.5t27.5 67.5h129q-9 -104 -65.5 -174.5t-159.5 -70.5q-66 0 -193 45q-125 45 -198 45q-40 0 -64.5 -26.5t-30.5 -67.5zM238 340h-129q8 103 68 173.5t163 70.5q68 0 191 -45
q125 -45 197 -45q40 0 64.5 27t27.5 67h129q-8 -103 -65.5 -173.5t-159.5 -70.5q-66 0 -193 45q-125 45 -198 45q-39 0 -64 -26.5t-31 -67.5z" />
    <glyph glyph-name="notequal" unicode="&#x2260;" horiz-adv-x="1031" 
d="M261 190l78 201h-238v148h295l92 241h-387v148h445l77 200h156l-78 -200h228v-148h-285l-92 -241h377v-148h-435l-77 -201h-156z" />
    <glyph glyph-name="lessequal" unicode="&#x2264;" horiz-adv-x="1072" 
d="M128 674v41l786 420v-164l-532 -277l532 -276v-164zM128 0v143h786v-143h-786z" />
    <glyph glyph-name="greaterequal" unicode="&#x2265;" horiz-adv-x="1072" 
d="M157 254v164l532 276l-532 277v164l786 -420v-41zM157 0v143h786v-143h-786z" />
    <glyph glyph-name="uni2460" unicode="&#x2460;" horiz-adv-x="1783" 
d="M139 733q0 155 59.5 294t161 238.5t240.5 158t293 58.5t293 -58.5t239 -158.5t158.5 -239t58.5 -294t-59 -294.5t-159 -239.5t-238.5 -158.5t-292.5 -58.5q-155 0 -294.5 59t-240.5 159.5t-160 240t-59 293.5zM888 67q136 0 258 53t209 142.5t138 212.5t51 259
q0 135 -50.5 257.5t-136.5 211t-208 141t-258 52.5q-182 0 -332.5 -88.5t-236 -240.5t-85.5 -334q0 -136 50.5 -258.5t136.5 -212t207.5 -142.5t256.5 -53zM817 361v565l-166 -100v121l183 114h123v-700h-140z" />
    <glyph glyph-name="uni2461" unicode="&#x2461;" horiz-adv-x="1783" 
d="M139 733q0 155 59.5 294t161 238.5t240.5 158t293 58.5t293 -58.5t239 -158.5t158.5 -239t58.5 -294t-59 -294.5t-159 -239.5t-238.5 -158.5t-292.5 -58.5q-155 0 -294.5 59t-240.5 159.5t-160 240t-59 293.5zM888 67q136 0 258 53t209 142.5t138 212.5t51 259
q0 135 -50.5 257.5t-136.5 211t-208 141t-258 52.5q-182 0 -332.5 -88.5t-236 -240.5t-85.5 -334q0 -136 50.5 -258.5t136.5 -212t207.5 -142.5t256.5 -53zM607 382v22l264 279q51 52 80.5 99t29.5 103q0 99 -98 99q-59 0 -97 -35t-56 -92l-99 43q25 92 91.5 141.5
t166.5 49.5q102 0 165 -52t63 -155q0 -45 -20.5 -93t-59.5 -96t-68.5 -78.5t-74.5 -72.5l-62 -58h291v-104h-516z" />
    <glyph glyph-name="uni2462" unicode="&#x2462;" horiz-adv-x="1783" 
d="M139 733q0 155 59.5 294t161 238.5t240.5 158t293 58.5t293 -58.5t239 -158.5t158.5 -239t58.5 -294t-59 -294.5t-159 -239.5t-238.5 -158.5t-292.5 -58.5q-155 0 -294.5 59t-240.5 159.5t-160 240t-59 293.5zM888 67q136 0 258 53t209 142.5t138 212.5t51 259
q0 135 -50.5 257.5t-136.5 211t-208 141t-258 52.5q-182 0 -332.5 -88.5t-236 -240.5t-85.5 -334q0 -136 50.5 -258.5t136.5 -212t207.5 -142.5t256.5 -53zM623 539l103 45q16 -54 60.5 -86.5t105.5 -32.5q54 0 88 28t34 88q0 29 -9.5 49.5t-23 31t-37 16.5t-42 7t-47.5 1
h-17v97h17q33 0 55.5 2.5t46 11.5t35.5 29.5t12 52.5q0 50 -29.5 75t-79.5 25q-55 0 -93.5 -29.5t-55.5 -83.5l-102 46q29 87 94 128.5t154 41.5q100 0 171.5 -48.5t71.5 -138.5q0 -114 -116 -153q65 -16 101 -60t36 -113q0 -53 -22.5 -94t-60.5 -65t-84 -36t-99 -12
q-100 0 -173 42.5t-94 134.5z" />
    <glyph glyph-name="uni2463" unicode="&#x2463;" horiz-adv-x="1783" 
d="M139 733q0 155 59.5 294t161 238.5t240.5 158t293 58.5t293 -58.5t239 -158.5t158.5 -239t58.5 -294t-59 -294.5t-159 -239.5t-238.5 -158.5t-292.5 -58.5q-155 0 -294.5 59t-240.5 159.5t-160 240t-59 293.5zM888 67q136 0 258 53t209 142.5t138 212.5t51 259
q0 135 -50.5 257.5t-136.5 211t-208 141t-258 52.5q-182 0 -332.5 -88.5t-236 -240.5t-85.5 -334q0 -136 50.5 -258.5t136.5 -212t207.5 -142.5t256.5 -53zM552 523v51l313 508h170v-458h93v-101h-93v-141h-131v141h-352zM700 624h206v354z" />
    <glyph glyph-name="uni2464" unicode="&#x2464;" horiz-adv-x="1783" 
d="M139 733q0 155 59.5 294t161 238.5t240.5 158t293 58.5t293 -58.5t239 -158.5t158.5 -239t58.5 -294t-59 -294.5t-159 -239.5t-238.5 -158.5t-292.5 -58.5q-155 0 -294.5 59t-240.5 159.5t-160 240t-59 293.5zM888 67q136 0 258 53t209 142.5t138 212.5t51 259
q0 135 -50.5 257.5t-136.5 211t-208 141t-258 52.5q-182 0 -332.5 -88.5t-236 -240.5t-85.5 -334q0 -136 50.5 -258.5t136.5 -212t207.5 -142.5t256.5 -53zM641 506l103 45q42 -98 151 -98q55 0 87 41t32 99q0 57 -33 93.5t-96 36.5q-87 0 -135 -59h-74l8 393h430v-106h-325
l-2 -187q53 60 155 60q104 0 158.5 -63t54.5 -166q0 -120 -72 -184t-192 -64q-90 0 -156 38.5t-94 120.5z" />
    <glyph glyph-name="uni2465" unicode="&#x2465;" horiz-adv-x="1783" 
d="M139 733q0 155 59.5 294t161 238.5t240.5 158t293 58.5t293 -58.5t239 -158.5t158.5 -239t58.5 -294t-59 -294.5t-159 -239.5t-238.5 -158.5t-292.5 -58.5q-155 0 -294.5 59t-240.5 159.5t-160 240t-59 293.5zM888 67q136 0 258 53t209 142.5t138 212.5t51 259
q0 135 -50.5 257.5t-136.5 211t-208 141t-258 52.5q-182 0 -332.5 -88.5t-236 -240.5t-85.5 -334q0 -136 50.5 -258.5t136.5 -212t207.5 -142.5t256.5 -53zM1150 947l-106 -45q-48 74 -133 74q-43 0 -74.5 -23t-48 -60t-24 -76t-7.5 -79q55 91 179 91q101 0 162.5 -62
t61.5 -168q0 -115 -72.5 -176t-191.5 -61q-276 0 -276 335q0 76 15 141.5t47.5 121.5t91.5 88.5t140 32.5q170 0 236 -134zM892 462q62 0 96.5 38t34.5 99q0 60 -33.5 97.5t-94.5 37.5q-60 0 -96 -36t-36 -99q0 -61 34 -99t95 -38z" />
    <glyph glyph-name="uni2466" unicode="&#x2466;" horiz-adv-x="1783" 
d="M139 733q0 155 59.5 294t161 238.5t240.5 158t293 58.5t293 -58.5t239 -158.5t158.5 -239t58.5 -294t-59 -294.5t-159 -239.5t-238.5 -158.5t-292.5 -58.5q-155 0 -294.5 59t-240.5 159.5t-160 240t-59 293.5zM888 67q136 0 258 53t209 142.5t138 212.5t51 259
q0 135 -50.5 257.5t-136.5 211t-208 141t-258 52.5q-182 0 -332.5 -88.5t-236 -240.5t-85.5 -334q0 -136 50.5 -258.5t136.5 -212t207.5 -142.5t256.5 -53zM753 342l232 588h-332v112h494v-47l-254 -653h-140z" />
    <glyph glyph-name="uni2467" unicode="&#x2467;" horiz-adv-x="1783" 
d="M139 733q0 155 59.5 294t161 238.5t240.5 158t293 58.5t293 -58.5t239 -158.5t158.5 -239t58.5 -294t-59 -294.5t-159 -239.5t-238.5 -158.5t-292.5 -58.5q-155 0 -294.5 59t-240.5 159.5t-160 240t-59 293.5zM888 67q136 0 258 53t209 142.5t138 212.5t51 259
q0 135 -50.5 257.5t-136.5 211t-208 141t-258 52.5q-182 0 -332.5 -88.5t-236 -240.5t-85.5 -334q0 -136 50.5 -258.5t136.5 -212t207.5 -142.5t256.5 -53zM754 757q-103 47 -103 148q0 88 72.5 137t165.5 49q94 0 166.5 -50t72.5 -140q0 -105 -113 -142q64 -14 102 -63.5
t38 -116.5q0 -68 -41 -116.5t-100 -69.5t-126 -21t-124.5 20.5t-98 70t-40.5 120.5q0 131 129 174zM782 894q0 -46 31 -71t79 -25t76.5 25t28.5 71q0 48 -29.5 73t-76.5 25q-48 0 -78.5 -25.5t-30.5 -72.5zM764 589q0 -56 34.5 -85.5t92.5 -29.5t91.5 30t33.5 85
q0 58 -34.5 89.5t-90.5 31.5t-91.5 -32t-35.5 -89z" />
    <glyph glyph-name="uni2468" unicode="&#x2468;" horiz-adv-x="1783" 
d="M139 733q0 155 59.5 294t161 238.5t240.5 158t293 58.5t293 -58.5t239 -158.5t158.5 -239t58.5 -294t-59 -294.5t-159 -239.5t-238.5 -158.5t-292.5 -58.5q-155 0 -294.5 59t-240.5 159.5t-160 240t-59 293.5zM888 67q136 0 258 53t209 142.5t138 212.5t51 259
q0 135 -50.5 257.5t-136.5 211t-208 141t-258 52.5q-182 0 -332.5 -88.5t-236 -240.5t-85.5 -334q0 -136 50.5 -258.5t136.5 -212t207.5 -142.5t256.5 -53zM636 504l102 45q14 -42 53.5 -62t83.5 -20q38 0 67 15.5t45.5 39t27.5 55.5t14.5 62t3.5 62q-54 -88 -175 -88
q-101 0 -164.5 62.5t-63.5 170.5q0 114 71 175t187 61q98 0 163 -45.5t92 -117t27 -165.5q0 -82 -12 -146.5t-41.5 -123t-88 -91t-142.5 -32.5q-55 0 -103.5 13t-90 46.5t-56.5 83.5zM894 709q58 0 93.5 35t35.5 98q0 61 -33.5 100t-94.5 39t-94.5 -38t-33.5 -99t33.5 -98
t93.5 -37z" />
    <glyph glyph-name="uni24C5" unicode="&#x24c5;" horiz-adv-x="1748" 
d="M122 734q0 155 59.5 294t161 238.5t240.5 158t293 58.5t293 -58.5t239 -158.5t158.5 -239t58.5 -294t-59 -294.5t-159 -239.5t-238.5 -158.5t-292.5 -58.5q-155 0 -294.5 59t-240.5 159.5t-160 240t-59 293.5zM871 68q136 0 258 53t209 142.5t138 212.5t51 259
q0 135 -50.5 257.5t-136.5 211t-208 141t-258 52.5q-182 0 -332.5 -88.5t-236 -240.5t-85.5 -334q0 -136 50.5 -258.5t136.5 -212t207.5 -142.5t256.5 -53zM652 292v809h262q137 0 219 -60.5t82 -196.5q0 -40 -8 -73t-20.5 -57t-35 -43t-42.5 -31t-53 -20.5t-56.5 -13
t-63 -6.5t-63 -2.5t-65.5 -0.5v-305h-156zM808 710h106q152 0 152 138q0 72 -38.5 102t-113.5 30h-106v-270z" />
    <glyph glyph-name="filledbox" unicode="&#x25a0;" horiz-adv-x="1127" 
d="M132 296v872h860v-872h-860z" />
    <glyph glyph-name="uni25A1" unicode="&#x25a1;" horiz-adv-x="1127" 
d="M127 296v873h870v-873h-870zM266 433h592v600h-592v-600z" />
    <glyph glyph-name="lozenge" unicode="&#x25ca;" horiz-adv-x="913" 
d="M456 196l225 530l-225 542h138l234 -542l-234 -530h-138zM316 196l-234 530l234 542h138l-225 -542l225 -530h-138z" />
    <glyph glyph-name="circle" unicode="&#x25cb;" horiz-adv-x="1127" 
d="M562 284q-196 0 -322 126t-126 322t126 322.5t322 126.5q195 0 321.5 -127t126.5 -322q0 -196 -126 -322t-322 -126zM246 732q0 -137 90 -226.5t227 -89.5t226.5 89t89.5 225q0 138 -89.5 228t-227.5 90q-137 0 -226.5 -89.5t-89.5 -226.5z" />
    <glyph glyph-name="uni25CF" unicode="&#x25cf;" horiz-adv-x="1127" 
d="M109 733q0 197 128 325t325 128t325 -128t128 -325t-128 -325t-325 -128t-325 128t-128 325z" />
    <glyph glyph-name="f_f" unicode="&#xfb00;" horiz-adv-x="1293" 
d="M206 2v928h-154v141h154v88q0 57 2.5 99.5t10.5 90t22 81t38 65.5t57.5 51.5t82 31t110.5 11.5q80 0 144 -20l-56 -129q-46 8 -80 8q-84 0 -122.5 -50.5t-38.5 -133.5v-193h420v88q0 57 2.5 99.5t10.5 90t22 81t38 65.5t57.5 51.5t82 31t110.5 11.5q80 0 144 -20
l-56 -129q-46 8 -80 8q-84 0 -122.5 -50.5t-38.5 -133.5v-193h262v-141h-262v-928h-170v928h-420v-928h-170z" />
    <glyph glyph-name="fi" unicode="&#xfb01;" horiz-adv-x="1218" 
d="M206 0v928h-154v143h154v71q0 59 2 100.5t9.5 91.5t20.5 84.5t36.5 69t57 55t82.5 33.5t112 13q79 0 143 -20l-56 -131q-46 8 -80 8q-83 0 -120 -50t-37 -132v-193h262v-143h-262v-928h-170zM953 1264q-47 0 -78.5 32t-31.5 80t32 81t79 33t80.5 -33.5t33.5 -80.5
q0 -46 -34 -79t-81 -33zM874 0v1071h170v-1071h-170z" />
    <glyph glyph-name="fl" unicode="&#xfb02;" horiz-adv-x="1220" 
d="M874 0v1549l172 76v-1625h-172zM206 0v928h-154v143h154v71q0 58 2 99.5t9.5 91.5t20.5 84.5t37 69.5t57.5 55.5t82.5 33.5t112 13q79 0 143 -20l-56 -131q-46 8 -79 8q-83 0 -120 -50.5t-37 -132.5v-192h261v-143h-261v-928h-172z" />
    <glyph glyph-name="space.tab" horiz-adv-x="617" 
 />
    <glyph glyph-name="dollar.old" horiz-adv-x="1240" 
d="M548 -276v260q-185 12 -310 113.5t-171 279.5l135 59q40 -135 126.5 -220t219.5 -95v571q-73 14 -131.5 32t-116.5 49.5t-97 73t-63 103t-24 137.5q0 114 63.5 203t160 136t208.5 55v184h121v-186q165 -16 269.5 -97.5t160.5 -238.5l-139 -60q-29 110 -104.5 176.5
t-186.5 79.5v-512q80 -11 144 -28.5t124 -49.5t100 -76.5t64 -110.5t24 -150q0 -124 -65 -220.5t-167 -148t-224 -59.5v-260h-121zM548 848v493q-112 -8 -191 -70t-79 -169q0 -65 19.5 -110t60 -72.5t82.5 -42.5t108 -29zM669 672v-551q121 18 203.5 91t82.5 189
q0 56 -15 98.5t-38 70t-62.5 48t-77 31.5t-93.5 23z" />
    <glyph glyph-name="dollar.oldtab" 
d="M558 -276v260q-185 12 -310 113.5t-171 279.5l135 59q40 -135 126.5 -220t219.5 -95v571q-73 14 -131.5 32t-116.5 49.5t-97 73t-63 103t-24 137.5q0 114 63.5 203t160 136t208.5 55v184h121v-186q165 -16 269.5 -97.5t160.5 -238.5l-139 -60q-29 110 -104.5 176.5
t-186.5 79.5v-512q80 -11 144 -28.5t124 -49.5t100 -76.5t64 -110.5t24 -150q0 -124 -65 -220.5t-167 -148t-224 -59.5v-260h-121zM558 848v493q-112 -8 -191 -70t-79 -169q0 -65 19.5 -110t60 -72.5t82.5 -42.5t108 -29zM679 672v-551q121 18 203.5 91t82.5 189
q0 56 -15 98.5t-38 70t-62.5 48t-77 31.5t-93.5 23z" />
    <glyph glyph-name="dollar.tab" 
d="M548 -276v260q-185 12 -310 113.5t-171 279.5l135 59q40 -135 126.5 -220t219.5 -95v571q-73 14 -131.5 32t-116.5 49.5t-97 73t-63 103t-24 137.5q0 114 63.5 203t160 136t208.5 55v184h121v-186q165 -16 269.5 -97.5t160.5 -238.5l-139 -60q-29 110 -104.5 176.5
t-186.5 79.5v-512q80 -11 144 -28.5t124 -49.5t100 -76.5t64 -110.5t24 -150q0 -124 -65 -220.5t-167 -148t-224 -59.5v-260h-121zM548 848v493q-112 -8 -191 -70t-79 -169q0 -65 19.5 -110t60 -72.5t82.5 -42.5t108 -29zM669 672v-551q121 18 203.5 91t82.5 189
q0 56 -15 98.5t-38 70t-62.5 48t-77 31.5t-93.5 23z" />
    <glyph glyph-name="percent.tab" horiz-adv-x="1435" 
d="M372 809q-86 0 -150.5 49t-95 122.5t-30.5 158.5t30 160t95.5 126.5t153.5 51.5q65 0 118.5 -28.5t86.5 -76.5t51 -106.5t18 -120.5q0 -85 -30.5 -160t-95 -125.5t-151.5 -50.5zM190 0l896 1464h155l-896 -1464h-155zM372 940q48 0 78 35.5t39 77t9 87.5q0 34 -5.5 67
t-18.5 66t-39.5 53t-62.5 20t-62 -20t-39 -53t-18.5 -65.5t-5.5 -66.5t5.5 -66t18.5 -64t39 -51.5t62 -19.5zM1052 -16q-86 0 -150 49t-94.5 122.5t-30.5 159.5q0 85 29.5 159.5t94 125.5t152.5 51q66 0 120 -29t87 -76.5t51 -106t18 -121.5q0 -85 -30.5 -159.5t-95 -124.5
t-151.5 -50zM1053 115q36 0 62 19.5t39 51.5t18.5 64t5.5 66t-5.5 66.5t-18.5 65t-39 52.5t-62 20t-62.5 -20t-39 -53t-18 -65.5t-5.5 -66.5t5.5 -65.5t18.5 -63.5t39 -51.5t62 -19.5z" />
    <glyph glyph-name="parenleft.tab" horiz-adv-x="617" 
d="M560 -303h-170q-299 446 -299 940q0 500 299 951h170q-291 -468 -291 -951q0 -250 74.5 -479.5t216.5 -460.5z" />
    <glyph glyph-name="parenleft.uc" horiz-adv-x="654" 
d="M615 -201h-167q-160 186 -247 421t-87 480t87 477.5t247 419.5h167q-154 -195 -238.5 -425t-84.5 -470q0 -242 85 -476t238 -427z" />
    <glyph glyph-name="parenright.tab" horiz-adv-x="617" 
d="M224 -303h-170q291 472 291 944q0 480 -291 947h170q299 -449 299 -949q0 -495 -299 -942z" />
    <glyph glyph-name="parenright.uc" horiz-adv-x="654" 
d="M206 -201h-168q154 195 239 428t85 475q0 241 -84.5 470t-239.5 425h168q160 -190 247 -421t87 -476t-87 -480.5t-247 -420.5z" />
    <glyph glyph-name="plus.sub" horiz-adv-x="714" 
d="M300 -100v215h-207v108h207v217h113v-217h207v-108h-207v-215h-113z" />
    <glyph glyph-name="plus.sup" horiz-adv-x="714" 
d="M300 961v215h-207v108h207v217h113v-217h207v-108h-207v-215h-113z" />
    <glyph glyph-name="plus.tab" 
d="M542 215v414h-383v143h383v414h149v-414h383v-143h-383v-414h-149z" />
    <glyph glyph-name="comma.tab" horiz-adv-x="617" 
d="M89 -195l197 449l166 -78l-252 -428z" />
    <glyph glyph-name="hyphen.uc" horiz-adv-x="740" 
d="M120 590v160h500v-160h-500z" />
    <glyph glyph-name="period.tab" horiz-adv-x="617" 
d="M173 121q0 55 38 93t93 38t93 -38t38 -93t-38 -93t-93 -38q-56 0 -93.5 38t-37.5 93z" />
    <glyph glyph-name="slash.alt" horiz-adv-x="226" 
d="M-476 0l1040 1464h135l-1040 -1464h-135z" />
    <glyph glyph-name="slash.uc" horiz-adv-x="820" 
d="M46 -193l559 1797h156l-559 -1797h-156z" />
    <glyph glyph-name="zero.den" horiz-adv-x="772" 
d="M386 -10q-145 0 -221 97.5t-76 246.5q0 60 9 113.5t31 102t54.5 83.5t82.5 55.5t113 20.5q145 0 224.5 -98.5t79.5 -243.5q0 -59 -9.5 -112.5t-32 -102.5t-56 -84.5t-84.5 -56.5t-115 -21zM386 100q47 0 80 21.5t49 59t22.5 75.5t6.5 82q0 264 -158 264q-46 0 -79 -21.5
t-49 -58.5t-23 -75t-7 -82q0 -50 5 -89t20 -83t48.5 -68.5t84.5 -24.5z" />
    <glyph glyph-name="zero.num" horiz-adv-x="772" 
d="M385 754q-144 0 -220 97.5t-76 246.5q0 60 9 113.5t31 102t54.5 83.5t82 55.5t112.5 20.5q98 0 168.5 -48.5t103.5 -125t33 -169.5q0 -75 -16.5 -140t-50 -119t-93 -85.5t-138.5 -31.5zM384 864q39 0 68 15t46 38t28 56t14.5 63.5t3.5 65.5q0 264 -158 264
q-47 0 -79.5 -22t-49 -59t-23 -75t-6.5 -82q0 -40 2.5 -71t11.5 -69.5t25 -63.5t46 -42.5t71 -17.5z" />
    <glyph glyph-name="zero.old" horiz-adv-x="1312" 
d="M660 -18q-130 0 -235.5 49t-173.5 133.5t-104.5 195t-36.5 236.5v76q0 128 35.5 238.5t102 194.5t172 132.5t236.5 48.5t235.5 -48t171.5 -131.5t102.5 -193.5t35.5 -237v-76q0 -127 -34.5 -237.5t-100.5 -196t-170.5 -135t-235.5 -49.5zM651 127q83 0 148 26.5t106.5 71
t68.5 106.5t38 128t11 141q0 87 -7.5 158t-31 146t-62 125.5t-105.5 83t-157 32.5q-82 0 -146.5 -26t-106 -70t-69 -105.5t-39 -128t-11.5 -141.5q0 -71 5 -130t18.5 -125t39.5 -115.5t64.5 -91t98.5 -63.5t137 -22z" />
    <glyph glyph-name="zero.oldtab" 
d="M620 -18q-154 0 -271.5 74t-177.5 197t-60 275v211q0 154 58.5 277t174.5 196.5t272 73.5q154 0 269.5 -72.5t174 -195t58.5 -275.5v-211q0 -154 -57 -277.5t-171.5 -198t-269.5 -74.5zM619 127q70 0 125 22t91.5 59.5t60.5 90t34 110.5t10 123v209q0 81 -18 151
t-55.5 128t-102 91.5t-150.5 33.5q-85 0 -149 -33t-101.5 -90.5t-56 -128t-18.5 -152.5v-211q0 -82 19 -152t57 -127.5t103 -90.5t151 -33z" />
    <glyph glyph-name="zero.sub" horiz-adv-x="736" 
d="M370 -186q-146 0 -222.5 97t-76.5 247q0 77 15.5 141.5t48 118t90.5 84t136 30.5q146 0 225 -98.5t79 -243.5q0 -77 -15.5 -141.5t-49 -119t-92.5 -85t-138 -30.5zM366 -76q39 0 68 15t46 38t28 56t14.5 63.5t3.5 65.5q0 264 -158 264q-47 0 -79.5 -22t-49 -59t-23 -75
t-6.5 -82q0 -40 2.5 -71t11.5 -69.5t25 -63.5t46 -42.5t71 -17.5z" />
    <glyph glyph-name="zero.sup" horiz-adv-x="736" 
d="M368 872q-145 0 -221 98t-76 247q0 77 15.5 141.5t48 118t90.5 84t136 30.5q146 0 225 -98.5t79 -243.5q0 -76 -16 -140.5t-49.5 -119t-93 -86t-138.5 -31.5zM366 983q39 0 68 15t46 38t28 56t14.5 63.5t3.5 65.5q0 264 -158 264q-47 0 -79.5 -22t-49 -59t-23 -75
t-6.5 -82q0 -40 2.5 -71t11.5 -69.5t25 -63.5t46 -42.5t71 -17.5z" />
    <glyph glyph-name="zero.tab" 
d="M623 -18q-107 0 -193 33t-144.5 89.5t-97.5 135.5t-56.5 168t-17.5 190v256q0 102 16.5 191.5t54.5 171t95.5 139.5t144.5 92.5t196 34.5q107 0 192 -33t141 -89.5t93.5 -135.5t53.5 -167.5t16 -189.5v-266q0 -102 -15.5 -190t-52 -168.5t-92 -137.5t-141 -90.5
t-193.5 -33.5zM623 129q60 0 107.5 15t80 40t56.5 63t37 76.5t21 90t10 94t2 96.5v266q0 469 -324 469q-79 0 -138 -29.5t-93 -75t-54.5 -112.5t-27 -129t-6.5 -137v-256q0 -75 7 -137t28.5 -126.5t57 -108t95.5 -71.5t141 -28z" />
    <glyph glyph-name="one.den" horiz-adv-x="531" 
d="M242 0v565l-166 -100v121l183 114h123v-700h-140z" />
    <glyph glyph-name="one.num" horiz-adv-x="529" 
d="M242 764v565l-166 -100v121l183 114h123v-700h-140z" />
    <glyph glyph-name="one.old" horiz-adv-x="788" 
d="M392 0v1094l-323 -230v164l336 240h161v-1268h-174z" />
    <glyph glyph-name="one.oldtab" 
d="M653 0v1094l-417 -303v163l430 314h161v-1268h-174z" />
    <glyph glyph-name="one.sub" horiz-adv-x="495" 
d="M224 -178v565l-166 -100v121l183 114h123v-700h-140z" />
    <glyph glyph-name="one.sup" horiz-adv-x="495" 
d="M224 883v565l-166 -100v120l183 115h123v-700h-140z" />
    <glyph glyph-name="one.tab" 
d="M643 0v1284l-420 -305v166l412 319h186v-1464h-178z" />
    <glyph glyph-name="two.den" horiz-adv-x="643" 
d="M42 0v23l264 278q51 52 80.5 99t29.5 103q0 99 -98 99q-59 0 -97 -35t-56 -92l-99 43q25 92 91.5 141.5t166.5 49.5q102 0 165 -52t63 -155q0 -45 -20.5 -93t-59.5 -96t-68.5 -78.5t-74.5 -72.5l-62 -58h291v-104h-516z" />
    <glyph glyph-name="two.num" horiz-adv-x="641" 
d="M42 764v22l264 279q51 52 80.5 99t29.5 103q0 99 -98 99q-59 0 -97 -35t-56 -92l-99 43q25 92 91.5 141.5t166.5 49.5q102 0 165 -52t63 -155q0 -45 -20.5 -93t-59.5 -96t-68.5 -78.5t-74.5 -72.5l-62 -58h291v-104h-516z" />
    <glyph glyph-name="two.old" horiz-adv-x="1103" 
d="M44 0v72l514 448q46 41 71 65t63 67t58.5 78t36 83t15.5 97q0 111 -68 172t-185 61q-254 0 -343 -318l-137 60q51 181 174.5 291t307.5 110q85 0 161.5 -24.5t136.5 -71t95.5 -120t35.5 -163.5q0 -137 -118 -282q-58 -71 -220 -213l-309 -269h659v-143h-948z" />
    <glyph glyph-name="two.oldtab" 
d="M109 0v72l514 448q45 40 70.5 64.5t63.5 67.5t58 78t35.5 83t15.5 97q0 111 -68.5 172t-185.5 61q-72 0 -129 -23.5t-97 -69t-67.5 -99.5t-48.5 -126l-137 60q52 181 175 291t307 110q85 0 161.5 -24.5t136.5 -71t95.5 -120t35.5 -163.5q0 -137 -117 -281
q-33 -41 -79 -86t-141 -128l-310 -269h660v-143h-948z" />
    <glyph glyph-name="two.sub" horiz-adv-x="607" 
d="M24 -176v22l264 280q33 35 53 59t38.5 64t18.5 79q0 98 -98 98q-112 0 -153 -126l-99 42q25 93 91.5 141.5t166.5 48.5q102 0 165 -51.5t63 -154.5q0 -44 -18.5 -89.5t-55 -90.5t-64 -73.5t-72.5 -71.5q-12 -11 -18 -17l-57 -54h291v-106h-516z" />
    <glyph glyph-name="two.sup" horiz-adv-x="607" 
d="M24 883v22l279 296q46 49 70.5 91t24.5 94q0 97 -98 97q-59 0 -97 -34t-56 -91l-99 43q25 92 91 140t167 48q103 0 165.5 -50.5t62.5 -154.5q0 -46 -17.5 -90t-60 -95.5t-85.5 -94t-122 -115.5h291v-106h-516z" />
    <glyph glyph-name="two.tab" 
d="M87 0v74l516 516q141 141 187 210q90 133 90 274q0 129 -68.5 196.5t-196.5 67.5q-247 0 -338 -317l-137 59q52 181 174 292t301 111q196 0 320.5 -108t124.5 -296q0 -81 -24 -157.5t-70 -145.5t-91.5 -122t-109.5 -115q-102 -99 -312 -291l-112 -103h727v-145h-981z" />
    <glyph glyph-name="three.den" horiz-adv-x="695" 
d="M70 167l103 44q16 -57 58.5 -87.5t104.5 -30.5q59 0 90 26q38 27 38 88q0 29 -9 49.5t-22.5 31.5t-36.5 17t-41 7t-47 1h-21v97h17q33 0 55.5 2.5t46 11.5t35.5 29.5t12 52.5q0 50 -29.5 75t-80.5 25q-113 0 -148 -110l-100 43q58 170 245 170q101 0 172.5 -48.5
t71.5 -138.5q0 -114 -116 -153q65 -16 101 -60t36 -113q0 -71 -39 -118.5t-97 -67.5t-130 -20q-101 0 -175 43t-94 134z" />
    <glyph glyph-name="three.num" horiz-adv-x="690" 
d="M70 930l103 45q16 -54 60.5 -86.5t105.5 -32.5q54 0 88 28t34 88q0 29 -9.5 49.5t-23 31t-37 16.5t-42 7t-47.5 1h-17v97h17q33 0 55.5 2.5t46 11.5t35.5 29.5t12 52.5q0 50 -29.5 75t-79.5 25q-55 0 -93.5 -29.5t-55.5 -83.5l-102 46q29 87 94 128.5t154 41.5
q100 0 171.5 -48.5t71.5 -138.5q0 -114 -116 -153q65 -16 101 -60t36 -113q0 -53 -22.5 -94t-60.5 -65t-84 -36t-99 -12q-100 0 -173 42.5t-94 134.5z" />
    <glyph glyph-name="three.old" horiz-adv-x="1209" 
d="M85 161l141 61q40 -127 130 -208.5t216 -81.5q71 0 130.5 16t107.5 48.5t75 88t27 129.5q0 45 -7.5 82t-19.5 64.5t-33.5 49t-42 36t-52.5 24.5t-58 15.5t-65.5 8.5t-68 3.5t-72.5 0.5v149h34q65 0 109.5 4t93.5 18.5t78 40.5t48.5 73t19.5 114q0 119 -71 182.5
t-192 63.5q-135 0 -218 -63.5t-126 -194.5l-131 57q49 165 175 255.5t300 90.5q114 0 212.5 -46t161.5 -136t63 -205t-63 -196.5t-175 -122.5q138 -33 210.5 -128t72.5 -234q0 -108 -43.5 -193t-117 -136t-164 -77.5t-191.5 -26.5q-173 0 -312.5 104t-181.5 270z" />
    <glyph glyph-name="three.oldtab" 
d="M98 157l142 61q38 -128 128.5 -209t217.5 -81q70 0 129.5 16t107.5 48.5t75.5 88t27.5 129.5q0 45 -7.5 82t-20 64.5t-33.5 49t-42 36t-53 24.5t-58 15.5t-65.5 8.5t-68 3.5t-72.5 0.5v149h30q45 0 78.5 1.5t72.5 7.5t66.5 16.5t54.5 29.5t44 45t27 64t10 86
q0 119 -71 182.5t-191 63.5q-265 0 -344 -258l-131 57q47 166 174 256t301 90q113 0 212 -46t161.5 -135.5t62.5 -203.5q0 -115 -63.5 -197t-174.5 -124q139 -33 211 -126.5t72 -232.5q0 -108 -43.5 -193.5t-117 -137.5t-164.5 -78.5t-191 -26.5q-174 0 -313 104t-181 270z
" />
    <glyph glyph-name="three.sub" horiz-adv-x="659" 
d="M52 -10l99 43q17 -53 63 -85t106 -32q55 0 90.5 28.5t35.5 89.5q0 29 -9 49t-22 30.5t-36 16t-41 6.5t-47 1h-22v96h9q29 0 46.5 1t41 6t37 15t23 28.5t9.5 45.5q0 51 -29.5 76t-80.5 25q-113 0 -148 -111l-100 43q58 170 245 170q102 0 173 -47.5t71 -138.5
q0 -114 -116 -153q65 -16 101 -60t36 -113q0 -104 -79 -155t-191 -51q-99 0 -168.5 43t-96.5 133z" />
    <glyph glyph-name="three.sup" horiz-adv-x="659" 
d="M52 1049l101 43q14 -58 56 -87.5t103 -29.5q59 0 96.5 27.5t37.5 87.5q0 69 -56 94q-32 12 -103 12h-18v96h12q35 0 57 2.5t47 11t37.5 29t12.5 53.5q0 50 -29.5 75t-80.5 25q-113 0 -148 -110l-100 42q58 171 247 171q101 0 171.5 -47.5t70.5 -138.5q0 -113 -116 -154
q65 -16 101 -59.5t36 -111.5q0 -71 -41 -119.5t-100 -68.5t-130 -20q-99 0 -171 43t-93 134z" />
    <glyph glyph-name="three.tab" 
d="M95 354l142 62q38 -129 128 -210t218 -81q149 0 244.5 69.5t95.5 213.5q0 51 -8.5 91.5t-27 69.5t-39 50t-54.5 34.5t-62 21.5t-72 11.5t-75.5 4.5t-81.5 1v150h29q65 0 109.5 3.5t94.5 18t80 40.5t50 73.5t20 114.5q0 119 -71 182t-191 63q-138 0 -219.5 -62.5
t-124.5 -195.5l-132 58q49 167 174.5 256.5t301.5 89.5q115 0 213.5 -45.5t160.5 -135t62 -206.5q0 -229 -238 -320q283 -72 283 -368q0 -85 -28.5 -156.5t-77.5 -120.5t-115 -83t-140.5 -50t-154.5 -16q-173 0 -313 103t-181 269z" />
    <glyph glyph-name="four.den" horiz-adv-x="707" 
d="M62 141v52l313 507h170v-458h93v-101h-93v-141h-131v141h-352zM210 242h206v354z" />
    <glyph glyph-name="four.num" horiz-adv-x="705" 
d="M62 905v51l313 508h170v-458h93v-101h-93v-141h-131v141h-352zM210 1006h206v354z" />
    <glyph glyph-name="four.old" horiz-adv-x="1259" 
d="M71 129v74l669 1063h238v-992h203v-145h-203v-328h-174v328h-733zM290 274h514v856z" />
    <glyph glyph-name="four.oldtab" 
d="M74 117v67l639 1082h241v-1012h191v-137h-191v-316h-170v316h-710zM287 254h497v876z" />
    <glyph glyph-name="four.sub" horiz-adv-x="671" 
d="M44 -35v51l313 508h170v-458h93v-101h-93v-141h-131v141h-352zM192 66h206v354z" />
    <glyph glyph-name="four.sup" horiz-adv-x="671" 
d="M44 1024v49l313 510h170v-459h93v-100h-93v-141h-131v141h-352zM192 1124h206v355z" />
    <glyph glyph-name="four.tab" 
d="M85 328v73l649 1063h238v-991h172v-145h-172v-328h-174v328h-713zM298 473h500v846z" />
    <glyph glyph-name="five.den" horiz-adv-x="676" 
d="M70 152l107 45q35 -101 138 -101q63 0 95.5 38t32.5 99t-32.5 97.5t-97.5 36.5q-90 0 -134 -60h-74l8 393h430v-106h-325l-2 -188q55 61 158 61q102 0 156 -63t54 -165q0 -121 -74 -185t-196 -64q-91 0 -157.5 38t-86.5 124z" />
    <glyph glyph-name="five.num" horiz-adv-x="674" 
d="M70 913l103 45q42 -98 151 -98q55 0 87 41t32 99q0 57 -33 93.5t-96 36.5q-87 0 -135 -59h-74l8 393h430v-106h-325l-2 -187q53 60 155 60q104 0 158.5 -63t54.5 -166q0 -120 -72 -184t-192 -64q-90 0 -156 38.5t-94 120.5z" />
    <glyph glyph-name="five.old" horiz-adv-x="1160" 
d="M93 129l142 59q56 -262 323 -262q151 0 233.5 99t82.5 248t-80.5 249.5t-221.5 100.5q-212 0 -329 -142h-74v785h807v-154h-662v-446q114 100 290 100q137 0 240.5 -66t155.5 -174.5t52 -240.5q0 -218 -138.5 -360t-353.5 -142q-117 0 -212.5 36.5t-164 116t-90.5 193.5z
" />
    <glyph glyph-name="five.oldtab" 
d="M131 129l143 59q61 -262 332 -262q153 0 237.5 98t84.5 249q0 150 -82.5 250t-224.5 100q-216 0 -336 -142h-76v785h823v-154h-676v-446q118 100 295 100q138 0 244 -65t160.5 -173.5t54.5 -242.5q0 -220 -142.5 -361t-359.5 -141q-182 0 -314 87.5t-163 258.5z" />
    <glyph glyph-name="five.sub" horiz-adv-x="640" 
d="M52 -27l109 47q15 -49 51 -74.5t86 -25.5q63 0 95 38t32 99t-32.5 97t-96.5 36q-92 0 -135 -59h-74l8 393h430v-106h-325l-2 -187q53 60 155 60q104 0 158.5 -63t54.5 -166q0 -121 -74 -184.5t-196 -63.5q-90 0 -156.5 37.5t-87.5 121.5z" />
    <glyph glyph-name="five.sup" horiz-adv-x="640" 
d="M52 1034l103 45q14 -50 52.5 -75t89.5 -25q63 0 95.5 38t32.5 99t-32.5 97t-96.5 36q-92 0 -135 -59h-74l8 393h430v-107h-325l-2 -186q53 60 155 60q103 0 158 -63t55 -165q0 -121 -74.5 -185.5t-197.5 -64.5q-58 0 -104.5 14t-85 51.5t-52.5 96.5z" />
    <glyph glyph-name="five.tab" 
d="M110 329l143 59q33 -134 113.5 -198t218.5 -64q153 0 237 98t84 252q0 151 -80.5 248t-226.5 97q-107 0 -188.5 -32.5t-147.5 -108.5h-76v784h824v-153h-676v-447q109 101 292 101q212 0 336.5 -136.5t124.5 -342.5q0 -221 -141.5 -362.5t-359.5 -141.5
q-120 0 -216.5 35.5t-167 115t-93.5 196.5z" />
    <glyph glyph-name="six.den" horiz-adv-x="713" 
d="M619 575l-106 -45q-48 74 -132 74q-42 0 -74 -23t-48.5 -60t-24.5 -75.5t-8 -78.5q55 90 178 90q102 0 163.5 -62t61.5 -168q0 -115 -72.5 -176t-191.5 -61q-276 0 -276 336q0 60 8.5 113t30 103.5t54.5 86.5t84.5 58t116.5 22q170 0 236 -134zM361 90q62 0 96.5 38
t34.5 99q0 60 -33.5 97.5t-94.5 37.5q-60 0 -96 -36t-36 -99q0 -61 34 -99t95 -38z" />
    <glyph glyph-name="six.num" horiz-adv-x="711" 
d="M619 1339l-106 -45q-48 74 -133 74q-43 0 -74.5 -23t-48 -60t-24 -76t-7.5 -79q55 91 179 91q101 0 162.5 -62t61.5 -168q0 -115 -72.5 -176t-191.5 -61q-276 0 -276 335q0 76 15 141.5t47.5 121.5t91.5 88.5t140 32.5q170 0 236 -134zM361 854q62 0 96.5 38t34.5 99
q0 60 -33.5 97.5t-94.5 37.5q-60 0 -96 -36t-36 -99q0 -61 34 -99t95 -38z" />
    <glyph glyph-name="six.old" horiz-adv-x="1246" 
d="M1113 1204l-149 -65q-33 95 -113 146.5t-183 51.5q-86 0 -153.5 -38.5t-108 -98.5t-67 -140.5t-36 -155.5t-9.5 -152q57 98 155 148t216 50q207 0 340 -137.5t133 -348.5q0 -215 -140 -348.5t-360 -133.5q-518 0 -518 700q0 95 12 185t37 182.5t69.5 169t105 136.5
t148 94t193.5 34q150 0 260 -69t168 -210zM637 121q149 0 235 96t86 246q0 152 -85.5 250t-232.5 98q-144 0 -239 -91.5t-95 -232.5q0 -159 87.5 -262.5t243.5 -103.5z" />
    <glyph glyph-name="six.oldtab" 
d="M1096 1204l-146 -65q-33 96 -110.5 147t-177.5 51q-71 0 -129.5 -27t-97.5 -74t-68 -104.5t-44.5 -125.5t-22.5 -130t-7 -124q55 97 152 147.5t215 50.5q202 0 331 -138t129 -347q0 -213 -136 -348t-353 -135q-88 0 -161 21t-125 57.5t-91.5 89.5t-64 112t-39.5 131.5
t-21 141.5t-6 147q0 114 15.5 220.5t54.5 214.5t99 187t157.5 129t220.5 50q314 0 426 -279zM629 121q148 0 231.5 97t83.5 248q0 150 -82 247.5t-228 97.5q-143 0 -236 -92t-93 -232q0 -159 85 -262.5t239 -103.5z" />
    <glyph glyph-name="six.sub" horiz-adv-x="677" 
d="M597 397l-98 -43q-19 37 -54.5 55.5t-75.5 18.5q-45 0 -78.5 -23t-50.5 -60t-24.5 -75.5t-7.5 -79.5q55 91 178 91q101 0 163 -62.5t62 -168.5q0 -115 -72.5 -175.5t-191.5 -60.5q-276 0 -276 335q0 60 9 113.5t31 103.5t55.5 86t86.5 58t121 22q169 0 223 -135zM343 -86
q62 0 96.5 38t34.5 99q0 60 -33.5 97.5t-94.5 37.5q-60 0 -96 -36t-36 -99q0 -61 34 -99t95 -38z" />
    <glyph glyph-name="six.sup" horiz-adv-x="677" 
d="M597 1454l-104 -43q-17 37 -51 56.5t-75 19.5q-44 0 -77 -23t-50 -60t-24.5 -75.5t-7.5 -79.5q55 90 178 90q101 0 163 -61.5t62 -167.5q0 -115 -73.5 -176.5t-191.5 -61.5q-145 0 -210 90.5t-65 245.5q0 60 9 113.5t30.5 103.5t55 86t86 58t119.5 22q169 0 226 -137z
M343 973q62 0 96.5 38t34.5 99q0 60 -33.5 97.5t-94.5 37.5q-60 0 -96 -36t-36 -99q0 -61 34 -99t95 -38z" />
    <glyph glyph-name="six.tab" 
d="M1116 1196l-145 -63q-36 98 -120.5 151t-189.5 53q-87 0 -155 -38.5t-109 -98.5t-67.5 -140t-36.5 -155t-10 -153q56 99 155 148.5t220 49.5q210 0 345.5 -136.5t135.5 -351.5q0 -218 -141 -349t-365 -131q-126 0 -221 39.5t-152 103.5t-92.5 157.5t-48.5 189t-13 210.5
q0 81 8 158.5t27 158.5t48.5 151t75 132t103.5 106t137 69.5t173 25.5q316 0 438 -287zM627 121q152 0 240.5 97.5t88.5 251.5q0 151 -85 246t-236 95q-147 0 -243.5 -90t-96.5 -234q0 -161 88.5 -263.5t243.5 -102.5z" />
    <glyph glyph-name="seven.den" horiz-adv-x="606" 
d="M162 0l232 588h-332v112h494v-47l-254 -653h-140z" />
    <glyph glyph-name="seven.num" horiz-adv-x="604" 
d="M162 764l232 588h-332v112h494v-47l-254 -653h-140z" />
    <glyph glyph-name="seven.old" horiz-adv-x="1066" 
d="M245 -199l567 1325h-756v140h959v-68l-592 -1397h-178z" />
    <glyph glyph-name="seven.oldtab" 
d="M303 -199l586 1325h-750v140h959v-68l-617 -1397h-178z" />
    <glyph glyph-name="seven.sub" horiz-adv-x="570" 
d="M144 -176l232 588h-332v112h494v-47l-254 -653h-140z" />
    <glyph glyph-name="seven.sup" horiz-adv-x="570" 
d="M144 883l232 587h-332v113h494v-47l-254 -653h-140z" />
    <glyph glyph-name="seven.tab" 
d="M341 0l555 1321h-752v143h965v-73l-586 -1391h-182z" />
    <glyph glyph-name="eight.den" horiz-adv-x="699" 
d="M212 375q-103 47 -103 148q0 88 72.5 137t165.5 49t166 -49.5t73 -137.5q0 -49 -35 -91.5t-78 -53.5q54 -14 97 -61.5t43 -119.5q0 -67 -41 -115.5t-100.5 -69.5t-126.5 -21q-66 0 -123.5 20.5t-98 70t-40.5 120.5q0 131 129 174zM240 512q0 -46 31 -71t79 -25t76.5 25
t28.5 71q0 48 -29.5 73t-76.5 25q-48 0 -78.5 -25.5t-30.5 -72.5zM222 207q0 -56 34 -85.5t91 -29.5q59 0 93 30.5t34 86.5t-34.5 87.5t-90.5 31.5t-91.5 -32t-35.5 -89z" />
    <glyph glyph-name="eight.num" horiz-adv-x="697" 
d="M212 1139q-103 47 -103 148q0 88 72.5 137t165.5 49q94 0 166.5 -50t72.5 -140q0 -105 -113 -142q64 -14 102 -63.5t38 -116.5q0 -68 -41 -116.5t-100 -69.5t-126 -21t-124.5 20.5t-98 70t-40.5 120.5q0 131 129 174zM240 1276q0 -46 31 -71t79 -25t76.5 25t28.5 71
q0 48 -29.5 73t-76.5 25q-48 0 -78.5 -25.5t-30.5 -72.5zM222 971q0 -56 34.5 -85.5t92.5 -29.5t91.5 30t33.5 85q0 58 -34.5 89.5t-90.5 31.5t-91.5 -32t-35.5 -89z" />
    <glyph glyph-name="eight.old" horiz-adv-x="1214" 
d="M394 782q-108 41 -170.5 122t-62.5 193q0 115 66 205t166.5 135.5t212.5 45.5q83 0 162.5 -27t143 -75t102 -121t38.5 -158q0 -112 -64.5 -194.5t-173.5 -123.5q134 -44 213.5 -140t79.5 -235q0 -99 -42.5 -181t-112.5 -135t-159 -82t-184 -29q-76 0 -149 18t-137 54.5
t-112.5 87t-76.5 120t-28 148.5q0 135 78 232.5t210 139.5zM339 1096q0 -113 80.5 -181.5t197.5 -68.5q114 0 185.5 67t71.5 177q0 115 -78 184.5t-190 69.5t-189.5 -68.5t-77.5 -179.5zM284 417q0 -132 95 -212t231 -80q135 0 227 79.5t92 213.5q0 133 -91.5 211t-226.5 78
t-231 -78.5t-96 -211.5z" />
    <glyph glyph-name="eight.oldtab" 
d="M410 782q-108 38 -166 119t-58 192q0 115 61.5 206t158 137.5t207.5 46.5t208.5 -46.5t160 -136t62.5 -203.5q0 -110 -59.5 -191.5t-167.5 -121.5q132 -43 207.5 -140t75.5 -233q0 -129 -68.5 -228.5t-177 -150t-235.5 -50.5q-95 0 -182.5 30t-155.5 84.5t-109 137.5
t-41 181q0 133 73.5 229t205.5 138zM364 1095q0 -112 74 -180.5t188 -68.5q113 0 176.5 68.5t63.5 184.5q0 107 -71.5 176t-180.5 69t-179.5 -69.5t-70.5 -179.5zM309 417q0 -131 88 -211.5t221 -80.5t218.5 81t85.5 214q0 132 -83.5 209.5t-216.5 77.5q-135 0 -224 -79
t-89 -211z" />
    <glyph glyph-name="eight.sub" horiz-adv-x="663" 
d="M194 199q-103 47 -103 149q0 88 72.5 136t166.5 48q59 0 112 -18.5t89.5 -60t36.5 -97.5q0 -57 -34 -101.5t-79 -53.5q54 -16 97 -65t43 -120q0 -97 -80.5 -149.5t-185.5 -52.5q-49 0 -94.5 12.5t-84.5 36.5t-62 66t-23 95q0 132 129 175zM222 336q0 -46 31 -71t79 -25
t76.5 25t28.5 71q0 48 -29.5 73t-76.5 25q-48 0 -78.5 -25.5t-30.5 -72.5zM204 30q0 -56 34 -85t93 -29q58 0 91.5 30t33.5 85q0 58 -34.5 89.5t-90.5 31.5t-91.5 -32t-35.5 -90z" />
    <glyph glyph-name="eight.sup" horiz-adv-x="663" 
d="M194 1257q-103 49 -103 150q0 88 72.5 136t166.5 48t166 -48.5t72 -137.5q0 -47 -36 -87.5t-77 -57.5q55 -15 97.5 -65t42.5 -112q0 -69 -41.5 -118.5t-100 -71t-125.5 -21.5q-105 0 -184 54t-79 157q0 131 129 174zM222 1397q0 -47 31.5 -73t79.5 -26q47 0 75.5 25.5
t28.5 71.5q0 48 -29.5 73t-76.5 25q-48 0 -78.5 -25t-30.5 -71zM204 1090q0 -56 34.5 -85.5t92.5 -29.5t91.5 30t33.5 85q0 58 -34.5 89t-90.5 31q-57 0 -92 -31.5t-35 -88.5z" />
    <glyph glyph-name="eight.tab" 
d="M390 795q-107 39 -165 115.5t-58 183.5q0 88 40 163t104.5 123.5t144 75.5t161.5 27t161.5 -26.5t143.5 -73.5t104 -120.5t40 -159.5q0 -209 -227 -306q134 -48 208 -143t74 -232q0 -102 -42 -186.5t-112.5 -138.5t-160 -84t-187.5 -30q-97 0 -187 29t-162 82.5t-115 138
t-43 186.5q0 135 73.5 232t204.5 144zM349 1101q0 -112 82 -177.5t201 -65.5q114 0 183 63.5t69 181.5q0 109 -78.5 174t-189.5 65q-112 0 -189.5 -65.5t-77.5 -175.5zM294 427q0 -135 95.5 -217.5t233.5 -82.5q136 0 226 80t90 216t-91 215t-229 79t-231.5 -78t-93.5 -212z
" />
    <glyph glyph-name="nine.den" horiz-adv-x="713" 
d="M91 133l104 45q19 -40 57 -61t82 -21q45 0 77 22t48 59.5t22.5 74.5t6.5 78q-54 -88 -175 -88q-101 0 -164.5 62.5t-63.5 171.5q0 114 70.5 174.5t186.5 60.5q145 0 214 -91t69 -237q0 -82 -12 -146.5t-41.5 -123t-88 -91t-142.5 -32.5q-55 0 -103.5 13t-90 46.5
t-56.5 83.5zM348 338q58 0 94 35.5t36 98.5q0 60 -33.5 99t-94.5 39t-94.5 -38t-33.5 -99t33.5 -98t92.5 -37z" />
    <glyph glyph-name="nine.num" horiz-adv-x="711" 
d="M91 897l102 45q14 -42 53.5 -62t83.5 -20q38 0 67 15.5t45.5 39t27.5 55.5t14.5 62t3.5 62q-54 -88 -175 -88q-101 0 -164.5 62.5t-63.5 170.5q0 114 71 175t187 61q98 0 163 -45.5t92 -117t27 -165.5q0 -82 -12 -146.5t-41.5 -123t-88 -91t-142.5 -32.5q-55 0 -103.5 13
t-90 46.5t-56.5 83.5zM349 1102q58 0 93.5 35t35.5 98q0 61 -33.5 100t-94.5 39t-94.5 -38t-33.5 -99t33.5 -98t93.5 -37z" />
    <glyph glyph-name="nine.old" horiz-adv-x="1246" 
d="M110 100l149 66q40 -112 129 -172t203 -60q74 0 134 26t99 72t67 101.5t42.5 123.5t20.5 129t6 125v5q-60 -97 -160 -145.5t-221 -48.5q-209 0 -344.5 135t-135.5 348q0 218 142 351.5t364 133.5q96 0 173.5 -22.5t132 -61t94.5 -96t64 -119.5t38.5 -140.5t19.5 -150
t5 -157.5q0 -116 -14.5 -218t-52 -203t-96 -172.5t-154 -116t-218.5 -44.5q-169 0 -302.5 79.5t-184.5 231.5zM607 461q143 0 239.5 87.5t96.5 229.5q0 163 -88.5 268t-246.5 105q-151 0 -238.5 -95.5t-87.5 -246.5q0 -152 87.5 -250t237.5 -98z" />
    <glyph glyph-name="nine.oldtab" 
d="M123 102l143 66q38 -112 123.5 -171.5t204.5 -59.5q60 0 110.5 20.5t85 54t61 81.5t42.5 98.5t26 109.5t13.5 109t3.5 103v5q-57 -95 -153 -144.5t-213 -49.5q-204 0 -330.5 137t-126.5 347q0 215 134 349.5t351 134.5q92 0 166 -23t126 -61t90.5 -95.5t61.5 -119.5
t37 -141t18.5 -150.5t4.5 -156.5q0 -79 -6.5 -151.5t-22.5 -149.5t-41 -142t-65.5 -123.5t-92.5 -99t-125 -64.5t-160 -24q-164 0 -288.5 80t-177.5 231zM598 463q139 0 230.5 89t91.5 228q0 77 -20 143.5t-58 118t-100 81.5t-140 30q-147 0 -231 -98t-84 -248
q0 -147 82 -245.5t229 -98.5z" />
    <glyph glyph-name="nine.sub" horiz-adv-x="677" 
d="M73 -43l104 45q19 -40 57 -61t82 -21q45 0 77 22t48 59.5t22.5 74.5t6.5 78q-54 -88 -175 -88q-101 0 -164.5 62.5t-63.5 170.5q0 114 71 175t187 61q98 0 163 -45.5t92 -117t27 -165.5q0 -64 -7 -117.5t-26 -106t-49.5 -88.5t-82.5 -58.5t-120 -22.5q-55 0 -103.5 13
t-89.5 46.5t-56 83.5zM331 162q58 0 93.5 35t35.5 98q0 61 -33.5 100t-94.5 39t-94.5 -38t-33.5 -99t33.5 -98t93.5 -37z" />
    <glyph glyph-name="nine.sup" horiz-adv-x="677" 
d="M73 1016l104 45q15 -42 57 -64q40 -18 83 -18q45 0 77 22t47.5 59t22 74t6.5 78q-54 -88 -175 -88q-102 0 -165 63t-63 171q0 114 70.5 174.5t186.5 60.5q145 0 214 -90.5t69 -236.5q0 -64 -7 -117.5t-26 -106.5t-49.5 -89t-82.5 -58.5t-120 -22.5q-87 0 -157 35t-92 109
zM330 1221q59 0 94.5 35t35.5 98q0 61 -33.5 100t-94.5 39t-94.5 -38t-33.5 -100q0 -61 32.5 -97.5t93.5 -36.5z" />
    <glyph glyph-name="nine.tab" 
d="M104 293l150 65q39 -114 128.5 -172.5t213.5 -58.5q87 0 153 38.5t104 96.5t61.5 138.5t31.5 153t8 151.5v5q-58 -98 -158 -147t-220 -49q-209 0 -345.5 137.5t-136.5 351.5q0 217 141 348.5t365 131.5q96 0 174 -22.5t132.5 -60.5t94.5 -96t63.5 -119.5t38 -140.5
t19 -150.5t4.5 -157.5q0 -80 -6.5 -153t-23.5 -150t-43.5 -141.5t-69 -123t-97.5 -99t-132 -64t-170 -23.5q-169 0 -295.5 77t-184.5 234zM600 654q146 0 242 87t96 231q0 163 -88.5 267t-247.5 104q-152 0 -239 -95.5t-87 -249.5q0 -153 86 -248.5t238 -95.5z" />
    <glyph glyph-name="colon.alt" horiz-adv-x="617" 
d="M305 945q-54 0 -91.5 38t-37.5 93q0 56 38 93.5t93 37.5t93 -38t38 -92t-39.5 -93t-93.5 -39zM176 311q0 55 38 93t93 38t93 -38t38 -93t-38.5 -93t-94.5 -38q-55 0 -92 37.5t-37 93.5z" />
    <glyph glyph-name="colon.tab" horiz-adv-x="617" 
d="M172 1116q0 56 38 93.5t93 37.5t93 -38t38 -91q0 -55 -39 -94t-94 -39q-53 0 -91 38t-38 93zM172 311q0 55 38 93t93 38t93 -38t38 -93t-38 -93t-93 -38t-93 38t-38 93z" />
    <glyph glyph-name="semicolon.tab" horiz-adv-x="617" 
d="M321 649q-53 0 -91 38t-38 93t37.5 93t91.5 38q55 0 94 -39t39 -92t-39.5 -92t-93.5 -39zM48 -195l197 449l166 -78l-252 -428z" />
    <glyph glyph-name="less.tab" 
d="M204 639v41l786 455v-164l-538 -312l538 -311v-164z" />
    <glyph glyph-name="equal.tab" 
d="M198 791v147h827v-147h-827zM198 381v147h827v-147h-827z" />
    <glyph glyph-name="greater.tab" 
d="M233 184v164l538 311l-538 312v164l786 -455v-41z" />
    <glyph glyph-name="at.uc" horiz-adv-x="1869" 
d="M1402 172l121 -53q-98 -122 -254.5 -180t-328.5 -58q-235 0 -423.5 101.5t-295.5 284.5t-107 413q0 177 65.5 335.5t178.5 273t272.5 182t338.5 67.5q156 0 298.5 -51.5t250.5 -143.5t172 -230.5t64 -301.5q0 -70 -13.5 -139.5t-43 -136t-73 -117.5t-108.5 -82t-143 -31
q-91 0 -153 41.5t-68 130.5q-45 -82 -125.5 -134t-171.5 -52q-150 0 -234.5 97.5t-84.5 250.5q0 85 27 166.5t75 147t123 105.5t164 40q81 0 147 -33.5t94 -101.5l15 118h170l-60 -499v-7v-2l-1 -4v-2q-3 -18 -3 -36q0 -107 103 -107q62 0 106.5 38.5t67 100.5t32 123
t9.5 123q0 187 -85.5 322.5t-229.5 202.5t-330 67q-153 0 -282 -53.5t-217.5 -148t-138 -225.5t-49.5 -282q0 -300 182.5 -487t481.5 -187q284 0 465 154zM894 418q78 0 137 52t87 125.5t28 152.5q0 100 -49.5 159.5t-141.5 59.5q-65 0 -115 -31t-77.5 -80.5t-41 -102
t-13.5 -104.5q0 -99 48 -165t138 -66z" />
    <glyph glyph-name="bracketleft.tab" horiz-adv-x="617" 
d="M136 -303v1898h408v-141h-238v-1622h238v-135h-408z" />
    <glyph glyph-name="bracketleft.uc" horiz-adv-x="724" 
d="M177 -193v1797h459v-146h-289v-1495h289v-156h-459z" />
    <glyph glyph-name="backslash.uc" horiz-adv-x="820" 
d="M615 -193l-557 1797h156l557 -1797h-156z" />
    <glyph glyph-name="bracketright.tab" horiz-adv-x="617" 
d="M67 -303v135h237v1622h-237v141h407v-1898h-407z" />
    <glyph glyph-name="bracketright.uc" horiz-adv-x="724" 
d="M87 -193v156h289v1495h-289v146h459v-1797h-459z" />
    <glyph glyph-name="grave.uc" horiz-adv-x="814" 
d="M359 1579l-200 260h213l114 -260h-127z" />
    <glyph glyph-name="a.alt" horiz-adv-x="1284" 
d="M933 0v181q-54 -89 -151.5 -144t-201.5 -55q-144 0 -253.5 76t-164.5 197t-55 264q0 107 33 208.5t92.5 183t153 130.5t204.5 49t200.5 -48.5t142.5 -138.5v168h169v-1071h-169zM606 124q82 0 146.5 33.5t104.5 90.5t61 129t21 152q0 68 -9.5 127t-32.5 114t-58.5 93.5
t-91 61.5t-126.5 23q-88 0 -155 -34.5t-106 -93t-58 -130t-19 -152.5q0 -62 10.5 -119.5t35 -111.5t61 -94.5t92 -64.5t124.5 -24z" />
    <glyph glyph-name="f_f.short" horiz-adv-x="1263" 
d="M206 2v928h-154v141h154v88q0 57 2.5 99.5t10.5 90t22 81t38 65.5t57.5 51.5t82 31t110.5 11.5q80 0 144 -20l-56 -129q-46 8 -80 8q-84 0 -122.5 -50.5t-38.5 -133.5v-193h420v82q0 57 2 99t10 90.5t21.5 82t37 67t57 53.5t82 32t109.5 12q80 0 144 -20l-56 -129
q-46 8 -79 8q-84 0 -121 -50.5t-37 -133.5v-193h262v-141h-262v-928h-170v928h-420v-928h-170z" />
    <glyph glyph-name="f.short" horiz-adv-x="673" 
d="M206 0v928h-154v143h154v71q0 59 2 100.5t9.5 91.5t20.5 84.5t37 69t57 55t82.5 33.5t111.5 13q79 0 143 -20l-56 -131q-46 8 -80 8q-83 0 -120 -50t-37 -133v-192h262v-143h-262v-928h-170z" />
    <glyph glyph-name="t.alt" horiz-adv-x="723" 
d="M238 0v928h-168v143h168v201l170 74v-275h236v-143h-236v-928h-170z" />
    <glyph glyph-name="braceleft.tab" horiz-adv-x="617" 
d="M540 -168v-135q-200 -1 -276.5 86.5t-76.5 290.5q0 70 14 166q13 102 13 166q0 78 -41.5 118t-122.5 60v127q82 20 123 59.5t41 118.5q0 70 -13 183q-14 107 -14 180q0 184 84.5 263.5t268.5 79.5v-141h-5q-52 0 -87 -11t-54.5 -27.5t-29.5 -49.5t-12.5 -63t-2.5 -82
q0 -68 14 -164q13 -102 13 -164q0 -95 -45 -151.5t-139 -94.5q105 -36 144.5 -99.5t39.5 -177.5q0 -63 -13 -165q-14 -96 -14 -164q0 -110 41.5 -160t149.5 -49z" />
    <glyph glyph-name="braceleft.uc" horiz-adv-x="774" 
d="M690 -193h-5q-90 0 -159.5 15.5t-127 51.5t-88 102.5t-30.5 160.5l5 88l7 72q12 89 12 157q0 189 -223 189v129h4q219 0 219 191q0 66 -12 157l-4 35q-8 80 -8 121q0 77 20.5 135t56 94.5t88 59t110.5 31t130 8.5h5v-146h-5q-63 0 -103 -6.5t-74 -27t-49.5 -60.5
t-15.5 -104q0 -38 8 -118l4 -37q12 -91 12 -159q0 -193 -194 -238q109 -26 151.5 -93t42.5 -181q0 -64 -12 -141l-12 -143q0 -51 11.5 -85.5t29.5 -54.5t52 -30.5t67.5 -13.5t86.5 -3v-156z" />
    <glyph glyph-name="bar.uc" horiz-adv-x="513" 
d="M187 -193v1797h138v-1797h-138z" />
    <glyph glyph-name="braceright.tab" horiz-adv-x="617" 
d="M71 -303v135h5q51 0 86 12.5t54 30.5t28.5 53t12 65.5t2.5 82.5q0 71 -12 162l-4 41l-8 113q0 103 43.5 162t138.5 93q-108 41 -145 98.5t-37 165.5q0 60 12 174q12 116 12 177q0 110 -37.5 151.5t-150.5 40.5v141q193 0 271.5 -85.5t78.5 -270.5q0 -73 -12 -160
q-15 -103 -15 -190q0 -79 41 -118.5t123 -59.5v-127q-80 -20 -122 -60.5t-42 -117.5q0 -78 14 -183q13 -113 13 -182q0 -185 -83 -264.5t-267 -79.5z" />
    </font>
</defs>
</svg>
