<svg width="72" height="73" viewBox="0 0 72 73" fill="none" xmlns="http://www.w3.org/2000/svg">
<rect y="0.378906" width="72" height="72" fill="white" fill-opacity="0.2"/>
<path d="M52.19 27.1889C49.65 24.6489 46.32 23.3789 43 23.3789V25.5789C45.96 25.5289 48.85 26.7689 50.84 29.0789C51.11 29.3889 51.08 29.8689 50.76 30.1389C50.62 30.2589 50.44 30.3189 50.27 30.3189C50.06 30.3189 49.85 30.2289 49.7 30.0589C48 28.0889 45.53 27.0289 43 27.0789V29.0489C44.9 28.9989 46.78 29.7689 48.09 31.2189C48.37 31.5289 48.34 31.9989 48.04 32.2789C47.9 32.4089 47.72 32.4689 47.54 32.4689C47.34 32.4689 47.13 32.3889 46.98 32.2189C45.96 31.0889 44.49 30.4989 43 30.5489V33.8789C43.64 33.8789 44.28 34.1189 44.77 34.6089C45.75 35.5889 45.75 37.1689 44.77 38.1489C44.28 38.6389 43.64 38.8789 43 38.8789V49.3789C46.33 49.3789 49.65 48.1089 52.19 45.5689C57.27 40.4889 57.27 32.2589 52.19 27.1889Z" fill="white"/>
<path d="M38.5 21.3789H23C22.72 21.3789 22.5 21.5989 22.5 21.8789V50.8789C22.5 51.1589 22.72 51.3789 23 51.3789H38.5C39.6 51.3789 40.5 50.4789 40.5 49.3789V23.3789C40.5 22.2789 39.6 21.3789 38.5 21.3789ZM36.9 34.0489C36.9 34.5389 36.5 34.9389 36.01 34.9389H33.34C32.85 34.9389 32.45 35.3389 32.45 35.8289V39.5889C32.45 40.5689 31.65 41.3689 30.67 41.3689H28.89C27.91 41.3689 27.11 40.5689 27.11 39.5889C27.11 38.6089 27.91 37.8089 28.89 37.8089H30.56V32.2689C30.56 31.7789 30.96 31.3789 31.45 31.3789H36.01C36.5 31.3789 36.9 31.7789 36.9 32.2689V34.0489ZM19.5 21.3789H17C16.45 21.3789 16 21.8289 16 22.3789V50.3789C16 50.9289 16.45 51.3789 17 51.3789H19.5C19.78 51.3789 20 51.1589 20 50.8789V21.8789C20 21.5989 19.78 21.3789 19.5 21.3789Z" fill="white"/>
</svg>
