<svg width="72" height="73" viewBox="0 0 72 73" fill="none" xmlns="http://www.w3.org/2000/svg">
<rect y="0.378906" width="72" height="72" fill="white" fill-opacity="0.2"/>
<path d="M33 34.6789C31.9 34.6789 31 35.5789 31 36.6789C31 37.7789 31.9 38.6789 33 38.6789C34.1 38.6789 35 37.7789 35 36.6789C35 35.5789 34.1 34.6789 33 34.6789ZM33 17.3789C22.51 17.3789 14 25.8889 14 36.3789C14 46.8689 22.51 55.3789 33 55.3789C35.05 55.3789 37.01 55.0489 38.86 54.4489C37.72 53.3389 37 51.7989 37 50.0889C37 46.7389 39.73 44.0089 43.08 44.0089H43.76V35.3689C43.76 32.9989 45.68 31.0789 48.05 31.0789H51.24C48.94 23.1689 41.66 17.3789 33 17.3789ZM19.18 34.5189C19.07 34.5189 18.96 34.5089 18.85 34.4789C18.04 34.2989 17.53 33.4889 17.72 32.6889C19.01 26.9689 23.56 22.5189 29.3 21.3389C30.11 21.1789 30.9 21.6989 31.07 22.5089C31.24 23.3189 30.71 24.1089 29.9 24.2789C25.31 25.2189 21.68 28.7789 20.64 33.3489C20.48 34.0489 19.86 34.5189 19.18 34.5189ZM25.92 34.6189C25.77 35.3189 25.15 35.7989 24.46 35.7989C24.36 35.7989 24.25 35.7889 24.14 35.7689C23.33 35.5989 22.81 34.7989 22.99 33.9889C23.76 30.3989 26.58 27.5389 30.16 26.7089C30.96 26.5189 31.77 27.0289 31.96 27.8289C32.15 28.6389 31.64 29.4389 30.83 29.6289C28.38 30.1989 26.45 32.1489 25.92 34.6089V34.6189ZM33 41.6889C30.24 41.6889 28 39.4489 28 36.6889C28 33.9289 30.24 31.6889 33 31.6889C35.76 31.6889 38 33.9289 38 36.6889C38 39.4489 35.76 41.6889 33 41.6889Z" fill="white"/>
<path d="M55.21 33.5789H48.05C47.06 33.5789 46.26 34.3789 46.26 35.3689V46.5089H43.08C41.1 46.5089 39.5 48.1089 39.5 50.0889C39.5 52.0689 41.1 53.6689 43.08 53.6689H44.47C46.45 53.6689 48.05 52.0689 48.05 50.0889V42.5289C48.05 41.5389 48.85 40.7389 49.84 40.7389H55.21C56.2 40.7389 57 39.9389 57 38.9489V35.3689C57 34.3789 56.2 33.5789 55.21 33.5789Z" fill="white"/>
</svg>
