<svg width="72" height="73" viewBox="0 0 72 73" fill="none" xmlns="http://www.w3.org/2000/svg">
<rect y="0.378906" width="72" height="72" fill="white" fill-opacity="0.2"/>
<path d="M34 39.5589V51.3789C34 52.4789 34.9 53.3789 36 53.3789C37.1 53.3789 38 52.4789 38 51.3789V39.5589C37.37 39.7589 36.7 39.8789 36 39.8789C35.3 39.8789 34.63 39.7689 34 39.5589ZM38 29.9289V21.3789C38 20.2789 37.1 19.3789 36 19.3789C34.9 19.3789 34 20.2789 34 21.3789V29.9289C32.81 30.6189 32 31.8989 32 33.3789C32 35.5889 33.79 37.3789 36 37.3789C38.21 37.3789 40 35.5889 40 33.3789C40 31.8989 39.19 30.6289 38 29.9289ZM36 35.3789C34.9 35.3789 34 34.4789 34 33.3789C34 32.2789 34.9 31.3789 36 31.3789C37.1 31.3789 38 32.2789 38 33.3789C38 34.4789 37.1 35.3789 36 35.3789Z" fill="white"/>
<path d="M27 32.1989V21.3789C27 20.2789 26.1 19.3789 25 19.3789C23.9 19.3789 23 20.2789 23 21.3789V32.1989C23.63 31.9989 24.3 31.8789 25 31.8789C25.7 31.8789 26.37 31.9889 27 32.1989ZM49 32.1989V21.3789C49 20.2789 48.1 19.3789 47 19.3789C45.9 19.3789 45 20.2789 45 21.3789V32.1989C45.63 31.9989 46.3 31.8789 47 31.8789C47.7 31.8789 48.37 31.9889 49 32.1989ZM47 34.3789C44.79 34.3789 43 36.1689 43 38.3789C43 39.8589 43.81 41.1289 45 41.8289V51.3789C45 52.4789 45.9 53.3789 47 53.3789C48.1 53.3789 49 52.4789 49 51.3789V41.8289C50.19 41.1389 51 39.8589 51 38.3789C51 36.1689 49.21 34.3789 47 34.3789ZM47 40.3789C45.9 40.3789 45 39.4789 45 38.3789C45 37.2789 45.9 36.3789 47 36.3789C48.1 36.3789 49 37.2789 49 38.3789C49 39.4789 48.1 40.3789 47 40.3789ZM25 34.3789C22.79 34.3789 21 36.1689 21 38.3789C21 39.8589 21.81 41.1289 23 41.8289V51.3789C23 52.4789 23.9 53.3789 25 53.3789C26.1 53.3789 27 52.4789 27 51.3789V41.8289C28.19 41.1389 29 39.8589 29 38.3789C29 36.1689 27.21 34.3789 25 34.3789ZM25 40.3789C23.9 40.3789 23 39.4789 23 38.3789C23 37.2789 23.9 36.3789 25 36.3789C26.1 36.3789 27 37.2789 27 38.3789C27 39.4789 26.1 40.3789 25 40.3789Z" fill="white"/>
</svg>
