<svg width="150" height="100" viewBox="0 0 150 100" fill="none" xmlns="http://www.w3.org/2000/svg">
<path d="M116.468 31.4896C116.612 31.2328 116.806 31.0085 117.038 30.8304C117.27 30.6523 117.536 30.5243 117.819 30.4542C118.091 30.3758 118.378 30.3635 118.656 30.4183C118.934 30.4731 119.195 30.5935 119.418 30.7697L128.618 38.2196H135.5C135.186 37.0041 134.41 35.9633 133.342 35.3237L109.994 21.1519C106.797 19.1782 102.328 21.3218 101.393 25.0346L107.844 46.9556L116.468 31.4896Z" fill="white"/>
<path d="M126.492 41.6007L118.571 35.1781L108.907 52.5612C108.724 52.8885 108.459 53.1616 108.14 53.3532C107.82 53.5448 107.456 53.6482 107.084 53.6532H107.028C106.67 53.6534 106.322 53.5371 106.034 53.3216C105.746 53.1061 105.534 52.8026 105.43 52.4561L100.402 35.259L98.5957 54.2437C98.188 58.4904 102.544 61.1436 106.437 59.0243L132.375 44.8767C133.566 44.2367 134.518 43.2196 135.084 41.9809H127.579C127.185 41.9774 126.803 41.8439 126.492 41.6007Z" fill="white"/>
<path d="M45.4814 59.7442H36.8888L38.8551 43.3237H25.0909L23.0926 59.7442H14.5L19.2159 21.0953H27.8166L25.8263 37.4107H39.6544L41.6447 21.0953H50.2053L45.4814 59.7442Z" fill="white"/>
<path d="M72.5381 46.2114C72.8179 45.629 73.1056 45.0547 73.4173 44.4885C73.7291 43.9223 74.0408 43.356 74.3685 42.7898L86.0625 22.4462C86.1945 22.1797 86.3788 21.9433 86.6042 21.7513C86.8296 21.5594 87.0913 21.416 87.3734 21.3299C87.8679 21.1908 88.3788 21.1201 88.8921 21.1196H95.6063L90.8823 59.7442H83.3848L86.0625 37.2489C86.1104 36.7717 86.1984 36.2459 86.3103 35.6716C86.4222 35.0972 86.5501 34.4987 86.6939 33.8758L75.2078 53.8312C74.8905 54.3985 74.4188 54.8618 73.849 55.1658C73.2795 55.458 72.6491 55.6078 72.0106 55.6027H70.8276C70.2175 55.6182 69.6149 55.4643 69.0851 55.1578C68.5887 54.8607 68.2185 54.3881 68.046 53.8312L61.3717 33.8596C61.3344 34.4582 61.3024 35.0406 61.2758 35.6069C61.2758 36.1731 61.2118 36.6908 61.1559 37.1518L58.5341 59.8008H50.9886L55.7046 21.1762H63.1782C63.4311 21.1718 63.6828 21.2128 63.9215 21.2976C64.138 21.3765 64.3326 21.5069 64.489 21.6777C64.6773 21.9146 64.8111 22.1909 64.8807 22.4866L71.6269 42.7575C71.9626 43.9061 72.2743 45.0466 72.5381 46.2114Z" fill="white"/>
<path d="M18.0208 74.839L17.4693 79.358H14.5147L16.1377 65.952H20.5341C21.2232 65.9346 21.9103 66.0339 22.5668 66.2458C23.0807 66.4061 23.5538 66.6771 23.9535 67.04C24.3061 67.3717 24.576 67.7826 24.7414 68.2393C24.9111 68.7211 24.9965 69.229 24.9935 69.7403C24.9996 70.4295 24.8877 71.1146 24.6626 71.7655C24.4466 72.3653 24.0992 72.9082 23.6462 73.3539C23.1477 73.8316 22.5542 74.1971 21.905 74.4261C21.1059 74.6972 20.2661 74.8262 19.4232 74.8073L18.0208 74.839ZM18.8087 68.1916L18.2729 72.5835H19.7068C20.0726 72.5966 20.4372 72.5345 20.7783 72.4008C21.0501 72.2811 21.2902 72.0989 21.4796 71.8687C21.6614 71.6338 21.7929 71.3634 21.8656 71.0745C21.9474 70.7313 21.987 70.3792 21.9838 70.0262C21.9875 69.7788 21.9529 69.5323 21.8814 69.2955C21.8145 69.0843 21.7044 68.8895 21.5583 68.7237C21.4038 68.5621 21.2153 68.4373 21.0068 68.3584C20.7555 68.2619 20.4878 68.216 20.219 68.2234L18.8087 68.1916Z" fill="white"/>
<path d="M28.8305 74.3546L28.2159 79.358H25.285L26.908 65.952H30.942C31.6468 65.9376 32.35 66.0259 33.0298 66.214C33.5421 66.3601 34.0212 66.6056 34.4401 66.9368C34.7888 67.2306 35.0596 67.6072 35.228 68.0328C35.3983 68.4675 35.484 68.9313 35.4801 69.3988C35.4799 69.8743 35.4136 70.3475 35.2832 70.8045C35.1529 71.2363 34.959 71.6459 34.708 72.0196C34.4585 72.3958 34.1498 72.7284 33.7941 73.0044C33.4184 73.3 33.0016 73.5382 32.5571 73.7113C32.742 73.8185 32.9162 73.9435 33.0771 74.0845C33.2397 74.2417 33.3685 74.4309 33.4553 74.6405L35.3856 79.358H32.7068C32.4869 79.3675 32.2687 79.3152 32.0765 79.2071C31.9093 79.1177 31.7824 78.967 31.722 78.7862L30.2801 74.8152C30.2306 74.6662 30.1337 74.5378 30.0044 74.4499C29.8516 74.3698 29.6798 74.334 29.508 74.3466L28.8305 74.3546ZM29.6183 68.1916L29.1141 72.2817H30.2014C30.5736 72.2931 30.944 72.2255 31.2886 72.0832C31.568 71.9687 31.8164 71.789 32.0135 71.559C32.1996 71.3246 32.3363 71.0543 32.4153 70.7648C32.4952 70.4617 32.535 70.1492 32.5335 69.8356C32.5372 69.6038 32.5026 69.3729 32.4311 69.1526C32.3589 68.9523 32.24 68.7725 32.0844 68.6284C31.916 68.4763 31.7172 68.3626 31.5014 68.2948C31.2337 68.2107 30.9544 68.1705 30.6741 68.1757L29.6183 68.1916Z" fill="white"/>
<path d="M61.551 71.7973C61.5561 72.4958 61.474 73.1922 61.3067 73.8701C61.1489 74.5046 60.9106 75.1158 60.5976 75.6888C60.3017 76.2461 59.9305 76.7593 59.4946 77.2137C59.0598 77.6623 58.5668 78.0497 58.0291 78.3653C57.4791 78.69 56.8881 78.9384 56.2722 79.1039C55.6185 79.2738 54.946 79.3592 54.271 79.358H49.4886L51.1273 65.952H55.9098C56.7193 65.9378 57.5234 66.0891 58.2734 66.3967C58.9458 66.6769 59.5524 67.0963 60.054 67.6277C60.5316 68.1665 60.8985 68.7955 61.1334 69.4782C61.4078 70.2202 61.5492 71.0054 61.551 71.7973ZM58.5019 71.8687C58.5078 71.3672 58.4441 70.8673 58.3128 70.3836C58.2049 69.9721 58.0175 69.5862 57.7613 69.2479C57.5143 68.9389 57.2021 68.6892 56.8473 68.5172C56.4612 68.3423 56.0415 68.2556 55.6182 68.2631H53.8298L52.774 77.0469H54.5625C55.1297 77.057 55.6912 76.9318 56.2013 76.6816C56.6913 76.4413 57.1179 76.0875 57.4461 75.6491C57.8033 75.1729 58.0704 74.6345 58.234 74.0607C58.4258 73.3465 58.516 72.6085 58.5019 71.8687Z" fill="white"/>
<path d="M67.3734 76.9993C67.7211 77.0034 68.0655 76.9302 68.3819 76.7848C68.6838 76.6384 68.9521 76.4301 69.1697 76.1733C69.4164 75.8839 69.611 75.5533 69.7449 75.1964C69.9098 74.7875 70.0159 74.3569 70.06 73.9178L71.0291 65.9758H73.9994L73.0303 73.9178C72.9387 74.6992 72.7232 75.4607 72.3922 76.1733C72.0887 76.8471 71.6639 77.4584 71.1394 77.9761C70.6143 78.4736 69.999 78.8646 69.3273 79.1277C68.6074 79.4132 67.8397 79.5561 67.0661 79.5486C66.3891 79.5586 65.7161 79.4428 65.0807 79.2071C64.5271 78.9965 64.0248 78.6688 63.6073 78.2461C63.2065 77.8197 62.898 77.314 62.7013 76.761C62.4883 76.1486 62.3817 75.5038 62.3861 74.8549C62.3892 74.555 62.4076 74.2555 62.4413 73.9575L63.3946 66.0155H66.3728L65.4037 73.9575C65.4037 74.0687 65.4037 74.1798 65.4037 74.291C65.4037 74.4022 65.4037 74.4975 65.4037 74.6008C65.351 75.2314 65.5121 75.8614 65.8607 76.3877C66.0467 76.6032 66.2809 76.771 66.5439 76.8773C66.8069 76.9836 67.0912 77.0254 67.3734 76.9993Z" fill="white"/>
<path d="M79.8927 77.039C80.1862 77.0442 80.4794 77.0176 80.7673 76.9596C80.9843 76.9183 81.1959 76.8517 81.3976 76.761C81.558 76.6938 81.709 76.6057 81.8467 76.4989L82.1776 76.2368C82.2721 76.1574 82.3667 76.0939 82.4454 76.0383C82.53 75.9915 82.6248 75.967 82.7212 75.9668C82.8052 75.9632 82.8889 75.9795 82.9654 76.0145C83.02 76.0409 83.0684 76.0788 83.1073 76.1256L84.1473 77.3884C83.5904 78.0684 82.8871 78.6116 82.0909 78.9768C81.2354 79.3475 80.3117 79.5315 79.3806 79.5169C78.6135 79.5316 77.8525 79.3771 77.1509 79.0642C76.5229 78.7815 75.9636 78.3641 75.5121 77.8411C75.0576 77.2948 74.7148 76.6632 74.5037 75.9827C74.2716 75.2349 74.1573 74.4551 74.1649 73.6716C74.1624 72.936 74.2471 72.2028 74.417 71.4875C74.5787 70.8267 74.8222 70.189 75.1418 69.5894C75.4375 69.0087 75.8143 68.4738 76.2606 68.001C76.9078 67.3027 77.6912 66.7469 78.5617 66.3683C79.4321 65.9897 80.3708 65.7966 81.3188 65.8011C81.777 65.7968 82.2343 65.8448 82.6818 65.944C83.0674 66.028 83.4408 66.1615 83.7927 66.3411C84.1136 66.5004 84.4129 66.7005 84.683 66.9368C84.9411 67.174 85.1711 67.4405 85.3685 67.731L84.3285 68.9461C84.2519 69.0308 84.1675 69.1079 84.0764 69.1764C83.9592 69.2442 83.8253 69.2773 83.6903 69.2717C83.5913 69.2726 83.4936 69.248 83.4067 69.2002C83.3146 69.1475 83.2276 69.0864 83.1467 69.0176L82.8473 68.7873C82.7291 68.6917 82.5994 68.6117 82.4612 68.549C82.2861 68.4731 82.104 68.4146 81.9176 68.3743C81.6714 68.323 81.4204 68.2991 81.1691 68.3028C80.6233 68.2961 80.0836 68.4185 79.5933 68.6602C79.102 68.9017 78.6711 69.2519 78.3327 69.6847C77.9594 70.1576 77.6762 70.6962 77.4976 71.2731C77.2873 71.9623 77.1863 72.6806 77.1982 73.4016C77.1878 73.9175 77.2569 74.4319 77.403 74.9264C77.5184 75.3365 77.7081 75.7216 77.9624 76.0621C78.1868 76.362 78.4784 76.6042 78.8133 76.7689C79.1457 76.9469 79.5164 77.0396 79.8927 77.039Z" fill="white"/>
<path d="M95.5006 65.952L95.1854 68.3346H91.8133L90.4582 79.366H87.5036L88.8351 68.3346H85.4394L85.7309 65.952H95.5006Z" fill="white"/>
<path d="M98.2187 79.358H95.2248L96.8478 65.952H99.8418L98.2187 79.358Z" fill="white"/>
<path d="M112.976 69.4464C112.737 68.7445 112.359 68.0988 111.865 67.5483C111.372 66.9982 110.768 66.562 110.092 66.2696C109.345 65.949 108.54 65.792 107.728 65.809C107.05 65.8046 106.373 65.8955 105.719 66.079C105.102 66.266 104.511 66.5329 103.962 66.8732C103.419 67.1997 102.923 67.6006 102.489 68.0645C102.05 68.5431 101.674 69.077 101.37 69.6529C101.062 70.2392 100.824 70.8604 100.661 71.5034C100.492 72.1865 100.407 72.8881 100.409 73.5921C100.403 74.4027 100.533 75.2083 100.795 75.9747C101.041 76.6727 101.422 77.3149 101.914 77.8649C102.411 78.411 103.018 78.8442 103.694 79.1356C104.441 79.4551 105.247 79.612 106.058 79.5963C106.734 79.6011 107.408 79.5102 108.059 79.3262C108.678 79.1443 109.27 78.8771 109.816 78.5321C110.359 78.2075 110.852 77.8063 111.282 77.3408C111.723 76.8636 112.099 76.3295 112.401 75.7524C112.714 75.171 112.952 74.5518 113.11 73.9098C113.278 73.2293 113.363 72.5304 113.362 71.829C113.372 71.0182 113.242 70.2117 112.976 69.4464ZM110.045 74.0051C109.886 74.6001 109.618 75.1602 109.257 75.6571C108.934 76.1042 108.513 76.4709 108.028 76.7292C107.52 76.9857 106.957 77.1138 106.389 77.1025C105.957 77.1113 105.529 77.0217 105.136 76.8404C104.778 76.6702 104.465 76.4171 104.222 76.1018C103.961 75.7588 103.768 75.3676 103.655 74.9502C103.523 74.4611 103.46 73.9559 103.466 73.4492C103.461 72.7256 103.551 72.0046 103.734 71.3049C103.895 70.708 104.162 70.1456 104.522 69.645C104.843 69.1961 105.264 68.8289 105.751 68.5728C106.237 68.3179 106.778 68.187 107.327 68.1916L106.042 72.6232L107.799 73.1394L109.084 68.7316C109.267 68.8675 109.431 69.0278 109.572 69.2082C109.836 69.5537 110.031 69.9474 110.147 70.3677C110.285 70.8557 110.351 71.3614 110.344 71.8687C110.343 72.5914 110.242 73.3103 110.045 74.0051Z" fill="white"/>
<path d="M117.27 65.9678C117.351 65.9765 117.431 65.9979 117.506 66.0314C117.579 66.0645 117.643 66.1133 117.695 66.1743C117.758 66.2483 117.813 66.3281 117.861 66.4126L122.525 74.6961C122.531 74.4886 122.549 74.2818 122.58 74.0766C122.58 73.8781 122.619 73.6954 122.643 73.5286L123.533 65.952H126.165L124.518 79.358H122.942C122.746 79.3649 122.55 79.3297 122.367 79.2548C122.195 79.1736 122.058 79.0326 121.981 78.8577L117.333 70.5901C117.333 70.7648 117.333 70.9316 117.293 71.0904C117.254 71.2493 117.293 71.4002 117.254 71.5352L116.34 79.358H113.708L115.355 65.952H116.931L117.27 65.9678Z" fill="white"/>
<path d="M134.634 68.6443C134.55 68.7692 134.443 68.877 134.319 68.962C134.206 69.0332 134.074 69.0691 133.941 69.0652C133.788 69.0601 133.641 69.0104 133.516 68.9223L133.051 68.6205C132.859 68.5041 132.659 68.4032 132.452 68.3187C131.957 68.148 131.419 68.148 130.923 68.3187C130.728 68.391 130.548 68.5016 130.396 68.6443C130.256 68.7861 130.148 68.9568 130.08 69.1446C130.009 69.3458 129.974 69.5584 129.978 69.772C129.972 69.9939 130.045 70.2106 130.183 70.3836C130.336 70.5614 130.52 70.7094 130.727 70.8204C130.98 70.9578 131.243 71.0746 131.514 71.1698C131.806 71.2731 132.097 71.3843 132.397 71.5113C132.7 71.6322 132.994 71.7728 133.279 71.9323C133.571 72.088 133.837 72.289 134.067 72.5279C134.302 72.7786 134.486 73.0725 134.611 73.3936C134.757 73.7813 134.827 74.1941 134.816 74.6087C134.822 75.2606 134.705 75.9077 134.469 76.5148C134.252 77.1085 133.914 77.6496 133.476 78.1032C133.027 78.5587 132.491 78.918 131.9 79.1595C130.873 79.5765 129.743 79.6679 128.662 79.4216C128.282 79.3361 127.91 79.2165 127.551 79.0642C127.204 78.9079 126.871 78.7191 126.559 78.5003C126.265 78.2989 126 78.0584 125.771 77.7855L126.827 76.3877C126.91 76.2785 127.018 76.1913 127.142 76.1336C127.257 76.0676 127.387 76.0321 127.52 76.0303C127.7 76.0296 127.876 76.0912 128.016 76.2051L128.552 76.6022C128.765 76.7553 128.992 76.8882 129.23 76.9992C129.531 77.1275 129.856 77.1898 130.183 77.1819C130.417 77.198 130.652 77.1654 130.873 77.0862C131.093 77.0069 131.296 76.8827 131.467 76.7213C131.627 76.5392 131.749 76.3266 131.827 76.0961C131.904 75.8655 131.934 75.6217 131.916 75.3791C131.929 75.1343 131.857 74.8926 131.711 74.6961C131.564 74.5111 131.382 74.3573 131.176 74.2434C130.923 74.1108 130.66 74.0018 130.388 73.9178L129.513 73.608C129.213 73.498 128.921 73.368 128.639 73.2189C128.345 73.0696 128.078 72.8708 127.851 72.6312C127.619 72.3705 127.438 72.0689 127.315 71.7417C127.17 71.3234 127.101 70.8822 127.11 70.4392C127.109 69.8511 127.221 69.2684 127.441 68.7237C127.659 68.1773 127.983 67.6804 128.394 67.2624C128.824 66.8285 129.336 66.4856 129.899 66.2538C130.88 65.8602 131.955 65.769 132.988 65.9917C133.332 66.0656 133.668 66.1775 133.988 66.3252C134.288 66.4617 134.574 66.6294 134.839 66.8256C135.081 67.0058 135.298 67.2166 135.485 67.453L134.634 68.6443Z" fill="white"/>
<path d="M48.7322 69.4464C48.487 68.7473 48.1097 68.1028 47.6213 67.5483C47.1257 67.0017 46.5218 66.5661 45.8486 66.2696C45.1018 65.9497 44.2962 65.7928 43.485 65.809C42.806 65.8036 42.1297 65.8945 41.4759 66.079C40.8561 66.2659 40.2629 66.5329 39.711 66.8732C39.1701 67.1999 38.6769 67.6009 38.2456 68.0645C37.8038 68.5411 37.4275 69.0753 37.1268 69.6529C36.8151 70.2377 36.5769 70.8593 36.4177 71.5034C36.2448 72.1858 36.1601 72.8879 36.1656 73.5921C36.1547 74.403 36.2854 75.2095 36.5516 75.9747C36.7959 76.6737 37.1762 77.3163 37.6704 77.8649C38.1665 78.409 38.7704 78.842 39.4431 79.1357C40.1904 79.454 40.9956 79.6109 41.8068 79.5963C42.4805 79.6006 43.1514 79.5097 43.8001 79.3263C44.4216 79.144 45.0154 78.8767 45.5649 78.5321C46.1073 78.2075 46.6008 77.8063 47.0304 77.3408C47.4691 76.8634 47.8427 76.3292 48.1413 75.7524C48.4543 75.171 48.6926 74.5519 48.8504 73.9098C49.0228 73.23 49.1075 72.5307 49.1025 71.829C49.1184 71.0191 48.9931 70.2126 48.7322 69.4464ZM45.8013 74.0051C45.6389 74.5989 45.372 75.1584 45.0134 75.6571L44.9662 75.7206L43.6347 72.3294L41.6492 73.1236L43.1619 76.9754C42.8287 77.0696 42.4838 77.1151 42.1377 77.1104C41.7085 77.1184 41.283 77.0288 40.8928 76.8484C40.5311 76.6805 40.2148 76.4272 39.971 76.1098C39.7121 75.7662 39.5221 75.375 39.4116 74.9582C39.2798 74.4691 39.2162 73.9639 39.2225 73.4571C39.2138 72.7334 39.3039 72.0118 39.4904 71.3128C39.6544 70.7172 39.921 70.1553 40.2783 69.6529C40.6016 69.2058 41.022 68.839 41.5074 68.5808C42.0118 68.321 42.5719 68.1901 43.1383 68.1995C43.5675 68.1916 43.9929 68.2812 44.3831 68.4616C44.7467 68.6338 45.0651 68.8895 45.3128 69.2082C45.5769 69.5537 45.7722 69.9474 45.888 70.3677C46.022 70.8565 46.0883 71.3616 46.0849 71.8687C46.0884 72.5906 45.993 73.3096 45.8013 74.0051Z" fill="white"/>
</svg>
