<svg width="72" height="73" viewBox="0 0 72 73" fill="none" xmlns="http://www.w3.org/2000/svg">
<rect y="0.378906" width="72" height="72" fill="white" fill-opacity="0.2"/>
<path d="M35.81 25.1389C39.62 25.1389 42.83 24.2389 43.86 21.9689C42.49 18.6789 39.4 16.3789 35.81 16.3789C32.22 16.3789 29.13 18.6789 27.76 21.9689C28.79 24.2389 32 25.1389 35.81 25.1389ZM44.59 25.0989C41.94 27.3889 37.55 27.6389 35.81 27.6389C34.07 27.6389 29.68 27.3889 27.03 25.0989C27.02 25.3189 27 25.5389 27 25.7589C27 30.9389 30.94 32.8889 35.81 32.8889C40.68 32.8889 44.62 30.9389 44.62 25.7589C44.62 25.5389 44.6 25.3189 44.59 25.0989Z" fill="white"/>
<path d="M35.81 35.389C33.45 35.389 31.42 34.979 29.75 34.229L31.64 55.059C31.64 56.159 32.54 57.059 33.64 57.059H37.64C38.74 57.059 39.64 56.159 39.64 55.059L41.52 34.389C39.92 35.039 38 35.389 35.81 35.389ZM35.64 42.889C34.81 42.889 34.14 42.219 34.14 41.389C34.14 40.559 34.81 39.889 35.64 39.889C36.47 39.889 37.14 40.559 37.14 41.389C37.14 42.219 36.47 42.889 35.64 42.889Z" fill="white"/>
</svg>
